<svg height="512" viewBox="0 0 58 60" width="512" xmlns="http://www.w3.org/2000/svg"><g id="Page-1" fill="none" fill-rule="evenodd"><g id="002---Light" fill-rule="nonzero"><path id="Shape" d="m35.06 48.01c-.0402133.3217653-.0602525.6457317-.06.97v3.02c0 .5522847-.4477153 1-1 1h-12c-.5522847 0-1-.4477153-1-1v-3.02c.0002525-.3242683-.0197867-.6482347-.06-.97l.06-.01h14z" fill="#ffe0e2"/><path id="Shape" d="m35 48h-3l.06.01c-.0402133.3217653-.0602525.6457317-.06.97v3.02c0 .5522847-.4477153 1-1 1h3c.5522847 0 1-.4477153 1-1v-3.02c-.0002525-.3242683.0197867-.6482347.06-.97z" fill="#ff9ea1"/><path id="Shape" d="m39.1 42c-2.2127048 1.2610141-3.7076763 3.4849693-4.04 6.01l-.06-.01h-14l-.06.01c-.3449248-2.5308765-1.8447335-4.7584249-4.06-6.03-8.56511398-5.0238381-12.7015018-15.1638438-10.09424851-24.7451985 2.60725329-9.58135462 11.31137271-16.22723492 21.24112831-16.21829725 9.9297557.00893767 18.6218972 6.67047618 21.2118981 16.25650885 2.5900009 9.5860326-1.564634 19.7185757-10.1387779 24.7269869z" fill="#ffe7e8"/><path id="Shape" d="m20.94 48.01.06-.01h-.062z" fill="#ffc9cc"/><path id="Shape" d="m49.91 21.02c-.9534365-10.3872206-9.0579418-18.68369663-19.42-19.88-1.322987-.1447103-2.656179-.17215049-3.984-.082.327.022.654.046.984.082 9.4179266 1.06852048 17.0927804 8.04887035 19.0471353 17.3235442 1.9543549 9.2746738-2.251185 18.7584546-10.4371353 23.5364558-2.2094716 1.2592966-3.7033137 3.4789729-4.038 6h2.938l.06.01c.3323237-2.5250307 1.8272952-4.7489859 4.04-6.01 7.3670019-4.3052404 11.5801382-12.4820768 10.81-20.98z" fill="#ffc9cc"/><path id="Shape" d="m26 53v4c0 1.1045695-.8954305 2-2 2s-2-.8954305-2-2v-4z" fill="#ff9ea1"/><path id="Shape" d="m34 53v4c0 1.1045695-.8954305 2-2 2s-2-.8954305-2-2v-4z" fill="#ff9ea1"/><path id="Shape" d="m16.88 41.98c2.2119494 1.2699531 3.7105973 3.4931813 4.058 6.02.1 0 .062 3.9.062 4 0 .5522847.4477153 1 1 1v4c-.0034236.8339273.5132268 1.5816298 1.2944668 1.8733671.7812399.2917373 1.6615172.0656876 2.2055332-.5663671-.3199584-.3604295-.4977008-.8250482-.5-1.307v-4c-.5522847 0-1-.4477153-1-1 0-.1.038-4-.062-4-.3474027-2.5268187-1.8460506-4.7500469-4.058-6.02-8.3027055-4.8651691-12.47733415-14.563914-10.30378894-23.9383735 2.17354524-9.37445943 10.19025604-16.24654239 19.78678894-16.9616265-.253-.015-.5-.049-.754-.056-10.0357354-.27714372-18.98517883 6.27735245-21.74920272 15.9289308-2.76402389 9.6515784 1.35912669 19.9498106 10.02020272 25.0270692z" fill="#fff"/><path id="Shape" d="m6.526 14.825 1.87.712c-.89940773 2.3865458-1.37194308 4.9127144-1.396 7.463h-2c.02447069-2.7934867.54103683-5.5608053 1.526-8.175z" fill="#fff"/><g fill="#ff414c"><path id="Shape" d="m6.4 20.018c-.55228473.0027614-1.00223852-.4427153-1.00499994-.995-.00276143-.5522847.44271521-1.0022385.99499994-1.005h.01c.55228475 0 1 .4477153 1 1s-.44771525 1-1 1z"/><path id="Shape" d="m16.369 42.845c2.2221989 1.2471366 3.6073373 3.5878717 3.631 6.136v3.019c.002145.7113268.3832487 1.3675874 1 1.722v3.278c0 1.6568542 1.3431458 3 3 3s3-1.3431458 3-3v-3h2v3c0 1.6568542 1.3431458 3 3 3s3-1.3431458 3-3v-3.278c.6167513-.3544126.997855-1.0106732 1-1.722v-3.021c.0158853-2.5373983 1.3895845-4.8719239 3.6-6.118 8.5585743-4.9947646 12.9558884-14.9097026 10.912977-24.606268-2.0429114-9.69656536-10.0667178-16.99457167-19.912977-18.111732-2.5206495-.23842338-5.0626298-.10635495-7.545.392-2.4687213.57289822-4.8328586 1.52773031-7.007 2.83-2.1663991 1.31591301-4.0959914 2.98689665-5.708 4.943-.80871113.97279117-1.54406646 2.0042942-2.2 3.086-.62228491 1.1020875-1.16177181 2.248915-1.614 3.431-.10812962.2464595-.10712603.5271263.00276335.7728062s.31843997.4335138.57423665.5171938c.51541559.1667721 1.07353634-.0827204 1.293-.578.41160451-1.0788638.90261652-2.1257321 1.469-3.132.6010766-.9865623 1.2731867-1.9280513 2.011-2.817 1.4723082-1.78693903 3.234939-3.31326779 5.214-4.515 1.9845123-1.18754825 4.1416136-2.05929517 6.394-2.584 2.2705664-.45253358 4.5947928-.57312388 6.9-.358 8.9870344 1.02376247 16.3088182 7.6870229 18.1725357 16.5380925 1.8637176 8.8510697-2.1494202 17.9010577-9.9605357 22.4619075-2.1923037 1.2783425-3.7645862 3.3996589-4.35 5.869h-2.246v-7c0-.5522847-.4477153-1-1-1s-1 .4477153-1 1v7h-4v-7c0-.5522847-.4477153-1-1-1s-1 .4477153-1 1v7h-2.24c-.5807289-2.4823677-2.1668494-4.6118042-4.379-5.879-6.416533-3.7843224-10.36209194-10.6716621-10.381-18.121 0-.5522847-.44771525-1-1-1s-1 .4477153-1 1c.01929338 8.1585288 4.34076908 15.7018207 11.369 19.845zm17.631 6.155v3h-12v-3zm-9 8c0 .5522847-.4477153 1-1 1s-1-.4477153-1-1v-3h2zm8 0c0 .5522847-.4477153 1-1 1s-1-.4477153-1-1v-3h2z"/><path id="Shape" d="m13.852 12.883c.3065484.0001866.5962466-.1402396.786-.381 1.8117524-2.3022204 4.1846003-4.10036456 6.891-5.222.330292-.13647546.5626857-.43879268.6096405-.7930717.0469548-.35427903-.0986628-.70669644-.382-.9245-.2833372-.21780357-.6613485-.26790376-.9916405-.1314283-3.0236859 1.25358286-5.6749609 3.26235405-7.7 5.834-.2365896.3009733-.2805852.7106053-.1133051 1.0549554.1672801.34435.5164741.5629764.8993051.5630446z"/><path id="Shape" d="m25 37c.5522847 0 1-.4477153 1-1v-2c0-.5522847-.4477153-1-1-1s-1 .4477153-1 1v2c0 .5522847.4477153 1 1 1z"/><path id="Shape" d="m31 37c.5522847 0 1-.4477153 1-1v-2c0-.5522847-.4477153-1-1-1s-1 .4477153-1 1v2c0 .5522847.4477153 1 1 1z"/><path id="Shape" d="m2 59c0 .5522847.44771525 1 1 1h2c.55228475 0 1-.4477153 1-1s-.44771525-1-1-1h-2c-.55228475 0-1 .4477153-1 1z"/><path id="Shape" d="m9 60h9c.5522847 0 1-.4477153 1-1s-.4477153-1-1-1h-9c-.55228475 0-1 .4477153-1 1s.44771525 1 1 1z"/><path id="Shape" d="m50 59c0 .5522847.4477153 1 1 1h2c.5522847 0 1-.4477153 1-1s-.4477153-1-1-1h-2c-.5522847 0-1 .4477153-1 1z"/><path id="Shape" d="m38 58c-.5522847 0-1 .4477153-1 1s.4477153 1 1 1h9c.5522847 0 1-.4477153 1-1s-.4477153-1-1-1z"/><path id="Shape" d="m52 0c-.5522847 0-1 .44771525-1 1v2c0 .55228475.4477153 1 1 1s1-.44771525 1-1v-2c0-.55228475-.4477153-1-1-1z"/><path id="Shape" d="m52 8c-.5522847 0-1 .44771525-1 1v2c0 .5522847.4477153 1 1 1s1-.4477153 1-1v-2c0-.55228475-.4477153-1-1-1z"/><path id="Shape" d="m49 5h-2c-.5522847 0-1 .44771525-1 1s.4477153 1 1 1h2c.5522847 0 1-.44771525 1-1s-.4477153-1-1-1z"/><path id="Shape" d="m57 5h-2c-.5522847 0-1 .44771525-1 1s.4477153 1 1 1h2c.5522847 0 1-.44771525 1-1s-.4477153-1-1-1z"/><path id="Shape" d="m6 41c-.55228475 0-1 .4477153-1 1v2c0 .5522847.44771525 1 1 1s1-.4477153 1-1v-2c0-.5522847-.44771525-1-1-1z"/><path id="Shape" d="m6 49c-.55228475 0-1 .4477153-1 1v2c0 .5522847.44771525 1 1 1s1-.4477153 1-1v-2c0-.5522847-.44771525-1-1-1z"/><path id="Shape" d="m3 46h-2c-.55228475 0-1 .4477153-1 1s.44771525 1 1 1h2c.55228475 0 1-.4477153 1-1s-.44771525-1-1-1z"/><path id="Shape" d="m11 46h-2c-.55228475 0-1 .4477153-1 1s.44771525 1 1 1h2c.5522847 0 1-.4477153 1-1s-.4477153-1-1-1z"/></g></g></g></svg>