<svg height="512" viewBox="0 0 60 60" width="512" xmlns="http://www.w3.org/2000/svg"><g id="Page-1" fill="none" fill-rule="evenodd"><g id="003---Folder" fill-rule="nonzero"><path id="Shape" d="m53 13v2h-40c-3.3137085 0-6 2.6862915-6 6v38c-3.3137085 0-6-2.6862915-6-6v-46c0-3.3137085 2.6862915-6 6-6h17c3.3116533.00495634 5.9950437 2.68834666 6 6 0 1.65685425 1.3431458 3 3 3h17c1.6568542 0 3 1.3431458 3 3z" fill="#ffe0e2"/><path id="Shape" d="m27 7c0 1.65685425 1.3431458 3 3 3h3c-1.6568542 0-3-1.34314575-3-3-.0049563-3.31165334-2.6883467-5.99504366-6-6h-3c3.3116533.00495634 5.9950437 2.68834666 6 6z" fill="#ff9ea1"/><path id="Shape" d="m50 10h-3c1.6568542 0 3 1.3431458 3 3v2h3v-2c0-1.6568542-1.3431458-3-3-3z" fill="#ff9ea1"/><path id="Shape" d="m4 21v37.189c.91057312.5311431 1.94583855.8110098 3 .811v-38c0-3.3137085 2.6862915-6 6-6h-3c-3.3137085 0-6 2.6862915-6 6z" fill="#ff9ea1"/><path id="Shape" d="m59 21v32c0 3.3137085-2.6862915 6-6 6h-46v-38c0-3.3137085 2.6862915-6 6-6h40c3.3137085 0 6 2.6862915 6 6z" fill="#ffe7e8"/><path id="Shape" d="m53 15h-3c3.3137085 0 6 2.6862915 6 6v32c0 3.3137085-2.6862915 6-6 6h3c3.3137085 0 6-2.6862915 6-6v-32c0-3.3137085-2.6862915-6-6-6z" fill="#ffc9cc"/><path id="Shape" d="m5.5 58.8c.714.185 3.65.168 3 0-2.64569834-.6831127-4.49568409-3.0675388-4.5-5.8v-46c0-3.3137085 2.6862915-6 6-6h-3c-3.3137085 0-6 2.6862915-6 6v46c.00431591 2.7324612 1.85430166 5.1168873 4.5 5.8z" fill="#fff"/><path id="Rectangle-path" d="m0 19h2v8h-2z" fill="#fff"/><g fill="#ff414c"><circle id="Oval" cx="1" cy="23" r="1"/><path id="Shape" d="m54 14.08v-1.08c0-2.209139-1.790861-4-4-4h-17c-1.1045695 0-2-.8954305-2-2-.0044086-3.86416566-3.1358343-6.99559136-7-7h-17c-3.86416566.00440864-6.99559136 3.13583434-7 7v12c0 .5522847.44771525 1 1 1s1-.4477153 1-1v-12c.00330612-2.76005315 2.23994685-4.99669388 5-5h17c2.7600532.00330612 4.9966939 2.23994685 5 5 0 2.209139 1.790861 4 4 4h17c1.1045695 0 2 .8954305 2 2v1h-26c-.5522847 0-1 .4477153-1 1s.4477153 1 1 1h27c2.7600532.0033061 4.9966939 2.2399468 5 5v32c-.0033061 2.7600532-2.2399468 4.9966939-5 5h-46c-2.76005315-.0033061-4.99669388-2.2399468-5-5v-26c0-.5522847-.44771525-1-1-1s-1 .4477153-1 1v26c.00440864 3.8641657 3.13583434 6.9955914 7 7h46c3.8641657-.0044086 6.9955914-3.1358343 7-7v-32c-.0040745-3.4765822-2.5590733-6.4233474-6-6.92z"/><path id="Shape" d="m7 4c-1.65685425 0-3 1.34314575-3 3 0 .55228475.44771525 1 1 1s1-.44771525 1-1 .44771525-1 1-1 1-.44771525 1-1-.44771525-1-1-1z"/><path id="Shape" d="m7 48c-.55228475 0-1 .4477153-1 1v4c0 .5522847.44771525 1 1 1s1-.4477153 1-1v-4c0-.5522847-.44771525-1-1-1z"/><path id="Shape" d="m8 21c.00330612-2.7600532 2.2399468-4.9966939 5-5h7c.5522847 0 1-.4477153 1-1s-.4477153-1-1-1h-7c-3.86416566.0044086-6.99559136 3.1358343-7 7v23c.00000002.5522847.44771526 1 1 1s.99999998-.4477153 1-1z"/><path id="Shape" d="m53 56c.5522847 0 1-.4477153 1-1s-.4477153-1-1-1h-2c-.5522847 0-1 .4477153-1 1s.4477153 1 1 1z"/><path id="Shape" d="m46 56c.5522847 0 1-.4477153 1-1s-.4477153-1-1-1h-22c-.5522847 0-1 .4477153-1 1s.4477153 1 1 1z"/></g></g></g></svg>