<svg height="512" viewBox="0 0 46 60" width="512" xmlns="http://www.w3.org/2000/svg"><g id="Page-1" fill="none" fill-rule="evenodd"><g id="004---Timer" fill-rule="nonzero"><path id="Shape" d="m45 2v2c0 1.65685425-1.3431458 3-3 3h-38c-1.65685425 0-3-1.34314575-3-3v-2c0-.55228475.44771525-1 1-1h42c.5522847 0 1 .44771525 1 1z" fill="#ffe7e8"/><path id="Shape" d="m44 1h-3c.5522847 0 1 .44771525 1 1v2c0 1.65685425-1.3431458 3-3 3h3c1.6568542 0 3-1.34314575 3-3v-2c0-.55228475-.4477153-1-1-1z" fill="#ffc9cc"/><path id="Shape" d="m45 56v2c0 .5522847-.4477153 1-1 1h-42c-.55228475 0-1-.4477153-1-1v-2c0-1.6568542 1.34314575-3 3-3h38c1.6568542 0 3 1.3431458 3 3z" fill="#ffe7e8"/><path id="Shape" d="m42 53h-3c1.6568542 0 3 1.3431458 3 3v2c0 .5522847-.4477153 1-1 1h3c.5522847 0 1-.4477153 1-1v-2c0-1.6568542-1.3431458-3-3-3z" fill="#ffc9cc"/><path id="Shape" d="m34.27 22.11c-1.7250846 4.7372121-6.228463 7.889961-11.27 7.889961s-9.5449154-3.1527489-11.27-7.889961l-.01-.01.28-.1h22z" fill="#ffe7e8"/><path id="Shape" d="m34 22h-3l.27.11c-1.5383027 4.2232359-5.3102528 7.230758-9.77 7.79.4974592.0642357.9984162.0976329 1.5.1 5.0423825.0026454 9.5471339-3.1510803 11.27-7.89z" fill="#ffc9cc"/><path id="Shape" d="m35.0000374 7-.0000374 11c.0035116 1.3984196-.2402397 2.7864477-.72 4.1l-.01.01-.27-.11h-22l-.28.1c-.4797603-1.3135523-.7235116-2.7015804-.72-4.1l-.0000374-11z" fill="#ffe7e8"/><path id="Shape" d="m11.72 22.1.28-.1h-.312c.012.033.02.067.032.1z" fill="#ffc9cc"/><path id="Shape" d="m32 7v11c.0020926 1.3629509-.2306446 2.7160742-.688 4h2.688l.27.11.01-.01c.4797603-1.3135523.7235116-2.7015804.72-4.1v-11z" fill="#ffc9cc"/><path id="Shape" d="m31 53h-16l3.76-3.76c2.3425404-2.339627 6.1374596-2.339627 8.48 0z" fill="#ffe0e2"/><path id="Shape" d="m27.24 49.24c-1.5041536-1.4961329-3.6889503-2.0822978-5.74-1.54 1.0352449.2574859 1.9818422.789515 2.74 1.54l3.76 3.76h3z" fill="#ff9ea1"/><path id="Shape" d="m35 42v11h-4l-3.76-3.76c-2.3425404-2.339627-6.1374596-2.339627-8.48 0l-3.76 3.76h-4v-11c0-6.627417 5.372583-12 12-12s12 5.372583 12 12z" fill="#ffe7e8"/><path id="Shape" d="m23 30c-.5016016.0018663-1.0025897.0352655-1.5.1 5.9999999.751446 10.5014835 5.8531275 10.5 11.9v11h3v-11c0-6.627417-5.372583-12-12-12z" fill="#ffc9cc"/><path id="Shape" d="m23 30c-6.627417 0-12 5.372583-12 12v11h-5v-46h5v11c-.0035116 1.3984196.2402397 2.7864477.72 4.1l.01.01c1.7228661 4.7389197 6.2276175 7.8926454 11.27 7.89z" fill="#ffe0e2"/><path id="Shape" d="m40 7v46h-5v-11c0-6.627417-5.372583-12-12-12 5.0423825.0026454 9.5471339-3.1510803 11.27-7.89l.01-.01c.4797603-1.3135523.7235116-2.7015804.72-4.1v-11z" fill="#ffe0e2"/><path id="Rectangle-path" d="m37 7h3v46h-3z" fill="#ff9ea1"/><path id="Shape" d="m2 59h3c-.55228475 0-1-.4477153-1-1v-2c0-1.6568542 1.34314575-3 3-3h2v-46h-2c-1.65685425 0-3-1.34314575-3-3v-2c0-.55228475.44771525-1 1-1h-3c-.55228475 0-1 .44771525-1 1v2c0 1.65685425 1.34314575 3 3 3h2v46h-2c-1.65685425 0-3 1.3431458-3 3v2c0 .2652165.10535684.5195704.29289322.7071068s.44189029.2928932.70710678.2928932z" fill="#fff"/><path id="Rectangle-path" d="m5 27h2v8h-2z" fill="#fff"/><g fill="#ff414c"><path id="Shape" d="m2 60h42c1.1045695 0 2-.8954305 2-2v-2c0-2.209139-1.790861-4-4-4h-1v-29c0-.5522847-.4477153-1-1-1s-1 .4477153-1 1v29h-3v-10c-.0059151-5.2486659-3.1634868-9.9802919-8.008-12 4.8445132-2.0197081 8.0020849-6.7513341 8.008-12v-10h3v10c0 .5522847.4477153 1 1 1s1-.4477153 1-1v-10h1c2.209139 0 4-1.790861 4-4v-2c0-1.1045695-.8954305-2-2-2h-42c-1.1045695 0-2 .8954305-2 2v2c0 2.209139 1.790861 4 4 4h1v10c0 .5522847.44771525 1 1 1s1-.4477153 1-1v-10h3v10c.0059151 5.2486659 3.1634868 9.9802919 8.008 12-4.8445132 2.0197081-8.0020849 6.7513341-8.008 12v10h-3v-17c0-.5522847-.44771525-1-1-1s-1 .4477153-1 1v17h-1c-2.209139 0-4 1.790861-4 4v2c0 1.1045695.8954305 2 2 2zm0-56v-2h42v2c0 1.1045695-.8954305 2-2 2h-38c-1.1045695 0-2-.8954305-2-2zm11.214 19h2.786c.5522847 0 1-.4477153 1-1s-.4477153-1-1-1h-3.574c-.2801401-.9754689-.4235084-1.985105-.426-3v-10h22v10c-.0024916 1.014895-.1458599 2.0245311-.426 3h-12.574c-.5522847 0-1 .4477153-1 1s.4477153 1 1 1h11.786c-1.8734433 3.6818593-5.6549133 6.000582-9.786 6.000582s-7.9125567-2.3187227-9.786-6.000582zm-1.214 19c0-6.0751322 4.9248678-11 11-11s11 4.9248678 11 11v10h-2.586l-3.464-3.464c-2.7353257-2.7301467-7.1646743-2.7301467-9.9 0l-3.464 3.464h-2.586zm16.586 10h-11.172l2.05-2.05c1.9540975-1.9499346 5.1179025-1.9499346 7.072 0zm-26.586 4c0-1.1045695.8954305-2 2-2h38c1.1045695 0 2 .8954305 2 2v2h-42z"/><circle id="Oval" cx="6" cy="31" r="1"/><path id="Shape" d="m6 28c.55228475 0 1-.4477153 1-1v-4c0-.5522847-.44771525-1-1-1s-1 .4477153-1 1v4c0 .5522847.44771525 1 1 1z"/><path id="Shape" d="m15 10c-.5522847 0-1 .4477153-1 1v3c0 .5522847.4477153 1 1 1s1-.4477153 1-1v-3c0-.5522847-.4477153-1-1-1z"/><path id="Shape" d="m15 43c.5522847 0 1-.4477153 1-1v-3c0-.5522847-.4477153-1-1-1s-1 .4477153-1 1v3c0 .5522847.4477153 1 1 1z"/></g></g></g></svg>