<svg height="512" viewBox="0 0 60 60" width="512" xmlns="http://www.w3.org/2000/svg"><g id="Page-1" fill="none" fill-rule="evenodd"><g id="006---Printer" fill-rule="nonzero"><path id="Rectangle-path" d="m5 37h4v12h-4z" fill="#ffe0e2"/><path id="Shape" d="m59 21v24c0 2.209139-1.790861 4-4 4v-12h-50v12c-2.209139 0-4-1.790861-4-4v-24c0-2.209139 1.790861-4 4-4h50c2.209139 0 4 1.790861 4 4z" fill="#ffe7e8"/><path id="Shape" d="m55 17h-3c2.209139 0 4 1.790861 4 4v24c-.0028968.9663177-.3584924 1.8983338-1 2.621v1.379c2.209139 0 4-1.790861 4-4v-24c0-2.209139-1.790861-4-4-4z" fill="#ffc9cc"/><path id="Rectangle-path" d="m51 37h4v12h-4z" fill="#ffe0e2"/><path id="Shape" d="m49 7v10h-38v-10c0-3.3137085 2.6862915-6 6-6h26c3.3137085 0 6 2.6862915 6 6z" fill="#ffe0e2"/><path id="Shape" d="m43 1h-3c3.3137085 0 6 2.6862915 6 6v10h3v-10c0-3.3137085-2.6862915-6-6-6z" fill="#ff9ea1"/><path id="Shape" d="m51 37v16c.0731958 3.2386219-2.4914403 5.9241047-5.73 6h-30.54c-3.2385597-.0758953-5.80319584-2.7613781-5.73-6v-16z" fill="#ffe7e8"/><path id="Shape" d="m48 37v16c.0731958 3.2386219-2.4914403 5.9241047-5.73 6h3c3.2385597-.0758953 5.8031958-2.7613781 5.73-6v-16z" fill="#ffc9cc"/><path id="Shape" d="m14 7c0-3.3137085 2.6862915-6 6-6h-3c-3.3137085 0-6 2.6862915-6 6v10h3z" fill="#fff"/><path id="Shape" d="m5 49h3c-2.209139 0-4-1.790861-4-4v-24c0-2.209139 1.790861-4 4-4h-3c-2.209139 0-4 1.790861-4 4v24c0 2.209139 1.790861 4 4 4z" fill="#fff"/><path id="Rectangle-path" d="m0 21h2v8h-2z" fill="#fff"/><g fill="#ff414c"><circle id="Oval" cx="1" cy="25" r="1"/><path id="Shape" d="m5 50h3v3c-.06919772 3.7885668 2.9396656 6.9190726 6.728 7h30.544c3.7883344-.0809274 6.7971977-3.2114332 6.728-7v-3h3c2.7600532-.0033061 4.9966939-2.2399468 5-5v-24c-.0033061-2.7600532-2.2399468-4.9966939-5-5h-5v-9c-.0044086-3.86416566-3.1358343-6.99559136-7-7h-26c-3.8641657.00440864-6.9955914 3.13583434-7 7v9h-5c-2.76005315.0033061-4.99669388 2.2399468-5 5 0 .5522847.44771525 1 1 1s1-.4477153 1-1c0-1.6568542 1.34314575-3 3-3h50c1.6568542 0 3 1.3431458 3 3v24c-.0052514 1.2667854-.8056491 2.3937454-2 2.816v-11.816c0-.5522847-.4477153-1-1-1s-1 .4477153-1 1h-48c0-.5522847-.44771525-1-1-1s-1 .4477153-1 1v11.816c-1.19435087-.4222546-1.99474861-1.5492146-2-2.816v-16c0-.5522847-.44771525-1-1-1s-1 .4477153-1 1v16c.00330612 2.7600532 2.23994685 4.9966939 5 5zm7-34v-9c.0033061-2.76005315 2.2399468-4.99669388 5-5h26c2.7600532.00330612 4.9966939 2.23994685 5 5v9zm42 22v10h-2v-6c0-.5522847-.4477153-1-1-1s-1 .4477153-1 1v11c.0700473 2.6843769-2.043903 4.9199419-4.728 5h-30.544c-2.684097-.0800581-4.79804728-2.3156231-4.728-5v-11c0-.5522847-.44771525-1-1-1s-1 .4477153-1 1v6h-2v-10z"/><path id="Shape" d="m7 21h-1c-.55228475 0-1 .4477153-1 1s.44771525 1 1 1h1c.55228475 0 1-.4477153 1-1s-.44771525-1-1-1z"/><path id="Shape" d="m12 23c.5522847 0 1-.4477153 1-1s-.4477153-1-1-1h-1c-.5522847 0-1 .4477153-1 1s.4477153 1 1 1z"/><path id="Shape" d="m4 31v1c0 .5522847.44771525 1 1 1s1-.4477153 1-1v-1c0-.5522847-.44771525-1-1-1s-1 .4477153-1 1z"/><path id="Shape" d="m55 33c.5522847 0 1-.4477153 1-1v-1c0-.5522847-.4477153-1-1-1s-1 .4477153-1 1v1c0 .5522847.4477153 1 1 1z"/><path id="Shape" d="m8 32c0 .5522847.44771525 1 1 1h2c.5522847 0 1-.4477153 1-1s-.4477153-1-1-1h-2c-.55228475 0-1 .4477153-1 1z"/><path id="Shape" d="m51 33c.5522847 0 1-.4477153 1-1s-.4477153-1-1-1h-2c-.5522847 0-1 .4477153-1 1s.4477153 1 1 1z"/><path id="Shape" d="m45 33c.5522847 0 1-.4477153 1-1s-.4477153-1-1-1h-30c-.5522847 0-1 .4477153-1 1s.4477153 1 1 1z"/><path id="Shape" d="m18 45h8c.5522847 0 1-.4477153 1-1s-.4477153-1-1-1h-8c-.5522847 0-1 .4477153-1 1s.4477153 1 1 1z"/><path id="Shape" d="m34 45h8c.5522847 0 1-.4477153 1-1s-.4477153-1-1-1h-8c-.5522847 0-1 .4477153-1 1s.4477153 1 1 1z"/><path id="Shape" d="m18 49h8c.5522847 0 1-.4477153 1-1s-.4477153-1-1-1h-8c-.5522847 0-1 .4477153-1 1s.4477153 1 1 1z"/><path id="Shape" d="m34 49h8c.5522847 0 1-.4477153 1-1s-.4477153-1-1-1h-8c-.5522847 0-1 .4477153-1 1s.4477153 1 1 1z"/><path id="Shape" d="m18 53h8c.5522847 0 1-.4477153 1-1s-.4477153-1-1-1h-8c-.5522847 0-1 .4477153-1 1s.4477153 1 1 1z"/><path id="Shape" d="m34 53h8c.5522847 0 1-.4477153 1-1s-.4477153-1-1-1h-8c-.5522847 0-1 .4477153-1 1s.4477153 1 1 1z"/><path id="Shape" d="m18 4h-2c-.5522847 0-1 .44771525-1 1s.4477153 1 1 1h2c.5522847 0 1-.44771525 1-1s-.4477153-1-1-1z"/><path id="Shape" d="m41 4h-19c-.5522847 0-1 .44771525-1 1s.4477153 1 1 1h19c.5522847 0 1-.44771525 1-1s-.4477153-1-1-1z"/></g></g></g></svg>