<svg height="512" viewBox="0 0 60 56" width="512" xmlns="http://www.w3.org/2000/svg"><g id="Page-1" fill="none" fill-rule="evenodd"><g id="007---Camera" fill-rule="nonzero"><rect id="Rectangle-path" fill="#ffe7e8" height="42" rx="4" width="58" x="1" y="13"/><path id="Shape" d="m55 13h-3c2.209139 0 4 1.790861 4 4v34c0 2.209139-1.790861 4-4 4h3c2.209139 0 4-1.790861 4-4v-34c0-2.209139-1.790861-4-4-4z" fill="#ffc9cc"/><circle id="Oval" cx="51" cy="21" fill="#ffe0e2" r="4"/><circle id="Oval" cx="30" cy="34" fill="#ffe7e8" r="16"/><path id="Shape" d="m30 18c-.506 0-1.006.03-1.5.076 8.2180365.7714055 14.4992559 7.669838 14.4992559 15.924s-6.2812194 15.1525945-14.4992559 15.924c.494.046.994.076 1.5.076 8.836556 0 16-7.163444 16-16s-7.163444-16-16-16z" fill="#ffc9cc"/><path id="Shape" d="m46 13h-32l2.33-4h27.34z" fill="#ffe7e8"/><path id="Shape" d="m43.67 9h-3l2.33 4h3z" fill="#ffc9cc"/><path id="Shape" d="m43.67 9h-27.34l4.09-7.01c.3616405-.61208379 1.0190657-.98829824 1.73-.99h15.7c.7109343.00170176 1.3683595.37791621 1.73.99z" fill="#ffe0e2"/><path id="Shape" d="m39.58 1.99c-.3616405-.61208379-1.0190657-.98829824-1.73-.99h-3c.7109343.00170176 1.3683595.37791621 1.73.99l4.09 7.01h3z" fill="#ff9ea1"/><path id="Shape" d="m11 11v2h-6v-2c.0032948-1.10320187.89679813-1.9967052 2-2h2c1.1032019.0032948 1.9967052.89679813 2 2z" fill="#ffe0e2"/><circle id="Oval" cx="30" cy="34" fill="#ffe0e2" r="12"/><path id="Shape" d="m30 22c-.5016016.0018663-1.0025897.0352655-1.5.1 5.9981525.7514856 10.4985957 5.8509554 10.4985957 11.896s-4.5004432 11.1445144-10.4985957 11.896c4.4513412.6000263 8.8650932-1.3360521 11.4384127-5.0174236 2.5733196-3.6813716 2.8753186-8.4916109.7826423-12.4659255s-6.2296207-6.4472272-10.721055-6.4086509z" fill="#ff9ea1"/><circle id="Oval" cx="27" cy="31" fill="#fff" r="4"/><circle id="Oval" cx="34" cy="38" fill="#fff" r="2"/><path id="Shape" d="m5 55h3c-2.209139 0-4-1.790861-4-4v-34c0-2.209139 1.790861-4 4-4v-2c.00386091-.9088331.6200161-1.70079788 1.5-1.928-.16277555-.04588185-.3308924-.07009068-.5-.072h-2c-1.10320187.0032948-1.9967052.89679813-2 2v2c-2.209139 0-4 1.790861-4 4v34c0 2.209139 1.790861 4 4 4z" fill="#fff"/><path id="Rectangle-path" d="m0 43h2v8h-2z" fill="#fff"/><g fill="#ff414c"><circle id="Oval" cx="1" cy="47" r="1"/><path id="Shape" d="m55 12h-8.425l-6.133-10.512c-.5386741-.91989714-1.5239904-1.48597847-2.59-1.488h-15.7c-1.0662041.00227486-2.0517023.5682422-2.591 1.488l-6.136 10.512h-1.425v-1c0-1.65685425-1.3431458-3-3-3h-2c-1.65685425 0-3 1.34314575-3 3v1.1c-2.3264168.4784327-3.99700171 2.5248992-4 4.9v26c0 .5522847.44771525 1 1 1s1-.4477153 1-1v-26c0-1.6568542 1.34314575-3 3-3h50c1.6568542 0 3 1.3431458 3 3v34c0 1.6568542-1.3431458 3-3 3h-9v-2c0-.5522847-.4477153-1-1-1s-1 .4477153-1 1v2h-28v-2c0-.5522847-.4477153-1-1-1s-1 .4477153-1 1v2h-9c-1.65685425 0-3-1.3431458-3-3 0-.5522847-.44771525-1-1-1s-1 .4477153-1 1c.00330612 2.7600532 2.23994685 4.9966939 5 5h50c2.7600532-.0033061 4.9966939-2.2399468 5-5v-34c-.0033061-2.7600532-2.2399468-4.9966939-5-5zm-49 0v-1c0-.5522847.44771525-1 1-1h2c.55228475 0 1 .4477153 1 1v1zm9.741 0 1.167-2h5.092c.5522847 0 1-.44771525 1-1s-.4477153-1-1-1h-3.926l3.21-5.5c.1782705-.30877529.5074582-.49927743.864-.5h15.7c.3561842.00107855.6849087.19153304.863.5l3.21 5.5h-14.921c-.5522847 0-1 .44771525-1 1s.4477153 1 1 1h16.092l1.167 2z"/><path id="Shape" d="m51 16c-2.7614237 0-5 2.2385763-5 5s2.2385763 5 5 5 5-2.2385763 5-5c-.0033061-2.7600532-2.2399468-4.9966939-5-5zm0 8c-1.6568542 0-3-1.3431458-3-3s1.3431458-3 3-3 3 1.3431458 3 3-1.3431458 3-3 3z"/><path id="Shape" d="m30 17c-9.3888407 0-17 7.6111593-17 17s7.6111593 17 17 17 17-7.6111593 17-17c-.010471-9.3845001-7.6154999-16.989529-17-17zm0 32c-8.2842712 0-15-6.7157288-15-15s6.7157288-15 15-15 15 6.7157288 15 15c-.0093685 8.2803876-6.7196124 14.9906315-15 15z"/><path id="Shape" d="m30 21c-2.5551157-.0024846-5.0537775.7515329-7.181 2.167-.2976022.1979251-.4670063.5395844-.4443992.8962781.0226071.3566936.2337907.6742315.554.833s.700797.134647.9983992-.0632781c4.7470431-3.1469536 11.1105355-2.1544917 14.6738278 2.2885572 3.5632923 4.4430488 3.1502854 10.8702132-.9523689 14.8206514-4.1026544 3.9504383-10.5408353 4.12027-14.846055.3916217-4.3052198-3.7286483-5.0564988-10.1251002-1.7324039-14.7498303.2174322-.2895549.2613465-.6740307.1148076-1.0051579-.1465388-.3311271-.4606341-.5571674-.8211581-.5909505-.3605239-.0337831-.711145.1299696-.9166495.4281084-3.5029944 4.8769177-3.2100886 11.5184502.7086354 16.0680543 3.9187241 4.5496042 10.4435401 5.8233868 15.785679 3.0816997 5.3421389-2.7416872 8.1114747-8.785405 6.6999355-14.621744-1.4115392-5.8363391-6.6366442-9.9465732-12.6412499-9.94401z"/><path id="Shape" d="m5 19h4c.55228475 0 1-.4477153 1-1s-.44771525-1-1-1h-4c-.55228475 0-1 .4477153-1 1s.44771525 1 1 1z"/><path id="Shape" d="m5 23h4c.55228475 0 1-.4477153 1-1s-.44771525-1-1-1h-4c-.55228475 0-1 .4477153-1 1s.44771525 1 1 1z"/><path id="Shape" d="m4 33c0 .5522847.44771525 1 1 1s1-.4477153 1-1v-2c0-.5522847-.44771525-1-1-1s-1 .4477153-1 1z"/><path id="Shape" d="m4 51c0 .5522847.44771525 1 1 1s1-.4477153 1-1v-14c0-.5522847-.44771525-1-1-1s-1 .4477153-1 1z"/><path id="Shape" d="m56 31c0-.5522847-.4477153-1-1-1s-1 .4477153-1 1v2c0 .5522847.4477153 1 1 1s1-.4477153 1-1z"/><path id="Shape" d="m55 36c-.5522847 0-1 .4477153-1 1v14c0 .5522847.4477153 1 1 1s1-.4477153 1-1v-14c0-.5522847-.4477153-1-1-1z"/></g></g></g></svg>