<svg height="512" viewBox="0 0 60 60" width="512" xmlns="http://www.w3.org/2000/svg"><g id="Page-1" fill="none" fill-rule="evenodd"><g id="008---Alarm" fill-rule="nonzero"><path id="Shape" d="m51 28v17h-42v-17c-.00000011-7.5025775 4.0025773-14.435245 10.4999999-18.18653374 6.4974227-3.75128876 14.5025775-3.75128876 21.0000002 0 6.4974226 3.75128874 10.5 10.68395624 10.4999999 18.18653374z" fill="#ffe7e8"/><path id="Shape" d="m44.85 13.15c-3.9355152-3.94274717-9.2792279-6.15579992-14.85-6.15-.5 0-1 .023-1.5.059 10.9886906.78054708 19.5035409 9.924623 19.5 20.941v17h3.0000199l-.0000199-17c.0076796-5.5711447-2.20566-10.9155502-6.15-14.85z" fill="#ffc9cc"/><path id="Shape" d="m55 49c.0013291 1.0612728-.4196715 2.0794609-1.1701053 2.8298947s-1.7686219 1.1714344-2.8298947 1.1701053h-42c-2.209139 0-4-1.790861-4-4s1.790861-4 4-4h42c2.209139 0 4 1.790861 4 4z" fill="#ffe7e8"/><path id="Shape" d="m51 45h-3c2.209139 0 4 1.790861 4 4s-1.790861 4-4 4h3c2.209139 0 4-1.790861 4-4s-1.790861-4-4-4z" fill="#ffc9cc"/><path id="Shape" d="m36 53c0 3.3137085-2.6862915 6-6 6s-6-2.6862915-6-6z" fill="#ffe0e2"/><path id="Shape" d="m35 6v1.6c-3.2853318-.80001299-6.7146682-.80001299-10 0v-1.6c0-2.76142375 2.2385763-5 5-5s5 2.23857625 5 5z" fill="#ffe0e2"/><path id="Shape" d="m9 53h3c-2.209139 0-4-1.790861-4-4s1.790861-4 4-4v-17c-.0039763-9.6742606 6.6034365-18.09871181 16-20.4v-1.6c.0055366-2.1764172 1.4223853-4.09766401 3.5-4.746-1.5162164-.50571209-3.1834319-.24627524-4.4742872.69624768-1.2908552.94252293-2.0456793 2.45154767-2.0257128 4.04975232v1.6c-9.3965635 2.30128819-16.00397626 10.7257394-16 20.4v17c-2.209139 0-4 1.790861-4 4s1.790861 4 4 4z" fill="#fff"/><path id="Rectangle-path" d="m8 37h2v8h-2z" fill="#fff"/><g fill="#ff414c"><path id="Shape" d="m7.331 7.753c.27342899.00031297.53506062-.11135025.724-.309.93634823-.98148095 1.94193155-1.89449312 3.009-2.732.2921132-.21668035.4435499-.57487579.3954595-.93538627s-.2881243-.66648559-.626821-.79901889c-.3386966-.13253329-.7226455-.07072504-1.0026385.16140516-1.14278473.89644526-2.21987535 1.87361341-3.223 2.924-.27610301.28963179-.35296592.71597029-.19539194 1.08378803.15757399.36781773.51924267.60628826.91939194.60621197z"/><path id="Shape" d="m.663 17.941c.51854867.1862241 1.09003562-.0820796 1.278-.6.89452925-2.497257 2.14038789-4.8542868 3.7-7 .32446728-.44735065.22485063-1.0730327-.22250001-1.39749998-.44735064-.32446729-1.07303269-.22485065-1.39749999.22249998-1.66983215 2.2993503-3.003878 4.8246769-3.962 7.5-.18386924.5187999.08608482 1.0886533.604 1.275z"/><path id="Shape" d="m4.469 16.386c-.2209139.5064451.01055488 1.0960861.517 1.317s1.0960861-.0105549 1.317-.517c1.48611415-3.3909245 3.7291268-6.3964315 6.557-8.786.2856335-.22646217.4254159-.59040663.3648145-.94984937s-.3119855-.65743724-.656081-.77772824c-.3440954-.12029101-.7263872-.04382081-.9977335.19957761-3.0625631 2.58760806-5.49197485 5.842103-7.102 9.514z"/><path id="Shape" d="m51.945 7.444c.3813526.39985416 1.0146458.41485262 1.4145.0335s.4148526-1.01464584.0335-1.4145c-1.0031246-1.05038659-2.0802153-2.02755474-3.223-2.924-.279993-.2321302-.6639419-.29393845-1.0026385-.16140516-.3386967.1325333-.5787306.43850841-.626821.79901889s.1033463.71870592.3954595.93538627c1.0670685.83750688 2.0726518 1.75051905 3.009 2.732z"/><path id="Shape" d="m58.059 17.337c.112296.3468947.4044989.6051736.762557.6740262.3580582.0688526.7252112-.0626357.9581532-.343143s.2947463-.6655667.1612898-1.0048832c-.958122-2.6753231-2.2921678-5.2006497-3.962-7.5-.3244673-.44735063-.9501493-.54696726-1.3975-.22249998-.4473506.32446729-.5469673.95014933-.2225 1.39749998 1.5595285 2.145404 2.8053843 4.5020918 3.7 6.999z"/><path id="Shape" d="m53.7 17.186c.1429062.3276125.4497363.5540995.8049102.5941453s.7047323-.1124333.917-.4c.2122676-.2875667.254996-.6665328.1120898-.9941453-1.6098416-3.6706145-4.0385305-6.92403155-7.1-9.511-.272415-.23115086-.6474544-.29941138-.9838444-.17906848s-.583025.41100627-.647.76250003c-.063975.35149375.0644294.71041762.3368444.94156845 2.8289632 2.3892423 5.0730213 5.3947751 6.56 8.786z"/><circle id="Oval" cx="9" cy="41" r="1"/><path id="Shape" d="m8 28v9c0 .5522847.44771525 1 1 1s1-.4477153 1-1v-9c0-11.045695 8.954305-20 20-20s20 8.954305 20 20v16h-5c-.5522847 0-1 .4477153-1 1s.4477153 1 1 1h6c1.6568542 0 3 1.3431458 3 3s-1.3431458 3-3 3h-42c-1.65685425 0-3-1.3431458-3-3s1.34314575-3 3-3h31c.5522847 0 1-.4477153 1-1s-.4477153-1-1-1h-31c-2.76142375 0-5 2.2385763-5 5s2.23857625 5 5 5h14.08c.494295 3.441787 3.4428998 5.9971786 6.92 5.9971786s6.425705-2.5553916 6.92-5.9971786h14.08c2.5687655.0025816 4.7215532-1.9417423 4.9797109-4.4975039.2581578-2.5557617-1.4623181-4.8913243-3.9797109-5.4024961v-16.1c-.0133662-9.833882-6.5419386-18.46832698-16-21.161v-.839c-.0000001-3.3137084-2.6862916-5.99999975-6-5.99999975s-5.9999999 2.68629135-6 5.99999975v.839c-9.4580614 2.69267302-15.98663377 11.327118-16 21.161zm22 30c-2.3751008-.0029983-4.4215673-1.6735832-4.9-4h9.8c-.4784327 2.3264168-2.5248992 3.9970017-4.9 4zm-4-52c0-2.209139 1.790861-4 4-4s4 1.790861 4 4v.371c-2.6437268-.49466302-5.3562732-.49466302-8 0z"/><path id="Shape" d="m25.634 10.536c-.6742225.1684121-1.3380218.3760998-1.988.622-.4527118.1702476-.7186923.640094-.6316959 1.1158711.0869964.475777.5020315.8210988.9856959.8201289.1210616.0000314.2410832-.0223455.354-.066.5768922-.2177791 1.1658713-.4020855 1.764-.552.3539356-.0796449.636976-.3447323.7396106-.6926975.1026346-.3479653.0087636-.7242251-.2452935-.9832013-.2540571-.2589763-.6284478-.3600447-.9783171-.2641012z"/><path id="Shape" d="m14 28c-.0007103-4.7201162 2.0858742-9.1989513 5.7-12.235.4224978-.3559475.4764475-.9870022.1205-1.4095s-.9870022-.4764475-1.4095-.1205c-4.0652757 3.4161528-6.4120806 8.4549562-6.411 13.765 0 .5522847.4477153 1 1 1s1-.4477153 1-1z"/><path id="Shape" d="m45 42h2c.5522847 0 1-.4477153 1-1s-.4477153-1-1-1h-2c-.5522847 0-1 .4477153-1 1s.4477153 1 1 1z"/><path id="Shape" d="m25 41c0 .5522847.4477153 1 1 1h14c.5522847 0 1-.4477153 1-1s-.4477153-1-1-1h-14c-.5522847 0-1 .4477153-1 1z"/></g></g></g></svg>