<svg height="512" viewBox="0 0 60 60" width="512" xmlns="http://www.w3.org/2000/svg"><g id="Page-1" fill="none" fill-rule="evenodd"><g id="011---Wallet" fill-rule="nonzero" transform="translate(0 -1)"><path id="Shape" d="m35 33v6c0 2.209139 1.790861 4 4 4h14v11c0 3.3137085-2.6862915 6-6 6h-40c-3.3137085 0-6-2.6862915-6-6v-36c0-3.3137085 2.6862915-6 6-6h40c3.3137085 0 6 2.6862915 6 6v11h-14c-2.209139 0-4 1.790861-4 4z" fill="#ffe7e8"/><path id="Shape" d="m47 12h-3c3.3137085 0 6 2.6862915 6 6v11h3v-11c0-3.3137085-2.6862915-6-6-6z" fill="#ffc9cc"/><path id="Shape" d="m39 29h-3c-2.209139 0-4 1.790861-4 4v6c0 2.209139 1.790861 4 4 4h3c-2.209139 0-4-1.790861-4-4v-6c0-2.209139 1.790861-4 4-4z" fill="#ffc9cc"/><path id="Shape" d="m50 54c0 3.3137085-2.6862915 6-6 6h3c3.3137085 0 6-2.6862915 6-6v-11h-3z" fill="#ffc9cc"/><rect id="Rectangle-path" fill="#ffe7e8" height="14" rx="4" width="24" x="35" y="29"/><path id="Shape" d="m55 29h-3c2.209139 0 4 1.790861 4 4v6c0 2.209139-1.790861 4-4 4h3c2.209139 0 4-1.790861 4-4v-6c0-2.209139-1.790861-4-4-4z" fill="#ffc9cc"/><circle id="Oval" cx="42" cy="36" fill="#ffe0e2" r="3"/><path id="Shape" d="m10 12s2.061-7.476 13.394-5.34c7.016 1.322 12.381-2.548 14.485-4.406.2394395-.21156427.5650739-.29694207.8775151-.23007492s.5746085.27804342.7064849.56907492l4.537 9.407z" fill="#ffe0e2"/><path id="Shape" d="m39.463 2.593c-.1318764-.2910315-.3940437-.50220777-.7064849-.56907492s-.6380756.01851065-.8775151.23007492c-.307.271-.692.588-1.134.923l4.255 8.823h3z" fill="#ff9ea1"/><path id="Shape" d="m7 60h3c-3.3137085 0-6-2.6862915-6-6v-36c0-3.3137085 2.6862915-6 6-6h-3c-3.3137085 0-6 2.6862915-6 6v36c0 3.3137085 2.6862915 6 6 6z" fill="#fff"/><path id="Shape" d="m21.079 6.353c-9.293-.768-11.079 5.647-11.079 5.647h3s1.384-4.991 8.079-5.647z" fill="#fff"/><path id="Rectangle-path" d="m0 18h2v8h-2z" fill="#fff"/><g fill="#ff414c"><circle id="Oval" cx="1" cy="22" r="1"/><path id="Shape" d="m7 61h40c3.8641657-.0044086 6.9955914-3.1358343 7-7v-10h1c2.7600532-.0033061 4.9966939-2.2399468 5-5v-6c-.0033061-2.7600532-2.2399468-4.9966939-5-5h-1v-10c-.0044086-3.8641657-3.1358343-6.9955914-7-7h-2.372l-4.265-8.841c-.2725096-.57804374-.8024772-.99304285-1.429-1.119-.6128582-.12630046-1.2493684.04422643-1.717.46-1.891 1.675-7.006 5.43-13.638 4.177-9.914-1.868-13.329 3.339-14.252 5.323h-2.327c-3.86416566.0044086-6.99559136 3.1358343-7 7 0 .5522847.44771525 1 1 1s1-.4477153 1-1c.00330612-2.7600532 2.23994685-4.9966939 5-5h40c2.7600532.0033061 4.9966939 2.2399468 5 5v10h-13c-2.7600532.0033061-4.9966939 2.2399468-5 5v6c.0033061 2.7600532 2.2399468 4.9966939 5 5h13v2h-2c-.5522847 0-1 .4477153-1 1s.4477153 1 1 1h2v6c-.0033061 2.7600532-2.2399468 4.9966939-5 5h-40c-2.76005315-.0033061-4.99669388-2.2399468-5-5v-28c0-.5522847-.44771525-1-1-1s-1 .4477153-1 1v28c.00440864 3.8641657 3.13583434 6.9955914 7 7zm16.209-53.357c7.5 1.413 13.22-2.774 15.353-4.615l3.845 7.972h-30.817c1.154-1.8 4.218-4.753 11.619-3.357zm12.791 31.357v-6c0-1.6568542 1.3431458-3 3-3h16c1.6568542 0 3 1.3431458 3 3v6c0 1.6568542-1.3431458 3-3 3h-16c-1.6568542 0-3-1.3431458-3-3z"/><path id="Shape" d="m5 41c-.55228475 0-1 .4477153-1 1v12c0 1.6568542 1.34314575 3 3 3h3c.5522847 0 1-.4477153 1-1s-.4477153-1-1-1h-3c-.55228475 0-1-.4477153-1-1v-12c0-.5522847-.44771525-1-1-1z"/><path id="Shape" d="m15 57c.5522847 0 1-.4477153 1-1s-.4477153-1-1-1h-1c-.5522847 0-1 .4477153-1 1s.4477153 1 1 1z"/><path id="Shape" d="m49 26c.5522847 0 1-.4477153 1-1v-7c0-1.6568542-1.3431458-3-3-3h-3c-.5522847 0-1 .4477153-1 1s.4477153 1 1 1h3c.5522847 0 1 .4477153 1 1v7c0 .5522847.4477153 1 1 1z"/><path id="Shape" d="m40 17c.5522847 0 1-.4477153 1-1s-.4477153-1-1-1h-1c-.5522847 0-1 .4477153-1 1s.4477153 1 1 1z"/><path id="Shape" d="m42 32c-2.209139 0-4 1.790861-4 4s1.790861 4 4 4 4-1.790861 4-4-1.790861-4-4-4zm0 6c-1.1045695 0-2-.8954305-2-2s.8954305-2 2-2 2 .8954305 2 2-.8954305 2-2 2z"/><path id="Shape" d="m46 48c.5522847 0 1-.4477153 1-1s-.4477153-1-1-1h-5c-.5522847 0-1 .4477153-1 1s.4477153 1 1 1z"/></g></g></g></svg>