<svg height="512" viewBox="0 0 60 56" width="512" xmlns="http://www.w3.org/2000/svg"><g id="Page-1" fill="none" fill-rule="evenodd"><g id="013---Switches" fill-rule="nonzero"><rect id="Rectangle-path" fill="#ffe7e8" height="24" rx="12" width="58" x="1" y="1"/><path id="Shape" d="m47 1h-3c6.627417 0 12 5.372583 12 12s-5.372583 12-12 12h3c6.627417 0 12-5.372583 12-12s-5.372583-12-12-12z" fill="#ffc9cc"/><circle id="Oval" cx="13" cy="13" fill="#ffe0e2" r="8"/><path id="Shape" d="m13 5c-.5034323.00135829-1.005629.04990397-1.5.145 3.7641632.72658994 6.4837629 4.0213519 6.4837629 7.855s-2.7195997 7.1284101-6.4837629 7.855c2.9873733.5766142 6.0432406-.5912461 7.8846263-3.0132663s2.1495108-5.6789024.795012-8.40327682c-1.3544988-2.72437443-4.1371319-4.44459996-7.1796383-4.43845688z" fill="#ff9ea1"/><rect id="Rectangle-path" fill="#ffe7e8" height="24" rx="12" transform="matrix(-1 0 0 -1 60 86)" width="58" x="1" y="31"/><path id="Shape" d="m47 31h-3c6.627417 0 12 5.372583 12 12s-5.372583 12-12 12h3c6.627417 0 12-5.372583 12-12s-5.372583-12-12-12z" fill="#ffc9cc"/><circle id="Oval" cx="47" cy="43" fill="#ffe0e2" r="8"/><path id="Shape" d="m47 35c-.5034323.0013583-1.005629.049904-1.5.145 3.7641632.7265899 6.4837629 4.0213519 6.4837629 7.855s-2.7195997 7.1284101-6.4837629 7.855c2.9873733.5766142 6.0432406-.5912461 7.8846263-3.0132663s2.1495108-5.6789024.795012-8.4032768-4.1371319-4.4446-7.1796383-4.4384569z" fill="#ff9ea1"/><path id="Shape" d="m13 25h3c-6.627417 0-12-5.372583-12-12s5.372583-12 12-12h-3c-6.627417 0-12 5.372583-12 12s5.372583 12 12 12z" fill="#fff"/><path id="Shape" d="m13 55h3c-6.627417 0-12-5.372583-12-12s5.372583-12 12-12h-3c-6.627417 0-12 5.372583-12 12s5.372583 12 12 12z" fill="#fff"/><path id="Shape" d="m2.793 34.965 1.57 1.235c-1.52387798 1.9397634-2.35561623 4.3332548-2.363 6.8h-2c.00843619-2.9149384.99158912-5.7433072 2.793-8.035z" fill="#fff"/><g fill="#ff414c"><path id="Shape" d="m47 0h-34c-7.17970175 0-13 5.82029825-13 13 0 7.1797017 5.82029825 13 13 13h34c7.1797016-.0000002 12.9999997-5.8202984 12.9999997-13 0-7.17970164-5.8202981-12.99999985-12.9999997-13zm0 24h-34c-6.07513225 0-11-4.9248678-11-11 0-6.07513225 4.92486775-11 11-11h34c6.0751322 0 11 4.92486775 11 11 0 6.0751322-4.9248678 11-11 11z"/><path id="Shape" d="m51.624 18.25c-1.2765358 1.1273951-2.9208959 1.74972-4.624 1.75h-7c-.5522847 0-1 .4477153-1 1s.4477153 1 1 1h7c2.1903161-.0000654 4.3051771-.8002062 5.947-2.25.2679492-.2363312.3894633-.5976594.3187691-.9478758-.0706943-.3502164-.3228566-.6361148-.6615-.75-.3386435-.1138852-.7123199-.0384554-.9802691.1978758z"/><path id="Shape" d="m54 13c.0004178.5903184-.0738382 1.1783188-.221 1.75-.1379304.5345918.1834739 1.0798152.718 1.218.0819493.0213806.1663076.0321354.251.032.4555344-.0005676.8531167-.3089303.967-.75.1894339-.7349938.285193-1.4909868.285-2.25 0-.5522847-.4477153-1-1-1s-1 .4477153-1 1z"/><path id="Shape" d="m15.5 14.663c-.5569007.8361507-1.4953681 1.338043-2.5 1.337-.5522847 0-1 .4477153-1 1s.4477153 1 1 1c1.6706841-.0004183 3.2307703-.8352408 4.158-2.225.2252157-.2956372.2679002-.6917873.1108315-1.0286149-.1570687-.3368277-.4879779-.5587645-.8592153-.5762651-.3712373-.0175006-.7215575.1723221-.9096162.49288z"/><path id="Shape" d="m14 9c0-.55228475-.4477153-1-1-1-1.5726028.00499638-3.05244119.74491556-4 2-.33137083.4418278-.24182778 1.0686291.20000002 1.4.44182779.3313708 1.06862908.2418278 1.39999998-.2.5642607-.7581712 1.4549066-1.2034942 2.4-1.2.5522847 0 1-.44771525 1-1z"/><path id="Shape" d="m46 14h4c.5522847 0 1-.4477153 1-1s-.4477153-1-1-1h-4c-.5522847 0-1 .4477153-1 1s.4477153 1 1 1z"/><path id="Shape" d="m41 14c.5522847 0 1-.4477153 1-1s-.4477153-1-1-1h-19.059c-.5306673-4.74643254-4.6764411-8.25180252-9.4450477-7.98605718-4.76860663.26574534-8.49922421 4.21005157-8.49922421 8.98605718 0 4.7760056 3.73061758 8.7203118 8.49922421 8.9860572 4.7686066.2657453 8.9143804-3.2396247 9.4450477-7.9860572zm-28 6c-3.86599325 0-7-3.1340068-7-7 0-3.86599325 3.13400675-7 7-7 3.8659932 0 7 3.13400675 7 7-.0044086 3.8641657-3.1358343 6.9955914-7 7z"/><path id="Shape" d="m1.68 40.062c-.55228475.0027614-1.00223858-.4427153-1.005-.995s.44271525-1.0022386.995-1.005h.01c.55228475 0 1 .4477153 1 1s-.44771525 1-1 1z"/><path id="Shape" d="m47 30h-34c-3.98112364.0132968-7.738919 1.8412045-10.207 4.965-.17742616.2099352-.25701712.4855135-.21883977.7577181.03817735.2722045.19050734.5152554.41883977.6682819.43917045.2923317 1.02753356.2103044 1.37-.191 2.08875397-2.6427637 5.26847328-4.1889975 8.637-4.2h34c6.0751322 0 11 4.9248678 11 11s-4.9248678 11-11 11h-34c-6.07216255-.0071635-10.9928365-4.9278374-11-11 0-.5522847-.44771525-1-1-1s-1 .4477153-1 1c.00826602 7.1762751 5.82372494 12.991734 13 13h34c7.1797017 0 13-5.8202983 13-13s-5.8202983-13-13-13z"/><path id="Shape" d="m6.964 48.338c-.17554595.1989973-.2647998.4596082-.24810694.7244434.01669287.2648351.13796354.5121764.33710694.6875566 1.6418229 1.4497938 3.7566839 2.2499346 5.947 2.25h7c.5522847 0 1-.4477153 1-1s-.4477153-1-1-1h-7c-1.7031041-.00028-3.34746415-.6226049-4.624-1.75-.19886972-.1756673-.45940341-.2650937-.72423499-.2485886-.26483157.0165051-.51224568.1375882-.68776501.3365886z"/><path id="Shape" d="m5.252 46c.08469238.0001354.16905069-.0106194.251-.032.53452607-.1381848.85593035-.6834082.718-1.218-.14716179-.5716812-.22141784-1.1596816-.221-1.75 0-.5522847-.44771525-1-1-1s-1 .4477153-1 1c-.000193.7590132.09556612 1.5150062.285 2.25.11388332.4410697.51146565.7494324.967.75z"/><path id="Shape" d="m47 48c.5522847 0 1-.4477153 1-1s-.4477153-1-1-1c-1.0046319.001043-1.9430993-.5008493-2.5-1.337-.3111892-.4480292-.9240264-.5640019-1.3774046-.2606586-.4533781.3033433-.5800008.9140688-.2845954 1.3726586.928016 1.3909383 2.4898988 2.2259189 4.162 2.225z"/><path id="Shape" d="m47 40c.9450934-.0034942 1.8357393.4418288 2.4 1.2.3313709.4418278.9581722.5313708 1.4.2.4418278-.3313709.5313708-.9581722.2-1.4-.9475588-1.2550844-2.4273972-1.9950036-4-2-.5522847 0-1 .4477153-1 1s.4477153 1 1 1z"/><path id="Shape" d="m14 44c.5522847 0 1-.4477153 1-1s-.4477153-1-1-1h-4c-.55228475 0-1 .4477153-1 1s.44771525 1 1 1z"/><path id="Shape" d="m38.059 44c.5306673 4.7464325 4.6764411 8.2518025 9.4450477 7.9860572 4.7686066-.2657454 8.4992242-4.2100516 8.4992242-8.9860572s-3.7306176-8.7203118-8.4992242-8.9860572c-4.7686066-.2657453-8.9143804 3.2396247-9.4450477 7.9860572h-19.059c-.5522847 0-1 .4477153-1 1s.4477153 1 1 1zm8.941-8c3.8659932 0 7 3.1340068 7 7s-3.1340068 7-7 7-7-3.1340068-7-7c.0044086-3.8641657 3.1358343-6.9955914 7-7z"/></g></g></g></svg>