<svg height="512" viewBox="0 0 50 60" width="512" xmlns="http://www.w3.org/2000/svg"><g id="Page-1" fill="none" fill-rule="evenodd"><g id="015---Contacts" fill-rule="nonzero"><path id="Shape" d="m7 1v58h-2c-2.209139 0-4-1.790861-4-4v-50c0-2.209139 1.790861-4 4-4z" fill="#ffe0e2"/><path id="Shape" d="m49 5v50c0 2.209139-1.790861 4-4 4h-38v-58h38c2.209139 0 4 1.790861 4 4z" fill="#ffe7e8"/><path id="Shape" d="m45 1h-3c2.209139 0 4 1.790861 4 4v50c0 2.209139-1.790861 4-4 4h3c2.209139 0 4-1.790861 4-4v-50c0-2.209139-1.790861-4-4-4z" fill="#ffc9cc"/><path id="Shape" d="m40 25c0 1.6568542-1.3431458 3-3 3-.1882886.0003363-.3760566-.0197817-.56-.06-.9467521 2.9442877-3.1687681 5.3058682-6.05 6.43-2.181952.8399727-4.598048.8399727-6.78 0-2.8812319-1.1241318-5.1032479-3.4857123-6.05-6.43-.1839434.0402183-.3717114.0603363-.56.06-1.6568542 0-2.9999999-1.3431458-2.9999999-3s1.3431457-3 2.9999999-3v-4.15c-3.76-3.28-3-10.85-3-10.85 3 6 16 1 21 4s2 11 2 11c1.6568542 0 3 1.3431458 3 3z" fill="#ffe7e8"/><path id="Shape" d="m37 22s3-8-2-11c-1.745-1.047-4.465-1.119-7.393-1.025 1.5252308-.01454657 3.0317026.3369521 4.393 1.025 5 3 2 11 2 11 1.6568542 0 2.9999999 1.3431458 2.9999999 3s-1.3431457 3-2.9999999 3c-.1882886.0003363-.3760566-.0197817-.56-.06-.9467521 2.9442877-3.1687681 5.3058682-6.05 6.43-.6107945.232261-1.2442571.3998437-1.89.5 1.6453034.2761549 3.3346328.1034219 4.89-.5 2.8812319-1.1241318 5.1032479-3.4857123 6.05-6.43.1839434.0402183.3717114.0603363.56.06 1.6568542 0 2.9999999-1.3431458 2.9999999-3s-1.3431457-3-2.9999999-3z" fill="#ffc9cc"/><path id="Shape" d="m19 19c-.7369486-.2455387-1.4170676-.6366072-2-1.15" fill="#ffe7e8"/><path id="Shape" d="m32 41c0 2.7614237-2.2385763 5-5 5s-5-2.2385763-5-5c2.69-2.02 2.22-4.93 1.61-6.63 2.181952.8399727 4.598048.8399727 6.78 0-.61 1.7-1.08 4.61 1.61 6.63z" fill="#ffe0e2"/><path id="Shape" d="m42 48v1c-.0032948 1.1032019-.8967981 1.9967052-2 2h-26c-1.1032019-.0032948-1.9967052-.8967981-2-2v-1c0-3.8659932 3.1340068-7 7-7h3c0 2.7614237 2.2385763 5 5 5s5-2.2385763 5-5h3c1.8565154 0 3.6369928.7374979 4.9497475 2.0502525 1.3127546 1.3127547 2.0502525 3.0932321 2.0502525 4.9497475z" fill="#ffe7e8"/><path id="Shape" d="m35 41h-3c3.8659932 0 7 3.1340068 7 7v1c-.0032948 1.1032019-.8967981 1.9967052-2 2h3c1.1032019-.0032948 1.9967052-.8967981 2-2v-1c0-3.8659932-3.1340068-7-7-7z" fill="#ffc9cc"/><path id="Shape" d="m5 59h3c-2.209139 0-4-1.790861-4-4v-50c0-2.209139 1.790861-4 4-4h-3c-2.209139 0-4 1.790861-4 4v50c0 2.209139 1.790861 4 4 4z" fill="#fff"/><path id="Rectangle-path" d="m0 47h2v8h-2z" fill="#fff"/><g fill="#ff414c"><circle id="Oval" cx="1" cy="51" r="1"/><path id="Shape" d="m5 60h40c2.7600532-.0033061 4.9966939-2.2399468 5-5v-50c-.0033061-2.76005315-2.2399468-4.99669388-5-5h-40c-2.76005315.00330612-4.99669388 2.23994685-5 5v42c0 .5522847.44771525 1 1 1s1-.4477153 1-1v-42c0-1.65685425 1.34314575-3 3-3h40c1.6568542 0 3 1.34314575 3 3v50c0 1.6568542-1.3431458 3-3 3h-37v-45c0-.5522847-.44771525-1-1-1s-1 .4477153-1 1v45h-1c-1.65685425 0-3-1.3431458-3-3 0-.5522847-.44771525-1-1-1s-1 .4477153-1 1c.00330612 2.7600532 2.23994685 4.9966939 5 5z"/><path id="Shape" d="m37 55c0 .5522847.4477153 1 1 1h6c.5522847 0 1-.4477153 1-1s-.4477153-1-1-1h-6c-.5522847 0-1 .4477153-1 1z"/><path id="Shape" d="m7 10c.55228475 0 1-.44771525 1-1v-3c0-.55228475-.44771525-1-1-1s-1 .44771525-1 1v3c0 .55228475.44771525 1 1 1z"/><path id="Shape" d="m29 54c-.5522847 0-1 .4477153-1 1s.4477153 1 1 1h5c.5522847 0 1-.4477153 1-1s-.4477153-1-1-1z"/><path id="Shape" d="m21.619 40h-2.619c-4.4162219.0049599-7.9950401 3.5837781-8 8v1c0 .7956495.3160705 1.5587112.8786797 2.1213203.5626091.5626092 1.3256708.8786797 2.1213203.8786797h26c1.6568542 0 3-1.3431458 3-3v-1c-.0049599-4.4162219-3.5837781-7.9950401-8-8h-2.619c-1.383147-1.2162736-1.8554511-3.1690767-1.181-4.883 2.6958572-1.1868491 4.8193134-3.3828223 5.915-6.117 1.935217-.0538255 3.5541199-1.4858245 3.8437664-3.3999997.2896466-1.9141752-.8331108-3.7610329-2.6657664-4.3850003.681-2.49 1.708-8.38-2.778-11.071-2.359-1.415-5.953-1.26-9.76-1.1-4.628.2-9.411.4-10.86-2.494-.1987834-.39869392-.6373345-.61780756-1.0755122-.53735906s-.7702935.44105494-.8144878.88435906c-.037.37-.716 7.717 3 11.4v2.826c-1.9385237.4895655-3.2178243 2.3353182-2.9958384 4.3223438.2219859 1.9870257 1.8770692 3.5049558 3.8758384 3.5546562 1.0956866 2.7341777 3.2191428 4.9301509 5.915 6.117.6744511 1.7139233.202147 3.6667264-1.181 4.883zm13.381 2c3.3123376.0033074 5.9966926 2.6876624 6 6v1c0 .5522847-.4477153 1-1 1h-3v-2c0-.5522847-.4477153-1-1-1s-1 .4477153-1 1v2h-16v-2c0-.5522847-.4477153-1-1-1s-1 .4477153-1 1v2h-3c-.5522847 0-1-.4477153-1-1v-1c.0033074-3.3123376 2.6876624-5.9966926 6-6h2.083c.4856527 2.8893814 2.9870881 5.0054594 5.917 5.0054594s5.4313473-2.116078 5.917-5.0054594zm-16.491-14.374c-.1352616-.408984-.5172295-.6853869-.948-.686-.0733189.0001262-.1464096.0081729-.218.024-.1127664.0239199-.2277245.0359855-.343.036-1.1045695 0-2-.8954305-2-2s.8954305-2 2-2c.5522847 0 1-.4477153 1-1v-2.319c.2231123.1013379.4514316.1907964.684.268.5246705.174522 1.091478-.1093295 1.266-.634s-.1093295-1.091478-.634-1.266c-.5919125-.1960913-1.1398337-.5058893-1.613-.912-.0285212-.0290382-.0592827-.0557874-.092-.08-2.011-1.805-2.542-5.157-2.648-7.466 2.623 1.811 6.805 1.631 10.879 1.454 3.343-.145 6.8-.293 8.643.812 4.222 2.534 1.605 9.721 1.578 9.793-.1147341.3070775-.0716779.6508892.1152372.9201906.1869151.2693013.4939512.4298915.8217628.4298094 1.1045695 0 2 .8954305 2 2s-.8954305 2-2 2c-.1152755-.0000145-.2302336-.0120801-.343-.036-.500949-.1111758-1.0047479.1748576-1.166.662-1.0984742 3.7759651-4.5584998 6.3728648-8.491 6.3728648s-7.3925258-2.5968997-8.491-6.3728648zm8.491 8.374c.6785465-.0012079 1.3553782-.0681878 2.021-.2-.3763215 2.0812814.3574765 4.2084242 1.937 5.615-.1997614 2.0362778-1.9119472 3.5887153-3.958 3.5887153s-3.7582386-1.5524375-3.958-3.5887153c1.5795235-1.4065758 2.3133215-3.5337186 1.937-5.615.6656218.1318122 1.3424535.1987921 2.021.2z"/></g></g></g></svg>