<svg height="512" viewBox="0 0 60 60" width="512" xmlns="http://www.w3.org/2000/svg"><g id="Page-1" fill="none" fill-rule="evenodd"><g id="016---Settings" fill-rule="nonzero"><path id="Shape" d="m34.544 2.679h.006c2.0100115-1.70104767 4.8016957-2.13718445 7.2347649-1.13026649 2.4330693 1.00691796 4.1001216 3.28828866 4.3202351 5.91226649v.007c.2832199 3.4262501 3.0009712 6.1461157 6.427 6.432h.007c2.622764.2200917 4.9033013 1.8858035 5.9108468 4.3173018 1.0075455 2.4314982.5735544 5.2220354-1.1248468 7.2326982v.006c-2.2200337 2.6225978-2.2200337 6.4654022 0 9.088v.006c1.7013186 2.0105689 2.1370736 4.8030471 1.1292069 7.2363734s-3.2905138 4.0998615-5.9152069 4.3186266h-.007c-3.4243004.2855345-6.1414655 3.0026996-6.427 6.427v.007c-.2187651 2.6246931-1.8853003 4.9073402-4.3186266 5.9152069s-5.2258045.5721117-7.2363734-1.1292069h-.006c-2.6225978-2.2200337-6.4654022-2.2200337-9.088 0h-.006c-2.0106628 1.6984012-4.8012 2.1323923-7.2326982 1.1248468-2.4314983-1.0075455-4.0972101-3.2880828-4.3173018-5.9108468v-.007c-.2855345-3.4243004-3.0026996-6.1414655-6.427-6.427h-.012c-2.62469313-.2187651-4.90734019-1.8853003-5.91520689-4.3186266s-.57211173-5.2258045 1.12920689-7.2363734v-.006c2.22003366-2.6225978 2.22003366-6.4654022 0-9.088v-.006c-1.69840116-2.0106628-2.13239227-4.8012-1.12484677-7.2326982 1.0075455-2.4314983 3.28808273-4.0972101 5.91084677-4.3173018h.007c3.4279788-.2835687 6.1484313-3.0040212 6.432-6.432v-.007c.2200917-2.62276404 1.8858035-4.90330127 4.3173018-5.91084677 2.4314982-1.0075455 5.2220354-.57355439 7.2326982 1.12484677h.006c2.6216206 2.22118825 6.4644251 2.22287963 9.088.004z" fill="#ffe7e8"/><path id="Shape" d="m57.321 34.544c-2.2200337-2.6225978-2.2200337-6.4654022 0-9.088v-.006c1.6981317-2.0101053 2.1325054-4.7998495 1.1259081-7.2310913-1.0065972-2.4312418-3.2858593-4.0974703-5.9079081-4.3189087h-.007c-3.4243004-.2855345-6.1414655-3.0026996-6.427-6.427v-.012c-.1695919-2.02339736-1.2049272-3.87491784-2.839996-5.07884816-1.6350688-1.20393033-3.710483-1.64291013-5.693004-1.20415184 3.0343334.63430051 5.2874424 3.19281915 5.533 6.283v.007c.2832199 3.4262501 3.0009712 6.1461157 6.427 6.432h.007c2.622764.2200917 4.9033013 1.8858035 5.9108468 4.3173018 1.0075455 2.4314982.5735544 5.2220354-1.1248468 7.2326982v.006c-2.2200337 2.6225978-2.2200337 6.4654022 0 9.088v.006c1.7013186 2.0105689 2.1370736 4.8030471 1.1292069 7.2363734s-3.2905138 4.0998615-5.9152069 4.3186266h-.007c-3.4244855.2851352-6.1418648 3.0025145-6.427 6.427v.007c-.2453363 3.0900722-2.4986463 5.6484119-5.533 6.282 1.982399.4390943 4.0578408.0003803 5.6929637-1.2033982 1.6351229-1.2037784 2.670494-3.0552469 2.8400363-5.0786018v-.007c.2851352-3.4244855 3.0025145-6.1418648 6.427-6.427h.007c2.6246931-.2187651 4.9073402-1.8853003 5.9152069-4.3186266s.5721117-5.2258045-1.1292069-7.2363734z" fill="#ffc9cc"/><circle id="Oval" cx="30" cy="30" fill="#ffe0e2" r="21"/><circle id="Oval" cx="30" cy="30" fill="#ffe7e8" r="11"/><circle id="Oval" cx="30" cy="30" fill="#ffe0e2" r="7"/><path id="Shape" d="m7.468 46.105c3.4292277.2825056 6.1505605 3.0046846 6.432 6.434.1694468 2.0224028 1.2040362 3.873098 2.8380518 5.0767666 1.6340157 1.2036687 3.7082413 1.643027 5.6899482 1.2052334-3.0315048-.6370423-5.2816465-3.1940955-5.528-6.282-.2810925-3.4275857-2.9997223-6.1491766-6.427-6.434-2.62683948-.2147129-4.91332058-1.8796943-5.92403555-4.3137942s-.57610262-5.228965 1.12603555-7.2412058c2.22259314-2.6239284 2.22259314-6.4700716 0-9.094-1.70113916-2.0107721-2.13679412-4.8032626-1.12898685-7.236656s3.29029032-4.1001477 5.91498685-4.319344c3.4314508-.2787172 6.1565506-3.0008544 6.439-6.432.2416058-3.08939215 2.4905875-5.64988416 5.523-6.288-1.9821155-.43794102-4.0567822.00227879-5.6902581 1.20740565-1.6334759 1.20512685-2.6662929 3.05751036-2.8327419 5.08059435-.2824494 3.4311456-3.0075492 6.1532828-6.439 6.432-2.62398125.2205443-4.90518824 1.8878156-5.91204689 4.320952-1.00685865 2.4331365-.57082171 5.2248332 1.13004689 7.235048 2.22259314 2.6239284 2.22259314 6.4700716 0 9.094-1.70152256 2.0109868-2.13699148 4.8040611-1.12841301 7.2375805 1.00857848 2.4335194 3.29218336 4.0996664 5.91741301 4.3174195z" fill="#fff"/><path id="Shape" d="m.512 41.852 1.877-.689c.39303508 1.0814339 1.08312009 2.0300842 1.991 2.737.91837513.6940428 2.01635347 1.1104695 3.164 1.2l-.166 2c-1.52947259-.1230188-2.9917535-.6813505-4.214-1.609-1.20937439-.9387399-2.12872662-2.2002492-2.652-3.639z" fill="#fff"/><g fill="#ff414c"><path id="Shape" d="m.133 37.69c-.24279737 1.3964851-.11204556 2.8323401.379 4.162.0827885.2692582.28057366.4880261.54014946.5974532.25957581.1094271.55428589.0982762.80485054-.0304532.45425168-.2381478.6769979-.7640299.532-1.256-.75106318-2.0314148-.35024275-4.3098631 1.049-5.963l-1.526-1.3c-.91429672 1.0859802-1.52771259 2.3928078-1.779 3.79z"/><path id="Shape" d="m3.769 45.708c-.55228473.0027614-1.00223852-.4427153-1.00499994-.995-.00276143-.5522847.44271521-1.0022385.99499994-1.005h.01c.55228475 0 1 .4477153 1 1s-.44771525 1-1 1z"/><path id="Shape" d="m59.379 17.831c-1.147803-2.7850085-3.7613687-4.6903149-6.764-4.931-2.9442703-.2380354-5.2806995-2.5774301-5.515-5.522-.2506519-2.99797732-2.1550483-5.60477353-4.9349-6.75504248s-5.9693848-.65127901-8.2651 1.29304248c-2.2479724 1.91339662-5.5520276 1.91339662-7.8 0-2.2966903-1.94479744-5.4876143-2.44312007-8.2679167-1.29119025-2.7803023 1.15192982-4.6837931 3.7609611-4.9320833 6.76019025-.2380354 2.9442703-2.5774301 5.2806995-5.522 5.515-2.99836043.2499543-5.60574369 2.1542964-6.75613642 4.9344473-1.15039274 2.7801509-.65094906 5.9700604 1.29413642 8.2655527 1.90721296 2.2357063 1.91694381 5.5230419.023 7.77v.005l1.504 1.315c2.54770563-2.9932822 2.54770563-7.3927178 0-10.386-1.46045477-1.7255795-1.83385003-4.1227546-.96742038-6.2107805.86642966-2.088026 2.8273196-3.5165857 5.08042038-3.7012195 3.917907-.3175501 7.0271841-3.4297921 7.341-7.348.1883887-2.25232446 1.6195091-4.21058905 3.7082288-5.07413155 2.0887198-.86354249 4.4848769-.48759494 6.2087712.97413155 2.9931443 2.54910881 7.3938557 2.54910881 10.387 0 1.7257829-1.4602742 4.1229695-1.83356888 6.2110621-.96719898 2.0880926.86636989 3.5168717 2.82709491 3.7019379 5.08019898.3166749 3.9179334 3.4288092 7.0275262 7.347 7.341 2.2527111.1881223 4.2113987 1.6194075 5.0750056 3.7084936.8636068 2.089086.4873055 4.4856319-.9750056 6.2095064-2.5477056 2.9932822-2.5477056 7.3927178 0 10.386 1.4604548 1.7255795 1.83385 4.1227546.9674204 6.2107805-.8664297 2.088026-2.8273196 3.5165857-5.0804204 3.7012195-3.917907.3175501-7.0271841 3.4297921-7.341 7.348-.1883887 2.2523245-1.6195091 4.2105891-3.7082288 5.0741315-2.0887198.8635425-4.4848769.487595-6.2087712-.9741315-2.9936055-2.5478555-7.3933945-2.5478555-10.387 0-1.7257829 1.4602742-4.1229695 1.8335689-6.2110621.967199s-3.5168717-2.8270949-3.7019379-5.080199c-.3182331-3.9219319-3.4363426-7.0328383-7.359-7.342-.53616015-.0173706-.99051585.3914072-1.02970859.926415-.03919275.5350078.35074091 1.0056351.88370859 1.066585 2.9431856.2383655 5.2788355 2.5765569 5.514 5.52.2506519 2.9979773 2.1550483 5.6047735 4.9349 6.7550425 2.7798517 1.1502689 5.9693848.651279 8.2651-1.2930425 2.2479724-1.9133966 5.5520276-1.9133966 7.8 0 2.2972475 1.9450708 5.4889673 2.4430126 8.2695276 1.2901333s4.6835331-3.7631887 4.9304724-6.7631333c.2383655-2.9431856 2.5765569-5.2788355 5.52-5.514 2.9983604-.2499543 5.6057437-2.1542964 6.7561364-4.9344473 1.1503928-2.7801509.6509491-5.9700604-1.2941364-8.2655527-1.9133966-2.2479724-1.9133966-5.5520276 0-7.8 1.9531571-2.2909988 2.454756-5.4845371 1.298-8.264z"/><path id="Shape" d="m19 13.108c.184824.0001267.365993-.0514874.523-.149.9121633-.5618975 1.867889-1.0497925 2.858-1.459.3345033-.1332663.5715329-.4360762.6205728-.7927937.0490399-.3567176-.0974829-.71225655-.3836148-.93084491-.2861319-.21858835-.6676869-.2664705-.998958-.12536139-1.0885624.4488726-2.1395655.9839044-3.143 1.6-.3864742.2323489-.5696283.6946147-.4471656 1.1286092.1224626.4339945.5202413.7323353.9711656.7283908z"/><path id="Shape" d="m47.994 40.879c.4849259.2638043 1.0918892.0847591 1.356-.4 4.0416809-7.4845266 3.4102399-16.6277214-1.6219458-23.4855949s-13.5647307-10.2033786-21.9170542-8.5934051c-.3508348.06752319-.6389964.31708534-.755937.6546788s-.0448942.71192975.189.982c.2338943.2700703.5941022.3948444.944937.3273212 1.2559682-.2415482 2.5320155-.3634273 3.811-.364 7.0468878.0024752 13.5728232 3.7120199 17.1800367 9.7656671 3.6072134 6.0536473 3.7637001 13.5585834.4119633 19.7573329-.1265314.2331206-.1552621.506961-.0798706.7612669.0753916.254306.2487285.4682414.4818706.5947331z"/><path id="Shape" d="m13.588 16.859c-.2148805-.156823-.4833906-.2215644-.7461287-.1799017-.2627381.0416628-.4980474.1862955-.6538713.4019017-6.04134595 8.3151648-5.52017065 19.7052681 1.2552925 27.433976 6.7754631 7.728708 17.9993819 9.7361247 27.0337075 4.835024.4854583-.2634398.6654398-.8705417.402-1.356-.2634399-.4854582-.8705417-.6654398-1.356-.402-8.2129251 4.4526234-18.4142759 2.626293-24.5723045-4.3991378-6.15802865-7.0254308-6.63201089-17.3781301-1.1416955-24.9368622.1559768-.21455.2203212-.4822805.1788742-.7442779-.041447-.2619973-.1852891-.4967936-.3998742-.6527221z"/><path id="Shape" d="m30 42c1.7284262.0042731 3.4370375-.3680247 5.007-1.091.5020268-.230855.721855-.8249732.491-1.327s-.8249732-.721855-1.327-.491c-1.3077875.6024128-2.7311401.9126088-4.171.909-4.3809886-.0034699-8.2487773-2.860364-9.5401395-7.0467058-1.2913622-4.1863417.2949164-8.7256538 3.9126541-11.1964933 3.6177376-2.4708395 8.4230857-2.2968754 11.8526876.4290931 3.4296019 2.7259686 4.6834922 7.368101 3.0927978 11.450106-.1300447.3329715-.0725727.7100279.1507668.9891357.2233394.2791077.5786158.4178637.932.364.3533841-.0538638.6511885-.2921642.7812332-.6251357 1.9138405-4.9022872.4102394-10.4795371-3.7084174-13.7554906-4.1186568-3.2759536-9.8912096-3.4861105-14.2371775-.518322-4.345968 2.9677885-6.2511442 8.4209377-4.6988454 13.449414 1.5522989 5.0284763 6.1998171 8.4587979 11.4624403 8.4603986z"/><path id="Shape" d="m24.105 26.1c-.2394842-.1140855-.5144851-.1283426-.7644829-.0396337s-.4545056.2731142-.5685171.5126337c-1.6679239 3.5167254-.5627676 7.7235423 2.6182401 9.966424 3.1810076 2.2428816 7.5146301 1.8708677 10.2668409-.881343 2.7522107-2.7522108 3.1242246-7.0858333.881343-10.2668409-2.2428817-3.1810077-6.4496986-4.286164-9.966424-2.6182401-.4987131.2374825-.7104824.8342869-.473 1.333.2374825.4987131.8342869.7104824 1.333.473.801843-.3828639 1.6794428-.580734 2.568-.579 3.3137085 0 6 2.6862915 6 6s-2.6862915 6-6 6-6-2.6862915-6-6c-.0024099-.8892734.1954861-1.7676721.579-2.57.235421-.4982087.0234499-1.0929799-.474-1.33z"/></g></g></g></svg>