<svg height="512" viewBox="0 0 60 60" width="512" xmlns="http://www.w3.org/2000/svg"><g id="Page-1" fill="none" fill-rule="evenodd"><g id="017---Share" fill-rule="nonzero"><circle id="Oval" cx="39" cy="10" fill="#ffe7e8" r="9"/><path id="Shape" d="m39 1c-.5028835.00322243-1.0046224.04837892-1.5.135 4.3297277.72670886 7.5010833 4.4747098 7.5010833 8.865s-3.1713556 8.1382911-7.5010833 8.865c3.3570875.5877651 6.7581917-.7711782 8.7859125-3.5104942 2.0277208-2.7393161 2.334161-6.38901899.7916126-9.42810579-1.5425485-3.03908681-4.6694296-4.94613968-8.0775251-4.92640001z" fill="#ffc9cc"/><circle id="Oval" cx="45" cy="45" fill="#ffe7e8" r="14"/><path id="Shape" d="m45 31c-.501124.000841-1.0018425.0285475-1.5.083 7.1005043.7766351 12.477794 6.7741488 12.477794 13.917s-5.3772897 13.1403649-12.477794 13.917c5.1556805.5638557 10.2006402-1.7687254 13.1106632-6.0618293s3.2082338-9.8432051.7749798-14.423407-7.1992273-7.4399313-12.385643-7.4317637z" fill="#ffc9cc"/><circle id="Oval" cx="13" cy="28" fill="#ffe0e2" r="12"/><path id="Shape" d="m13 16c-.5016016.0018663-1.0025897.0352655-1.5.1 5.9981525.7514856 10.4985957 5.8509554 10.4985957 11.896s-4.5004432 11.1445144-10.4985957 11.896c4.4513412.6000263 8.8650932-1.3360521 11.4384127-5.0174236 2.5733196-3.6813716 2.8753186-8.4916109.7826423-12.4659255s-6.2296207-6.4472272-10.721055-6.4086509z" fill="#ff9ea1"/><path id="Shape" d="m40.5 1.135h.019c-.7591769-.13252927-1.5325403-.1641363-2.3-.094-.546.047-.62.1-.721.1-4.4650981.75177718-7.6746967 4.70635051-7.4917067 9.2305946.1829901 4.524244 3.7014796 8.2066895 8.2127067 8.5954054.7674618.0700543 1.5408144.0384477 2.3-.094-4.3438134-.7091673-7.53508-4.4596148-7.5397945-8.8609339-.0047145-4.40131923 3.1785104-8.15859472 7.5207945-8.8770661z" fill="#fff"/><path id="Shape" d="m45 59c.501124-.000841 1.0018425-.0285475 1.5-.083-7.1005043-.7766351-12.477794-6.7741488-12.477794-13.917s5.3772897-13.1403649 12.477794-13.917c-5.1556805-.5638557-10.2006402 1.7687254-13.1106632 6.0618293s-3.2082338 9.8432051-.7749798 14.423407 7.1992273 7.4399313 12.385643 7.4317637z" fill="#fff"/><path id="Shape" d="m12.056 39.952c.8527855.0750834 1.7112261.0566403 2.56-.055-6.04933552-.6893676-10.6182467-5.8085119-10.6182467-11.897s4.56891118-11.2076324 10.6182467-11.897c-.8490715-.1121313-1.7078973-.1305754-2.561-.055-6.23111898.4973176-11.03424741 5.6990666-11.03424741 11.95s4.80312843 11.4526824 11.03424741 11.95z" fill="#fff"/><path id="Shape" d="m4.363 34.8-1.57 1.238c-1.8020432-2.2925021-2.78523289-5.1220327-2.793-8.038h2c.00738377 2.4667452.83912202 4.8602366 2.363 6.8z" fill="#fff"/><g fill="#ff414c"><path id="Shape" d="m49 10c0-5.5228475-4.4771525-10-10-10s-10 4.4771525-10 10 4.4771525 10 10 10c5.5203344-.0060624 9.9939376-4.4796656 10-10zm-18 0c0-4.418278 3.581722-8 8-8s8 3.581722 8 8-3.581722 8-8 8c-4.4162219-.0049599-7.9950401-3.5837781-8-8z"/><path id="Shape" d="m40 5c0-.55228475-.4477153-1-1-1-1.2988211-.00371333-2.5631711.41773665-3.6 1.2-.4418278.33137085-.5313708.9581722-.2 1.4s.9581722.53137085 1.4.2c.690767-.52236851 1.5339653-.8034346 2.4-.8.5522847 0 1-.44771525 1-1z"/><path id="Shape" d="m45 30c-5.3717217.0058241-10.3302559 2.8836811-13 7.545l-4.46-2.508c-.3119551-.1835732-.6987586-.1842418-1.0113464-.001748-.3125878.1824937-.5021586.5196589-.4956566.8815606s.2080617.6920398.527003.8631874l4.555 2.562c-2.4869102 6.1099842-.6886608 13.1276026 4.4301741 17.2886312 5.1188348 4.1610286 12.3558059 4.4880134 17.8290292.805561 5.4732233-3.6824525 7.8970014-10.5093089 5.9712288-16.8186694-1.9257727-6.3093605-7.7487187-10.619113-14.3454321-10.6175228zm0 28c-7.1797017 0-13-5.8202983-13-13s5.8202983-13 13-13 13 5.8202983 13 13c-.008266 7.1762751-5.8237249 12.991734-13 13z"/><path id="Shape" d="m45 34c-3.9923871.0054895-7.6696925 2.1694879-9.613 5.657-.1804855.3123645-.1787341.6977275.0045831 1.0084386s.5197787.4985977.8804706.4916717c.3606918-.006926.6896924-.2075907.8609463-.5251103 1.5900043-2.8547392 4.5993372-4.6266001 7.867-4.632.5522847 0 1-.4477153 1-1s-.4477153-1-1-1z"/><path id="Shape" d="m1.68 32.938c-.55228475.0027614-1.00223858-.4427153-1.005-.995s.44271525-1.0022386.995-1.005h.01c.55228473 0 .99999994.4477153.99999994 1s-.44771521 1-.99999994 1z"/><path id="Shape" d="m6.055 25.032c.35797084.0007064.68901493-.1899871.868-.5 1.24947104-2.1781853 3.565902-3.5245132 6.077-3.532.5522847 0 1-.4477153 1-1s-.4477153-1-1-1c-3.22692963.0074659-6.20479118 1.7357844-7.812 4.534-.17872009.3095519-.17862729.6909574.00024341 1.0004223s.50931692.4999262.86675659.4995777z"/><path id="Shape" d="m28.642 17.17c-.1511233-.2180716-.3827135-.3671483-.6437875-.4144117-.2610741-.0472634-.5302292.0111611-.7482125.1624117l-4.169 2.889c-3.466856-4.2730042-9.2495417-5.8986087-14.435053-4.0579218-5.18551127 1.8406869-8.64907975 6.7484091-8.645947 12.2509218 0 .5522847.44771525 1 1 1s1-.4477153 1-1c-.00972641-5.383585 3.87075907-9.9866255 9.1784443-10.8874911 5.3076853-.9008656 10.4896367 2.1640209 12.256779 7.2493223 1.7671422 5.0853013-.3975589 10.7031496-5.1201297 13.2877979-4.7225707 2.5846484-10.62127152 1.3798751-13.9520936-2.8496291-.34374846-.4025948-.93473919-.4834582-1.374-.188-.22833243.1530265-.38066242.3960774-.41883977.6682819-.03817735.2722046.04141361.5477829.21883977.7577181 3.42239093 4.359304 9.2333567 6.0675976 14.4704462 4.2539866s8.7470752-6.7497624 8.7405538-12.2919866c-.0007086-2.3019412-.6173685-4.5617617-1.786-6.545l4.175-2.893c.2182317-.1509689.3675104-.3824869.4149632-.643571s-.0108118-.5303237-.1619632-.748429z"/><circle id="Oval" cx="34" cy="10" r="1"/><circle id="Oval" cx="5" cy="28" r="1"/><circle id="Oval" cx="35" cy="45" r="1"/></g></g></g></svg>