<svg height="512" viewBox="0 0 60 60" width="512" xmlns="http://www.w3.org/2000/svg"><g id="Page-1" fill="none" fill-rule="evenodd"><g id="018---Cloud-Upload" fill-rule="nonzero"><path id="Shape" d="m23 36v-20h5c.398054-.0001402.7581196-.2363458.9167786-.6014134.158659-.3650675.0856943-.789469-.1857786-1.0805866l-13-13c-.1891233-.20259916-.4538466-.31762254-.731-.31762254s-.5418767.11502338-.731.31762254l-13 13c-.27147285.2911176-.34443758.7155191-.18577861 1.0805866.15865896.3650676.51872464.6012732.91677861.6014134h5v21" fill="#ffe0e2"/><path id="Rectangle-path" d="m20 16h3v20h-3z" fill="#ff9ea1"/><path id="Shape" d="m28.729 14.318-13-13c-.1891233-.20259916-.4538466-.31762254-.731-.31762254s-.5418767.11502338-.731.31762254l-.769.769 12.231 12.231c.2712271.290852.3443292.7147774.1861795 1.0796714-.1581497.3648941-.5174885.6013942-.9151795.6023286h3c.397691-.0009344.7570298-.2374345.9151795-.6023286.1581497-.364894.0850476-.7888194-.1861795-1.0796714z" fill="#ff9ea1"/><path id="Shape" d="m58.92 50.24c-.7259379 5.0748723-5.1038655 8.8237135-10.23 8.76h-37.69c-4.08750434.0026594-7.76463225-2.4840608-9.28421228-6.2786062-1.51958002-3.7945455-.57528305-8.1319814 2.38421228-10.9513938-2.06940066-2.4726837-2.65790384-5.8634854-1.54274218-8.8888777 1.11516166-3.0253922 3.76357944-5.2230626 6.94274218-5.7611223 4.2617093-.698605 8.4286629 1.689669 9.98 5.72.2686433.7110618.9498837 1.1811576 1.71 1.18h.01c.9982565-.008793 1.8022376-.8217073 1.8-1.82v-2.89c-.0596269-4.9468961 3.7991983-9.0573838 8.74-9.31 2.691311-.0778581 5.2754607 1.056378 7.04 3.09 5.1076381-2.2399081 11.0749237-.972291 14.8309468 3.1505048 3.7560232 4.1227958 4.4637847 10.1820386 1.7590532 15.0594952 2.6449818 2.1690414 3.9864752 5.5473375 3.55 8.94z" fill="#ffe7e8"/><path id="Shape" d="m58 44.63c-.6295143-1.2846309-1.5261888-2.419964-2.63-3.33 2.2307675-4.0265196 2.1658646-8.9325176-.1706396-12.8986154s-6.5961894-6.4008692-11.1993604-6.4013846c-.5030165.0017597-1.0055145.0324771-1.505.092 4.3080873.4967016 8.084369 3.1100021 10.0671766 6.9667886 1.9828075 3.8567866 1.9107205 8.4485669-.1921766 12.2412114 2.6449818 2.1690414 3.9864752 5.5473375 3.55 8.94-.7259379 5.0748723-5.1038655 8.8237135-10.23 8.76h3c5.1261345.0637135 9.5040621-3.6851277 10.23-8.76.2425265-1.9196248-.0770562-3.8683846-.92-5.61z" fill="#ffc9cc"/><path id="Shape" d="m11 59h3c-4.07900765-.0145844-7.74126699-2.5025432-9.25769763-6.2892244-1.51643065-3.7866812-.58374733-8.1147505 2.35769763-10.9407756-1.77097778-2.11358-2.47453977-4.9227492-1.90883391-7.6215563s2.33815591-4.9889711 4.80883391-6.2134437v-11.935h-3v11.935c-2.470678 1.2244726-4.24312805 3.5146366-4.80883391 6.2134437s.13785613 5.5079763 1.90883391 7.6215563c-2.94144496 2.8260251-3.87412828 7.1540944-2.35769763 10.9407756 1.51643064 3.7866812 5.17868998 6.27464 9.25769763 6.2892244z" fill="#fff"/><path id="Shape" d="m2 16h3c-.39805397-.0001402-.75811965-.2363458-.91677861-.6014134-.15865897-.3650675-.08569424-.789469.18577861-1.0805866l12.231-12.231-.769-.769c-.1891233-.20259916-.4538466-.31762254-.731-.31762254s-.5418767.11502338-.731.31762254l-13 13c-.27147285.2911176-.34443758.7155191-.18577861 1.0805866.15865896.3650676.51872464.6012732.91677861.6014134z" fill="#fff"/><path id="Rectangle-path" d="m.099 10.489h8v2h-8z" fill="#fff" transform="matrix(.707 -.707 .707 .707 -6.924 6.264)"/><g fill="#ff414c"><path id="Shape" d="m3.392 10.782c-.28606061.2859742-.37167172.7161158-.21690842 1.0898272.1547633.3737115.51941869.6173863.92390842.6173863s.76914512-.2436748.92390842-.6173863c.1547633-.3737114.06915219-.803853-.21690842-1.0898272-.39049985-.3903819-1.02350015-.3903819-1.414 0z"/><path id="Shape" d="m11 60h38c3.7899096-.0020242 7.3122649-1.9534832 9.3237433-5.1655501s2.2291786-7.2329854.5762567-10.6434499c-.5689092-1.1680836-1.3420732-2.2250459-2.283-3.121 2.4857603-5.1612376 1.5763116-11.316153-2.295882-15.5379411s-9.9257719-5.6585447-15.282118-3.6270589c-2.0512945-2.0424784-4.8890264-3.0925728-7.7757592-2.8773971-2.8867329.2151757-5.5374232 1.6743745-7.2632408 3.9983971v-6.026h4c.8024982.0000059 1.5272904-.4796606 1.8409354-1.2183284.3136451-.7386678.1553996-1.59328-.4019354-2.1706716l-12.976-12.975c-.7981964-.79829761-2.0892422-.80853694-2.9-.023l-7.343 7.34c-.39046532.39074146-.39024146 1.02403468.0005 1.4145s1.02403468.39024146 1.4145-.0005l7.227-7.228c.0578329-.03223842.1121292-.07044696.162-.114l12.976 12.975h-5c-.5522847 0-1 .4477153-1 1v18c0 .5522847.4477153 1 1 1s1-.4477153 1-1v-5c-.0019281-3.3358488 2.0675218-6.3222895 5.1915694-7.4919978s6.646004-.2768062 8.8354306 2.2399978c.2871684.3285819.7542444.4330062 1.154.258 3.7112709-1.6228653 7.9906055-1.2653076 11.381101.9509424 3.3904956 2.2162499 5.435165 5.9924754 5.437899 10.0430576.0087868 2.0344904-.5078895 4.0367835-1.5 5.813-.2345798.4211154-.1353488.9496469.236 1.257.9952342.818715 1.8028152 1.8418328 2.368 3 1.3490815 2.7907041 1.168757 6.0789686-.4773949 8.7054176-1.6461518 2.6264491-4.5269205 4.2221846-7.6266051 4.2245824h-38c-3.67859975.0025777-6.98796918-2.235265-8.35560994-5.6501825s-.51783853-7.3184675 2.14560994-9.8558175c.38188986-.3644467.41472721-.9629621.075-1.367-2.65937474-3.1940113-2.43000132-7.8924437.52784359-10.8122272 2.95784492-2.9197835 7.65885391-3.0882894 10.81815641-.3877728.2715218.2322227.6463077.30195.9831793.1829165.3368717-.1190335.5846503-.4087438.65-.76.0653498-.3512561-.0616574-.7106939-.3331793-.9429165-2.6217167-2.2472599-6.2173192-2.9829389-9.511-1.946v-10.461c0-.5522847-.44771525-1-1-1l-5 .006v-.006c.25883312-.2583264.35601841-.637335.25342921-.9883373s-.38859039-.618015-.74580275-.6962868c-.35721237-.0782717-.72866222.0446815-.96862646.3206241-.54282232.5821025-.68882021 1.4306669-.37175707 2.1607151.31706313.7300482 1.03683063 1.2026069 1.83275707 1.2032849h4v10.353c-2.42093202 1.3936764-4.14679168 3.7383636-4.75804303 6.4640961s-.05191428 5.58288 1.54204303 7.8769039c-1.7878246 2.0143889-2.77791579 4.612667-2.784 7.306 0 2.9173814 1.15892524 5.7152744 3.22182541 7.7781746 2.06290016 2.0629002 4.8607932 3.2218254 7.77817459 3.2218254z"/><path id="Shape" d="m23 42c.5522847 0 1-.4477153 1-1v-3c0-.5522847-.4477153-1-1-1s-1 .4477153-1 1v3c0 .5522847.4477153 1 1 1z"/><path id="Shape" d="m22 46c0 .5522847.4477153 1 1 1s1-.4477153 1-1v-1c0-.5522847-.4477153-1-1-1s-1 .4477153-1 1z"/></g></g></g></svg>