<svg height="512" viewBox="0 0 60 60" width="512" xmlns="http://www.w3.org/2000/svg"><g id="Page-1" fill="none" fill-rule="evenodd"><g id="019---Cloud-Download" fill-rule="nonzero" transform="translate(-1)"><path id="Shape" d="m60 30c0 5.5228475-4.4771525 10-10 10h-38c-4.08750434.0026594-7.76463225-2.4840608-9.28421228-6.2786062-1.51958002-3.7945455-.57528305-8.1319814 2.38421228-10.9513938-2.77828584-3.3124157-2.80605252-8.1331123-.06610805-11.4773124 2.73994446-3.34420005 7.47193115-4.26517192 11.26610805-2.1926876 0-.01.01-.01.01-.02 2.1523916-4.61747725 6.6445323-7.70004379 11.7271762-8.04734392 5.0826438-.34730013 9.9523407 2.09556638 12.7128238 6.37734392 3.9741921-1.3695218 8.3651923-.73464307 11.7887054 1.70448598 3.4235131 2.43912902 5.4577098 6.38197032 5.4612946 10.58551402.0035232 1.2393719-.17505 2.4725382-.53 3.66.6144149.6807928 1.1295105 1.4450196 1.53 2.27.659292 1.3623791 1.0011916 2.8564805 1 4.37z" fill="#ffe7e8"/><path id="Shape" d="m37.75 7.41c.8412796-.28658953 1.7098755-.48564275 2.592-.594-2.9149605-4.10155466-7.8282244-6.29544111-12.828-5.728 4.1926084.45058384 7.955889 2.77487658 10.236 6.322z" fill="#ffc9cc"/><path id="Shape" d="m59 25.63c-.4004895-.8249804-.9155851-1.5892072-1.53-2.27.35495-1.1874618.5335232-2.4206281.53-3.66.0204698-3.7129008-1.5569278-7.2552582-4.3301251-9.72415019-2.7731973-2.46889204-6.4742824-3.62580495-10.1598749-3.17584981 6.5463615.76556416 11.4839126 6.3090289 11.49 12.9.0035232 1.2393719-.17505 2.4725382-.53 3.66.6144149.6807928 1.1295105 1.4450196 1.53 2.27 1.5007853 3.1003285 1.3019618 6.7545263-.5263434 9.6737202-1.8283052 2.919194-5.0291852 4.6931894-8.4736566 4.6962798h3c3.4444714-.0030904 6.6453514-1.7770858 8.4736566-4.6962798 1.8283052-2.9191939 2.0271287-6.5733917.5263434-9.6737202z" fill="#ffc9cc"/><path id="Shape" d="m29.73 45.68-13 13c-.187046.205551-.4520838.3227192-.73.3227192s-.542954-.1171682-.73-.3227192l-13-13c-.2699902-.2911137-.342181-.7143824-.18394949-1.0785316.15823152-.3641493.51691012-.600195.91394949-.6014684h5v-4.84c3.71 1.63 8.58 1.07 13-3.31 1.1239269-1.1274708 2.1291919-2.3672977 3-3.7v11.85h5c.3970394.0012734.755718.2373191.9139495.6014684.1582315.3641492.0860407.7874179-.1839495 1.0785316z" fill="#ffe0e2"/><path id="Shape" d="m21 44h3v-11.85c-.8708081 1.3327023-1.8760731 2.5725292-3 3.7z" fill="#ff9ea1"/><path id="Shape" d="m29 44h-3c.3970394.0012734.755718.2373191.9139495.6014684.1582315.3641492.0860407.7874179-.1839495 1.0785316l-12.23 12.23.77.77c.187046.205551.4520838.3227192.73.3227192s.542954-.1171682.73-.3227192l13-13c.2699902-.2911137.342181-.7143824.1839495-1.0785316-.1582315-.3641493-.5169101-.600195-.9139495-.6014684z" fill="#ff9ea1"/><g fill="#fff"><path id="Shape" d="m8 39.161v4.839h3v-4.839c-3.0663595-1.3390317-5.25929125-4.1235924-5.84222936-7.4183988-.58293812-3.2948065.52145333-6.6627506 2.94222936-8.9726012-2.05474121-2.4726059-2.63685547-5.8524903-1.5276743-8.8700155s3.7417042-5.21577396 6.9086743-5.7689845c-.489063-.08555222-.9845132-.12937665-1.481-.131-3.48977889.00933345-6.6601813 2.0335001-8.13725232 5.1952884-1.47707102 3.1617882-.99501792 6.8922475 1.23725232 9.5747116-2.42077603 2.3098506-3.52516748 5.6777947-2.94222936 8.9726012.58293811 3.2948064 2.77586986 6.0793671 5.84222936 7.4183988z"/><path id="Shape" d="m2.27 45.68 13 13c.187046.205551.4520838.3227192.73.3227192s.542954-.1171682.73-.3227192l.77-.77-12.23-12.23c-.2699902-.2911137-.342181-.7143824-.18394949-1.0785316.15823152-.3641493.51691012-.600195.91394949-.6014684h-3c-.39703937.0012734-.75571797.2373191-.91394949.6014684-.15823151.3641492-.08604071.7874179.18394949 1.0785316z"/><path id="Shape" d="m16.8 8.181c.8603865.23231503 1.7007488.53328045 2.513.9 2.0655069-4.44295094 6.3137276-7.47370529 11.187-7.981-5.5736011-.60135498-10.9670831 2.18632722-13.7 7.081z"/><path id="Rectangle-path" d="m11.442 51.851h2v8h-2z" transform="matrix(.707 -.707 .707 .707 -35.848 25.155)"/></g><circle id="Oval" cx="12.442" cy="55.852" fill="#ff414c" r="1"/><path id="Shape" d="m7 39.794v3.206h-4c-.79738805.0002541-1.51843697.4741424-1.835 1.206-.3235499.7288995-.17548168 1.5809827.375 2.158.008.008.019.011.027.019l7.339 7.347c.39237889.3789722 1.01608478.3735524 1.4018186-.0121814.3857338-.3857338.3911536-1.0094397.0121814-1.4018186l-7.32-7.316h5c.55228475 0 1-.4477153 1-1v-3.421c.97590382.2775194 1.9854055.4191861 3 .421h2c.5522847 0 1-.4477153 1-1s-.4477153-1-1-1h-2c-1.2392794-.0001947-2.465065-.2572692-3.6-.755l-.015-.008c-2.75682186-1.2063921-4.72700279-3.7123666-5.24865498-6.6760345-.52165219-2.963668.4744469-5.9917545 2.65365498-8.0669655.38188986-.3644467.41472721-.9629621.075-1.367-2.32923824-2.7939736-2.48034862-6.8076144-.36778823-9.7688182 2.11256039-2.96120376 5.95691353-4.12443013 9.35678823-2.8311818.0553478.01434788.1119369.02338874.169.027-.3629494.9268364-.6309869 1.8880858-.8 2.869-.0449258.2615168.0159286.5301672.1691636.7467968.153235.2166297.3862856.3634754.6478364.4082032.0558793.0090889.1123868.01377.169.014.4867833-.00087.9022211-.3521345.984-.832.876718-5.05766819 4.653117-9.12278796 9.6326174-10.36906946 4.9795005-1.2462815 10.2255761.56067133 13.3813826 4.60906946-.3848179.26777537-.5281712.76930274-.343 1.2.1065476.24299806.3052995.43369068.5524974.53009414.247198.09640345.5225749.09061385.7655026-.01609414.3-.131.6-.244.895-.351 3.963877-1.3714785 8.3561756-.57373892 11.5846195 2.1040258 3.2284439 2.6777646 4.824427 6.8468789 4.2093805 10.9959742-.416472-.2542879-.9561671-.1668157-1.271.206-.3523417.4252642-.2932445 1.0556345.132 1.408.9952342.818715 1.8028152 1.8418328 2.368 3 1.3455069 2.7894418 1.1639053 6.0744573-.4808738 8.6985906-1.6447791 2.6241334-4.5221358 4.219478-7.6191262 4.2244094h-25v-10c0-.5522847-.4477153-1-1-1s-1 .4477153-1 1v15c0 .5522847.4477153 1 1 1l5.023-.027-13.013 13.034c-.3716876-.4089668-1.0045331-.4391876-1.4135-.0675-.4089668.3716877-.4391876 1.0045331-.0675 1.4135.3776546.4127587.9115427.6475824 1.471.647.5439029.0034077 1.0647639-.2193528 1.438-.615l13.022-13.021c.5504817-.5770173.6985499-1.4291005.375-2.158-.316563-.7318576-1.0376119-1.2057459-1.835-1.206h-4v-2h25c3.7899096-.0020242 7.3122649-1.9534832 9.3237433-5.1655501s2.2291786-7.2329854.5762567-10.6434499c-.3631837-.7413487-.8097361-1.4388561-1.331-2.079.2864156-1.1147144.4312229-2.2610778.431-3.412.0082202-4.3942732-2.0510261-8.5364672-5.5592872-11.18256023-3.5082612-2.64609305-8.0568575-3.48784003-12.2797128-2.27243977-2.8021524-3.92935971-7.3348441-6.25701859-12.161-6.245-5.4864913.01585182-10.5308066 3.01241025-13.169 7.823-.0786679-.07045472-.1685777-.12723983-.266-.168-4.0955624-1.56057265-8.73005762-.27238087-11.43283353 3.1778396-2.70277592 3.4502204-2.84391116 8.2583452-.34816647 11.8611604-1.7878246 2.0143889-2.77791579 4.612667-2.784 7.306-.0003539 4.1330569 2.31775209 7.9169785 6 9.794z" fill="#ff414c"/><path id="Shape" d="m23 25c0 .5522847.4477153 1 1 1s1-.4477153 1-1v-3c0-.5522847-.4477153-1-1-1s-1 .4477153-1 1z" fill="#ff414c"/><path id="Shape" d="m24 19c.5522847 0 1-.4477153 1-1v-1c0-.5522847-.4477153-1-1-1s-1 .4477153-1 1v1c0 .5522847.4477153 1 1 1z" fill="#ff414c"/></g></g></svg>