<svg height="512" viewBox="0 0 60 62" width="512" xmlns="http://www.w3.org/2000/svg"><g id="Page-1" fill="none" fill-rule="evenodd"><g id="020---Plaster" fill-rule="nonzero"><path id="Shape" d="m54.63 6.25c-2.7921435-2.81292006-6.5915943-4.39496039-10.555-4.39496039s-7.7628565 1.58204033-10.555 4.39496039l-2.82 2.83-22.51 22.63-2.82 2.83c-5.82992295 5.8681612-5.82992295 15.3418388 0 21.21 2.79214352 2.8129201 6.5915943 4.3949604 10.555 4.3949604s7.7628565-1.5820403 10.555-4.3949604l2.82-2.83 22.51-22.63 2.82-2.83c5.8266483-5.869511 5.8266483-15.340489 0-21.21z" fill="#ffe7e8"/><path id="Shape" d="m54.63 6.25c-3.1596051-3.18652083-7.5909062-4.77304061-12.055-4.316 3.4280092.34328714 6.6295725 1.86928902 9.055 4.316 5.8266483 5.869511 5.8266483 15.340489 0 21.21l-2.82 2.83-22.51 22.63-2.82 2.83c-2.4254275 2.446711-5.6269908 3.9727129-9.055 4.316 4.4640938.4570406 8.8953949-1.1294792 12.055-4.316l2.82-2.83 22.51-22.63 2.82-2.83c5.8266483-5.869511 5.8266483-15.340489 0-21.21z" fill="#ffc9cc"/><path id="Shape" d="m54.63 6.25c-2.7921435-2.81292006-6.5915943-4.39496039-10.555-4.39496039s-7.7628565 1.58204033-10.555 4.39496039l-2.82 2.83-22.51 22.63-2.82 2.83c-5.82992295 5.8681612-5.82992295 15.3418388 0 21.21 2.79214352 2.8129201 6.5915943 4.3949604 10.555 4.3949604s7.7628565-1.5820403 10.555-4.3949604l2.82-2.83 22.51-22.63 2.82-2.83c5.8266483-5.869511 5.8266483-15.340489 0-21.21z" fill="#ffe0e2"/><path id="Shape" d="m54.63 6.25c-3.1596051-3.18652083-7.5909062-4.77304061-12.055-4.316 3.4280092.34328714 6.6295725 1.86928902 9.055 4.316 5.8266483 5.869511 5.8266483 15.340489 0 21.21l-2.82 2.83-22.51 22.63-2.82 2.83c-2.4254275 2.446711-5.6269908 3.9727129-9.055 4.316 4.4640938.4570406 8.8953949-1.1294792 12.055-4.316l2.82-2.83 22.51-22.63 2.82-2.83c5.8266483-5.869511 5.8266483-15.340489 0-21.21z" fill="#ff9ea1"/><path id="Shape" d="m51.81 30.29-22.51 22.63-21.11-21.21 22.51-22.63z" fill="#ffe7e8"/><path id="Shape" d="m50.543 28.548-22.743 22.864 1.5 1.508 22.51-22.63" fill="#ffc9cc"/><path id="Shape" d="m30.719 23.335c-1.728416-.0210643-3.1208979-1.4237388-3.1293563-3.1522625-.0084585-1.7285237 1.3702292-3.1447588 3.0983563-3.1827375h.031c1.1450533-.0203463 2.2119415.5788864 2.7904222 1.5672796s.5784807 2.2120476 0 3.2004408-1.6453689 1.5876259-2.7904222 1.5672796z" fill="#ffc9cc"/><path id="Shape" d="m29.31 44.38c-.9610445.0046445-1.851564-.5037749-2.3361084-1.3337416-.4845445-.8299667-.4895001-1.855389-.013-2.6900001.4765-.8346111 1.3620639-1.3516139 2.3231084-1.3562583h.026c1.485646 0 2.69 1.204354 2.69 2.69s-1.204354 2.69-2.69 2.69z" fill="#ffc9cc"/><path id="Shape" d="m19.46 34.707c-1.0316532.023702-1.9957506-.5113413-2.5214481-1.3993234-.5256976-.8879821-.5311072-1.9905817-.0141481-2.8836794.5169591-.8930976 1.4757601-1.4375752 2.5075962-1.4239972h.028c1.5551252.0291136 2.8005795 1.2981023 2.8005795 2.8535s-1.2454543 2.8243864-2.8005795 2.8535z" fill="#ffc9cc"/><path id="Shape" d="m40.57 33.535c-1.1803477.0256063-2.2827359-.58742-2.8837461-1.6036203s-.6071867-2.2775578-.0161571-3.2995952c.5910295-1.0220374 1.6873613-1.6458302 2.8679032-1.6317845h.032c1.1809898-.0206612 2.2812195.5975625 2.8777593 1.6170251.5965399 1.0194627.5965399 2.2814871 0 3.3009498-.5965398 1.0194626-1.6967695 1.6376863-2.8777593 1.6170251z" fill="#ffc9cc"/><path id="Shape" d="m17.368 60.048c-3.4080866-.3455291-6.5898739-1.8657163-9-4.3-5.82992295-5.8681612-5.82992295-15.3418388 0-21.21 7.463-7.489 20.588-20.7 28.15-28.29 2.4235759-2.44276993 5.6234413-3.96348406 9.048-4.3-4.4594288-.46256758-8.8884541 1.11917465-12.046 4.302-7.562 7.589-20.687 20.8-28.15 28.29-5.82992295 5.8681612-5.82992295 15.3418388 0 21.21 3.14606851 3.1694385 7.5550482 4.7488513 11.998 4.298z" fill="#fff"/><path id="Shape" d="m2.452 41.663-1.939-.494c.70614355-2.7718289 2.13869596-5.3052029 4.15-7.339l1.418 1.411c-1.7593048 1.7798068-3.01203056 3.9966723-3.629 6.422z" fill="#fff"/><g fill="#ff414c"><path id="Shape" d="m.513 41.169c-.34295111 1.3395119-.5136617 2.7172942-.508 4.1.01975654 1.3814879.21020045 2.7552367.567 4.09.73414586 2.6775372 2.14267753 5.1220679 4.091 7.1 2.9801893 3.000566 7.0344428 4.68799 11.2635 4.68799s8.2833107-1.687424 11.2635-4.68799l28.147-28.289c6.2072132-6.264056 6.2072132-16.359944 0-22.624-2.9801893-3.00056603-7.0344428-4.68799-11.2635-4.68799s-8.2833107 1.68742397-11.2635 4.68799l-28.147 28.284c-.2520509.2533013-.34982089.6218289-.25648096.966762.09333992.3449332.3636092.6138682.70900002.7055001.34539081.0916318.71343007-.0079608.96548094-.2612621l2.106-2.116 13.364 13.43c.3896369.3915699 1.0229301.3931369 1.4145.0035s.3931369-1.0229301.0035-1.4145l-13.369-13.437 24.63-24.75c2.6046804-2.6234197 6.1486512-4.09882707 9.8455-4.09882707s7.2408196 1.47540737 9.8455 4.09882707c5.4318471 5.4823878 5.4318471 14.3176122 0 19.8l-2.106 2.116-13.366-13.428c-.3896369-.3915699-1.0229301-.3931369-1.4145-.0035s-.3931369 1.0229301-.0035 1.4145l13.369 13.437-24.63 24.75c-2.6046804 2.6234197-6.1486512 4.0988271-9.8455 4.0988271s-7.24081957-1.4754074-9.8455-4.0988271c-1.70392425-1.7302586-2.93610419-3.8682405-3.579-6.21-.31312485-1.168938-.48105619-2.3719982-.5-3.582-.00379125-1.2101185.14641505-2.4158013.447-3.588.10759647-.5197113-.18992542-1.037906-.693-1.207-.25937625-.085202-.54273848-.0561837-.77946148.0798223-.23672301.136006-.40450883.3661889-.46153852.6331777z"/><path id="Shape" d="m2.978 38.7c-.55228473.0027614-1.00223852-.4427153-1.00499994-.995-.00276143-.5522847.44271521-1.0022385.99499994-1.005h.01c.55228475 0 1 .4477153 1 1s-.44771525 1-1 1z"/><path id="Shape" d="m51.1 9.785c.3896369.3915699 1.0229301.3931369 1.4145.0035.3915699-.38963689.3931369-1.02293011.0035-1.4145-2.514264-2.53178889-6.0324849-3.80082997-9.584-3.457-.5497995.05246705-.9529671.54070053-.9005 1.0905s.5407005.95296705 1.0905.9005c2.9555867-.28567076 5.8833274.77038616 7.976 2.877z"/><path id="Shape" d="m37.042 9.785c.6474376-.65200404 1.3824927-1.21069976 2.184-1.66.4818684-.2703434.6533433-.88013155.383-1.36199998-.2703434-.48186843-.8801316-.65334338-1.362-.38300002-.9623375.54016963-1.8450849 1.21123266-2.623 1.994-.2520509.2533013-.3498209.62182891-.256481.96676203.09334.34493313.3636092.61386822.7090001.70550007.3453908.0916318.71343-.0079608.9654809-.2612621z"/><path id="Shape" d="m32.813 11.2c-.187777.1875683-.2932867.4420908-.2932867.7075s.1055097.5199317.2932867.7075l1.407 1.414c.3896369.3915699 1.0229301.3931368 1.4145.0035.3915698-.3896369.3931369-1.0229301.0035-1.4145l-1.41-1.418c-.1875683-.187777-.4420908-.2932867-.7075-.2932867s-.5199317.1055097-.7075.2932867z"/><path id="Shape" d="m24.369 47.969c-.3903819.3904999-.3903819 1.0235001 0 1.414l1.403 1.417c.2520509.2533013.6200901.3528939.9654809.261262.3453909-.0916318.6156601-.3605668.7090001-.7055.0933399-.3449331-.0044301-.7134607-.256481-.966762l-1.407-1.414c-.3888413-.3920439-1.0218457-.3947299-1.414-.006z"/><path id="Shape" d="m29.3 17.563c-.3904999-.3903819-1.0235001-.3903819-1.414 0-1.55089 1.5656103-1.55089 4.0883897 0 5.654.7458929.75132 1.7608036 1.1738664 2.8195 1.1738664s2.0736071-.4225464 2.8195-1.1738664c1.55089-1.5656103 1.55089-4.0883897 0-5.654-.3907415-.3935029-1.0264971-.3957415-1.42-.005s-.3957415 1.0264971-.005 1.42c.5747104.5677907.7495706 1.4264693.442668 2.1737906-.3069025.7473213-1.0347829 1.2352711-1.842668 1.2352711s-1.5357655-.4879498-1.842668-1.2352711c-.3069026-.7473213-.1320424-1.6059999.442668-2.1737906.187777-.1875683.2932867-.4420908.2932867-.7075s-.1055097-.5199317-.2932867-.7075z"/><path id="Shape" d="m39.149 27.462c-.3904999-.3903819-1.0235001-.3903819-1.414 0-1.5502297 1.5654922-1.5502297 4.0875078 0 5.653.7440299.7537991 1.7598562 1.1768499 2.819 1.174 1.0591443.0023704 2.0749845-.4201759 2.82-1.173 1.55089-1.5656103 1.55089-4.0883897 0-5.654-.3896369-.3915699-1.0229301-.3931369-1.4145-.0035s-.3931369 1.0229301-.0035 1.4145c.7772723.7836122.7772723 2.0473878 0 2.831-.3703987.3730027-.8743326.5827738-1.4.5827738s-1.0296013-.2097711-1.4-.5827738c-.7772723-.7836122-.7772723-2.0473878 0-2.831.386458-.3920779.3833291-1.0227757-.007-1.411z"/><path id="Shape" d="m18.039 28.877c-.3904999-.3903819-1.0235001-.3903819-1.414 0-1.55089 1.5656103-1.55089 4.0883897 0 5.654.7447598.7532039 1.7607666 1.1758195 2.82 1.173 1.0589092.0026636 2.0745476-.4199486 2.819-1.173 1.549804-1.5660569 1.549804-4.0879431 0-5.654-.389913-.3915699-1.0234301-.392913-1.415-.003s-.392913 1.0234301-.003 1.415c.7768449.7841779.7768449 2.0478221 0 2.832-.3707937.3722614-.8745797.5815195-1.4.5815195s-1.0292063-.2092581-1.4-.5815195c-.7772723-.7836122-.7772723-2.0473878 0-2.831.3877887-.392313.3846567-1.0245484-.007-1.413z"/><path id="Shape" d="m26.477 44.434c.7464206.7503304 1.7611336 1.1721919 2.8195 1.1721919s2.0730794-.4218615 2.8195-1.1721919c1.55089-1.5656103 1.55089-4.0883897 0-5.654-.3930557-.3701895-1.0090013-.3615098-1.3914699.0196082-.3824685.381118-.393327.9970291-.0245301 1.3913918.5747104.5677907.7495706 1.4264693.442668 2.1737906-.3069025.7473213-1.0347829 1.2352711-1.842668 1.2352711s-1.5357655-.4879498-1.842668-1.2352711c-.3069026-.7473213-.1320424-1.6059999.442668-2.1737906.3896369-.3915699.3880698-1.0248631-.0035-1.4145-.3915699-.3896368-1.0248631-.3880699-1.4145.0035-1.5522754 1.5642384-1.5545063 4.0870186-.005 5.654z"/></g></g></g></svg>