<svg height="512" viewBox="0 0 60 60" width="512" xmlns="http://www.w3.org/2000/svg"><g id="Page-1" fill="none" fill-rule="evenodd"><g id="021---Battery" fill-rule="nonzero"><path id="Shape" d="m57.72 20.79-37.05 37.04c-1.5613099 1.5575332-4.0886901 1.5575332-5.65 0l-12.85-12.85c-1.5575332-1.5613099-1.5575332-4.0886901 0-5.65l37.04-37.05c1.5642825-1.55978389 4.0957175-1.55978389 5.66 0l2.15 2.16 8.54 8.54h.01l2.15 2.15c1.5597839 1.5642825 1.5597839 4.0957175 0 5.66z" fill="#ffe7e8"/><path id="Shape" d="m57.72 15.13-2.15-2.15h-.01l-8.54-8.54-2.15-2.16c-1.1351098-1.13496737-2.8387491-1.4814436-4.327-.88.4969825.20070644.9483315.49967838 1.327.879l2.15 2.16 8.54 8.54h.01l2.15 2.15c1.5597839 1.5642825 1.5597839 4.0957175 0 5.66l-37.05 37.041c-.3781554.37876-.8288031.6773779-1.325.878 1.4872977.6010589 3.1898152.255438 4.325-.878l37.05-37.04c1.5597839-1.5642825 1.5597839-4.0957175 0-5.66z" fill="#ffc9cc"/><path id="Shape" d="m47.03 4.44v.01l-.01-.01z" fill="#ffe7e8"/><path id="Shape" d="m58.41 10.13-2.84 2.85h-.01l-8.53-8.53v-.01l2.84-2.85c.3772461-.37922618.8900915-.59244048 1.425-.59244048s1.0477539.2132143 1.425.59244048l5.69 5.69c.3792262.3772461.5924405.89009149.5924405 1.425s-.2132143 1.0477539-.5924405 1.425z" fill="#ffe7e8"/><path id="Shape" d="m47.03 4.44v.01l-.01-.01z" fill="#ffe7e8"/><rect id="Rectangle-path" fill="#ffe0e2" height="10.064" rx="1" transform="matrix(.707 .707 -.707 .707 36.213 2.574)" width="18.116" x="5.942" y="39.968"/><rect id="Rectangle-path" fill="#ffe0e2" height="10.064" rx="1" transform="matrix(.707 .707 -.707 .707 32.087 -7.389)" width="18.116" x="15.905" y="30.005"/><rect id="Rectangle-path" fill="#ffe0e2" height="10.064" rx="1" transform="matrix(.707 .707 -.707 .707 27.96 -17.353)" width="18.116" x="25.868" y="20.042"/><rect id="Rectangle-path" fill="#ffe0e2" height="10.064" rx="1" transform="matrix(.707 .707 -.707 .707 23.833 -27.315)" width="18.116" x="35.831" y="10.079"/><path id="Shape" d="m15.02 57.83c1.139587 1.1280308 2.8426672 1.4665215 4.327.86-.495982-.1938956-.9474339-.4864719-1.327-.86l-12.85-12.85c-1.5575332-1.5613099-1.5575332-4.0886901 0-5.65 32.2-32.209 36.763-37.061 38.361-37.922-.6699796-.27259419-1.4022056-.35495231-2.116-.238-1.808.285.022-1.117-39.245 38.16-1.5575332 1.5613099-1.5575332 4.0886901 0 5.65z" fill="#fff"/><path id="Rectangle-path" d="m1 35.497h8v2h-8z" fill="#fff" transform="matrix(.707 -.707 .707 .707 -24.343 14.225)"/><g fill="#ff414c"><path id="Shape" d="m4.293 35.79c-.28606061.2859742-.37167172.7161158-.21690842 1.0898272.1547633.3737115.51941869.6173863.92390842.6173863s.76914512-.2436748.92390842-.6173863c.1547633-.3737114.06915219-.803853-.21690842-1.0898272-.39049985-.3903819-1.02350015-.3903819-1.414 0z"/><path id="Shape" d="m2.879 38.618c-.39049985-.3903819-1.02350015-.3903819-1.414 0-1.95257625 1.9526137-1.95257625 5.1183863 0 7.071l12.846 12.846c1.9526137 1.9525763 5.1183863 1.9525763 7.071 0l37.042-37.042c1.9525763-1.9526137 1.9525763-5.1183863 0-7.071l-2.153-2.153-7.833-7.833 2.14-2.136c.3955326-.39520238 1.0364674-.39520238 1.432 0l5.69 5.69c.3952024.39553257.3952024 1.03646743 0 1.432-.2525868.2527654-.3511379.6210837-.25853.966213s.3623054.6146361.7075.707c.3451947.0923638.7134432-.0064476.96603-.259213 1.1737639-1.17744337 1.1737639-3.08255663 0-4.26l-5.691-5.694c-1.1774434-1.17376388-3.0825566-1.17376388-4.26 0l-2.14 2.14-1.446-1.446c-1.9526137-1.95257625-5.1183863-1.95257625-7.071 0l-31.385 31.385c-.37897221.3923789-.37355237 1.0160848.01218142 1.4018186.3857338.3857338 1.00943969.3911536 1.40181858.0121814l31.385-31.385c.5626237-.56271905 1.3257625-.87885933 2.1215-.87885933s1.5588763.31614028 2.1215.87885933l2.153 2.153 8.54 8.54 2.153 2.153c.562719.5626237.8788593 1.3257625.8788593 2.1215s-.3161403 1.5588763-.8788593 2.1215l-37.042 37.042c-.5626237.562719-1.3257625.8788593-2.1215.8788593s-1.5588763-.3161403-2.1215-.8788593l-12.846-12.846c-.56271905-.5626237-.87885933-1.3257625-.87885933-2.1215s.31614028-1.5588763.87885933-2.1215c.39038194-.3904999.39038194-1.0235001 0-1.414z"/><path id="Shape" d="m10.739 35.037-5.7 5.7c-.37524801.375096-.58607293.8839266-.58607293 1.4145s.21082492 1.039404.58607293 1.4145l11.4 11.4c.375096.375248.8839266.5860729 1.4145.5860729s1.039404-.2108249 1.4145-.5860729l5.7-5.7c.7807639-.7809997.7807639-2.0470003 0-2.828l-11.4-11.4c-.791031-.7567308-2.0374342-.7571714-2.829-.001zm7.108 18.513-11.4-11.4 5.7-5.7 11.4 11.4z"/><path id="Shape" d="m20.7 25.074-5.7 5.7c-.7794319.7807702-.7794319 2.0452298 0 2.826l11.4 11.4c.7809997.7807639 2.0470003.7807639 2.828 0l5.7-5.7c.7807639-.7809997.7807639-2.0470003 0-2.828l-11.4-11.4c-.7815518-.7802118-2.0475526-.7793165-2.828.002zm7.109 18.513-11.4-11.4 5.7-5.7 11.4 11.4z"/><path id="Shape" d="m30.665 15.111-5.7 5.7c-.375248.375096-.5860729.8839266-.5860729 1.4145s.2108249 1.039404.5860729 1.4145l11.395 11.4c.375096.375248.8839266.5860729 1.4145.5860729s1.039404-.2108249 1.4145-.5860729l5.7-5.7c.7807639-.7809997.7807639-2.0470003 0-2.828l-11.4-11.4c-.7802639-.7783782-2.043185-.7788255-2.824-.001zm7.108 18.513-11.4-11.4 5.7-5.7 11.4 11.4z"/><path id="Shape" d="m47.736 25.66c.5306972.0014371 1.0398938-.2095879 1.414-.586l5.7-5.7c.375248-.375096.5860729-.8839266.5860729-1.4145s-.2108249-1.039404-.5860729-1.4145l-11.393-11.397c-.375096-.37524801-.8839266-.58607293-1.4145-.58607293s-1.039404.21082492-1.4145.58607293l-5.7 5.7c-.7807639.7809997-.7807639 2.0470003 0 2.828l11.4 11.4c.3727814.3744819.8796041.5846981 1.408.584zm-5.694-19.1 11.4 11.4-5.7 5.7-11.4-11.4z"/></g></g></g></svg>