<svg height="512" viewBox="0 0 60 60" width="512" xmlns="http://www.w3.org/2000/svg"><g id="Page-1" fill="none" fill-rule="evenodd"><g id="023---Battery" fill-rule="nonzero" transform="translate(-1)"><path id="Shape" d="m58.72 20.79-37.05 37.04c-1.5613099 1.5575332-4.0886901 1.5575332-5.65 0l-12.85-12.85c-1.5575332-1.5613099-1.5575332-4.0886901 0-5.65l37.04-37.05c1.5642825-1.55978389 4.0957175-1.55978389 5.66 0l2.15 2.16 8.54 8.54h.01l2.15 2.15c1.5597839 1.5642825 1.5597839 4.0957175 0 5.66z" fill="#ffe7e8"/><path id="Shape" d="m58.72 15.13-2.15-2.15h-.01l-8.54-8.54-2.15-2.16c-1.1351098-1.13496737-2.8387491-1.4814436-4.327-.88.4969825.20070644.9483315.49967838 1.327.879l2.15 2.16 8.54 8.54h.01l2.15 2.15c1.5597839 1.5642825 1.5597839 4.0957175 0 5.66l-37.05 37.041c-.3781554.37876-.8288031.6773779-1.325.878 1.4872977.6010589 3.1898152.255438 4.325-.878l37.05-37.04c1.5597839-1.5642825 1.5597839-4.0957175 0-5.66z" fill="#ffc9cc"/><path id="Shape" d="m48.03 4.44v.01l-.01-.01z" fill="#ffe7e8"/><path id="Shape" d="m59.41 10.13-2.84 2.85h-.01l-8.53-8.53v-.01l2.84-2.85c.3772461-.37922618.8900915-.59244048 1.425-.59244048s1.0477539.2132143 1.425.59244048l5.69 5.69c.3792262.3772461.5924405.89009149.5924405 1.425s-.2132143 1.0477539-.5924405 1.425z" fill="#ffe7e8"/><path id="Shape" d="m48.03 4.44v.01l-.01-.01z" fill="#ffe7e8"/><rect id="Rectangle-path" fill="#ffe0e2" height="10.064" rx="1" transform="matrix(.707 .707 -.707 .707 36.508 1.872)" width="18.116" x="6.936" y="39.973"/><rect id="Rectangle-path" fill="#ffe0e2" height="10.064" rx="1" transform="matrix(.707 .707 -.707 .707 32.382 -8.092)" width="18.116" x="16.901" y="30.01"/><path id="Shape" d="m17.345 58.708c.9400229.3674765 1.9825614.3753098 2.928.022.022-.009.042-.016.061-.022-.641-.014-1.741-1.3-14.164-13.728-1.5575332-1.5613099-1.5575332-4.0886901 0-5.65l37.04-37.05c.3789483-.3765269.8299382-.67276533 1.326-.871-1.48689-.59590322-3.1855755-.25388863-4.326.871l-37.04 37.05c-1.5575332 1.5613099-1.5575332 4.0886901 0 5.65 12.492 12.492 13.535 13.728 14.175 13.728z" fill="#fff"/><path id="Rectangle-path" d="m1.995 35.501h8v2h-8z" fill="#fff" transform="matrix(.707 -.707 .707 .707 -24.055 14.931)"/><g fill="#ff414c"><path id="Shape" d="m5.288 35.8c-.28606061.2859742-.37167172.7161158-.21690842 1.0898272.1547633.3737115.51941869.6173863.92390842.6173863s.76914512-.2436748.92390842-.6173863c.1547633-.3737114.06915219-.803853-.21690842-1.0898272-.39049985-.3903819-1.02350015-.3903819-1.414 0z"/><path id="Shape" d="m3.874 38.624c-.18756826-.187777-.44209075-.2932867-.7075-.2932867s-.51993174.1055097-.7075.2932867c-1.94915439 1.9536395-1.94915439 5.1163605 0 7.07l12.847 12.847c1.9524993 1.9519097 5.1175007 1.9519097 7.07 0l37.042-37.041c1.9525763-1.9526137 1.9525763-5.1183863 0-7.071l-2.151-2.152-7.834-7.836 2.139-2.141c.3963293-.39421885 1.0366707-.39421885 1.433 0l5.695 5.7c.394767.39610298.394767 1.03689702 0 1.433-.2599566.25107447-.3642126.6228779-.2726972.9725073.0915155.3496295.3645604.6226744.7141899.7141899.3496294.0915154.7214328-.0127406.9725073-.2726972 1.1760808-1.17687535 1.1760808-3.08412465 0-4.261l-5.695-5.698c-1.1924232-1.13790758-3.0685768-1.13790758-4.261 0l-2.14 2.14-1.446-1.446c-1.9524993-1.95190969-5.1175007-1.95190969-7.07 0l-31.386 31.385c-.37897221.3923789-.37355237 1.0160848.01218142 1.4018186.3857338.3857338 1.00943969.3911536 1.40181858.0121814l31.386-31.381c1.1714996-1.17114581 3.0705004-1.17114581 4.242 0l12.842 12.842c1.1711458 1.1714996 1.1711458 3.0705004 0 4.242l-37.038 37.042c-1.1714996 1.1711458-3.0705004 1.1711458-4.242 0l-12.846-12.846c-1.17114581-1.1714996-1.17114581-3.0705004 0-4.242.39038194-.3904999.39038194-1.0235001 0-1.414z"/><path id="Shape" d="m11.733 35.042-5.7 5.7c-.78076388.7809997-.78076388 2.0470003 0 2.828l11.4 11.4c.7809997.7807639 2.0470003.7807639 2.828 0l5.7-5.7c.7807639-.7809997.7807639-2.0470003 0-2.828l-11.4-11.4c-.7821358-.7780156-2.0458642-.7780156-2.828 0zm7.109 18.514-11.4-11.4 5.7-5.7 11.4 11.4z"/><path id="Shape" d="m27.39 45.006c.7809997.7807639 2.0470003.7807639 2.828 0l5.7-5.7c.7807639-.7809997.7807639-2.0470003 0-2.828l-11.4-11.4c-.7809997-.7807639-2.0470003-.7807639-2.828 0l-5.7 5.7c-.7807639.7809997-.7807639 2.0470003 0 2.828zm-4.279-18.512 11.4 11.4-5.7 5.7-11.4-11.4z"/></g></g></g></svg>