<svg height="512" viewBox="0 0 52 60" width="512" xmlns="http://www.w3.org/2000/svg"><g id="Page-1" fill="none" fill-rule="evenodd"><g id="026---Shield" fill-rule="nonzero"><path id="Shape" d="m51 30v9.68c-.0005183.7300401-.2011183 1.4459747-.58 2.07-2.06 3.4-9.64 14.33-23.63 17.17-.2594892.0562764-.5244967.0831126-.79.0802427v-29.0002427z" fill="#ffe0e2"/><path id="Shape" d="m48 30v9.68c-.0005183.7300401-.2011183 1.4459747-.58 2.07-1.948 3.216-8.843 13.157-21.42 16.629v.6212427c.2655033.0028699.5305108-.0239663.79-.0802427 13.99-2.84 21.57-13.77 23.63-17.17.3788817-.6240253.5794817-1.3399599.58-2.07v-9.68z" fill="#ff9ea1"/><path id="Shape" d="m51 14.32.0000154 15.68h-25.0000154v-29h8.3c.6699008.01057869 1.2928108.34627871 1.67.9 3.93 5.62 11.09 9.32 13.87 10.61.7090574.3226098 1.1630578 1.031007 1.16 1.81z" fill="#ffe7e8"/><path id="Shape" d="m49.84 12.51c-2.78-1.29-9.94-4.99-13.87-10.61-.3771892-.55372129-1.0000992-.88942131-1.67-.9h-3c.6699008.01057869 1.2928108.34627871 1.67.9 3.93 5.62 11.09 9.32 13.87 10.61.7090574.3226098 1.1630578 1.031007 1.16 1.81v15.68h3.0000154l-.0000154-15.68c.0030578-.778993-.4509426-1.4873902-1.16-1.81z" fill="#ffc9cc"/><path id="Shape" d="m26 30v29.0002427c-.2655033.0028699-.5305108-.0239663-.79-.0802427-13.99-2.84-21.57-13.77-23.63-17.17-.37888169-.6240253-.57948172-1.3399599-.58-2.07v-9.68z" fill="#ffe7e8"/><path id="Shape" d="m26 1v29h-25.00001535l.00001535-15.68c-.00305785-.778993.45094256-1.4873902 1.16-1.81 2.78-1.29 9.94-4.99 13.87-10.61.3771892-.55372129 1.0000992-.88942131 1.67-.9z" fill="#ffe0e2"/><path id="Rectangle-path" d="m23 1h3v29h-3z" fill="#ff9ea1"/><path id="Shape" d="m16.03 1.9c-3.93 5.62-11.09 9.32-13.87 10.61-.70905744.3226098-1.16305785 1.031007-1.16 1.81v25.36c.00051828.7300401.20111831 1.4459747.58 2.07 2.06 3.4 9.64 14.33 23.63 17.17.5212331.1069888 1.0587669.1069888 1.58 0 .244-.049.47-.119.71-.174-13.527-3.063-20.9-13.655-22.92-17-.37817843-.6228637-.57875145-1.3373186-.58-2.066v-25.36c-.00305785-.778993.45094256-1.4873902 1.16-1.81 2.78-1.29 9.94-4.99 13.87-10.61.3771892-.55372129 1.0000992-.88942131 1.67-.9h-3c-.6699008.01057869-1.2928108.34627871-1.67.9z" fill="#fff"/><path id="Rectangle-path" d="m0 14.323h2v8h-2z" fill="#fff"/><g fill="#ff414c"><circle id="Oval" cx="1" cy="18.323" r="1"/><path id="Shape" d="m51.276 42.268c.4730157-.7822515.7233594-1.6788551.724-2.593v-25.352c-.0008469-1.1677509-.6776917-2.2294147-1.736-2.723-2.8-1.291-9.705-4.876-13.478-10.271-.5624246-.82182144-1.4902155-1.31781264-2.486-1.329h-16.6c-.9960408.01029686-1.9243841.50601054-2.487 1.328-3.772 5.396-10.682 8.981-13.478 10.272-1.05791831.4938763-1.73433452 1.5554793-1.735 2.723 0 .5522847.44771525 1 1 1s1-.4477153 1-1c-.0038976-.3889673.22080135-.744023.574-.907 2.944-1.359 10.226-5.146 14.28-10.943.1884811-.28566822.5039309-.46203675.846-.473h7.3v3c0 .55228475.4477153 1 1 1s1-.44771525 1-1v-3h7.3c.3430177.01037802.6594598.18725721.848.474 4.053 5.8 11.336 9.583 14.279 10.942.3535891.1626816.5787192.5177999.575.907v14.677h-23.002v-14c0-.5522847-.4477153-1-1-1s-1 .4477153-1 1v14h-11c-.5522847 0-1 .4477153-1 1s.4477153 1 1 1h11v26.841c-13.346-2.893-20.637-13.419-22.563-16.607-.28579506-.4697947-.43696767-1.0091038-.437-1.559v-8.675h2c.55228475 0 1-.4477153 1-1s-.44771525-1-1-1h-2v-6.677c0-.5522847-.44771525-1-1-1s-1 .4477153-1 1v17.352c.00065853.9145931.25136398 1.8115999.725 2.594 2.053 3.397 9.875 14.708 24.283 17.631.323197.0658826.6521569.0993816.982.1h.01.01c.3301711-.0006713.6594575-.0341694.983-.1 14.407-2.923 22.229-14.234 24.283-17.632zm-1.276-11.268v8.675c-.0002723.5494122-.1510638 1.0882498-.436 1.558-1.927 3.189-9.218 13.715-22.564 16.608v-26.841z"/><path id="Shape" d="m4.48 38.815c-.47158266.2872381-.62110421.9023358-.334 1.374.324.533.869 1.382 1.622 2.4.20672838.3011626.56122062.4656419.9246699.4290334.36344928-.0366084.67801913-.2684791.82053494-.6048194s.09029874-.7236277-.13620484-1.010214c-.709-.963-1.22-1.76-1.523-2.258-.2885755-.4701572-.90337824-.6178172-1.374-.33z"/><path id="Shape" d="m9.3 45.306c-.39399535.3869009-.39981519 1.0199205-.013 1.414 2.9412293 3.0406891 6.4273073 5.5020086 10.277 7.256.3261835.145943.7054491.1067831.9949312-.1027286s.4452014-.5575453.4085-.913-.2602477-.6643284-.5864312-.8102714c-3.621845-1.6511686-6.9008382-3.9687851-9.666-6.832-.185971-.1893765-.4396005-.2970507-.7050126-.2993016-.26541222-.0022508-.5208313.1011064-.7099874.2873016z"/><path id="Shape" d="m26 12c.5522847 0 1-.4477153 1-1v-2c0-.55228475-.4477153-1-1-1s-1 .44771525-1 1v2c0 .5522847.4477153 1 1 1z"/><path id="Shape" d="m10 29h-2c-.55228475 0-1 .4477153-1 1s.44771525 1 1 1h2c.5522847 0 1-.4477153 1-1s-.4477153-1-1-1z"/><path id="Shape" d="m43 17c.4043959-.0000863.7689341-.2437275.923678-.6173454.1547439-.373618.0692299-.8036603-.216678-1.0896546l-5-5c-.3923789-.37897221-1.0160848-.37355237-1.4018186.0121814-.3857338.3857338-.3911536 1.0094397-.0121814 1.4018186l5 5c.1874927.1875494.4418052.2929434.707.293z"/><path id="Shape" d="m31.293 11.293c-.3903819.3904999-.3903819 1.0235001 0 1.414l10 10c.3923789.3789722 1.0160848.3735524 1.4018186-.0121814s.3911536-1.0094397.0121814-1.4018186l-10-10c-.3904999-.3903819-1.0235001-.3903819-1.414 0z"/></g></g></g></svg>