<svg height="512" viewBox="0 0 60 60" width="512" xmlns="http://www.w3.org/2000/svg"><g id="Page-1" fill="none" fill-rule="evenodd"><g id="028---World" fill-rule="nonzero"><path id="Shape" d="m50.67 39.48c-1.0133933-.5499234-1.9512102-1.2289163-2.79-2.02-.841482-.8039722-1.3455791-1.8979702-1.41-3.06-.01-2.1 1.83-3.67 3.4-5.08 1.5152852-1.1773478 2.646502-2.7784547 3.25-4.6.46-1.85-.27-4.12-2.06-4.81-.85-.32-1.87-.28-2.55-.9-.95-.85-.65-2.38-.26-3.61-1.1856914-.1878235-2.3817777.2692795-3.14 1.2-.7427788.9177645-1.6394638 1.6994031-2.65 2.31-1.08.48-2.66.1-2.9-1.06-.18-.9.52-1.71 1.09-2.43 1.6894369-2.1766199 2.6044075-4.8546684 2.6-7.61-.1206567-1.16237972-.0360356-2.33692088.25-3.47v-.01c-4.1603232-2.19636498-8.7955113-3.33971139-13.5-3.33-.7880257-.00350398-1.5757168.03321044-2.36.11-.66 2.8-1.22 5.86.11 8.41.73 1.4 2.03 2.6 2.18 4.19.23 2.45-2.32 4.18-3.31 6.44-.63 1.44-.8 3.37-2.25 3.97-1.47.61-3.01-.64-4.59-.85-1.8147083-.1262112-3.4800245 1.0060385-4.03 2.74-.4836977 1.7333172.023284 3.5922502 1.32 4.84 1.3140303 1.2143159 3.0633507 1.845514 4.85 1.75 2.11-.07 4.35-.96 6.25-.02 1.6201966.9794454 2.5282115 2.8071664 2.33 4.69-.2389078 1.8434181-.8332235 3.6229693-1.75 5.24-.82 1.7-1.65 3.41-2.47 5.12-.9 1.86-1.99 3.91-3.97 4.58-.6864964.2777247-1.4648391.2069663-2.09-.19-.6045625-.5894971-.8843644-1.4363641-.75-2.27.1439022-.8216686.1942233-1.6569986.15-2.49-.28-1.67-1.89-2.77-3.48-3.36s-3.31-.88-4.69-1.85c-1.38-.99-2.23-3.03-1.23-4.39.68-.92 1.97-1.24 2.63-2.17.94-1.35.14-3.18-.67-4.61-1.2995144-2.525753-2.91222638-4.8776247-4.8-7-1.17-1.2-2.55-2.28-3.23-3.81-.30680612-.6969517-.47005394-1.4485719-.48-2.21-1.76695756 3.8027604-2.6783698 7.9467846-2.67 12.14.00164154 13.495943 9.3130248 25.2068573 22.4614583 28.2497464 13.1484336 3.0428891 26.6579928-3.3866664 32.5885417-15.5097464-1.8-1.08-3.5933333-2.1666667-5.38-3.26zm-8.6-13.8c-.1916553.6040193-.5361206 1.1482744-1 1.58-.4952906.6122186-1.2668136.9321184-2.05.85-.5998676-.1903571-1.0906264-.6265871-1.35-1.2-.2596891-.5683096-.5780867-1.1079097-.95-1.61-.5-.56-1.27-.94-1.49-1.66-.1374626-.5499575.0673006-1.1288073.52-1.47.466541-.3239299 1.0730733-.3661568 1.58-.11.52.26.87.77 1.4 1 .5572642.1658722 1.1404684.2269052 1.72.18.579298.0235327 1.1121706.3234522 1.4328581.806463.3206876.4830109.3902847 1.0905149.1871419 1.633537z" fill="#ffe0e2"/><path id="Shape" d="m30.5 37.27c-.2389078 1.8434181-.8332235 3.6229693-1.75 5.24-.82 1.7-1.65 3.41-2.47 5.12-.9 1.86-1.99 3.91-3.97 4.58-.6864964.2777247-1.4648391.2069663-2.09-.19-.6045625-.5894971-.8843644-1.4363641-.75-2.27.1439022-.8216686.1942233-1.6569986.15-2.49-.28-1.67-1.89-2.77-3.48-3.36s-3.31-.88-4.69-1.85c-1.38-.99-2.23-3.03-1.23-4.39.68-.92 1.97-1.24 2.63-2.17.94-1.35.14-3.18-.67-4.61-1.2995144-2.525753-2.91222638-4.8776247-4.8-7-1.17-1.2-2.55-2.28-3.23-3.81-.30680612-.6969517-.47005394-1.4485719-.48-2.21 4.36732622-9.51198227 13.5363467-15.91920347 23.97-16.75-.66 2.8-1.22 5.86.11 8.41.73 1.4 2.03 2.6 2.18 4.19.23 2.45-2.32 4.18-3.31 6.44-.63 1.44-.8 3.37-2.25 3.97-1.47.61-3.01-.64-4.59-.85-1.8147083-.1262112-3.4800245 1.0060385-4.03 2.74-.4836977 1.7333172.023284 3.5922502 1.32 4.84 1.3140303 1.2143159 3.0633507 1.845514 4.85 1.75 2.11-.07 4.35-.96 6.25-.02 1.6201966.9794454 2.5282115 2.8071664 2.33 4.69z" fill="#ffe7e8"/><g fill="#ffc9cc"><path id="Shape" d="m17.07 30.85c-1.296716-1.2477498-1.8036977-3.1066828-1.32-4.84.3582362-1.0849536 1.156843-1.9688661 2.2-2.435-.3784064-.1396358-.7701156-.24016-1.169-.3-1.8147083-.1262112-3.4800245 1.0060385-4.03 2.74-.4836977 1.7333172.023284 3.5922502 1.32 4.84 1.3140303 1.2143159 3.0633507 1.845514 4.85 1.75.4567025-.0207089.9119987-.0654374 1.364-.134-1.2074362-.2133792-2.3254752-.7770933-3.215-1.621z"/><path id="Shape" d="m24.543 1.539c-.613 2.682-1.056 5.56.207 7.981.73 1.4 2.03 2.6 2.18 4.19.23 2.45-2.32 4.18-3.31 6.44-.564 1.288-.766 2.961-1.839 3.73.79999.4100836 1.7272603.4960415 2.589.24 1.45-.6 1.62-2.53 2.25-3.97.99-2.26 3.54-3.99 3.31-6.44-.15-1.59-1.45-2.79-2.18-4.19-1.33-2.55-.77-5.61-.11-8.41-1.0393148.08704153-2.0731591.23025083-3.097.429z"/><path id="Shape" d="m28.17 32.58c-1.1939048-.4740861-2.5044522-.570763-3.755-.277.2606271.0657863.5136675.1586236.755.277 1.6201966.9794454 2.5282115 2.8071664 2.33 4.69-.2389078 1.8434181-.8332235 3.6229693-1.75 5.24-.82 1.7-1.65 3.41-2.47 5.12-.776 1.6-1.7 3.346-3.206 4.226.0445948.05816.0933922.1129735.146.164.6251609.3969663 1.4035036.4677247 2.09.19 1.98-.67 3.07-2.72 3.97-4.58.82-1.71 1.65-3.42 2.47-5.12.9167765-1.6170307 1.5110922-3.3965819 1.75-5.24.1982115-1.8828336-.7098034-3.7105546-2.33-4.69z"/></g><path id="Shape" d="m59 30c.005919 4.416616-1.0033984 8.7754982-2.95 12.74-.79-.47-1.57-.95-2.35-1.42-1.01-.61-2.02-1.23-3.03-1.84-1.0133933-.5499234-1.9512102-1.2289163-2.79-2.02-.841482-.8039722-1.3455791-1.8979702-1.41-3.06-.01-2.1 1.83-3.67 3.4-5.08 1.5152852-1.1773478 2.646502-2.7784547 3.25-4.6.186747-.7975891.1730043-1.6290183-.04-2.42-.04-.14-.09-.28-.14-.41-.3191574-.8957392-1.0019879-1.6148905-1.88-1.98-.85-.32-1.87-.28-2.55-.9-.95-.85-.65-2.38-.26-3.61-1.1856914-.1878235-2.3817777.2692795-3.14 1.2-.7427788.9177645-1.6394638 1.6994031-2.65 2.31-1.08.48-2.66.1-2.9-1.06-.18-.9.52-1.71 1.09-2.43 1.6894369-2.1766199 2.6044075-4.8546684 2.6-7.61-.01-.59-.04-1.23-.02-1.84-.0047688-.55484568.0865808-1.10632658.27-1.63v-.01c9.5361176 5.01078152 15.5059301 14.8975613 15.5 25.67z" fill="#ffe7e8"/><path id="Shape" d="m42.07 25.68c-.1916553.6040193-.5361206 1.1482744-1 1.58-.4952906.6122186-1.2668136.9321184-2.05.85-.5998676-.1903571-1.0906264-.6265871-1.35-1.2-.2596891-.5683096-.5780867-1.1079097-.95-1.61-.5-.56-1.27-.94-1.49-1.66-.1374626-.5499575.0673006-1.1288073.52-1.47.466541-.3239299 1.0730733-.3661568 1.58-.11.52.26.87.77 1.4 1 .5572642.1658722 1.1404684.2269052 1.72.18.579298.0235327 1.1121706.3234522 1.4328581.806463.3206876.4830109.3902847 1.0905149.1871419 1.633537z" fill="#ffe7e8"/><path id="Shape" d="m56.05 42.74c-4.8589458 9.9560545-14.9715385 16.2681757-26.05 16.26-.55 0-1.1-.02-1.64-.05 10.5757754-.4795334 20.0452904-6.6966594 24.69-16.21.23-.47.45-.94.65-1.42.78.47 1.56.95 2.35 1.42z" fill="#ff9ea1"/><path id="Shape" d="m43.5 4.33v.01c-.1834192.52367342-.2747688 1.07515432-.27 1.63-.8778986-.59840855-1.7893952-1.14597432-2.73-1.64-3.7056859-1.95558971-7.7949679-3.07519279-11.98-3.28.49-.03.98-.05 1.48-.05 4.7044887-.00971139 9.3396768 1.13363502 13.5 3.33z" fill="#ff9ea1"/><path id="Shape" d="m59 30c.005919 4.416616-1.0033984 8.7754982-2.95 12.74-.79-.47-1.57-.95-2.35-1.42 1.5213755-3.5798767 2.3036969-7.4302588 2.3-11.32.0052379-2.7767324-.3956717-5.5393022-1.19-8.2-.04-.15-.08-.31-.13-.46-1.9619905-6.2741812-5.9998096-11.69438029-11.45-15.37-.0047688-.55484568.0865808-1.10632658.27-1.63v-.01c9.5361176 5.01078152 15.5059301 14.8975613 15.5 25.67z" fill="#ffc9cc"/><path id="Shape" d="m30 59c.537 0 1.069-.017 1.6-.046-15.4352869-.7703666-27.55137603-13.5154974-27.54016551-28.9699926.01121051-15.4544951 12.14577721-28.18203477 27.58216551-28.9300074-.542-.035-1.091-.054-1.642-.054-16.0162576.00000024-28.99999957 12.9837424-28.99999957 29s12.98374197 28.9999998 28.99999957 29z" fill="#fff"/><path id="Shape" d="m3.079 37.624-1.925.544-.514-2c-.129-.681-.216-1.368-.325-2.047l-.155-1.021-.06-1.034-.1-2.066h2l.1 1.929.05.965.147.954c.1.635.182 1.275.3 1.907z" fill="#fff"/><path id="Shape" d="m1.324 34.99c-.55228475.0027614-1.00223858-.4427153-1.005-.995s.44271525-1.0022386.995-1.005h.01c.55228475 0 1 .4477153 1 1s-.44771525 1-1 1z" fill="#ff414c"/><path id="Shape" d="m1 31c.55228475 0 1-.4477153 1-1-.00123276-3.0724369.50560393-6.1239316 1.5-9.031.88653763 1.3391095 1.94942892 2.5526892 3.16 3.608 1.82859208 2.0630382 3.390819 4.3475851 4.65 6.8 2.491 4.387-.393 3.659-1.89 5.69-1.351 1.831-.385 4.486 1.453 5.8 1.525 1.076 3.392 1.407 4.921 1.975.771.285 2.593 1.107 2.834 2.584.0237013.7531393-.0268765 1.5067814-.151 2.25-.211 2.88 1.779 4.285 4.154 3.482 2.3-.779 3.512-2.942 4.553-5.094 2.711-5.649 4.147-7.992 4.31-10.731.113-2.044-.735-4.581-2.883-5.641-2.244-1.116-4.653-.153-6.73-.084-3.6.15-6.007-2.711-5.181-5.3.4140879-1.2652362 1.6199882-2.0999644 2.95-2.042 1.436.185 3.175 1.577 5.1.781 1.936-.812 2.177-3.115 2.777-4.491.929-2.112 3.672-4.012 3.393-6.94-.181-1.9-1.595-3.227-2.286-4.563-1.066-2.041-.728-4.55-.185-7.007 4.7953392-.27257877 9.5795654.70100972 13.887 2.826-.1097349.76646769-.143232 1.54192467-.1 2.315.2 7.122-4.236 7.986-3.654 10.864.367 1.81 2.62 2.517 4.283 1.77 1.821-.808 2.637-2.671 4.079-3.335-.2917841 1.1679992.0458315 2.4036493.891 3.261.928.845 2.107.808 2.866 1.095 1.287.5 1.787 2.282 1.447 3.636-1.005 4-6.7 5.527-6.676 9.928.0602846 1.4186303.66482 2.7594956 1.688 3.744 1.048 1.088 1.843 1.493 7.568 4.965-5.3505612 10.10548-16.3122543 15.9377995-27.6827423 14.7289835-11.3704879-1.2088161-20.86093947-9.2154381-23.9672577-20.2199835-.15022146-.5315741-.70292593-.8407214-1.23449999-.6905-.53157407.1502215-.84072145.7029259-.69050001 1.2345 3.37064499 11.9480597 13.7569664 20.5824373 26.1197011 21.7138824 12.3627348 1.1314452 24.1438285-5.4741568 29.6272989-16.6118824l.006-.008.006-.015c7.1936136-14.6080977 1.4131286-32.2873876-13.021-39.824-.011 0-.018-.014-.029-.019h-.01c-7.2840346-3.79687336-15.8068994-4.4388418-23.577505-1.77593033-7.7706055 2.66291147-14.10830259 8.39745093-17.532495 15.86393033v.01c-1.80790561 3.9184027-2.74345667 8.1826321-2.742 12.498 0 .2652165.10535684.5195704.29289322.7071068s.44189029.2928932.70710678.2928932zm54.606 10.308-4.519-2.741c-1.6-.969-3.6-2.218-3.614-4.175-.016-3.176 5.437-4.734 6.616-9.427.558-2.221-.286-5.069-2.671-5.99-1.7-.649-3.256.037-2.218-3.274.0799089-.2542054.055056-.5297904-.0690433-.7655978-.1240993-.2358075-.3371803-.4123329-.5919567-.4904022-1.322-.4-2.788.109-4.132 1.436-.667211.8254936-1.4622708 1.538853-2.355 2.113-.5.227-1.415.111-1.508-.339-.214-1.049 3.9-3.538 3.692-10.523-.011-.414-.02-.833 0-1.231 12.2202179 7.2115089 17.1069172 22.429043 11.37 35.407zm-29.237-39.065c-1 4.965-.1 6.994 1.417 9.205 1.562 2.27 1.675 2.961-.441 5.743-.9821448 1.1162319-1.7047933 2.4361924-2.116 3.865-.776 2.4-1.168 2.619-3.373 1.787-.6276302-.2638234-1.2841543-.4527922-1.956-.563-2.2901073-.1862684-4.4053545 1.2338505-5.1 3.424-1.24 3.879 2.1 8.068 7.154 7.9 2.131-.071 4.235-.889 5.776-.123 1.2547497.8039714 1.9416619 2.2526963 1.77 3.733-.129 2.162-1.191 3.877-4.116 9.978-.855 1.767-1.821 3.537-3.392 4.068-.3702834.1632438-.7940541.1529794-1.156-.028-.817-.627.02-2.555-.231-4.13-.291-1.773-1.791-3.282-4.114-4.139-1.59-.593-3.242-.873-4.458-1.731-.915-.653-1.645-2.108-1-2.98.862-1.174 5.4-1.906 2.02-7.863-1.3384928-2.6006276-3.0028954-5.0201104-4.953-7.2-1.807-1.868-3.263-2.767-3.4-5.153 4.07893019-8.59712465 12.2358877-14.54215352 21.669-15.793z" fill="#ff414c"/><path id="Shape" d="m35.51 25.541c.4562688.3365513.8061651.7971787 1.008 1.327.3724167 1.0530097 1.212502 1.8735152 2.274 2.221 2.378.549 5.682-3.182 3.832-5.734-.6224139-.8161047-1.6298428-1.242427-2.649-1.121-.824-.006-.824-.012-1.319-.441-.2631353-.2471962-.5576652-.4586795-.876-.629-.8525998-.4562745-1.8943998-.3647931-2.6544331.2330883-.7600334.5978813-1.0942525 1.5888473-.8515669 2.5249117.2383932.6524623.669437 1.2170738 1.236 1.619zm.831-2.562c.557-.4 1.014.568 1.98 1 .6682056.2252511 1.3748449.3140061 2.078.261.649.034.874.568.708 1.177-.18.66-1.269 1.869-1.868 1.724-.407-.094-.761-.827-.935-1.173-.3228007-.7702569-.8395768-1.4437885-1.5-1.955-.2503737-.1694702-.458405-.3942673-.608-.657-.0246583-.1427682.0310276-.2875513.145-.377z" fill="#ff414c"/></g></g></svg>