<svg height="512" viewBox="0 0 61 60" width="512" xmlns="http://www.w3.org/2000/svg"><g id="Page-1" fill="none" fill-rule="evenodd"><g id="029---World-Marker" transform="translate(0 -1)"><path id="Shape" d="m42.07 26.68c-.1916553.6040193-.5361206 1.1482744-1 1.58-.4952906.6122186-1.2668136.9321184-2.05.85-.5998676-.1903571-1.0906264-.6265871-1.35-1.2-.2596891-.5683096-.5780867-1.1079097-.95-1.61-.5-.56-1.27-.94-1.49-1.66-.1374626-.5499575.0673006-1.1288073.52-1.47.466541-.3239299 1.0730733-.3661568 1.58-.11.52.26.87.77 1.4 1 .5572642.1658722 1.1404684.2269052 1.72.18.579298.0235327 1.1121706.3234522 1.4328581.806463.3206876.4830109.3902847 1.0905149.1871419 1.633537z" fill="#ffe7e8" fill-rule="nonzero"/><path id="Shape" d="m42.355 59.133c.1884804.2218509.464894.3497166.756.3497166s.5675196-.1278657.756-.3497166c3.158-3.687 15.133-18.325 15.133-28.294 0-8.19-7.12-14.839-15.889-14.839s-15.889 6.649-15.889 14.839c0 9.969 11.978 24.607 15.133 28.294z" fill="#ffe7e8"/><path id="Shape" d="m43.111 16c-.506 0-1.006.027-1.5.071 8.066.707 14.389 7.051 14.389 14.768 0 9.306-10.432 22.676-14.389 27.413.282.338.534.635.744.881.1884804.2218509.464894.3497166.756.3497166s.5675196-.1278657.756-.3497166c3.158-3.687 15.133-18.325 15.133-28.294 0-8.19-7.12-14.839-15.889-14.839z" fill="#ffc9cc"/><g fill-rule="nonzero"><circle id="Oval" cx="43" cy="32" fill="#ffe0e2" r="7"/><path id="Shape" d="m43 25c-.5044849.0007873-1.0074065.0561087-1.5.165 3.2064126.7087816 5.4891145 3.5511831 5.4891145 6.835s-2.2827019 6.1262184-5.4891145 6.835c2.6211486.579393 5.3427728-.3912156 7.0057888-2.4984637 1.663016-2.107248 1.9744743-4.9799318.8017312-7.3946348-1.172743-2.4147029-3.6231022-3.9460614-6.30752-3.9419015z" fill="#ff9ea1"/><path id="Shape" d="m41.2 57.75c-8.9521133 3.7481811-19.1857341 2.7698239-27.2655104-2.6066442-8.07977633-5.376468-12.93450524-14.438244-12.9344896-24.1433558-.0083698-4.1932154.90304244-8.3372396 2.67-12.14.00994606.7614281.17319388 1.5130483.48 2.21.68 1.53 2.06 2.61 3.23 3.81 1.88777362 2.1223753 3.5004856 4.474247 4.8 7 .81 1.43 1.61 3.26.67 4.61-.66.93-1.95 1.25-2.63 2.17-1 1.36-.15 3.4 1.23 4.39 1.38.97 3.11 1.26 4.69 1.85s3.2 1.69 3.48 3.36c.0442233.8330014-.0060978 1.6683314-.15 2.49-.1343644.8336359.1454375 1.6805029.75 2.27.6251609.3969663 1.4035036.4677247 2.09.19 1.98-.67 3.07-2.72 3.97-4.58.82-1.71 1.65-3.42 2.47-5.12.4531931-.8925247.8538752-1.8107546 1.2-2.75 3.2 6.81 8.44 13.59 11.25 16.99z" fill="#ffe0e2"/><path id="Shape" d="m29.95 40.76c-.3461248.9392454-.7468069 1.8574753-1.2 2.75l-.186.386c2.8018524 4.8901632 6.0261439 9.525835 9.636 13.854-3.0801727 1.2955703-6.3626686 2.0441147-9.7 2.212.4966667.0253333.9966667.038 1.5.038 3.8461574.0057599 7.6544701-.7593029 11.2-2.25-2.81-3.4-8.05-10.18-11.25-16.99z" fill="#ff9ea1"/><path id="Shape" d="m29.95 40.75v.01c-.3461248.9392454-.7468069 1.8574753-1.2 2.75-.82 1.7-1.65 3.41-2.47 5.12-.9 1.86-1.99 3.91-3.97 4.58-.6864964.2777247-1.4648391.2069663-2.09-.19-.6045625-.5894971-.8843644-1.4363641-.75-2.27.1439022-.8216686.1942233-1.6569986.15-2.49-.28-1.67-1.89-2.77-3.48-3.36s-3.31-.88-4.69-1.85c-1.38-.99-2.23-3.03-1.23-4.39.68-.92 1.97-1.24 2.63-2.17.94-1.35.14-3.18-.67-4.61-1.2995144-2.525753-2.91222638-4.8776247-4.8-7-1.17-1.2-2.55-2.28-3.23-3.81-.30680612-.6969517-.47005394-1.4485719-.48-2.21 4.2440687-9.24449463 13.0368369-15.57604738 23.15-16.67-.51 2.45-.76 5.03.38 7.22.73 1.4 2.03 2.6 2.18 4.19.23 2.45-2.32 4.18-3.31 6.44-.63 1.44-.8 3.37-2.25 3.97-1.47.61-3.01-.64-4.59-.85-1.8147083-.1262112-3.4800245 1.0060385-4.03 2.74-.4836977 1.7333172.023284 3.5922502 1.32 4.84 1.3140303 1.2143159 3.0633507 1.845514 4.85 1.75 2-.07 4.11-.87 5.94-.14.4126589 2.925996 1.3046052 5.7640067 2.64 8.4z" fill="#ffe7e8"/><path id="Shape" d="m23.721 2.708c-.435 2.292-.581 4.665.479 6.702.73 1.4 2.03 2.6 2.18 4.19.23 2.45-2.32 4.18-3.31 6.44-.564 1.288-.766 2.961-1.839 3.73.79999.4100836 1.7272603.4960415 2.589.24 1.45-.6 1.62-2.53 2.25-3.97.99-2.26 3.54-3.99 3.31-6.44-.15-1.59-1.45-2.79-2.18-4.19-1.14-2.19-.89-4.77-.38-7.22-1.0417414.11553414-2.0763141.28846368-3.099.518z" fill="#ffc9cc"/><path id="Shape" d="m27.31 32.35c-1.1333713-.3559765-2.3404753-.4073647-3.5-.149.1698938.0381133.3369568.087898.5.149.4126589 2.925996 1.3046052 5.7640067 2.64 8.4v.01c-.3461248.9392454-.7468069 1.8574753-1.2 2.75-.82 1.7-1.65 3.41-2.47 5.12-.776 1.6-1.7 3.346-3.206 4.226.0445948.05816.0933922.1129735.146.164.6251609.3969663 1.4035036.4677247 2.09.19 1.98-.67 3.07-2.72 3.97-4.58.82-1.71 1.65-3.42 2.47-5.12.4531931-.8925247.8538752-1.8107546 1.2-2.75v-.01c-1.3353948-2.6359933-2.2273411-5.474004-2.64-8.4z" fill="#ffc9cc"/><path id="Shape" d="m16.52 30.74c-1.296716-1.2477498-1.8036977-3.1066828-1.32-4.84.3582362-1.0849536 1.156843-1.9688661 2.2-2.435-.3784064-.1396358-.7701156-.24016-1.169-.3-1.8136877-.1273146-3.479084 1.002643-4.031 2.735-.4836977 1.7333172.023284 3.5922502 1.32 4.84 1.3140303 1.2143159 3.0633507 1.845514 4.85 1.75.4559668-.0217029.9105461-.0664265 1.362-.134-1.2057698-.212639-2.3226023-.7745323-3.212-1.616z" fill="#ffc9cc"/><path id="Shape" d="m43.5 5.34c-.2860356 1.13307912-.3706567 2.30762028-.25 3.47.0034246 2.6400338-.8375365 5.2119732-2.4 7.34-7.7 1.02-13.63 7.22-13.63 14.69.0009636.5046444.0310135 1.0088139.09 1.51-1.83-.73-3.94.07-5.94.14-1.7866493.095514-3.5359697-.5356841-4.85-1.75-1.296716-1.2477498-1.8036977-3.1066828-1.32-4.84.5499755-1.7339615 2.2152917-2.8662112 4.03-2.74 1.58.21 3.12 1.46 4.59.85 1.45-.6 1.62-2.53 2.25-3.97.99-2.26 3.54-3.99 3.31-6.44-.15-1.59-1.45-2.79-2.18-4.19-1.14-2.19-.89-4.77-.38-7.22.27-.03.55-.06.82-.08.7842832-.07678956 1.5719743-.11350398 2.36-.11 4.7044887-.00971139 9.3396768 1.13363502 13.5 3.33z" fill="#ffe0e2"/><path id="Shape" d="m43.5 5.33c-4.1603232-2.19636498-8.7955113-3.33971139-13.5-3.33-.5 0-.99.018-1.483.047 4.1860775.20658924 8.276168 1.3271573 11.983 3.283v.01c-.2860356 1.13307912-.3706567 2.30762028-.25 3.47.0034246 2.6400338-.8375365 5.2119732-2.4 7.34-7.7 1.02-13.63 7.22-13.63 14.69 0 .42.033.853.077 1.294 1.0064171-.1843602 2.0431729-.1100359 3.013.216-.0589865-.5011861-.0890364-1.0053556-.09-1.51 0-7.47 5.93-13.67 13.63-14.69 1.5624635-2.1280268 2.4034246-4.6999662 2.4-7.34-.1206567-1.16237972-.0360356-2.33692088.25-3.47z" fill="#ff9ea1"/><path id="Shape" d="m58.98 30.08c-.43-7.84-7.37-14.08-15.87-14.08-.7558478-.0008331-1.5108924.0492805-2.26.15 1.5624635-2.1280268 2.4034246-4.6999662 2.4-7.34-.1206567-1.16237972-.0360356-2.33692088.25-3.47v-.01c9.2442265 4.8563652 15.1587469 14.3127206 15.48 24.75z" fill="#ffe7e8"/><path id="Shape" d="m53.761 19.848c3.0791954 2.5426524 4.9684338 6.2465587 5.219 10.232-.3212531-10.4372794-6.2357735-19.8936348-15.48-24.75v.01c-.1796768.52810159-.2712332 1.08216938-.271 1.64 4.6903196 3.1705949 8.3511967 7.6434553 10.532 12.868z" fill="#ffc9cc"/><path id="Shape" d="m59 31v-.16c0-.26-.01-.51-.02-.76" fill="#ffe7e8"/><path id="Shape" d="m28.5 59.962c.9788199.0470271 1.9593804.0450246 2.938-.006-15.2295732-.8198264-27.21990264-13.2990036-27.43080974-28.5491687-.2109071-15.250165 11.42973284-28.0561544 26.63080974-29.2968313.4-.041.806-.068 1.208-.09-1.4028198-.08240307-2.8099863-.05230683-4.208.09-15.2158792 1.23895734-26.86424915 14.06477-26.63680609 29.3293127.22744306 15.2645428 12.25276869 27.7376153 27.49880609 28.5226873z" fill="#fff"/><path id="Shape" d="m3.078 38.624-1.924.544-.515-2c-.128-.681-.216-1.368-.325-2.047l-.154-1.021-.06-1.034-.1-2.066h2l.1 1.929.05.965.147.954c.1.635.182 1.275.3 1.907z" fill="#fff"/><path id="Shape" d="m1.324 35.99c-.55228475.0027614-1.00223858-.4427153-1.005-.995s.44271525-1.0022386.995-1.005h.01c.55228475 0 1 .4477153 1 1s-.44771525 1-1 1z" fill="#ff414c"/><path id="Shape" d="m1 32c.55228475 0 1-.4477153 1-1-.00680667-3.0771372.50016206-6.1338207 1.5-9.044.88077502 1.3467607 1.94426008 2.5647204 3.16 3.619 1.82625119 2.0648634 3.388269 4.3491045 4.65 6.8 2.491 4.394-.382 3.651-1.9 5.695-1.349 1.833-.381 4.478 1.461 5.8 1.526 1.072 3.39 1.4 4.917 1.969.771.287 2.6 1.113 2.841 2.579.0192408.7573843-.0343388 1.5148652-.16 2.262-.207 2.868 1.779 4.273 4.157 3.479 2.3-.779 3.51-2.942 4.552-5.095.754-1.572 2.286-4.733 2.841-5.911 2.7288183 5.0098209 5.9196814 9.7537649 9.531 14.17-7.3094804 2.6472663-15.3905328 2.1364526-22.3084909-1.4101483-6.9179581-3.546601-12.05001228-9.809696-14.1675091-17.2898517-.16018297-.5188009-.70508711-.8149902-1.22757067-.667261-.52248356.1477293-.83162032.6853937-.69642933 1.211261 2.30077221 8.1321192 7.92628825 14.9158198 15.4921883 18.6817291 7.5659 3.7659092 16.3696645 4.1643497 24.2448117 1.0972709.26.311.5.593.709.837.3784674.443664.9323402.6992031 1.5155.6992031s1.1370326-.2555391 1.5155-.6992031c17.002-19.847 15.373-29.978 15.373-28.944-.0675137-11.0813665-6.2299183-21.22571533-16.033-26.393-19.873-10.503-43.967 4.009-43.967 26.554 0 .5522847.44771525 1 1 1zm42.117 26.485c-2.487-2.9-14.892-17.88-14.892-27.643-.002-7.634 6.675-13.842 14.886-13.842s14.889 6.208 14.889 13.838c0 8.462-9.4 21.214-14.883 27.647zm12.866-37.876c-3.394413-3.703456-8.2336441-5.7446587-13.255-5.591 1.916-3.67 1.437-6.579 1.5-8.12 5.3240607 3.1478592 9.4571319 7.9686623 11.755 13.711zm-13.649-14.738c-.1173425.97641148-.1454588 1.96148512-.084 2.943.0008987 2.2956662-.6943582 4.5376429-1.994 6.43-7.955 1.279-14.033 7.776-14.033 15.6 0 .551.5-.093-3.036.441-.6122273.1049321-1.2298677.1753765-1.85.211-3.7.116-6-2.752-5.182-5.3.4069886-1.2686724 1.6140827-2.1068752 2.945-2.045 1.429.19 3.183 1.579 5.1.783 1.941-.8 2.18-3.113 2.784-4.493.931-2.126 3.664-4 3.39-6.935-.354-3.735-3.985-3.435-2.717-10.393 5.0528498-.44743388 10.1312468.50686324 14.677 2.758zm-16.74-2.5c-.457245 2.18801669-.2053962 4.46481409.719 6.5.2760397.5050895.5829551.992681.919 1.46 1.57 2.276 1.674 2.972-.433 5.741-.9833997 1.1197005-1.7064043 2.4434444-2.117 3.876-.778 2.4-1.18 2.611-3.386 1.78-.6245205-.2616297-1.2771828-.4502139-1.945-.562-2.2918349-.1893364-4.409318 1.2335292-5.1 3.427-1.2 3.724 1.872 7.9 6.869 7.9 1.846 0 3.734-.666 5.294-.349.461489 2.6468845 1.2859275 5.2174499 2.45 7.639-.425 1.122-1 2.257-1.8 3.922-1.928 3.987-2.98 6.848-5.068 7.554-.3731247.1633213-.7997366.1512162-1.163-.033-.3251448-.3908131-.4583185-.906632-.363-1.406.1597445-.8999981.2064393-1.8164262.139-2.728-.405-2.415-2.754-3.625-4.117-4.131-2.325-.868-5.292-1.187-5.681-3.632-.269-1.705 1.729-1.672 2.862-3.269 1.432-2.055-.06-4.685-.62-5.675-1.4849949-2.9640151-3.43614803-5.6704425-5.779-8.016-1.494-1.442-2.453-2.4-2.577-4.324 3.9509142-8.3539616 11.7709632-14.21909186 20.897-15.673z" fill="#ff414c"/><path id="Shape" d="m36 23.158c.2006656.0004784.3967102-.0602187.562-.174 1.9325893-1.3074394 4.2157468-1.9991152 6.549-1.984.5522847 0 1-.4477153 1-1s-.4477153-1-1-1c-2.7348561-.0158289-5.4103513.7972092-7.674 2.332-.3622376.2471941-.5211509.7015608-.3919393 1.1206376.1292115.4190769.5163952.7050687.9549393.7053624z" fill="#ff414c"/><path id="Shape" d="m32.377 26.077c-.2449181-.1020714-.5203616-.1026212-.7656852-.0015283-.2453236.1010928-.4404131.2955396-.5423148.5405283-.5590908 1.3376867-.8466646 2.7731766-.846 4.223 0 .5522847.4477153 1 1 1s1-.4477153 1-1c-.0004515-1.1861332.2347689-2.3605358.692-3.455.212009-.5094834-.0287615-1.0944035-.538-1.307z" fill="#ff414c"/><path id="Shape" d="m43 24c-1.1866442-.0031028-2.3588305.2603828-3.43.771-.4987131.2374825-.7104824.8342869-.473 1.333.2374825.4987131.8342869.7104824 1.333.473.8026128-.3824659 1.6809216-.5796582 2.57-.577 2.6705118.0007785 5.0190765 1.76645 5.7616354 4.3316479.7425589 2.565198-.2996422 5.312409-2.5567883 6.739618-2.2571462 1.4272089-5.1858806 1.1908475-7.1849415-.5798555-1.999061-1.7707031-2.5872199-4.6494912-1.4429056-7.0624104.1633524-.3240088.1383723-.7110822-.065272-1.0114066s-.5539951-.4667701-.9154519-.4349157-.6772966.2570101-.8252761.5883223c-.5104063 1.0708874-.7738849 2.2427006-.771 3.429 0 4.418278 3.581722 8 8 8s8-3.581722 8-8-3.581722-8-8-8z" fill="#ff414c"/></g></g></g></svg>