<svg height="512" viewBox="0 0 60 55" width="512" xmlns="http://www.w3.org/2000/svg"><g id="Page-1" fill="none" fill-rule="evenodd"><g id="030---Television" fill-rule="nonzero"><path id="Shape" d="m59 25c.0085086 5.9422505-.439476 11.8763751-1.34 17.75-.4218622 2.6506951-2.5624242 4.6930287-5.23 4.99-1.47.16-3.21.34-5.16.51-4.68.41-10.64.75-17.27.75s-12.59-.34-17.27-.75c-1.95-.17-3.69-.35-5.16-.51-2.66757577-.2969713-4.80813777-2.3393049-5.23-4.99-.900524-5.8736249-1.34850862-11.8077495-1.34-17.75-.00850862-5.9422505.439476-11.8763751 1.34-17.75.42186223-2.65069514 2.56242423-4.69302868 5.23-4.99 14.9061466-1.67999832 29.9538534-1.67999832 44.86 0 2.6675758.29697132 4.8081378 2.33930486 5.23 4.99.900524 5.8736249 1.3485086 11.8077495 1.34 17.75z" fill="#ffe7e8"/><path id="Shape" d="m57.66 7.25c-.4218622-2.65069514-2.5624242-4.69302868-5.23-4.99-7.4475567-.83513719-14.9357664-1.25578562-22.43-1.26-.5 0-1 0-1.5.007 6.9936172.05613023 13.9796369.47435683 20.93 1.253 2.6675758.29697132 4.8081378 2.33930486 5.23 4.99.900524 5.8736249 1.3485086 11.8077495 1.34 17.75.0085086 5.9422505-.439476 11.8763751-1.34 17.75-.4218622 2.6506951-2.5624242 4.6930287-5.23 4.99-1.47.16-3.21.34-5.16.51-4.322.379-9.744.694-15.77.741.5 0 .993.009 1.5.009 6.63 0 12.59-.34 17.27-.75 1.95-.17 3.69-.35 5.16-.51 2.6675758-.2969713 4.8081378-2.3393049 5.23-4.99.900524-5.8736249 1.3485086-11.8077495 1.34-17.75.0085086-5.9422505-.439476-11.8763751-1.34-17.75z" fill="#ffc9cc"/><path id="Shape" d="m36.949 42.268c2.3557596-.2603289 4.2076421-2.1343172 4.44-4.493.4-4.122.611-8.4.611-12.775s-.212-8.653-.611-12.775c-.2323579-2.35868277-2.0842404-4.23267108-4.44-4.493-8.9401-.97614485-17.9599-.97614485-26.9 0-2.35575963.26032892-4.20764213 2.13431723-4.44 4.493-.397 4.122-.609 8.397-.609 12.775s.212 8.653.611 12.775c.23235787 2.3586828 2.08424037 4.2326711 4.44 4.493 4.4661027.4914398 8.9559418.735812 13.449.732 4.4930582.003812 8.9828973-.2405602 13.449-.732z" fill="#ffe0e2"/><path id="Shape" d="m41.389 12.224c-.232888-2.35862648-2.0851864-4.23219644-4.441-4.492-4.4657658-.49146798-8.9552736-.73584036-13.448-.732-.5 0-1 .014-1.5.02 4.1.049 8.1.284 11.948.712 2.3558136.25980356 4.208112 2.13337352 4.441 4.492.4 4.123.611 8.4.611 12.776s-.212 8.653-.611 12.775c-.2324439 2.3590155-2.0848501 4.2331116-4.441 4.493-3.848.432-7.848.663-11.948.712.5.006 1 .02 1.5.02 4.4927264.0038404 8.9822342-.240532 13.448-.732 2.3561499-.2598884 4.2085561-2.1339845 4.441-4.493.4-4.122.611-8.4.611-12.775s-.212-8.653-.611-12.776z" fill="#ff9ea1"/><path id="Shape" d="m47.27 48.25c-2.18 3.32-9.09 5.75-17.27 5.75s-15.09-2.43-17.27-5.75c4.68.41 10.64.75 17.27.75s12.59-.34 17.27-.75z" fill="#ffe0e2"/><circle id="Oval" cx="50" cy="14" fill="#ffe7e8" r="4"/><path id="Shape" d="m2.34 7.25c-1.78727268 11.7658472-1.78727268 23.7341528 0 35.5.42186223 2.6506951 2.56242423 4.6930287 5.23 4.99 1.47.16 3.21.34 5.16.51 2.18 3.32 9.09 5.75 17.27 5.75.5053333 0 1.0053333-.0093333 1.5-.028-7.515-.276-13.725-2.607-15.77-5.722-1.95-.17-3.69-.35-5.16-.51-2.66757577-.2969713-4.80813777-2.3393049-5.23-4.99-1.78727268-11.7658472-1.78727268-23.7341528 0-35.5.42186223-2.65069514 2.56242423-4.69302868 5.23-4.99 6.9516971-.78039094 13.9397694-1.19296593 20.935-1.236-7.9959042-.06852608-15.9886859.34422003-23.935 1.236-2.66757577.29697132-4.80813777 2.33930486-5.23 4.99z" fill="#fff"/><path id="Shape" d="m2.261 32.928-1.995.133c-.17733333-2.684-.266-5.371-.266-8.061h2c0 2.6453333.087 5.288.261 7.928z" fill="#fff"/><g fill="#ff414c"><path id="Shape" d="m1.086 30c-.55228473.0027614-1.00223852-.4427153-1.00499994-.995-.00276143-.5522847.44271521-1.0022385.99499994-1.005h.01c.55228473 0 .99999994.4477153.99999994 1s-.44771521 1-.99999994 1z"/><path id="Shape" d="m1 26c.55228475 0 1-.4477153 1-1-.00934787-5.8919287.43362019-11.7758818 1.325-17.6.35609371-2.20327404 2.13777296-3.89865065 4.356-4.145 14.8322876-1.6733313 29.8057124-1.6733313 44.638 0 2.218227.24634935 3.9999063 1.94172596 4.356 4.145.8913798 5.8241182 1.3343479 11.7080713 1.325 17.6.0093479 5.8919287-.4336202 11.7758818-1.325 17.6-.3564998 2.2028828-2.1380841 3.8977601-4.356 4.144-7.4107187.8310436-14.8618321 1.2503545-22.319 1.256-7.4571494-.0053135-14.9082628-.4242905-22.319-1.255-2.21822704-.2463494-3.99990629-1.941726-4.356-4.145-.49466667-3.204-.849-6.4273333-1.063-9.67-.01547937-.3626359-.22624041-.6884124-.55066735-.8511747s-.71157596-.1369523-1.01152625.0674351c-.29995029.2043875-.46560152.5552581-.4328064.9167396.222 3.2913333.58233333 6.5726667 1.081 9.844.4952107 3.0934998 2.9935596 5.4764837 6.107 5.825 1.376.156 2.973.32 4.747.477 2.69 3.479 9.719 5.791 17.798 5.791s15.108-2.312 17.8-5.791c1.774-.157 3.371-.321 4.747-.477 3.1134404-.3485163 5.6117893-2.7315002 6.107-5.825.9065234-5.9257295 1.3565138-11.9123404 1.346-17.907.009521-5.9947366-.4414724-11.981348-1.349-17.907-.4952107-3.09349982-2.9935596-5.47648366-6.107-5.825-14.9817871-1.69066595-30.1062129-1.69066595-45.088 0-3.1134404.34851634-5.6117893 2.73150018-6.107 5.825-.90752764 5.925652-1.35852104 11.9122634-1.349 17.907 0 .5522847.44771525 1 1 1zm29 27c-6.089 0-11.614-1.391-14.642-3.538 4.224.307 9.2.538 14.642.538s10.418-.231 14.642-.538c-3.028 2.147-8.553 3.538-14.642 3.538z"/><path id="Shape" d="m9.941 43.261c4.502633.4955482 9.0291809.7422566 13.559.739 4.5298191.0032566 9.056367-.2434518 13.559-.739 2.8215177-.3203996 5.0383307-2.563856 5.325-5.389.409-4.219.616-8.55.616-12.872s-.207-8.653-.616-12.872c-.2866693-2.825144-2.5034823-5.06860036-5.325-5.389-9.0127174-.98100016-18.1052826-.98100016-27.118 0-2.82151767.32039964-5.03833065 2.563856-5.325 5.389-.409 4.219-.616 8.55-.616 12.872s.207 8.653.616 12.872c.28666935 2.825144 2.50348233 5.0686004 5.325 5.389zm-3.335-30.94c.19291454-1.8852386 1.67297767-3.38153418 3.556-3.595 8.8656553-.96800164 17.8103447-.96800164 26.676 0 1.8830223.21346582 3.3630855 1.7097614 3.556 3.595.406 4.155.606 8.421.606 12.679s-.2 8.524-.606 12.679c-.1929145 1.8852386-1.6729777 3.3815342-3.556 3.595-8.8658727.9640008-17.8101273.9640008-26.676 0-1.88302233-.2134658-3.36308546-1.7097614-3.556-3.595-.406-4.155-.606-8.421-.606-12.679s.2-8.524.606-12.679z"/><path id="Shape" d="m50 19c2.7614237 0 5-2.2385763 5-5s-2.2385763-5-5-5-5 2.2385763-5 5c.0033061 2.7600532 2.2399468 4.9966939 5 5zm0-8c1.6568542 0 3 1.3431458 3 3s-1.3431458 3-3 3-3-1.3431458-3-3 1.3431458-3 3-3z"/><path id="Shape" d="m46 24h8c.5522847 0 1-.4477153 1-1s-.4477153-1-1-1h-8c-.5522847 0-1 .4477153-1 1s.4477153 1 1 1z"/><path id="Shape" d="m46 28h8c.5522847 0 1-.4477153 1-1s-.4477153-1-1-1h-8c-.5522847 0-1 .4477153-1 1s.4477153 1 1 1z"/><path id="Shape" d="m46 32h8c.5522847 0 1-.4477153 1-1s-.4477153-1-1-1h-8c-.5522847 0-1 .4477153-1 1s.4477153 1 1 1z"/><path id="Shape" d="m48 34c-.5522847 0-1 .4477153-1 1s.4477153 1 1 1h4c.5522847 0 1-.4477153 1-1s-.4477153-1-1-1z"/><path id="Shape" d="m11 14h1c.5522847 0 1-.4477153 1-1s-.4477153-1-1-1h-1c-.5522847 0-1 .4477153-1 1s.4477153 1 1 1z"/><path id="Shape" d="m16 14h12c.5522847 0 1-.4477153 1-1s-.4477153-1-1-1h-12c-.5522847 0-1 .4477153-1 1s.4477153 1 1 1z"/></g></g></g></svg>