<svg height="512" viewBox="0 0 60 57" width="512" xmlns="http://www.w3.org/2000/svg"><g id="Page-1" fill="none" fill-rule="evenodd"><g id="031---Like" fill-rule="nonzero"><rect id="Rectangle-path" fill="#ffe0e2" height="32" rx="4" width="18" x="1" y="24"/><path id="Shape" d="m15 24h-3c2.209139 0 4 1.790861 4 4v24c0 2.209139-1.790861 4-4 4h3c2.209139 0 4-1.790861 4-4v-24c0-2.209139-1.790861-4-4-4z" fill="#ff9ea1"/><circle id="Oval" cx="10" cy="30" fill="#ffe7e8" r="2"/><path id="Shape" d="m55 32h-2c2.209139 0 4 1.790861 4 4s-1.790861 4-4 4h-2c2.209139 0 4 1.790861 4 4s-1.790861 4-4 4h-3c2.209139 0 4 1.790861 4 4s-1.790861 4-4 4h-16c-4.418278 0-8-3.581722-8-8v-21.42c-.001341-1.6227076.5606457-3.1955633 1.59-4.45 2.59-3.13 7.41-9.47 7.41-13.13v-5.1c-.0016352-.57499218.2442824-1.1228727.6749878-1.50380774.4307055-.38093504 1.0045278-.5580689 1.5750122-.48619226 2.37.28 5.75 1.94 5.75 9.09-.1008866 2.5177676-.6848143 4.9926706-1.72 7.29-.5855243 1.2381782-.4968252 2.6898546.2350889 3.8475358.731914 1.1576811 2.005269 1.8603895 3.3749111 1.8624642h12.11c2.209139 0 4 1.790861 4 4s-1.790861 4-4 4z" fill="#ffe7e8"/><path id="Shape" d="m49 52c.0013291 1.0612728-.4196715 2.0794609-1.1701053 2.8298947s-1.7686219 1.1714344-2.8298947 1.1701084l3-.0000031c2.209139 0 4-1.790861 4-4s-1.790861-4-4-4h-3c2.209139 0 4 1.790861 4 4z" fill="#ffc9cc"/><path id="Shape" d="m38 11c-.1008866 2.5177676-.6848143 4.9926706-1.72 7.29-.5855243 1.2381782-.4968252 2.6898546.2350889 3.8475358.731914 1.1576811 2.005269 1.8603895 3.3749111 1.8624642h3c-1.3696421-.0020747-2.6429971-.7047831-3.3749111-1.8624642-.7319141-1.1576812-.8206132-2.6093576-.2350889-3.8475358 1.0351857-2.2973294 1.6191134-4.7722324 1.72-7.29 0-7.15-3.38-8.81-5.75-9.09-.5136602-.0638982-1.0318672.07651686-1.443.391 2.063.813 4.193 3.023 4.193 8.699z" fill="#ffc9cc"/><path id="Shape" d="m57.83 30.83c1.1453208-1.1440463 1.4881603-2.8656305.8684897-4.3611605-.6196705-1.49553-2.079663-2.4701135-3.6984897-2.4688395h-3c2.209139 0 4 1.790861 4 4s-1.790861 4-4 4h-2c2.209139 0 4 1.790861 4 4s-1.790861 4-4 4h-2c2.209139 0 4 1.790861 4 4s-1.790861 4-4 4h3c2.209139 0 4-1.790861 4-4s-1.790861-4-4-4h2c2.209139 0 4-1.790861 4-4s-1.790861-4-4-4h2c1.0606427-.0018942 2.0776689-.4223608 2.83-1.17z" fill="#ffc9cc"/><path id="Shape" d="m5 56h3c-2.209139 0-4-1.790861-4-4v-24c0-2.209139 1.790861-4 4-4h-3c-2.209139 0-4 1.790861-4 4v24c0 2.209139 1.790861 4 4 4z" fill="#fff"/><path id="Rectangle-path" d="m0 28h2v8h-2z" fill="#fff"/><g fill="#ff414c"><circle id="Oval" cx="1" cy="32" r="1"/><path id="Shape" d="m5 57h10c2.7600532-.0033061 4.9966939-2.2399468 5-5v-24c-.0033061-2.7600532-2.2399468-4.9966939-5-5h-10c-2.76005315.0033061-4.99669388 2.2399468-5 5 0 .5522847.44771525 1 1 1s1-.4477153 1-1c0-1.6568542 1.34314575-3 3-3h10c1.6568542 0 3 1.3431458 3 3v24c0 1.6568542-1.3431458 3-3 3h-10c-1.65685425 0-3-1.3431458-3-3v-16c0-.5522847-.44771525-1-1-1s-1 .4477153-1 1v16c.00330612 2.7600532 2.23994685 4.9966939 5 5z"/><path id="Shape" d="m13 30c0-1.6568542-1.3431458-3-3-3-1.65685425 0-3 1.3431458-3 3s1.34314575 3 3 3c1.6568542 0 3-1.3431458 3-3zm-4 0c0-.5522847.44771525-1 1-1 .5522847 0 1 .4477153 1 1s-.4477153 1-1 1c-.55228475 0-1-.4477153-1-1z"/><path id="Shape" d="m5 47c.55228475 0 1-.4477153 1-1v-6c0-.5522847-.44771525-1-1-1s-1 .4477153-1 1v6c0 .5522847.44771525 1 1 1z"/><path id="Shape" d="m4 51c0 .5522847.44771525 1 1 1s1-.4477153 1-1v-1c0-.5522847-.44771525-1-1-1s-1 .4477153-1 1z"/><path id="Shape" d="m44 39h-1c-.5522847 0-1 .4477153-1 1s.4477153 1 1 1h1c.5522847 0 1-.4477153 1-1s-.4477153-1-1-1z"/><path id="Shape" d="m45 31h-1c-.5522847 0-1 .4477153-1 1s.4477153 1 1 1h1c.5522847 0 1-.4477153 1-1s-.4477153-1-1-1z"/><path id="Shape" d="m60 28c-.0033061-2.7600532-2.2399468-4.9966939-5-5h-12.112c-1.0102428.0110511-1.9542225-.5016112-2.495-1.355-.5662313-.8816206-.6438907-1.9910942-.206-2.943 1.0985948-2.425295 1.7143887-5.0413154 1.813-7.702 0-8.084-4.154-9.789-6.631-10.085-.8547655-.10594354-1.7138342.16060798-2.3585.73179451-.6446658.57118654-1.012734 1.39190237-1.0105 2.25320549v5.1c0 2.409-2.616 6.963-7.177 12.5-1.1769658 1.4311083-1.8212327 3.226079-1.823 5.079v21.421c.006061 4.9680501 4.0319499 8.993939 9 9h16c1.9132221-.0008596 3.6582165-1.0934114 4.4946323-2.8141172.8364157-1.7207057.6175914-3.7678478-.5636323-5.2728828 1.7665204-.3355711 3.2168132-1.593837 3.7982547-3.2953446s.2044767-3.5841865-.9872547-4.9306554c1.5447781-.5749171 2.7069654-1.8742373 3.1067351-3.4733162.3997698-1.5990789-.0142448-3.2924496-1.1067351-4.5266838 1.9574131-.7297118 3.2560833-2.597995 3.258-4.687zm-5 3h-6c-.5522847 0-1 .4477153-1 1s.4477153 1 1 1h4c1.6568542 0 3 1.3431458 3 3s-1.3431458 3-3 3h-5c-.5522847 0-1 .4477153-1 1s.4477153 1 1 1h3c1.6568542 0 3 1.3431458 3 3s-1.3431458 3-3 3h-7c-.5522847 0-1 .4477153-1 1s.4477153 1 1 1h4c1.6568542 0 3 1.3431458 3 3s-1.3431458 3-3 3h-16c-3.8641657-.0044086-6.9955914-3.1358343-7-7v-21.421c.0000706-1.3902247.482905-2.7372831 1.366-3.811 3.483-4.224 7.634-10.041 7.634-13.768v-5.1c-.002026-.28610283.1201969-.55900644.335-.748.1841436-.16488219.422827-.2557244.67-.255.042 0 .084 0 .127.007 3.184.378 4.868 3.179 4.868 8.096-.1018227 2.3755733-.6567802 4.7097893-1.635 6.877-.7201221 1.5705369-.58929 3.3999246.347 4.852.9132706 1.4200064 2.4876712 2.2761998 4.176 2.271h12.112c1.6568542.0000001 2.9999999 1.3431458 2.9999999 3s-1.3431457 2.9999999-2.9999999 3z"/><path id="Shape" d="m28 46c-.5522847 0-1 .4477153-1 1v2c0 .5522847.4477153 1 1 1s1-.4477153 1-1v-2c0-.5522847-.4477153-1-1-1z"/><path id="Shape" d="m28 34c-.5522847 0-1 .4477153-1 1v8c0 .5522847.4477153 1 1 1s1-.4477153 1-1v-8c0-.5522847-.4477153-1-1-1z"/></g></g></g></svg>