<svg height="512" viewBox="0 0 60 57" width="512" xmlns="http://www.w3.org/2000/svg"><g id="Page-1" fill="none" fill-rule="evenodd"><g id="032---Dislike" fill-rule="nonzero"><rect id="Rectangle-path" fill="#ffe0e2" height="32" rx="4" width="18" x="1" y="1"/><path id="Shape" d="m15 1h-3c2.209139 0 4 1.790861 4 4v24c0 2.209139-1.790861 4-4 4h3c2.209139 0 4-1.790861 4-4v-24c0-2.209139-1.790861-4-4-4z" fill="#ff9ea1"/><circle id="Oval" cx="10" cy="7" fill="#ffe7e8" r="2"/><path id="Shape" d="m59 29c0 2.209139-1.790861 4-4 4h-12.11c-1.3696421.0020747-2.6429971.7047831-3.3749111 1.8624642-.7319141 1.1576812-.8206132 2.6093576-.2350889 3.8475358 1.0351857 2.2973294 1.6191134 4.7722324 1.72 7.29 0 7.15-3.38 8.81-5.75 9.09-.5704844.0718766-1.1443067-.1052572-1.5750122-.4861923-.4307054-.380935-.676623-.9288155-.6749878-1.5038077v-5.1c0-3.66-4.82-10-7.41-13.13-1.0293543-1.2544367-1.591341-2.8272924-1.59-4.45v-21.42c0-4.418278 3.581722-8 8-8h16c2.209139 0 4 1.790861 4 4s-1.790861 4-4 4h3c2.209139 0 4 1.790861 4 4s-1.790861 4-4 4h2c2.209139 0 4 1.790861 4 4s-1.790861 4-4 4h2c1.0612728-.0013291 2.0794609.4196715 2.8298947 1.1701053s1.1714344 1.7686219 1.1701053 2.8298947z" fill="#ffe7e8"/><path id="Shape" d="m42.89 33h-3c-1.3696421.0020747-2.6429971.7047831-3.3749111 1.8624642-.7319141 1.1576812-.8206132 2.6093576-.2350889 3.8475358 1.0351857 2.2973294 1.6191134 4.7722324 1.72 7.29 0 5.676-2.13 7.886-4.193 8.7.411326.3140919.9293706.4544629 1.443.391 2.37-.281 5.75-1.941 5.75-9.091-.1008866-2.5177676-.6848143-4.9926706-1.72-7.29-.5855243-1.2381782-.4968252-2.6898546.2350889-3.8475358.731914-1.1576811 2.005269-1.8603895 3.3749111-1.8624642z" fill="#ffc9cc"/><path id="Shape" d="m52 5c.0013291-1.06127285-.4196715-2.07946091-1.1701053-2.82989472-.7504338-.75043382-1.7686219-1.17143436-2.8298947-1.17010528l-3-.00000314c2.209139.00000314 4 1.79086414 4 4.00000314s-1.790861 4-4 4h3c2.209139 0 4-1.790861 4-4z" fill="#ffc9cc"/><path id="Shape" d="m57.83 26.17c-.7523311-.7476392-1.7693573-1.1681058-2.83-1.17h-2c2.209139 0 4-1.790861 4-4s-1.790861-4-4-4h-2c2.209139 0 4-1.790861 4-4s-1.790861-4-4-4h-3c2.209139 0 4 1.790861 4 4s-1.790861 4-4 4h2c2.209139 0 4 1.790861 4 4s-1.790861 4-4 4h2c2.209139 0 4 1.790861 4 4s-1.790861 4-4 4h3c1.6188267.001274 3.0788192-.9733095 3.6984897-2.4688395.6196706-1.49553.2768311-3.2171142-.8684897-4.3611605z" fill="#ffc9cc"/><path id="Shape" d="m5 33h3c-2.209139 0-4-1.790861-4-4v-24c0-2.209139 1.790861-4 4-4h-3c-2.209139 0-4 1.790861-4 4v24c0 2.209139 1.790861 4 4 4z" fill="#fff"/><path id="Rectangle-path" d="m0 5h2v8h-2z" fill="#fff"/><g fill="#ff414c"><path id="Shape" d="m0 29c.00330612 2.7600532 2.23994685 4.9966939 5 5h10c2.7600532-.0033061 4.9966939-2.2399468 5-5v-24c-.0033061-2.76005315-2.2399468-4.99669388-5-5h-10c-2.76005315.00330612-4.99669388 2.23994685-5 5 0 .55228475.44771525 1 1 1s1-.44771525 1-1c0-1.65685425 1.34314575-3 3-3h10c1.6568542 0 3 1.34314575 3 3v24c0 1.6568542-1.3431458 3-3 3h-10c-1.65685425 0-3-1.3431458-3-3v-16c0-.5522847-.44771525-1-1-1s-1 .4477153-1 1z"/><circle id="Oval" cx="1" cy="9" r="1"/><path id="Shape" d="m13 7c0-1.65685425-1.3431458-3-3-3-1.65685425 0-3 1.34314575-3 3s1.34314575 3 3 3c1.6568542 0 3-1.34314575 3-3zm-4 0c0-.55228475.44771525-1 1-1 .5522847 0 1 .44771525 1 1s-.4477153 1-1 1c-.55228475 0-1-.44771525-1-1z"/><path id="Shape" d="m5 24c.55228475 0 1-.4477153 1-1v-6c0-.5522847-.44771525-1-1-1s-1 .4477153-1 1v6c0 .5522847.44771525 1 1 1z"/><path id="Shape" d="m4 28c0 .5522847.44771525 1 1 1s1-.4477153 1-1v-1c0-.5522847-.44771525-1-1-1s-1 .4477153-1 1z"/><path id="Shape" d="m44 18c.5522847 0 1-.4477153 1-1s-.4477153-1-1-1h-1c-.5522847 0-1 .4477153-1 1s.4477153 1 1 1z"/><path id="Shape" d="m45 24h-1c-.5522847 0-1 .4477153-1 1s.4477153 1 1 1h1c.5522847 0 1-.4477153 1-1s-.4477153-1-1-1z"/><path id="Shape" d="m56.742 24.313c1.0924903-1.2342342 1.5065049-2.9276049 1.1067351-4.5266838-.3997697-1.5990789-1.561957-2.8983991-3.1067351-3.4733162 1.1917314-1.3464689 1.5686962-3.2291478.9872547-4.9306554-.5814415-1.70150762-2.0317343-2.95977355-3.7982547-3.2953446 1.1812237-1.505035 1.400048-3.55217707.5636323-5.27288283-.8364158-1.72070576-2.5814102-2.81325757-4.4946323-2.81411717h-16c-4.9680501.00606096-8.993939 4.03194995-9 9v21.421c.00061 1.8546383.6449448 3.6515653 1.823 5.084 4.561 5.532 7.177 10.086 7.177 12.495v5.1c-.0000044.7973851.3174384 1.5619662.8822122 2.1248637s1.3304071.8777943 2.1277878.8751363c.1199871.0004801.2398872-.0065336.359-.021 2.477-.29 6.631-1.995 6.631-10.079-.0988693-2.6600069-.7146575-5.2753236-1.813-7.7-.4378907-.9519058-.3602313-2.0613794.206-2.943.5402972-.8541533 1.4843635-1.3676194 2.495-1.357h12.112c2.4203385.0003521 4.4934161-1.7329238 4.9217909-4.1150518s-.9109655-4.7290543-3.1797909-5.5719482zm-1.742 7.687h-12.112c-1.6883288-.0051998-3.2627294.8509936-4.176 2.271-.93629 1.4520754-1.0671221 3.2814631-.347 4.852.9749259 2.1683328 1.5297309 4.5019071 1.635 6.877 0 4.917-1.684 7.718-4.868 8.1-.2898424.0372783-.5816237-.0528092-.8-.247-.2150187-.1906929-.3362414-.4656346-.332-.753v-5.1c0-3.727-4.151-9.544-7.634-13.768-.883095-1.0737169-1.3659294-2.4207753-1.366-3.811v-21.421c.0044086-3.86416566 3.1358343-6.99559136 7-7h16c1.6568542.00000003 2.9999999 1.34314578 2.9999999 3s-1.3431457 2.99999997-2.9999999 3h-4c-.5522847 0-1 .44771525-1 1s.4477153 1 1 1h7c1.6568542 0 3 1.3431458 3 3s-1.3431458 3-3 3h-3c-.5522847 0-1 .4477153-1 1s.4477153 1 1 1h5c1.6568542 0 3 1.3431458 3 3s-1.3431458 3-3 3h-4c-.5522847 0-1 .4477153-1 1s.4477153 1 1 1h6c1.6568542 0 3 1.3431458 3 3s-1.3431458 3-3 3z"/><path id="Shape" d="m28 26c-.5522847 0-1 .4477153-1 1v2c0 .5522847.4477153 1 1 1s1-.4477153 1-1v-2c0-.5522847-.4477153-1-1-1z"/><path id="Shape" d="m28 14c-.5522847 0-1 .4477153-1 1v8c0 .5522847.4477153 1 1 1s1-.4477153 1-1v-8c0-.5522847-.4477153-1-1-1z"/></g></g></g></svg>