<svg height="512" viewBox="0 0 60 52" width="512" xmlns="http://www.w3.org/2000/svg"><g id="Page-1" fill="none" fill-rule="evenodd"><g id="035---Mouse" fill-rule="nonzero" transform="translate(-1)"><path id="Shape" d="m45.85 29.54-4.95 4.96h-.01l-11.31-11.32 3.53-3.54 2.83-2.83 6.37-6.36 3.54 3.54c2.0646374 2.0606884 3.2248711 4.8579528 3.2248711 7.775s-1.1602337 5.7143116-3.2248711 7.775z" fill="#ffe0e2"/><path id="Shape" d="m45.85 13.99-3.54-3.54-1.5 1.5 2.04 2.04c2.0646374 2.0606884 3.2248711 4.8579528 3.2248711 7.775s-1.1602337 5.7143116-3.2248711 7.775l-3.456 3.46 1.5 1.5h.01l4.95-4.96c2.0641074-2.0612194 3.2236217-4.8587824 3.2228713-7.7758295-.0007504-2.9170472-1.1617037-5.7140133-3.2268713-7.7741705z" fill="#ff9ea1"/><path id="Shape" d="m42.31 10.44v.01l-6.37 6.36-2.83 2.83-3.53 3.54-11.33-11.32 4.96-4.96c4.2996085-4.28993 11.2603915-4.28993 15.56 0l1.42 1.42z" fill="#ffe0e2"/><path id="Shape" d="m40.881 8.881-7.941 7.929-2.83 2.83-2.033 2.039 1.503 1.501 3.53-3.54 2.83-2.83 6.37-6.36v-.01" fill="#ff9ea1"/><path id="Shape" d="m40.89 34.5-12.74 12.74c-2.2495023 2.251981-5.3019702 3.5173393-8.485 3.5173393s-6.2354977-1.2653583-8.485-3.5173393l-5.67-5.67c-4.67985139-4.6887376-4.67985139-12.2812624 0-16.97l12.74-12.74 11.33 11.32z" fill="#ffe7e8"/><path id="Shape" d="m45.85 11.15-1.42 1.42-2.12-2.12v-.01l-2.12-2.12 1.41-1.41c.3732815-.37902819.8830212-.5924538 1.415-.5924538s1.0417185.21342561 1.415.5924538l1.42 1.41c.3755541.37513651.5865733.8841815.5865733 1.415s-.2110192 1.0398635-.5865733 1.415z" fill="#ffe7e8"/><path id="Shape" d="m11.18 47.24c2.6215852 2.6229168 6.3106087 3.8829977 9.989 3.412-2.6451504-.3255293-5.1053722-1.5265991-6.989-3.412l-5.67-5.67c-4.67985139-4.6887376-4.67985139-12.2812624 0-16.97l17.7-17.7c1.6975257-1.69295339 3.903749-2.7820127 6.28-3.1-3.4081475-.47734739-6.8430298.67008096-9.28 3.1l-17.7 17.7c-4.67985139 4.6887376-4.67985139 12.2812624 0 16.97z" fill="#fff"/><path id="Rectangle-path" d="m4.34 20.772h8v2h-8z" fill="#fff" transform="matrix(.707 -.707 .707 .707 -12.953 12.274)"/><g fill="#ff414c"><path id="Shape" d="m7.633 21.065c-.28606061.2859742-.37167172.7161158-.21690842 1.0898272.1547633.3737115.51941869.6173863.92390842.6173863s.76914512-.2436748.92390842-.6173863c.1547633-.3737114.06915219-.803853-.21690842-1.0898272-.39049985-.3903819-1.02350015-.3903819-1.414 0z"/><path id="Shape" d="m32.405 18.935-.707.708c-.2599566.2510745-.3642126.6228779-.2726972.9725073.0915155.3496295.3645604.6226744.7141899.7141899.3496294.0915154.7214328-.0127406.9725073-.2726972l.707-.708c.3789722-.3923789.3735524-1.0160848-.0121814-1.4018186s-1.0094397-.3911536-1.4018186-.0121814z"/><path id="Shape" d="m27.452 27.718c.4043959-.0000863.7689341-.2437275.923678-.6173454.1547439-.373618.0692299-.8036603-.216678-1.0896546l-2.123-2.123c-.2484493-.270319-.6250514-.3827525-.9810334-.2928847s-.6340909.3675833-.7244625.7234377c-.0903715.3558545.0215288.7326154.2914959.981447l2.123 2.123c.1871648.188283.4415178.2944134.707.295z"/><path id="Shape" d="m35.235 35.5c.4043959-.0000863.7689341-.2437275.923678-.6173454.1547439-.373618.0692299-.8036603-.216678-1.0896546l-4.953-4.953c-.3923789-.3789722-1.0160848-.3735524-1.4018186.0121814s-.3911536 1.0094397-.0121814 1.4018186l4.953 4.953c.1870531.1882061.4416514.2937185.707.293z"/><path id="Shape" d="m59.293.539-3.538 3.537c-.7923798.75568343-2.0386202.75568343-2.831 0-1.5645095-1.55923455-4.0954905-1.55923455-5.66 0l-2.123 2.124c-.5626237-.56271905-1.3257625-.87885933-2.1215-.87885933s-1.5588763.31614028-2.1215.87885933l-.709.709-.713-.713c-2.2504543-2.25057029-5.302795-3.51493726-8.4855-3.51493726s-6.2350457 1.26436697-8.4855 3.51493726l-12.044 12.041c-.2599566.2510745-.3642126.6228779-.2726972.9725073.0915155.3496295.3645604.6226744.7141899.7141899.3496294.0915154.7214328-.0127406.9725073-.2726972l6.378-6.378 21.228 21.227-12.034 12.036c-4.2988077 4.2890348-11.2581923 4.2890348-15.557 0l-5.672-5.672c-4.28781978-4.2989198-4.28781978-11.2570802 0-15.556.25258677-.2533013.35085194-.6221148.25777996-.967512s-.36334125-.6149041-.709-.707-.71419319.0072107-.96677996.260512c-5.06913184 5.0796931-5.06913184 13.3043069 0 18.384l5.676 5.672c5.080491 5.0681465 13.304509 5.0681465 18.385 0l12.739-12.741 4.958-4.957c4.6859163-4.6862271 4.6859163-12.2837729 0-16.97l-.714-.713.71-.71c1.1711458-1.1714996 1.1711458-3.07050045 0-4.242l2.125-2.127c.7824839-.78000716 2.0485161-.78000716 2.831 0 .7502326.75080205 1.7681082 1.17264616 2.8295 1.17264616s2.0792674-.42184411 2.8295-1.17264616l3.538-3.537c.3789722-.39237889.3735524-1.01608478-.0121814-1.40181857-.3857338-.3857338-1.0094397-.39115364-1.4018186-.01218143zm-16.982 7.073c.1875683-.18777704.4420908-.29328666.7075-.29328666s.5199317.10550962.7075.29328666l1.417 1.417c.3903819.39049985.3903819 1.0235001 0 1.414l-.709.709-2.834-2.831zm5.764 14.153c.0072708 2.6535994-1.0474373 5.1998067-2.929 7.071l-4.246 4.251-21.232-21.228 4.251-4.251c1.8753989-1.87562818 4.4191233-2.9293644 7.0715-2.9293644s5.1961011 1.05373622 7.0715 2.9293644l2.838 2.836-5.661 5.661c-.2599566.2510745-.3642126.6228779-.2726972.9725073.0915155.3496295.3645604.6226744.7141899.7141899.3496294.0915154.7214328-.0127406.9725073-.2726972l5.662-5.661 2.835 2.836c1.8800953 1.8718532 2.9333291 4.4179785 2.925 7.071z"/></g></g></g></svg>