<svg height="512" viewBox="0 0 60 60" width="512" xmlns="http://www.w3.org/2000/svg"><g id="Page-1" fill="none" fill-rule="evenodd"><g id="036---Wireless-Mouse" fill-rule="nonzero" transform="translate(0 -1)"><path id="Shape" d="m44.775 38.857-4.95 4.961h-.01l-11.31-11.318 3.53-3.54 2.83-2.83 6.37-6.36 3.54 3.54c2.0642097 2.0603064 3.2241994 4.8570254 3.2241994 7.7735s-1.1599897 5.7131936-3.2241994 7.7735z" fill="#ffe0e2"/><path id="Shape" d="m44.775 23.308-3.54-3.54-1.5 1.5 2.041 2.042c2.0648226 2.0603869 3.2252014 4.8575348 3.2252014 7.7745s-1.1603788 5.7141131-3.2252014 7.7745l-3.457 3.461 1.5 1.5h.01l4.95-4.961c2.0649056-2.0609984 3.2249543-4.8588739 3.2242039-7.7763298-.0007505-2.917456-1.1622383-5.7147343-3.2282039-7.7746702z" fill="#ff9ea1"/><path id="Shape" d="m41.235 19.758v.01l-6.37 6.36-2.83 2.83-3.53 3.54-11.33-11.32 4.96-4.961c4.3000634-4.28883 11.2599366-4.28883 15.56 0l1.42 1.421z" fill="#ffe0e2"/><path id="Shape" d="m39.806 18.199-7.941 7.929-2.83 2.83-2.033 2.038 1.503 1.502 3.53-3.54 2.83-2.83 6.37-6.36v-.01" fill="#ff9ea1"/><path id="Shape" d="m39.815 43.818-12.74 12.74c-2.2495023 2.251981-5.3019702 3.5173393-8.485 3.5173393s-6.2354977-1.2653583-8.485-3.5173393l-5.67-5.67c-4.6799663-4.6890804-4.6799663-12.2819196 0-16.971l12.74-12.739 11.33 11.322z" fill="#ffe7e8"/><path id="Shape" d="m10.105 56.557c2.6214827 2.6231482 6.3104638 3.8835839 9.989 3.413-2.6452326-.3259524-5.1054237-1.5273593-6.989-3.413l-5.67-5.669c-4.6799663-4.6890804-4.6799663-12.2819196 0-16.971l17.7-17.7c1.6980915-1.6921628 3.9040325-2.7810827 6.28-3.1-3.4081036-.4768694-6.8427776.6704894-9.28 3.1l-17.7 17.7c-4.6799663 4.6890804-4.6799663 12.2819196 0 16.971z" fill="#fff"/><path id="Rectangle-path" d="m3.34 30.11h8v2h-8z" fill="#fff" transform="matrix(.707 -.707 .707 .707 -19.848 14.302)"/><g fill="#ff414c"><path id="Shape" d="m7.359 32.11c-.55228475.0024853-1.00201472-.4432153-1.0045-.9955s.44321525-1.0020147.9955-1.0045h.009c.55228475 0 1 .4477153 1 1s-.44771525 1-1 1z"/><path id="Shape" d="m21.354 15.681-11.893 11.894c-.25995658.2510745-.3642126.6228779-.27269716.9725073.09151544.3496295.3645604.6226744.71418984.7141899.34962942.0915154.72143282-.0127406.97250732-.2726972l6.285-6.289 21.128 21.133-11.941 11.941c-4.2957273 4.2955344-11.2602727 4.2955344-15.556 0l-5.572-5.574c-4.28891983-4.2984649-4.28891983-11.2575351 0-15.556.39074144-.3904653.39096529-1.0237585.00049998-1.4145-.39046531-.3907414-1.02375852-.3909653-1.41449998-.0005-5.0692468 5.080036-5.0692468 13.304964 0 18.385l5.572 5.572c5.076727 5.0762983 13.307273 5.0762983 18.384 0l17.551-17.55c2.2505703-2.2504543 3.5149373-5.302795 3.5149373-8.4855s-1.264367-6.2350457-3.5149373-8.4855l-3.493-3.492-3.493-3.492c-4.6896509-4.6795309-12.2823491-4.6795309-16.972 0zm15.557 1.419 2.789 2.781-5.633 5.633c-.3904653.3907415-.3902415 1.0240347.0005 1.4145s1.0240347.3902415 1.4145-.0005l5.629-5.628 2.789 2.782c3.9051525 3.9052274 3.9051525 10.2367726 0 14.142l-4.195 4.2-21.131-21.134 4.195-4.19c3.907737-3.899089 10.234263-3.899089 14.142 0z"/><path id="Shape" d="m31.249 30.744c.2651948-.0000566.5195073-.1054506.707-.293l.7-.705c.3789722-.3923789.3735524-1.0160848-.0121814-1.4018186s-1.0094397-.3911536-1.4018186-.0121814l-.7.7c-.2859079.2859943-.3714219.7160366-.216678 1.0896546.1547439.3736179.5192821.6172591.923678.6173454z"/><path id="Shape" d="m26.317 37.083c.4043959-.0000863.7689341-.2437275.923678-.6173454.1547439-.373618.0692299-.8036603-.216678-1.0896546l-2.113-2.113c-.3954727-.3575753-1.00193-.3420027-1.3785299.035398-.3766.3774007-.3908846.9838896-.0324701 1.378602l2.113 2.114c.1869201.1864495.4399883.2914152.704.292z"/><path id="Shape" d="m34.067 44.833c.4043959-.0000863.7689341-.2437275.923678-.6173454.1547439-.373618.0692299-.8036603-.216678-1.0896546l-4.931-4.932c-.2510745-.2599566-.6228779-.3642126-.9725073-.2726972-.3496295.0915155-.6226744.3645604-.7141899.7141899-.0915154.3496294.0127406.7214328.2726972.9725073l4.931 4.932c.1874927.1875494.4418052.2929434.707.293z"/><path id="Shape" d="m35.25 1.966c-.5246705.17369355-.8091936.73982949-.6355 1.2645s.7398295.80919355 1.2645.6355c6.0406057-2.01695001 12.7023334-.44628346 17.2057111 4.05667059 4.5033776 4.50295401 6.0746707 11.16453401 4.0582889 17.20532941-.0838271.2518195-.0641101.5266338.0548079.763907.1189179.2372732.3272813.4175405.5791921.501093.1016622.0334695.2079705.0506813.315.051.4311388-.0001824.8136224-.2766669.949-.686 2.2545462-6.7587742.496184-14.2112639-4.5417656-19.24942528-5.0379497-5.0381614-12.4903655-6.79683684-19.2492344-4.54257472z"/><path id="Shape" d="m51.264 24.3c.507553.2167522 1.0947454-.0186618 1.312-.526 1.8772373-4.3923238.8936037-9.4848939-2.4843387-12.8621759-3.3779423-3.37728203-8.4707046-4.35992005-12.8626613-2.4818241-.5078258.21732407-.743324.80517417-.526 1.31299998.2173241.50782582.8051742.74332402 1.313.52600002 3.641327-1.55810996 7.8643383-.74358271 10.6649605 2.0570395 2.8006222 2.8006222 3.6151495 7.0236335 2.0570395 10.6649605-.2147533.5067359.0203271 1.0917554.526 1.309z"/></g></g></g></svg>