<svg height="512" viewBox="0 0 60 60" width="512" xmlns="http://www.w3.org/2000/svg"><g id="Page-1" fill="none" fill-rule="evenodd"><g id="037---Speaker" fill-rule="nonzero"><path id="Shape" d="m56.72 18.71c-.6096612-1.453143-1.3423239-2.8515586-2.19-4.18-2.3017347-3.6617116-5.3982884-6.75826526-9.06-9.06-1.3284414-.84767609-2.726857-1.58033885-4.18-2.19-7.2197127-3.03996072-15.3602873-3.03996072-22.58 0-1.453143.60966115-2.8515586 1.34232391-4.18 2.19-3.6617116 2.30173474-6.75826526 5.3982884-9.06 9.06-.84767609 1.3284414-1.58033885 2.726857-2.19 4.18-3.03996072 7.2197127-3.03996072 15.3602873 0 22.58.60966115 1.453143 1.34232391 2.8515586 2.19 4.18 2.30173474 3.6617116 5.3982884 6.7582653 9.06 9.06 1.3284414.8476761 2.726857 1.5803388 4.18 2.19 7.2197127 3.0399607 15.3602873 3.0399607 22.58 0 1.453143-.6096612 2.8515586-1.3423239 4.18-2.19 3.6617116-2.3017347 6.7582653-5.3982884 9.06-9.06.8476761-1.3284414 1.5803388-2.726857 2.19-4.18 3.0399607-7.2197127 3.0399607-15.3602873 0-22.58zm-26.72 36.29c-13.8071187 0-25-11.1928813-25-25s11.1928813-25 25-25 25 11.1928813 25 25c-.0121298 13.8020913-11.1979087 24.9878702-25 25z" fill="#ffe7e8"/><path id="Shape" d="m56.72 18.71c-.6096612-1.453143-1.3423239-2.8515586-2.19-4.18-2.3017347-3.6617116-5.3982884-6.75826526-9.06-9.06-1.3284414-.84767609-2.726857-1.58033885-4.18-2.19-3.572151-1.51008701-7.4117793-2.28549468-11.29-2.28-.5033333 0-1.0033333.01266667-1.5.038 3.3693685.16882032 6.682965.9276644 9.79 2.242 1.453143.60966115 2.8515586 1.34232391 4.18 2.19 3.6617116 2.30173474 6.7582653 5.3982884 9.06 9.06.8476761 1.3284414 1.5803388 2.726857 2.19 4.18 3.0399607 7.2197127 3.0399607 15.3602873 0 22.58-.6096612 1.453143-1.3423239 2.8515586-2.19 4.18-2.3017347 3.6617116-5.3982884 6.7582653-9.06 9.06-1.3284414.8476761-2.726857 1.5803388-4.18 2.19-3.107035 1.3143356-6.4206315 2.0731797-9.79 2.242.4973333.0253333.9973333.038 1.5.038 3.8782207.0054947 7.717849-.769913 11.29-2.28 1.453143-.6096612 2.8515586-1.3423239 4.18-2.19 3.6617116-2.3017347 6.7582653-5.3982884 9.06-9.06.8476761-1.3284414 1.5803388-2.726857 2.19-4.18 3.0399607-7.2197127 3.0399607-15.3602873 0-22.58z" fill="#ffc9cc"/><circle id="Oval" cx="30" cy="30" fill="#ffe7e8" r="25"/><path id="Shape" d="m30 5c-.5 0-1 .019-1.5.049 13.1671239.83401357 23.4196519 11.7564891 23.4196519 24.95s-10.252528 24.1159864-23.4196519 24.95c.5.03 1 .049 1.5.049 13.7193264-.1227131 24.7763954-11.2791248 24.7763954-24.999s-11.057069-24.87628693-24.7763954-24.999z" fill="#ffc9cc"/><circle id="Oval" cx="30" cy="30" fill="#ffe0e2" r="9"/><path id="Shape" d="m30 21c-.5028835.0032224-1.0046224.0483789-1.5.135 4.3297277.7267089 7.5010833 4.4747098 7.5010833 8.865s-3.1713556 8.1382911-7.5010833 8.865c3.3570875.5877651 6.7581917-.7711782 8.7859125-3.5104942 2.0277208-2.7393161 2.334161-6.389019.7916126-9.4281058-1.5425485-3.0390868-4.6694296-4.9461397-8.0775251-4.9264z" fill="#ff9ea1"/><path id="Shape" d="m18.71 3.28c-1.453143.60966115-2.8515586 1.34232391-4.18 2.19-.806602-.31321867-1.6647221-.4726323-2.53-.47-3.86416566.00440864-6.99559136 3.13583434-7 7-.0026323.8652779.15678133 1.723398.47 2.53-.84767609 1.3284414-1.58033885 2.726857-2.19 4.18-3.38375555-4.3792409-2.98712606-10.59056196.92615599-14.50384401s10.12460311-4.30991154 14.50384401-.92615599z" fill="#ffe0e2"/><path id="Shape" d="m14.53 5.47c-3.6617116 2.30173474-6.75826526 5.3982884-9.06 9.06-.31321867-.806602-.4726323-1.6647221-.47-2.53.00440864-3.86416566 3.13583434-6.99559136 7-7 .8652779-.0026323 1.723398.15678133 2.53.47z" fill="#ffe7e8"/><path id="Shape" d="m55 12c.0026323.8652779-.1567813 1.723398-.47 2.53-2.3017347-3.6617116-5.3982884-6.75826526-9.06-9.06.806602-.31321867 1.6647221-.4726323 2.53-.47 3.8641657.00440864 6.9955914 3.13583434 7 7z" fill="#ffe7e8"/><path id="Shape" d="m59 12c.00594 2.4277513-.7962043 4.7884481-2.28 6.71-.6096612-1.453143-1.3423239-2.8515586-2.19-4.18.3132187-.806602.4726323-1.6647221.47-2.53-.0044086-3.86416566-3.1358343-6.99559136-7-7-.8652779-.0026323-1.723398.15678133-2.53.47-1.3284414-.84767609-2.726857-1.58033885-4.18-2.19 3.3217736-2.55714102 7.8082104-3.00395542 11.5690769-1.15219055 3.7608665 1.85176486 6.1422893 5.68015667 6.1409231 9.87219055z" fill="#ffe0e2"/><path id="Shape" d="m14.53 54.53c-.806602.3132187-1.6647221.4726323-2.53.47-3.86416566-.0044086-6.99559136-3.1358343-7-7-.0026323-.8652779.15678133-1.723398.47-2.53 2.30173474 3.6617116 5.3982884 6.7582653 9.06 9.06z" fill="#ffe7e8"/><path id="Shape" d="m18.71 56.72c-4.3792409 3.3837555-10.59056196 2.9871261-14.50384401-.926156-3.91328205-3.913282-4.30991154-10.1246031-.92615599-14.503844.60966115 1.453143 1.34232391 2.8515586 2.19 4.18-.31321867.806602-.4726323 1.6647221-.47 2.53.00440864 3.8641657 3.13583434 6.9955914 7 7 .8652779.0026323 1.723398-.1567813 2.53-.47 1.3284414.8476761 2.726857 1.5803388 4.18 2.19z" fill="#ffe0e2"/><path id="Shape" d="m55 48c-.0044086 3.8641657-3.1358343 6.9955914-7 7-.8652779.0026323-1.723398-.1567813-2.53-.47 3.6617116-2.3017347 6.7582653-5.3982884 9.06-9.06.3132187.806602.4726323 1.6647221.47 2.53z" fill="#ffe7e8"/><path id="Shape" d="m59 48c.0013662 4.1920339-2.3800566 8.0204257-6.1409231 9.8721906-3.7608665 1.8517648-8.2473033 1.4049504-11.5690769-1.1521906 1.453143-.6096612 2.8515586-1.3423239 4.18-2.19.806602.3132187 1.6647221.4726323 2.53.47 3.8641657-.0044086 6.9955914-3.1358343 7-7 .0026323-.8652779-.1567813-1.723398-.47-2.53.8476761-1.3284414 1.5803388-2.726857 2.19-4.18 1.4837957 1.9215519 2.28594 4.2822487 2.28 6.71z" fill="#ffe0e2"/><path id="Shape" d="m12 59c.4883303-.0013574.9760451-.0347625 1.46-.1-3.87183615-.557694-7.15799969-3.1258001-8.63488768-6.7480838-1.47688799-3.6222838-.92320402-7.7559835 1.45488768-10.8619162-3.04154885-7.2193919-3.04154885-15.3606081 0-22.58-2.37227977-3.1059479-2.92254923-7.235837-1.44627082-10.85456957 1.47627841-3.6187326 4.75835621-6.18519822 8.62627082-6.74543043-.4837307-.06861723-.9714488-.10536311-1.46-.11-4.18747646.00865824-8.007742 2.39137196-9.85749755 6.14815761-1.84975556 3.75678569-1.40891926 8.23756869 1.13749755 11.56184239-3.04154885 7.2193919-3.04154885 15.3606081 0 22.58-2.54723856 3.3240827-2.9885326 7.8052987-1.13862326 11.5623967 1.84990935 3.757098 5.67079713 6.1397128 9.85862326 6.1476033z" fill="#fff"/><path id="Shape" d="m3.079 37.624-1.925.544-.514-2c-.129-.681-.216-1.368-.325-2.047l-.155-1.021-.06-1.034-.1-2.066h2l.1 1.929.05.965.147.954c.1.635.182 1.275.3 1.907z" fill="#fff"/><g fill="#ff414c"><path id="Shape" d="m1.324 34.99c-.55228475.0027614-1.00223858-.4427153-1.005-.995s.44271525-1.0022386.995-1.005h.01c.55228475 0 1 .4477153 1 1s-.44771525 1-1 1z"/><path id="Shape" d="m30 56c14.3594035 0 26-11.6405965 26-26s-11.6405965-26-26-26-26 11.6405965-26 26c.01598214 14.3527783 11.6472217 25.9840179 26 26zm0-50c13.254834 0 24 10.745166 24 24s-10.745166 24-24 24-24-10.745166-24-24c.01542952-13.2484376 10.7515624-23.98457048 24-24z"/><path id="Shape" d="m20 30c0 5.5228475 4.4771525 10 10 10s10-4.4771525 10-10-4.4771525-10-10-10c-5.5203344.0060624-9.9939376 4.4796656-10 10zm18 0c0 4.418278-3.581722 8-8 8s-8-3.581722-8-8 3.581722-8 8-8c4.4162219.0049599 7.9950401 3.5837781 8 8z"/><path id="Shape" d="m18 15.009c.2163702 0 .4269038-.0701779.6-.2 3.2811629-2.4822624 7.2856921-3.8202669 11.4-3.809.5522847 0 1-.4477153 1-1 0-.55228475-.4477153-1-1-1-4.5471255-.01074285-8.9726579 1.4679469-12.6 4.21-.3443443.2582582-.4847973.7078856-.3486833 1.1162278.136114.4083421.5182529.6837722.9486833.6837722z"/><path id="Shape" d="m14.6 17.213c-.4418278-.3313708-1.0686292-.2418278-1.4.2-.9456765 1.2588233-1.7467151 2.6200522-2.388 4.058-.1574171.3281292-.1241402.7158732.0868843 1.0123822.2110245.2965089.5664752.4549628.9280655.4137159.3615904-.0412469.6722239-.2756815.8110502-.6120981.5808626-1.3011114 1.3060785-2.5328378 2.162-3.672.3313708-.4418278.2418278-1.0686292-.2-1.4z"/><path id="Shape" d="m48 0c-2.452326-.00731555-4.846591.74593635-6.853 2.156-7.1533264-2.87469111-15.1406736-2.87469111-22.294 0-2.006409-1.41006365-4.400674-2.16331555-6.853-2.156-6.62444695.00716485-11.99283515 5.37555305-12 12-.00764459 2.4523761.74563794 4.8467384 2.156 6.853-1.42531092 3.5434805-2.15721873 7.3276069-2.156 11.147 0 .5522847.44771525 1 1 1s1-.4477153 1-1c-.03703445-13.0419552 8.9105865-24.39266116 21.6006558-27.40199811s25.7817291 3.11494978 31.6048746 14.78478031c5.8231455 11.6698305 2.8447432 25.8129406-7.1902289 34.1432048-10.0349722 8.3302642-24.4846519 8.654611-34.8833015.783013-2.4153064-1.8222826-4.52302272-4.0198039-6.243-6.509-1.68838228-2.5090098-2.97391975-5.2666733-3.81-8.173-.15022145-.5315741-.70292593-.8407215-1.2345-.6905s-.84072145.7029259-.6905 1.2345c.288 1 .643 1.977 1.029 2.942-1.42703919 2.0123527-2.19020957 4.4200277-2.183 6.887.00716485 6.624447 5.37555305 11.9928352 12 12 2.4632891.0073496 4.867683-.7528709 6.879-2.175 3.5430978 1.3979654 7.3122916 2.135129 11.121 2.175 3.8194406.001715 7.6036605-.7302109 11.147-2.156 2.006409 1.4100637 4.400674 2.1633155 6.853 2.156 6.624447-.0071648 11.9928352-5.375553 12-12 .0076446-2.4523761-.7456379-4.8467384-2.156-6.853 2.8746911-7.1533264 2.8746911-15.1406736 0-22.294 1.4103621-2.0062616 2.1636446-4.4006239 2.156-6.853-.0071648-6.62444695-5.375553-11.99283515-12-12zm-46 12c.00310994-3.50108062 1.8353591-6.74605668 4.83166903-8.55705143s6.72110097-1.92474023 9.82233097-.29994857c-.765.382-1.514.79-2.24 1.233-2.8467547-.90519017-5.96068295-.14722592-8.07295443 1.96504557-2.11227149 2.11227148-2.87023574 5.22619973-1.96504557 8.07295443-.443.726-.851 1.475-1.233 2.24-.75570301-1.4345782-1.1481591-3.0325578-1.143-4.654zm4 .019v-.019c.00330738-3.31233757 2.68766243-5.99669262 6-6h.019c-2.27999141 1.71261933-4.30638067 3.73900859-6.019 6.019zm5.924 41.881c.042.032.087.059.129.091-.018.009-.035.009-.053.009-3.31233757-.0033074-5.99669262-2.6876624-6-6 0-.017 0-.032 0-.049 1.69330809 2.2445908 3.68655994 4.2462545 5.924 5.949zm.076 4.1c-3.5084305-.0039243-6.758782-1.8441954-8.56728509-4.8505914-1.80850309-3.0063959-1.91120991-6.7401385-.27071491-9.8414086.37733333.7653333.786 1.5133333 1.226 2.244-.92222873 2.8527656-.16980359 5.9817255 1.94861212 8.1033034 2.11841571 2.1215778 5.24624988 2.8786692 8.10038788 1.9606966.727.445 1.474.853 2.237 1.231-1.4395614.76263-3.0449175 1.1586453-4.674 1.153zm42-10.019v.019c-.0033074 3.3123376-2.6876624 5.9966926-6 6h-.019c2.2799914-1.7126193 4.3063807-3.7390086 6.019-6.019zm4 .019c-.0031099 3.5010806-1.8353591 6.7460567-4.831669 8.5570514-2.99631 1.8109948-6.721101 1.9247403-9.822331.2999486.765-.382 1.514-.79 2.24-1.233 2.8467547.9051902 5.960683.1472259 8.0729544-1.9650456 2.1122715-2.1122714 2.8702358-5.2261997 1.9650456-8.0729544.443-.726.851-1.475 1.233-2.24.755703 1.4345782 1.1481591 3.0325578 1.143 4.654zm-10.019-42h.019c3.3123376.00330738 5.9966926 2.68766243 6 6v.019c-1.7126193-2.27999141-3.7390086-4.30638067-6.019-6.019zm7.643 8.412c.9041912-2.8464919.1457751-5.95962263-1.9663157-8.07129265s-5.2253726-2.86946571-8.0716843-1.96470735c-.726-.443-1.475-.851-2.24-1.233 3.8781182-2.03194102 8.626806-1.30750769 11.7226569 1.78834315 3.0958508 3.09585084 3.8202841 7.84453865 1.7883431 11.72265685-.382-.765-.79-1.514-1.233-2.24z"/></g></g></g></svg>