<svg height="512" viewBox="0 0 60 60" width="512" xmlns="http://www.w3.org/2000/svg"><g id="Page-1" fill="none" fill-rule="evenodd"><g id="038---Speaker-Volume" fill-rule="nonzero"><path id="Shape" d="m56.72 18.71c-.6096612-1.453143-1.3423239-2.8515586-2.19-4.18-2.3017347-3.6617116-5.3982884-6.75826526-9.06-9.06-1.3284414-.84767609-2.726857-1.58033885-4.18-2.19-7.2197127-3.03996072-15.3602873-3.03996072-22.58 0-1.453143.60966115-2.8515586 1.34232391-4.18 2.19-3.6617116 2.30173474-6.75826526 5.3982884-9.06 9.06-.84767609 1.3284414-1.58033885 2.726857-2.19 4.18-3.03996072 7.2197127-3.03996072 15.3602873 0 22.58.60966115 1.453143 1.34232391 2.8515586 2.19 4.18 2.30173474 3.6617116 5.3982884 6.7582653 9.06 9.06 1.3284414.8476761 2.726857 1.5803388 4.18 2.19 7.2197127 3.0399607 15.3602873 3.0399607 22.58 0 1.453143-.6096612 2.8515586-1.3423239 4.18-2.19 3.6617116-2.3017347 6.7582653-5.3982884 9.06-9.06.8476761-1.3284414 1.5803388-2.726857 2.19-4.18 3.0399607-7.2197127 3.0399607-15.3602873 0-22.58zm-26.72 36.29c-13.8071187 0-25-11.1928813-25-25s11.1928813-25 25-25 25 11.1928813 25 25c-.0121298 13.8020913-11.1979087 24.9878702-25 25z" fill="#ffe7e8"/><path id="Shape" d="m56.72 18.71c-.6096612-1.453143-1.3423239-2.8515586-2.19-4.18-2.3017347-3.6617116-5.3982884-6.75826526-9.06-9.06-1.3284414-.84767609-2.726857-1.58033885-4.18-2.19-3.572151-1.51008701-7.4117793-2.28549468-11.29-2.28-.5033333 0-1.0033333.01266667-1.5.038 3.3693685.16882032 6.682965.9276644 9.79 2.242 1.453143.60966115 2.8515586 1.34232391 4.18 2.19 3.6617116 2.30173474 6.7582653 5.3982884 9.06 9.06.8476761 1.3284414 1.5803388 2.726857 2.19 4.18 3.0399607 7.2197127 3.0399607 15.3602873 0 22.58-.6096612 1.453143-1.3423239 2.8515586-2.19 4.18-2.3017347 3.6617116-5.3982884 6.7582653-9.06 9.06-1.3284414.8476761-2.726857 1.5803388-4.18 2.19-3.107035 1.3143356-6.4206315 2.0731797-9.79 2.242.4973333.0253333.9973333.038 1.5.038 3.8782207.0054947 7.717849-.769913 11.29-2.28 1.453143-.6096612 2.8515586-1.3423239 4.18-2.19 3.6617116-2.3017347 6.7582653-5.3982884 9.06-9.06.8476761-1.3284414 1.5803388-2.726857 2.19-4.18 3.0399607-7.2197127 3.0399607-15.3602873 0-22.58z" fill="#ffc9cc"/><circle id="Oval" cx="30" cy="30" fill="#ffe7e8" r="25"/><path id="Shape" d="m30 5c-.5 0-1 .019-1.5.049 13.1671239.83401357 23.4196519 11.7564891 23.4196519 24.95s-10.252528 24.1159864-23.4196519 24.95c.5.03 1 .049 1.5.049 13.7193264-.1227131 24.7763954-11.2791248 24.7763954-24.999s-11.057069-24.87628693-24.7763954-24.999z" fill="#ffc9cc"/><circle id="Oval" cx="30" cy="30" fill="#ffe0e2" r="9"/><path id="Shape" d="m30 21c-.5028835.0032224-1.0046224.0483789-1.5.135 4.3297277.7267089 7.5010833 4.4747098 7.5010833 8.865s-3.1713556 8.1382911-7.5010833 8.865c3.3570875.5877651 6.7581917-.7711782 8.7859125-3.5104942 2.0277208-2.7393161 2.334161-6.389019.7916126-9.4281058-1.5425485-3.0390868-4.6694296-4.9461397-8.0775251-4.9264z" fill="#ff9ea1"/><path id="Shape" d="m18.71 3.28c-1.453143.60966115-2.8515586 1.34232391-4.18 2.19-.806602-.31321867-1.6647221-.4726323-2.53-.47-3.86416566.00440864-6.99559136 3.13583434-7 7-.0026323.8652779.15678133 1.723398.47 2.53-.84767609 1.3284414-1.58033885 2.726857-2.19 4.18-3.38375555-4.3792409-2.98712606-10.59056196.92615599-14.50384401s10.12460311-4.30991154 14.50384401-.92615599z" fill="#ffe0e2"/><path id="Shape" d="m14.53 5.47c-3.6617116 2.30173474-6.75826526 5.3982884-9.06 9.06-.31321867-.806602-.4726323-1.6647221-.47-2.53.00440864-3.86416566 3.13583434-6.99559136 7-7 .8652779-.0026323 1.723398.15678133 2.53.47z" fill="#ffe7e8"/><path id="Shape" d="m55 12c.0026323.8652779-.1567813 1.723398-.47 2.53-2.3017347-3.6617116-5.3982884-6.75826526-9.06-9.06.806602-.31321867 1.6647221-.4726323 2.53-.47 3.8641657.00440864 6.9955914 3.13583434 7 7z" fill="#ffe7e8"/><path id="Shape" d="m59 12c.00594 2.4277513-.7962043 4.7884481-2.28 6.71-.6096612-1.453143-1.3423239-2.8515586-2.19-4.18.3132187-.806602.4726323-1.6647221.47-2.53-.0044086-3.86416566-3.1358343-6.99559136-7-7-.8652779-.0026323-1.723398.15678133-2.53.47-1.3284414-.84767609-2.726857-1.58033885-4.18-2.19 3.3217736-2.55714102 7.8082104-3.00395542 11.5690769-1.15219055 3.7608665 1.85176486 6.1422893 5.68015667 6.1409231 9.87219055z" fill="#ffe0e2"/><path id="Shape" d="m14.53 54.53c-.806602.3132187-1.6647221.4726323-2.53.47-3.86416566-.0044086-6.99559136-3.1358343-7-7-.0026323-.8652779.15678133-1.723398.47-2.53 2.30173474 3.6617116 5.3982884 6.7582653 9.06 9.06z" fill="#ffe7e8"/><path id="Shape" d="m18.71 56.72c-4.3792409 3.3837555-10.59056196 2.9871261-14.50384401-.926156-3.91328205-3.913282-4.30991154-10.1246031-.92615599-14.503844.60966115 1.453143 1.34232391 2.8515586 2.19 4.18-.31321867.806602-.4726323 1.6647221-.47 2.53.00440864 3.8641657 3.13583434 6.9955914 7 7 .8652779.0026323 1.723398-.1567813 2.53-.47 1.3284414.8476761 2.726857 1.5803388 4.18 2.19z" fill="#ffe0e2"/><path id="Shape" d="m25 48h2c1.1045695 0 2 .8954305 2 2v8c0 .5522847-.4477153 1-1 1h-4c-.5522847 0-1-.4477153-1-1v-8c0-1.1045695.8954305-2 2-2z" fill="#ffe0e2"/><path id="Shape" d="m27 48h-2c-.1690259.002073-.3370787.0259365-.5.071.8803426.2272967 1.4965926 1.0197942 1.5 1.929v8c0 .5522847-.4477153 1-1 1h3c.5522847 0 1-.4477153 1-1v-8c0-1.1045695-.8954305-2-2-2z" fill="#ff9ea1"/><path id="Shape" d="m35 43h2c1.1045695 0 2 .8954305 2 2v13c0 .5522847-.4477153 1-1 1h-4c-.5522847 0-1-.4477153-1-1v-13c0-1.1045695.8954305-2 2-2z" fill="#ffe0e2"/><path id="Shape" d="m37 43h-2c-.1690259.002073-.3370787.0259365-.5.071.8803426.2272967 1.4965926 1.0197942 1.5 1.929v13c0 .5522847-.4477153 1-1 1h3c.5522847 0 1-.4477153 1-1v-13c0-1.1045695-.8954305-2-2-2z" fill="#ff9ea1"/><path id="Shape" d="m45 38h2c1.1045695 0 2 .8954305 2 2v18c0 .5522847-.4477153 1-1 1h-4c-.5522847 0-1-.4477153-1-1v-18c0-1.1045695.8954305-2 2-2z" fill="#ffe0e2"/><path id="Shape" d="m47 38h-2c-.1690259.002073-.3370787.0259365-.5.071.8803426.2272967 1.4965926 1.0197942 1.5 1.929v18c0 .5522847-.4477153 1-1 1h3c.5522847 0 1-.4477153 1-1v-18c0-1.1045695-.8954305-2-2-2z" fill="#ff9ea1"/><path id="Shape" d="m55 32h2c1.1045695 0 2 .8954305 2 2v24c0 .5522847-.4477153 1-1 1h-4c-.5522847 0-1-.4477153-1-1v-24c0-1.1045695.8954305-2 2-2z" fill="#ffe0e2"/><path id="Shape" d="m57 32h-2c-.1690259.002073-.3370787.0259365-.5.071.8803426.2272967 1.4965926 1.0197942 1.5 1.929v24c0 .5522847-.4477153 1-1 1h3c.5522847 0 1-.4477153 1-1v-24c0-1.1045695-.8954305-2-2-2z" fill="#ff9ea1"/><path id="Shape" d="m3.28 41.29c-2.54723856 3.3240827-2.9885326 7.8052987-1.13862326 11.5623967 1.84990935 3.757098 5.67079713 6.1397128 9.85862326 6.1476033.4883303-.0013574.9760451-.0347625 1.46-.1-3.87183615-.557694-7.15799969-3.1258001-8.63488768-6.7480838-1.47688799-3.6222838-.92320402-7.7559835 1.45488768-10.8619162-3.04154885-7.2193919-3.04154885-15.3606081 0-22.58-2.39558132-3.1160214-2.94526099-7.2739584-1.44170107-10.9054466 1.50355992-3.63148821 4.83156571-6.18393126 8.72870107-6.6945534-4.42971048-.63292256-8.80171476 1.47883354-11.05971484 5.34203966-2.25800008 3.86320614-1.95253898 8.70888754.77271484 12.25796034-3.04154885 7.2193919-3.04154885 15.3606081 0 22.58z" fill="#fff"/><path id="Shape" d="m3.059 37.628-1.925.543c-.74912533-2.6591515-1.130668-5.4083447-1.134-8.171h2c.00312012 2.5790884.35943056 5.1456001 1.059 7.628z" fill="#fff"/><g fill="#ff414c"><path id="Shape" d="m1.3 34.989c-.55228473.0027614-1.00223852-.4427153-1.00499994-.995-.00276143-.5522847.44271521-1.0022385.99499994-1.005h.01c.55228475 0 1 .4477153 1 1s-.44771525 1-1 1z"/><path id="Shape" d="m1 31c.55228475 0 1-.4477153 1-1-.01151047-15.0968242 11.947576-27.48467266 27.0354444-28.00473005 15.0878685-.52005739 27.8715416 11.01494325 28.8995556 26.07673005.0372793.5522847.5152153.9697791 1.0675.9324999s.9697792-.5152152.9325-1.0674999c-.2128827-3.1193438-.9172315-6.1854714-2.087-9.085 1.408805-2.0064253 2.1606743-4.4003885 2.152-6.852-.0071648-6.62444695-5.375553-11.99283515-12-12-2.4527655-.00716402-4.8474006.7464438-6.854 2.157-7.1528519-2.87535616-15.1401481-2.87535616-22.293 0-2.006291-1.41041852-4.4005656-2.16402282-6.853-2.157-6.62444695.00716485-11.99283515 5.37555305-12 12-.00764459 2.4523761.74563794 4.8467384 2.156 6.853-1.42531092 3.5434805-2.15721873 7.3276069-2.156 11.147 0 .2652165.10535684.5195704.29289322.7071068s.44189029.2928932.70710678.2928932zm46.955-25h.045c3.3123376.00330738 5.9966926 2.68766243 6 6v.032c-1.7201324-2.28596124-3.7553409-4.3167929-6.045-6.032zm.045-4c5.5203344.00606237 9.9939376 4.47966557 10 10 .0052807 1.6211382-.3871873 3.2188228-1.143 4.653-.382-.763-.792-1.51-1.235-2.234.9098319-2.8511944.1499734-5.97177866-1.9688116-8.08550841s-5.2411756-2.86613177-8.0901884-1.94949159c-.724-.442-1.467-.85366667-2.229-1.235 1.4376168-.75973334 3.03999-1.15431689 4.666-1.149zm-42 10.019v-.019c.00330738-3.31233757 2.68766243-5.99669262 6-6h.019c-2.27999141 1.71261933-4.30638067 3.73900859-6.019 6.019zm-4-.019c.00310994-3.50108062 1.8353591-6.74605668 4.83166903-8.55705143s6.72110097-1.92474023 9.82233097-.29994857c-.765.382-1.514.79-2.24 1.233-2.8467547-.90519017-5.96068295-.14722592-8.07295443 1.96504557-2.11227149 2.11227148-2.87023574 5.22619973-1.96504557 8.07295443-.443.726-.851 1.475-1.233 2.24-.75570301-1.4345782-1.1481591-3.0325578-1.143-4.654z"/><path id="Shape" d="m55 29c.2644336-.0209199.5097213-.1460455.6818863-.3478424.172165-.2017968.2570997-.4637292.2361137-.7281576-1.1078375-13.9161759-13.0077569-24.47373044-26.9568124-23.91596166-13.9490555.55776877-24.96801862 12.03176086-24.9611876 25.99196166-.03320572 9.9317103 5.62534535 19.0046697 14.559 23.344.4970563.2435575 1.0974424.0380562 1.341-.459.2435575-.4970563.0380562-1.0974424-.459-1.341-10.01812383-4.9180075-15.32423407-16.0926186-12.80369243-26.9644387s12.20251593-18.57156774 23.36269243-18.5795613c12.4920192.05176739 22.8753676 9.6369642 23.924 22.085.0451227.5494592.5264297.9587491 1.076.915z"/><path id="Shape" d="m40 30c0-5.5228475-4.4771525-10-10-10s-10 4.4771525-10 10 4.4771525 10 10 10c5.5203344-.0060624 9.9939376-4.4796656 10-10zm-18 0c0-4.418278 3.581722-8 8-8s8 3.581722 8 8-3.581722 8-8 8c-4.4162219-.0049599-7.9950401-3.5837781-8-8z"/><path id="Shape" d="m31 10c0-.55228475-.4477153-1-1-1-4.5471255-.01074285-8.9726579 1.4679469-12.6 4.21-.4418278.3313709-.5313708.9581722-.2 1.4.3313709.4418278.9581722.5313708 1.4.2 3.2810362-2.4826195 7.2855768-3.8209791 11.4-3.81.5522847 0 1-.4477153 1-1z"/><path id="Shape" d="m13.2 17.412c-.9456765 1.2588233-1.7467151 2.6200522-2.388 4.058-.1574171.3281292-.1241402.7158732.0868843 1.0123822.2110245.2965089.5664752.4549628.9280655.4137159.3615904-.0412469.6722239-.2756815.8110502-.6120981.580929-1.3007642 1.306143-2.5321521 2.162-3.671.3313708-.4418278.2418278-1.0686291-.2-1.4-.4418278-.3313708-1.0686291-.2418278-1.4.2z"/><path id="Shape" d="m12 60c2.4658126.0076951 4.8726078-.7540197 6.885-2.179.039 0 .077.022.115.022.4785907.0011889.8909304-.3368879.9835708-.8064284s-.1603929-.9388954-.6035708-1.1195716c-.657-.269-1.307-.564-1.931-.878-7.0208157-3.5354548-12.23976834-9.8500611-14.39-17.411-.14994532-.5315741-.70242593-.8409453-1.234-.691-.53157406.1499453-.8409453.7024259-.691 1.234.28259627 1.0144841.62077362 2.0126581 1.013 2.99-1.40446715 2.0033871-2.1544498 4.392363-2.147 6.839.00716485 6.624447 5.37555305 11.9928352 12 12zm.005-6h-.005c-3.31233757-.0033074-5.99669262-2.6876624-6-6v-.011c1.70981967 2.2754061 3.73130255 4.2989088 6.005 6.011zm-8.864-10.648c.38.762.79166667 1.5073333 1.235 2.236-.9031746 2.8439187-.14684364 5.9541261 1.96140182 8.0657367 2.10824547 2.1116105 5.21724258 2.872901 8.06259818 1.9742633.7.426 1.413.832 2.147 1.2.027.014.058.025.085.039-3.100982 1.6161721-6.82067638 1.4964091-9.81127186-.3158934-2.99059547-1.8123025-4.81825202-5.0542372-4.82072814-8.5511066-.00552711-1.6193329.38625407-3.2153004 1.141-4.648z"/><path id="Shape" d="m25 47c-1.6568542 0-3 1.3431458-3 3v8c0 1.1045695.8954305 2 2 2h4c1.1045695 0 2-.8954305 2-2v-8c0-1.6568542-1.3431458-3-3-3zm3 3v8h-4v-8c0-.5522847.4477153-1 1-1h2c.5522847 0 1 .4477153 1 1z"/><path id="Shape" d="m34 60h4c1.1045695 0 2-.8954305 2-2v-13c0-1.6568542-1.3431458-3-3-3h-2c-1.6568542 0-3 1.3431458-3 3v13c0 1.1045695.8954305 2 2 2zm0-15c0-.5522847.4477153-1 1-1h2c.5522847 0 1 .4477153 1 1v13h-4z"/><path id="Shape" d="m50 58v-18c0-1.6568542-1.3431458-3-3-3h-2c-1.6568542 0-3 1.3431458-3 3v18c0 1.1045695.8954305 2 2 2h4c1.1045695 0 2-.8954305 2-2zm-6 0v-18c0-.5522847.4477153-1 1-1h2c.5522847 0 1 .4477153 1 1v18z"/><path id="Shape" d="m60 34c0-1.6568542-1.3431458-3-3-3h-2c-1.6568542 0-3 1.3431458-3 3v24c0 1.1045695.8954305 2 2 2h4c1.1045695 0 2-.8954305 2-2zm-6 24v-24c0-.5522847.4477153-1 1-1h2c.5522847 0 1 .4477153 1 1v24z"/></g></g></g></svg>