<svg height="512" viewBox="0 0 60 60" width="512" xmlns="http://www.w3.org/2000/svg"><g id="Page-1" fill="none" fill-rule="evenodd"><g id="039---Speaker-Alert" fill-rule="nonzero"><path id="Shape" d="m56.72 18.71c-.6096612-1.453143-1.3423239-2.8515586-2.19-4.18-2.3017347-3.6617116-5.3982884-6.75826526-9.06-9.06-1.3284414-.84767609-2.726857-1.58033885-4.18-2.19-7.2197127-3.03996072-15.3602873-3.03996072-22.58 0-1.453143.60966115-2.8515586 1.34232391-4.18 2.19-3.6617116 2.30173474-6.75826526 5.3982884-9.06 9.06-.84767609 1.3284414-1.58033885 2.726857-2.19 4.18-3.03996072 7.2197127-3.03996072 15.3602873 0 22.58.60966115 1.453143 1.34232391 2.8515586 2.19 4.18 2.30173474 3.6617116 5.3982884 6.7582653 9.06 9.06 1.3284414.8476761 2.726857 1.5803388 4.18 2.19 7.2197127 3.0399607 15.3602873 3.0399607 22.58 0 1.453143-.6096612 2.8515586-1.3423239 4.18-2.19 3.6617116-2.3017347 6.7582653-5.3982884 9.06-9.06.8476761-1.3284414 1.5803388-2.726857 2.19-4.18 3.0399607-7.2197127 3.0399607-15.3602873 0-22.58zm-26.72 36.29c-13.8071187 0-25-11.1928813-25-25s11.1928813-25 25-25 25 11.1928813 25 25c-.0121298 13.8020913-11.1979087 24.9878702-25 25z" fill="#ffe7e8"/><path id="Shape" d="m56.72 18.71c-.6096612-1.453143-1.3423239-2.8515586-2.19-4.18-2.3017347-3.6617116-5.3982884-6.75826526-9.06-9.06-1.3284414-.84767609-2.726857-1.58033885-4.18-2.19-3.572151-1.51008701-7.4117793-2.28549468-11.29-2.28-.5033333 0-1.0033333.01266667-1.5.038 3.3693685.16882032 6.682965.9276644 9.79 2.242 1.453143.60966115 2.8515586 1.34232391 4.18 2.19 3.6617116 2.30173474 6.7582653 5.3982884 9.06 9.06.8476761 1.3284414 1.5803388 2.726857 2.19 4.18 3.0399607 7.2197127 3.0399607 15.3602873 0 22.58-.6096612 1.453143-1.3423239 2.8515586-2.19 4.18-2.3017347 3.6617116-5.3982884 6.7582653-9.06 9.06-1.3284414.8476761-2.726857 1.5803388-4.18 2.19-3.107035 1.3143356-6.4206315 2.0731797-9.79 2.242.4973333.0253333.9973333.038 1.5.038 3.8782207.0054947 7.717849-.769913 11.29-2.28 1.453143-.6096612 2.8515586-1.3423239 4.18-2.19 3.6617116-2.3017347 6.7582653-5.3982884 9.06-9.06.8476761-1.3284414 1.5803388-2.726857 2.19-4.18 3.0399607-7.2197127 3.0399607-15.3602873 0-22.58z" fill="#ffc9cc"/><circle id="Oval" cx="30" cy="30" fill="#ffe7e8" r="25"/><path id="Shape" d="m30 5c-.5 0-1 .019-1.5.049 13.1671239.83401357 23.4196519 11.7564891 23.4196519 24.95s-10.252528 24.1159864-23.4196519 24.95c.5.03 1 .049 1.5.049 13.7193264-.1227131 24.7763954-11.2791248 24.7763954-24.999s-11.057069-24.87628693-24.7763954-24.999z" fill="#ffc9cc"/><circle id="Oval" cx="30" cy="30" fill="#ffe0e2" r="9"/><path id="Shape" d="m30 21c-.5028835.0032224-1.0046224.0483789-1.5.135 4.3297277.7267089 7.5010833 4.4747098 7.5010833 8.865s-3.1713556 8.1382911-7.5010833 8.865c3.3570875.5877651 6.7581917-.7711782 8.7859125-3.5104942 2.0277208-2.7393161 2.334161-6.389019.7916126-9.4281058-1.5425485-3.0390868-4.6694296-4.9461397-8.0775251-4.9264z" fill="#ff9ea1"/><path id="Shape" d="m18.71 3.28c-1.453143.60966115-2.8515586 1.34232391-4.18 2.19-.806602-.31321867-1.6647221-.4726323-2.53-.47-3.86416566.00440864-6.99559136 3.13583434-7 7-.0026323.8652779.15678133 1.723398.47 2.53-.84767609 1.3284414-1.58033885 2.726857-2.19 4.18-3.38375555-4.3792409-2.98712606-10.59056196.92615599-14.50384401s10.12460311-4.30991154 14.50384401-.92615599z" fill="#ffe0e2"/><path id="Shape" d="m14.53 5.47c-3.6617116 2.30173474-6.75826526 5.3982884-9.06 9.06-.31321867-.806602-.4726323-1.6647221-.47-2.53.00440864-3.86416566 3.13583434-6.99559136 7-7 .8652779-.0026323 1.723398.15678133 2.53.47z" fill="#ffe7e8"/><path id="Shape" d="m55 12c.0026323.8652779-.1567813 1.723398-.47 2.53-2.3017347-3.6617116-5.3982884-6.75826526-9.06-9.06.806602-.31321867 1.6647221-.4726323 2.53-.47 3.8641657.00440864 6.9955914 3.13583434 7 7z" fill="#ffe7e8"/><path id="Shape" d="m59 12c.00594 2.4277513-.7962043 4.7884481-2.28 6.71-.6096612-1.453143-1.3423239-2.8515586-2.19-4.18.3132187-.806602.4726323-1.6647221.47-2.53-.0044086-3.86416566-3.1358343-6.99559136-7-7-.8652779-.0026323-1.723398.15678133-2.53.47-1.3284414-.84767609-2.726857-1.58033885-4.18-2.19 3.3217736-2.55714102 7.8082104-3.00395542 11.5690769-1.15219055 3.7608665 1.85176486 6.1422893 5.68015667 6.1409231 9.87219055z" fill="#ffe0e2"/><path id="Shape" d="m14.53 54.53c-.806602.3132187-1.6647221.4726323-2.53.47-3.86416566-.0044086-6.99559136-3.1358343-7-7-.0026323-.8652779.15678133-1.723398.47-2.53 2.30173474 3.6617116 5.3982884 6.7582653 9.06 9.06z" fill="#ffe7e8"/><path id="Shape" d="m18.71 56.72c-4.3792409 3.3837555-10.59056196 2.9871261-14.50384401-.926156-3.91328205-3.913282-4.30991154-10.1246031-.92615599-14.503844.60966115 1.453143 1.34232391 2.8515586 2.19 4.18-.31321867.806602-.4726323 1.6647221-.47 2.53.00440864 3.8641657 3.13583434 6.9955914 7 7 .8652779.0026323 1.723398-.1567813 2.53-.47 1.3284414.8476761 2.726857 1.5803388 4.18 2.19z" fill="#ffe0e2"/><path id="Shape" d="m55 48c-.0044086 3.8641657-3.1358343 6.9955914-7 7-.8652779.0026323-1.723398-.1567813-2.53-.47 3.6617116-2.3017347 6.7582653-5.3982884 9.06-9.06.3132187.806602.4726323 1.6647221.47 2.53z" fill="#ffe7e8"/><path id="Shape" d="m59 48c.0013662 4.1920339-2.3800566 8.0204257-6.1409231 9.8721906-3.7608665 1.8517648-8.2473033 1.4049504-11.5690769-1.1521906 1.453143-.6096612 2.8515586-1.3423239 4.18-2.19.806602.3132187 1.6647221.4726323 2.53.47 3.8641657-.0044086 6.9955914-3.1358343 7-7 .0026323-.8652779-.1567813-1.723398-.47-2.53.8476761-1.3284414 1.5803388-2.726857 2.19-4.18 1.4837957 1.9215519 2.28594 4.2822487 2.28 6.71z" fill="#ffe0e2"/><path id="Shape" d="m58.713 55.823-17.841-30.753c-.3902726-.6632965-1.102406-1.0705464-1.872-1.0705464s-1.4817274.4072499-1.872 1.0705464l-17.841 30.753c-.3777992.6616658-.3722452 1.4750032.014555 2.1314477.3868002.6564446 1.0955811 1.055416 1.857445 1.0455523h35.682c.7618639.0098637 1.4706448-.3891077 1.857445-1.0455523.3868002-.6564445.3923542-1.4697819.014555-2.1314477z" fill="#ffe7e8"/><path id="Shape" d="m58.713 55.823-17.841-30.753c-.3375769-.5702238-.9164915-.9556486-1.5728031-1.0471273-.6563117-.0914788-1.3185569.1209492-1.7991969.5771273.1454685.1399055.2706786.2994474.372.474l17.841 30.749c.3777992.6616658.3722452 1.4750032-.014555 2.1314477-.3868002.6564446-1.0955811 1.055416-1.857445 1.0455523h3c.7618639.0098637 1.4706448-.3891077 1.857445-1.0455523.3868002-.6564445.3923542-1.4697819.014555-2.1314477z" fill="#ffc9cc"/><path id="Shape" d="m39 46c-1.1675722.0321302-2.1674456-.8303528-2.307-1.99l-.681-7.66c-.0334174-.6246681.1968417-1.2346899.63469-1.6814738.4378482-.446784 1.0430943-.6893185 1.66831-.6685262h1.37c.6258986-.0219408 1.2322202.220088 1.6709615.6670069.4387413.446919.6695329 1.0576064.6360385 1.6829931l-.681 7.66c-.1396837 1.1612159-1.1419141 2.0242355-2.311 1.99z" fill="#ffe0e2"/><rect id="Rectangle-path" fill="#ffe0e2" height="4" rx="1" width="4" x="37" y="50"/><path id="Shape" d="m3.28 41.29c-2.54723856 3.3240827-2.9885326 7.8052987-1.13862326 11.5623967 1.84990935 3.757098 5.67079713 6.1397128 9.85862326 6.1476033.4883303-.0013574.9760451-.0347625 1.46-.1-3.87183615-.557694-7.15799969-3.1258001-8.63488768-6.7480838-1.47688799-3.6222838-.92320402-7.7559835 1.45488768-10.8619162-3.04154885-7.2193919-3.04154885-15.3606081 0-22.58-2.37227977-3.1059479-2.92254923-7.235837-1.44627082-10.85456957 1.47627841-3.6187326 4.75835621-6.18519822 8.62627082-6.74543043-.4837307-.06861723-.9714488-.10536311-1.46-.11-4.18747646.00865824-8.007742 2.39137196-9.85749755 6.14815761-1.84975556 3.75678569-1.40891926 8.23756869 1.13749755 11.56184239-3.04154885 7.2193919-3.04154885 15.3606081 0 22.58z" fill="#fff"/><path id="Shape" d="m3.071 37.625-1.925.544c-.7497664-2.658624-1.13528384-5.4066972-1.146-8.169h2c.01056995 2.5784022.37085472 5.1434548 1.071 7.625z" fill="#fff"/><g fill="#ff414c"><path id="Shape" d="m1.3 34.989c-.55228473.0027614-1.00223852-.4427153-1.00499994-.995-.00276143-.5522847.44271521-1.0022385.99499994-1.005h.01c.55228475 0 1 .4477153 1 1s-.44771525 1-1 1z"/><path id="Shape" d="m31 10c0-.55228475-.4477153-1-1-1-4.5471255-.01074285-8.9726579 1.4679469-12.6 4.21-.4418278.3313709-.5313708.9581722-.2 1.4.3313709.4418278.9581722.5313708 1.4.2 3.2810362-2.4826195 7.2855768-3.8209791 11.4-3.81.5522847 0 1-.4477153 1-1z"/><path id="Shape" d="m13.2 17.412c-.9456765 1.2588233-1.7467151 2.6200522-2.388 4.058-.1574171.3281292-.1241402.7158732.0868843 1.0123822.2110245.2965089.5664752.4549628.9280655.4137159.3615904-.0412469.6722239-.2756815.8110502-.6120981.580929-1.3007642 1.306143-2.5321521 2.162-3.671.3313708-.4418278.2418278-1.0686291-.2-1.4-.4418278-.3313708-1.0686291-.2418278-1.4.2z"/><path id="Shape" d="m58.585 53.609c.9205193-1.7268777 1.4062058-3.6521186 1.415-5.609.0078928-2.4496352-.7439616-4.8414545-2.152-6.846 2.8717435-7.1559709 2.8717435-15.1440291 0-22.3 1.4091401-2.0070127 2.1610226-4.4017165 2.152-6.854-.0071648-6.62444695-5.375553-11.99283515-12-12-2.4523561-.00751294-4.8466794.74575733-6.853 2.156-7.1533264-2.87469111-15.1406736-2.87469111-22.294 0-2.0063206-1.41024267-4.4006439-2.16351294-6.853-2.156-6.62444695.00716485-11.99283515 5.37555305-12 12-.00764459 2.4523761.74563794 4.8467384 2.156 6.853-1.42531092 3.5434805-2.15721873 7.3276069-2.156 11.147 0 .5522847.44771525 1 1 1s1-.4477153 1-1c.01040748-11.3434135 6.86374851-21.55978014 17.355512-25.87209252 10.4917634-4.31231237 22.5487059-1.86842841 30.5331966 6.18893142 7.9844907 8.0573598 10.3187402 20.1360066 5.9112914 30.5881611-.5909168 1.4085577-1.3015193 2.7638548-2.124 4.051l-.057.089-1.154-1.989c5.4180922-9.3049223 4.5401503-20.9867527-2.2078386-29.3773395-6.747989-8.39058673-17.9696526-11.75365211-28.2201172-8.45740001-10.2504645 3.29625209-17.40858461 12.56972291-18.00116221 23.32082291-.5925776 10.7511001 5.50301038 20.7550869 15.32911801 25.1579166l-.943 1.626c-.027.047-.036.1-.061.145-7.4543867-3.4354636-13.03838769-9.9529313-15.29-17.846-.1580431-.5213235-.69784535-.8264482-1.226-.693-.26024079.0658329-.48223818.2352296-.61444354.4688553-.13220535.2336258-.16311675.5111551-.08555646.7681447.2827341 1.0097363.62057366 2.0032249 1.012 2.976-1.4110521 2.0067308-2.16470022 4.4018434-2.157 6.855.00716485 6.624447 5.37555305 11.9928352 12 12 2.2351599.0077093 4.4270166-.6162576 6.323-1.8.036.075.052.154.094.226.5617519.9822754 1.6104858 1.5842838 2.742 1.574h35.682c1.1321398.009672 2.1810213-.5935688 2.742-1.577.5606599-.9572834.5606599-2.1427166 0-3.1zm-56.585-41.609c.00310994-3.50108062 1.8353591-6.74605668 4.83166903-8.55705143s6.72110097-1.92474023 9.82233097-.29994857c-.765.382-1.514.79-2.24 1.233-2.8467547-.90519017-5.96068295-.14722592-8.07295443 1.96504557-2.11227149 2.11227148-2.87023574 5.22619973-1.96504557 8.07295443-.443.726-.851 1.475-1.233 2.24-.75570301-1.4345782-1.1481591-3.0325578-1.143-4.654zm4 .019v-.019c.00330738-3.31233757 2.68766243-5.99669262 6-6h.019c-2.28022928 1.71234525-4.30665475 3.73877072-6.019 6.019zm42-10.019c3.5010806.00310994 6.7460567 1.8353591 8.5570514 4.83166903 1.8109948 2.99630993 1.9247403 6.72110097.2999486 9.82233097-.382-.765-.79-1.514-1.233-2.24.9051902-2.8467547.1472259-5.96068295-1.9650456-8.07295443-2.1122714-2.11227149-5.2261997-2.87023574-8.0729544-1.96504557-.726-.443-1.475-.851-2.24-1.233 1.4345782-.75570301 3.0325578-1.1481591 4.654-1.143zm-.019 4h.019c3.3123376.00330738 5.9966926 2.68766243 6 6v.019c-1.7123452-2.28022928-3.7387707-4.30665475-6.019-6.019zm7.393 40c.5403465-.8602194 1.0353552-1.7480976 1.483-2.66.7569257 1.4362703 1.1494273 3.0364953 1.143 4.66-.0071596 1.1911809-.2262416 2.3715828-.647 3.486l-2.616-4.509c.234-.335.452-.662.637-.97zm-49.374-16c-.00347857-9.9597034 6.1447797-18.8865937 15.4512289-22.43422763 9.3064491-3.54763396 19.8369319-.97870758 26.4642265 6.45598603 6.6272946 7.4346936 7.9740519 18.1900037 3.3845446 27.0292416l-9.564-16.483c-.5622397-.9780818-1.6078731-1.5773337-2.736-1.568-.5305539.0007982-1.0524495.1345382-1.518.389-2.8370629-3.2153616-7.4096424-4.2615345-11.3625779-2.599675s-6.4043987 5.6610206-6.0917347 9.9376685c.3126641 4.2766479 3.3197056 7.87674 7.4723126 8.9460065l-7.125 12.282c-8.7505004-3.7857719-14.40421918-12.4207212-14.375-21.955zm22.551 7.861c-3.4706518-.6292518-6.1188581-3.4585609-6.5174863-6.9631974-.3986282-3.5046366 1.5465229-6.8564084 4.7872008-8.2490275 3.240678-1.3926192 7.0110675-.4969913 9.2792855 2.2042249zm-16.528 16.139h-.023c-3.31233757-.0033074-5.99669262-2.6876624-6-6 0-.015 0-.028 0-.043 1.71502828 2.2862242 3.74247379 4.3204021 6.023 6.043zm-10.023-6c-.00533927-1.6237381.38818643-3.2239386 1.146-4.66.38.7606667.79166667 1.5046667 1.235 2.232-.91195753 2.8461474-.15925564 5.9632944 1.9510074 8.079662 2.11026305 2.1163675 5.2252228 2.8780704 8.0739926 1.974338.7266667.4446667 1.472.8566667 2.236 1.236-3.1009735 1.6206151-6.82319234 1.5039004-9.81654116-.3078096-2.99334881-1.8117099-4.82305781-5.0552728-4.82545884-8.5541904zm55.85 9.425c-.2072804.3603544-.5933176.5803459-1.009.575h-35.682c-.4156824.0053459-.8017196-.2146456-1.009-.575-.2007171-.339198-.2007171-.760802 0-1.1l9.806-16.9.014-.023 8.022-13.829c.2111919-.3544901.5933679-.5716629 1.006-.5716629s.7948081.2171728 1.006.5716629l17.844 30.752c.2013342.338833.2021007.7604371.002 1.1z"/><path id="Shape" d="m39.685 33h-1.37c-.9482156-.00498-1.855072.3878702-2.5 1.083-.5910803.6352698-.8844468 1.4917398-.807 2.356l.681 7.66c.176927 1.6831729 1.6191743 2.9468272 3.311 2.901 1.6873008.0400424 3.1228967-1.2215419 3.3-2.9l.681-7.661c.0772842-.8639394-.2160795-1.7200377-.807-2.355-.6421562-.6926783-1.544455-1.0856442-2.489-1.084zm.629 10.922c-.0967227.6431427-.6643558 1.1088265-1.314 1.078-.6484776.0286566-1.2138806-.4370456-1.31-1.079l-.69-7.659c-.0247339-.3050688.0810143-.6063237.291-.829.2655944-.2814235.6370772-.4385056 1.024-.433h1.37c.3855373-.0043822.7553522.1526078 1.02.433.2098265.2223688.3155718.5232522.291.828z"/><path id="Shape" d="m40 49h-2c-1.1045695 0-2 .8954305-2 2v2c0 1.1045695.8954305 2 2 2h2c1.1045695 0 2-.8954305 2-2v-2c0-1.1045695-.8954305-2-2-2zm-2 4v-2h2v2z"/></g></g></g></svg>