<svg height="512" viewBox="0 0 60 60" width="512" xmlns="http://www.w3.org/2000/svg"><g id="Page-1" fill="none" fill-rule="evenodd"><g id="040---Speaker-Error" fill-rule="nonzero"><path id="Shape" d="m56.72 18.71c-.6096612-1.453143-1.3423239-2.8515586-2.19-4.18-2.3017347-3.6617116-5.3982884-6.75826526-9.06-9.06-1.3284414-.84767609-2.726857-1.58033885-4.18-2.19-7.2197127-3.03996072-15.3602873-3.03996072-22.58 0-1.453143.60966115-2.8515586 1.34232391-4.18 2.19-3.6617116 2.30173474-6.75826526 5.3982884-9.06 9.06-.84767609 1.3284414-1.58033885 2.726857-2.19 4.18-3.03996072 7.2197127-3.03996072 15.3602873 0 22.58.60966115 1.453143 1.34232391 2.8515586 2.19 4.18 2.30173474 3.6617116 5.3982884 6.7582653 9.06 9.06 1.3284414.8476761 2.726857 1.5803388 4.18 2.19 7.2197127 3.0399607 15.3602873 3.0399607 22.58 0 1.453143-.6096612 2.8515586-1.3423239 4.18-2.19 3.6617116-2.3017347 6.7582653-5.3982884 9.06-9.06.8476761-1.3284414 1.5803388-2.726857 2.19-4.18 3.0399607-7.2197127 3.0399607-15.3602873 0-22.58zm-26.72 36.29c-13.8071187 0-25-11.1928813-25-25s11.1928813-25 25-25 25 11.1928813 25 25c-.0121298 13.8020913-11.1979087 24.9878702-25 25z" fill="#ffe7e8"/><path id="Shape" d="m56.72 18.71c-.6096612-1.453143-1.3423239-2.8515586-2.19-4.18-2.3017347-3.6617116-5.3982884-6.75826526-9.06-9.06-1.3284414-.84767609-2.726857-1.58033885-4.18-2.19-3.572151-1.51008701-7.4117793-2.28549468-11.29-2.28-.5033333 0-1.0033333.01266667-1.5.038 3.3693685.16882032 6.682965.9276644 9.79 2.242 1.453143.60966115 2.8515586 1.34232391 4.18 2.19 3.6617116 2.30173474 6.7582653 5.3982884 9.06 9.06.8476761 1.3284414 1.5803388 2.726857 2.19 4.18 3.0399607 7.2197127 3.0399607 15.3602873 0 22.58-.6096612 1.453143-1.3423239 2.8515586-2.19 4.18-2.3017347 3.6617116-5.3982884 6.7582653-9.06 9.06-1.3284414.8476761-2.726857 1.5803388-4.18 2.19-3.107035 1.3143356-6.4206315 2.0731797-9.79 2.242.4973333.0253333.9973333.038 1.5.038 3.8782207.0054947 7.717849-.769913 11.29-2.28 1.453143-.6096612 2.8515586-1.3423239 4.18-2.19 3.6617116-2.3017347 6.7582653-5.3982884 9.06-9.06.8476761-1.3284414 1.5803388-2.726857 2.19-4.18 3.0399607-7.2197127 3.0399607-15.3602873 0-22.58z" fill="#ffc9cc"/><circle id="Oval" cx="30" cy="30" fill="#ffe7e8" r="25"/><path id="Shape" d="m30 5c-.5 0-1 .019-1.5.049 13.1671239.83401357 23.4196519 11.7564891 23.4196519 24.95s-10.252528 24.1159864-23.4196519 24.95c.5.03 1 .049 1.5.049 13.7193264-.1227131 24.7763954-11.2791248 24.7763954-24.999s-11.057069-24.87628693-24.7763954-24.999z" fill="#ffc9cc"/><circle id="Oval" cx="30" cy="30" fill="#ffe0e2" r="9"/><path id="Shape" d="m30 21c-.5028835.0032224-1.0046224.0483789-1.5.135 4.3297277.7267089 7.5010833 4.4747098 7.5010833 8.865s-3.1713556 8.1382911-7.5010833 8.865c3.3570875.5877651 6.7581917-.7711782 8.7859125-3.5104942 2.0277208-2.7393161 2.334161-6.389019.7916126-9.4281058-1.5425485-3.0390868-4.6694296-4.9461397-8.0775251-4.9264z" fill="#ff9ea1"/><path id="Shape" d="m18.71 3.28c-1.453143.60966115-2.8515586 1.34232391-4.18 2.19-.806602-.31321867-1.6647221-.4726323-2.53-.47-3.86416566.00440864-6.99559136 3.13583434-7 7-.0026323.8652779.15678133 1.723398.47 2.53-.84767609 1.3284414-1.58033885 2.726857-2.19 4.18-3.38375555-4.3792409-2.98712606-10.59056196.92615599-14.50384401s10.12460311-4.30991154 14.50384401-.92615599z" fill="#ffe0e2"/><path id="Shape" d="m14.53 5.47c-3.6617116 2.30173474-6.75826526 5.3982884-9.06 9.06-.31321867-.806602-.4726323-1.6647221-.47-2.53.00440864-3.86416566 3.13583434-6.99559136 7-7 .8652779-.0026323 1.723398.15678133 2.53.47z" fill="#ffe7e8"/><path id="Shape" d="m55 12c.0026323.8652779-.1567813 1.723398-.47 2.53-2.3017347-3.6617116-5.3982884-6.75826526-9.06-9.06.806602-.31321867 1.6647221-.4726323 2.53-.47 3.8641657.00440864 6.9955914 3.13583434 7 7z" fill="#ffe7e8"/><path id="Shape" d="m59 12c.00594 2.4277513-.7962043 4.7884481-2.28 6.71-.6096612-1.453143-1.3423239-2.8515586-2.19-4.18.3132187-.806602.4726323-1.6647221.47-2.53-.0044086-3.86416566-3.1358343-6.99559136-7-7-.8652779-.0026323-1.723398.15678133-2.53.47-1.3284414-.84767609-2.726857-1.58033885-4.18-2.19 3.3217736-2.55714102 7.8082104-3.00395542 11.5690769-1.15219055 3.7608665 1.85176486 6.1422893 5.68015667 6.1409231 9.87219055z" fill="#ffe0e2"/><path id="Shape" d="m14.53 54.53c-.806602.3132187-1.6647221.4726323-2.53.47-3.86416566-.0044086-6.99559136-3.1358343-7-7-.0026323-.8652779.15678133-1.723398.47-2.53 2.30173474 3.6617116 5.3982884 6.7582653 9.06 9.06z" fill="#ffe7e8"/><path id="Shape" d="m18.71 56.72c-4.3792409 3.3837555-10.59056196 2.9871261-14.50384401-.926156-3.91328205-3.913282-4.30991154-10.1246031-.92615599-14.503844.60966115 1.453143 1.34232391 2.8515586 2.19 4.18-.31321867.806602-.4726323 1.6647221-.47 2.53.00440864 3.8641657 3.13583434 6.9955914 7 7 .8652779.0026323 1.723398-.1567813 2.53-.47 1.3284414.8476761 2.726857 1.5803388 4.18 2.19z" fill="#ffe0e2"/><circle id="Oval" cx="42" cy="42" fill="#ffe7e8" r="17"/><path id="Shape" d="m42 25c-.506 0-1.005.032-1.5.076 8.7736376.7696911 15.5042963 8.1166655 15.5042963 16.924s-6.7306587 16.1543089-15.5042963 16.924c.495.044.994.076 1.5.076 9.3888407 0 17-7.6111593 17-17s-7.6111593-17-17-17z" fill="#ffc9cc"/><path id="Shape" d="m12 59c.4883303-.0013574.9760451-.0347625 1.46-.1-3.87183615-.557694-7.15799969-3.1258001-8.63488768-6.7480838-1.47688799-3.6222838-.92320402-7.7559835 1.45488768-10.8619162-3.04154885-7.2193919-3.04154885-15.3606081 0-22.58-2.37227977-3.1059479-2.92254923-7.235837-1.44627082-10.85456957 1.47627841-3.6187326 4.75835621-6.18519822 8.62627082-6.74543043-.4837307-.06861723-.9714488-.10536311-1.46-.11-4.18747646.00865824-8.007742 2.39137196-9.85749755 6.14815761-1.84975556 3.75678569-1.40891926 8.23756869 1.13749755 11.56184239-3.04154885 7.2193919-3.04154885 15.3606081 0 22.58-2.54723856 3.3240827-2.9885326 7.8052987-1.13862326 11.5623967 1.84990935 3.757098 5.67079713 6.1397128 9.85862326 6.1476033z" fill="#fff"/><path id="Shape" d="m3.064 37.627-1.925.544c-.72604872-2.6640552-1.10881317-5.4099448-1.139-8.171h2c.03039698 2.5771219.38792321 5.1399533 1.064 7.627z" fill="#fff"/><g fill="#ff414c"><path id="Shape" d="m1.318 34.99c-.3572656.0016077-.68825034-.1875056-.86827545-.4961029-.18002511-.3085972-.1817405-.6897951-.0045-1s.50650985-.5022894.86377545-.5038971h.009c.55228475 0 1 .4477153 1 1s-.44771525 1-1 1z"/><path id="Shape" d="m1 31c.55228475 0 1-.4477153 1-1 .00000023-15.4639728 12.5360272-27.99999958 28-27.99999958s27.9999998 12.53602678 28 27.99999958c0 .5522847.4477153 1 1 1s1-.4477153 1-1c.0012187-3.8193931-.7306891-7.6035195-2.156-11.147 1.4103621-2.0062616 2.1636446-4.4006239 2.156-6.853-.0071648-6.62444695-5.375553-11.99283515-12-12-2.4523561-.00751294-4.8466794.74575733-6.853 2.156-7.1533264-2.87469111-15.1406736-2.87469111-22.294 0-2.0063206-1.41024267-4.4006439-2.16351294-6.853-2.156-6.62444695.00716485-11.99283515 5.37555305-12 12-.00764459 2.4523761.74563794 4.8467384 2.156 6.853-1.42531092 3.5434805-2.15721873 7.3276069-2.156 11.147 0 .2652165.10535684.5195704.29289322.7071068s.44189029.2928932.70710678.2928932zm46.981-25h.019c3.3123376.00330738 5.9966926 2.68766243 6 6v.019c-1.7123452-2.28022928-3.7387707-4.30665475-6.019-6.019zm.019-4c3.5010806.00310994 6.7460567 1.8353591 8.5570514 4.83166903 1.8109948 2.99630993 1.9247403 6.72110097.2999486 9.82233097-.382-.765-.79-1.514-1.233-2.24.9051902-2.8467547.1472259-5.96068295-1.9650456-8.07295443-2.1122714-2.11227149-5.2261997-2.87023574-8.0729544-1.96504557-.726-.443-1.475-.851-2.24-1.233 1.4345782-.75570301 3.0325578-1.1481591 4.654-1.143zm-42 10.019v-.019c.00330738-3.31233757 2.68766243-5.99669262 6-6h.019c-2.28022928 1.71234525-4.30665475 3.73877072-6.019 6.019zm-4-.019c.00310994-3.50108062 1.8353591-6.74605668 4.83166903-8.55705143s6.72110097-1.92474023 9.82233097-.29994857c-.765.382-1.514.79-2.24 1.233-2.8467547-.90519017-5.96068295-.14722592-8.07295443 1.96504557-2.11227149 2.11227148-2.87023574 5.22619973-1.96504557 8.07295443-.443.726-.851 1.475-1.233 2.24-.75570301-1.4345782-1.1481591-3.0325578-1.143-4.654z"/><path id="Shape" d="m53.7 26.207c.0516431.3568743.291419.6583071.6275323.7888986.3361134.1305914.7165035.0701142.9955429-.1582787.2790393-.228393.4135074-.5893258.3519248-.9446199-2.1017183-13.1292899-13.7706364-22.55722244-27.0484668-21.85387868-13.2778304.70334375-23.88542215 11.31129168-24.58832007 24.58914568-.70289793 13.277854 8.72542637 24.9464555 21.85478687 27.047733.0522362.0084303.1050898.0124445.158.012.520136-.0024206.9515673-.4031738.9922785-.9217197s-.3228931-.9817176-.8362785-1.0652803c-12.3673969-1.9706377-21.14061429-13.1193786-20.14793385-25.6033886.99268045-12.48401 11.41752195-22.10619503 23.94093385-22.0976114 11.7633727.07449737 21.766552 8.6033685 23.7 20.207z"/><path id="Shape" d="m17.4 13.21c-.4418278.3313709-.5313708.9581722-.2 1.4.3313709.4418278.9581722.5313708 1.4.2 3.2810362-2.4826195 7.2855768-3.8209791 11.4-3.81.5522847 0 1-.4477153 1-1 0-.55228475-.4477153-1-1-1-4.5471255-.01074285-8.9726579 1.4679469-12.6 4.21z"/><path id="Shape" d="m13.2 17.412c-.9456765 1.2588233-1.7467151 2.6200522-2.388 4.058-.1574171.3281292-.1241402.7158732.0868843 1.0123822.2110245.2965089.5664752.4549628.9280655.4137159.3615904-.0412469.6722239-.2756815.8110502-.6120981.580929-1.3007642 1.306143-2.5321521 2.162-3.671.3313708-.4418278.2418278-1.0686291-.2-1.4-.4418278-.3313708-1.0686291-.2418278-1.4.2z"/><path id="Shape" d="m12 60c2.4628087.0072349 4.8667532-.7526045 6.878-2.174 1.5951572.6410392 3.2390754 1.1533425 4.916 1.532 2.0408985.4280408 4.120698.6431925 6.206.642.5522847 0 1-.4477153 1-1s-.4477153-1-1-1c-1.9468701.0006033-3.8885659-.2004698-5.794-.6-2.476535-.5502201-4.8728428-1.4138453-7.131-2.57-2.2520253-1.1697789-4.3302933-2.6472843-6.175-4.39-1.86987549-1.7183691-3.4830383-3.6965984-4.79-5.874-1.3253389-2.1637663-2.34912225-4.4983154-3.043-6.939-.1540651-.517146-.68488861-.824234-1.21-.7-.26385689.0621079-.49030554.2305202-.62570964.4653469-.13540411.2348267-.16771891.515179-.08929036.7746531.28391581 1.00663.62684228 1.995674 1.027 2.962-1.4184146 2.0098005-2.17644155 4.4110929-2.169 6.871.00716485 6.624447 5.37555305 11.9928352 12 12zm-2.469-8.1c.8.739 1.646 1.434 2.516 2.095-.016 0-.031 0-.047 0-3.31233757-.0033074-5.99669262-2.6876624-6-6 0-.011 0-.022 0-.033 1.05496132 1.4171782 2.2368464 2.7352931 3.531 3.938zm-6.376-8.578c.384.765.787 1.519 1.226 2.252-.91094674 2.8447761-.15879583 5.9601017 1.94979933 8.0758525 2.10859517 2.1157508 5.22135477 2.8784515 8.06920067 1.9771475.57.348 1.152.675 1.749.976.17.088.347.161.519.246-3.8818086 2.0403125-8.63971161 1.3163784-11.73901789-1.7861389-3.09930629-3.1025172-3.81831319-7.8611674-1.77398211-11.7408611z"/><path id="Shape" d="m42 24c-1.2602414.0013947-2.5168341.135467-3.749.4-2.2499716-3.339871-6.2869208-5.0000454-10.2355757-4.2093274-3.948655.7907181-7.0350576 3.8773436-7.8254906 7.8260556s.8700328 7.9855413 4.2100663 10.2352718c-1.587861 7.4586559 1.6965869 15.1084725 8.1980056 19.0939971s14.8087401 3.4417387 20.7351339-1.3572933c5.9263937-4.799032 8.1855952-12.8117282 5.638983-19.9997473-2.5466122-7.188019-9.3463212-11.991273-16.9721225-11.9889565zm-20 6c-.0037287-3.3867227 2.1291412-6.4074923 5.3218548-7.5373082 3.1927137-1.129816 6.7508581-.122944 8.8781452 2.5123082-5.27336 1.8090295-9.4159705 5.95164-11.225 11.225-1.873726-1.5140029-2.9663474-3.7910627-2.975-6.2zm20 28c-8.836556 0-16-7.163444-16-16s7.163444-16 16-16 16 7.163444 16 16c-.0104696 8.8322157-7.1677843 15.9895304-16 16z"/><path id="Shape" d="m48.707 35.293c-.3904999-.3903819-1.0235001-.3903819-1.414 0l-5.293 5.293-5.293-5.293c-.3923789-.3789722-1.0160848-.3735524-1.4018186.0121814s-.3911536 1.0094397-.0121814 1.4018186l5.293 5.293-5.293 5.293c-.2599566.2510745-.3642126.6228779-.2726972.9725073.0915155.3496295.3645604.6226744.7141899.7141899.3496294.0915154.7214328-.0127406.9725073-.2726972l5.293-5.293 5.293 5.293c.3923789.3789722 1.0160848.3735524 1.4018186-.0121814s.3911536-1.0094397.0121814-1.4018186l-5.293-5.293 5.293-5.293c.3903819-.3904999.3903819-1.0235001 0-1.414z"/></g></g></g></svg>