<svg height="512" viewBox="0 0 60 60" width="512" xmlns="http://www.w3.org/2000/svg"><g id="Page-1" fill="none" fill-rule="evenodd"><g id="042---Settings" fill-rule="nonzero" transform="translate(-1)"><path id="Shape" d="m30.45 38.24-16.74 18.54c-1.6638735 1.840922-4.20693399 2.6149173-6.61427174 2.0130922-2.40733776-.6018251-4.28699539-2.4814827-4.88882046-4.8888205-.60182507-2.4073377.17217025-4.9503982 2.0130922-6.6142717l19-17.15z" fill="#ffe7e8"/><path id="Shape" d="m23.22 30.14-1.661 1.5 5.891 6.6-16.74 18.54c-.91966523 1.0229867-2.13244567 1.7374551-3.473 2.046 2.36905261.5424929 4.8461178-.2404632 6.473-2.046l16.74-18.54z" fill="#ffc9cc"/><path id="Shape" d="m57.77 56.77c-1.4779193 1.4805105-3.5007414 2.2863729-5.5918452 2.2277084-2.0911038-.0586644-4.0655641-.9766678-5.4581548-2.5377084l-16.27-18.22-7.23-8.1-3.45-3.86c-4.3683167 1.6849888-9.3042944.9040394-12.93909178-2.0471683-3.63479738-2.9512076-5.41283089-7.6215774-4.66090822-12.2428317.05423622-.3776592.31705108-.6923309.67900585-.8129824.36195478-.1206516.76100964-.0266033 1.03099415.2429824l7.8 7.8c.4328638.4281566 1.0342035.6408256 1.64.58l5.13-.56c.9394849-.1095477 1.6804523-.8505151 1.79-1.79l.56-5.13c.0608256-.6057965-.1518434-1.2071362-.58-1.64l-7.8-7.8c-.2695857-.26998451-.363634-.66903937-.2429824-1.03099415.1206515-.36195477.4353232-.62476963.8129824-.67900585 4.6212543-.75192267 9.2916241 1.02611084 12.2428317 4.66090822 2.9512077 3.63479738 3.7321571 8.57077508 2.0471683 12.93909178l6.39 5.7 3.02 2.7 20.77 18.55c1.5610406 1.3925907 2.479044 3.367051 2.5377084 5.4581548.0586645 2.0911038-.7471979 4.1139259-2.2277084 5.5918452z" fill="#ffe7e8"/><path id="Shape" d="m8.68 19.22c.43286377.4281566 1.03420351.6408256 1.64.58l1.9-.208c-.2007298-.0929359-.3845786-.218656-.544-.372l-7.8-7.8c-.26998451-.2695857-.66903937-.363634-1.03099415-.2429824-.36195477.1206515-.62476963.4353232-.67900585.8129824-.035.216-.043.435-.068.652z" fill="#ffc9cc"/><path id="Shape" d="m57.46 45.72-20.77-18.55-3.02-2.7-6.39-5.7c1.6509681-4.2650491.9474464-9.08323417-1.854106-12.69815373s-7.2918029-5.49840046-11.833894-4.96384627c4.0156689.45463824 7.593345 2.74615401 9.6856438 6.20369342 2.0922988 3.45753938 2.4625484 7.69000038 1.0023562 11.45830658l6.39 5.7 3.02 2.7 20.77 18.55c2.1490605 1.9164904 3.0304681 4.8829293 2.2765729 7.6619648s-3.0136075 4.8933531-5.8365729 5.4610352c3.3643467.6785887 6.7660148-.9818619 8.3006159-4.0517659s.8212808-6.7873785-1.7406159-9.0712341z" fill="#ffc9cc"/><path id="Shape" d="m48.99 14.87-12.3 12.3-3.02-2.7 12.46-12.46z" fill="#ffe0e2"/><path id="Shape" d="m59.7 7.01-5.3 5.31c-.271776.2733948-.5945343.4908321-.95.64l-4.46 1.91-2.86-2.86 1.91-4.46c.1491679-.35546566.3666052-.67822404.64-.95l5.31-5.3c.1881405-.19241273.4458913-.30087555.715-.30087555s.5268595.10846282.715.30087555l4.28 4.28c.1924127.18814048.3008755.44589129.3008755.715s-.1084628.52685952-.3008755.715z" fill="#ffe7e8"/><circle id="Oval" cx="9" cy="52" fill="#ffe0e2" r="3"/><circle id="Oval" cx="52" cy="51" fill="#ffe0e2" r="3"/><path id="Shape" d="m3.97 57.03c1.62220371 1.6123826 3.95596855 2.2838068 6.187 1.78-2.42659648-.5789343-4.33223603-2.4553955-4.94854084-4.8727708-.61630482-2.4173754.15832186-4.9771649 2.01154084-6.6472292l.566-.511 18.434-16.639-3.45-3.86c-.7772664.2986731-1.5807662.5239878-2.4.673l2.85 3.187-18.434 16.639-.566.511c-1.36837675 1.2333821-2.17004195 2.9747064-2.21731068 4.8162959-.04726872 1.8415896.66400937 3.6217471 1.96731068 4.9237041z" fill="#fff"/><path id="Shape" d="m3.88 11.42c-.26998451-.2695857-.66903937-.363634-1.03099415-.2429824-.36195477.1206515-.62476963.4353232-.67900585.8129824-.035.216-.043.435-.068.652-.44512839 3.9517695.93508863 7.8909685 3.74932061 10.7007229 2.81423197 2.8097545 6.75562369 4.1836973 10.70667939 3.7322771-7.14327973-.8321214-12.26728568-7.2860971-11.458-14.432z" fill="#fff"/><path id="Rectangle-path" d="m3.19 43.61h8v2h-8z" fill="#fff" transform="matrix(.742 -.67 .67 .742 -28.038 16.312)"/><g fill="#ff414c"><path id="Shape" d="m50.653 52.509c-.3923789-.3789722-1.0160848-.3735524-1.4018186.0121814s-.3911536 1.0094397-.0121814 1.4018186c1.5695574 1.5694051 4.1141765 1.5693228 5.6836324-.0001838s1.5694559-4.1141258 0-5.6836324-4.114075-1.5695889-5.6836324-.0001838c-.3789722.3923789-.3735524 1.0160848.0121814 1.4018186s1.0094397.3911536 1.4018186.0121814c.7885711-.7881829 2.0667505-.7879732 2.8550628.0004686.7883124.7884417.7883124 2.0666211 0 2.8550628-.7883123.7884418-2.0664917.7886515-2.8550628.0004686z"/><path id="Shape" d="m44.97 45.385c.3904653.3907414 1.0237585.3909653 1.4145.0005.3907414-.3904653.3909653-1.0237585.0005-1.4145l-.712-.712c-.3904653-.3907414-1.0237585-.3909653-1.4145-.0005-.3907414.3904653-.3909653 1.0237585-.0005 1.4145z"/><path id="Shape" d="m41.413 41.827c.3923789.3789722 1.0160848.3735524 1.4018186-.0121814s.3911536-1.0094397.0121814-1.4018186l-13.519-13.519c-.3923789-.3789722-1.0160848-.3735524-1.4018186.0121814s-.3911536 1.0094397-.0121814 1.4018186z"/><path id="Shape" d="m25.038 4.124c-3.2013725-3.19423341-7.7400027-4.66013101-12.205-3.942-.7537467.11909878-1.3765368.65181437-1.611 1.378-.2318056.71432803-.0423813 1.49831279.49 2.028l7.8 7.8c.2176597.2166936.3247709.5207273.291.826l-.56 5.133c-.0527133.4735082-.4264918.8472867-.9.9l-5.134.56c-.3045415.0316653-.6072553-.0747433-.825-.29l-7.8-7.8c-.52903889-.5327714-1.31280209-.7226223-2.027-.491-.72695802.2329842-1.26047881.8558765-1.379 1.61-.78667292 4.8514342 1.01479932 9.761787 4.75225876 12.9534425s8.86930644 4.2021072 13.53774124 2.6655575l2.336 2.616-12.315 11.116c-.26526972.2393679-.38268777.6020728-.3080239.951487.07466387.3494143.33006643.6324537.67000002.7425001.33993358.1100463.71275418.0303809.97802388-.2089871l12.311-11.113 2.3 2.581-6.457 6.46c-.2531227.2531227-.3519784.622057-.259329.967829.0926493.345772.362728.6158507.7085.7085.345772.0926494.7147063-.0062063.967829-.259329l6.382-6.383 19.189 21.493c1.5737866 1.7754175 3.8151468 2.8162173 6.187 2.873h.247c3.5681048-.0056318 6.7629392-2.2117273 8.0322559-5.5464294 1.2693168-3.3347022.3500134-7.1067978-2.3112559-9.4835706l-19.98-17.842 11.413-11.413 4.286-1.837c.4710377-.201929.8990719-.4921504 1.261-.855l5.3-5.3c.7842526-.78580269.7842526-2.05819731 0-2.844l-4.282-4.29c-.7859144-.78303823-2.0570856-.78303823-2.843 0l-5.3 5.3c-.3637266.36217806-.6543458.79097718-.856 1.263l-1.836 4.284-11.659 11.664-5.178-4.623c1.6574343-5.0454222.3376105-10.59417148-3.414-14.353zm23.922 3.818c.1014829-.23742008.2478246-.45302788.431-.635l5.318-5.307 4.291 4.306-5.3 5.3c-.183027.1835433-.3996214.3302029-.638.432l-3.837 1.645-1.9-1.9zm-2.834 5.485 1.447 1.447-10.922 10.92-1.527-1.364zm10.667 33.034c1.825879 1.6323995 2.599297 4.1406959 2.0097483 6.5178779-.5895488 2.377182-2.4453842 4.2334152-4.8224398 4.8234734s-4.8855178-.1828222-6.5183085-2.0083513l-26.945-30.176c-.2770091-.3100647-.7169772-.4163738-1.105-.267-4.037691 1.5588571-8.6011384.8340983-11.95718545-1.8990194-3.356047-2.7331177-4.98981545-7.0552849-4.28081455-11.3249806l7.8 7.8c.6453262.6454754 1.5486796.9632675 2.456.864l5.132-.56c1.40833-.1465672 2.5214328-1.25967 2.668-2.668l.56-5.132c.1010699-.9078256-.2169671-1.8122435-.864-2.457l-7.773-7.818c4.2680998-.69314705 8.5809677.94941107 11.3066662 4.30615002 2.7256984 3.35673896 3.4479006 7.91494598 1.8933338 11.94984998-.1493738.3880228-.0430647.8279909.267 1.105z"/><path id="Shape" d="m7.209 45.609c-.55228473.0027614-1.00223852-.4427153-1.00499994-.995-.00276143-.5522847.44271521-1.0022385.99499994-1.005h.01c.55228475 0 1 .4477153 1 1s-.44771525 1-1 1z"/><path id="Shape" d="m3.55 46.548c-2.37010926 2.1397205-3.17857557 5.5176404-2.03403102 8.498553 1.14454456 2.9809125 4.00594344 4.9497591 7.19903102 4.953447h.205c2.1171182-.0464098 4.1202035-.9686546 5.532-2.547l13.32-14.753c.354652-.4115312.3158739-1.0309312-.0873361-1.3950158-.4032101-.3640846-1.0233419-.3396571-1.3966639.0550158l-13.321 14.75c-1.4161945 1.5673666-3.58105082 2.226444-5.6303891 1.7141378s-3.64939326-2.1125593-4.16144575-4.161961c-.51205248-2.0494016.1472929-4.2141764 1.71483485-5.6301768.27481613-.2368328.39981071-.6039289.32662226-.9592558-.07318844-.3553268-.33307923-.6431461-.67911842-.7520983-.34603919-.1089521-.72394552-.0219463-.98750384.2273541z"/><path id="Shape" d="m4.938 52.029c-.00004923 1.8247539 1.22542484 3.4220799 2.987941 3.8945875s3.6226689-.2976021 4.5354094-1.8776753c.9127406-1.5800732.6505174-3.5761885-.6393504-4.8669122-.2525868-.2527654-.6208353-.3515768-.96603-.259213-.3451946.0923639-.6148921.3618707-.7075.707s.0059432.7134476.25853.966213c.791989.7939232.791989 2.0790768 0 2.873-.80425187.7666035-2.06874813.7666035-2.873 0-.3816016-.3806551-.59606289-.8975027-.59606289-1.4365s.21446129-1.0558449.59606289-1.4365c.37897221-.3923789.37355237-1.0160848-.01218142-1.4018186-.3857338-.3857338-1.00943969-.3911536-1.40181858-.0121814-.75927892.7537031-1.18498717 1.780157-1.182 2.85z"/><path id="Shape" d="m15.394 47.021 2.144-2.144c.3789722-.3923789.3735524-1.0160848-.0121814-1.4018186s-1.0094397-.3911536-1.4018186-.0121814l-2.144 2.143c-.3907414.3904653-.3909653 1.0237585-.0005 1.4145.3904653.3907414 1.0237585.3909653 1.4145.0005z"/></g></g></g></svg>