<svg height="512" viewBox="0 0 54 60" width="512" xmlns="http://www.w3.org/2000/svg"><g id="Page-1" fill="none" fill-rule="evenodd"><g id="043---Movie" fill-rule="nonzero"><path id="Shape" d="m9 1v58h-6c-1.10320187-.0032948-1.9967052-.8967981-2-2v-54c.0032948-1.10320187.89679813-1.9967052 2-2z" fill="#ffe7e8"/><path id="Shape" d="m53 3v54c-.0032948 1.1032019-.8967981 1.9967052-2 2h-6v-58h6c1.1032019.0032948 1.9967052.89679813 2 2z" fill="#ffe7e8"/><path id="Shape" d="m51 1h-3c1.1032019.0032948 1.9967052.89679813 2 2v54c-.0032948 1.1032019-.8967981 1.9967052-2 2h3c1.1032019-.0032948 1.9967052-.8967981 2-2v-54c-.0032948-1.10320187-.8967981-1.9967052-2-2z" fill="#ffc9cc"/><path id="Rectangle-path" d="m9 1h36v58h-36z" fill="#ffe7e8"/><path id="Shape" d="m15 16c-1.1045695 0-2-.8954305-2-2v-13h28v13c0 1.1045695-.8954305 2-2 2z" fill="#ffe0e2"/><path id="Shape" d="m39 44c1.1045695 0 2 .8954305 2 2v13h-28v-13c0-1.1045695.8954305-2 2-2z" fill="#ffe0e2"/><rect id="Rectangle-path" fill="#ffe0e2" height="20" rx="2" width="28" x="13" y="20"/><path id="Shape" d="m23 25.432v9.136c-.0525295.4835435.1759451.9545696.5882101 1.2126611s.9357783.2578347 1.3477899-.0006611l6.469-4.568c.3752416-.2901185.5949408-.7376847.5949408-1.212s-.2196992-.9218815-.5949408-1.212l-6.469-4.568c-.4120116-.2584958-.9355249-.2587526-1.3477899-.0006611s-.6407396.7291176-.5882101 1.2126611z" fill="#ffe7e8"/><path id="Shape" d="m6 1h-3c-1.10320187.0032948-1.9967052.89679813-2 2v54c.0032948 1.1032019.89679813 1.9967052 2 2h3c-1.10320187-.0032948-1.9967052-.8967981-2-2v-54c.0032948-1.10320187.89679813-1.9967052 2-2z" fill="#fff"/><path id="Rectangle-path" d="m0 49h2v8h-2z" fill="#fff"/><g fill="#ff414c"><circle id="Oval" cx="1" cy="53" r="1"/><path id="Shape" d="m3 60h48c1.6568542 0 3-1.3431458 3-3v-54c0-1.65685425-1.3431458-3-3-3h-48c-1.65685425 0-3 1.34314575-3 3v46c0 .5522847.44771525 1 1 1s1-.4477153 1-1v-46c0-.55228475.44771525-1 1-1h5v56h-5c-.55228475 0-1-.4477153-1-1s-.44771525-1-1-1-1 .4477153-1 1c0 1.6568542 1.34314575 3 3 3zm49-57v54c0 .5522847-.4477153 1-1 1h-5v-56h5c.5522847 0 1 .44771525 1 1zm-42-1h2v12c0 1.6568542 1.3431458 3 3 3 .5522847 0 1-.4477153 1-1s-.4477153-1-1-1-1-.4477153-1-1v-12h26v12c0 .5522847-.4477153 1-1 1h-19c-.5522847 0-1 .4477153-1 1s.4477153 1 1 1h19c1.6568542 0 3-1.3431458 3-3v-12h2v56h-2v-12c0-1.6568542-1.3431458-3-3-3-.5522847 0-1 .4477153-1 1s.4477153 1 1 1 1 .4477153 1 1v12h-26v-12c0-.5522847.4477153-1 1-1h19c.5522847 0 1-.4477153 1-1s-.4477153-1-1-1h-19c-1.6568542 0-3 1.3431458-3 3v12h-2z"/><path id="Shape" d="m15 41h24c1.6568542 0 3-1.3431458 3-3v-16c0-1.6568542-1.3431458-3-3-3h-24c-1.6568542 0-3 1.3431458-3 3v16c0 1.6568542 1.3431458 3 3 3zm-1-19c0-.5522847.4477153-1 1-1h24c.5522847 0 1 .4477153 1 1v16c0 .5522847-.4477153 1-1 1h-24c-.5522847 0-1-.4477153-1-1z"/><path id="Shape" d="m5 7c.55228475 0 1-.44771525 1-1v-1c0-.55228475-.44771525-1-1-1s-1 .44771525-1 1v1c0 .55228475.44771525 1 1 1z"/><path id="Shape" d="m4 11c0 .5522847.44771525 1 1 1s1-.4477153 1-1v-1c0-.55228475-.44771525-1-1-1s-1 .44771525-1 1z"/><path id="Shape" d="m4 16c0 .5522847.44771525 1 1 1s1-.4477153 1-1v-1c0-.5522847-.44771525-1-1-1s-1 .4477153-1 1z"/><path id="Shape" d="m4 21c0 .5522847.44771525 1 1 1s1-.4477153 1-1v-1c0-.5522847-.44771525-1-1-1s-1 .4477153-1 1z"/><path id="Shape" d="m4 26c0 .5522847.44771525 1 1 1s1-.4477153 1-1v-1c0-.5522847-.44771525-1-1-1s-1 .4477153-1 1z"/><path id="Shape" d="m4 31c0 .5522847.44771525 1 1 1s1-.4477153 1-1v-1c0-.5522847-.44771525-1-1-1s-1 .4477153-1 1z"/><path id="Shape" d="m4 36c0 .5522847.44771525 1 1 1s1-.4477153 1-1v-1c0-.5522847-.44771525-1-1-1s-1 .4477153-1 1z"/><path id="Shape" d="m4 41c0 .5522847.44771525 1 1 1s1-.4477153 1-1v-1c0-.5522847-.44771525-1-1-1s-1 .4477153-1 1z"/><path id="Shape" d="m4 46c0 .5522847.44771525 1 1 1s1-.4477153 1-1v-1c0-.5522847-.44771525-1-1-1s-1 .4477153-1 1z"/><path id="Shape" d="m4 51c0 .5522847.44771525 1 1 1s1-.4477153 1-1v-1c0-.5522847-.44771525-1-1-1s-1 .4477153-1 1z"/><path id="Shape" d="m4 56c0 .5522847.44771525 1 1 1s1-.4477153 1-1v-1c0-.5522847-.44771525-1-1-1s-1 .4477153-1 1z"/><path id="Shape" d="m49 7c.5522847 0 1-.44771525 1-1v-1c0-.55228475-.4477153-1-1-1s-1 .44771525-1 1v1c0 .55228475.4477153 1 1 1z"/><path id="Shape" d="m49 12c.5522847 0 1-.4477153 1-1v-1c0-.55228475-.4477153-1-1-1s-1 .44771525-1 1v1c0 .5522847.4477153 1 1 1z"/><path id="Shape" d="m49 17c.5522847 0 1-.4477153 1-1v-1c0-.5522847-.4477153-1-1-1s-1 .4477153-1 1v1c0 .5522847.4477153 1 1 1z"/><path id="Shape" d="m49 22c.5522847 0 1-.4477153 1-1v-1c0-.5522847-.4477153-1-1-1s-1 .4477153-1 1v1c0 .5522847.4477153 1 1 1z"/><path id="Shape" d="m49 27c.5522847 0 1-.4477153 1-1v-1c0-.5522847-.4477153-1-1-1s-1 .4477153-1 1v1c0 .5522847.4477153 1 1 1z"/><path id="Shape" d="m49 32c.5522847 0 1-.4477153 1-1v-1c0-.5522847-.4477153-1-1-1s-1 .4477153-1 1v1c0 .5522847.4477153 1 1 1z"/><path id="Shape" d="m49 37c.5522847 0 1-.4477153 1-1v-1c0-.5522847-.4477153-1-1-1s-1 .4477153-1 1v1c0 .5522847.4477153 1 1 1z"/><path id="Shape" d="m49 42c.5522847 0 1-.4477153 1-1v-1c0-.5522847-.4477153-1-1-1s-1 .4477153-1 1v1c0 .5522847.4477153 1 1 1z"/><path id="Shape" d="m49 47c.5522847 0 1-.4477153 1-1v-1c0-.5522847-.4477153-1-1-1s-1 .4477153-1 1v1c0 .5522847.4477153 1 1 1z"/><path id="Shape" d="m49 52c.5522847 0 1-.4477153 1-1v-1c0-.5522847-.4477153-1-1-1s-1 .4477153-1 1v1c0 .5522847.4477153 1 1 1z"/><path id="Shape" d="m49 57c.5522847 0 1-.4477153 1-1v-1c0-.5522847-.4477153-1-1-1s-1 .4477153-1 1v1c0 .5522847.4477153 1 1 1z"/><path id="Shape" d="m23.28 36.757c.7138549.3772711 1.5802263.3151934 2.233-.16l6.469-4.568c.6406059-.4774879 1.0180186-1.229519 1.0180186-2.0285s-.3774127-1.5510121-1.0180186-2.0285l-6.469-4.572c-.6531971-.4740336-1.5188914-.5360628-2.233-.16-.8043797.4323903-1.2987285 1.2789626-1.28 2.192v9.136c-.0175928.9119676.4765942 1.7571046 1.28 2.189zm.72-11.325c-.0146994-.164034.0621939-.3228186.2-.413.0204263-.0117579.0434422-.0182848.067-.019.0336524.0021939.0657958.0147718.092.036l6.47 4.569c.1090835.1026185.1709399.2457343.1709399.3955s-.0618564.2928815-.1709399.3955l-6.47 4.568c-.043296.0404522-.1081303.0473841-.159.017-.1378061-.0901814-.2146994-.248966-.2-.413z"/><path id="Shape" d="m18 8c.2651948-.00005664.5195073-.10545063.707-.293l2-2c.2599566-.25107447.3642126-.62287789.2726972-.97250732-.0915155-.34962944-.3645604-.6226744-.7141899-.71418984-.3496294-.09151544-.7214328.01274058-.9725073.27269716l-2 2c-.2859079.28599425-.3714219.71603662-.216678 1.08965456s.5192821.61725909.923678.61734544z"/><path id="Shape" d="m18.293 12.707c.3904999.3903819 1.0235001.3903819 1.414 0l7-7c.2599566-.25107447.3642126-.62287789.2726972-.97250732-.0915155-.34962944-.3645604-.6226744-.7141899-.71418984-.3496294-.09151544-.7214328.01274058-.9725073.27269716l-7 7c-.3903819.3904999-.3903819 1.0235001 0 1.414z"/><path id="Shape" d="m36.293 52.293-2 2c-.2599566.2510745-.3642126.6228779-.2726972.9725073.0915155.3496295.3645604.6226744.7141899.7141899.3496294.0915154.7214328-.0127406.9725073-.2726972l2-2c.3789722-.3923789.3735524-1.0160848-.0121814-1.4018186s-1.0094397-.3911536-1.4018186-.0121814z"/><path id="Shape" d="m36.707 47.293c-.3904999-.3903819-1.0235001-.3903819-1.414 0l-7 7c-.2599566.2510745-.3642126.6228779-.2726972.9725073.0915155.3496295.3645604.6226744.7141899.7141899.3496294.0915154.7214328-.0127406.9725073-.2726972l7-7c.3903819-.3904999.3903819-1.0235001 0-1.414z"/></g></g></g></svg>