<svg height="512" viewBox="0 0 52 61" width="512" xmlns="http://www.w3.org/2000/svg"><g id="Page-1" fill="none" fill-rule="evenodd"><g id="044---Stop-watch" fill-rule="nonzero"><path id="Shape" d="m51 34c-.0025691 12.511712-9.2540837 23.0948467-21.6531715 24.7698286s-24.12707872-6.0740497-27.44936479-18.1366099 2.78433012-24.7236225 14.29253629-29.6332187c2.169895-.931311 4.4640548-1.54106571 6.81-1.81 1.9919776-.25333559 4.0080224-.25333559 6 0 2.3489312.27019163 4.646211.8798802 6.82 1.81 9.2082524 3.9362936 15.1808569 12.9856943 15.18 23z" fill="#ffe0e2"/><path id="Shape" d="m45.33 18.14c-2.5519896-3.1077424-5.8136062-5.5565271-9.51-7.14-2.173789-.9301198-4.4710688-1.53980837-6.82-1.81-.9947914-.12863807-1.9969281-.19210673-3-.19-.5 0-1 .015-1.5.046.5033333.03133333 1.0033333.07933333 1.5.144 2.3489312.27019163 4.646211.8798802 6.82 1.81 10.6684809 4.5507067 16.8059842 15.8415113 14.8231478 27.2692747-1.9828365 11.4277634-11.565224 19.9910024-23.1431478 20.6817253.5.03 1 .049 1.5.049 9.6674079.0018859 18.4694492-5.5701682 22.6036131-14.3090164 4.1341638-8.7388482 2.8593908-19.0780295-3.2736131-26.5509836z" fill="#ff9ea1"/><circle id="Oval" cx="26" cy="34" fill="#ffe7e8" r="21"/><path id="Shape" d="m26 13c-.506 0-1 .04-1.5.076 10.9846241.7749063 19.4999241 9.9120771 19.4999241 20.924s-8.5153 20.1490937-19.4999241 20.924c.5.036.994.076 1.5.076 11.5979797 0 21-9.4020203 21-21s-9.4020203-21-21-21z" fill="#ffc9cc"/><path id="Shape" d="m29 5v4.19c-1.9919776-.25333559-4.0080224-.25333559-6 0v-4.19z" fill="#ffc9cc"/><rect id="Rectangle-path" fill="#ffe7e8" height="4" rx="1" width="16" x="18" y="1"/><path id="Shape" d="m33 1h-3c.5522847 0 1 .44771525 1 1v2c0 .55228475-.4477153 1-1 1h3c.5522847 0 1-.44771525 1-1v-2c0-.55228475-.4477153-1-1-1z" fill="#ffc9cc"/><path id="Shape" d="m16.19 11c-3.7008612 1.5806245-6.9663594 4.0297481-9.52 7.14-1.07631385-1.1087257-1.67576271-2.5947845-1.67-4.14.00479688-2.7113779 1.82738221-5.08260917 4.44627976-5.78472648 2.61889754-.70211731 5.38323234.43937669 6.74372024 2.78472648z" fill="#ffe7e8"/><path id="Shape" d="m11 8c-.506437.00309369-1.01044459.07029471-1.5.2 1.55521.40177869 2.8843828 1.41036506 3.69 2.8-2.8930161 1.2378178-5.52643429 3.0105066-7.762 5.225.28526462.7131635.70717447 1.3636927 1.242 1.915 2.5536406-3.1102519 5.8191388-5.5593755 9.52-7.14-1.0684285-1.85676992-3.0477738-3.00090011-5.19-3z" fill="#ffc9cc"/><path id="Shape" d="m47 14c.0057627 1.5452155-.5936862 3.0312743-1.67 4.14-2.5519896-3.1077424-5.8136062-5.5565271-9.51-7.14 1.3549163-2.35134522 4.1213629-3.4980216 6.7424229-2.794696 2.62106.70332559 4.4418179 3.0809155 4.4375771 5.794696z" fill="#ffe7e8"/><path id="Shape" d="m41 8c-.5064661.00267261-1.0105268.0698807-1.5.2 1.6696054.42832909 3.0738915 1.55491182 3.8540703 3.0919118.7801787 1.537.8606777 3.335535.2209297 4.9360882.6176257.6065987 1.2034108 1.2447873 1.755 1.912 1.0763138-1.1087257 1.6757627-2.5947845 1.67-4.14 0-3.3137085-2.6862915-6-6-6z" fill="#ffc9cc"/><path id="Shape" d="m31 34c-.0052947 2.3775957-1.6841562 4.4226281-4.0151838 4.8909223s-4.6694332-.7696852-5.5925567-2.9607653c-.9231236-2.1910801-.1756189-4.7291838 1.7877405-6.070157 1.7051129-1.1468002 3.9348871-1.1468002 5.64 0v.01c1.3644309.9318993 2.1803721 2.4776962 2.18 4.13z" fill="#ffe7e8"/><path id="Shape" d="m26 29c-.5100781.007121-1.0160138.0927928-1.5.254 2.0807519.6438254 3.4994946 2.5679184 3.4994946 4.746s-1.4187427 4.1021746-3.4994946 4.746c1.8757024.5955702 3.9262648.0330725 5.2355561-1.4361857 1.3092914-1.4692582 1.6327423-3.5708265.8258444-5.3657859s-2.5934199-2.9480201-4.5614005-2.9440284z" fill="#ffc9cc"/><path id="Shape" d="m28.82 29.86c-1.7051129-1.1468002-3.9348871-1.1468002-5.64 0l1.83-11.02c.0702214-.4928083.4922138-.8589326.99-.8589326s.9197786.3661243.99.8589326z" fill="#ffe7e8"/><path id="Shape" d="m26 59c.5 0 1-.019 1.5-.049-9.3783681-.5631326-17.64919318-6.3368166-21.41059628-14.9462738s-2.37823352-18.6008943 3.58059628-25.8647262c-.53460362-.551484-.95648346-1.2019671-1.242-1.915-.6360257-1.5999531-.55407799-3.3960395.22499986-4.9314274.77907786-1.53538798 2.18020254-2.66210509 3.84700014-3.0935726-.9837943-.25460306-2.0162057-.25460306-3 0-1.66836387.4305974-3.07108925 1.55766334-3.85090241 3.0941345-.77981316 1.5364711-.8614427 3.3340397-.22409759 4.9348655.2868686.7118546.70975536 1.3609603 1.245 1.911-6.13300386 7.4729541-7.40777695 17.8121354-3.27361308 26.5509836s12.93620518 14.3109023 22.60361308 14.3090164z" fill="#fff"/><path id="Shape" d="m1.331 25.823 1.9.629c-.78352032 2.4407563-1.19842285 4.9847727-1.231 7.548h-2c.03267145-2.7768544.48132092-5.5331329 1.331-8.177z" fill="#fff"/><g fill="#ff414c"><path id="Shape" d="m1.365 31.013c-.55228473.0027614-1.00223852-.4427153-1.00499994-.995-.00276143-.5522847.44271521-1.0022385.99499994-1.005h.01c.55228475 0 1 .4477153 1 1s-.44771525 1-1 1z"/><path id="Shape" d="m0 34c-.01181448 11.354953 7.34646359 21.4041708 18.1749612 24.8215876 10.8284975 3.4174168 22.6221983-.5875374 29.1304637-9.8922447 6.5082655-9.3047073 6.2255026-21.7566582-.6984249-30.7563429.9072166-1.2017475 1.396426-2.6672685 1.393-4.173-.0013388-2.0570843-.9074345-4.00945226-2.4775802-5.3384519s-3.6453832-1.9000859-5.6744198-1.5615481c-.5331533.10246474-.8871593.61161191-.7975532 1.14707634.0896062.53546443.5900877.90161926 1.1275532.82492366 1.9241512-.3282071 3.8628293.49679782 4.9604258 2.1109104 1.0975966 1.6141126 1.1521462 3.7203249.1395742 5.3890896-3.9939538-4.4256175-9.3881586-7.34338871-15.278-8.264v-2.308h3c1.1045695 0 2-.8954305 2-2v-2c0-1.1045695-.8954305-2-2-2h-14c-1.1045695 0-2 .8954305-2 2v2c0 1.1045695.8954305 2 2 2h3v2.339c-1.3545041.20877436-2.6915472.51829985-4 .926-2.5793952.8436295-5.011822 2.0834587-7.21 3.675-1.48607551 1.0592437-2.84800791 2.2826347-4.06 3.647-.47835973-.7780259-.73109588-1.6736813-.73-2.587.00177443-1.469232.64889496-2.8635098 1.76985174-3.8133002 1.12095677-.94979037 2.60256586-1.35919232 4.05214826-1.1196998.3564798.06851052.7220917-.06153989.9552298-.33978107.233138-.27824119.2971853-.66097235.1673356-.99995693-.1298498-.33898459-.4332023-.58098138-.7925654-.632262-2.0298983-.33868113-4.10598937.23303918-5.67632672 1.56316424-1.57033736 1.33012505-2.47580376 3.28387756-2.47567328 5.34183576-.00377763 1.5141876.49063147 2.9875759 1.407 4.193-.115.151-.241.293-.352.447-1.61790646 2.1795067-2.87525237 4.6047257-3.724 7.183-.09322278.2552557-.07521598.5378959.04964594.7792576s.34515191.4193561.60735406.4907424c.51759433.1408384 1.05694049-.1375198 1.242-.641.78228146-2.3795773 1.94281725-4.6175846 3.437-6.628 1.46479855-2.0345002 3.25556365-3.8131017 5.3-5.264 2.0282482-1.4687493 4.2727918-2.6127816 6.653-3.391 2.3917063-.7394342 4.8768556-1.1330846 7.38-1.169 13.254834 0 24 10.745166 24 24s-10.745166 24-24 24-24-10.745166-24-24c0-.5522847-.44771525-1-1-1s-1 .4477153-1 1zm19-32h14v2h-14zm5 6.1v-2.1h4v2.085c-.661-.051-1.326-.085-2-.085s-1.335.044-2 .1z"/><path id="Shape" d="m15.522 14.659c-1.1043481.6012029-2.1554807 1.2953787-3.142 2.075-.300595.2144188-.458577.5770298-.4109213.9431742.0476558.3661443.2931937.6762349.6386597.8065653s.7346382.0596902 1.0122616-.1837395c.8976887-.7088468 1.8537684-1.3404348 2.858-1.888.3233095-.165618.5313788-.4935379.5435208-.8565956.0121419-.3630577-.1735534-.7041466-.485075-.8909956-.3115217-.186849-.6998695-.190068-1.0144458-.0084088z"/><path id="Shape" d="m9.588 20.876c-.21475757-.1569263-.48318457-.2218299-.74591373-.1803562-.26272916.0414736-.49811083.185907-.65408627.4013562-6.34760863 8.7506183-5.39337199 20.8171114 2.2507583 28.4612417 7.6441303 7.6441303 19.7106234 8.5983669 28.4612417 2.2507583.2890279-.2100722.4440285-.5583814.4066146-.9137229-.0374139-.3553416-.2615583-.6637307-.588-.809-.3264418-.1452694-.7055867-.1053493-.9946146.1047229-7.9550189 5.7648993-18.9199244 4.8948418-25.8662385-2.0524677-6.94631417-6.9473095-7.81480056-17.9123395-2.0487615-25.8665323.3241271-.4466039.2252239-1.07135-.221-1.396z"/><path id="Shape" d="m45.034 42.924c.510311.2108831 1.0949638-.0317522 1.306-.542 1.1008493-2.6571386 1.6650182-5.5058516 1.66-8.382-.0018593-6.9472203-3.28416-13.4856131-8.8541528-17.637607-5.5699929-4.1519939-12.7735239-5.4299682-19.4318472-3.447393-.3492253.0963269-.6190452.3739933-.7053244.7258357-.0862791.3518424.0244762.722834.2895206.9697927s.6429261.3312613.9878038.2203716c7.3883407-2.203497 15.385362.0360601 20.5546654 5.7563117 5.1693035 5.7202517 6.5902849 13.9024749 3.6523346 21.0306883-.2109975.5100349.0311428 1.0945733.541 1.306z"/><path id="Shape" d="m32 34c-.0003409-1.8225987-.8311646-3.5457205-2.257-4.681l-1.765-10.638c-.1466978-.9781082-.9863025-1.7021037-1.9753497-1.703354-.9890472-.0012504-1.8304799.7206198-1.9796503 1.698354l-1.766 10.643c-2.1883831 1.7467556-2.8776326 4.7749138-1.6608348 7.2967344 1.2167977 2.5218205 4.0160869 3.866732 6.7452452 3.2407362 2.7291583-.6259959 4.6624815-3.0564419 4.6585896-5.8564706zm-6-15 1.527 9.2c-1.0019246-.2741025-2.0590754-.2741025-3.061 0zm0 19c-2.209139 0-4-1.790861-4-4s1.790861-4 4-4 4 1.790861 4 4-1.790861 4-4 4z"/><path id="Shape" d="m25 49v2c0 .5522847.4477153 1 1 1s1-.4477153 1-1v-2c0-.5522847-.4477153-1-1-1s-1 .4477153-1 1z"/><path id="Shape" d="m17 18.411c-.4782682.2761504-.6421293.8877197-.366 1.366l1 1.733c.1773616.3119508.5082732.5049532.8671183.5057421s.6906021-.1907567.8693336-.5019247c.1787314-.3111679.1770325-.694247-.0044519-1.0038174l-1-1.733c-.2761504-.4782682-.8877197-.6421293-1.366-.366z"/><path id="Shape" d="m33 46.124c-.4782682.2761504-.6421293.8877197-.366 1.366l1 1.733c.2780058.4742136.886647.6351286 1.3626943.3602745.4760473-.274854.640996-.8824145.3693057-1.3602745l-1-1.733c-.2761504-.4782682-.8877197-.6421293-1.366-.366z"/><path id="Shape" d="m10.411 25c-.2761293.4782803-.1122682 1.0898496.366 1.366l1.733 1c.1518701.0881308.3244113.1343718.5.134.4525881-.0000199.8487411-.3040116.9658809-.7411777.1171399-.4371661-.0739396-.8985084-.4658809-1.1248223l-1.733-1c-.4782803-.2761293-1.0898496-.1122682-1.366.366z"/><path id="Shape" d="m39.49 40.634c-.47786-.2716903-1.0854205-.1067416-1.3602745.3693057-.2748541.4760473-.1139391 1.0846885.3602745 1.3626943l1.733 1c.1518701.0881308.3244113.1343718.5.134.4525881-.0000199.8487411-.3040116.9658809-.7411777.1171399-.4371661-.0739396-.8985084-.4658809-1.1248223z"/></g></g></g></svg>