<svg height="512" viewBox="0 0 60 60" width="512" xmlns="http://www.w3.org/2000/svg"><g id="Page-1" fill="none" fill-rule="evenodd"><g id="045---Settings" fill-rule="nonzero"><path id="Shape" d="m34.544 2.679h.006c2.0100115-1.70104767 4.8016957-2.13718445 7.2347649-1.13026649 2.4330693 1.00691796 4.1001216 3.28828866 4.3202351 5.91226649v.007c.2832199 3.4262501 3.0009712 6.1461157 6.427 6.432h.007c2.622764.2200917 4.9033013 1.8858035 5.9108468 4.3173018 1.0075455 2.4314982.5735544 5.2220354-1.1248468 7.2326982v.006c-2.2200337 2.6225978-2.2200337 6.4654022 0 9.088v.006c1.7013186 2.0105689 2.1370736 4.8030471 1.1292069 7.2363734s-3.2905138 4.0998615-5.9152069 4.3186266h-.007c-3.4243004.2855345-6.1414655 3.0026996-6.427 6.427v.007c-.2187651 2.6246931-1.8853003 4.9073402-4.3186266 5.9152069s-5.2258045.5721117-7.2363734-1.1292069h-.006c-2.6225978-2.2200337-6.4654022-2.2200337-9.088 0h-.006c-2.0106628 1.6984012-4.8012 2.1323923-7.2326982 1.1248468-2.4314983-1.0075455-4.0972101-3.2880828-4.3173018-5.9108468v-.007c-.2855345-3.4243004-3.0026996-6.1414655-6.427-6.427h-.012c-2.62469313-.2187651-4.90734019-1.8853003-5.91520689-4.3186266s-.57211173-5.2258045 1.12920689-7.2363734v-.006c2.22003366-2.6225978 2.22003366-6.4654022 0-9.088v-.006c-1.69840116-2.0106628-2.13239227-4.8012-1.12484677-7.2326982 1.0075455-2.4314983 3.28808273-4.0972101 5.91084677-4.3173018h.007c3.4279788-.2835687 6.1484313-3.0040212 6.432-6.432v-.007c.2200917-2.62276404 1.8858035-4.90330127 4.3173018-5.91084677 2.4314982-1.0075455 5.2220354-.57355439 7.2326982 1.12484677h.006c2.6216206 2.22118825 6.4644251 2.22287963 9.088.004z" fill="#ffe7e8"/><path id="Shape" d="m57.321 34.544c-2.2200337-2.6225978-2.2200337-6.4654022 0-9.088v-.006c1.6981317-2.0101053 2.1325054-4.7998495 1.1259081-7.2310913-1.0065972-2.4312418-3.2858593-4.0974703-5.9079081-4.3189087h-.007c-3.4243004-.2855345-6.1414655-3.0026996-6.427-6.427v-.012c-.1695919-2.02339736-1.2049272-3.87491784-2.839996-5.07884816-1.6350688-1.20393033-3.710483-1.64291013-5.693004-1.20415184 3.0343334.63430051 5.2874424 3.19281915 5.533 6.283v.007c.2832199 3.4262501 3.0009712 6.1461157 6.427 6.432h.007c2.622764.2200917 4.9033013 1.8858035 5.9108468 4.3173018 1.0075455 2.4314982.5735544 5.2220354-1.1248468 7.2326982v.006c-2.2200337 2.6225978-2.2200337 6.4654022 0 9.088v.006c1.7013186 2.0105689 2.1370736 4.8030471 1.1292069 7.2363734s-3.2905138 4.0998615-5.9152069 4.3186266h-.007c-3.4244855.2851352-6.1418648 3.0025145-6.427 6.427v.007c-.2453363 3.0900722-2.4986463 5.6484119-5.533 6.282 1.982399.4390943 4.0578408.0003803 5.6929637-1.2033982 1.6351229-1.2037784 2.670494-3.0552469 2.8400363-5.0786018v-.007c.2851352-3.4244855 3.0025145-6.1418648 6.427-6.427h.007c2.6246931-.2187651 4.9073402-1.8853003 5.9152069-4.3186266s.5721117-5.2258045-1.1292069-7.2363734z" fill="#ffc9cc"/><circle id="Oval" cx="30" cy="30" fill="#ffe0e2" r="21"/><circle id="Oval" cx="30" cy="30" fill="#ffe7e8" r="11"/><circle id="Oval" cx="30" cy="30" fill="#ffe0e2" r="7"/><rect id="Rectangle-path" fill="#ffe7e8" height="28" rx="2" width="32" x="27" y="31"/><path id="Shape" d="m57 31h-3c1.1045695 0 2 .8954305 2 2v24c0 1.1045695-.8954305 2-2 2h3c1.1045695 0 2-.8954305 2-2v-24c0-1.1045695-.8954305-2-2-2z" fill="#ffc9cc"/><path id="Shape" d="m7.461 46.105c3.4293498.279174 6.1534294 2.9981769 6.439 6.427.1659971 2.0241363 1.1992636 3.8775787 2.8337323 5.0830641 1.6344687 1.2054853 3.7104102 1.6452069 5.6932677 1.2059359-3.0341431-.6369711-5.285021-3.1981744-5.527-6.289-.2852237-3.4270919-3.0065996-6.145507-6.434-6.427-2.62680654-.2175282-4.9117227-1.8849764-5.92008912-4.3202645-1.00836643-2.4352882-.57103963-5.2299207 1.13308912-7.2407355 2.22259314-2.6239284 2.22259314-6.4700716 0-9.094-1.70012981-2.0106375-2.13473947-4.8025219-1.12623509-7.2348096 1.00850439-2.4322876 3.29117022-4.0975026 5.91523509-4.3151904 3.4311456-.2824494 6.1532828-3.0075492 6.432-6.439.247489-3.08320103 2.4913672-5.63740715 5.517-6.28-1.9800802-.43691973-4.0523778.00280119-5.6844043 1.20617402-1.6320265 1.20337282-2.6646732 3.05307892-2.8325957 5.07382598-.2787172 3.4314508-3.0008544 6.1565506-6.432 6.439-2.62478032.2163376-4.9087238 1.8810347-5.91817747 4.3135801-1.00945368 2.4325453-.5752251 5.225225 1.12517747 7.2364199 2.22259314 2.6239284 2.22259314 6.4700716 0 9.094-1.70406055 2.0106756-2.14148259 4.8051092-1.13335349 7.2403329 1.00812909 2.4352236 3.29272579 4.1028013 5.91935349 4.3206671z" fill="#fff"/><path id="Shape" d="m2.387 18.838-1.878-.689c.52316-1.4390795 1.44294119-2.7007017 2.653-3.639 1.22291449-.927968 2.68582917-1.4866237 4.216-1.61l.164 2c-1.14773294.0891443-2.24581634.5056108-3.164 1.2-.90870179.706538-1.5989535 1.6557641-1.991 2.738z" fill="#fff"/><g fill="#ff414c"><path id="Shape" d="m3.767 16.294c-.55228475.0027614-1.00223858-.4427153-1.005-.995s.44271525-1.0022386.995-1.005h.01c.55228475 0 1 .4477153 1 1s-.44771525 1-1 1z"/><path id="Shape" d="m19 13.108c.1849938.0000847.3663853-.051148.524-.148.9121369-.5622297 1.8678626-1.050459 2.858-1.46.3363199-.132268.5751067-.435707.6245887-.7936978s-.0980408-.71482606-.3858717-.93336501c-.2878308-.21853895-.6711801-.26477451-1.002717-.12093719-1.0885677.448861-2.1395717.9838932-3.143 1.6-.3856046.2328502-.5679306.694771-.4453227 1.1282192.1226079.4334483.519882.7314197.9703227.7277808z"/><path id="Shape" d="m57 30h-.328c-.0069823-1.4281075.497441-2.8115468 1.422-3.9 1.9268726-2.2775716 2.4326461-5.4354803 1.3134651-8.2009106-1.1191809-2.7654302-3.6789074-4.6827185-6.6474651-4.9790894-.0490514-.0112271-.0988464-.0189135-.149-.023-2.9360657-.2361911-5.2664769-2.5687209-5.5-5.505-.0031611-.04511998-.0098482-.0899234-.02-.134-.2890397-2.97674373-2.2082378-5.54629255-4.9805449-6.66828184-2.7723072-1.1219893-5.9384275-.61053589-8.2164551 1.32728184-2.2480516 1.91736234-5.5573653 1.91269536-7.8-.011-2.2786872-1.92734899-5.4381384-2.43233093-8.2040592-1.31127259s-4.6821968 3.68328873-4.9759408 6.65327259c-.0104868.04607667-.0175065.09287433-.021.14-.2335231 2.9362791-2.5639343 5.2688089-5.5 5.505-.2484437.0236048-.47999236.1361829-.652.317-.28968354.3108327-.35131573.7707843-.15368343 1.146916.1976323.3761316.61137182.5863068 1.03168343.524084 3.8406014-.3331384 6.8950014-3.3622954 7.26-7.2.0104868-.04607667.0175065-.09287433.021-.14.1862912-2.25347626 1.6172489-4.2135066 3.7068688-5.07742124 2.0896198-.86391463 4.4869087-.48660197 6.2101312.97742124 2.9926451 2.54900601 7.3937946 2.54603885 10.383-.007 1.7248844-1.45387476 4.1167817-1.82396703 6.2003971-.95937187s3.5107934 2.81941081 3.6996029 5.06737187c.0030029.0452021.0100307.09004637.021.134.3589931 3.8129924 3.3746626 6.8341167 7.187 7.2.0480242.0113012.0968273.0189894.146.023 2.2530892.1865586 4.2126955 1.6173516 5.0765455 3.7066046.8638501 2.089253.4868921 4.4861526-.9765455 6.2093954-1.2235328 1.44965-1.8901083 3.2880511-1.88 5.185h-2.674c-.0071479-6.5665298-2.9442776-12.7873067-8.0101671-16.9653599-5.0658894-4.17805317-11.7319836-5.87746082-18.1798329-4.6346401-.3578123.0605362-.6547468.31016843-.7758557.65226037s-.0473825.72294721.1926387.99513113c.2400213.2721839.6086624.3929732.963217.3156085 5.8616538-1.12827641 11.9210575.4172822 16.5261738 4.2152944 4.6051164 3.7980121 7.2757674 9.4524571 7.2838262 15.4217056h-8c.006972-6.1043144-4.5698017-11.2411263-10.6344689-11.9357587-6.0646673-.6946324-11.6843907 3.2742973-13.057839 9.2220988s1.9371027 11.9788831 7.6923079 14.0136599v8.269c-9.2871161-1.9232117-15.9602932-10.0849243-16-19.569-.0132822-4.2193112 1.3208189-8.3326729 3.808-11.741.2167625-.2883784.2613942-.6711545.1167947-1.0016678-.1445996-.3305132-.4560116-.5575202-.8149184-.5940432-.3589069-.036523-.709663.1231006-.9178763.417711-2.73740049 3.7500622-4.2060379 8.276142-4.192 12.919.04251785 10.5868001 7.5950435 19.6527679 18 21.607v4.141c-.4235901.2363409-.8251904.5100984-1.2.818-1.7248844 1.4538748-4.1167817 1.823967-6.2003971.9593719-2.0836154-.8645952-3.5107934-2.8194108-3.6996029-5.0673719-.0030029-.0452021-.0100307-.0900464-.021-.134-.3586118-3.8131715-3.3744828-6.8344977-7.187-7.2-.04805376-.0111496-.09684576-.018836-.146-.023-2.23460274-.1846291-4.1827158-1.5927286-5.05897371-3.656635-.87625792-2.0639063-.5362418-4.4434604.88297371-6.179365.026-.026.05-.051.073-.078 2.54590797-2.989402 2.54590797-7.384598 0-10.374l-.013-.013c-1.39525767-1.6544283-1.79360976-3.9311079-1.043-5.961.14483504-.492216-.07836357-1.0181775-.533-1.256-.25056465-.1287294-.54527473-.1398803-.80485054-.0304532-.2595758.1094271-.45736096.328195-.54014946.5974532-.49012167 1.3291879-.62051828 2.7642405-.378 4.16.25070689 1.3966104.86265911 2.7032577 1.775 3.79h.005c.006.007.007.016.013.023 1.89141751 2.2146866 1.91505203 5.4690762.056 7.711-.026.026-.051.052-.074.079-1.92699136 2.2778505-2.43256681 5.4361446-1.31291662 8.2016974 1.11965019 2.7655527 3.68000243 4.6825881 6.64891662 4.9783026.04837677.0112246.09750668.0189116.147.023 2.9380159.2338603 5.2711397 2.5669841 5.505 5.505.0030029.0452021.0100307.0900464.021.134.2927276 2.971831 2.2107873 5.5355938 4.9791244 6.6553164 2.7683371 1.1197225 5.9294068.6103394 8.2058756-1.3223164.029-.025.06-.042.09-.067.4285304 1.18401 1.5508348 1.9744159 2.81 1.979h28c1.6568542 0 3-1.3431458 3-3v-24c0-1.6568542-1.3431458-3-3-3zm-37 0c0-5.5228475 4.4771525-10 10-10s10 4.4771525 10 10h-2c-.0049599-4.4162219-3.5837781-7.9950401-8-8-1.1892756-.0043317-2.3639395.2620622-3.435.779-.4807391.2490986-.6759032.8355667-.4402843 1.3230541.2356189.4874873.8164265.6989024 1.3102843.4769459.7999487-.3852474 1.6771287-.5832542 2.565-.579 3.3123376.0033074 5.9966926 2.6876624 6 6h-7c-1.6568542 0-3 1.3431458-3 3v1.463c-1.2675233-1.1381028-1.9941255-2.7595157-2-4.463-.004182-.8877667.194542-1.7647519.581-2.564.2407962-.4970563.0330563-1.0952038-.464-1.336s-1.0952038-.0330563-1.336.464c-.5180764 1.071096-.7851758 2.2461965-.781 3.436.0147368 2.8467726 1.5369279 5.4725522 4 6.9v2.255c-3.6368818-1.593761-5.9900127-5.1842465-6-9.155zm38 27c0 .5522847-.4477153 1-1 1h-28c-.5522847 0-1-.4477153-1-1v-24c0-.5522847.4477153-1 1-1h28c.5522847 0 1 .4477153 1 1z"/><path id="Shape" d="m36.241 34.35-3.527 4.114-.955-1.114c-.2275866-.2869618-.5938406-.4265481-.9546891-.3638502-.3608486.0626979-.6585514.3176476-.7760016.66456-.1174502.3469123-.0358542.7302769.2126907.9992902l1.714 2c.1899843.2218162.4674444.3494927.7595.3494927s.5695157-.1276765.7595-.3494927l4.285-5c.2485449-.2690133.3301409-.6523779.2126907-.9992902-.1174502-.3469124-.415153-.6018621-.7760016-.66456-.3608485-.0626979-.7271025.0768884-.9546891.3638502z"/><path id="Shape" d="m40 37h-1c-.5522847 0-1 .4477153-1 1s.4477153 1 1 1h1c.5522847 0 1-.4477153 1-1s-.4477153-1-1-1z"/><path id="Shape" d="m45 37h-1c-.5522847 0-1 .4477153-1 1s.4477153 1 1 1h1c.5522847 0 1-.4477153 1-1s-.4477153-1-1-1z"/><path id="Shape" d="m50 37h-1c-.5522847 0-1 .4477153-1 1s.4477153 1 1 1h1c.5522847 0 1-.4477153 1-1s-.4477153-1-1-1z"/><path id="Shape" d="m55 37h-1c-.5522847 0-1 .4477153-1 1s.4477153 1 1 1h1c.5522847 0 1-.4477153 1-1s-.4477153-1-1-1z"/><path id="Shape" d="m36.241 41.35-3.527 4.114-.955-1.114c-.2275866-.2869618-.5938406-.4265481-.9546891-.3638502-.3608486.0626979-.6585514.3176476-.7760016.66456-.1174502.3469123-.0358542.7302769.2126907.9992902l1.714 2c.1899843.2218162.4674444.3494927.7595.3494927s.5695157-.1276765.7595-.3494927l4.285-5c.2485449-.2690133.3301409-.6523779.2126907-.9992902-.1174502-.3469124-.415153-.6018621-.7760016-.66456-.3608485-.0626979-.7271025.0768884-.9546891.3638502z"/><path id="Shape" d="m40 44h-1c-.5522847 0-1 .4477153-1 1s.4477153 1 1 1h1c.5522847 0 1-.4477153 1-1s-.4477153-1-1-1z"/><path id="Shape" d="m45 44h-1c-.5522847 0-1 .4477153-1 1s.4477153 1 1 1h1c.5522847 0 1-.4477153 1-1s-.4477153-1-1-1z"/><path id="Shape" d="m50 44h-1c-.5522847 0-1 .4477153-1 1s.4477153 1 1 1h1c.5522847 0 1-.4477153 1-1s-.4477153-1-1-1z"/><path id="Shape" d="m55 44h-1c-.5522847 0-1 .4477153-1 1s.4477153 1 1 1h1c.5522847 0 1-.4477153 1-1s-.4477153-1-1-1z"/><path id="Shape" d="m36.241 48.35-3.527 4.114-.955-1.114c-.2275866-.2869618-.5938406-.4265481-.9546891-.3638502-.3608486.0626979-.6585514.3176476-.7760016.66456-.1174502.3469123-.0358542.7302769.2126907.9992902l1.714 2c.1899843.2218162.4674444.3494927.7595.3494927s.5695157-.1276765.7595-.3494927l4.285-5c.2485449-.2690133.3301409-.6523779.2126907-.9992902-.1174502-.3469124-.415153-.6018621-.7760016-.66456-.3608485-.0626979-.7271025.0768884-.9546891.3638502z"/><path id="Shape" d="m40 51h-1c-.5522847 0-1 .4477153-1 1s.4477153 1 1 1h1c.5522847 0 1-.4477153 1-1s-.4477153-1-1-1z"/><path id="Shape" d="m45 51h-1c-.5522847 0-1 .4477153-1 1s.4477153 1 1 1h1c.5522847 0 1-.4477153 1-1s-.4477153-1-1-1z"/><path id="Shape" d="m50 51h-1c-.5522847 0-1 .4477153-1 1s.4477153 1 1 1h1c.5522847 0 1-.4477153 1-1s-.4477153-1-1-1z"/><path id="Shape" d="m55 51h-1c-.5522847 0-1 .4477153-1 1s.4477153 1 1 1h1c.5522847 0 1-.4477153 1-1s-.4477153-1-1-1z"/></g></g></g></svg>