<svg height="512" viewBox="0 0 60 60" width="512" xmlns="http://www.w3.org/2000/svg"><g id="Page-1" fill="none" fill-rule="evenodd"><g id="046---Compass" fill-rule="nonzero"><circle id="Oval" cx="30" cy="30" fill="#ffe0e2" r="29"/><path id="Shape" d="m30 1c-.5033333 0-1.0033333.01266667-1.5.038 15.4192225.79012792 27.5158989 13.5225465 27.5158989 28.962s-12.0966764 28.1718721-27.5158989 28.962c.4973333.0253333.9973333.038 1.5.038 16.0162576-.0000002 28.9999996-12.9837424 28.9999996-29s-12.983742-28.99999976-28.9999996-29z" fill="#ff9ea1"/><circle id="Oval" cx="30" cy="30" fill="#ffe7e8" r="25"/><path id="Shape" d="m30 5c-.5 0-1 .019-1.5.049 13.1671239.83401357 23.4196519 11.7564891 23.4196519 24.95s-10.252528 24.1159864-23.4196519 24.95c.5.03 1 .049 1.5.049 13.7193264-.1227131 24.7763954-11.2791248 24.7763954-24.999s-11.057069-24.87628693-24.7763954-24.999z" fill="#ffc9cc"/><path id="Shape" d="m40 30c.0047248 5.2466847-4.04286 9.6065665-9.2754368 9.9910959-5.2325767.3845295-9.8740314-3.3368157-10.6363477-8.5278268-.7623163-5.1910112 2.6132617-10.0896829 7.7354676-11.2257858 5.1222058-1.136103 10.252389 1.8759947 11.7563169 6.9025167.2777772.9279603.4192549 1.8913566.42 2.86z" fill="#ffe7e8"/><path id="Shape" d="m39.58 27.14c-1.3935775-4.7901688-6.1312944-7.7971347-11.059-7.019 4.8858557.7467063 8.4912349 4.9539985 8.4807279 9.8965732-.0105071 4.9425748-3.6337417 9.1345002-8.5227279 9.8604268.5030707.0800349 1.0116039.1208245 1.521.122 3.1592754.0022458 6.133544-1.489598 8.0209041-4.0231523 1.8873601-2.5335544 2.4654957-5.8103868 1.5590959-8.8368477z" fill="#ffc9cc"/><path id="Shape" d="m45 16.37-5.42 10.77c-.9675392-3.2274588-3.4925412-5.7524608-6.72-6.72l10.77-5.42c.3929847-.2327376.8937207-.1696368 1.2166787.1533213.3229581.322958.3860589.823694.1533213 1.2166787z" fill="#ffe0e2"/><path id="Shape" d="m27.14 39.58-10.77 5.42c-.3929847.2327376-.8937207.1696368-1.2166787-.1533213-.3229581-.322958-.3860589-.823694-.1533213-1.2166787l5.42-10.77c.9675392 3.2274588 3.4925412 5.7524608 6.72 6.72z" fill="#ffe0e2"/><path id="Shape" d="m1 30c0 16.0162577 12.9837423 29 29 29 .5033333 0 1.0033333-.0126667 1.5-.038-15.4192225-.7901279-27.51589893-13.5225465-27.51589893-28.962s12.09667643-28.17187208 27.51589893-28.962c-.4966667-.02533333-.9966667-.038-1.5-.038-16.0162577 0-29 12.9837423-29 29z" fill="#fff"/><path id="Shape" d="m1.154 21.832 1.925.544-.479 1.869c-.12.632-.2 1.272-.3 1.907l-.147.954-.05.965-.103 1.929h-2l.1-2.066.06-1.034.155-1.023c.109-.681.2-1.366.325-2.043z" fill="#fff"/><g fill="#ff414c"><path id="Shape" d="m1.324 27.011c-.55228475.0027614-1.00223858-.4427153-1.005-.995s.44271525-1.0022386.995-1.005h.01c.55228475 0 1 .4477153 1 1s-.44771525 1-1 1z"/><path id="Shape" d="m30 0c-6.527709.01749196-12.8724627 2.15861817-18.076 6.1-2.58606715 1.95398329-4.84291349 4.3090708-6.685 6.976-1.81070772 2.6887945-3.18907973 5.644618-4.085 8.76-.15022144.5315741.15892594 1.0842785.69050001 1.2345.53157406.1502214 1.08427853-.1589259 1.23449999-.6905.83540038-2.9087635 2.12095999-5.6688364 3.81-8.18 5.2452677-7.60110041 13.875865-12.15708187 23.111-12.2 15.463973 0 28 12.536027 28 28s-12.536027 28-28 28-28-12.536027-28-28c0-.5522847-.44771525-1-1-1s-1 .4477153-1 1c0 16.5685425 13.4314575 30 30 30s30-13.4314575 30-30-13.4314575-30-30-30z"/><path id="Shape" d="m17.519 7.2c-1.0795553.59400291-2.1155016 1.26402623-3.1 2.005-.3443443.25825824-.4847973.70788563-.3486833 1.1162278.136114.4083421.5182529.6837722.9486833.6837722.2164998.0008032.4272821-.0694576.6-.2.9089357-.6852314 1.8653361-1.30512062 2.862-1.855.3338784-.16033407.5517921-.49207787.5663385-.86217272.0145463-.37009485-.1766575-.71791875-.4969217-.90396346-.3202642-.18604472-.7171291-.17983589-1.0314168.01613618z"/><path id="Shape" d="m10.24 13.119c-8.33944219 9.7963428-8.23204983 24.2268112.2522705 33.8979506 8.4843202 9.6711394 22.7780037 11.6562244 33.5766355 4.663072s14.8342793-20.8482417 9.4799544-32.546354c-5.354325-11.69811235-18.4782716-17.69911025-30.8288604-14.0966686-.342975.10003436-.6065292.37544489-.6913844.72248711s.0218802.71299216.28.96000001c.2581198.24700786.6284094.33754725.9713844.23751288 11.4625807-3.36489717 23.6578827 2.19179671 28.6400042 13.0495937 4.9821215 10.857797 1.2414589 23.7267395-8.7847428 30.2220124-10.0262017 6.4952728-23.2999618 4.6487814-31.1727044-4.3363849-7.8727427-8.9851663-7.9589942-22.3864646-.202557-31.4722212.3589851-.4197364.3097364-1.0510149-.11-1.41s-1.0510149-.3097364-1.41.11z"/><path id="Shape" d="m19 30c.0034077.9255566.1243759 1.8469314.36 2.742l-5.227 10.385c-.4706522.7843073-.3424849 1.7889735.31 2.43.3757718.3805213.8872221.5963231 1.422.6.3345795.0008065.6632804-.0879289.952-.257l10.441-5.26c3.7678528.9907677 7.7784144-.0938968 10.5332588-2.8487412s3.8395089-6.765406 2.8487412-10.5332588l5.227-10.385c.4706522-.7843073.3424849-1.7889735-.31-2.43-.6211548-.641395-1.5974243-.7816258-2.374-.341l-10.441 5.258c-3.2929321-.8658501-6.8012567-.1515153-9.4934654 1.9329775s-4.2622611 5.3021863-4.2485346 8.7070225zm-3.111 14.083 4.448-8.832c1.0164782 1.8604284 2.5452641 3.3902555 4.405 4.408zm28.222-28.166-4.448 8.832c-1.0151306-1.8597372-2.5421099-3.3894928-4.4-4.408zm-14.111 5.083c4.9705627 0 9 4.0294373 9 9s-4.0294373 9-9 9-9-4.0294373-9-9c.0055111-4.9682782 4.0317218-8.9944889 9-9z"/><path id="Shape" d="m27 31c.5522847 0 1-.4477153 1-1 0-1.1045695.8954305-2 2-2s2 .8954305 2 2c0 .5522847.4477153 1 1 1s1-.4477153 1-1c0-2.209139-1.790861-4-4-4s-4 1.790861-4 4c0 .5522847.4477153 1 1 1z"/><path id="Shape" d="m31 11v-2c0-.55228475-.4477153-1-1-1s-1 .44771525-1 1v2c0 .5522847.4477153 1 1 1s1-.4477153 1-1z"/><path id="Shape" d="m29 49v2c0 .5522847.4477153 1 1 1s1-.4477153 1-1v-2c0-.5522847-.4477153-1-1-1s-1 .4477153-1 1z"/><path id="Shape" d="m20.366 11.313c-.2780058-.4742136-.886647-.6351286-1.3626943-.3602745-.4760473.274854-.640996.8824145-.3693057 1.3602745l1 1.733c.2780058.4742136.886647.6351286 1.3626943.3602745.4760473-.274854.640996-.8824145.3693057-1.3602745z"/><path id="Shape" d="m39 45.588c-.4782682.2761504-.6421293.8877197-.366 1.366l1 1.733c.2780058.4742136.886647.6351286 1.3626943.3602745.4760473-.274854.640996-.8824145.3693057-1.3602745l-1-1.733c-.2761504-.4782682-.8877197-.6421293-1.366-.366z"/><path id="Shape" d="m10.947 19c-.2761293.4782803-.1122682 1.0898496.366 1.366l1.733 1c.47786.2716903 1.0854205.1067416 1.3602745-.3693057.2748541-.4760473.1139391-1.0846885-.3602745-1.3626943l-1.733-1c-.4782803-.2761293-1.0898496-.1122682-1.366.366z"/><path id="Shape" d="m45.588 39c-.2761293.4782803-.1122682 1.0898496.366 1.366l1.733 1c.1518701.0881308.3244113.1343718.5.134.4525881-.0000199.8487411-.3040116.9658809-.7411777.1171399-.4371661-.0739396-.8985084-.4658809-1.1248223l-1.733-1c-.4782803-.2761293-1.0898496-.1122682-1.366.366z"/></g></g></g></svg>