<svg height="512" viewBox="0 0 60 44" width="512" xmlns="http://www.w3.org/2000/svg"><g id="Page-1" fill="none" fill-rule="evenodd"><g id="048---Volume" fill-rule="nonzero"><path id="Shape" d="m25 10v24h-16c-2.209139 0-4-1.790861-4-4v-16c0-2.209139 1.790861-4 4-4z" fill="#ffe7e8"/><path id="Rectangle-path" d="m22 10h3v24h-3z" fill="#ffc9cc"/><path id="Shape" d="m5 15v14h-2c-1.10320187-.0032948-1.9967052-.8967981-2-2v-10c.0032948-1.1032019.89679813-1.9967052 2-2z" fill="#ffe7e8"/><path id="Shape" d="m38 4.06v35.88c-.0018263.7612046-.4356029 1.4553782-1.1189747 1.7906972-.6833717.3353191-1.4978456.2536412-2.1010253-.2106972l-9.78-7.52v-24l9.78-7.52c.6031797-.46433835 1.4176536-.54601628 2.1010253-.21069722.6833718.33531907 1.1171484 1.02949259 1.1189747 1.79069722z" fill="#ffe0e2"/><path id="Shape" d="m34.78 2.48-.313.241c.342397.36172738.5331441.84092134.533 1.339v35.88c.0001441.4980787-.190603.9772726-.533 1.339l.313.241c.6031797.4643384 1.4176536.5460163 2.1010253.2106972.6833718-.335319 1.1171484-1.0294926 1.1189747-1.7906972v-35.88c-.0018263-.76120463-.4356029-1.45537815-1.1189747-1.79069722-.6833717-.33531906-1.4978456-.25364113-2.1010253.21069722z" fill="#ff9ea1"/><path id="Shape" d="m6 15h2v-1c0-2.209139 1.790861-4 4-4h-3c-2.209139 0-4 1.790861-4 4v1h-2c-1.10320187.0032948-1.9967052.8967981-2 2v10c.0032948 1.1032019.89679813 1.9967052 2 2h2v1c0 2.209139 1.790861 4 4 4h3c-2.209139 0-4-1.790861-4-4v-1h-2c-1.10320187-.0032948-1.9967052-.8967981-2-2v-10c.0032948-1.1032019.89679813-1.9967052 2-2z" fill="#fff"/><path id="Rectangle-path" d="m9 9h8v2h-8z" fill="#fff"/><g fill="#ff414c"><circle id="Oval" cx="13" cy="10" r="1"/><path id="Shape" d="m9 26c-.55228475 0-1 .4477153-1 1v2c0 1.1045695.8954305 2 2 2h2c.5522847 0 1-.4477153 1-1s-.4477153-1-1-1h-2v-2c0-.5522847-.44771525-1-1-1z"/><path id="Shape" d="m3 30h1c.00330612 2.7600532 2.23994685 4.9966939 5 5h15.66l9.511 7.316c.9059152.6967777 2.1290352.8182992 3.1543419.3133956 1.0253068-.5049036 1.6746681-1.5485126 1.6746581-2.6913956v-35.876c.00001-1.142883-.6493513-2.186492-1.6746581-2.69139559-1.0253067-.50490359-2.2484267-.38338208-3.1543419.31339559l-9.511 7.316h-7.66c-.5522847 0-1 .44771525-1 1 0 .5522847.4477153 1 1 1h7v13c0 .5522847.4477153 1 1 1s1-.4477153 1-1v-13.508l9.39-7.222c.3018755-.2323874.7095675-.27306524 1.051408-.10490519s.5584391.51594231.558592.89690519v35.876c-.0001529.3809629-.2167515.7287451-.558592.8969052-.3418405.16816-.7495325.1274822-1.051408-.1049052l-9.39-7.222v-2.508c0-.5522847-.4477153-1-1-1s-1 .4477153-1 1v2h-15c-1.65685425 0-3-1.3431458-3-3v-16c0-1.6568542 1.34314575-3 3-3 .55228475 0 1-.4477153 1-1 0-.55228475-.44771525-1-1-1-2.76005315.00330612-4.99669388 2.2399468-5 5h-1c-1.65685425 0-3 1.3431458-3 3v10c0 1.6568542 1.34314575 3 3 3zm-1-13c0-.5522847.44771525-1 1-1h1v12h-1c-.55228475 0-1-.4477153-1-1z"/><path id="Shape" d="m15 30c0 .5522847.4477153 1 1 1h1c.5522847 0 1-.4477153 1-1s-.4477153-1-1-1h-1c-.5522847 0-1 .4477153-1 1z"/><path id="Shape" d="m21 15c.5522847 0 1-.4477153 1-1s-.4477153-1-1-1h-2c-.5522847 0-1 .4477153-1 1s.4477153 1 1 1z"/><path id="Shape" d="m15 13h-4c-.5522847 0-1 .4477153-1 1s.4477153 1 1 1h4c.5522847 0 1-.4477153 1-1s-.4477153-1-1-1z"/><path id="Shape" d="m34 11c.5522847 0 1-.4477153 1-1v-2c0-.55228475-.4477153-1-1-1s-1 .44771525-1 1v2c0 .5522847.4477153 1 1 1z"/><path id="Shape" d="m33 24c0 .5522847.4477153 1 1 1s1-.4477153 1-1v-10c0-.5522847-.4477153-1-1-1s-1 .4477153-1 1z"/><path id="Shape" d="m50.011.24c-.4197364-.35898509-1.0510149-.30973641-1.41.11s-.3097364 1.05101491.11 1.41c5.9938455 5.05494878 9.4024709 12.5331785 9.2862141 20.3731514s-3.7451201 15.2138455-9.8862141 20.0888486c-.2854704.2219636-.4288711.580752-.3750325.9383308s.2965283.6582358.6347005.786301c.3381723.1280653.7191385.0635857.996332-.1686318 6.6033283-5.2486484 10.5044125-13.1822827 10.6291693-21.6165397.1247568-8.4342569-3.5399686-16.47980226-9.9851693-21.9214603z"/><path id="Shape" d="m46.27 38c.2529781.0003532.4965528-.0958606.681-.269 4.3804814-4.0121257 6.9257569-9.6438654 7.0427198-15.5828964s-2.2046028-11.666618-6.4237198-15.8481036c-.2424029-.28696355-.6251781-.41387472-.9910073-.32857385s-.6529963.36842332-.7434774.73300587c-.0904811.36458254.0309882.74911923.3144847.99556798 3.8390955 3.7976997 5.9522721 9.003982 5.8460486 14.4030462-.1062235 5.3990641-2.4225467 10.5181986-6.4080486 14.1619538-.3032085.2797157-.4035369.7169147-.2526211 1.1008427s.5221.6357832.9346211.6341573z"/><path id="Shape" d="m43.367 31.8c.4418278.3313708 1.0686292.2418278 1.4-.2 4.3080863-5.6772418 4.3080863-13.5287582 0-19.206-.2154312-.2858125-.5669769-.4349829-.9222133-.3913203-.3552365.0436626-.6601947.2735249-.8.603s-.0932179.7085078.1222133.9943203c3.7721474 4.9625456 3.7721474 11.8314544 0 16.794-.1610288.2125687-.2304828.4806505-.192927.7446681.0375559.2640176.1790103.5020982.392927.6613319z"/></g></g></g></svg>