<svg height="512" viewBox="0 0 60 44" width="512" xmlns="http://www.w3.org/2000/svg"><g id="Page-1" fill="none" fill-rule="evenodd"><g id="050---Volume" fill-rule="nonzero"><path id="Shape" d="m25 10v24h-16c-2.209139 0-4-1.790861-4-4v-16c0-2.209139 1.790861-4 4-4z" fill="#ffe7e8"/><path id="Rectangle-path" d="m22 10h3v24h-3z" fill="#ffc9cc"/><path id="Shape" d="m5 15v14h-2c-1.10320187-.0032948-1.9967052-.8967981-2-2v-10c.0032948-1.1032019.89679813-1.9967052 2-2z" fill="#ffe7e8"/><path id="Shape" d="m38 4.06v35.88c-.0018263.7612046-.4356029 1.4553782-1.1189747 1.7906972-.6833717.3353191-1.4978456.2536412-2.1010253-.2106972l-9.78-7.52v-24l9.78-7.52c.6031797-.46433835 1.4176536-.54601628 2.1010253-.21069722.6833718.33531907 1.1171484 1.02949259 1.1189747 1.79069722z" fill="#ffe0e2"/><path id="Shape" d="m34.78 2.48-.313.241c.342397.36172738.5331441.84092134.533 1.339v35.88c.0001441.4980787-.190603.9772726-.533 1.339l.313.241c.6031797.4643384 1.4176536.5460163 2.1010253.2106972.6833718-.335319 1.1171484-1.0294926 1.1189747-1.7906972v-35.88c-.0018263-.76120463-.4356029-1.45537815-1.1189747-1.79069722-.6833717-.33531906-1.4978456-.25364113-2.1010253.21069722z" fill="#ff9ea1"/><path id="Shape" d="m6 15h2v-1c0-2.209139 1.790861-4 4-4h-3c-2.209139 0-4 1.790861-4 4v1h-2c-1.10320187.0032948-1.9967052.8967981-2 2v10c.0032948 1.1032019.89679813 1.9967052 2 2h2v1c0 2.209139 1.790861 4 4 4h3c-2.209139 0-4-1.790861-4-4v-1h-2c-1.10320187-.0032948-1.9967052-.8967981-2-2v-10c.0032948-1.1032019.89679813-1.9967052 2-2z" fill="#fff"/><path id="Rectangle-path" d="m9 9h8v2h-8z" fill="#fff"/><g fill="#ff414c"><circle id="Oval" cx="13" cy="10" r="1"/><path id="Shape" d="m9 26c-.55228475 0-1 .4477153-1 1v2c0 1.1045695.8954305 2 2 2h2c.5522847 0 1-.4477153 1-1s-.4477153-1-1-1h-2v-2c0-.5522847-.44771525-1-1-1z"/><path id="Shape" d="m3 30h1c.00330612 2.7600532 2.23994685 4.9966939 5 5h15.66l9.511 7.316c.9059152.6967777 2.1290352.8182992 3.1543419.3133956 1.0253068-.5049036 1.6746681-1.5485126 1.6746581-2.6913956v-35.876c.00001-1.142883-.6493513-2.186492-1.6746581-2.69139559-1.0253067-.50490359-2.2484267-.38338208-3.1543419.31339559l-9.511 7.316h-7.66c-.5522847 0-1 .44771525-1 1 0 .5522847.4477153 1 1 1h7v13c0 .5522847.4477153 1 1 1s1-.4477153 1-1v-13.508l9.39-7.222c.3018755-.2323874.7095675-.27306524 1.051408-.10490519s.5584391.51594231.558592.89690519v35.876c-.0001529.3809629-.2167515.7287451-.558592.8969052-.3418405.16816-.7495325.1274822-1.051408-.1049052l-9.39-7.222v-2.508c0-.5522847-.4477153-1-1-1s-1 .4477153-1 1v2h-15c-1.65685425 0-3-1.3431458-3-3v-16c0-1.6568542 1.34314575-3 3-3 .55228475 0 1-.4477153 1-1 0-.55228475-.44771525-1-1-1-2.76005315.00330612-4.99669388 2.2399468-5 5h-1c-1.65685425 0-3 1.3431458-3 3v10c0 1.6568542 1.34314575 3 3 3zm-1-13c0-.5522847.44771525-1 1-1h1v12h-1c-.55228475 0-1-.4477153-1-1z"/><path id="Shape" d="m15 30c0 .5522847.4477153 1 1 1h1c.5522847 0 1-.4477153 1-1s-.4477153-1-1-1h-1c-.5522847 0-1 .4477153-1 1z"/><path id="Shape" d="m21 15c.5522847 0 1-.4477153 1-1s-.4477153-1-1-1h-2c-.5522847 0-1 .4477153-1 1s.4477153 1 1 1z"/><path id="Shape" d="m15 13h-4c-.5522847 0-1 .4477153-1 1s.4477153 1 1 1h4c.5522847 0 1-.4477153 1-1s-.4477153-1-1-1z"/><path id="Shape" d="m34 11c.5522847 0 1-.4477153 1-1v-2c0-.55228475-.4477153-1-1-1s-1 .44771525-1 1v2c0 .5522847.4477153 1 1 1z"/><path id="Shape" d="m33 24c0 .5522847.4477153 1 1 1s1-.4477153 1-1v-10c0-.5522847-.4477153-1-1-1s-1 .4477153-1 1z"/><path id="Shape" d="m50.011.241c-.4212323-.33407529-1.0312217-.27530784-1.3809275.13304098-.3497059.40834881-.3139582 1.02011905.0809275 1.38495902.2426667.21.4833333.423.722.639.4060779.37349138 1.0379218.34753745 1.412-.058.3732315-.40634781.3468296-1.03820503-.059-1.412-.254-.235-.513-.463-.775-.687z"/><path id="Shape" d="m52.8 37.356c-.2143594.2858125-.2599564.6642734-.1196152.9928203.1403411.3285469.4452994.5572656.8.6.3547005.0427344.7052558-.1070078.9196152-.3928203.409-.547.8-1.12 1.179-1.705.255745-.4609985.1096802-1.0413601-.3338203-1.3263732s-1.0320909-.1767737-1.3451797.2473732c-.353.544-.721 1.077-1.1 1.584z"/><path id="Shape" d="m59.963 23.185c.0246667-.4786667.037-.9603333.037-1.445 0-.21-.0023333-.4206667-.007-.632.0003378-.2673041-.1090838-.5230243-.3026715-.7073486-.1935877-.1843242-.4543619-.2810854-.7213285-.2676514-.2652417.0062894-.5171121.1177272-.7001637.3097814-.1830517.1920543-.2822784.4489805-.2758363.7142186 0 .194.007.389.007.583 0 .4493333-.0116667.8956667-.035 1.339-.0141655.2649785.0775674.5247225.2549989.7220352.1774314.1973128.4260112.3160139.6910011.3299648h.054c.5310933-.0002873.969321-.4156815.998-.946z"/><path id="Shape" d="m57.044 31.883c.2495564.0906832.5249323.078394.7654189-.0341582.2404866-.1125523.4263378-.316126.5165811-.5658418.235-.644.448-1.308.636-1.976.0966368-.344162.0022116-.7137336-.2476707-.9693603-.2498822-.2556267-.6172127-.3584258-.9634818-.2696348-.3462691.0887909-.618807.3556663-.7148475.6999951-.174.618-.371 1.234-.589 1.83-.0917644.2495403-.0803756.5253511.0316492.7664766s.3154621.4277122.5653508.5185234z"/><path id="Shape" d="m58.2 16.2c.0825722-.0001721.1648259-.010244.245-.03.2572913-.0646611.4783446-.2289097.6145052-.4565941.1361605-.2276844.176268-.5001428.1114948-.7574059-.169-.671-.363-1.341-.577-1.989-.1120027-.3394023-.3965665-.5932703-.746499-.6659742-.3499324-.0727039-.7120703.0468016-.95.3135-.2379296.2666984-.3155038.6400719-.203501.9794742.2.6.379 1.225.536 1.85.1118468.444534.5116114.756103.97.756z"/><path id="Shape" d="m56.006 7.326c-.351-.586-.731-1.171-1.129-1.738-.3175637-.45204507-.9414549-.56106373-1.3935-.2435s-.5610637.94145493-.2435 1.3935c.37.528.724 1.071 1.049 1.616.1836345.30671251.516949.49215871.8743871.48648281.357438-.0056759.6846964-.20161159.8585-.514.1738035-.31238841.1677474-.6937703-.0158871-1.00048281z"/><path id="Shape" d="m48.741 44c.2278552.0004135.448907-.0776256.626-.221.27-.2173333.5366667-.4396667.8-.667.4175272-.3636795.4611794-.9969727.0975-1.4145-.3636795-.4175272-.9969727-.4611795-1.4145-.0975-.242.21-.487.417-.737.617-.3338974.2652351-.4628687.7130244-.321206 1.1152293.1416628.4022049.5227901.6703297.949206.6677707z"/><path id="Shape" d="m52.243 13.188c-.1412985-.3283271-.4470242-.556332-.8020131-.5981274-.3549888-.0417954-.7053097.1089683-.919.3955s-.2582855.6653003-.1169869.9936274c.25.58.475 1.179.668 1.781.1329213.4135467.5176166.6939863.952.694.1038463-.0003605.2070311-.0165464.306-.048.2526652-.0809568.4628014-.2590044.5841484-.4949463.1213469-.235942.1439566-.5104361.0628516-.7630537-.213-.662-.46-1.322-.735-1.96z"/><path id="Shape" d="m46.155 6.291c-.3903819.39049985-.3903819 1.02350015 0 1.414.451.453.881.929 1.279 1.412.350977.42663993.98136.4879769 1.408.13699995.4266399-.35097694.4879769-.98135998.137-1.40799995-.438-.532-.911-1.053-1.406-1.551-.1871553-.18922769-.4420225-.29604242-.7081684-.29679318-.266146-.00075077-.5216117.10462438-.7098316.29279318z"/><path id="Shape" d="m53 20.353h-.017c-.5519221.0093121-.9919106.4640713-.983 1.016v.341c0 .526-.021 1.048-.062 1.562-.0212645.2645932.0635433.5267846.2357367.7288024.1721935.2020178.4176421.3272841.6822633.3481976h.081c.5228489.0016339.9586973-.3997825 1-.921.045-.565.067-1.144.067-1.729v-.366c-.0109177-.5460182-.4578774-.9822936-1.004-.98z"/><path id="Shape" d="m46.27 38c.2529781.0003532.4965528-.0958606.681-.269.396-.368.777-.7486667 1.143-1.142.3620665-.4058449.3333903-1.0266457-.0645484-1.3973842s-1.0192137-.355463-1.3984516.0343842c-.3333333.358-.681.7056667-1.043 1.043-.3001927.2802253-.3985488.7154919-.2480143 1.0975669.1505344.382075.519354.6332781.9300143.6334331z"/><path id="Shape" d="m51.679 31.456c.315-.624.6-1.268.853-1.914.142302-.3354961.0908274-.7218415-.1343508-1.0083764s-.5884029-.4278865-.9480304-.3689329c-.3596275.0589535-.6587108.3088768-.7806188.6523093-.229.586-.489 1.17-.775 1.737-.2488019.492659-.0514262 1.0937376.441 1.343.1392812.0712624.2935472.1082863.45.108.3777772.0005574.7236227-.2118242.894-.549z"/><path id="Shape" d="m44.769 12.4c-.3330277-.4418278-.9611722-.5300277-1.403-.197s-.5300277.9611722-.197 1.403c3.7721474 4.9625456 3.7721474 11.8314544 0 16.794-.2154312.2858125-.2620186.6648452-.1222133.9943203s.4447635.5593374.8.603c.3552364.0436626.7067821-.1055078.9222133-.3913203 4.3080863-5.6772418 4.3080863-13.5287582 0-19.206z"/></g></g></g></svg>