<svg height="512" viewBox="0 0 60 42" width="512" xmlns="http://www.w3.org/2000/svg"><g id="Page-1" fill="none" fill-rule="evenodd"><g id="051---Mute" fill-rule="nonzero"><path id="Shape" d="m25 9v24h-16c-2.209139 0-4-1.790861-4-4v-16c0-2.209139 1.790861-4 4-4z" fill="#ffe7e8"/><path id="Rectangle-path" d="m22 9h3v24h-3z" fill="#ffc9cc"/><path id="Shape" d="m5 14v14h-2c-1.10320187-.0032948-1.9967052-.8967981-2-2v-10c.0032948-1.1032019.89679813-1.9967052 2-2z" fill="#ffe7e8"/><path id="Shape" d="m38 3.06v35.88c-.0018263.7612046-.4356029 1.4553782-1.1189747 1.7906972-.6833717.3353191-1.4978456.2536412-2.1010253-.2106972l-9.78-7.52v-24l9.78-7.52c.6031797-.46433835 1.4176536-.54601628 2.1010253-.21069722.6833718.33531907 1.1171484 1.02949259 1.1189747 1.79069722z" fill="#ffe0e2"/><path id="Shape" d="m34.78 1.48-.313.241c.342397.36172738.5331441.84092134.533 1.339v35.88c.0001441.4980787-.190603.9772726-.533 1.339l.313.241c.6031797.4643384 1.4176536.5460163 2.1010253.2106972.6833718-.335319 1.1171484-1.0294926 1.1189747-1.7906972v-35.88c-.0018263-.76120463-.4356029-1.45537815-1.1189747-1.79069722-.6833717-.33531906-1.4978456-.25364113-2.1010253.21069722z" fill="#ff9ea1"/><path id="Shape" d="m3 28h2v1c0 2.209139 1.790861 4 4 4h3c-2.209139 0-4-1.790861-4-4v-1h-2c-1.10320187-.0032948-1.9967052-.8967981-2-2v-10c.0032948-1.1032019.89679813-1.9967052 2-2h2v-1c0-2.209139 1.790861-4 4-4h-3c-2.209139 0-4 1.790861-4 4v1h-2c-1.10320187.0032948-1.9967052.8967981-2 2v10c.0032948 1.1032019.89679813 1.9967052 2 2z" fill="#fff"/><path id="Rectangle-path" d="m9 8h8v2h-8z" fill="#fff"/><g fill="#ff414c"><circle id="Oval" cx="13" cy="9" r="1"/><path id="Shape" d="m9 25c-.55228475 0-1 .4477153-1 1v2c0 1.1045695.8954305 2 2 2h2c.5522847 0 1-.4477153 1-1s-.4477153-1-1-1h-2v-2c0-.5522847-.44771525-1-1-1z"/><path id="Shape" d="m3 29h1c.00330612 2.7600532 2.23994685 4.9966939 5 5h15.659l9.512 7.316c.9059152.6967777 2.1290352.8182992 3.1543419.3133956 1.0253068-.5049036 1.6746681-1.5485126 1.6746581-2.6913956v-35.876c.00001-1.142883-.6493513-2.186492-1.6746581-2.69139559-1.0253067-.50490359-2.2484267-.38338208-3.1543419.31339559l-9.512 7.316h-7.659c-.5522847 0-1 .44771525-1 1s.4477153 1 1 1h7v13c0 .5522847.4477153 1 1 1s1-.4477153 1-1v-13.507l9.391-7.223c.3018781-.23178394.7091585-.27211084 1.0506295-.10402817.3414709.16808266.5579253.51543126.5583705.89602817v35.876c-.0004452.3805969-.2168996.7279455-.5583705.8960282-.341471.1680826-.7487514.1277557-1.0506295-.1040282l-9.391-7.223v-2.507c0-.5522847-.4477153-1-1-1s-1 .4477153-1 1v2h-15c-1.65685425 0-3-1.3431458-3-3v-16c0-1.6568542 1.34314575-3 3-3 .55228475 0 1-.44771525 1-1s-.44771525-1-1-1c-2.76005315.00330612-4.99669388 2.2399468-5 5h-1c-1.65685425 0-3 1.3431458-3 3v10c0 1.6568542 1.34314575 3 3 3zm-1-13c0-.5522847.44771525-1 1-1h1v12h-1c-.55228475 0-1-.4477153-1-1z"/><path id="Shape" d="m15 29c0 .5522847.4477153 1 1 1h1c.5522847 0 1-.4477153 1-1s-.4477153-1-1-1h-1c-.5522847 0-1 .4477153-1 1z"/><path id="Shape" d="m21 14c.5522847 0 1-.4477153 1-1s-.4477153-1-1-1h-2c-.5522847 0-1 .4477153-1 1s.4477153 1 1 1z"/><path id="Shape" d="m15 12h-4c-.5522847 0-1 .4477153-1 1s.4477153 1 1 1h4c.5522847 0 1-.4477153 1-1s-.4477153-1-1-1z"/><path id="Shape" d="m34 10c.5522847 0 1-.44771525 1-1v-2c0-.55228475-.4477153-1-1-1s-1 .44771525-1 1v2c0 .55228475.4477153 1 1 1z"/><path id="Shape" d="m33 23c0 .5522847.4477153 1 1 1s1-.4477153 1-1v-10c0-.5522847-.4477153-1-1-1s-1 .4477153-1 1z"/><path id="Shape" d="m59.687 12.332c-.1927817-.1822656-.4500905-.2804541-.7152872-.2729521s-.5165432.1200796-.6987128.3129521l-6.773 7.172-6.773-7.172c-.3809285-.392457-1.0064789-.4060805-1.4041323-.0305797s-.4198698 1.000805-.0498677 1.4035797l6.852 7.255-6.852 7.255c-.3700021.4027747-.3477857 1.0280789.0498677 1.4035797s1.0232038.3618773 1.4041323-.0305797l6.773-7.172 6.773 7.172c.3809285.392457 1.0064789.4060805 1.4041323.0305797s.4198698-1.000805.0498677-1.4035797l-6.852-7.255 6.852-7.255c.378888-.4013323.3609853-1.0337448-.04-1.413z"/></g></g></g></svg>