<svg height="512" viewBox="0 0 60 58" width="512" xmlns="http://www.w3.org/2000/svg"><g id="Page-1" fill="none" fill-rule="evenodd"><g id="052---Volume-Level" fill-rule="nonzero" transform="translate(0 -1)"><path id="Shape" d="m8 49-5.56 5.56c-1.14621203-.7003046-1.68722873-2.077159-1.3243674-3.370434.36286134-1.293275 1.54115289-2.1877336 2.8843674-2.189566z" fill="#ffe7e8"/><path id="Shape" d="m13 49-6 6h-3c-.55084648.0016019-1.091175-.1507985-1.56-.44l5.56-5.56z" fill="#ffc9cc"/><path id="Shape" d="m18 49-6 6h-5l6-6z" fill="#ffe7e8"/><path id="Shape" d="m23 49-6 6h-5l6-6z" fill="#ffc9cc"/><path id="Shape" d="m24 52c-.0050382 1.0546903.2748116 2.0911709.81 3h-7.81l6-6h1.81c-.53395.9093493-.8137062 1.9454836-.81 3z" fill="#ffe7e8"/><path id="Shape" d="m59 52c0 1.6568542-1.3431458 3-3 3h-20.81c1.0799068-1.8542252 1.0799068-4.1457748 0-6h20.81c1.6568542 0 3 1.3431458 3 3z" fill="#ffe0e2"/><path id="Shape" d="m56 49h-3c1.6568542 0 3 1.3431458 3 3s-1.3431458 3-3 3h3c1.6568542 0 3-1.3431458 3-3s-1.3431458-3-3-3z" fill="#ff9ea1"/><path id="Shape" d="m43 29c3.8659932 0 7-3.1340068 7-7s-3.1340068-7-7-7" fill="#ffe7e8"/><path id="Shape" d="m43 15v.683c2.4424691 1.1552791 4.0000818 3.6150886 4.0000818 6.317s-1.5576127 5.1617209-4.0000818 6.317v.683c3.8659932 0 7-3.1340068 7-7s-3.1340068-7-7-7z" fill="#ffc9cc"/><path id="Shape" d="m36 52c.0050382 1.0546903-.2748116 2.0911709-.81 3-1.0689456 1.8562997-3.0479231 3.0003513-5.19 3.0003513s-4.1210544-1.1440516-5.19-3.0003513c-1.0799068-1.8542252-1.0799068-4.1457748 0-6 1.0689456-1.8562997 3.0479231-3.0003513 5.19-3.0003513s4.1210544 1.1440516 5.19 3.0003513c.5351884.9088291.8150382 1.9453097.81 3z" fill="#ffe7e8"/><circle id="Oval" cx="30" cy="52" fill="#ffe7e8" r="2"/><path id="Shape" d="m30 10.057v24h-16c-2.209139 0-4-1.790861-4-4v-16c0-2.209139 1.790861-4 4-4z" fill="#ffe7e8"/><path id="Rectangle-path" d="m27 10.057h3v24h-3z" fill="#ffc9cc"/><path id="Shape" d="m10 15.057v14h-2c-1.10320187-.0032948-1.9967052-.8967981-2-2v-10c.0032948-1.1032019.89679813-1.9967052 2-2z" fill="#ffe7e8"/><path id="Shape" d="m43 4.117v35.883c-.0018263.7612046-.4356029 1.4553782-1.1189747 1.7906972-.6833717.3353191-1.4978456.2536412-2.1010253-.2106972l-9.78-7.523v-24l9.78-7.52c.6031797-.46433835 1.4176536-.54601628 2.1010253-.21069722.6833718.33531907 1.1171484 1.02949259 1.1189747 1.79069722z" fill="#ffe0e2"/><path id="Shape" d="m39.78 2.537-.313.24c.3422851.36220143.5329927.84165375.533 1.34v35.883c-.0000595.4980396-.1907778.977161-.533 1.339l.313.241c.6031797.4643384 1.4176536.5460163 2.1010253.2106972.6833718-.335319 1.1171484-1.0294926 1.1189747-1.7906972v-35.883c-.0018263-.76120463-.4356029-1.45537815-1.1189747-1.79069722-.6833717-.33531906-1.4978456-.25364113-2.1010253.21069722z" fill="#ff9ea1"/><path id="Shape" d="m6 17.057v10c.0032948 1.1032019.89679813 1.9967052 2 2h2v1c0 2.209139 1.790861 4 4 4h3c-2.209139 0-4-1.790861-4-4v-1h-2c-1.10320187-.0032948-1.9967052-.8967981-2-2v-10c.0032948-1.1032019.89679813-1.9967052 2-2h2v-1c0-2.209139 1.790861-4 4-4h-3c-2.209139 0-4 1.790861-4 4v1h-2c-1.10320187.0032948-1.9967052.8967981-2 2z" fill="#fff"/><path id="Shape" d="m2.44 54.56c.951.592 1.685.441 4.534.44-.54209848-.002585-1.07295013-.1548501-1.534-.44-1.14621203-.7003046-1.68722873-2.077159-1.3243674-3.370434.36286134-1.293275 1.54115289-2.1877336 2.8843674-2.189566h-3c-1.34321451.0018324-2.52150606.896291-2.8843674 2.189566-.36286133 1.293275.17815537 2.6701294 1.3243674 3.370434z" fill="#fff"/><path id="Rectangle-path" d="m14 8.942h8v2h-8z" fill="#fff"/><g fill="#ff414c"><circle id="Oval" cx="18" cy="9.942" r="1"/><path id="Shape" d="m14 25.942c-.5522847 0-1 .4477153-1 1v2c0 1.1045695.8954305 2 2 2h2c.5522847 0 1-.4477153 1-1s-.4477153-1-1-1h-2v-2c0-.5522847-.4477153-1-1-1z"/><path id="Shape" d="m8 29.942h1c.00330612 2.7600532 2.2399468 4.9966939 5 5h15.659l9.512 7.317c.9060581.6968877 2.1294063.818329 3.1547906.3131748 1.0253844-.5051541 1.6746005-1.5491115 1.6742094-2.6921748v-9.949c3.9989443-.5010019 6.9993763-3.9007943 6.9993763-7.931s-3.000432-7.4299981-6.9993763-7.931v-10.069c.0003911-1.14306327-.648825-2.18702067-1.6742094-2.69217482-1.0253843-.50515415-2.2487325-.38371286-3.1547906.31317482l-9.511 7.321h-7.66c-.5522847 0-1 .44771525-1 1 0 .5522847.4477153 1 1 1h7v13c0 .5522847.4477153 1 1 1s1-.4477153 1-1v-13.507l9.391-7.224c.3014493-.23145947.7080492-.27202943 1.0492894-.10469661.3412402.16733283.5581282.5136405.5597106.89369661v35.88c-.0000648.3807772-.2163742.7284736-.5579225.8968067-.3415483.168333-.7490564.1280866-1.0510775-.1038067l-9.391-7.223v-2.508c0-.5522847-.4477153-1-1-1s-1 .4477153-1 1v2h-15c-1.6568542 0-3-1.3431458-3-3v-16c0-1.6568542 1.3431458-3 3-3 .5522847 0 1-.4477153 1-1 0-.55228475-.4477153-1-1-1-2.7600532.00330612-4.99669388 2.2399468-5 5h-1c-1.65685425 0-3 1.3431458-3 3v10c0 .7956495.31607052 1.5587112.87867966 2.1213203.56260913.5626092 1.32567087.8786797 2.12132034.8786797zm41-7.942c-.0054296 2.9246159-2.1166966 5.4201335-5 5.91v-11.82c2.8833034.4898665 4.9945704 2.9853841 5 5.91zm-42-5.058c0-.5522847.44771525-1 1-1h1v12h-1c-.55228475 0-1-.4477153-1-1z"/><path id="Shape" d="m20 29.942c0 .5522847.4477153 1 1 1h1c.5522847 0 1-.4477153 1-1s-.4477153-1-1-1h-1c-.5522847 0-1 .4477153-1 1z"/><path id="Shape" d="m26 14.942c.5522847 0 1-.4477153 1-1s-.4477153-1-1-1h-2c-.5522847 0-1 .4477153-1 1s.4477153 1 1 1z"/><path id="Shape" d="m20 12.942h-4c-.5522847 0-1 .4477153-1 1s.4477153 1 1 1h4c.5522847 0 1-.4477153 1-1s-.4477153-1-1-1z"/><path id="Shape" d="m39 10.942c.5522847 0 1-.4477153 1-1v-2c0-.55228475-.4477153-1-1-1s-1 .44771525-1 1v2c0 .5522847.4477153 1 1 1z"/><path id="Shape" d="m38 23.942c0 .5522847.4477153 1 1 1s1-.4477153 1-1v-10c0-.5522847-.4477153-1-1-1s-1 .4477153-1 1z"/><path id="Shape" d="m56 48h-20.264c-1.3052336-1.8790855-3.4480758-2.9997109-5.736-2.9997109s-4.4307664 1.1206254-5.736 2.9997109h-20.264c-2.209139 0-4 1.790861-4 4s1.790861 4 4 4h20.264c1.3052336 1.8790855 3.4480758 2.9997109 5.736 2.9997109s4.4307664-1.1206254 5.736-2.9997109h20.264c2.209139 0 4-1.790861 4-4s-1.790861-4-4-4zm-42.586 2h2.172l-4 4h-2.172zm-6.828 4h-2.172l4-4h2.172zm11.828-4h2.172l-4 4h-2.172zm-15.827.587c.37350651-.3768159.88243821-.5882405 1.413-.587l1.586-.0000054-3.186 3.1860054c-.59715123-.7914951-.51680644-1.9026465.188-2.6zm16.827 3.413 3.839-3.839c-.3494322 1.2581366-.333129 2.5897953.047 3.839zm10.586 3c-2.7614237 0-5-2.2385763-5-5s2.2385763-5 5-5 5 2.2385763 5 5c-.0033061 2.7600532-2.2399468 4.9966939-5 5zm27.413-3.587c-.3735065.3768159-.8824382.5882405-1.413.587l-19.3.0000054c.3933429-1.304329.3933429-2.6956818 0-4.0000054h19.3c.8081708.0009798 1.5363294.4882522 1.8454705 1.2349602s.1385032 1.6060869-.4324705 2.1780398z"/><path id="Shape" d="m30 49c-1.6568542 0-3 1.3431458-3 3s1.3431458 3 3 3 3-1.3431458 3-3-1.3431458-3-3-3zm0 4c-.5522847 0-1-.4477153-1-1s.4477153-1 1-1 1 .4477153 1 1-.4477153 1-1 1z"/></g></g></g></svg>