<svg height="512" viewBox="0 0 42 60" width="512" xmlns="http://www.w3.org/2000/svg"><g id="Page-1" fill="none" fill-rule="evenodd"><g id="053---Ear" fill-rule="nonzero"><path id="Shape" d="m1 43v6c0 5.5228475 4.4771525 10 10 10s10-4.4771525 10-10c.0392182-4.1435657 2.7004864-7.8068743 6.629-9.125 9.6001523-3.3726155 15.1377962-13.4156487 12.8662819-23.3342011-2.2715143-9.91855246-11.6280249-16.55057529-21.7391194-15.40898567-10.11109457 1.14158963-17.75334161 9.69285127-17.7561625 19.86818677z" fill="#ffe7e8"/><path id="Shape" d="m40.972 19.923c-.6080311-10.17293084-8.7220692-18.28696885-18.895-18.895-.8752448-.04353159-1.7523813-.03083883-2.626.038 9.4495811.68467235 17.1214239 7.90723533 18.3744138 17.2983681 1.2529899 9.3911328-4.2568899 18.3724363-13.1964138 21.5106319-3.9283251 1.3183826-6.5894793 4.9815342-6.629 9.125-.0028873 4.9402064-3.6152408 9.1369112-8.5 9.875 2.8835331.4624917 5.8244372-.3680497 8.0400596-2.2705951 2.2156225-1.9025453 3.4812042-4.6840951 3.4599404-7.6044049.0395207-4.1434658 2.7006749-7.8066174 6.629-9.125 8.385763-2.9485219 13.8209418-11.0758312 13.343-19.952z" fill="#ffc9cc"/><path id="Shape" d="m14.01 39.09c1.57-2.35 1.02-4.86-.36-6.95-1.03-1.58-2.52-2.75-3.58-4.3-.99822904-1.4535335-1.65148868-3.1157544-1.91-4.86-.58679629-3.7494875.49754733-7.567911 2.967383-10.449386 2.4698357-2.88147496 6.0774958-4.53705577 9.872617-4.530614 13.67 0 22.41 21.09-4.55 32.5" fill="#ffe0e2"/><path id="Shape" d="m9.5 58.875c.9911667.1480766 1.9988333.1480766 2.99 0-4.88100592-.7421465-8.48828815-4.9378959-8.49-9.875v-28c.00609875-10.5309141 8.1849202-19.24918606 18.694-19.927-.6711011-.05635906-1.3446631-.07805456-2.018-.065-10.91584626.17685952-19.67306574 9.0747215-19.676 19.992v28c.00288725 4.9402064 3.61524083 9.1369112 8.5 9.875z" fill="#fff"/><path id="Shape" d="m1.664 12.822 1.842.78c-.98907251 2.341283-1.50106654 4.8563772-1.506 7.398h-2c.00465774-2.8095985.57038833-5.589974 1.664-8.178z" fill="#fff"/><g fill="#ff414c"><path id="Shape" d="m1.426 18.024c-.55228475.0027614-1.00223858-.4427153-1.005-.995s.44271525-1.0022386.995-1.005h.01c.55228475 0 1 .4477153 1 1s-.44771525 1-1 1z"/><path id="Shape" d="m0 21v6c0 .5522847.44771525 1 1 1s1-.4477153 1-1v-6c0-.5522847-.44771525-1-1-1s-1 .4477153-1 1z"/><path id="Shape" d="m41.97 19.87c-.6568409-10.67398182-9.1670182-19.18415909-19.841-19.841-2.1419233-.08358729-4.2850745.13079514-6.368.637-2.0718647.55766469-4.0537593 1.40752908-5.886 2.524-1.80267288 1.16129025-3.43384495 2.56929536-4.846 4.183-1.37637371 1.64539196-2.50896658 3.4801722-3.363 5.448-.21539104.5086543.02234576 1.0956089.53100001 1.311.50865425.215391 1.09560893-.0223458 1.31099999-.531.77432085-1.7796722 1.79864617-3.4397392 3.042-4.93 1.28022353-1.45879387 2.75662839-2.73293766 4.387-3.786 1.6570275-1.00810887 3.448016-1.77735862 5.32-2.285 1.8864727-.45568163 3.8266392-.64983287 5.766-.577 9.658367.59300885 17.3586052 8.294534 17.95 17.953.4154541 8.4212386-4.7323532 16.1212178-12.673 18.956-4.3206369 1.4704429-7.2454816 5.5043246-7.3 10.068 0 4.9705627-4.0294373 9-9 9-4.97056275 0-9-4.0294373-9-9v-6c0-.5522847-.44771525-1-1-1s-1 .4477153-1 1v6c0 6.0751322 4.92486775 11 11 11 6.0751322 0 11-4.9248678 11-11 .0533449-3.7143337 2.4409981-6.9921488 5.96-8.182 8.7773771-3.1305895 14.4686888-11.6403395 14.01-20.948z"/><path id="Shape" d="m33 21c0 .5522847.4477153 1 1 1s1-.4477153 1-1c-.0082673-7.7285595-6.2714405-13.99173268-14-14-5.0978962.04134708-9.7827601 2.8112023-12.276 7.258-2.46181935 4.4459839-2.26128746 9.8892122.521 14.142 1.577 2.308 4.1 3.854 4.64 6.8.1053731.5373127.6232681.8899667 1.161821.7911271.5385528-.0988397.8974707-.6124136.805179-1.1521271-.662-3.6-3.507-5.448-4.957-7.57-4.971-7.246.315-18.269 10.105-18.269 6.624447.00716485 11.9928352 5.375553 12 12z"/><path id="Shape" d="m22.067 16.227c-.1989542.5150021.0570942 1.0937968.572 1.293 2.261.88 3.361 2.805 3.361 5.902 0 .5522847.4477153 1 1 1s1-.4477153 1-1c0-4.937-2.523-6.949-4.639-7.768-.2475659-.095802-.5230647-.0892393-.7657882.0182418s-.4327522.3070601-.5282118.5547582z"/><path id="Shape" d="m15.737 15.457c-.4837529.1314649-.7954147.600792-.7289129 1.0976596.0665019.4968675.4906149.867717.9919129.8673404.0881438-.0003848.175869-.0121487.261-.035.6057075-.14855 1.2212853-.2534856 1.842-.314.5495233-.0568853.9488853-.5484767.892-1.098s-.5484767-.9488853-1.098-.892c-.728291.0708362-1.4502904.195849-2.16.374z"/><path id="Shape" d="m6.052 39.313c.17318855.5238394.73791347.8084393 1.262.636.055-.018 5.477-1.745 8.979 1.758.3923789.3789722 1.0160848.3735524 1.4018186-.0121814s.3911536-1.0094397.0121814-1.4018186c-4.386-4.387-10.754-2.331-11.023-2.241-.52171764.1748702-.80414053.7383754-.632 1.261z"/></g></g></g></svg>