<svg height="512" viewBox="0 0 48 61" width="512" xmlns="http://www.w3.org/2000/svg"><g id="Page-1" fill="none" fill-rule="evenodd"><g id="054---Ear-Error" fill-rule="nonzero"><path id="Shape" d="m1 43v6c0 5.5228475 4.4771525 10 10 10s10-4.4771525 10-10c.0392182-4.1435657 2.7004864-7.8068743 6.629-9.125 9.6001523-3.3726155 15.1377962-13.4156487 12.8662819-23.3342011-2.2715143-9.91855246-11.6280249-16.55057529-21.7391194-15.40898567-10.11109457 1.14158963-17.75334161 9.69285127-17.7561625 19.86818677z" fill="#ffe7e8"/><path id="Shape" d="m40.972 19.923c-.6080311-10.17293084-8.7220692-18.28696885-18.895-18.895-.8752448-.04353159-1.7523813-.03083883-2.626.038 9.4495811.68467235 17.1214239 7.90723533 18.3744138 17.2983681 1.2529899 9.3911328-4.2568899 18.3724363-13.1964138 21.5106319-3.9283251 1.3183826-6.5894793 4.9815342-6.629 9.125-.0028873 4.9402064-3.6152408 9.1369112-8.5 9.875 2.8835331.4624917 5.8244372-.3680497 8.0400596-2.2705951 2.2156225-1.9025453 3.4812042-4.6840951 3.4599404-7.6044049.0395207-4.1434658 2.7006749-7.8066174 6.629-9.125 8.385763-2.9485219 13.8209418-11.0758312 13.343-19.952z" fill="#ffc9cc"/><path id="Shape" d="m14.01 39.09c1.57-2.35 1.02-4.86-.36-6.95-1.03-1.58-2.52-2.75-3.58-4.3-.99822904-1.4535335-1.65148868-3.1157544-1.91-4.86-.58679629-3.7494875.49754733-7.567911 2.967383-10.449386 2.4698357-2.88147496 6.0774958-4.53705577 9.872617-4.530614 13.67 0 22.41 21.09-4.55 32.5" fill="#ffe0e2"/><circle id="Oval" cx="33" cy="45" fill="#ffe7e8" r="14"/><path id="Shape" d="m33 31c-.501124.000841-1.0018425.0285475-1.5.083 7.1005043.7766351 12.477794 6.7741488 12.477794 13.917s-5.3772897 13.1403649-12.477794 13.917c5.1556805.5638557 10.2006402-1.7687254 13.1106632-6.0618293s3.2082338-9.8432051.7749798-14.423407-7.1992273-7.4399313-12.385643-7.4317637z" fill="#ffc9cc"/><path id="Shape" d="m1 21v28c.00288725 4.9402064 3.61524083 9.1369112 8.5 9.875.9944553.1489255 2.0055447.1489255 3 0-4.88453987-.7384854-8.49668788-4.9349515-8.5-9.875v-28c.00385929-10.5097597 8.1517426-19.21852586 18.638-19.921-.607-.048-1.221-.079-1.847-.079-10.96398885.11457992-19.7915987 9.0354125-19.791 20z" fill="#fff"/><path id="Shape" d="m1.664 12.822 1.842.779c-.98899699 2.341657-1.50098513 4.8570622-1.506 7.399h-2c.00465774-2.8095985.57038833-5.589974 1.664-8.178z" fill="#fff"/><g fill="#ff414c"><path id="Shape" d="m1.426 18.024c-.55228475.0027614-1.00223858-.4427153-1.005-.995s.44271525-1.0022386.995-1.005h.01c.55228475 0 1 .4477153 1 1s-.44771525 1-1 1z"/><path id="Shape" d="m0 21v6c0 .5522847.44771525 1 1 1s1-.4477153 1-1v-6c0-.5522847-.44771525-1-1-1s-1 .4477153-1 1z"/><path id="Shape" d="m33 21c0 .5522847.4477153 1 1 1s1-.4477153 1-1c-.0082673-7.7285595-6.2714405-13.99173268-14-14-5.0978962.04134708-9.7827601 2.8112023-12.276 7.258-2.46181935 4.4459839-2.26128746 9.8892122.521 14.142 1.577 2.308 4.1 3.854 4.64 6.8.1053731.5373127.6232681.8899667 1.161821.7911271.5385528-.0988397.8974707-.6124136.805179-1.1521271-.662-3.6-3.507-5.448-4.957-7.57-4.971-7.246.315-18.269 10.105-18.269 6.624447.00716485 11.9928352 5.375553 12 12z"/><path id="Shape" d="m22.067 16.227c-.1989542.5150021.0570942 1.0937968.572 1.293 2.261.88 3.361 2.805 3.361 5.902 0 .5522847.4477153 1 1 1s1-.4477153 1-1c0-4.937-2.523-6.949-4.639-7.768-.2475659-.095802-.5230647-.0892393-.7657882.0182418s-.4327522.3070601-.5282118.5547582z"/><path id="Shape" d="m15.737 15.457c-.4837529.1314649-.7954147.600792-.7289129 1.0976596.0665019.4968675.4906149.867717.9919129.8673404.0881438-.0003848.175869-.0121487.261-.035.6057075-.14855 1.2212853-.2534856 1.842-.314.5495233-.0568853.9488853-.5484767.892-1.098s-.5484767-.9488853-1.098-.892c-.728291.0708362-1.4502904.195849-2.16.374z"/><path id="Shape" d="m6.051 39.316c.17483774.5238077.74116162.8067458 1.265.632.04-.013 4.039-1.311 7.4.564.4821446.2695149 1.091485.0971446 1.361-.385.2695149-.4821446.0971446-1.091485-.385-1.361-4.12-2.3-8.809-.781-9.006-.714-.25186004.0833585-.46027421.2633817-.57936822.5004444s-.13910624.511734-.05563178.7635556z"/><path id="Shape" d="m48 45c-.008779-5.8585832-3.4258475-11.1764961-8.751-13.619 1.9959616-3.4962116 2.9404236-7.4942026 2.72-11.514-.6581807-10.67099453-9.1659723-19.1783572-19.837-19.836-2.1422076-.08392956-4.2856904.13011583-6.369.636-2.0730104.55661875-4.0559942 1.40618031-5.889 2.523-1.80278176 1.1615415-3.43425111 2.56951268-4.847 4.183-1.37616238 1.64591052-2.50873118 3.4809885-3.363 5.449-.14211105.3295976-.09667889.7100767.11904309.9969463.21572199.2868695.56864127.4361226.92473275.3910786s.66072944-.2774751.79822416-.6090249c.7745259-1.7792582 1.79883793-3.438967 3.042-4.929 1.28039213-1.45890901 2.75676505-2.73336177 4.387-3.787 1.6582188-1.00855989 3.4505921-1.77782607 5.324-2.285 1.8864808-.45551048 3.8267155-.64899556 5.766-.575 9.6552494.59370896 17.353291 8.2917506 17.947 17.947.2054061 3.7398529-.7040073 7.4565105-2.613 10.679-5.7240878-1.7529343-11.9421468.0721391-15.8108134 4.6406595-3.8686666 4.5685205-4.6442859 11.0023035-1.9721866 16.3593405-1.1418534 3.7787361-4.6285255 6.3599955-8.576 6.349-4.96827817-.0055111-8.99448887-4.0317218-9-9v-6c0-.5522847-.44771525-1-1-1s-1 .4477153-1 1v6c-.03221021 5.1389856 3.50715327 9.6116796 8.51593707 10.7615906 5.00878383 1.149911 10.14458233-1.331149 12.35706293-5.9695906 3.8077716 5.2692644 10.5791177 7.4817562 16.7635079 5.4773636 6.1843901-2.0043926 10.3705541-7.7682697 10.3634921-14.2693636zm-15 13c-7.1797017 0-13-5.8202983-13-13s5.8202983-13 13-13 13 5.8202983 13 13c-.008266 7.1762751-5.8237249 12.991734-13 13z"/><path id="Shape" d="m37.707 40.293c-.3904999-.3903819-1.0235001-.3903819-1.414 0l-3.293 3.293-3.293-3.293c-.3923789-.3789722-1.0160848-.3735524-1.4018186.0121814s-.3911536 1.0094397-.0121814 1.4018186l3.293 3.293-3.293 3.293c-.2599566.2510745-.3642126.6228779-.2726972.9725073.0915155.3496295.3645604.6226744.7141899.7141899.3496294.0915154.7214328-.0127406.9725073-.2726972l3.293-3.293 3.293 3.293c.3923789.3789722 1.0160848.3735524 1.4018186-.0121814s.3911536-1.0094397.0121814-1.4018186l-3.293-3.293 3.293-3.293c.3903819-.3904999.3903819-1.0235001 0-1.414z"/></g></g></g></svg>