<svg height="512" viewBox="0 0 60 60" width="512" xmlns="http://www.w3.org/2000/svg"><g id="Page-1" fill="none" fill-rule="evenodd"><g id="055---Ear-Sound" fill-rule="nonzero" transform="translate(-1)"><path id="Shape" d="m20 43v6c0 5.5228475 4.4771525 10 10 10s10-4.4771525 10-10c.0392182-4.1435657 2.7004864-7.8068743 6.629-9.125 9.6001523-3.3726155 15.1377962-13.4156487 12.8662819-23.3342011-2.2715143-9.91855246-11.6280249-16.55057529-21.7391194-15.40898567-10.1110946 1.14158963-17.7533416 9.69285127-17.7561625 19.86818677z" fill="#ffe7e8"/><path id="Shape" d="m59.972 19.923c-.6082902-10.1747214-8.725118-18.28940186-18.9-18.895-.8752448-.04353159-1.7523813-.03083883-2.626.038 9.4495811.68467235 17.1214239 7.90723533 18.3744138 17.2983681 1.2529899 9.3911328-4.2568899 18.3724363-13.1964138 21.5106319-3.9263512 1.320098-6.5852098 4.9828522-6.624 9.125-.0028873 4.9402064-3.6152408 9.1369112-8.5 9.875 2.8835331.4624917 5.8244372-.3680497 8.0400596-2.2705951 2.2156225-1.9025453 3.4812042-4.6840951 3.4599404-7.6044049.0395207-4.1434658 2.7006749-7.8066174 6.629-9.125 8.385763-2.9485219 13.8209418-11.0758312 13.343-19.952z" fill="#ffc9cc"/><path id="Shape" d="m33.01 39.09c1.57-2.35 1.02-4.86-.36-6.95-1.03-1.58-2.52-2.75-3.58-4.3-.998229-1.4535335-1.6514887-3.1157544-1.91-4.86-.5867963-3.7494875.4975473-7.567911 2.967383-10.449386 2.4698357-2.88147496 6.0774958-4.53705577 9.872617-4.530614 13.67 0 22.41 21.09-4.55 32.5" fill="#ffe0e2"/><path id="Shape" d="m20 49c.0028873 4.9402064 3.6152408 9.1369112 8.5 9.875.9888525.1476458 1.9941475.1476458 2.983 0-4.878225-.7452611-8.4818159-4.9401756-8.483-9.875v-28c.0037076-10.462417 8.0673411-19.15544979 18.5-19.944-5.547421-.40943001-11.0152035 1.50690157-15.0932924 5.28985063-4.0780889 3.78294907-6.3990195 9.09164517-6.4067076 14.65414937z" fill="#fff"/><path id="Shape" d="m22.7 9.128 1.648 1.133c-1.4403733 2.0929218-2.4493446 4.4518342-2.968 6.939l-1.96-.4c.5724284-2.7499568 1.687506-5.3581504 3.28-7.672z" fill="#fff"/><g fill="#ff414c"><path id="Shape" d="m21.611 14.183c-.5522847.0027614-1.0022386-.4427153-1.005-.995s.4427153-1.0022386.995-1.005h.01c.5522847 0 1 .4477153 1 1s-.4477153 1-1 1z"/><path id="Shape" d="m19.42 16.8c-.2798123 1.3824755-.4205139 2.7894918-.42 4.2 0 .5522847.4477153 1 1 1s1-.4477153 1-1c-.0002198-1.2761618.1270792-2.5491522.38-3.8.0714531-.3501203-.0493084-.7117645-.3167949-.9487049s-.6410604-.3131799-.98-.2-.591752.3985846-.6632051.7487049z"/><path id="Shape" d="m60.971 19.87c-.6577643-10.67394673-9.1680201-19.18377363-19.842-19.841-3.5925376-.17933392-7.1715942.55884649-10.4 2.145-1.6126711.78290552-3.1124978 1.77953851-4.459 2.963-.6769404.58527557-1.3190387 1.20967694-1.923 1.87-.5897625.67438353-1.139696 1.38258569-1.647 2.121-.1634486.21666421-.2277724.4922898-.1771124.75892136.05066.26663154.2115899.49945894.4431124.64107864.4595366.2819672 1.058153.1680481 1.382-.263.4582351-.66787157.9543825-1.30892333 1.486-1.92.5479997-.59702889 1.1299654-1.16196628 1.743-1.692 1.2174107-1.0723714 2.5739892-1.97552373 4.033-2.685 2.9223709-1.43455541 6.1615196-2.10248142 9.413-1.941 9.6569382.59279629 17.3566657 8.2920949 17.95 17.949.4154541 8.4212386-4.7323532 16.1212178-12.673 18.956-4.3206369 1.4704429-7.2454816 5.5043246-7.3 10.068 0 4.9705627-4.0294373 9-9 9s-9-4.0294373-9-9c0-.5522847-.4477153-1-1-1s-1 .4477153-1 1c0 6.0751322 4.9248678 11 11 11s11-4.9248678 11-11c.0533449-3.7143337 2.4409981-6.9921488 5.96-8.182 8.7773489-3.1307862 14.4688823-11.6402602 14.011-20.948z"/><path id="Shape" d="m52 21c0 .5522847.4477153 1 1 1s1-.4477153 1-1c-.0082673-7.7285595-6.2714405-13.99173268-14-14-5.0978962.04134708-9.7827601 2.8112023-12.276 7.258-2.4618193 4.4459839-2.2612875 9.8892122.521 14.142 1.577 2.308 4.1 3.854 4.64 6.8.1053731.5373127.6232681.8899667 1.161821.7911271.5385528-.0988397.8974707-.6124136.805179-1.1521271-.662-3.6-3.507-5.448-4.957-7.57-4.971-7.246.315-18.269 10.105-18.269 6.624447.00716485 11.9928352 5.375553 12 12z"/><path id="Shape" d="m41.067 16.227c-.1989542.5150021.0570942 1.0937968.572 1.293 2.261.88 3.361 2.805 3.361 5.902 0 .5522847.4477153 1 1 1s1-.4477153 1-1c0-4.937-2.523-6.949-4.639-7.768-.2475659-.095802-.5230647-.0892393-.7657882.0182418s-.4327522.3070601-.5282118.5547582z"/><path id="Shape" d="m34.737 15.457c-.4837529.1314649-.7954147.600792-.7289129 1.0976596.0665019.4968675.4906149.867717.9919129.8673404.0881438-.0003848.175869-.0121487.261-.035.6057075-.14855 1.2212853-.2534856 1.842-.314.5495233-.0568853.9488853-.5484767.892-1.098s-.5484767-.9488853-1.098-.892c-.728291.0708362-1.4502904.195849-2.16.374z"/><path id="Shape" d="m25.052 39.313c.1731886.5238394.7379135.8084393 1.262.636.055-.018 5.477-1.745 8.979 1.758.3923789.3789722 1.0160848.3735524 1.4018186-.0121814s.3911536-1.0094397.0121814-1.4018186c-4.387-4.387-10.754-2.331-11.023-2.241-.5217176.1748702-.8041405.7383754-.632 1.261z"/><path id="Shape" d="m11.5 15.258c-.4097953-.3703069-1.0421931-.3382953-1.4125.0715-.37030689.4097953-.33829526 1.0421931.0715 1.4125 4.9864295 4.41595 7.8410871 10.7572873 7.841 17.418.0007433 6.6602953-2.8523243 13.0016996-7.837 17.419-.37266613.3768815-.3865498.9790638-.0316489 1.3727199.354901.393656.9552974.4420335 1.3686489.1102801 5.3725747-4.8197385 8.4595592-11.6844656 8.5-18.902-.040316-7.2175616-3.1273222-14.0823368-8.5-18.902z"/><path id="Shape" d="m7.067 19.48c-.27152185-.2324013-.64640298-.3022937-.98342931-.1833495-.33702632.1189442-.58499552.4086545-.6505.76-.06550447.3513454.06140746.7109482.33292931.9433495 3.90126685 3.2649002 6.1789564 8.0731123 6.234 13.16-.0542377 5.0870735-2.33207885 9.8956057-6.234 13.16-.27152185.2322226-.39852908.5916604-.33317931.9429165.06534978.3512561.31312838.6409665.65.76.33687163.1190335.71165746.0493061.98317931-.1829165 4.3452034-3.6451666 6.8785778-9.0085839 6.934-14.68-.0551734-5.6712542-2.5881696-11.0346444-6.933-14.68z"/><path id="Shape" d="m1.282 23.784c-.18571856.1899891-.28819823.4460739-.28482118.711735s.11233318.5190582.30282118.704265c2.38740963 2.3680156 3.72099064 5.5974442 3.7 8.96.02175569 3.3632922-1.31190159 6.5936264-3.7 8.962-.39654045.3865993-.40459932 1.0214595-.018 1.418s1.02145955.4045993 1.418.018c2.77233344-2.7473718 4.32213238-6.4950019 4.3-10.398.02323661-3.9038011-1.5266909-7.652463-4.3-10.4-.19086365-.1855563-.44783299-.2873562-.71399043-.2828514s-.51953461.1149424-.70400957.3068514z"/></g></g></g></svg>