<svg height="512" viewBox="0 0 61 61" width="512" xmlns="http://www.w3.org/2000/svg"><g id="Page-1" fill="none" fill-rule="evenodd"><g id="056---Ear" fill-rule="nonzero" transform="translate(0 -1)"><path id="Shape" d="m10 44v6c0 5.5228475 4.4771525 10 10 10s10-4.4771525 10-10c.0392182-4.1435657 2.7004864-7.8068743 6.629-9.125 9.6001523-3.3726155 15.1377962-13.4156487 12.8662819-23.3342011-2.2715143-9.91855246-11.6280249-16.55057529-21.7391194-15.40898567-10.1110946 1.14158963-17.7533416 9.69285127-17.7561625 19.86818677z" fill="#ffe7e8"/><path id="Shape" d="m49.972 20.923c-.6080311-10.1729308-8.7220692-18.28696885-18.895-18.895-.8752448-.04353159-1.7523813-.03083883-2.626.038 9.4495811.68467235 17.1214239 7.90723533 18.3744138 17.2983681 1.2529899 9.3911328-4.2568899 18.3724363-13.1964138 21.5106319-3.9283251 1.3183826-6.5894793 4.9815342-6.629 9.125-.0028873 4.9402064-3.6152408 9.1369112-8.5 9.875 2.8835331.4624917 5.8244372-.3680497 8.0400596-2.2705951 2.2156225-1.9025453 3.4812042-4.6840951 3.4599404-7.6044049.0395207-4.1434658 2.7006749-7.8066174 6.629-9.125 8.385763-2.9485219 13.8209418-11.0758312 13.343-19.952z" fill="#ffc9cc"/><path id="Shape" d="m23.01 40.09c1.57-2.35 1.02-4.86-.36-6.95-1.03-1.58-2.52-2.75-3.58-4.3-.998229-1.4535335-1.6514887-3.1157544-1.91-4.86-.5867963-3.7494875.4975473-7.567911 2.967383-10.449386s6.0774958-4.53705577 9.872617-4.530614c13.67 0 22.41 21.09-4.55 32.5" fill="#ffc9cc"/><path id="Shape" d="m10 44v6c0 5.5228475 4.4771525 10 10 10s10-4.4771525 10-10c.0392182-4.1435657 2.7004864-7.8068743 6.629-9.125 9.6001523-3.3726155 15.1377962-13.4156487 12.8662819-23.3342011-2.2715143-9.91855246-11.6280249-16.55057529-21.7391194-15.40898567-10.1110946 1.14158963-17.7533416 9.69285127-17.7561625 19.86818677z" fill="#ffe7e8"/><path id="Shape" d="m49.972 20.923c-.6080311-10.1729308-8.7220692-18.28696885-18.895-18.895-.8752448-.04353159-1.7523813-.03083883-2.626.038 9.4495811.68467235 17.1214239 7.90723533 18.3744138 17.2983681 1.2529899 9.3911328-4.2568899 18.3724363-13.1964138 21.5106319-3.9283251 1.3183826-6.5894793 4.9815342-6.629 9.125-.0028873 4.9402064-3.6152408 9.1369112-8.5 9.875 2.8835331.4624917 5.8244372-.3680497 8.0400596-2.2705951 2.2156225-1.9025453 3.4812042-4.6840951 3.4599404-7.6044049.0395207-4.1434658 2.7006749-7.8066174 6.629-9.125 8.385763-2.9485219 13.8209418-11.0758312 13.343-19.952z" fill="#ffc9cc"/><path id="Shape" d="m23.01 40.09c1.57-2.35 1.02-4.86-.36-6.95-1.03-1.58-2.52-2.75-3.58-4.3-.998229-1.4535335-1.6514887-3.1157544-1.91-4.86-.5867963-3.7494875.4975473-7.567911 2.967383-10.449386s6.0774958-4.53705577 9.872617-4.530614c13.67 0 22.41 21.09-4.55 32.5" fill="#ffe0e2"/><path id="Shape" d="m56 60c-.7958256.0010434-1.5592097-.3153237-2.121-.879l-52-52c-1.13691663-1.17713666-1.12065712-3.04825433.03654427-4.20545573 1.1572014-1.15720139 3.02831907-1.1734609 4.20545573-.03654427l52 52c.8577237.8579828 1.1142657 2.1481098.6500339 3.2689637-.4642317 1.1208538-1.5578462 1.8517773-2.7710339 1.8520363z" fill="#ffe7e8"/><path id="Shape" d="m1.879 7.121 9 9c-.5840527 1.904977-.88032065 3.8865008-.879 5.879v28c-.01987099 2.9198442 1.2461059 5.7005071 3.4613677 7.6027427 2.2152617 1.9022357 5.1553489 2.7333017 8.0386323 2.2722573-4.8806017-.7456016-8.4890648-4.9377867-8.5-9.875v-28c-.0000499-1.9916447.2972264-3.9721386.882-5.876l-9-9c-.67032434-.65204591-.99349202-1.58227139-.87180867-2.50946703.12168335-.92719565.67393527-1.74253276 1.48980867-2.19953297-1.30066188-.76017476-2.96362498-.4351272-3.88232268.75884999-.91869771 1.19397719-.80676214 2.88470857.26132268 3.94715001z" fill="#fff"/><path id="Rectangle-path" d="m3.707 5.95h2v8h-2z" fill="#fff" transform="matrix(.707 -.707 .707 .707 -5.657 6.243)"/><g fill="#ff414c"><path id="Shape" d="m10 29c.5522847 0 1-.4477153 1-1v-6c0-.319.009-.638.023-.953.0167915-.3572656-.1582915-.6963508-.4592968-.8895254s-.68220319-.2110909-1.00000001-.047c-.31779681.1640909-.52391171.4852598-.54070319.8425254-.014.347-.023.696-.023 1.047v6c0 .5522847.44771525 1 1 1z"/><path id="Shape" d="m9 50c0 6.0751322 4.9248678 11 11 11s11-4.9248678 11-11c-.0007661-1.805441.5760056-3.5637889 1.646-5.018.1997283-.2719418.4150914-.532047.645-.779.3620665-.4058449.3333903-1.0266457-.0645484-1.3973842s-1.0192137-.355463-1.3984516.0343842c-.2853446.3043121-.5524759.6252036-.8.961-1.319857 1.7971481-2.0304611 3.9692561-2.028 6.199-.0000001 4.9705627-4.0294373 8.9999999-9 8.9999999s-8.9999999-4.0294372-9-8.9999999v-6c0-.5522847-.4477153-1-1-1-.55228475 0-1 .4477153-1 1z"/><path id="Shape" d="m44.622 36.646c.2770594.0001611.5417684-.1146306.731-.317 3.9127419-4.1660294 5.9430945-9.7560067 5.616-15.462-.4323992-8.0057311-5.3853961-15.06668699-12.7657163-18.19871089-7.3803201-3.1320239-15.8999606-1.78851946-21.9582837 3.46271089-.4057808.36470836-.4443354.98735874-.0866473 1.39934116.357688.41198241.9795847.46122113 1.3976473.11065884 3.7176752-3.23419075 8.5512076-4.88902345 13.471-4.612 9.6535957.59369789 17.3503021 8.2904043 17.944 17.944.296711 5.162754-1.5394818 10.2208704-5.079 13.991-.2713496.2909848-.3443829.715148-.1859787 1.0801287.1584043.3649807.5181062.6013336.9159787.6018713z"/><path id="Shape" d="m42 22c0 .5522847.4477153 1 1 1s1-.4477153 1-1c.0060669-5.381666-3.0766908-10.2892948-7.9274173-12.6201356-4.8507264-2.33084085-10.6086052-1.67125968-14.8065827 1.6961356-.2913175.2183312-.4409672.5777299-.3906959.938295.0502714.3605651.2925204.6653237.6324483.7956443s.7238225.0656111 1.0022476-.1689393c3.5973091-2.8892451 8.5337531-3.45692979 12.6930029-1.459679 4.1592498 1.9972509 6.8026743 6.2047504 6.7969971 10.818679z"/><path id="Shape" d="m20.071 31.587c.6396998.6488527 1.2225069 1.351433 1.742 2.1.5199424.7611085.8852002 1.617001 1.075 2.519.0896967.4712027.5013365.8123476.981.813.0634526-.0004638.1267248-.0068245.189-.019.2615254-.0485168.4929461-.1992255.6430778-.418793.1501316-.2195675.2066023-.4899001.1569222-.751207-.2387514-1.1582498-.7025172-2.258377-1.365-3.238-.5808126-.84382-1.2335828-1.6357764-1.951-2.367l-.359-.39c-.2416902-.2649125-.6063502-.3807615-.9566162-.3039079s-.6329242.334734-.7415.6765c-.1085758.3417661-.026574.7154955.2151162.9804079z"/><path id="Shape" d="m31.067 17.227c-.0954903.2474461-.0887657.5226918.0186941.7651797.1074598.2424878.3068513.4323521.5543059.5278203 2.26.875 3.36 2.805 3.36 5.9 0 .5522847.4477153 1 1 1s1-.4477153 1-1c0-4.938-2.522-6.949-4.64-7.768-.2477002-.095384-.52316-.0883772-.7656906.0194767-.2425305.1078538-.4322319.3077053-.5273094.5555233z"/><path id="Shape" d="m24.737 16.457c-.4837529.1314649-.7954147.600792-.7289129 1.0976596.0665019.4968675.4906149.867717.9919129.8673404.0881392-.0004513.1758559-.0122141.261-.035.605331-.1487359 1.2205898-.2536741 1.841-.314.5495233-.0568853.9488853-.5484767.892-1.098s-.5484767-.9488853-1.098-.892c-.7279548.0708854-1.4496182.1958979-2.159.374z"/><path id="Shape" d="m15.052 40.313c.1731886.5238394.7379135.8084393 1.262.636.053-.017 5.475-1.745 8.979 1.758.3923789.3789722 1.0160848.3735524 1.4018186-.0121814s.3911536-1.0094397.0121814-1.4018186c-4.386-4.387-10.754-2.331-11.023-2.241-.5217176.1748702-.8041405.7383754-.632 1.261z"/><path id="Shape" d="m4.727 10.949c-.55228474.0027614-1.00223856-.4427153-1.00499998-.995-.00276142-.55228474.44271524-1.00223856.99499998-1.005h.01c.55228474.00000002.99999997.44771526.99999997 1 0 .5522847-.44771523 1-.99999997 1z"/><path id="Shape" d="m6.828 2.172c-1.58212916-1.51213879-4.07387084-1.51213879-5.656 0-1.56152775 1.56199941-1.56152775 4.09400059 0 5.656.25107447.25995658.62287789.3642126.97250732.27269716.34962944-.09151544.6226744-.3645604.71418984-.71418984.09151544-.34962943-.01274058-.72143285-.27269716-.97250732-.75794442-.78475777-.74710475-2.03216955.02436285-2.80363715s2.01887938-.78230727 2.80363715-.02436285l52 52c.7807639.7809997.7807639 2.0470003 0 2.828-.791167.755814-2.036833.755814-2.828 0l-46.343-46.343c-.25107447-.2599566-.62287789-.3642126-.97250732-.2726972-.34962944.0915155-.6226744.3645604-.71418984.7141899-.09151544.3496294.01274058.7214328.27269716.9725073l46.343 46.343c1.0042979 1.0398263 2.4915116 1.4568504 3.8900293 1.0907886 1.3985177-.3660617 2.4906976-1.4582416 2.8567593-2.8567593.3660618-1.3985177-.0509623-2.8857314-1.0907886-3.8900293z"/></g></g></g></svg>