<svg height="512" viewBox="0 0 54 60" width="512" xmlns="http://www.w3.org/2000/svg"><g id="Page-1" fill="none" fill-rule="evenodd"><g id="057---Clock" fill-rule="nonzero"><path id="Shape" d="m53 30c.0132521 6.6963946-2.575513 13.1360373-7.22 17.96-1.3934238 1.4820212-2.9654458 2.7853215-4.68 3.88-8.5817359 5.5467767-19.6182641 5.5467767-28.2 0-1.7145542-1.0946785-3.28657616-2.3979788-4.68-3.88-6.84437876-7.1511614-9.03270715-17.5691843-5.64406298-26.8698145 3.38864417-9.3006301 11.76593328-15.86911619 21.60642248-16.94121846 9.8404891-1.07210226 19.4356982 3.53831492 24.7476405 11.89103296 2.6670673 4.1668616 4.0798551 9.012689 4.07 13.96z" fill="#ffe0e2"/><path id="Shape" d="m48.93 16.04c-4.7676955-7.5020078-13.0411855-12.04431606-21.93-12.04-.506 0-1 .038-1.5.066 10.1200188.57318556 18.9815486 6.9823667 22.6945751 16.4140557s1.5988024 20.1617574-5.4145751 27.4799443c-1.3934238 1.4820212-2.9654458 2.7853215-4.68 3.88-3.7717935 2.4395488-8.1148358 3.852761-12.6 4.1.5.028 1 .055 1.5.055 5.0035899.0073944 9.9017554-1.4377381 14.1-4.16 1.7145542-1.0946785 3.2865762-2.3979788 4.68-3.88 8.2837315-8.6412083 9.5848915-21.826296 3.15-31.92z" fill="#ff9ea1"/><circle id="Oval" cx="27" cy="30" fill="#ffe7e8" r="22"/><path id="Shape" d="m27 8c-.5 0-1 .023-1.5.057 11.5391351.78718633 20.4970742 10.3770456 20.4970742 21.943s-8.9579391 21.1558137-20.4970742 21.943c.5.034 1 .057 1.5.057 12.1502645 0 22-9.8497355 22-22s-9.8497355-22-22-22z" fill="#ffe0e2"/><path id="Shape" d="m12.9 51.84-3.31 5.67c-.53548576.9233657-1.52259768 1.4912409-2.59 1.49-.5311736.0025888-1.0530793-.1391207-1.51-.41-.68814384-.399337-1.18889771-1.0563103-1.39156253-1.825686s-.09054902-1.5877877.31156253-2.274314l3.81-6.53c1.39342384 1.4820212 2.9654458 2.7853215 4.68 3.88z" fill="#ffe0e2"/><path id="Shape" d="m8.22 47.96-1.069 1.831c.86809458.7454404 1.78661111 1.4300677 2.749 2.049l-3.31 5.67c-.26264982.450155-.63840208.8238389-1.09 1.084.45449865.2675077.97262314.4077467 1.5.406 1.06740232.0012409 2.05451424-.5666343 2.59-1.49l3.31-5.67c-1.7145542-1.0946785-3.28657616-2.3979788-4.68-3.88z" fill="#ff9ea1"/><path id="Shape" d="m48.51 58.59c-.4569207.2708793-.9788264.4125888-1.51.41-1.0674023.0012409-2.0545142-.5666343-2.59-1.49l-3.31-5.67c1.7145542-1.0946785 3.2865762-2.3979788 4.68-3.88l3.81 6.53c.4021116.6865263.5142274 1.5049383.3115625 2.274314-.2026648.7693757-.7034187 1.426349-1.3915625 1.825686z" fill="#ffe0e2"/><path id="Shape" d="m49.59 54.49-3.81-6.53c-.6098374.645048-1.2544649 1.2562924-1.931 1.831l2.741 4.7c.4021116.6865263.5142274 1.5049383.3115625 2.274314-.2026648.7693757-.7034187 1.426349-1.3915625 1.825686h-.009c.4549302.265961.9720342.4070521 1.499.409.5311736.0025888 1.0530793-.1391207 1.51-.41.6881438-.399337 1.1888977-1.0563103 1.3915625-1.825686.2026649-.7693757.0905491-1.5877877-.3115625-2.274314z" fill="#ff9ea1"/><path id="Shape" d="m18.04 5.59c-5.3543297 1.96321558-9.91265622 5.6358842-12.97 10.45-2.65731592-2.1980154-3.72323545-5.7837444-2.69812316-9.07642486 1.0251123-3.29268043 3.93806703-5.639664 7.37345586-5.94083375 3.4353888-.30116974 6.712277 1.50316975 8.2946673 4.56725861z" fill="#ffe7e8"/><path id="Shape" d="m10.5 1c-.5099718.00207756-1.0187107.05027388-1.52.144 2.6027586.45598461 4.843776 2.10013695 6.06 4.446-4.6131789 1.69339858-8.6500272 4.6631178-11.64 8.563.46067094.7078322 1.02341646 1.3437009 1.67 1.887 3.05734378-4.8141158 7.6156703-8.48678442 12.97-10.45-1.4559719-2.82079412-4.3656135-4.59204808-7.54-4.59z" fill="#ffc9cc"/><path id="Shape" d="m52 9.5c.0001478 2.528067-1.1250233 4.9250113-3.07 6.54-3.0573438-4.8141158-7.6156703-8.48678442-12.97-10.45 1.8068023-3.47174105 5.7506548-5.26102436 9.5530724-4.33412581 3.8024176.92689856 6.4804551 4.33037076 6.4869276 8.24412581z" fill="#ffe7e8"/><path id="Shape" d="m43.5 1c-.4965941.00464749-.9918241.05283204-1.48.144 2.8050802.50352068 5.1694219 2.38286476 6.2928597 5.00200503s.8556035 5.62751357-.7128597 8.00699497c.469.61.916 1.236 1.329 1.887 2.7556476-2.2876938 3.7816832-6.05724106 2.5656652-9.42598515-1.2160181-3.36874409-4.413166-5.61384571-7.9946652-5.61401485z" fill="#ffc9cc"/><path id="Shape" d="m8.22 47.96-1.069 1.831-2.741 4.699c-.68911477 1.1719629-.50081783 2.6612968.45829392 3.6248739s2.44755497 1.1587898 3.62270608.4751261c-.68913466-.3984086-1.19081205-1.0553242-1.39375228-1.8250328-.20294022-.7697085-.09036588-1.5885768.31275228-2.2749672l2.741-4.7 1.069-1.83c-8.28721544-8.6396046-9.58862168-21.8271878-3.15-31.92-.64084868-.5491545-1.20281986-1.1841483-1.67-1.887-1.56090554-2.3877192-1.81752415-5.39998917-.6830056-8.01733454 1.13451855-2.61734538 3.50831727-4.48943059 6.3180056-4.98266546-.7617028-.14483969-1.5399867-.18186876-2.312-.11-2.96502522.27823516-5.56819419 2.08791273-6.86190923 4.77027936-1.29371505 2.68236664-1.08927169 5.84616574.53890923 8.33972064.46718014.7028517 1.02915132 1.3378455 1.67 1.887-6.43862168 10.0928122-5.13721544 23.2803954 3.15 31.92z" fill="#fff"/><path id="Shape" d="m3.175 37.574-1.906.605c-.80280732-2.6537103-1.22995697-5.4067891-1.269-8.179h2c.03895371 2.5669044.43440178 5.1159459 1.175 7.574z" fill="#fff"/><g fill="#ff414c"><path id="Shape" d="m1.354 34.987c-.35726559.0016077-.6882503-.1875057-.8682754-.4961029s-.18174049-.6897951-.0045-1 .50650981-.5022894.8637754-.5038971h.009c.55228475 0 1 .4477153 1 1s-.44771525 1-1 1z"/><path id="Shape" d="m27 53c12.7025492 0 23-10.2974508 23-23s-10.2974508-23-23-23-23 10.2974508-23 23c.01377846 12.6968376 10.3031624 22.9862215 23 23zm0-44c11.5979797 0 21 9.4020203 21 21s-9.4020203 21-21 21-21-9.4020203-21-21c.01322591-11.592497 9.407503-20.98677409 21-21z"/><path id="Shape" d="m10 30c0-.5522847-.44771525-1-1-1s-1 .4477153-1 1c-.0004203 1.4206329.15857447 2.8368268.474 4.222.06942218.3583921.32862244.6504772.67622023.7620125.3475978.1115352.72835324.0247957.99334207-.2262925.2649889-.2510881.3720994-.6266221.2794377-.97972-.2809327-1.2397053-.4228086-2.5068618-.423-3.778z"/><path id="Shape" d="m27 49c.5522847 0 1-.4477153 1-1s-.4477153-1-1-1c-5.2678661.0122319-10.2401531-2.4326824-13.447-6.612-.2186465-.2825971-.571448-.427081-.9255076-.3790261-.3540595.0480549-.655587.281348-.791.612-.1354129.330652-.0841389.708429.1345076.9910261 3.584286 4.6705679 9.141632 7.4024644 15.029 7.388z"/><path id="Shape" d="m3.8 16.217c-2.4898645 4.1661198-3.80315173 8.9295508-3.8 13.783.00000001.5522847.44771526 1 1 1s.99999999-.4477153 1-1c0-13.8071187 11.1928813-25 25-25s25 11.1928813 25 25-11.1928813 25-25 25c-2.6336869-.0355456-5.2481452-.4546135-7.761-1.244-2.5042779-.819592-4.8611262-2.0349843-6.981-3.6-4.28066903-3.1292982-7.46034721-7.5338684-9.083-12.582-.15931037-.5139455-.69897603-.8075023-1.217-.662-.26137413.0736122-.48194178.2496625-.61166686.4882135-.12972507.2385511-.15761148.5193822-.07733314.7787865 1.2019204 3.6603094 3.15033001 7.0313781 5.722 9.9l-3.443 5.9c-.72423635 1.2370043-.73119457 2.7669785-.01823957 4.0105191s2.03681779 2.0105196 3.47023957 2.0104809c1.42150919-.0037021 2.73498616-.7591511 3.453-1.986l2.811-4.814c1.6823074 1.0267312 3.4796885 1.8517476 5.355 2.458 2.7130634.8545412 5.5367591 1.3066829 8.381 1.342 6.9121977.0027875 13.5602093-2.6553429 18.565-7.423l3.162 5.423c.2674748.458157.3411415 1.0040827.2046685 1.5167481-.136473.5126653-.47181.9497131-.9316685 1.2142519-.9560668.5252113-2.1561404.2053679-2.724-.726l-1.016-1.74c-.2786277-.4768979-.8911021-.6376276-1.368-.359-.4768979.2786277-.6376276.8911021-.359 1.368l1.016 1.74c.7180938 1.2257899 2.0303683 1.9809847 3.451 1.986 1.4314212-.0010665 2.7531642-.7669453 3.465903-2.0083039s.7078182-2.7689549-.012903-4.0056961l-3.436-5.886c7.9543611-8.7715998 9.2480249-21.7090495 3.188-31.882 2.5811009-2.5654302 3.4670281-6.3813417 2.280236-9.82155081-1.1867921-3.4402091-4.2370763-5.89821923-7.8509476-6.32652811s-7.1542171 1.24859281-9.1122884 4.31607892c-11.312512-3.77405449-23.7602519.33695397-30.6 10.106-2.46790549-2.7610099-2.54907067-6.91065305-.19101972-9.76605655 2.35805094-2.8554035 6.44819172-3.56029633 9.62601972-1.65894345.4723969.2767228 1.0794921.12213443 1.3620132-.34681777.2825212-.4689522.1354231-1.07790568-.3300132-1.36618223-4.1135001-2.46776756-9.42156738-1.47940663-12.37119095 2.30351296-2.94962357 3.78291959-2.6140114 9.17177844.78219095 12.55948704zm4.931 40.789c-.56524654.9418403-1.77854734 1.2609198-2.734.719-.45870888-.2656885-.79252724-.7033335-.92748914-1.2159635-.13496191-.51263-.0599233-1.0579162.20848914-1.5150365l3.166-5.426c.82714696.7933427 1.7082559 1.5284354 2.637 2.2.165.119.34.225.508.341zm34.769-55.006c2.9579134-.00455803 5.6413154 1.73255617 6.8480525 4.43312239 1.2067372 2.70056621.7106359 5.85842871-1.2660525 8.05887761-2.9267424-4.1598854-6.9630122-7.41412577-11.649-9.392 1.4029252-1.95260263 3.6626698-3.10724386 6.067-3.1z"/><path id="Shape" d="m33.293 37.707c.3923789.3789722 1.0160848.3735524 1.4018186-.0121814s.3911536-1.0094397.0121814-1.4018186l-6.707-6.707v-14.586c0-.5522847-.4477153-1-1-1s-1 .4477153-1 1v15c.0000566.2651948.1054506.5195073.293.707z"/><path id="Shape" d="m18.634 17.51c.1773616.3119508.5082732.5049532.8671183.5057421s.6906021-.1907567.8693336-.5019247c.1787314-.3111679.1770325-.694247-.0044519-1.0038174l-1.5-2.6c-.2780058-.4742136-.886647-.6351286-1.3626943-.3602745-.4760473.274854-.640996.8824145-.3693057 1.3602745z"/><path id="Shape" d="m34 42.124c-.4782682.2761504-.6421293.8877197-.366 1.366l1.5 2.6c.2780058.4742136.886647.6351286 1.3626943.3602745.4760473-.274854.640996-.8824145.3693057-1.3602745l-1.5-2.6c-.2761504-.4782682-.8877197-.6421293-1.366-.366z"/><path id="Shape" d="m14.009 23.5c.4525881-.0000199.8487411-.3040116.9658809-.7411777.1171399-.4371661-.0739396-.8985084-.4658809-1.1248223l-2.6-1.5c-.47786-.2716903-1.0854205-.1067416-1.3602745.3693057-.2748541.4760473-.1139391 1.0846885.3602745 1.3626943l2.6 1.5c.1518701.0881308.3244113.1343718.5.134z"/><path id="Shape" d="m39.49 38.366 2.6 1.5c.3095704.1814844.6926495.1831833 1.0038174.0044519.311168-.1787315.5027136-.5104885.5019247-.8693336s-.1937913-.6897567-.5057421-.8671183l-2.6-1.5c-.47786-.2716903-1.0854205-.1067416-1.3602745.3693057-.2748541.4760473-.1139391 1.0846885.3602745 1.3626943z"/></g></g></g></svg>