<svg height="512" viewBox="0 0 57 60" width="512" xmlns="http://www.w3.org/2000/svg"><g id="Page-1" fill="none" fill-rule="evenodd"><g id="058---Stopwatch" fill-rule="nonzero"><path id="Shape" d="m53 33c-.0019647 13.9690791-11.0416991 25.4400931-25.0004516 25.9771226-13.9587526.5370295-25.84718944-10.0518782-26.92241335-23.979515-1.07522391-13.9276368 9.04708675-26.21579063 22.92286495-27.8276076 1.993578-.22666313 4.006422-.22666313 6 0 4.4606971.51470617 8.7102991 2.18283867 12.33 4.84l5.66 5.66c3.2647836 4.4435839 5.0205456 9.8160052 5.01 15.33z" fill="#ffe0e2"/><path id="Shape" d="m47.99 17.67-5.66-5.66c-4.4435839-3.26478362-9.8160052-5.02054555-15.33-5.01-.546 0-1.086.022-1.624.056 5.0357457.25103323 9.8872977 1.97344891 13.954 4.954l5.66 5.66c5.6190875 7.6840477 6.5871034 17.8254303 2.5231554 26.4337437s-12.5093591 14.3056574-22.0131554 14.8502563c.5.028 1 .046 1.5.046 9.7891635.0037302 18.7500531-5.4933 23.1827212-14.2213691 4.432668-8.728069 3.5851086-19.2064529-2.1927212-27.1086309z" fill="#ff9ea1"/><circle id="Oval" cx="27" cy="33" fill="#ffe7e8" r="22"/><path id="Shape" d="m27 11c-.5 0-1 .023-1.5.057 11.5391351.7871863 20.4970742 10.3770456 20.4970742 21.943s-8.9579391 21.1558137-20.4970742 21.943c.5.034 1 .057 1.5.057 12.1502645 0 22-9.8497355 22-22s-9.8497355-22-22-22z" fill="#ffc9cc"/><path id="Shape" d="m30 4v3.17c-1.993578-.22666313-4.006422-.22666313-6 0v-3.17c0-1.65685425 1.3431458-3 3-3s3 1.34314575 3 3z" fill="#ffe7e8"/><path id="Shape" d="m51.42 14.24-3.43 3.43c-1.5801402-2.1701307-3.4898693-4.0798598-5.66-5.66l3.43-3.43z" fill="#ffc9cc"/><path id="Shape" d="m54 16c-.530565.0007695-1.039515-.2101532-1.414-.586l-8-8c-.7579444-.78475777-.7471047-2.03216955.0243628-2.80363715.7714676-.7714676 2.0188794-.78230727 2.8036372-.02436285l8 8c.5718158.5719885.7428438 1.4320732.433356 2.1793091-.3094879.7472359-1.0385642 1.2345182-1.847356 1.2346909z" fill="#ffe7e8"/><path id="Shape" d="m1 33c0 14.3594035 11.6405965 26 26 26 .5 0 1-.018 1.5-.046-13.4667812-.7753431-24.10406986-11.7207743-24.49463724-25.2042015-.39056737-13.4834273 9.59531614-25.02623911 22.99463724-26.5797985v-3.17c.0009541-1.06812397.5731232-2.05416194 1.5-2.585-.9246251-.54686784-2.0719267-.55414815-3.0034175-.01905847-.9314907.53508968-1.5031833 1.52983671-1.4965825 2.60405847v3.17c-13.1120207 1.52309827-23.00185657 12.629814-23 25.83z" fill="#fff"/><path id="Shape" d="m1.269 24.821 1.906.6c-.74105586 2.4596614-1.13650885 5.0104174-1.175 7.579h-2c.03904303-2.7722109.46619268-5.5252897 1.269-8.179z" fill="#fff"/><g fill="#ff414c"><path id="Shape" d="m1.354 30.013c-.35726559.0016077-.6882503-.1875057-.8682754-.4961029s-.18174049-.6897951-.0045-1 .50650981-.5022894.8637754-.5038971h.009c.55228475 0 1 .4477153 1 1s-.44771525 1-1 1z"/><path id="Shape" d="m27 56c12.7025492 0 23-10.2974508 23-23s-10.2974508-23-23-23-23 10.2974508-23 23c.01377846 12.6968376 10.3031624 22.9862215 23 23zm0-44c11.5979797 0 21 9.4020203 21 21s-9.4020203 21-21 21-21-9.4020203-21-21c.01322591-11.592497 9.407503-20.9867741 21-21z"/><path id="Shape" d="m10 33c0-.5522847-.44771525-1-1-1s-1 .4477153-1 1c-.0004203 1.4206329.15857447 2.8368268.474 4.222.06942218.3583921.32862244.6504772.67622023.7620125.3475978.1115352.72835324.0247957.99334207-.2262925.2649889-.2510881.3720994-.6266221.2794377-.97972-.2809327-1.2397053-.4228086-2.5068618-.423-3.778z"/><path id="Shape" d="m27 52c.5522847 0 1-.4477153 1-1s-.4477153-1-1-1c-5.2678661.0122319-10.2401531-2.4326824-13.447-6.612-.2186465-.2825971-.571448-.427081-.9255076-.3790261-.3540595.0480549-.655587.281348-.791.612-.1354129.330652-.0841389.708429.1345076.9910261 3.584286 4.6705679 9.141632 7.4024644 15.029 7.388z"/><path id="Shape" d="m33.293 40.707c.3923789.3789722 1.0160848.3735524 1.4018186-.0121814s.3911536-1.0094397.0121814-1.4018186l-6.707-6.707v-14.586c0-.5522847-.4477153-1-1-1s-1 .4477153-1 1v15c.0000566.2651948.1054506.5195073.293.707z"/><path id="Shape" d="m18.634 20.51c.1773616.3119508.5082732.5049532.8671183.5057421s.6906021-.1907567.8693336-.5019247c.1787314-.3111679.1770325-.694247-.0044519-1.0038174l-1.5-2.6c-.2780058-.4742136-.886647-.6351286-1.3626943-.3602745-.4760473.274854-.640996.8824145-.3693057 1.3602745z"/><path id="Shape" d="m34 45.124c-.4782682.2761504-.6421293.8877197-.366 1.366l1.5 2.6c.2780058.4742136.886647.6351286 1.3626943.3602745.4760473-.274854.640996-.8824145.3693057-1.3602745l-1.5-2.6c-.2761504-.4782682-.8877197-.6421293-1.366-.366z"/><path id="Shape" d="m14.009 26.5c.4525881-.0000199.8487411-.3040116.9658809-.7411777.1171399-.4371661-.0739396-.8985084-.4658809-1.1248223l-2.6-1.5c-.47786-.2716903-1.0854205-.1067416-1.3602745.3693057-.2748541.4760473-.1139391 1.0846885.3602745 1.3626943l2.6 1.5c.1518701.0881308.3244113.1343718.5.134z"/><path id="Shape" d="m39.49 41.366 2.6 1.5c.3095704.1814844.6926495.1831833 1.0038174.0044519.311168-.1787315.5027136-.5104885.5019247-.8693336s-.1937913-.6897567-.5057421-.8671183l-2.6-1.5c-.47786-.2716903-1.0854205-.1067416-1.3602745.3693057-.2748541.4760473-.1139391 1.0846885.3602745 1.3626943z"/><path id="Shape" d="m51.879 16.121c.7532234.7798698 1.8686337 1.0926378 2.917522.8180915 1.0488883-.2745464 1.8680231-1.0936812 2.1425695-2.1425695.2745463-1.0488883-.0382217-2.1642986-.8180915-2.917522l-8-8c-1.1771367-1.13691663-3.0482543-1.12065712-4.2054557.03654427-1.1572014 1.1572014-1.1734609 3.02831907-.0365443 4.20545573l.463.463-2.136 2.136c-3.3487077-2.3098988-7.1821009-3.82191003-11.206-4.42v-2.3c0-2.209139-1.790861-4-4-4s-4 1.790861-4 4v2.335c-1.4848825.21987115-2.9500977.55658309-4.382 1.007-2.705001.88565113-5.2511008 2.19786143-7.542 3.887-4.62312201 3.380548-8.05637782 8.1388648-9.807 13.592-.08056864.2594049-.05281402.5403665.07695238.7789935.12976641.2386271.35051521.4146376.61204762.4880065.51802397.1455023 1.05768963-.1480545 1.217-.662 1.62277508-5.0486129 4.80238481-9.4537884 9.083-12.584 2.1198464-1.5650597 4.4767021-2.7804558 6.981-3.6 2.5129555-.78870825 5.1274115-1.20710207 7.761-1.242 5.3017282-.01589729 10.4682873 1.672051 14.738 4.815 2.086554 1.5185428 3.9224572 3.354446 5.441 5.441 3.1463097 4.2706219 4.8364468 9.4395455 4.821 14.744-.0000004 13.8071185-11.1928815 24.9999994-25 24.9999994s-24.99999964-11.1928809-25-24.9999994c0-.5522847-.44771525-1-1-1s-1 .4477153-1 1c0 14.9116882 12.0883118 27 27 27s27-12.0883118 27-27c.0097194-5.4307335-1.6368406-10.7353078-4.72-15.206l2.136-2.136zm-6.586-10.828c.3904999-.39038194 1.0235001-.39038194 1.414 0l8 8c.3903819.3904999.3903819 1.0235001 0 1.414-.3958895.3771429-1.0181105.3771429-1.414 0l-1.151-1.151c-.006-.007-.008-.016-.015-.023s-.016-.009-.023-.015l-5.622-5.618c-.006-.007-.008-.016-.015-.023s-.016-.009-.023-.015l-1.151-1.155c-.3903819-.39049985-.3903819-1.02350015 0-1.414zm-20.293.807v-2.1c0-1.1045695.8954305-2 2-2s2 .8954305 2 2v2.078c-.663-.048-1.329-.078-2-.078s-1.335.046-2 .1zm23.092 10.054c-1.2508091-1.5708135-2.6751865-2.9951909-4.246-4.246l1.91-1.908 4.244 4.244z"/></g></g></g></svg>