<svg height="512" viewBox="0 0 60 54" width="512" xmlns="http://www.w3.org/2000/svg"><g id="Page-1" fill="none" fill-rule="evenodd"><g id="060---Eye" fill-rule="nonzero"><path id="Shape" d="m57.316 31.419c2.2448665-2.5183502 2.2448665-6.3196498 0-8.838-5.162-5.89-15.458-15.581-27.316-15.581s-22.154 9.691-27.316 15.581c-2.24486653 2.5183502-2.24486653 6.3196498 0 8.838 5.162 5.89 15.458 15.581 27.316 15.581s22.154-9.691 27.316-15.581z" fill="#ffe7e8"/><path id="Shape" d="m57.316 22.581c-5.162-5.89-15.458-15.581-27.316-15.581-.5 0-1 .024-1.5.057 11.222.765 20.873 9.884 25.816 15.524 2.2448665 2.5183502 2.2448665 6.3196498 0 8.838-4.943 5.64-14.594 14.759-25.816 15.524.5.033 1 .057 1.5.057 11.858 0 22.154-9.691 27.316-15.581 2.2448665-2.5183502 2.2448665-6.3196498 0-8.838z" fill="#ffc9cc"/><circle id="Oval" cx="30" cy="27" fill="#ffe0e2" r="15"/><path id="Shape" d="m30 12c-.506 0-1.007.027-1.5.076 7.6612948.774165 13.491947 7.2236903 13.491947 14.924s-5.8306522 14.149835-13.491947 14.924c.493.049.994.076 1.5.076 8.2842712 0 15-6.7157288 15-15s-6.7157288-15-15-15z" fill="#ff9ea1"/><circle id="Oval" cx="30" cy="27" fill="#ff9ea1" r="4"/><path id="Shape" d="m2.684 31.419c7.163 8.172 17.477 16.1 28.423 15.553.146-.007.29-.03.436-.04-9.981-.674-19.259-7.982-25.859-15.513-2.24486654-2.5183502-2.24486654-6.3196498 0-8.838 6.782-7.738 15.953-14.846 25.892-15.514-11.082-.746-21.433 7-28.892 15.514-2.24486653 2.5183502-2.24486653 6.3196498 0 8.838z" fill="#fff"/><path id="Shape" d="m7.646 16.155 1.33 1.494c-1.95723975 1.7507526-3.8072559 3.6177996-5.54 5.591l-1.5-1.318c1.78558977-2.035447 3.69238906-3.9612809 5.71-5.767z" fill="#fff"/><g fill="#ff414c"><path id="Shape" d="m5.426 20.651c-.35726559.0017863-.6883456-.187162-.8685254-.4956699s-.18208579-.6897057-.005-1c.17708579-.3102942.50625981-.5025438.8635254-.5043301h.01c.55228475 0 1 .4477153 1 1s-.44771525 1-1 1z"/><path id="Shape" d="m30 48c12.277 0 22.855-9.976 28.068-15.922 2.5789002-2.8941907 2.5789002-7.2618093 0-10.156-5.213-5.946-15.791-15.922-28.068-15.922-4.2312281.092254-8.385375 1.15054388-12.145 3.094-.953.434-1.835.989-2.748 1.491-.872.565-1.77 1.094-2.6 1.71-1.6961817 1.1864411-3.31820997 2.4755144-4.857 3.86-.20112786.1750601-.3230471.4239166-.33810889.6901339-.0150618.2662172.07801011.5272373.25810889.7238661.37039305.4049247.99618254.4404305 1.41.08 1.4810093-1.332946 3.0422653-2.5739358 4.675-3.716.8-.593 1.656-1.094 2.487-1.635.867-.474 1.707-1.005 2.6-1.412 3.4839533-1.80669819 7.3345337-2.79379846 11.258-2.886 11.489 0 21.575 9.549 26.564 15.24 1.9099275 2.1428545 1.9099275 5.3771455 0 7.52-4.989 5.691-15.075 15.24-26.564 15.24s-21.575-9.549-26.564-15.24c-1.9099275-2.1428545-1.9099275-5.3771455 0-7.52.32683139-.4175404.27093839-1.0175946-.12738627-1.3675892s-1.00058346-.3282365-1.37261373.0495892c-2.57890016 2.8941907-2.57890016 7.2618093 0 10.156 5.209 5.946 15.787 15.922 28.064 15.922z"/><path id="Shape" d="m42.5 35.354c.2298001.1325192.5028382.1683016.7590255.0994724.2561874-.0688293.4745294-.2366296.6069745-.4664724 4.1001301-7.1137582 2.1500307-16.1764385-4.513198-20.9741469-6.6632287-4.79770832-15.8765348-3.7729877-21.3227466 2.3715545-5.4462118 6.1445423-5.3573516 15.414233.2056528 21.4532399 5.5630044 6.0390068 14.7942617 6.8869161 21.3642918 1.9623525.2858125-.2143594.4355547-.5649147.3928203-.9196152-.0427344-.3547006-.2714531-.6596589-.6-.8-.3285469-.1403412-.7070078-.0947442-.9928203.1196152-2.4189207 1.8259406-5.3692991 2.8094001-8.4 2.8-6.3320851-.0022796-11.8737462-4.2559122-13.512914-10.3721558s1.0325947-12.5710933 6.514887-15.739654c5.4822923-3.1685608 12.4090735-2.2613118 16.8904227 2.2122569 4.4813492 4.4735686 5.4006336 11.3987628 2.2416043 16.8865529-.1329197.2297689-.169032.5029578-.1003798.759372.0686523.2564142.2364354.4750122.4663798.607628z"/><path id="Shape" d="m19.686 23.038c-.2552712-.0720227-.5286987-.0396812-.7601228.0899088s-.4018847.3458114-.4738772.6010912c-.3005284 1.0643266-.4526319 2.1650578-.452 3.271 0 .5522847.4477153 1 1 1s1-.4477153 1-1c-.0002083-.9225915.1263074-1.8408397.376-2.729.14941-.5309585-.1593121-1.0826316-.69-1.233z"/><path id="Shape" d="m31 16c0-.5522847-.4477153-1-1-1-3.3057656-.0130781-6.467744 1.3506995-8.727 3.764-.3700021.4027747-.3477857 1.0280789.0498677 1.4035797s1.0232038.3618773 1.4041323-.0305797c1.883106-2.0108619 4.5180869-3.1473854 7.273-3.137.5522847 0 1-.4477153 1-1z"/><path id="Shape" d="m30 32c2.7614237 0 5-2.2385763 5-5s-2.2385763-5-5-5-5 2.2385763-5 5c.0033061 2.7600532 2.2399468 4.9966939 5 5zm0-8c1.6568542 0 3 1.3431458 3 3s-1.3431458 3-3 3-3-1.3431458-3-3 1.3431458-3 3-3z"/><path id="Shape" d="m7.707 13.707c.39038194-.3904999.39038194-1.0235001 0-1.414l-2-2c-.39237889-.37897221-1.01608478-.37355237-1.40181858.0121814-.38573379.3857338-.39115363 1.0094397-.01218142 1.4018186l2 2c.39049985.3903819 1.02350015.3903819 1.414 0z"/><path id="Shape" d="m15.553 3.105c-.2374485.11846793-.4180742.32645544-.5021012.57816144-.0840271.251706-.0645647.52648891.0541012.76383856l1 2c.1596977.3197527.4778505.53001867.8346134.55159274.3567628.02157407.6979349-.14882137.895-.447.1970651-.29817864.2200843-.67884004.0603866-.99859274l-1-2c-.1184679-.23744854-.3264554-.41807418-.5781614-.50210122s-.5264889-.0645647-.7638386.05410122z"/><path id="Shape" d="m53 14c.2651948-.0000566.5195073-.1054506.707-.293l2-2c.3789722-.3923789.3735524-1.0160848-.0121814-1.4018186-.3857338-.38573377-1.0094397-.39115361-1.4018186-.0121814l-2 2c-.2859079.2859943-.3714219.7160366-.216678 1.0896546.1547439.3736179.5192821.6172591.923678.6173454z"/><path id="Shape" d="m44.447 3.105c-.2373497-.11866592-.5121326-.13812826-.7638386-.05410122s-.4596935.26465268-.5781614.50210122l-1 2c-.1596977.3197527-.1366785.7004141.0603866.99859274.1970651.29817863.5382372.46857407.895.447.3567629-.02157407.6749157-.23184004.8346134-.55159274l1-2c.1186659-.23734965.1381283-.51213256.0541012-.76383856-.084027-.251706-.2646527-.45969351-.5021012-.57816144z"/><path id="Shape" d="m29 1v2c0 .55228475.4477153 1 1 1s1-.44771525 1-1v-2c0-.55228475-.4477153-1-1-1s-1 .44771525-1 1z"/><path id="Shape" d="m5 44c.26519481-.0000566.51950727-.1054506.707-.293l2-2c.37897221-.3923789.37355237-1.0160848-.01218142-1.4018186-.3857338-.3857338-1.00943969-.3911536-1.40181858-.0121814l-2 2c-.28590792.2859943-.37142191.7160366-.21667798 1.0896546.15474393.3736179.51928208.6172591.92367798.6173454z"/><path id="Shape" d="m16 51c.3808256.0020788.7297741-.2123306.9-.553l1-2c.2468713-.4942949.0462949-1.0951287-.448-1.342s-1.0951287-.0462949-1.342.448l-1 2c-.1545455.3092668-.1383796.6764236.0427493.9709106.1811288.294487.5015228.4745236.8472507.4760894z"/><path id="Shape" d="m55 44c.4043959-.0000863.7689341-.2437275.923678-.6173454.1547439-.373618.0692299-.8036603-.216678-1.0896546l-2-2c-.3923789-.3789722-1.0160848-.3735524-1.4018186.0121814s-.3911536 1.0094397-.0121814 1.4018186l2 2c.1874927.1875494.4418052.2929434.707.293z"/><path id="Shape" d="m44 51c.3464401-.000185.6681037-.1796678.8501945-.4743943.1820909-.2947265.1986643-.6627032.0438055-.9726057l-1-2c-.2468713-.4942949-.8477051-.6948713-1.342-.448s-.6948713.8477051-.448 1.342l1 2c.1695854.3393743.5166139.553556.896.553z"/><path id="Shape" d="m31 53v-2c0-.5522847-.4477153-1-1-1s-1 .4477153-1 1v2c0 .5522847.4477153 1 1 1s1-.4477153 1-1z"/></g></g></g></svg>