<svg height="512" viewBox="0 0 60 60" width="512" xmlns="http://www.w3.org/2000/svg"><g id="Page-1" fill="none" fill-rule="evenodd"><g id="061---Invite" fill-rule="nonzero"><path id="Shape" d="m59 13v6h-58v-6c0-3.3137085 2.6862915-6 6-6h46c3.3137085 0 6 2.6862915 6 6z" fill="#ffe0e2"/><path id="Shape" d="m53 7h-3c3.3137085 0 6 2.6862915 6 6v6h3v-6c0-3.3137085-2.6862915-6-6-6z" fill="#ff9ea1"/><path id="Shape" d="m59 19v34c0 3.3137085-2.6862915 6-6 6h-46c-3.3137085 0-6-2.6862915-6-6v-34z" fill="#ffe7e8"/><path id="Shape" d="m56 19v34c0 3.3137085-2.6862915 6-6 6h3c3.3137085 0 6-2.6862915 6-6v-34z" fill="#ffc9cc"/><path id="Shape" d="m41.548 32-12.708 18.687c-.4851541.7140072-1.2543656 1.184425-2.111 1.291-.1227558.01513-.2463154.0228107-.37.023-.7347408-.0000852-1.4439037-.269802-1.993-.758l-8.28-7.36c-1.2114603-1.10703-1.3085829-2.982032-.2179845-4.2083055 1.0905983-1.2262735 2.9641207-1.3486631 4.2049845-.2746945l5.727 5.089 13.72-20.175c.9358729-1.3582841 2.7927658-1.7062313 4.1569151-.7789286 1.3641494.9273026 1.7237806 2.781968.8050849 4.1519286z" fill="#ffe7e8"/><path id="Shape" d="m17.073 39.4 5.727 5.089 1.131-1.662-3.858-3.427c-.9643155-.8535313-2.3668005-.9937396-3.481-.348.1711891.100204.332274.2167478.481.348z" fill="#ffc9cc"/><path id="Shape" d="m43.687 23.52c-.955685-.646104-2.1977461-.6850157-3.192-.1.063.037.13.062.192.1 1.369706.9315834 1.7251515 2.7970003.794 4.167l-2.933 4.313-12.708 18.687c-.2550204.3721148-.5911176.681543-.983.905.4551863.2662192.9726819.407323 1.5.409.1236846-.0001893.2472442-.00787.37-.023.8566344-.106575 1.6258459-.5769928 2.111-1.291l12.71-18.687 2.933-4.313c.9311515-1.3699997.575706-3.2354166-.794-4.167z" fill="#ffc9cc"/><path id="Shape" d="m7 59h3c-3.3137085 0-6-2.6862915-6-6v-40c0-3.3137085 2.6862915-6 6-6h-3c-3.3137085 0-6 2.6862915-6 6v40c0 3.3137085 2.6862915 6 6 6z" fill="#fff"/><path id="Rectangle-path" d="m0 45h2v8h-2z" fill="#fff"/><g fill="#ff414c"><circle id="Oval" cx="1" cy="49" r="1"/><path id="Shape" d="m7 60h46c3.8641657-.0044086 6.9955914-3.1358343 7-7v-40c-.0044086-3.86416566-3.1358343-6.99559136-7-7h-3v-5c0-.55228475-.4477153-1-1-1s-1 .44771525-1 1v5h-36v-5c0-.55228475-.4477153-1-1-1s-1 .44771525-1 1v5h-3c-3.86416566.00440864-6.99559136 3.13583434-7 7v32c0 .5522847.44771525 1 1 1s1-.4477153 1-1v-25h2c.55228475 0 1-.4477153 1-1s-.44771525-1-1-1h-2v-5c.00330612-2.7600532 2.23994685-4.99669388 5-5h3c0 .55228475.4477153 1 1 1s1-.44771525 1-1h36c0 .55228475.4477153 1 1 1s1-.44771525 1-1h3c2.7600532.00330612 4.9966939 2.2399468 5 5v5h-49c-.55228475 0-1 .4477153-1 1s.44771525 1 1 1h49v33c-.0033061 2.7600532-2.2399468 4.9966939-5 5h-46c-2.76005315-.0033061-4.99669388-2.2399468-5-5 0-.5522847-.44771525-1-1-1s-1 .4477153-1 1c.00440864 3.8641657 3.13583434 6.9955914 7 7z"/><path id="Shape" d="m12 13v-1c0-.5522847-.4477153-1-1-1s-1 .4477153-1 1v1c0 .5522847.4477153 1 1 1s1-.4477153 1-1z"/><path id="Shape" d="m50 13v-1c0-.5522847-.4477153-1-1-1s-1 .4477153-1 1v1c0 .5522847.4477153 1 1 1s1-.4477153 1-1z"/><path id="Shape" d="m40 55c0 .5522847.4477153 1 1 1h7c.5522847 0 1-.4477153 1-1s-.4477153-1-1-1h-7c-.5522847 0-1 .4477153-1 1z"/><path id="Shape" d="m54 56c.5522847 0 1-.4477153 1-1s-.4477153-1-1-1h-2c-.5522847 0-1 .4477153-1 1s.4477153 1 1 1z"/><path id="Shape" d="m44.249 22.693c-.877403-.5968173-1.955997-.8205395-2.9983883-.6219262-1.0423914.1986132-1.9631466.8032837-2.5596117 1.6809262l-13.078 19.233-4.876-4.334c-1.0665898-.9597327-2.5655153-1.2746768-3.9281652-.8253597-1.3626499.4493172-2.3802619 1.5940588-2.6668089 2.9999718-.286547 1.4059131.2018708 2.8576071 1.2799741 3.8043879l8.28 7.36c.7316978.6513428 1.6773937 1.0108283 2.657 1.01.1651145-.0002391.33007-.0102567.494-.03 1.1418798-.1422032 2.167209-.7692791 2.814-1.721l12.708-18.686c.2009619-.2954586.229033-.6756856.0736393-.997453-.1553938-.3217674-.4706444-.5361912-.827-.5625s-.6996774.1394944-.9006393.434953l-12.708 18.687c-.3212937.4746413-.8313812.7879808-1.4.86-.5723892.0707497-1.1476448-.1072883-1.58-.489l-8.28-7.36c-.6050236-.5373024-.8266789-1.3862284-.5615565-2.1507266.2651224-.7644983.9647786-1.2939202 1.7725565-1.3412734.5289453-.0295991 1.0483165.1499898 1.446.5l5.727 5.09c.2148897.19116.5016821.2805416.7871271.2453156.2854451-.0352259.5419035-.1916485.7038729-.4293156l13.72-20.175c.3931427-.6110549 1.0867634-.9608212 1.811831-.9136369.7250675.0471844 1.3675075.483896 1.67814 1.1407496.3106326.6568537.240586 1.4305071-.182971 2.0208873-.2009619.2956373-.2289377.6760293-.0733893.997886.1555485.3218568.4709897.5362806.8275.5625.3565103.0262195.6999274-.1397487.9008893-.435386 1.2368893-1.827803.7624631-4.3117215-1.061-5.555z"/></g></g></g></svg>