<svg height="512" viewBox="0 0 60 60" width="512" xmlns="http://www.w3.org/2000/svg"><g id="Page-1" fill="none" fill-rule="evenodd"><g id="062---Invite" fill-rule="nonzero"><path id="Shape" d="m59 19v34c0 3.3137085-2.6862915 6-6 6h-46c-3.3137085 0-6-2.6862915-6-6v-34z" fill="#ffe7e8"/><path id="Shape" d="m56 19v34c0 3.3137085-2.6862915 6-6 6h3c3.3137085 0 6-2.6862915 6-6v-34z" fill="#ffc9cc"/><path id="Shape" d="m59 13v6h-58v-6c0-3.3137085 2.6862915-6 6-6h46c3.3137085 0 6 2.6862915 6 6z" fill="#ffe0e2"/><path id="Shape" d="m53 7h-3c3.3137085 0 6 2.6862915 6 6v6h3v-6c0-3.3137085-2.6862915-6-6-6z" fill="#ff9ea1"/><path id="Shape" d="m37.69 33 4.53-4.982c.720962-.7931296.9640288-1.9106402.6376393-2.9315764-.3263894-1.0209362-1.1726486-1.7901935-2.22-2.0180001-1.0473514-.2278065-2.1366774.1204468-2.8576393.9135765l-7.78 8.559-7.78-8.559c-1.1145106-1.2260721-3.0119279-1.3165106-4.238-.202s-1.3165106 3.0119279-.202 4.238l8.166 8.982-8.166 8.982c-.720962.7931296-.9640287 1.9106402-.6376393 2.9315764s1.1726487 1.7901934 2.22 2.018c1.0473514.2278066 2.1366773-.1204468 2.8576393-.9135764l7.78-8.559 7.78 8.559c1.1145106 1.2260721 3.0119278 1.3165105 4.2379999.2019999 1.2260722-1.1145106 1.3165107-3.0119277.2020001-4.2379999l-8.166-8.982z" fill="#ffe7e8"/><path id="Shape" d="m34.054 37 3.636-4 4.53-4.982c.9976821-1.0894622 1.0505545-2.744123.1244612-3.8950568-.9260932-1.1509339-2.5537379-1.4533748-3.8314612-.7119432.1804871.1054405.3497029.2290854.505.369.5885282.5354645.9402333 1.2827941.9777407 2.0775776.0375075.7947835-.2422551 1.5719134-.7777407 2.1604224l-4.528 4.982-3.636 4 8.166 8.982c.5354856.588509.8152482 1.3656389.7777407 2.1604224-.0375074.7947835-.3892125 1.5421131-.9777407 2.0775776-.1556793.1393068-.3252327.2622833-.506.367 1.2772223.7399769 2.9032921.4375442 3.8290516-.7121653.9257596-1.1497094.874353-2.8028658-.1210516-3.8928347z" fill="#ffc9cc"/><path id="Shape" d="m7 59h3c-3.3137085 0-6-2.6862915-6-6v-40c0-3.3137085 2.6862915-6 6-6h-3c-3.3137085 0-6 2.6862915-6 6v40c0 3.3137085 2.6862915 6 6 6z" fill="#fff"/><path id="Rectangle-path" d="m0 45h2v8h-2z" fill="#fff"/><g fill="#ff414c"><circle id="Oval" cx="1" cy="49" r="1"/><path id="Shape" d="m53 6h-3v-5c0-.55228475-.4477153-1-1-1s-1 .44771525-1 1v5h-36v-5c0-.55228475-.4477153-1-1-1s-1 .44771525-1 1v5h-3c-3.86416566.00440864-6.99559136 3.13583434-7 7v32c0 .5522847.44771525 1 1 1s1-.4477153 1-1v-25h2c.55228475 0 1-.4477153 1-1s-.44771525-1-1-1h-2v-5c.00330612-2.7600532 2.23994685-4.99669388 5-5h3c0 .55228475.4477153 1 1 1s1-.44771525 1-1h36c0 .55228475.4477153 1 1 1s1-.44771525 1-1h3c2.7600532.00330612 4.9966939 2.2399468 5 5v5h-49c-.55228475 0-1 .4477153-1 1s.44771525 1 1 1h49v33c-.0033061 2.7600532-2.2399468 4.9966939-5 5h-46c-2.76005315-.0033061-4.99669388-2.2399468-5-5 0-.5522847-.44771525-1-1-1s-1 .4477153-1 1c.00440864 3.8641657 3.13583434 6.9955914 7 7h46c3.8641657-.0044086 6.9955914-3.1358343 7-7v-40c-.0044086-3.86416566-3.1358343-6.99559136-7-7z"/><path id="Shape" d="m12 13v-1c0-.5522847-.4477153-1-1-1s-1 .4477153-1 1v1c0 .5522847.4477153 1 1 1s1-.4477153 1-1z"/><path id="Shape" d="m50 13v-1c0-.5522847-.4477153-1-1-1s-1 .4477153-1 1v1c0 .5522847.4477153 1 1 1s1-.4477153 1-1z"/><path id="Shape" d="m40 55c0 .5522847.4477153 1 1 1h7c.5522847 0 1-.4477153 1-1s-.4477153-1-1-1h-7c-.5522847 0-1 .4477153-1 1z"/><path id="Shape" d="m54 56c.5522847 0 1-.4477153 1-1s-.4477153-1-1-1h-2c-.5522847 0-1 .4477153-1 1s.4477153 1 1 1z"/><path id="Shape" d="m16 48.19c.0772088 1.6158319 1.120069 3.0260898 2.6423844 3.5732916s3.2243596.1236098 4.3126156-1.0732916l7.045-7.745 7.04 7.745c.9532655 1.0877573 2.4194895 1.5761795 3.8346393 1.2773783s2.5587664-1.3382771 2.990919-2.7185579c.4321526-1.3802809.0855183-2.8863399-.9065583-3.9388204l-8.166-8.983c-.2388954-.2702813-.6048409-.3909521-.9576481-.3157852s-.6377872.3345199-.7457683.6787046c-.107981.3441846-.0222249.7198487.2244164.9830806l8.166 8.982c.742069.8172769.681646 2.0812367-.135 2.824-.8278999.7124335-2.0682521.6535991-2.825-.134l-7.78-8.559c-.1945864-.1993856-.461399-.3118117-.74-.3118117s-.5454136.1124261-.74.3118117l-7.781 8.559c-.7567479.7875991-1.9971001.8464335-2.825.134-.8163516-.7430478-.8763263-2.0069923-.134-2.824l8.166-8.982c.3471434-.3815185.3471434-.9644815 0-1.346l-8.166-8.982c-.7268153-.8192915-.6594879-2.0707746.1510305-2.8073605.8105184-.736586 2.0627187-.6842683 2.8089695.1173605l7.78 8.559c.1945864.1993856.461399.3118117.74.3118117s.5454136-.1124261.74-.3118117l7.78-8.559c.4779745-.5387895 1.2087328-.7789648 1.9131476-.6287862s1.2736749.6675129 1.4903404 1.3543971.0472679 1.4372151-.443488 1.9643891l-4.529 4.982c-.2466413.2632319-.3323974.638896-.2244164.9830806.1079811.3441847.3929611.6035377.7457683.6787046s.7187527-.0455039.9576481-.3157852l4.529-4.983c.9999103-1.0510229 1.3523998-2.5610412.9211636-3.9461423-.4312362-1.385101-1.5785977-2.428157-2.9984086-2.725826-1.4198108-.2976689-2.889502.1967116-3.840755 1.2919683l-7.041 7.745-7.041-7.745c-.951253-1.0952567-2.4209442-1.5896372-3.840755-1.2919683-1.4198109.297669-2.5671724 1.340725-2.9984086 2.725826-.4312362 1.3851011-.0787467 2.8951194.9211636 3.9461423l7.559 8.31-7.554 8.31c-.7196219.7815853-1.0963234 1.8187748-1.046 2.88z"/></g></g></g></svg>