<svg height="512" viewBox="0 0 60 60" width="512" xmlns="http://www.w3.org/2000/svg"><g id="Page-1" fill="none" fill-rule="evenodd"><g id="064---Mobile" fill-rule="nonzero" transform="translate(-1)"><path id="Shape" d="m58.09 55.94c.3857192.6171457.4057578 1.3951051.0523218 2.0312899s-1.024554 1.0301683-1.7523218 1.0287101h-20.56c-.9950854.0018269-1.8375909-.7337616-1.97-1.72-.3-2.05-1.16-5.49-3.82-7.28h12.96c1.6568542 0 3-1.3431458 3-3v-13.23c-.0012745-.4890412-.1787909-.9612349-.5-1.33-.16-.18-.31-.34-.36-.41-1.4197731-1.853392-2.5029024-3.9418006-3.2-6.17-1.120504-2.9905509-.9907631-6.3061508.36-9.2.54-1.04 1.49-2.72 2.74-2.92.3200846-.058924.6497431-.0383204.96.06.5196827.2175641.9401532.6202179 1.18 1.13.22.4.4.85.58 1.27.65 1.46 1.34 2.9033333 2.07 4.33.6677276 1.4262749 1.4363448 2.8031022 2.3 4.12 3.61 5.1 7.87 10.81 7.87 17.35-.0049702 2.4755508-.8912289 4.8684495-2.5 6.75-1.3288678 1.6506592-1.4536969 3.9660373-.31 5.75z" fill="#ffe7e8"/><path id="Shape" d="m57.19 54.5c-1.1436969-1.7839627-1.0188678-4.0993408.31-5.75 1.6087711-1.8815505 2.4950298-4.2744492 2.5-6.75 0-6.54-4.26-12.25-7.87-17.35-.8636552-1.3168978-1.6322724-2.6937251-2.3-4.12-.73-1.43-1.42-2.8733333-2.07-4.33-.18-.42-.36-.87-.58-1.27-.2398468-.5097821-.6603173-.9124359-1.18-1.13-.3102569-.0983204-.6399154-.118924-.96-.06-.4631753.0993326-.8851837.3371919-1.21.682.1307969.1591503.2478819.3290907.35.508.22.4.4.85.58 1.27.65 1.46 1.34 2.9033333 2.07 4.33.6677276 1.4262749 1.4363448 2.8031022 2.3 4.12 3.61 5.1 7.87 10.81 7.87 17.35-.0049702 2.4755508-.8912289 4.8684495-2.5 6.75-1.3288678 1.6506592-1.4536969 3.9660373-.31 5.75l.9 1.44c.3857192.6171457.4057578 1.3951051.0523218 2.0312899s-1.024554 1.0301683-1.7523218 1.0287101h3c.7277678.0014582 1.3988858-.3925253 1.7523218-1.0287101s.3333974-1.4141442-.0523218-2.0312899z" fill="#ffc9cc"/><path id="Shape" d="m46 42v5c0 1.6568542-1.3431458 3-3 3h-24c-1.6568542 0-3-1.3431458-3-3v-5c0 1.6568542 1.3431458 3 3 3h24c1.6568542 0 3-1.3431458 3-3z" fill="#ffe0e2"/><path id="Shape" d="m43 45v2c0 1.6568542-1.3431458 3-3 3h3c1.6568542 0 3-1.3431458 3-3v-5c0 1.6568542-1.3431458 3-3 3z" fill="#ff9ea1"/><path id="Shape" d="m42.3 16.66c-1.3507631 2.8938492-1.480504 6.2094491-.36 9.2.6970976 2.2281994 1.7802269 4.316608 3.2 6.17.05.07.2.23.36.41.3212091.3687651.4987255.8409588.5 1.33v8.23c0 1.6568542-1.3431458 3-3 3h-24c-1.6568542 0-3-1.3431458-3-3v-38c0-1.65685425 1.3431458-3 3-3h2l2.86 3.05c.5663757.60708315 1.3597411.95123705 2.19.95h9.9c.8302589.00123705 1.6236243-.34291685 2.19-.95l2.86-3.05h2c1.6568542 0 3 1.34314575 3 3v9.8c-.3102569-.0983204-.6399154-.118924-.96-.06-1.25.2-2.2 1.88-2.74 2.92z" fill="#ffe7e8"/><path id="Shape" d="m45.04 13.74c.3200846-.058924.6497431-.0383204.96.06v-9.8c0-1.65685425-1.3431458-3-3-3h-2l-.133.142c1.2644844.37658326 2.1317511 1.53863112 2.133 2.858v9.8c-.3102569-.0983204-.6399154-.118924-.96-.06-1.25.2-2.2 1.88-2.74 2.92-1.3507631 2.8938492-1.480504 6.2094491-.36 9.2.6970976 2.2281994 1.7802269 4.316608 3.2 6.17.05.07.2.23.36.41.3212091.3687651.4987255.8409588.5 1.33v8.23c0 1.6568542-1.3431458 3-3 3h3c1.6568542 0 3-1.3431458 3-3v-8.23c-.0012745-.4890412-.1787909-.9612349-.5-1.33-.16-.18-.31-.34-.36-.41-1.4197731-1.853392-2.5029024-3.9418006-3.2-6.17-1.120504-2.9905509-.9907631-6.3061508.36-9.2.54-1.04 1.49-2.72 2.74-2.92z" fill="#ffc9cc"/><path id="Shape" d="m41 1-2.86 3.05c-.5663757.60708315-1.3597411.95123705-2.19.95h-9.9c-.8302589.00123705-1.6236243-.34291685-2.19-.95l-2.86-3.05z" fill="#ffe0e2"/><path id="Shape" d="m38 1-2.86 3.05c-.5663757.60708315-1.3597411.95123705-2.19.95000332l3-.00000332c.8302589.00123705 1.6236243-.34291685 2.19-.95l2.86-3.05z" fill="#ff9ea1"/><path id="Shape" d="m33.86 57.28c.1324091.9862384.9749146 1.7218269 1.97 1.72l3 .0000034c-.9950854.0018235-1.8375909-.733765-1.97-1.7200034-.3-2.05-1.16-5.49-3.82-7.28h-3c2.66 1.79 3.52 5.23 3.82 7.28z" fill="#fff"/><path id="Shape" d="m16 4v43c0 1.6568542 1.3431458 3 3 3h3c-1.6568542 0-3-1.3431458-3-3v-43c0-1.65685425 1.3431458-3 3-3h-3c-1.6568542 0-3 1.34314575-3 3z" fill="#fff"/><path id="Rectangle-path" d="m19 49h8v2h-8z" fill="#fff"/><g fill="#ff414c"><circle id="Oval" cx="23" cy="50" r="1"/><path id="Shape" d="m52.945 24.071c-1.6349226-2.7257937-3.0900213-5.5554862-4.356-8.471-.473-1.12-1.012-2.314-2.273-2.745-.4627018-.149729-.9549949-.184059-1.434-.1-1.624.26-2.707 1.978-3.468 3.442-2.761 5.264-.3 12.364 2.93 16.441.321.422.656.606.656 1.133v8.229c0 1.1045695-.8954305 2-2 2h-24c-1.1045695 0-2-.8954305-2-2 0-.5522847-.4477153-1-1-1s-1 .4477153-1 1v5c0 3.812 5 5.1 5 3 0-.5522847-.4477153-1-1-1-1.1045695 0-2-.8954305-2-2v-1.556c.6053465.3599241 1.2957468.5518554 2 .556h24c.7042532-.0041446 1.3946535-.1960759 2-.556v1.556c0 1.1045695-.8954305 2-2 2h-16c-.5522847 0-1 .4477153-1 1s.4477153 1 1 1h16c2.209139 0 4-1.790861 4-4v-13.231c.0008495-.7349123-.2689895-1.4443967-.758-1.993-1.5196137-1.8312955-2.6588231-3.9472128-3.351-6.224-.719-2.218-1.252-5.48.3-8.431.909-1.75 2.139-3.427 3.117-1.71.487.889.281.936 3.018 6.326.6753247 1.4634012 1.498968 2.8536761 2.458 4.149 3.38 4.767 7.216 10.172 7.216 16.114.0022734 2.2426414-.802803 4.4111651-2.268 6.109-1.6116694 1.980433-1.7689773 4.7720433-.39 6.921l.9 1.441c.1921345.308222.2020438.6963878.0258861 1.0140117s-.5106831.5147625-.8738861.5149883h-20.564c-.498023-.0005418-.9181186-.3709625-.981-.865-.1699203-1.2176567-.4779031-2.4120125-.918-3.56-.2024124-.513901-.783099-.7664124-1.297-.564s-.7664124.783099-.564 1.297c.3832329.9996935.6516214 2.039699.8 3.1.1995726 1.4826847 1.4639456 2.5898654 2.96 2.592h20.564c1.0905776.0000026 2.0952555-.5918278 2.6239337-1.5456929.5286782-.9538652.4980724-2.1194999-.0799337-3.0443071l-.9-1.438c-.9213855-1.4161091-.8290191-3.2638395.229-4.581 1.7571603-2.062488 2.7256013-4.6814956 2.733-7.391 0-6.75-4.2-12.5-8.055-17.929z"/><path id="Shape" d="m46 10c.5522847 0 1-.44771525 1-1v-5c0-2.209139-1.790861-4-4-4h-24c-2.209139 0-4 1.790861-4 4v1c0 .55228475.4477153 1 1 1s1-.44771525 1-1v-1c0-1.1045695.8954305-2 2-2h1.567l2.564 2.735c.7571716.80580401 1.8132755 1.26348524 2.919 1.265h9.9c1.1057245-.00151476 2.1618284-.45919599 2.919-1.265l2.564-2.735h1.567c1.1045695 0 2 .8954305 2 2v5c0 .55228475.4477153 1 1 1zm-8.59-6.632c-.378896.40269492-.907076.63133176-1.46.632h-9.9c-.5527743.00000995-1.0809024-.22876112-1.459-.632l-1.282-1.368h15.383z"/><path id="Shape" d="m11.5 5.258c-.4132325-.33613749-1.0174233-.28934601-1.3739746.10640729-.35655136.39575331-.34029215 1.0015351.0369746 1.37759271 4.9849453 4.4166788 7.8381012 10.7579152 7.837 17.418.0007433 6.6602953-2.8523243 13.0016996-7.837 17.419-.37266613.3768815-.3865498.9790638-.0316489 1.3727199.354901.393656.9552974.4420335 1.3686489.1102801 5.3725747-4.8197385 8.4595592-11.6844656 8.5-18.902-.040316-7.2175616-3.1273222-14.0823368-8.5-18.902z"/><path id="Shape" d="m5.766 37.32c-.27152185.2322226-.39852908.5916604-.33317931.9429165.06534978.3512561.31312838.6409665.65.76.33687163.1190335.71165746.0493061.98317931-.1829165 4.3452034-3.6451666 6.8785778-9.0085839 6.934-14.68-.0551734-5.6712542-2.5881696-11.0346444-6.933-14.68-.41973641-.35926122-1.05123876-.3102364-1.41049999.10950001-.35926122.41973639-.31023641 1.05123879.10949999 1.41049999 3.90126685 3.2649002 6.1789564 8.0731123 6.234 13.16-.0542377 5.0870735-2.33207885 9.8956057-6.234 13.16z"/><path id="Shape" d="m1.282 13.784c-.18571856.1899891-.28819823.4460739-.28482118.711735s.11233318.5190582.30282118.704265c2.38740963 2.3680156 3.72099064 5.5974442 3.7 8.96.02175569 3.3632922-1.31190159 6.5936264-3.7 8.962-.25651669.2500859-.36012865.6180249-.27180624.9652178s.3551609.620893.7.718.71528955.0028681.97180624-.2472178c2.77233344-2.7473718 4.32213238-6.4950019 4.3-10.398.02323661-3.9038011-1.5266909-7.652463-4.3-10.4-.19086365-.1855563-.44783299-.2873562-.71399043-.2828514s-.51953461.1149424-.70400957.3068514z"/><path id="Shape" d="m32 40c-.5522847 0-1 .4477153-1 1s.4477153 1 1 1h4c.5522847 0 1-.4477153 1-1s-.4477153-1-1-1z"/><path id="Shape" d="m40 42h2c.5522847 0 1-.4477153 1-1s-.4477153-1-1-1h-2c-.5522847 0-1 .4477153-1 1s.4477153 1 1 1z"/></g></g></g></svg>