<svg height="512" viewBox="0 0 50 60" width="512" xmlns="http://www.w3.org/2000/svg"><g id="Page-1" fill="none" fill-rule="evenodd"><g id="065---Help" fill-rule="nonzero"><path id="Shape" d="m49 5v50c0 2.209139-1.790861 4-4 4h-33v-58h33c2.209139 0 4 1.790861 4 4z" fill="#ffe7e8"/><path id="Shape" d="m45 1h-3c2.209139 0 4 1.790861 4 4v50c0 2.209139-1.790861 4-4 4h3c2.209139 0 4-1.790861 4-4v-50c0-2.209139-1.790861-4-4-4z" fill="#ffc9cc"/><path id="Rectangle-path" d="m8 1h4v58h-4z" fill="#ff9ea1"/><path id="Shape" d="m8 1v58h-3c-2.209139 0-4-1.790861-4-4v-50c0-2.209139 1.790861-4 4-4z" fill="#ffe0e2"/><path id="Shape" d="m33.89 33.12c-.0080001.007654-.0190075.0113232-.03.01-1.1613366.5038226-1.8982526 1.6646634-1.86 2.93v.94c0 1.6568542-1.3431458 3-3 3s-3-1.3431458-3-3v-.94c-.032952-3.7812559 2.2759433-7.1888669 5.8-8.56 3.216216-1.2096363 5.3007328-4.3379932 5.1787112-7.7719961s-2.4233228-6.4065169-5.7172838-7.3848249c-3.2939609-.9783079-6.8447313.2561382-8.8214274 3.066821-.5947428.926081-1.6488383 1.4521402-2.7464276 1.3706382-1.0975893-.0815019-2.0624272-.7574779-2.5138683-1.7612438-.4514412-1.0037658-.3169955-2.1741418.3502959-3.0493944 3.4548067-4.93100144 9.6753983-7.10090524 15.4475905-5.38852049 5.7721922 1.71238474 9.8031183 6.92351479 10.0099959 12.94079539.2068775 6.0172807-3.4566303 11.4929498-9.0975864 13.5977251z" fill="#ffe7e8"/><circle id="Oval" cx="29" cy="48" fill="#ffe7e8" r="3"/><path id="Shape" d="m8 1h-3c-2.209139 0-4 1.790861-4 4v50c0 2.209139 1.790861 4 4 4h3c-2.209139 0-4-1.790861-4-4v-50c0-2.209139 1.790861-4 4-4z" fill="#fff"/><path id="Rectangle-path" d="m0 5h2v8h-2z" fill="#fff"/><g fill="#ff414c"><path id="Shape" d="m0 55c.00330612 2.7600532 2.23994685 4.9966939 5 5h40c2.7600532-.0033061 4.9966939-2.2399468 5-5v-50c-.0033061-2.76005315-2.2399468-4.99669388-5-5h-40c-2.76005315.00330612-4.99669388 2.23994685-5 5 0 .35726559.19059892.68739261.5.8660254.30940108.1786328.69059892.1786328 1 0 .30940108-.17863279.5-.50875981.5-.8660254 0-1.65685425 1.34314575-3 3-3h2v56h-2c-1.65685425 0-3-1.3431458-3-3v-42c0-.5522847-.44771525-1-1-1s-1 .4477153-1 1zm9-53h36c1.6568542 0 3 1.34314575 3 3v50c0 1.6568542-1.3431458 3-3 3h-32v-45c0-.5522847-.4477153-1-1-1s-1 .4477153-1 1v45h-2z"/><circle id="Oval" cx="1" cy="9" r="1"/><path id="Shape" d="m43 54h-5c-.5522847 0-1 .4477153-1 1s.4477153 1 1 1h5c1.6568542 0 3-1.3431458 3-3v-4c0-.5522847-.4477153-1-1-1s-1 .4477153-1 1v4c0 .5522847-.4477153 1-1 1z"/><path id="Shape" d="m12 10c.5522847 0 1-.44771525 1-1v-3c0-.55228475-.4477153-1-1-1s-1 .44771525-1 1v3c0 .55228475.4477153 1 1 1z"/><path id="Shape" d="m34 54h-5c-.5522847 0-1 .4477153-1 1s.4477153 1 1 1h5c.5522847 0 1-.4477153 1-1s-.4477153-1-1-1z"/><path id="Shape" d="m17.69 16.967c.8687594.6094789 1.9441085.8487467 2.9893327.6651338 1.0452242-.1836128 1.9746438-.7750552 2.5836673-1.6441338 1.7276925-2.4640612 4.8369484-3.5481043 7.7221078-2.6923154 2.8851593.8557888 4.9004547 3.4598638 5.0051616 6.4674467.1047069 3.007583-1.7246107 5.7455054-4.5432694 6.7998687-3.9120378 1.5193609-6.4779565 5.2983895-6.447 9.495v.942c.0000001 2.209139 1.790861 3.9999999 4 3.9999999s3.9999999-1.7908609 4-3.9999999v-.942c-.0375356-.8591514.4560189-1.6532858 1.243-2 .3421524-.1195055.5928656-.4147825.6553059-.7717853.0624403-.3570029-.0731665-.7198477-.3544445-.9483921-.281278-.2285443-.6641971-.2870126-1.0008614-.1528226-1.5686264.6389515-2.5802392 2.1796421-2.543 3.873v.942c0 1.1045695-.8954305 2-2 2s-2-.8954305-2-2v-.942c-.0330897-3.3625358 2.0148319-6.3958157 5.146-7.622 3.6229327-1.356025 5.9740772-4.8754845 5.8397106-8.7415408s-2.7241836-7.2137904-6.4325191-8.3150138c-3.7083356-1.1012233-7.7055563.2904311-9.9281915 3.4565546-.3043772.4358615-.7702026.7321322-1.294.823-.5218751.0940094-1.0596239-.0260109-1.492-.333-.9037968-.6342094-1.1226836-1.8808344-.489-2.785 2.9026032-4.12836183 7.9322113-6.20381729 12.9015181-5.32377981 4.9693069.88003749 8.9802759 4.55653051 10.2885928 9.43062361 1.3083168 4.8740931-.3224532 10.0649565-4.1831109 13.3151562-.4227739.3553952-.4773952.986226-.122 1.409.3553953.4227739.986226.4773952 1.409.122 4.4621364-3.7484955 6.3492831-9.742182 4.8396261-15.370931-1.5096569-5.628749-6.1428416-9.87365201-11.8818962-10.88614003s-11.5451032 1.39071812-14.8897299 6.16307103c-1.2653218 1.8077729-.8277133 4.2987407.978 5.567z"/><path id="Shape" d="m33 48c0-2.209139-1.790861-4-4-4s-4 1.790861-4 4 1.790861 4 4 4 4-1.790861 4-4zm-6 0c0-1.1045695.8954305-2 2-2s2 .8954305 2 2-.8954305 2-2 2-2-.8954305-2-2z"/></g></g></g></svg>