<svg height="512" viewBox="0 0 60 60" width="512" xmlns="http://www.w3.org/2000/svg"><g id="Page-1" fill="none" fill-rule="evenodd"><g id="068---Remove-Printer" fill-rule="nonzero"><path id="Rectangle-path" d="m5 37h4v12h-4z" fill="#ffe0e2"/><path id="Shape" d="m59 21v24c0 2.209139-1.790861 4-4 4v-12h-50v12c-2.209139 0-4-1.790861-4-4v-24c0-2.209139 1.790861-4 4-4h50c2.209139 0 4 1.790861 4 4z" fill="#ffe7e8"/><path id="Shape" d="m55 17h-3c2.209139 0 4 1.790861 4 4v24c-.0028968.9663177-.3584924 1.8983338-1 2.621v1.379c2.209139 0 4-1.790861 4-4v-24c0-2.209139-1.790861-4-4-4z" fill="#ffc9cc"/><path id="Shape" d="m49 7v10h-38v-10c0-3.3137085 2.6862915-6 6-6h26c3.3137085 0 6 2.6862915 6 6z" fill="#ffe0e2"/><path id="Shape" d="m43 1h-3c3.3137085 0 6 2.6862915 6 6v10h3v-10c0-3.3137085-2.6862915-6-6-6z" fill="#ff9ea1"/><path id="Shape" d="m51 37v16c.0731958 3.2386219-2.4914403 5.9241047-5.73 6h-30.54c-3.2385597-.0758953-5.80319584-2.7613781-5.73-6v-16z" fill="#ffe7e8"/><circle id="Oval" cx="42" cy="42" fill="#ffe7e8" r="17"/><path id="Shape" d="m42 25c-.506 0-1.005.032-1.5.076 8.7736376.7696911 15.5042963 8.1166655 15.5042963 16.924s-6.7306587 16.1543089-15.5042963 16.924c.495.044.994.076 1.5.076 9.3888407 0 17-7.6111593 17-17s-7.6111593-17-17-17z" fill="#ffc9cc"/><path id="Shape" d="m1 45c0 2.209139 1.790861 4 4 4h3c-2.209139 0-4-1.790861-4-4v-24c0-2.209139 1.790861-4 4-4h-3c-2.209139 0-4 1.790861-4 4z" fill="#fff"/><path id="Shape" d="m14 7c0-3.3137085 2.6862915-6 6-6h-3c-3.3137085 0-6 2.6862915-6 6v10h3z" fill="#fff"/><path id="Rectangle-path" d="m0 37h2v8h-2z" fill="#fff"/><g fill="#ff414c"><circle id="Oval" cx="1" cy="41" r="1"/><path id="Shape" d="m5 50h3v3c-.06808151 3.7888968 2.9413559 6.9190694 6.73 7h27.27c9.9363282-.0115721 17.9884279-8.0636718 18-18v-21c-.0033061-2.7600532-2.2399468-4.9966939-5-5h-5v-9c-.0049584-3.86393756-3.1360624-6.99504164-7-7h-26c-3.8639376.00495836-6.9950416 3.13606244-7 7v9h-5c-2.76005315.0033061-4.99669388 2.2399468-5 5v16c0 .5522847.44771525 1 1 1s1-.4477153 1-1v-16c0-1.6568542 1.34314575-3 3-3h50c1.6568542 0 3 1.3431458 3 3v12.792c-2.7980061-5.4827669-8.2098644-9.1498158-14.3392044-9.7161752-6.1293399-.5663595-12.1215112 2.0469414-15.8767956 6.9241752h-12.784c-.5522847 0-1 .4477153-1 1s.4477153 1 1 1h11.436c-.5532102.9552825-1.0171735 1.9595322-1.386 3h-19.05c0-.5522847-.44771525-1-1-1s-1 .4477153-1 1v11.816c-1.19435087-.4222546-1.99474861-1.5492146-2-2.816 0-.5522847-.44771525-1-1-1s-1 .4477153-1 1c.00330612 2.7600532 2.23994685 4.9966939 5 5zm7-34v-9c.0033061-2.76005315 2.2399468-4.99669388 5-5h26c2.7600532.00330612 4.9966939 2.23994685 5 5v9zm30 10c8.836556 0 16 7.163444 16 16s-7.163444 16-16 16-16-7.163444-16-16c.0104696-8.8322157 7.1677843-15.9895304 16-16zm-17.536 12c-1.8630094 8.0188423 1.9871258 16.2738491 9.328 20h-19.062c-2.6846435-.0795216-4.79947975-2.3150778-4.73-5v-11c0-.5522847-.44771525-1-1-1s-1 .4477153-1 1v6h-2v-10z"/><path id="Shape" d="m7 21h-1c-.55228475 0-1 .4477153-1 1s.44771525 1 1 1h1c.55228475 0 1-.4477153 1-1s-.44771525-1-1-1z"/><path id="Shape" d="m12 23c.5522847 0 1-.4477153 1-1s-.4477153-1-1-1h-1c-.5522847 0-1 .4477153-1 1s.4477153 1 1 1z"/><path id="Shape" d="m4 31v1c0 .5522847.44771525 1 1 1s1-.4477153 1-1v-1c0-.5522847-.44771525-1-1-1s-1 .4477153-1 1z"/><path id="Shape" d="m8 32c0 .5522847.44771525 1 1 1h2c.5522847 0 1-.4477153 1-1s-.4477153-1-1-1h-2c-.55228475 0-1 .4477153-1 1z"/><path id="Shape" d="m18 45h3c.5522847 0 1-.4477153 1-1s-.4477153-1-1-1h-3c-.5522847 0-1 .4477153-1 1s.4477153 1 1 1z"/><path id="Shape" d="m18 49h3c.5522847 0 1-.4477153 1-1s-.4477153-1-1-1h-3c-.5522847 0-1 .4477153-1 1s.4477153 1 1 1z"/><path id="Shape" d="m18 53h5c.5522847 0 1-.4477153 1-1s-.4477153-1-1-1h-5c-.5522847 0-1 .4477153-1 1s.4477153 1 1 1z"/><path id="Shape" d="m18 4h-2c-.5522847 0-1 .44771525-1 1s.4477153 1 1 1h2c.5522847 0 1-.44771525 1-1s-.4477153-1-1-1z"/><path id="Shape" d="m41 4h-19c-.5522847 0-1 .44771525-1 1s.4477153 1 1 1h19c.5522847 0 1-.44771525 1-1s-.4477153-1-1-1z"/><path id="Shape" d="m36 43h12c.5522847 0 1-.4477153 1-1s-.4477153-1-1-1h-12c-.5522847 0-1 .4477153-1 1s.4477153 1 1 1z"/></g></g></g></svg>