<svg height="512" viewBox="0 0 60 60" width="512" xmlns="http://www.w3.org/2000/svg"><g id="Page-1" fill="none" fill-rule="evenodd"><g id="069---Search" fill-rule="nonzero"><path id="Shape" d="m23 53h-20l3-17h14z" fill="#ffe7e8"/><path id="Shape" d="m20 36h-3l3 17h3z" fill="#ffc9cc"/><rect id="Rectangle-path" fill="#ffe7e8" height="6" rx="1" width="24" x="1" y="53"/><path id="Shape" d="m24 53h-3c.5522847 0 1 .4477153 1 1v4c0 .5522847-.4477153 1-1 1h3c.5522847 0 1-.4477153 1-1v-4c0-.5522847-.4477153-1-1-1z" fill="#ffc9cc"/><rect id="Rectangle-path" fill="#ffe7e8" height="4" rx="1" width="22" x="3" y="32"/><path id="Shape" d="m24 32h-3c.5522847 0 1 .4477153 1 1v2c0 .5522847-.4477153 1-1 1h3c.5522847 0 1-.4477153 1-1v-2c0-.5522847-.4477153-1-1-1z" fill="#ffc9cc"/><rect id="Rectangle-path" fill="#ffe7e8" height="4" rx="1" width="22" x="3" y="12"/><path id="Shape" d="m24 12h-3c.5522847 0 1 .4477153 1 1v2c0 .5522847-.4477153 1-1 1h3c.5522847 0 1-.4477153 1-1v-2c0-.5522847-.4477153-1-1-1z" fill="#ffc9cc"/><path id="Rectangle-path" d="m5 16h18v16h-18z" fill="#ffe7e8"/><path id="Rectangle-path" d="m9 6h12v6h-12z" fill="#ffe0e2"/><path id="Shape" d="m23 2v2c-.0032948 1.10320187-.8967981 1.9967052-2 2h-12c-1.10320187-.0032948-1.9967052-.89679813-2-2v-2c0-.55228475.44771525-1 1-1h14c.5522847 0 1 .44771525 1 1z" fill="#ffe7e8"/><path id="Shape" d="m22 1h-3c.5522847 0 1 .44771525 1 1v2c-.0032948 1.10320187-.8967981 1.9967052-2 2h3c1.1032019-.0032948 1.9967052-.89679813 2-2v-2c0-.55228475-.4477153-1-1-1z" fill="#ffc9cc"/><path id="Shape" d="m57 53h-20l3-17h14z" fill="#ffe7e8"/><path id="Shape" d="m54 36h-3l3 17h3z" fill="#ffc9cc"/><rect id="Rectangle-path" fill="#ffe7e8" height="6" rx="1" width="24" x="35" y="53"/><path id="Shape" d="m58 53h-3c.5522847 0 1 .4477153 1 1v4c0 .5522847-.4477153 1-1 1h3c.5522847 0 1-.4477153 1-1v-4c0-.5522847-.4477153-1-1-1z" fill="#ffc9cc"/><rect id="Rectangle-path" fill="#ffe7e8" height="4" rx="1" width="22" x="35" y="32"/><path id="Shape" d="m56 32h-3c.5522847 0 1 .4477153 1 1v2c0 .5522847-.4477153 1-1 1h3c.5522847 0 1-.4477153 1-1v-2c0-.5522847-.4477153-1-1-1z" fill="#ffc9cc"/><rect id="Rectangle-path" fill="#ffe7e8" height="4" rx="1" width="22" x="35" y="12"/><path id="Shape" d="m56 12h-3c.5522847 0 1 .4477153 1 1v2c0 .5522847-.4477153 1-1 1h3c.5522847 0 1-.4477153 1-1v-2c0-.5522847-.4477153-1-1-1z" fill="#ffc9cc"/><path id="Rectangle-path" d="m37 16h18v16h-18z" fill="#ffe7e8"/><path id="Rectangle-path" d="m39 6h12v6h-12z" fill="#ffe0e2"/><path id="Shape" d="m53 2v2c-.0032948 1.10320187-.8967981 1.9967052-2 2h-12c-1.1032019-.0032948-1.9967052-.89679813-2-2v-2c0-.55228475.4477153-1 1-1h14c.5522847 0 1 .44771525 1 1z" fill="#ffe7e8"/><path id="Shape" d="m52 1h-3c.5522847 0 1 .44771525 1 1v2c-.0032948 1.10320187-.8967981 1.9967052-2 2h3c1.1032019-.0032948 1.9967052-.89679813 2-2v-2c0-.55228475-.4477153-1-1-1z" fill="#ffc9cc"/><path id="Rectangle-path" d="m23 19h14v10h-14z" fill="#ffe0e2"/><path id="Shape" d="m12 12v-6c-1.1032019-.0032948-1.9967052-.89679813-2-2v-2c0-.55228475.4477153-1 1-1h-3c-.55228475 0-1 .44771525-1 1v2c.0032948 1.10320187.89679813 1.9967052 2 2v6z" fill="#fff"/><path id="Shape" d="m1 58c0 .5522847.44771525 1 1 1h3c-.55228475 0-1-.4477153-1-1v-4c0-.5522847.44771525-1 1-1h1l3-17h-2c-.55228475 0-1-.4477153-1-1v-2c0-.5522847.44771525-1 1-1h1v-16h-1c-.55228475 0-1-.4477153-1-1v-2c0-.5522847.44771525-1 1-1h-3c-.55228475 0-1 .4477153-1 1v2c0 .5522847.44771525 1 1 1h1v16h-1c-.55228475 0-1 .4477153-1 1v2c0 .5522847.44771525 1 1 1h2l-3 17h-1c-.55228475 0-1 .4477153-1 1z" fill="#fff"/><path id="Rectangle-path" d="m-.304 48.06h8v2h-8z" fill="#fff" transform="matrix(.174 -.985 .985 .174 -45.26 44.174)"/><g fill="#ff414c"><path id="Shape" d="m4.68 49.235c.09592591-.5438241-.26711464-1.0624609-.81092269-1.1584776-.54380806-.0960167-1.06250548.2669372-1.15861303.8107292-.09610754.543792.26675977 1.06255.81053572 1.1587484.26124674.0462167.53015175-.0132745.74752311-.1653782.21737135-.1521037.36539112-.3843519.41147689-.6456218z"/><path id="Shape" d="m15 19h-4c-.5522847 0-1 .4477153-1 1s.4477153 1 1 1h4c.5522847 0 1-.4477153 1-1s-.4477153-1-1-1z"/><path id="Shape" d="m58 52h-.161l-2.647-15h.808c1.1045695 0 2-.8954305 2-2v-2c0-1.1045695-.8954305-2-2-2v-14c1.1045695 0 2-.8954305 2-2v-2c0-1.1045695-.8954305-2-2-2h-4v-4.184c1.1943509-.42225455 1.9947486-1.54921457 2-2.816v-2c0-1.1045695-.8954305-2-2-2h-14c-1.1045695 0-2 .8954305-2 2v2c.0052514 1.26678543.8056491 2.39374545 2 2.816v4.184h-2c-1.1045695 0-2 .8954305-2 2v2c0 1.1045695.8954305 2 2 2v1h-12v-1c1.1045695 0 2-.8954305 2-2v-2c0-1.1045695-.8954305-2-2-2h-2v-4.184c1.1943509-.42225455 1.9947486-1.54921457 2-2.816v-2c0-1.1045695-.8954305-2-2-2h-14c-1.1045695 0-2 .8954305-2 2v2c.00525139 1.26678543.80564913 2.39374545 2 2.816v4.184h-4c-1.1045695 0-2 .8954305-2 2v2c0 1.1045695.8954305 2 2 2v14c-1.1045695 0-2 .8954305-2 2v2c0 1.1045695.8954305 2 2 2h.808l-1.4 7.948c-.07092816.3555032.05609205.7215532.33198064.9567102.27588858.2351569.65743719.3025916.99721726.1762476s.58457688-.4266793.6398021-.7849578l1.462-8.296h12.322l2.647 15h-19.808c-1.1045695 0-2 .8954305-2 2v4c0 1.1045695.8954305 2 2 2h22c1.1045695 0 2-.8954305 2-2v-4c0-1.1045695-.8954305-2-2-2h-.161l-2.647-15h2.808c1.1045695 0 2-.8954305 2-2v-2c0-1.1045695-.8954305-2-2-2v-1h12v1c-1.1045695 0-2 .8954305-2 2v2c0 1.1045695.8954305 2 2 2h2.808l-2.647 15h-.161c-1.1045695 0-2 .8954305-2 2v4c0 1.1045695.8954305 2 2 2h22c1.1045695 0 2-.8954305 2-2v-4c0-1.1045695-.8954305-2-2-2zm-34 6h-22v-4h22zm14-56h14v2c0 .55228475-.4477153 1-1 1h-12c-.5522847 0-1-.44771525-1-1zm2 5h10v4h-10zm-4 6h20v2h-20zm-28-11h14v2c0 .55228475-.4477153 1-1 1h-12c-.55228475 0-1-.44771525-1-1zm2 5h10v4h-10zm-6 6h20v2h-20zm20 22h-20v-2h20zm-18-4v-6h6c.5522847 0 1-.4477153 1-1s-.4477153-1-1-1h-6v-2h1c.55228475 0 1-.4477153 1-1s-.44771525-1-1-1h-1v-2h16v14zm18-3v-8h12v8zm14 1v-12h16v2h-1c-.5522847 0-1 .4477153-1 1s.4477153 1 1 1h1v2h-6c-.5522847 0-1 .4477153-1 1s.4477153 1 1 1h6v6h-16zm-2 4h20v2h-20zm4.839 4h12.322l2.647 15h-17.616zm17.161 21h-22v-4h22z"/><path id="Shape" d="m50 20c0-.5522847-.4477153-1-1-1h-4c-.5522847 0-1 .4477153-1 1s.4477153 1 1 1h4c.5522847 0 1-.4477153 1-1z"/><path id="Shape" d="m28 22c-.5522847 0-1 .4477153-1 1v1c0 .5522847.4477153 1 1 1s1-.4477153 1-1v-1c0-.5522847-.4477153-1-1-1z"/><path id="Shape" d="m32 22c-.5522847 0-1 .4477153-1 1v1c0 .5522847.4477153 1 1 1s1-.4477153 1-1v-1c0-.5522847-.4477153-1-1-1z"/><path id="Shape" d="m8.205 46.9-.2 2c-.02793741.2647015.0508068.5296188.21879401.7360835.16798722.2064647.4113545.3374387.67620599.3639165.035 0 .068.005.1.005.5131825-.0005068.94268198-.3893896.994-.9l.2-2c.0552285-.5495233-.34547667-1.0397715-.895-1.095s-1.03977153.3454767-1.095.895z"/><path id="Shape" d="m9.6 43.96c.5154781.0025832.948458-.3870987 1-.9l.4-3.96c.0552285-.5495233-.3454767-1.0397715-.895-1.095-.54952332-.0552284-1.03977151.3454767-1.095.895l-.4 3.96c-.02647378.2646777.05359441.5289965.22249411.7344911.16889971.2054947.4127114.3352298.67750589.3605089.028.003.061.005.09.005z"/><path id="Shape" d="m51.8 46.9c-.0552285-.5495233-.5454767-.9502284-1.095-.895-.5495233.0552285-.9502284.5454767-.895 1.095l.2 2c.0511593.5090925.4783498.8974475.99.9.033 0 .066 0 .1-.005.2647945-.0252791.5086062-.1550142.6775059-.3605089.1688997-.2054946.2489679-.4698134.2224941-.7344911z"/><path id="Shape" d="m50.5 43.955c.2647945-.0252791.5086062-.1550142.6775059-.3605089.1688997-.2054946.2489679-.4698134.2224941-.7344911l-.4-3.96c-.0552285-.5495233-.5454767-.9502284-1.095-.895-.5495233.0552285-.9502284.5454767-.895 1.095l.4 3.96c.0513565.510991.4814347.9000065.995.9.024 0 .057-.002.095-.005z"/></g></g></g></svg>