<svg height="512" viewBox="0 0 60 60" width="512" xmlns="http://www.w3.org/2000/svg"><g id="Page-1" fill="none" fill-rule="evenodd"><g id="070---Alert" fill-rule="nonzero"><path id="Shape" d="m1.735 49.044 22.113-44.244c1.1652962-2.32874548 3.5459703-3.79956129 6.15-3.79956129s4.9847038 1.47081581 6.15 3.79956129l22.117 44.244c1.0657548 2.1322274.9518595 4.6641899-.3010316 6.6921176-1.2528911 2.0279278-3.4662264 3.2628175-5.8499684 3.2638824h-44.228c-2.38374198-.0010649-4.5970773-1.2359546-5.84996837-3.2638824-1.25289108-2.0279277-1.36678638-4.5598902-.30103163-6.6921176z" fill="#ffe0e2"/><path id="Shape" d="m58.265 49.044-22.114-44.244c-1.4041519-2.83323712-4.5692827-4.33244426-7.651-3.624 1.9.415 3.494 2.812 4.5 4.824l22 43c1.1204833 2.0891698 1.0703998 4.6114325-.1321351 6.6544751s-3.383437 3.3111054-5.7538649 3.3455249h3c2.3839712-.0005045 4.5977239-1.2352859 5.8507354-3.2634085 1.2530114-2.0281226 1.3666231-4.5604099.3002646-6.6925915z" fill="#ff9ea1"/><path id="Shape" d="m19.725 22-14.412 28.833c-.44636877.8923284-.39890506 1.9521514.12544187 2.8010067.52434694.8488554 1.45081316 1.3657092 2.44855813 1.3659933h44.226c.998033-.0001107 1.9248137-.5170995 2.4492208-1.3662561.5244072-.8491566.5716234-1.9093314.1247792-2.8017439l-22.114-44.241c-.4869218-.97503287-1.4831459-1.59106926-2.573-1.59106926s-2.0860782.61603639-2.573 1.59106926l-2.704 5.409-1.5 3z" fill="#ffe7e8"/><path id="Shape" d="m54.687 50.832-22.114-44.241c-.4738835-.98683833-1.4784101-1.60798163-2.573-1.591-.5274816.00242618-1.0449532.1442134-1.5.411.4652032.28013637.8382121.69034191 1.073 1.18l22.114 44.241c.4468442.8924125.399628 1.9525873-.1247792 2.8017439-.5244071.8491566-1.4511878 1.3661454-2.4492208 1.3662561h3c.998033-.0001107 1.9248137-.5170995 2.4492208-1.3662561.5244072-.8491566.5716234-1.9093314.1247792-2.8017439z" fill="#ffc9cc"/><path id="Shape" d="m32.381 36-.3 3.095c-.0489536.5129712-.4796983.9047541-.995.905h-2.177c-.5153017-.0002459-.9460464-.3920288-.995-.905l-1.81-19c-.0267741-.2805574.066083-.5593875.2557206-.7678747.1896376-.2084871.4584474-.3272726.7402794-.3271253h5.8c.2825276-.0012781.5524119.1170164.7429362.3256405.1905243.208624.2839071.4881071.2570638.7693595l-.948 9.905z" fill="#ffe0e2"/><circle id="Oval" cx="30" cy="47" fill="#ffe0e2" r="3"/><path id="Shape" d="m23.849 4.8-22.114 44.244c-1.06635847 2.1321816-.95274683 4.6644689.30026462 6.6925915 1.25301146 2.0281226 3.46676418 3.262904 5.85073538 3.2634085h3c-2.3839712-.0005045-4.59772392-1.2352859-5.85073538-3.2634085-1.25301145-2.0281226-1.36662309-4.5604099-.30026462-6.6925915l22.114-44.244c.911845-1.85030808 2.6167741-3.18458446 4.632-3.625-3.0748788-.69020772-6.2240981.80558894-7.632 3.625z" fill="#fff"/><path id="Rectangle-path" d="m-.476 44.466h8v2h-8z" fill="#fff" transform="matrix(.447 -.894 .894 .447 -38.72 28.291)"/><g fill="#ff414c"><path id="Shape" d="m2.629 45.019c-.18075069.3618788-.12568449.7970098.13951637 1.1024531.26520086.3054432.68829712.4210324 1.07196159.2928582.38366447-.1281743.65232293-.4748643.6806762-.8783778s-.18918369-.7843665-.55115416-.9649335c-.49402935-.2464439-1.09430544-.0459042-1.341.448z"/><path id="Shape" d="m2.183 48.149c-.23771708-.118453-.51279125-.1374736-.76454934-.0528663-.25175809.0846072-.45951677.2658913-.57745066.5038663-1.21987127 2.4419904-1.08884286 5.3414054.34631975 7.6634113 1.4351626 2.3220059 3.96995454 3.7357264 6.69968025 3.7365887h44.226c2.7297257-.0008623 5.2645176-1.4145828 6.6996803-3.7365887 1.4351626-2.3220059 1.566191-5.2214209.3463197-7.6634113l-22.113-44.245c-1.3340636-2.66925817-4.0619315-4.35549279-7.046-4.35549279s-5.7119364 1.68623462-7.046 4.35549279l-18.537 37.086c-.24168236.4932118-.04034254 1.0890358.45097055 1.334555.49131308.2455193 1.08868827.0488295 1.33802945-.440555l18.537-37.084c.9953374-1.99153002 3.0305929-3.24962869 5.257-3.24962869s4.2616626 1.25809867 5.257 3.24962869l22.113 44.24c.9114998 1.8222792.8144616 3.9865897-.256459 5.7199859-1.0709207 1.7333961-2.9630099 2.7886947-5.000541 2.7890141h-44.226c-2.03753111-.0003194-3.92962034-1.055618-5.00054096-2.7890141-1.07092061-1.7333962-1.16795879-3.8977067-.25645904-5.7199859.11873726-.2372273.13834699-.5119133.05451326-.763602-.08383373-.2516888-.26424012-.4597524-.50151326-.578398z"/><path id="Shape" d="m25.17 11.105c-.2373497-.1186659-.5121326-.1381283-.7638386-.0541012-.251706.084027-.4596935.2646527-.5781614.5021012l-1.5 3c-.1630317.319984-.1419628.7028178.055198 1.0029789.1971608.3001612.5401342.471552.8985495.4490237.3584154-.0225284.6772285-.2355161.8352525-.5580026l1.5-3c.1187373-.2372273.138347-.5119133.0545133-.763602-.0838338-.2516888-.2642402-.4597524-.5015133-.578398z"/><path id="Shape" d="m20.619 22.447c.1630317-.319984.1419628-.7028178-.055198-1.0029789-.1971608-.3001612-.5401342-.471552-.8985495-.4490237-.3584154.0225284-.6772285.2355161-.8352525.5580026l-14.411 28.833c-.60122752 1.2022309-.53719036 2.6300306.16924743 3.7736124.70643778 1.1435818 1.95456751 1.8399185 3.29875257 1.8403876h26.113c.5522847 0 1-.4477153 1-1s-.4477153-1-1-1h-26.113c-.65089769-.0010049-1.25496547-.3386228-1.59686057-.8924969s-.37296718-1.2451904-.08213943-1.8275031z"/><path id="Shape" d="m40 54c-.5522847 0-1 .4477153-1 1s.4477153 1 1 1h4c.5522847 0 1-.4477153 1-1s-.4477153-1-1-1z"/><path id="Shape" d="m52.113 54h-3.113c-.5522847 0-1 .4477153-1 1s.4477153 1 1 1h3.113c1.344473-.0002958 2.5929171-.6967675 3.2994151-1.8406506.706498-1.143883.7702878-2.5720343.1685849-3.7743494l-22.113-44.241c-.6566113-1.31380186-1.9992544-2.14376459-3.468-2.14376459s-2.8113887.82996273-3.468 2.14376459c-.2416824.4932118-.0403425 1.08903579.4509705 1.33455502.4913131.24551923 1.0886883.04882951 1.3380295-.44055502.3178851-.63607371.9679158-1.03790048 1.679-1.03790048s1.3611149.40182677 1.679 1.03790048l22.113 44.241c.2913024.582397.2604774 1.2740645-.0814778 1.8282396-.3419551.554175-.9463367.891928-1.5975222.8927604z"/><path id="Shape" d="m25.109 20.189 1.81 19c.0928902 1.0285985.9572242 1.8151858 1.99 1.811h2.182c1.0327758.0041858 1.8971098-.7824015 1.99-1.811l.295-3.094c.0521958-.5494401-.3506097-1.0372823-.9-1.09-.2647022-.0292475-.5299672.0499346-.7353246.2194957-.2053574.1695612-.333305.4150501-.3546754.6805043l-.295 3.095h-2.182l-1.809-19h5.8l-.943 9.905c-.0521958.5494401.3506097 1.0372823.9 1.09.2648703.0301115.5306009-.0487536.7361613-.2184824.2055605-.1697288.3332849-.4157348.3538387-.6815176l.944-9.906c.0532317-.5607776-.1324863-1.1180033-.511506-1.5347156-.3790198-.4167124-.9161955-.6542704-1.479494-.6542844h-5.8c-.5632985.000014-1.1004742.237572-1.479494.6542844-.3790197.4167123-.5647377.973938-.511506 1.5347156z"/><path id="Shape" d="m30 43c-2.209139 0-4 1.790861-4 4s1.790861 4 4 4 4-1.790861 4-4-1.790861-4-4-4zm0 6c-1.1045695 0-2-.8954305-2-2s.8954305-2 2-2 2 .8954305 2 2-.8954305 2-2 2z"/></g></g></g></svg>