<svg height="512" viewBox="0 0 60 60" width="512" xmlns="http://www.w3.org/2000/svg"><g id="Page-1" fill="none" fill-rule="evenodd"><g id="071---Eye" fill-rule="nonzero" transform="translate(-1)"><path id="Shape" d="m43.42 46.66c-3.8071476 2.1058815-8.0701246 3.252286-12.42 3.34-11.86 0-22.15-9.69-27.32-15.58-2.24018228-2.520896-2.24018228-6.319104 0-8.84 2.89648033-3.3312662 6.14544809-6.3388245 9.69-8.97z" fill="#ffe7e8"/><path id="Shape" d="m58.32 34.42c-2.8964803 3.3312662-6.1454481 6.3388245-9.69 8.97l-17.38-17.38-5.61-5.61-2.91-2.91-4.15-4.15c3.8066614-2.1070846 8.0699418-3.2535707 12.42-3.34 11.86 0 22.15 9.69 27.32 15.58 2.2401823 2.520896 2.2401823 6.319104 0 8.84z" fill="#ffe7e8"/><path id="Shape" d="m58.32 25.58c-5.17-5.89-15.46-15.58-27.32-15.58-.508 0-1.011.022-1.513.056 11.229.759 20.881 9.882 25.833 15.524 2.2401823 2.520896 2.2401823 6.319104 0 8.84-2.4334995 2.7857955-5.1071182 5.3523356-7.99 7.67l1.3 1.3c3.5445519-2.6311755 6.7935197-5.6387338 9.69-8.97 2.2401823-2.520896 2.2401823-6.319104 0-8.84z" fill="#ffc9cc"/><circle id="Oval" cx="31" cy="30" fill="#ffe0e2" r="15"/><path id="Shape" d="m31 15c-.506 0-1.007.027-1.5.076 7.6612948.774165 13.491947 7.2236903 13.491947 14.924s-5.8306522 14.149835-13.491947 14.924c.493.049.994.076 1.5.076 8.2842712 0 15-6.7157288 15-15s-6.7157288-15-15-15z" fill="#ff9ea1"/><path id="Shape" d="m59.12 58.12c-.5617198.5632738-1.3245087.8798486-2.12.8798486s-1.5582802-.3165748-2.12-.8798486l-52-52c-1.10143544-1.18203902-1.0689355-3.02403889.0735128-4.1664872 1.14244831-1.1424483 2.98444818-1.17494824 4.1664872-.0735128l11.46 11.46 4.15 4.15 2.91 2.91 5.61 5.61 27.87 27.87c1.1698135 1.1712702 1.1698135 3.0687298 0 4.24z" fill="#ffe7e8"/><path id="Shape" d="m31 50c.507 0 1.011-.022 1.512-.057-11.228-.758-20.88-9.881-25.832-15.523-2.24018228-2.520896-2.24018228-6.319104 0-8.84 2.89648033-3.3312662 6.1454481-6.3388245 9.69-8.97l-10.49-10.49c-.66769192-.65176703-.98898114-1.58020526-.86695296-2.50525762.12202819-.92505237.67308687-1.73841492 1.48695296-2.19474238-1.29886007-.75233367-2.95412866-.42584943-3.87004661.7633258-.91591795 1.18917524-.80896981 2.8729413.25004661 3.9366742l10.49 10.49c-3.54455191 2.6311755-6.79351967 5.6387338-9.69 8.97-2.24018228 2.520896-2.24018228 6.319104 0 8.84 5.17 5.89 15.46 15.58 27.32 15.58z" fill="#fff"/><path id="Shape" d="m9.974 39.351-1.33 1.493c-2.01885887-1.8053259-3.92761937-3.7301152-5.716-5.764l1.5-1.32c1.73497702 1.9731016 3.58698319 3.8401349 5.546 5.591z" fill="#fff"/><g fill="#ff414c"><path id="Shape" d="m9.974 39.351c-.41355354-.3606867-1.03932567-.3256258-1.41.079-.18009878.1966288-.27317069.4576489-.25810889.7238661.01506179.2662173.13698103.5150738.33810889.6901339 1.5386026 1.3830573 3.1602921 2.670791 4.856 3.856.834.617 1.732 1.146 2.6 1.711.913.5 1.8 1.057 2.748 1.491 3.7614686 1.9457115 7.9181054 3.005394 12.152 3.098 2.7927985-.0194593 5.5632828-.4992261 8.2-1.42.5075292-.1890143.7723514-.7477123.597354-1.2602435s-.7262079-.7926049-1.243354-.6317565c-2.4287768.8495383-4.9810048 1.2928165-7.554 1.312-3.9234275-.0924826-7.7739455-1.0795669-11.258-2.886-.9-.407-1.738-.938-2.605-1.413-.832-.541-1.687-1.042-2.487-1.634-1.6328191-1.1423771-3.1943892-2.3833511-4.676-3.716z"/><path id="Shape" d="m6.424 38.349c-.55228473.0027614-1.00223852-.4427153-1.00499994-.995-.00276143-.5522847.44271521-1.0022385.99499994-1.005h.01c.55228475 0 1 .4477153 1 1s-.44771525 1-1 1z"/><path id="Shape" d="m31 9c-4.2614406.07428575-8.4463596 1.1448305-12.22 3.126l-10.953-10.953c-1.57485649-1.47784521-4.038467-1.43870976-5.56558838.08841162s-1.56625683 3.99073189-.08841162 5.56558838l9.689 9.689c-3.24825823 2.500128-6.24086937 5.3158756-8.934 8.406-2.57618831 2.8952231-2.57618831 7.2607769 0 10.156.231813.2805434.59773419.4130029.95541018.3458481.357676-.0671549.65063151-.3233206.76489883-.6688418.11426731-.3455211.03180416-.7258416-.21530901-.9930063-1.90749923-2.1445422-1.90749923-5.3774578 0-7.522 2.66277546-3.0595904 5.6296951-5.840554 8.855-8.3l40.88 40.88c.7494754.7537528 1.7685529 1.1775681 2.8315 1.1775681s2.0820246-.4238153 2.8315-1.1775681c1.5581984-1.5614252 1.5581984-4.0895748 0-5.651l-9.689-9.689c3.2482582-2.500128 6.2408694-5.3158756 8.934-8.406 2.5764719-2.8958784 2.5764719-7.2621216 0-10.158-5.224-5.941-15.811-15.916-28.076-15.916zm27.413 48.413-.006.006c-.7896702.7541583-2.0335461.7515118-2.82-.006l-52-52c-.7262072-.78901967-.70090294-2.01037471.05736118-2.76863882.75826411-.75826412 1.97961915-.78356838 2.76863882-.05736118l52 52c.7794319.7807702.7794319 2.0452298 0 2.826zm-.845-23.653c-2.6627755 3.0595904-5.6296951 5.840554-8.855 8.3l-28.441-28.442c3.336234-1.6611899 7.0015911-2.5556628 10.728-2.618 11.477 0 21.572 9.548 26.567 15.238 1.9077844 2.1442886 1.9082142 5.3772042.001 7.522z"/><path id="Shape" d="m31 14c-1.4880433-.0013702-2.9689959.2049534-4.4.613-.5312979.1516022-.8391022.7052021-.6875 1.2365s.7052021.8391022 1.2365.6875c4.8468756-1.3823625 10.0627287-.0545087 13.6585769 3.4772055s5.0173442 8.7228286 3.7224231 13.5937945c-.0990438.3474118-.0030122.7212339.2512123.9778941.2542246.2566603.6271141.3562519.9754544.2605251.3483404-.0957268.6179699-.3718878.7053333-.7224192 1.277572-4.8032633.2517146-9.9274731-2.7764939-13.868727-3.0282085-3.9412538-7.7152425-6.2524488-12.6855061-6.255273z"/><path id="Shape" d="m16.763 25.169c-.5334961-.1424065-1.0814441.1745438-1.224.708-1.4721115 5.5172147.1077094 11.4008005 4.1454545 15.4385455 4.037745 4.0377451 9.9213308 5.617566 15.4385455 4.1454545.3505314-.0873634.6266924-.3569929.7224192-.7053333.0957268-.3483403-.0038648-.7212298-.2605251-.9754544-.2566602-.2542245-.6304823-.3502561-.9778941-.2512123-4.8271 1.2847866-9.9731007-.0986838-13.5052084-3.6307916-3.5321078-3.5321077-4.9155782-8.6781084-3.6307916-13.5052084.1424065-.5334961-.1745438-1.0814441-.708-1.224z"/><path id="Shape" d="m21 30c-.0001536-.6002442.0533932-1.1992987.16-1.79.0637719-.3515493-.0648498-.7104162-.3374145-.941419s-.6476634-.2990466-.984-.1785-.5828136.4113697-.6465855.762919c-.1282516.7084613-.1925105 1.4270238-.192 2.147 0 .5522847.4477153 1 1 1s1-.4477153 1-1z"/><path id="Shape" d="m31 18c-.7203897-.000341-1.4393288.0645911-2.148.194-.5095.0922518-.8643146.5581674-.8177882 1.0738571.0465265.5156898.479004.9105745.9967882.9101429.0607455.0002968.1213722-.0053974.181-.017.5899988-.1069348 1.1883888-.1608167 1.788-.161.5522847 0 1-.4477153 1-1s-.4477153-1-1-1z"/></g></g></g></svg>