<svg height="512" viewBox="0 0 56 60" width="512" xmlns="http://www.w3.org/2000/svg" xmlns:xlink="http://www.w3.org/1999/xlink"><linearGradient id="linearGradient-1" x1="-11.388%" x2="111.388%" y1="10.617%" y2="89.381%"><stop offset="0" stop-color="#f6d8da"/><stop offset=".172" stop-color="#f6d8da"/><stop offset=".2" stop-color="#f6d8da"/><stop offset=".2" stop-color="#dae2f2"/><stop offset=".201" stop-color="#ebeaf2"/><stop offset=".201" stop-color="#f6eff2"/><stop offset=".202" stop-color="#fdf2f2"/><stop offset=".205" stop-color="#fff3f2"/><stop offset=".252" stop-color="#fff3f2"/><stop offset=".26" stop-color="#fff3f2"/><stop offset=".26" stop-color="#f6d8da"/><stop offset=".397" stop-color="#f6d8da"/><stop offset=".42" stop-color="#f6d8da"/><stop offset=".42" stop-color="#dae2f2"/><stop offset=".421" stop-color="#ebeaf2"/><stop offset=".421" stop-color="#f6eff2"/><stop offset=".422" stop-color="#fdf2f2"/><stop offset=".425" stop-color="#fff3f2"/><stop offset=".489" stop-color="#fff3f2"/><stop offset=".5" stop-color="#fff3f2"/><stop offset=".5" stop-color="#f8f0f2"/><stop offset=".5" stop-color="#e7e8f2"/><stop offset=".5" stop-color="#dce3f2"/><stop offset=".5" stop-color="#f3d6d8"/><stop offset=".501" stop-color="#f6d8da"/><stop offset=".706" stop-color="#f6d8da"/><stop offset=".74" stop-color="#f6d8da"/><stop offset=".741" stop-color="#fff3f2"/><stop offset=".835" stop-color="#fff3f2"/><stop offset=".85" stop-color="#fff3f2"/><stop offset=".851" stop-color="#f6d8da"/></linearGradient><g id="Page-1" fill="none" fill-rule="evenodd"><g id="074---Mobile-Call" fill-rule="nonzero"><path id="Shape" d="m35 4v47c0 1.6568542-1.3431458 3-3 3h-28c-1.65685425 0-3-1.3431458-3-3v-47c0-1.65685425 1.34314575-3 3-3h4l2.86 3.05c.5663757.60708315 1.3597411.95123705 2.19.95h9.9c.8302589.00123705 1.6236243-.34291685 2.19-.95l2.86-3.05h4c1.6568542 0 3 1.34314575 3 3z" fill="url(#linearGradient-1)"/><path id="Shape" d="m32 1h-3c1.6568542 0 3 1.34314575 3 3v47c0 1.6568542-1.3431458 3-3 3h3c1.6568542 0 3-1.3431458 3-3v-47c0-1.65685425-1.3431458-3-3-3z" fill="#ffe0e2"/><path id="Shape" d="m35 51v5c0 1.6568542-1.3431458 3-3 3h-28c-1.65685425 0-3-1.3431458-3-3v-5c0 1.6568542 1.34314575 3 3 3h28c1.6568542 0 3-1.3431458 3-3z" fill="#ffe0e2"/><path id="Shape" d="m32 54v2c0 1.6568542-1.3431458 3-3 3h3c1.6568542 0 3-1.3431458 3-3v-5c0 1.6568542-1.3431458 3-3 3z" fill="#ff9ea1"/><path id="Shape" d="m28 1-2.86 3.05c-.5663757.60708315-1.3597411.95123705-2.19.95h-9.9c-.8302589.00123705-1.6236243-.34291685-2.19-.95l-2.86-3.05z" fill="#ffe0e2"/><path id="Shape" d="m25 1-2.86 3.05c-.5663757.60708315-1.3597411.95123705-2.19.95000332l3-.00000332c.8302589.00123705 1.6236243-.34291685 2.19-.95l2.86-3.05z" fill="#ff9ea1"/><path id="Shape" d="m29.626 43.1c-3.182 2.563-7.541 2.957-10.216 2.916-.3917561-.0064893-.743152-.2425075-.8973371-.6027046s-.0823905-.7773652.1833371-1.0652954c1.0938944-1.3279413 1.8470339-2.9028747 2.194-4.588.1661215-.7044162-.0682116-1.4431417-.61-1.923-3.2639911-2.6632957-5.1942986-6.6251789-5.28-10.837 0-8.84 8.95-16 20-16s20 7.16 20 16-8.95 16-20 16c-1.2666878-.0001811-2.531575-.0954488-3.784-.285-.5605287-.099982-1.137297.0396758-1.59.385z" fill="#ffe7e8"/><path id="Shape" d="m35 11c-.506 0-1 .031-1.5.061 10.346.615 18.5 7.504 18.5 15.939s-8.177 15.343-18.544 15.941c.511.032 1.023.059 1.544.059 11.05 0 20-7.16 20-16s-8.95-16-20-16z" fill="#ffc9cc"/><path id="Shape" d="m33.356 21.3c.2113787.2960814.2828021.6697554.1955197 1.0229224-.0872825.353167-.3245523.6505499-.6495197.8140776l-2.211 1.109c-.4831169.4875954-.4831169 1.2734046 0 1.761l5.264 5.282c.4848645.4840631 1.2701355.4840631 1.755 0l1.106-2.218c.1614117-.3254032.4574861-.5635854.8099115-.6515473.3524253-.087962.7256984-.0168425 1.0210885.1945473l3.768 2.7c.2970972.213101.4857038.5458513.5159236.9102213.0302198.3643701-.1009922.7236452-.3589236.9827787l-1.6 1.6c-1.3939931 1.4004439-3.2885294 2.1877496-5.2645 2.1877496s-3.8705069-.7873057-5.2645-2.1877496l-5.262-5.277c-2.9077476-2.9210638-2.9077476-7.6429362 0-10.564l1.6-1.6c.257608-.2588626.6162976-.3908906.9802582-.3608175.3639606.030073.6961155.2191835.9077418.5168175z" fill="#ffe7e8"/><path id="Shape" d="m1 4v52c0 1.6568542 1.34314575 3 3 3h3c-1.65685425 0-3-1.3431458-3-3v-52c0-1.65685425 1.34314575-3 3-3h-3c-1.65685425 0-3 1.34314575-3 3z" fill="#fff"/><path id="Rectangle-path" d="m0 37h2v8h-2z" fill="#fff"/><g fill="#ff414c"><circle id="Oval" cx="1" cy="41" r="1"/><path id="Shape" d="m4 0c-2.209139 0-4 1.790861-4 4v33c0 .5522847.44771525 1 1 1s1-.4477153 1-1v-33c0-1.1045695.8954305-2 2-2h3.567l2.564 2.735c.7571716.80580401 1.8132755 1.26348524 2.919 1.265h9.9c1.1057245-.00151476 2.1618284-.45919599 2.919-1.265l2.564-2.735h3.567c1.1045695 0 2 .8954305 2 2v6.041c-11.114.427-20 7.859-20 16.959.0838817 4.5006815 2.1401083 8.7374442 5.624 11.588.2615723.238271.373356.5996537.292.944-.3096388 1.5271159-.9887768 2.955091-1.978 4.159-.5219683.5934427-.6490323 1.4371476-.325 2.158.315386.7052701 1.0144311 1.1606079 1.787 1.164h.379c3.09 0 7.288-.57 10.479-3.142.2366299-.164817.5300246-.2265273.813-.171 1.3003222.1981087 2.6136741.2983901 3.929.3 11.58 0 21-7.626 21-17 0-9.1-8.886-16.532-20-16.959v-6.041c0-2.209139-1.790861-4-4-4zm50 27c0 8.271-8.523 15-19 15-1.2164437-.0003211-2.4311615-.0915754-3.634-.273-.8363587-.1438969-1.6947183.0697861-2.366.589-3.011 2.426-7.284 2.73-9.545 2.68 1.2018051-1.4505434 2.0299435-3.1734284 2.412-5.018.2496596-1.0644461-.1084028-2.1797853-.931-2.9-3.04308-2.4733722-4.8475064-6.1575312-4.936-10.078 0-8.271 8.523-15 19-15s19 6.729 19 15zm-28.308-25-1.282 1.368c-.378896.40269492-.907076.63133176-1.46.632h-9.9c-.5527743.00000995-1.0809024-.22876112-1.459-.632l-1.282-1.368z"/><path id="Shape" d="m36 56v-9c0-.5522847-.4477153-1-1-1s-1 .4477153-1 1v4c0 1.1045695-.8954305 2-2 2h-28c-1.1045695 0-2-.8954305-2-2v-6c0-.5522847-.44771525-1-1-1s-1 .4477153-1 1v11c0 2.209139 1.790861 4 4 4h28c2.209139 0 4-1.790861 4-4zm-4 2h-28c-1.1045695 0-2-.8954305-2-2v-1.556c.60534654.3599241 1.29574677.5518554 2 .556h28c.7042532-.0041446 1.3946535-.1960759 2-.556v1.556c0 1.1045695-.8954305 2-2 2z"/><path id="Shape" d="m43.512 17.956c4.063 2.07 6.488 5.451 6.488 9.044 0 .5522847.4477153 1 1 1s1-.4477153 1-1c0-4.36-2.833-8.407-7.58-10.825-.3195472-.1751414-.7090678-.1625992-1.016686.0327363-.3076182.1953356-.4846313.5425386-.4620211.9062332.0226101.3636945.2412638.6862997.5707071.8420305z"/><path id="Shape" d="m5 11c.55228475 0 1-.4477153 1-1v-2c0-.55228475-.44771525-1-1-1s-1 .44771525-1 1v2c0 .5522847.44771525 1 1 1z"/><path id="Shape" d="m4 30c0 .5522847.44771525 1 1 1s1-.4477153 1-1v-16c0-.5522847-.44771525-1-1-1s-1 .4477153-1 1z"/><path id="Shape" d="m31.344 25.039 2.007-1.006c.5854361-.2949816 1.012943-.8308176 1.1705358-1.4671462.1575927-.6363287.0295688-1.309747-.3505358-1.8438538l-2.692-3.781c-.38238-.5380737-.9830597-.8795935-1.641-.933-.6573158-.0596598-1.3066894.1789456-1.769.65l-1.6 1.6c-3.2890289 3.3141482-3.2890289 8.6608518 0 11.975l5.265 5.283c1.5822065 1.5881546 3.7317122 2.4808722 5.9735 2.4808722s4.3912935-.8927176 5.9735-2.4808722l1.6-1.6c.464961-.4666757.7017097-1.1138824.6476233-1.770426-.0540864-.6565437-.3935591-1.2562809-.9286233-1.640574l-3.769-2.7c-.5335138-.3818348-1.2076551-.5104579-1.8442772-.3518797s-1.1716588.5883992-1.4637228 1.1758797l-1 2.013c-.0273343.0094534-.0560777.0141876-.085.014-.0634395.0012967-.1245963-.0236727-.169-.069l-5.269-5.287c-.0669968-.0691568-.0887293-.170446-.056-.261zm5.488 7.615c.5949435.0033286 1.1663264-.2322858 1.586-.654.07651-.0755348.1397303-.1634347.187-.26l1.106-2.218c.0306449-.0641328.0887784-.1108603.158-.127.0688082-.0191046.1425807-.0054567.2.037l3.769 2.7c.0583682.0423949.095285.1081884.1010531.1800973.0057681.071909-.0201891.1427458-.0710531.1939027l-1.6 1.6c-1.2063842 1.212361-2.8461837 1.893963-4.5565 1.893963s-3.3501158-.681602-4.5565-1.893963l-5.265-5.282c-2.5147535-2.5320305-2.5147535-6.6189695 0-9.151l1.6-1.6c.0437535-.0451866.1041036-.070483.167-.07h.021c.0709258.0044853.1358393.041368.176.1l2.692 3.78c.0414555.0578373.0553543.1309888.038.2-.0159964.0697767-.0626749.1285842-.127.16l-2.211 1.108c-.0962206.0482641-.184017.1117477-.26.188-.8710722.8783174-.8710722 2.2946826 0 3.173l5.261 5.288c.4194298.4214664.9904027.6570603 1.585.654z"/></g></g></g></svg>