<svg height="512" viewBox="0 0 50 60" width="512" xmlns="http://www.w3.org/2000/svg"><g id="Page-1" fill="none" fill-rule="evenodd"><g id="076---Microphone" fill-rule="nonzero"><path id="Shape" d="m37 33v2c0 4.418278-3.581722 8-8 8h-8c-4.418278 0-8-3.581722-8-8v-2z" fill="#ffe7e8"/><path id="Shape" d="m34 33v2c0 4.418278-3.581722 8-8 8h3c4.418278 0 8-3.581722 8-8v-2z" fill="#ffc9cc"/><path id="Rectangle-path" d="m13 29h24v4h-24z" fill="#ffe0e2"/><path id="Shape" d="m37 9v20h-24v-20c0-4.418278 3.581722-8 8-8h8c4.418278 0 8 3.581722 8 8z" fill="#ffe7e8"/><path id="Shape" d="m29 1h-3c4.418278 0 8 3.581722 8 8v20h3v-20c0-4.418278-3.581722-8-8-8z" fill="#ffc9cc"/><path id="Rectangle-path" d="m23 43h4v12h-4z" fill="#ffe0e2"/><path id="Shape" d="m18 55h14c1.6568542 0 3 1.3431458 3 3 0 .5522847-.4477153 1-1 1h-18c-.5522847 0-1-.4477153-1-1 0-1.6568542 1.3431458-3 3-3z" fill="#ffe7e8"/><path id="Shape" d="m32 55h-3c1.6568542 0 3 1.3431458 3 3 0 .5522847-.4477153 1-1 1h3c.5522847 0 1-.4477153 1-1 0-1.6568542-1.3431458-3-3-3z" fill="#ffc9cc"/><rect id="Rectangle-path" fill="#ffe7e8" height="10" rx="1" width="4" x="5" y="21"/><path id="Rectangle-path" d="m9 24h4v4h-4z" fill="#ffe0e2"/><path id="Shape" d="m3 24h2v4h-2c-1.1045695 0-2-.8954305-2-2s.8954305-2 2-2z" fill="#ffe0e2"/><rect id="Rectangle-path" fill="#ffe7e8" height="10" rx="1" transform="matrix(-1 0 0 -1 86 52)" width="4" x="41" y="21"/><path id="Rectangle-path" d="m37 24h4v4h-4z" fill="#ffe0e2" transform="matrix(-1 0 0 -1 78 52)"/><path id="Shape" d="m47 24h2v4h-2c-1.1045695 0-2-.8954305-2-2s.8954305-2 2-2z" fill="#ffe0e2" transform="matrix(-1 0 0 -1 94 52)"/><path id="Shape" d="m16 59h3c-1.917 0-.976-4 2-4h-3c-2.976 0-3.917 4-2 4z" fill="#fff"/><path id="Shape" d="m24 43c-4.418278 0-8-3.581722-8-8v-26c0-4.418278 3.581722-8 8-8h-3c-4.418278 0-8 3.581722-8 8v26c0 4.418278 3.581722 8 8 8h2v12h3v-12z" fill="#fff"/><path id="Shape" d="m5 24h-2c-1.1045695 0-2 .8954305-2 2s.8954305 2 2 2h2v2c0 .5522847.44771525 1 1 1h2c.17747207-.0046248.35032982-.0575193.5-.153-.30578897-.1729639-.49630772-.4957027-.5-.847v-2h-2c-1.1045695 0-2-.8954305-2-2s.8954305-2 2-2h2v-2c.00369228-.3512973.19421103-.6740361.5-.847-.14967018-.0954807-.32252793-.1483752-.5-.153h-2c-.55228475 0-1 .4477153-1 1z" fill="#fff"/><path id="Rectangle-path" d="m12 9h2v8h-2z" fill="#fff"/><g fill="#ff414c"><circle id="Oval" cx="13" cy="13" r="1"/><circle id="Oval" cx="18" cy="8" r="1"/><circle id="Oval" cx="18" cy="12" r="1"/><circle id="Oval" cx="18" cy="16" r="1"/><circle id="Oval" cx="18" cy="20" r="1"/><circle id="Oval" cx="18" cy="24" r="1"/><circle id="Oval" cx="26" cy="8" r="1"/><circle id="Oval" cx="26" cy="12" r="1"/><circle id="Oval" cx="26" cy="16" r="1"/><circle id="Oval" cx="26" cy="20" r="1"/><circle id="Oval" cx="26" cy="24" r="1"/><circle id="Oval" cx="22" cy="6" r="1"/><circle id="Oval" cx="22" cy="10" r="1"/><circle id="Oval" cx="22" cy="14" r="1"/><circle id="Oval" cx="22" cy="18" r="1"/><circle id="Oval" cx="22" cy="22" r="1"/><path id="Shape" d="m8 20h-2c-1.1045695 0-2 .8954305-2 2v1h-1c-1.65685425 0-3 1.3431458-3 3s1.34314575 3 3 3h1v1c0 1.1045695.8954305 2 2 2v2c.00936852 8.2803876 6.7196124 14.9906315 15 15h1v5h-4c-2.209139 0-4 1.790861-4 4 0 1.1045695.8954305 2 2 2h18c1.1045695 0 2-.8954305 2-2 0-2.209139-1.790861-4-4-4h-4v-5h1c8.2803876-.0093685 14.9906315-6.7196124 15-15v-2c1.1045695 0 2-.8954305 2-2v-1h1c1.6568542 0 3-1.3431458 3-3s-1.3431458-3-3-3h-1v-1c0-1.1045695-.8954305-2-2-2h-2c-1.1045695 0-2 .8954305-2 2v1h-2v-14c-.0055111-4.96827817-4.0317218-8.99448887-9-9h-8c-4.9682782.00551113-8.9944889 4.03172183-9 9 0 .55228475.4477153 1 1 1s1-.44771525 1-1c.0049584-3.86393756 3.1360624-6.99504164 7-7h8c3.8639376.00495836 6.9950416 3.13606244 7 7v19h-14c-.5522847 0-1 .4477153-1 1s.4477153 1 1 1h14v2h-22v-2h3c.5522847 0 1-.4477153 1-1s-.4477153-1-1-1h-3v-11c0-.5522847-.4477153-1-1-1s-1 .4477153-1 1v6h-2v-1c0-1.1045695-.8954305-2-2-2zm-2 2h2v8h-2zm-3 5c-.55228475 0-1-.4477153-1-1s.44771525-1 1-1h1v2zm18 20c-7.1762751-.008266-12.99173398-5.8237249-13-13v-2c1.1045695 0 2-.8954305 2-2v-1h2v6c.0055111 4.9682782 4.0317218 8.9944889 9 9h1v3zm13 11h-18c0-1.1045695.8954305-2 2-2h14c1.1034291.0027483 1.9972517.8965709 2 2zm-10-4v-10h2v10zm18-20c-.008266 7.1762751-5.8237249 12.991734-13 13h-1v-3h1c4.9682782-.0055111 8.9944889-4.0317218 9-9v-6h2v1c0 1.1045695.8954305 2 2 2zm5-9c.5522847 0 1 .4477153 1 1s-.4477153 1-1 1h-1v-2zm-5-3h2v8h-2zm-2 3v2h-2v-2zm-4 9v1c-.0049584 3.8639376-3.1360624 6.9950416-7 7h-8c-3.8639376-.0049584-6.9950416-3.1360624-7-7v-1zm-24-9v2h-2v-2z"/></g></g></g></svg>