<svg height="512" viewBox="0 0 60 60" width="512" xmlns="http://www.w3.org/2000/svg"><g id="Page-1" fill="none" fill-rule="evenodd"><g id="079---Disk" fill-rule="nonzero"><rect id="Rectangle-path" fill="#ffe7e8" height="58" rx="4" width="58" x="1" y="1"/><path id="Shape" d="m55 1h-3c2.209139 0 4 1.790861 4 4v50c0 2.209139-1.790861 4-4 4h3c2.209139 0 4-1.790861 4-4v-50c0-2.209139-1.790861-4-4-4z" fill="#ffc9cc"/><path id="Shape" d="m49 1v16c0 2.209139-1.790861 4-4 4h-21c-2.209139 0-4-1.790861-4-4v-16z" fill="#ffe7e8"/><path id="Shape" d="m46 1v16c0 2.209139-1.790861 4-4 4h3c2.209139 0 4-1.790861 4-4v-16z" fill="#ffc9cc"/><path id="Shape" d="m24 21h-9c-2.209139 0-4-1.790861-4-4v-16h9v16c0 2.209139 1.790861 4 4 4z" fill="#ffe0e2"/><circle id="Oval" cx="30" cy="35" fill="#ffe0e2" r="10"/><path id="Shape" d="m30 25c-.5024272.0039922-1.0038421.0457768-1.5.125 4.8867805.7347638 8.5012202 4.9332896 8.5012202 9.875s-3.6144397 9.1402362-8.5012202 9.875c3.710451.5677523 7.4261819-.9912669 9.6206899-4.0365787s2.4977618-7.0634251.7851783-10.4036118c-1.7125836-3.3401866-5.152234-5.4392346-8.9058682-5.4348095z" fill="#ff9ea1"/><circle id="Oval" cx="30" cy="35" fill="#ffe7e8" r="2"/><path id="Shape" d="m50 59h-40v-5c0-1.6568542 1.3431458-3 3-3h34c1.6568542 0 3 1.3431458 3 3z" fill="#ffe0e2"/><path id="Shape" d="m38 11v-4c0-1.1045695.8954305-2 2-2h2c1.1045695 0 2 .8954305 2 2v8c0 1.1045695-.8954305 2-2 2h-2c-1.1045695 0-2-.8954305-2-2" fill="#ffe0e2"/><path id="Shape" d="m1 55c0 2.209139 1.790861 4 4 4h3c-2.209139 0-4-1.790861-4-4v-50c0-2.209139 1.790861-4 4-4h-3c-2.209139 0-4 1.790861-4 4z" fill="#fff"/><path id="Rectangle-path" d="m0 5h2v8h-2z" fill="#fff"/><g fill="#ff414c"><circle id="Oval" cx="1" cy="9" r="1"/><path id="Shape" d="m55 0h-50c-2.76005315.00330612-4.99669388 2.23994685-5 5 0 .35726559.19059892.68739261.5.8660254.30940108.1786328.69059892.1786328 1 0 .30940108-.17863279.5-.50875981.5-.8660254 0-1.65685425 1.34314575-3 3-3h5v15c.0033061 2.7600532 2.2399468 4.9966939 5 5h1c.5522847 0 1-.4477153 1-1s-.4477153-1-1-1h-1c-1.6568542 0-3-1.3431458-3-3v-15h7v15c.0033061 2.7600532 2.2399468 4.9966939 5 5h21c2.7600532-.0033061 4.9966939-2.2399468 5-5v-15h5c1.6568542 0 3 1.34314575 3 3v50c0 1.6568542-1.3431458 3-3 3h-44v-4c0-1.1045695.8954305-2 2-2h34c1.1045695 0 2 .8954305 2 2 0 .5522847.4477153 1 1 1s1-.4477153 1-1c0-2.209139-1.790861-4-4-4h-34c-2.209139 0-4 1.790861-4 4v4h-4c-1.65685425 0-3-1.3431458-3-3v-42c0-.5522847-.44771525-1-1-1s-1 .4477153-1 1v42c.00330612 2.7600532 2.23994685 4.9966939 5 5h50c2.7600532-.0033061 4.9966939-2.2399468 5-5v-50c-.0033061-2.76005315-2.2399468-4.99669388-5-5zm-7 17c0 1.6568542-1.3431458 3-3 3h-21c-1.6568542 0-3-1.3431458-3-3v-15h27z"/><path id="Shape" d="m41 35c0-6.0751322-4.9248678-11-11-11s-11 4.9248678-11 11 4.9248678 11 11 11c6.0721626-.0071635 10.9928365-4.9278374 11-11zm-20 0c0-4.9705627 4.0294373-9 9-9s9 4.0294373 9 9-4.0294373 9-9 9c-4.9682782-.0055111-8.9944889-4.0317218-9-9z"/><path id="Shape" d="m32 40.279c.1807575.3008613.5060146.4849332.857.485.1816469.0003047.3598548-.0495243.515-.144 1.0677745-.640962 1.9310707-1.5725866 2.489-2.686.1607695-.3192168.1390266-.6999548-.0570385-.9987937s-.5366654-.470378-.8935001-.4500001c-.3568346.020378-.6756919.229577-.8364614.5487938-.3887115.7750162-.9897396 1.4235578-1.733 1.87-.2279129.1367963-.3919836.3587049-.4559674.6167041s-.0226151.5308567.1149674.7582959z"/><path id="Shape" d="m33 35c0-1.6568542-1.3431458-3-3-3s-3 1.3431458-3 3 1.3431458 3 3 3 3-1.3431458 3-3zm-4 0c0-.5522847.4477153-1 1-1s1 .4477153 1 1-.4477153 1-1 1-1-.4477153-1-1z"/><circle id="Oval" cx="26" cy="31" r="1"/><path id="Shape" d="m42 16h-2c-.5522847 0-1-.4477153-1-1s-.4477153-1-1-1-1 .4477153-1 1c0 1.6568542 1.3431458 3 3 3h2c1.6568542 0 3-1.3431458 3-3v-8c0-1.65685425-1.3431458-3-3-3h-2c-1.6568542 0-3 1.34314575-3 3v4c0 .5522847.4477153 1 1 1s1-.4477153 1-1v-4c0-.55228475.4477153-1 1-1h2c.5522847 0 1 .44771525 1 1v8c0 .5522847-.4477153 1-1 1z"/><path id="Shape" d="m5 55c0 .5522847.44771525 1 1 1s1-.4477153 1-1v-1c0-.5522847-.44771525-1-1-1s-1 .4477153-1 1z"/><path id="Shape" d="m5 51c0 .5522847.44771525 1 1 1s1-.4477153 1-1v-2c0-.5522847-.44771525-1-1-1s-1 .4477153-1 1z"/><path id="Shape" d="m53 55c0 .5522847.4477153 1 1 1s1-.4477153 1-1v-1c0-.5522847-.4477153-1-1-1s-1 .4477153-1 1z"/><path id="Shape" d="m53 51c0 .5522847.4477153 1 1 1s1-.4477153 1-1v-2c0-.5522847-.4477153-1-1-1s-1 .4477153-1 1z"/><path id="Shape" d="m6 8c.55228475 0 1-.44771525 1-1v-2c0-.55228475-.44771525-1-1-1s-1 .44771525-1 1v2c0 .55228475.44771525 1 1 1z"/><path id="Shape" d="m54 8c.5522847 0 1-.44771525 1-1v-2c0-.55228475-.4477153-1-1-1s-1 .44771525-1 1v2c0 .55228475.4477153 1 1 1z"/></g></g></g></svg>