<svg height="512" viewBox="0 0 60 56" width="512" xmlns="http://www.w3.org/2000/svg"><g id="Page-1" fill="none" fill-rule="evenodd"><g id="081---Maximise-Window" fill-rule="nonzero"><path id="Shape" d="m59 11v40c0 2.209139-1.790861 4-4 4h-50c-2.209139 0-4-1.790861-4-4v-40z" fill="#ffe7e8"/><path id="Shape" d="m56 11v40c0 2.209139-1.790861 4-4 4h3c2.209139 0 4-1.790861 4-4v-40z" fill="#ffc9cc"/><path id="Shape" d="m59 5v6h-58v-6c0-2.209139 1.790861-4 4-4h50c2.209139 0 4 1.790861 4 4z" fill="#ffe0e2"/><path id="Shape" d="m55 1h-3c2.209139 0 4 1.790861 4 4v6h3v-6c0-2.209139-1.790861-4-4-4z" fill="#ff9ea1"/><path id="Shape" d="m5 55h3c-2.209139 0-4-1.790861-4-4v-46c0-2.209139 1.790861-4 4-4h-3c-2.209139 0-4 1.790861-4 4v46c0 2.209139 1.790861 4 4 4z" fill="#fff"/><path id="Rectangle-path" d="m0 43h2v8h-2z" fill="#fff"/><g fill="#ff414c"><circle id="Oval" cx="1" cy="47" r="1"/><path id="Shape" d="m55 0h-50c-2.76005315.00330612-4.99669388 2.23994685-5 5v38c0 .5522847.44771525 1 1 1s1-.4477153 1-1v-31h5c.55228475 0 1-.4477153 1-1s-.44771525-1-1-1h-5v-5c0-1.65685425 1.34314575-3 3-3h50c1.6568542 0 3 1.34314575 3 3v5h-45c-.5522847 0-1 .4477153-1 1s.4477153 1 1 1h45v39c0 1.6568542-1.3431458 3-3 3h-50c-1.65685425 0-3-1.3431458-3-3 0-.5522847-.44771525-1-1-1s-1 .4477153-1 1c.00330612 2.7600532 2.23994685 4.9966939 5 5h50c2.7600532-.0033061 4.9966939-2.2399468 5-5v-46c-.0033061-2.76005315-2.2399468-4.99669388-5-5z"/><circle id="Oval" cx="6" cy="6" r="1"/><circle id="Oval" cx="10" cy="6" r="1"/><circle id="Oval" cx="14" cy="6" r="1"/><path id="Shape" d="m39 7c.5522847 0 1-.44771525 1-1s-.4477153-1-1-1h-1c-.5522847 0-1 .44771525-1 1s.4477153 1 1 1z"/><path id="Shape" d="m54 7c.5522847 0 1-.44771525 1-1s-.4477153-1-1-1h-11c-.5522847 0-1 .44771525-1 1s.4477153 1 1 1z"/><path id="Shape" d="m47 50c-.5522847 0-1 .4477153-1 1s.4477153 1 1 1h3c.5522847 0 1-.4477153 1-1s-.4477153-1-1-1z"/><path id="Shape" d="m54 52h1c.5522847 0 1-.4477153 1-1s-.4477153-1-1-1h-1c-.5522847 0-1 .4477153-1 1s.4477153 1 1 1z"/><path id="Shape" d="m8 38c.55228475 0 1-.4477153 1-1v-3c0-.5522847-.44771525-1-1-1s-1 .4477153-1 1v3c0 .5522847.44771525 1 1 1z"/><path id="Shape" d="m7 48c0 .5522847.44771525 1 1 1h14c.5522847 0 1-.4477153 1-1s-.4477153-1-1-1h-13v-5c0-.5522847-.44771525-1-1-1s-1 .4477153-1 1z"/><path id="Shape" d="m52 28c-.5522847 0-1 .4477153-1 1v3c0 .5522847.4477153 1 1 1s1-.4477153 1-1v-3c0-.5522847-.4477153-1-1-1z"/><path id="Shape" d="m52 17h-14c-.5522847 0-1 .4477153-1 1s.4477153 1 1 1h13v5c0 .5522847.4477153 1 1 1s1-.4477153 1-1v-6c0-.5522847-.4477153-1-1-1z"/><path id="Shape" d="m12.161 44.543c.2987925.4644621.9175265.5987749 1.382.3l34-22c.4639192-.2998906.5968906-.9190808.297-1.383s-.9190808-.5968906-1.383-.297l-34 22c-.4618348.3000137-.5941677.9169713-.296 1.38z"/></g></g></g></svg>