<svg height="512" viewBox="0 0 60 60" width="512" xmlns="http://www.w3.org/2000/svg"><g id="Page-1" fill="none" fill-rule="evenodd"><g id="082---Support" fill-rule="nonzero"><path id="Shape" d="m24.61 45.07-1.85 9.9c-1.6005364-.4582647-3.1515083-1.0746336-4.63-1.84-4.8406019-2.4805715-8.77942849-6.4193981-11.26-11.26-.76536635-1.4784917-1.38173533-3.0294636-1.84-4.63l9.9-1.85c1.6199288 4.5098619 5.1701381 8.0600712 9.68 9.68z" fill="#ffe0e2"/><path id="Shape" d="m54.97 37.24c-.4582647 1.6005364-1.0746336 3.1515083-1.84 4.63-2.4805715 4.8406019-6.4193981 8.7794285-11.26 11.26-1.4784917.7653664-3.0294636 1.3817353-4.63 1.84l-1.85-9.9c4.5098619-1.6199288 8.0600712-5.1701381 9.68-9.68z" fill="#ffe0e2"/><path id="Shape" d="m45.07 35.39c-.064.178-.15.345-.219.52l7.119 1.33c-.4582647 1.6005364-1.0746336 3.1515083-1.84 4.63-2.4805715 4.8406019-6.4193981 8.7794285-11.26 11.26-.592.306-1.2.583-1.816.842l.186 1c1.6005364-.4582647 3.1515083-1.0746336 4.63-1.84 4.8409043-2.4810943 8.7797655-6.4206551 11.26-11.262.7653664-1.4784917 1.3817353-3.0294636 1.84-4.63z" fill="#ff9ea1"/><path id="Shape" d="m24.61 14.93c-4.5098619 1.6199288-8.0600712 5.1701381-9.68 9.68l-9.9-1.85c.45826467-1.6005364 1.07463365-3.1515083 1.84-4.63 2.48057151-4.8406019 6.4193981-8.77942849 11.26-11.26 1.4784917-.76536635 3.0294636-1.38173533 4.63-1.84z" fill="#ffe0e2"/><path id="Shape" d="m54.97 22.76-9.9 1.85c-1.6199288-4.5098619-5.1701381-8.0600712-9.68-9.68l1.85-9.9c1.6005364.45826467 3.1515083 1.07463365 4.63 1.84 4.8406019 2.48057151 8.7794285 6.4193981 11.26 11.26.7653664 1.4784917 1.3817353 3.0294636 1.84 4.63z" fill="#ffe0e2"/><path id="Shape" d="m53.13 18.13c-2.4805715-4.8406019-6.4193981-8.77942849-11.26-11.26-1.4784917-.76536635-3.0294636-1.38173533-4.63-1.84l-.186 1c.616.259 1.224.536 1.816.842 4.8402995 2.48004872 8.7790915 6.4181411 11.26 11.258.7653664 1.4784917 1.3817353 3.0294636 1.84 4.63l-7.119 1.33c.069.175.155.342.219.52l9.9-1.85c-.4582647-1.6005364-1.0746336-3.1515083-1.84-4.63z" fill="#ff9ea1"/><path id="Shape" d="m37.33 4.55-.09.48-1.85 9.9-.08.44c-.1829783.9441681-1.0082695 1.6270233-1.97 1.63h-6.68c-.9617305-.0029767-1.7870217-.6858319-1.97-1.63l-.08-.44-1.85-9.9-.09-.48c-.1632341-.875254.0707358-1.77779548.6386284-2.46351619.5678927-.68572071 1.4110303-1.08376831 2.3013716-1.08648381h8.78c.8903413.0027155 1.7334789.4007631 2.3013716 1.08648381.5678926.68572071.8018625 1.58826219.6386284 2.46351619z" fill="#ffe7e8"/><path id="Shape" d="m34.39 1h-3c.8903413.0027155 1.7334789.4007631 2.3013716 1.08648381.5678926.68572071.8018625 1.58826219.6386284 2.46351619l-.09.48-1.85 9.9-.08.44c-.1829783.9441681-1.0082695 1.6270233-1.97 1.63h3c.9617305-.0029767 1.7870217-.6858319 1.97-1.63l.08-.44 1.85-9.9.09-.48c.1632341-.875254-.0707358-1.77779548-.6386284-2.46351619-.5678927-.68572071-1.4110303-1.08376831-2.3013716-1.08648381z" fill="#ffc9cc"/><path id="Shape" d="m34.39 59h-8.78c-.8903413-.0027155-1.7334789-.4007631-2.3013716-1.0864838-.5678926-.6857207-.8018625-1.5882622-.6386284-2.4635162l.09-.48 1.85-9.9.08-.44c.1829783-.9441681 1.0082695-1.6270233 1.97-1.63h6.68c.9617305.0029767 1.7870217.6858319 1.97 1.63l.08.44 1.85 9.9.09.48c.1632341.875254-.0707358 1.7777955-.6386284 2.4635162-.5678927.6857207-1.4110303 1.0837683-2.3013716 1.0864838z" fill="#ffe7e8"/><path id="Shape" d="m37.33 55.45-.09-.48-1.85-9.9-.08-.44c-.1829783-.9441681-1.0082695-1.6270233-1.97-1.63h-3c.9617305.0029767 1.7870217.6858319 1.97 1.63l.08.44 1.85 9.9.09.48c.1632341.875254-.0707358 1.7777955-.6386284 2.4635162-.5678927.6857207-1.4110303 1.0837683-2.3013716 1.0864838h3c.8903413-.0027155 1.7334789-.4007631 2.3013716-1.0864838.5678926-.6857207.8018625-1.5882622.6386284-2.4635162z" fill="#ffc9cc"/><path id="Shape" d="m17 26.66v6.68c-.0029767.9617305-.6858319 1.7870217-1.63 1.97l-.44.08-9.9 1.85-.48.09c-.875254.1632341-1.77779548-.0707358-2.46351619-.6386284-.68572071-.5678927-1.08376831-1.4110303-1.08648381-2.3013716v-8.78c.0027155-.8903413.4007631-1.7334789 1.08648381-2.3013716.68572071-.5678926 1.58826219-.8018625 2.46351619-.6386284l.48.09 9.9 1.85.44.08c.9441681.1829783 1.6270233 1.0082695 1.63 1.97z" fill="#ffe7e8"/><path id="Shape" d="m15.37 24.69-.44-.08-9.9-1.85-.48-.09c-.60475512-.1128371-1.22966374-.0334559-1.787.227l9.167 1.713.44.08c.9441681.1829783 1.6270233 1.0082695 1.63 1.97v6.68c-.0029767.9617305-.6858319 1.7870217-1.63 1.97l-.44.08-9.167 1.71c.55733626.2604559 1.18224488.3398371 1.787.227l.48-.09 9.9-1.85.44-.08c.943065-.1827588 1.6255941-1.0063997 1.63-1.967v-6.68c-.0029767-.9617305-.6858319-1.7870217-1.63-1.97z" fill="#ffc9cc"/><path id="Shape" d="m59 25.61v8.78c-.0027155.8903413-.4007631 1.7334789-1.0864838 2.3013716-.6857207.5678926-1.5882622.8018625-2.4635162.6386284l-.48-.09-9.9-1.85-.44-.08c-.9441681-.1829783-1.6270233-1.0082695-1.63-1.97v-6.68c.0029767-.9617305.6858319-1.7870217 1.63-1.97l.44-.08 9.9-1.85.48-.09c.875254-.1632341 1.7777955.0707358 2.4635162.6386284.6857207.5678927 1.0837683 1.4110303 1.0864838 2.3013716z" fill="#ffe7e8"/><path id="Shape" d="m55.45 22.67-.48.09-.733.137c1.0696648.4793975 1.7594173 1.540826 1.763 2.713v8.78c-.004759 1.1710856-.6943227 2.2310502-1.763 2.71l.733.137.48.09c.8747397.1631415 1.7767651-.0704515 2.4623679-.6376671.6856028-.5672157 1.084029-1.4095173 1.0876321-2.2993329v-8.78c-.0027155-.8903413-.4007631-1.7334789-1.0864838-2.3013716-.6857207-.5678926-1.5882622-.8018625-2.4635162-.6386284z" fill="#ffc9cc"/><g fill="#ffe7e8"><path id="Shape" d="m18.13 6.87c-4.8406019 2.48057151-8.77942849 6.4193981-11.26 11.26-2.32313566-1.9406158-3.35088194-5.0269536-2.65496775-7.9729088.69591419-2.94595526 2.99610369-5.24614476 5.94205895-5.94205895 2.9459552-.69591419 6.032293.33183209 7.9729088 2.65496775z"/><path id="Shape" d="m56 12c.0028561 2.3685318-1.0490764 4.6153422-2.87 6.13-2.4805715-4.8406019-6.4193981-8.77942849-11.26-11.26 2.1570114-2.58311813 5.7007851-3.53873473 8.8640533-2.39028706 3.1632681 1.14844768 5.2685492 4.15499499 5.2659467 7.52028706z"/><path id="Shape" d="m18.13 53.13c-1.9406158 2.3231357-5.0269536 3.3508819-7.9729088 2.6549678-2.94595526-.6959142-5.24614476-2.9961037-5.94205895-5.942059-.69591419-2.9459552.33183209-6.032293 2.65496775-7.9729088 2.48057151 4.8406019 6.4193981 8.7794285 11.26 11.26z"/><path id="Shape" d="m56 48c.0026025 3.3652921-2.1026786 6.3718394-5.2659467 7.5202871-3.1632682 1.1484476-6.7070419.192831-8.8640533-2.3902871 4.8406019-2.4805715 8.7794285-6.4193981 11.26-11.26 1.8209236 1.5146578 2.8728561 3.7614682 2.87 6.13z"/></g><path id="Shape" d="m3.965 37.374c.35934589.0023251.71743043-.0427297 1.065-.134.45826467 1.6005364 1.07463365 3.1515083 1.84 4.63-2.80473977 2.3406561-3.66536403 6.2851612-2.09049366 9.5813741 1.57487038 3.2962129 5.18431338 5.1050015 8.76749366 4.3936259-3.0467594-.5545935-5.49709898-2.8226523-6.28509326-5.8175448-.78799428-2.9948926.22881072-6.1752011 2.60809326-8.1574552-.76536635-1.4784917-1.38173533-3.0294636-1.84-4.63-.34756957.0912703-.70565411.1363251-1.065.134-1.63560467-.022268-2.95317997-1.3482865-2.965-2.984v-8.78c.00905516-1.5485754 1.19531279-2.8357819 2.738-2.971.43439065-.0310204.87092292.0098623 1.292.121.45826467-1.6005364 1.07463365-3.1515083 1.84-4.63-2.35617488-1.9840989-3.36547998-5.1437681-2.59583393-8.1263598.76964605-2.98259176 3.18180393-5.25936587 6.20383393-5.8556402-3.5826809-.70103544-7.18407524 1.11945573-8.74395463 4.42003589-1.5598794 3.30058021-.68013845 7.23889011 2.13595463 9.56196411-.76536635 1.4784917-1.38173533 3.0294636-1.84 4.63-.42107708-.1111377-.85760935-.1520204-1.292-.121-1.54268721.1352181-2.72894484 1.4224246-2.738 2.971v8.78c.01182003 1.6357135 1.32939533 2.961732 2.965 2.984z" fill="#fff"/><path id="Shape" d="m7.141 4.43 1.081 1.683c-.98468949.63639759-1.79732696 1.50570674-2.366 2.531-.55212091 1.03314143-.84582516 2.1846268-.856 3.356h-2c.0101797-1.5070374.38775608-2.98885313 1.1-4.317.73004652-1.31840982 1.77470275-2.43589312 3.041-3.253z" fill="#fff"/><path id="Shape" d="m41.022 50.035c.1757209-.0006154.3481773-.0475236.5-.136 1.497859-.8703329 2.8929775-1.9065246 4.159-3.089.403444-.3772105.4247105-1.010056.0475-1.4135s-1.010056-.4247105-1.4135-.0475c-1.156941 1.0800618-2.4316082 2.0266699-3.8 2.822-.389849.2271763-.5792744.6872829-.4623741 1.1230875.1169004.4358045.5111659.7393417.9623741.7409125z" fill="#ff414c"/><path id="Shape" d="m47.884 42.837c.222074.145361.4928262.196474.7526103.1420787.2597842-.0543952.4872869-.2098359.6323897-.4320787.2186667-.3333333.429-.6746667.631-1.024.1970594-.3099891.2083077-.703062.0292979-1.0238128-.1790099-.3207509-.5194594-.5175425-.886748-.5125711s-.702287.2109055-.8725499.5363839c-.184.316-.3756667.627-.575.933-.3001831.4614143-.1710107 1.0786705.289 1.381z" fill="#ff414c"/><path id="Shape" d="m55.662 21.653c-.3649746-1.1251941-.8049608-2.2246585-1.317-3.291 2.3075069-2.2624317 3.2224782-5.5896596 2.3962658-8.71384882-.8262125-3.1241892-3.2663514-5.56413603-6.3906056-6.39010265s-6.4514101.08926659-8.7136602 2.39695147c-1.066-.51203624-2.1651316-.95202299-3.29-1.317.1055955-1.11411383-.264661-2.22095406-1.0193669-3.04728272s-1.8235351-1.29514562-2.9426331-1.29071728h-8.77c-1.1191989-.00474047-2.1882198.46398308-2.9429946 1.29038715-.7547747.82640406-1.1249209 1.93342681-1.0190054 3.04761285-1.1248684.36497701-2.224.80496376-3.29 1.317-2.9809913-3.00930924-7.661956-3.52028605-11.222-1.225-.24234749.13949304-.41147331.37809743-.46283093.65296651s.02020213.55844411.19583093.77603349c.3275069.40166493.89677266.50893014 1.348.254 2.5711317-1.6604224 5.9255444-1.44485987 8.263.531-4.0752609 2.37528252-7.46571748 5.7657391-9.841 9.841-1.06061418-1.2538499-1.64302747-2.8427329-1.644-4.485 0-.5522847-.44771525-1-1-1s-1 .4477153-1 1c.00023188 2.3900608.95620167 4.6807877 2.655 6.362-.51203916 1.0663415-.95202539 2.1658059-1.317 3.291-1.11411383-.1055955-2.22095406.264661-3.04728272 1.0193669s-1.29514562 1.8235351-1.29071728 2.9426331v8.77c-.00397164 1.1198919.4650011 2.1894235 1.29142392 2.9452005.82642281.755777 1.93349466 1.1275635 3.04857608 1.0237995.36448788 1.1228104.80380534 2.2199348 1.315 3.284-2.30750685 2.2624317-3.22247823 5.5896596-2.39626575 8.7138488s3.26635132 5.564136 6.39060553 6.3901027c3.12425422.8259666 6.45141012-.0892666 8.71366022-2.3969515 1.0670806.5121995 2.1671984.9525139 3.293 1.318-.1061142 1.1127749.2628955 2.2185823 1.0159994 3.0446348s1.8201818 1.2954378 2.9380006 1.2923652h8.78c1.1177177.0027612 2.1846043-.4667172 2.9376396-1.2926944s1.1221552-1.9316026 1.0163604-3.0443056c1.1258016-.3654861 2.2259194-.8058005 3.293-1.318 2.2622501 2.3076849 5.589406 3.2229181 8.7136602 2.3969515 3.1242542-.8259667 5.5643931-3.2659135 6.3906056-6.3901027.8262124-3.1241892-.0887589-6.4514171-2.3962658-8.7138488.5111947-1.0640652.9505121-2.1611896 1.315-3.284 1.1150091.1034456 2.2218993-.2684506 3.0482472-1.0241591s1.2954137-1.8250495 1.2917528-2.9448409v-8.77c.0047405-1.1191989-.4639831-2.1882198-1.2903871-2.9429946-.8264041-.7547747-1.9334269-1.1249209-3.0476129-1.0190054zm-9.985 1.827c-1.7161738-4.1471688-5.0108312-7.4418262-9.158-9.158l1.5-7.989c7.3566073 2.51504799 13.134952 8.2933927 15.65 15.65zm2.323-18.48c2.7136606.00714685 5.1786956 1.58205796 6.3256224 4.04144075 1.1469268 2.45938275.7690741 5.36006725-.9696224 7.44355925-2.3752825-4.0752609-5.7657391-7.46571748-9.841-9.841 1.2537616-1.06076601 2.8427022-1.6432004 4.485-1.644zm-22.385-3h8.77c.5948922-.00004388 1.1589276.26474052 1.5389311.72244569.3800036.45770517.5365291 1.06081917.4270689 1.64555431l-2.028 10.816c-.088569.4731349-.5016465.8160355-.983.816h-6.68c-.4813535.0000355-.894431-.3428651-.983-.816l-2.028-10.816c-.1094602-.58473514.0470653-1.18784914.4270689-1.64555431.3800035-.45770517.9440389-.72248957 1.5389311-.72244569zm-3.633 4.333 1.729 9.22c.2661308 1.4190073 1.5052524 2.4471967 2.949 2.447h6.68c1.1554581-.0020571 2.2064598-.6692485 2.7-1.714 3.431586 1.5039352 6.1715119 4.244218 7.675 7.676-1.0441539.4933224-1.7115014 1.5431788-1.715 2.698v6.68c.0026249 1.1621252.6779443 2.2176041 1.732 2.707-1.014939 2.3014355-2.5918856 4.3109592-4.586 5.844-.2933078.2143423-.4473039.5708914-.4022646.9313682s.2820288.6681747.6190579.8037604.7210796.0777302 1.0032067-.1511286c2.3532434-1.8120898 4.1903092-4.2094469 5.328-6.953l7.975 1.5c-2.5149661 7.3591128-8.2938517 13.1402136-15.652 15.658l-1.725-9.239c-.2725094-1.4155846-1.5104252-2.4392134-2.952-2.441h-6.68c-1.154662.0038186-2.2046536.6699799-2.7 1.713-3.4312548-1.5035697-6.1708774-4.2435493-7.674-7.675 1.0437641-.4936107 1.7106847-1.5434074 1.714-2.698v-6.68c-.0026505-1.1613022-.6770514-2.2161744-1.73-2.706.9363863-2.1197149 2.3498006-3.9944567 4.13-5.478.27438-.2288286.4058389-.5866549.3448575-.9386893-.0609814-.3520343-.3051386-.6447942-.6405-.768-.3353614-.1232057-.7109775-.0581393-.9853575.1706893-2.109803 1.7590799-3.7630926 4.0021194-4.819 6.538l-7.972-1.5c2.51705678-7.3556654 8.2968882-13.13217387 15.654-15.645zm0 47.347c-7.3587021-2.5191519-13.13754852-8.3016904-15.652-15.662l7.993-1.5c1.714929 4.1461511 5.0082237 7.4401653 9.154 9.156zm-19.982-19.295v-8.77c0-1.1045695.8954305-2 2-2 .25406652.0159762.50649924.0517514.755.107.1.03-1.243-.234 10.432 1.957.4712027.0896967.8123476.5013365.813.981v6.68c.0001258.4810408-.3422626.8940075-.815.983l-10.816 2.028c-.58488657.1097965-1.18828878-.0465732-1.64623501-.4266164-.45794624-.3800431-.72286466-.9442806-.72276499-1.5393836zm10 20.615c-2.71366057-.0071468-5.17869559-1.582058-6.32562239-4.0414407-1.14692679-2.4593828-.76907414-5.3600673.96962239-7.4435593 2.37528252 4.0752609 5.7657391 7.4657175 9.841 9.841-1.2537616 1.060766-2.8427022 1.6432004-4.485 1.644zm22.39 3h-8.78c-.5928947-.0027338-1.1540167-.2683877-1.5319087-.7252566-.3778921-.456869-.5335985-1.0578559-.4250913-1.6407434.019-.1 1.9-10.144 2.019-10.816.0913474-.4738481.5054291-.8166809.988-.818h6.68c.4794569.0002491.8921104.3388259.986.809l2.022 10.828c.1075344.5826036-.0487626 1.1829011-.4267627 1.6390881-.378.456187-.9387984.7213116-1.5312373.7239119zm20.61-10c-.0071468 2.7136606-1.582058 5.1786956-4.0414407 6.3256224-2.4593828 1.1469268-5.3600673.7690741-7.4435593-.9696224 4.0752609-2.3752825 7.4657175-5.7657391 9.841-9.841 1.0606142 1.2538499 1.6430275 2.8427329 1.644 4.485zm3-13.615c.0003974.5952779-.2643941 1.159795-.72238 1.5400645-.4579859.3802694-1.0615614.5367644-1.64662.4269355l-10.816-2.03c-.4723673-.0889228-.814645-.5013359-.815-.982v-6.68c-.0001258-.4810408.3422626-.8940075.815-.983l10.816-2.028c.5848866-.1097965 1.1882888.0465732 1.646235.4266164.4579462.3800431.7228647.9442806.722765 1.5393836z" fill="#ff414c"/><path id="Shape" d="m4.992 9.142c-.55228474.00303756-1.00246242-.44221526-1.00549999-.9945-.00303756-.55228474.44221525-1.00246243.99449999-1.0055h.011c.55228475 0 1 .44771525 1 1s-.44771525 1-1 1z" fill="#ff414c"/></g></g></svg>