<svg height="512" viewBox="0 0 60 60" width="512" xmlns="http://www.w3.org/2000/svg"><g id="Page-1" fill="none" fill-rule="evenodd"><g id="083---Weather-Rain" fill-rule="nonzero"><path id="Shape" d="m59 37c0 4.9705627-4.0294373 9-9 9h-40c-4.48275823-.0076764-8.27645429-3.3131478-8.89773327-7.7526515-.62127898-4.4395036 2.11929164-8.6594022 6.42773327-9.8973485v-.01c-.34528542-1.2510161-.52349909-2.5422246-.53-3.84.00325767-6.6388061 4.5147282-12.427439 10.9516892-14.0520279 6.4369611-1.62458882 13.1550537 1.3298771 16.3083108 7.1720279h.01c3.3925504-2.080872 7.6452141-2.1642158 11.1166901-.2178652 3.471476 1.9463505 5.6188346 5.6179914 5.6133099 9.5978652 0 .35-.02.7-.05 1.05 4.5760866.4880559 8.0478449 4.3479611 8.05 8.95z" fill="#ffe7e8"/><path id="Shape" d="m56.67 30.96c-1.4807892-1.6445152-3.5188867-2.6813795-5.72-2.91.03-.35.05-.7.05-1.05.0043675-3.1829412-1.3720698-6.2112921-3.7729497-8.3010072-2.4008799-2.0897152-5.5901309-3.0353189-8.7420503-2.5919928 5.4551709.7299839 9.5249928 5.3892135 9.515 10.893 0 .35-.02.7-.05 1.05 4.7601485.5038636 8.2930439 4.6456064 8.0400607 9.4256578-.2529833 4.7800514-4.2033196 8.5257457-8.9900607 8.5243422h3c3.558515-.0008741 6.7823824-2.0983822 8.225023-5.3513528 1.4426406-3.2529707.8331361-7.050518-1.555023-9.6886472z" fill="#ffc9cc"/><path id="Shape" d="m7.53 28.34c1.38454694-.3839987 2.8392057-.442185 4.25-.17" fill="#ffc9cc"/><path id="Shape" d="m35.6 21.1c-.2950201-1.2128405-.7454104-2.382511-1.34-3.48" fill="#ffc9cc"/><path id="Shape" d="m50 16c.0043794 1.5536084-.3990597 3.08116-1.17 4.43-3.3947761-4.5635372-9.7108107-5.7824972-14.56-2.81h-.01c-.5871041-1.0923329-1.3131365-2.1040725-2.16-3.01.7012235-4.66838414 4.8903564-8.00160519 9.5969419-7.63612173 4.7065854.36548345 8.3309289 4.30544933 8.3030581 9.02612173z" fill="#ffe0e2"/><path id="Shape" d="m41 7c-.5084595.00169525-1.0158894.04584868-1.517.132 2.4961868.41611346 4.7015747 1.86458294 6.0750889 3.9900376 1.3735142 2.1254547 1.7880525 4.7312094 1.1419111 7.1779624.8036437.6097366 1.5202634 1.3263563 2.13 2.13.7709403-1.34884 1.1743794-2.8763916 1.17-4.43 0-4.9705627-4.0294373-9-9-9z" fill="#ff9ea1"/><path id="Shape" d="m10 46h3c-4.48275823-.0076764-8.27645429-3.3131478-8.89773327-7.7526515-.62127898-4.4395036 2.11929164-8.6594022 6.42773327-9.8973485v-.01c-1.13637501-4.1093994-.4033732-8.5107747 2.0034819-12.0300871 2.406855-3.5193124 6.2427624-5.798613 10.4845181-6.2299129-.5042725-.052945-1.0109558-.0796477-1.518-.08-4.5242968-.00354342-8.7902874 2.107517-11.53179374 5.7066026s-3.64347919 8.2725957-2.43820626 12.6333974v.01c-4.30844163 1.2379463-7.04901225 5.4578449-6.42773327 9.8973485.62127898 4.4395037 4.41497504 7.7449751 8.89773327 7.7526515z" fill="#fff"/><path id="Shape" d="m8.314 16.381 1.7 1.05c-1.30824435 2.1264583-2.00509408 4.5723524-2.014 7.069h-2c.00921364-2.8677501.80996204-5.6772904 2.314-8.119z" fill="#fff"/><g fill="#ff414c"><path id="Shape" d="m52 27.2c0-.066 0-.133 0-.2.0018538-2.3686817-.7013313-4.6843189-2.02-6.652 2.1919278-4.5184944.6878919-9.9618901-3.5129473-12.71403285-4.2008391-2.75214278-9.7919518-1.95707133-13.0590527 1.85703285-.3282641.42136553-.2674303 1.0263221.1381573 1.3738922s1.012724.3150337 1.3788427-.0738922c2.4884615-2.93541229 6.7167704-3.67802686 10.0565447-1.76622303 3.3397742 1.91180383 4.840564 5.93395533 3.5694553 9.56622303-3.6342754-3.72274-9.262398-4.6600185-13.907-2.316-2.8276311-4.5357037-7.7991002-7.28733472-13.144-7.275-2.6443012.01578717-5.2424693.69412324-7.557 1.973-2.3060548 1.2941647-4.24355887 3.1556005-5.629 5.408-.15377476.2262616-.20359755.5074266-.13693231.7727505.06666523.2653238.24347158.489546.48593231.6162495.47185924.2451974 1.05249815.0997158 1.353-.339 1.20609-1.9620311 2.8925473-3.5841277 4.9-4.713 2.0171206-1.1126052 4.2804275-1.7031825 6.584-1.718 4.9764202-.0125198 9.5534427 2.7225397 11.9 7.111.0037291.0122097.0080678.0242248.013.036l.01.011c.5311188 1.0033216.9342667 2.069312 1.2 3.173.0793481.3520146.3421895.6339783.6877745.7378117s.7203067.0134298.9805306-.236558c.2602238-.2499879.365584-.6207822.2756949-.9702537-.2350529-.9622643-.5615373-1.8998606-.975-2.8 3.0909229-1.5528769 6.7667405-1.3879365 9.7061609.4355323 2.9394203 1.8234689 4.7200526 5.0434362 4.7018391 8.5024677 0 .322-.019.641-.049.955-.0523663.5466144.3458287 1.033198.892 1.09 4.2286579.4504134 7.3659103 4.1304466 7.1415336 8.3771012-.2243766 4.2466546-3.7319562 7.5756008-7.9845336 7.5778988h-40c-3.04512917-.0072168-5.82210042-1.7425912-7.16329917-4.476462-1.34119874-2.7338709-1.01401873-5.9920985.84397284-8.4047176s4.92456024-3.5612054 7.91032633-2.9628204c.3526668.0703831.7159666-.0540191.9514672-.3258041s.3069298-.649092.1870699-.9881513c-.1198598-.3390593-.4125476-.5876485-.7665371-.6510446-1.2169496-.2275422-2.46500225-.2333014-3.684-.017-.18344954-.879564-.27693093-1.7755111-.279-2.674 0-.5522847-.44771525-1-1-1s-1 .4477153-1 1c.00338487 1.0783437.12070284 2.1533115.35 3.207-4.47431946 1.7509779-7.06839961 6.4390601-6.17524618 11.1600489.89315344 4.7209888 5.02051537 8.1374562 9.82524618 8.1329511h40c5.137531.0051632 9.4431064-3.8834846 9.9594219-8.9950079s-2.9246364-9.7826486-7.9594219-10.8049921z"/><path id="Shape" d="m7.573 21.543c-.55228474.0030376-1.00246242-.4422153-1.00549999-.9945-.00303756-.5522847.44221525-1.0024624.99449999-1.0055h.011c.55228475 0 1 .4477153 1 1s-.44771525 1-1 1z"/><path id="Shape" d="m33.924 35.925c.3789722-.3923789.3735524-1.0160848-.0121814-1.4018186s-1.0094397-.3911536-1.4018186-.0121814c-1.5904792 1.5990884-3.7546358 2.495359-6.01 2.489-.5522847 0-1 .4477153-1 1s.4477153 1 1 1c2.7860613.007796 5.4594146-1.0994994 7.424-3.075z"/><path id="Shape" d="m40 1v2c0 .55228475.4477153 1 1 1s1-.44771525 1-1v-2c0-.55228475-.4477153-1-1-1s-1 .44771525-1 1z"/><path id="Shape" d="m33 2.144c-.4782682.27615038-.6421293.88771969-.366 1.366l1 1.731c.1773616.31195078.5082732.50495322.8671183.5057421.3588451.00078889.6906021-.19075673.8693336-.50192468.1787314-.31116795.1770325-.694247-.0044519-1.00381742l-1-1.731c-.2761504-.47826816-.8877197-.64212934-1.366-.366z"/><path id="Shape" d="m54 17h2c.5522847 0 1-.4477153 1-1s-.4477153-1-1-1h-2c-.5522847 0-1 .4477153-1 1s.4477153 1 1 1z"/><path id="Shape" d="m54.856 8c-.2761504-.47826816-.8877197-.64212934-1.366-.366l-1.732 1c-.3119508.17736158-.5049532.50827321-.5057421.8671183s.1907567.6906021.5019247.8693336c.3111679.1787314.694247.1770325 1.0038174-.0044519l1.732-1c.4782682-.27615038.6421293-.88771969.366-1.366z"/><path id="Shape" d="m47.634 2.51-1 1.731c-.1814844.30957042-.1831833.69264947-.0044519 1.00381742.1787315.31116795.5104885.50271357.8693336.50192468.3588451-.00078888.6897567-.19379132.8671183-.5057421l1-1.731c.2716903-.47785996.1067416-1.08542045-.3693057-1.36027453s-1.0846885-.11393908-1.3626943.36027453z"/><path id="Shape" d="m10.833 59.554 1.33-2c.215929-.2968579.2518548-.6881585.0935898-1.0193716s-.4852766-.5490897-.8518933-.5675873c-.3666166-.0184976-.7138975.1653578-.9046965.4789589l-1.331 2c-.30596575.4600532-.1810532 1.0810342.279 1.387s1.0810342.1810532 1.387-.279z"/><path id="Shape" d="m15.168 49.445-2 3c-.306518.4595009-.1825009 1.0804819.277 1.387.4595009.306518 1.0804819.1825009 1.387-.277l2-3c.306518-.4595009.1825009-1.0804819-.277-1.387-.4595009-.306518-1.0804819-.1825009-1.387.277z"/><path id="Shape" d="m15.167 58.446c-.1979251.2976022-.2220466.6781898-.0632781.9983992.1587686.3202093.4763064.5313929.833.554.3566937.022607.698353-.146797.8962781-.4443992l1.33-2c.215929-.2968579.2518548-.6881585.0935898-1.0193716s-.4852766-.5490897-.8518933-.5675873c-.3666166-.0184976-.7138975.1653578-.9046965.4789589z"/><path id="Shape" d="m21.168 49.445-2 3c-.306518.4595009-.1825009 1.080482.277 1.387s1.080482.1825009 1.387-.277l2-3c.1982824-.297245.2229246-.6776931.0646441-.9980331-.1582805-.3203401-.4754371-.5319049-.832-.555s-.6983617.1457881-.8966441.4430331z"/><path id="Shape" d="m21.167 58.446c-.3059657.4600532-.1810532 1.0810342.279 1.387.4600532.3059657 1.0810342.1810532 1.387-.279l1.33-2c.215929-.2968579.2518548-.6881585.0935898-1.0193716s-.4852766-.5490897-.8518933-.5675873c-.3666166-.0184976-.7138975.1653578-.9046965.4789589z"/><path id="Shape" d="m27.168 49.445-2 3c-.306518.4595009-.1825009 1.080482.277 1.387s1.080482.1825009 1.387-.277l2-3c.1982824-.297245.2229246-.6776931.0646441-.9980331-.1582805-.3203401-.4754371-.5319049-.832-.555s-.6983617.1457881-.8966441.4430331z"/><path id="Shape" d="m27.167 58.446c-.3059658.4600532-.1810532 1.0810342.279 1.387s1.0810342.1810532 1.387-.279l1.33-2c.215929-.2968579.2518548-.6881585.0935898-1.0193716s-.4852766-.5490897-.8518933-.5675873c-.3666166-.0184976-.7138975.1653578-.9046965.4789589z"/><path id="Shape" d="m33.168 49.445-2 3c-.306518.4595009-.1825009 1.080482.277 1.387s1.080482.1825009 1.387-.277l2-3c.306518-.4595009.1825009-1.0804819-.277-1.387-.4595009-.306518-1.080482-.1825009-1.387.277z"/><path id="Shape" d="m33.167 58.446c-.3059657.4600532-.1810532 1.0810342.279 1.387.4600532.3059657 1.0810342.1810532 1.387-.279l1.33-2c.215929-.2968579.2518548-.6881585.0935898-1.0193716s-.4852766-.5490897-.8518933-.5675873c-.3666166-.0184976-.7138975.1653578-.9046965.4789589z"/><path id="Shape" d="m39.168 49.445-2 3c-.306518.4595009-.1825009 1.0804819.277 1.387.4595009.306518 1.080482.1825009 1.387-.277l2-3c.1982824-.297245.2229246-.6776931.0646441-.9980331-.1582805-.3203401-.4754371-.5319049-.832-.555s-.6983617.1457881-.8966441.4430331z"/><path id="Shape" d="m39.167 58.446c-.3059657.4600532-.1810532 1.0810342.279 1.387.4600532.3059657 1.0810342.1810532 1.387-.279l1.33-2c.215929-.2968579.2518548-.6881585.0935898-1.0193716s-.4852766-.5490897-.8518933-.5675873c-.3666166-.0184976-.7138975.1653578-.9046965.4789589z"/><path id="Shape" d="m44.832 53.555 2-3c.1982824-.297245.2229246-.6776931.0646441-.9980332-.1582805-.32034-.4754371-.5319049-.832-.555s-.6983617.1457882-.8966441.4430332l-2 3c-.306518.4595009-.1825009 1.080482.277 1.387s1.080482.1825009 1.387-.277z"/></g></g></g></svg>