<svg height="512" viewBox="0 0 60 60" width="512" xmlns="http://www.w3.org/2000/svg"><g id="Page-1" fill="none" fill-rule="evenodd"><g id="085---Weather-Storm" fill-rule="nonzero" transform="translate(-1)"><path id="Shape" d="m60 37c0 4.9705627-4.0294373 9-9 9h-40c-4.48275823-.0076764-8.27645429-3.3131478-8.89773327-7.7526515-.62127898-4.4395036 2.11929164-8.6594022 6.42773327-9.8973485v-.01c-.34528542-1.2510161-.52349909-2.5422246-.53-3.84.00325767-6.6388061 4.5147282-12.427439 10.9516892-14.0520279 6.4369611-1.62458882 13.1550537 1.3298771 16.3083108 7.1720279h.01c3.3927536-2.0794766 7.6446729-2.1621134 11.1156638-.2160348 3.470991 1.9460787 5.6185644 5.6167155 5.6143362 9.5960348 0 .35-.02.7-.05 1.05 4.5760866.4880559 8.0478449 4.3479611 8.05 8.95z" fill="#ffe7e8"/><path id="Shape" d="m57.67 30.96c-1.4807892-1.6445152-3.5188867-2.6813795-5.72-2.91.03-.35.05-.7.05-1.05.003192-3.1857604-1.3763001-6.216114-3.7809834-8.3057498-2.4046832-2.0896358-5.5978573-3.0328645-8.7520166-2.5852502 5.4580111.7282701 9.533757 5.3846162 9.533 10.891 0 .35-.02.7-.05 1.05 4.7601485.5038636 8.2930439 4.6456064 8.0400607 9.4256578-.2529833 4.7800514-4.2033196 8.5257457-8.9900607 8.5243422h3c3.558515-.0008741 6.7823824-2.0983822 8.225023-5.3513528 1.4426406-3.2529707.8331361-7.050518-1.555023-9.6886472z" fill="#ffc9cc"/><path id="Shape" d="m26.218 46.785-7.372 11.426c-.1342234.2038293-.1059221.4740623.0676196.6456595.1735416.1715972.4440764.196852.6463804.0603405l22.313-14.951c.1893732-.1211223.2746338-.3537336.2083937-.5685476s-.2676944-.3590137-.4923937-.3524524h-5.75c-.1988004.0081134-.3834925-.102415-.4702961-.2814474-.0868035-.1790323-.0591972-.3924933.0702961-.5435526l8.433-9.395c.1294933-.1510593.1570996-.3645203.0702961-.5435526-.0868036-.1790324-.2714957-.2895608-.4702961-.2814474h-13.458c-.1679415-.0010245-.3265432.0771647-.428.211l-9.649 13c-.1103688.1554892-.1226927.3602158-.0317733.5278219.0909195.1676061.269252.2689094.4597733.2611781h5.422c.1896749-.0077713.3673909.0925403.4587534.258943.0913625.1664028.0806112.3701913-.0277534.526057z" fill="#ffe7e8"/><path id="Shape" d="m41.589 43.045h-3c.2246993-.0065613.4261536.1376384.4923937.3524524s-.0190205.4474253-.2083937.5685476l-19.089 12.79-.938 1.455c-.1342234.2038293-.1059221.4740623.0676196.6456595.1735416.1715972.4440764.196852.6463804.0603405l22.313-14.951c.1893732-.1211223.2746338-.3537336.2083937-.5685476s-.2676944-.3590137-.4923937-.3524524z" fill="#ffc9cc"/><path id="Shape" d="m43.475 32h-3c.1988004-.0081134.3834925.102415.4702961.2814474.0868035.1790323.0591972.3924933-.0702961.5435526l-8.435 9.395c-.1294933.1510593-.1570996.3645203-.0702961.5435526.0868036.1790324.2714957.2895608.4702961.2814474h3c-.1988004.0081134-.3834925-.102415-.4702961-.2814474-.0868035-.1790323-.0591972-.3924933.0702961-.5435526l8.433-9.395c.1292045-.1507868.1569352-.3637413.0706551-.5425882-.0862801-.1788468-.2702174-.2896876-.4686551-.2824118z" fill="#ffc9cc"/><path id="Shape" d="m50.9 16c.0043794 1.5536084-.3990597 3.08116-1.17 4.43-3.3947761-4.5635372-9.7108107-5.7824972-14.56-2.81h-.01c-.5871041-1.0923329-1.3131365-2.1040725-2.16-3.01.7012235-4.66838414 4.8903564-8.00160519 9.5969419-7.63612173 4.7065854.36548345 8.3309289 4.30544933 8.3030581 9.02612173z" fill="#ffe0e2"/><path id="Shape" d="m41.9 7c-.5084595.00169525-1.0158894.04584868-1.517.132 2.4961868.41611346 4.7015747 1.86458294 6.0750889 3.9900376 1.3735142 2.1254547 1.7880525 4.7312094 1.1419111 7.1779624.8036437.6097366 1.5202634 1.3263563 2.13 2.13.7709403-1.34884 1.1743794-2.8763916 1.17-4.43 0-4.9705627-4.0294373-9-9-9z" fill="#ff9ea1"/><path id="Shape" d="m11 46h3c-4.48275823-.0076764-8.27645429-3.3131478-8.89773327-7.7526515-.62127898-4.4395036 2.11929164-8.6594022 6.42773327-9.8973485v-.01c-1.1368018-4.1101992-.4033224-8.5125395 2.0046886-12.032133 2.4080111-3.5195935 6.245495-5.7982577 10.4883114-6.227867-4.7654209-.50300529-9.4713989 1.3821613-12.5716076 5.0360574-3.10020873 3.653896-4.19378473 8.6040651-2.9213924 13.2239426v.01c-4.30844163 1.2379463-7.04901225 5.4578449-6.42773327 9.8973485.62127898 4.4395037 4.41497504 7.7449751 8.89773327 7.7526515z" fill="#fff"/><path id="Shape" d="m9.314 16.381 1.7 1.05c-1.30824435 2.1264583-2.00509408 4.5723524-2.014 7.069h-2c.00921364-2.8677501.80996204-5.6772904 2.314-8.119z" fill="#fff"/><g fill="#ff414c"><path id="Shape" d="m53 27.2c0-.066 0-.132 0-.2.0020181-2.3683948-.7011898-4.683759-2.02-6.651 2.1934442-4.5186655.6899305-9.9633418-3.5114749-12.71610911-4.2014053-2.75276731-9.7935508-1.95717782-13.0605251 1.85810911-.3282641.42136553-.2674303 1.0263221.1381573 1.3738922s1.012724.3150337 1.3788427-.0738922c2.4884615-2.93541229 6.7167704-3.67802686 10.0565447-1.76622303 3.3397742 1.91180383 4.840564 5.93395533 3.5694553 9.56622303-3.6355316-3.7216705-9.26301-4.6595161-13.909-2.318-2.8273273-4.5347655-7.7980579-7.28564996-13.142-7.273-2.6443012.01578717-5.2424693.69412324-7.557 1.973-2.3060548 1.2941647-4.2435589 3.1556005-5.629 5.408-.15377476.2262616-.20359755.5074266-.13693231.7727505.06666523.2653238.24347158.489546.48593231.6162495.4718592.2451974 1.0524981.0997158 1.353-.339 1.2058129-1.9622542 2.8923351-3.5844133 4.9-4.713 2.0171206-1.1126052 4.2804275-1.7031825 6.584-1.718 4.9866773-.0132122 9.5716978 2.7326432 11.914 7.135v.007c.5344468 1.0078389.9399648 2.0789171 1.207 3.188.0793481.3520146.3421895.6339783.6877745.7378117s.7203067.0134298.9805306-.236558c.2602238-.2499879.365584-.6207822.2756949-.9702537-.2352021-.9641593-.5616754-1.9037328-.975-2.806 3.0922996-1.5531887 6.7696218-1.3874686 9.7096801.437571 2.9400582 1.8250396 4.7201983 5.0470364 4.7003199 8.507429 0 .321-.019.643-.046.964-.0470643.5443242.3514544 1.0256636.895 1.081 4.2298063.4505408 7.367396 4.1323722 7.1413654 8.380096-.2260305 4.2477239-3.7366321 7.5757907-7.9903654 7.574904h-6c-.5522847 0-1 .4477153-1 1s.4477153 1 1 1h6c5.137531.0051632 9.4431064-3.8834846 9.9594219-8.9950079s-2.9246364-9.7826486-7.9594219-10.8049921z"/><path id="Shape" d="m5.9 30.843c1.86655184-1.5363899 4.32275-2.156768 6.695-1.691.5330804.0829257 1.0358418-.2719481 1.1362415-.8020154.1003997-.5300672-.2377601-1.0442193-.7642415-1.1619846-1.2182988-.2275017-2.4676557-.2332607-3.688-.017-.18301564-.8786185-.27649349-1.7735264-.279-2.671 0-.5522847-.44771525-1-1-1s-1 .4477153-1 1c.00389686 1.0759482.1208728 2.1485069.349 3.2-4.47500514 1.7522759-7.06917561 6.4415357-6.17589214 11.1636312.89328346 4.7220956 5.02104879 8.1397601 9.82689214 8.1363688h4c.5522847 0 1-.4477153 1-1s-.4477153-1-1-1h-4c-3.3699212-.003355-6.37639651-2.1181329-7.5185449-5.2886025s-.17503366-6.7167167 2.4185449-8.8683975z"/><path id="Shape" d="m8.573 21.543c-.55228474.0030376-1.00246242-.4422153-1.00549999-.9945-.00303756-.5522847.44221525-1.0024624.99449999-1.0055h.011c.55228475 0 1 .4477153 1 1s-.44771525 1-1 1z"/><path id="Shape" d="m41 1v2c0 .55228475.4477153 1 1 1s1-.44771525 1-1v-2c0-.55228475-.4477153-1-1-1s-1 .44771525-1 1z"/><path id="Shape" d="m34 2.144c-.4782682.27615038-.6421293.88771969-.366 1.366l1 1.731c.1773616.31195078.5082732.50495322.8671183.5057421.3588451.00078889.6906021-.19075673.8693336-.50192468.1787314-.31116795.1770325-.694247-.0044519-1.00381742l-1-1.731c-.2761504-.47826816-.8877197-.64212934-1.366-.366z"/><path id="Shape" d="m55 17h2c.5522847 0 1-.4477153 1-1s-.4477153-1-1-1h-2c-.5522847 0-1 .4477153-1 1s.4477153 1 1 1z"/><path id="Shape" d="m55.856 8c-.2761504-.47826816-.8877197-.64212934-1.366-.366l-1.731 1c-.3119508.17736158-.5049532.50827321-.5057421.8671183s.1907567.6906021.5019247.8693336c.3111679.1787314.694247.1770325 1.0038174-.0044519l1.731-1c.4782682-.27615038.6421293-.88771969.366-1.366z"/><path id="Shape" d="m48.634 2.51-1 1.731c-.1814844.30957042-.1831833.69264947-.0044519 1.00381742.1787315.31116795.5104885.50271357.8693336.50192468.3588451-.00078888.6897567-.19379132.8671183-.5057421l1-1.731c.2716903-.47785996.1067416-1.08542045-.3693057-1.36027453s-1.0846885-.11393908-1.3626943.36027453z"/><path id="Shape" d="m18.148 59.5c.2842302.3162751.6887799.4978504 1.114.5.3024147-.0022526.5983176-.0880817.855-.248l22.283-14.934c.5745581-.3425242.8466904-1.0288066.663-1.672-.1820765-.6583822-.7859871-1.1105956-1.469-1.1h-4.653l7.676-8.553c.3979257-.4341095.4979204-1.0639974.254-1.6-.2480079-.5501295-.7965576-.9027686-1.4-.9h-13.457c-.4842727-.0002361-.9403734.227629-1.231.615l-9.648 13c-.338618.4506431-.3910015 1.0548003-.135 1.557.2592768.5151824.7882652.838776 1.365.835h4.524l-6.853 10.624c-.4194684.5706624-.3723856 1.359299.112 1.876zm8.9-12.16c.3108206-.4480614.3492726-1.0309931.1-1.516-.261687-.5096164-.7881388-.8283498-1.361-.824h-4.448l8.907-12h12.127l-7.673 8.552c-.3987645.4336498-.4992068 1.0638766-.255 1.6.2480079.5501295.7965576.9027686 1.4.9h4.119l-19.002 12.722z"/></g></g></g></svg>