<svg height="512" viewBox="0 0 60 60" width="512" xmlns="http://www.w3.org/2000/svg"><g id="Page-1" fill="none" fill-rule="evenodd"><g id="086---Weather-Rain" fill-rule="nonzero" transform="translate(-1)"><path id="Shape" d="m60 28c0 4.9705627-4.0294373 9-9 9h-40c-4.48275823-.0076764-8.27645429-3.3131478-8.89773327-7.7526515-.62127898-4.4395036 2.11929164-8.6594022 6.42773327-9.8973485v-.01c-.34528542-1.2510161-.52349909-2.5422246-.53-3.84.00325767-6.63880608 4.5147282-12.42743901 10.9516892-14.05202786 6.4369611-1.62458886 13.1550537 1.32987701 16.3083108 7.17202786h.01c3.3927536-2.07947663 7.6446729-2.16211339 11.1156638-.21603477 3.470991 1.94607867 5.6185644 5.61671547 5.6143362 9.59603477 0 .35-.02.7-.05 1.05 4.5760866.4880559 8.0478449 4.3479611 8.05 8.95z" fill="#ffe7e8"/><path id="Shape" d="m57.67 21.96c-1.4807892-1.6445152-3.5188867-2.6813795-5.72-2.91.03-.35.05-.7.05-1.05.003192-3.1857604-1.3763001-6.216114-3.7809834-8.30574976-2.4046832-2.08963579-5.5978573-3.03286459-8.7520166-2.58525024 5.4580111.72827008 9.533757 5.3846162 9.533 10.891 0 .35-.02.7-.05 1.05 4.7601485.5038636 8.2930439 4.6456064 8.0400607 9.4256578-.2529833 4.7800514-4.2033196 8.5257457-8.9900607 8.5243422h3c3.558515-.0008741 6.7823824-2.0983822 8.225023-5.3513528 1.4426406-3.2529707.8331361-7.050518-1.555023-9.6886472z" fill="#ffc9cc"/><path id="Shape" d="m4.64 34.36c1.6833257 1.6926126 3.97284396 2.6429787 6.36 2.64h3c-4.48275823-.0076764-8.27645429-3.3131478-8.89773327-7.7526515-.62127898-4.4395036 2.11929164-8.6594022 6.42773327-9.8973485v-.01c-1.1349113-4.1030885-.4062067-8.4977303 1.9922739-12.01492386 2.3984805-3.51719352 6.2235535-5.80032815 10.4577261-6.24207614-.4916296-.05246411-.9855871-.08016578-1.48-.083-4.5242968-.00354342-8.7902874 2.10751695-11.5317937 5.70660259-2.74150638 3.59908561-3.64347923 8.27259571-2.4382063 12.63339741v.01c-3.06282515.8778151-5.43326835 3.3095848-6.23258246 6.3938277s.0916422 6.3612388 2.34258246 8.6161723z" fill="#fff"/><path id="Shape" d="m9.314 7.381 1.7 1.05c-1.30824435 2.1264583-2.00509408 4.5723524-2.014 7.069h-2c.00921364-2.8677501.80996204-5.67729044 2.314-8.119z" fill="#fff"/><g fill="#ff414c"><path id="Shape" d="m53 18.2c0-.066 0-.133 0-.2.0089346-4.1598809-2.1417875-8.02631181-5.680821-10.2126172-3.5390334-2.18630539-7.9591808-2.37915443-11.675179-.5093828-2.8267703-4.5369962-7.7984576-7.28988268-13.144-7.278-2.6443012.01578717-5.2424693.69412324-7.557 1.973-2.3060548 1.29416466-4.2435589 3.15560047-5.629 5.408-.15377476.22626158-.20359755.50742664-.13693231.77275045.06666523.26532382.24347158.48954606.48593231.61624955.4718592.24519736 1.0524981.09971577 1.353-.339 1.2058129-1.96225423 2.8923351-3.58441326 4.9-4.713 2.0171206-1.11260521 4.2804275-1.70318253 6.584-1.718 4.9766356-.01232282 9.5537108 2.72315272 11.9 7.112.006.011.006.024.013.035l.01.011c.5311476 1.0033086.934297 2.0693027 1.2 3.173.1295108.5370969.6699031.8675108 1.207.738s.8675108-.6699031.738-1.207c-.2351677-.9621003-.5613027-1.89965462-.974-2.8 3.090756-1.55191963 6.7658659-1.38648105 9.7046811.43686548 2.9388152 1.82334652 4.7191791 5.04267992 4.7013189 8.50113452 0 .323-.02.642-.049.958-.0505932.5458525.3477083 1.0306831.893 1.087 4.228848.4504361 7.366155 4.1307683 7.1415028 8.3776001-.2246523 4.2468317-3.7327337 7.575631-7.9855028 7.5773999h-40c-3.04512917-.0072168-5.82210042-1.7425912-7.16329917-4.476462-1.34119874-2.7338709-1.01401873-5.9920985.84397284-8.4047176s4.92456024-3.5612054 7.91032633-2.9628204c.3510134.06663.71091-.0590647.94412-.3297362.23321-.2706716.3043034-.6451985.1865-.9825001-.1178034-.3373015-.4066065-.5861337-.75762-.6527637-1.2175158-.228358-2.466312-.2344563-3.686-.018-.18317628-.879251-.2763236-1.7748725-.278-2.673 0-.5522847-.44771525-1-1-1s-1 .4477153-1 1c.00339559 1.0780127.12071383 2.1526478.35 3.206-4.47573425 1.7501097-7.07112196 6.4389776-6.1778271 11.1609587.89329485 4.7219811 5.02209633 8.1387804 9.8278271 8.1330413h40c5.137531.0051632 9.4431064-3.8834846 9.9594219-8.9950079s-2.9246364-9.7826486-7.9594219-10.8049921z"/><path id="Shape" d="m8.572 12.543c-.55228474.0027614-1.00223854-.4427153-1.00499996-.995-.00276143-.5522847.44271522-1.0022386.99499996-1.005h.01c.55228475 0 1 .4477153 1 1s-.44771525 1-1 1z"/><path id="Shape" d="m34.925 26.925c.2599566-.2510745.3642126-.6228779.2726972-.9725073-.0915155-.3496295-.3645604-.6226744-.7141899-.7141899-.3496294-.0915154-.7214328.0127406-.9725073.2726972-1.591166 1.5986743-3.7554436 2.4948458-6.011 2.489-.5522847 0-1 .4477153-1 1s.4477153 1 1 1c2.7862315.0071712 5.4596644-1.100008 7.425-3.075z"/><path id="Shape" d="m11.5 47.446-2.66 4c-.26369161.4564841-.12772408 1.039275.31074744 1.3319416.43847151.2926665 1.02883686.1946809 1.34925256-.2239416l2.66-4c.2265441-.2959794.2696772-.6933894.1119089-1.0310804s-.490252-.5596138-.8626291-.575779c-.3723772-.0161651-.7228414.1761106-.9092798.4988594z"/><path id="Shape" d="m5.832 59.555 2-3c.19828242-.297245.22292463-.6776931.06464413-.9980332-.15828049-.3203401-.47543711-.5319049-.83200002-.555s-.69836172.1457882-.89664411.4430332l-2 3c-.30651804.4595009-.18250091 1.080482.277 1.387s1.08048196.1825009 1.387-.277z"/><path id="Shape" d="m16.168 40.445-2 3c-.306518.4595009-.1825009 1.0804819.277 1.387.4595009.306518 1.0804819.1825009 1.387-.277l2-3c.1982824-.297245.2229246-.6776931.0646441-.9980331-.1582805-.3203401-.4754371-.5319049-.832-.555s-.6983617.1457881-.8966441.4430331z"/><path id="Shape" d="m19.5 47.446-2.66 4c-.2636916.4564841-.1277241 1.039275.3107474 1.3319416.4384716.2926665 1.0288369.1946809 1.3492526-.2239416l2.66-4c.2636916-.4564841.1277241-1.039275-.3107474-1.3319416-.4384716-.2926665-1.0288369-.1946809-1.3492526.2239416z"/><path id="Shape" d="m12.445 59.832c.2206502.1472282.4907558.2007572.7508787.1488077.2601229-.0519496.488948-.2051208.6361213-.4258077l2-3c.306518-.4595009.1825009-1.0804819-.277-1.387-.4595009-.306518-1.0804819-.1825009-1.387.277l-2 3c-.1472282.2206502-.2007572.4907558-.1488077.7508787.0519496.2601229.2051208.488948.4258077.6361213z"/><path id="Shape" d="m24.168 40.445-2 3c-.306518.4595009-.1825009 1.080482.277 1.387s1.080482.1825009 1.387-.277l2-3c.1982824-.297245.2229246-.6776931.0646441-.9980331-.1582805-.3203401-.4754371-.5319049-.832-.555s-.6983617.1457881-.8966441.4430331z"/><path id="Shape" d="m27.5 47.446-2.66 4c-.2636916.4564841-.1277241 1.039275.3107474 1.3319416.4384716.2926665 1.0288369.1946809 1.3492526-.2239416l2.66-4c.2636916-.4564841.1277241-1.039275-.3107474-1.3319416-.4384716-.2926665-1.0288369-.1946809-1.3492526.2239416z"/><path id="Shape" d="m20.445 59.832c.2206502.1472282.4907558.2007572.7508787.1488077.2601229-.0519496.488948-.2051208.6361213-.4258077l2-3c.306518-.4595009.1825009-1.0804819-.277-1.387-.4595009-.306518-1.080482-.1825009-1.387.277l-2 3c-.1472282.2206502-.2007572.4907558-.1488077.7508787.0519496.2601229.2051208.488948.4258077.6361213z"/><path id="Shape" d="m32.168 40.445-2 3c-.306518.4595009-.1825009 1.080482.277 1.387s1.080482.1825009 1.387-.277l2-3c.1982824-.297245.2229246-.6776931.0646441-.9980331-.1582805-.3203401-.4754371-.5319049-.832-.555s-.6983617.1457881-.8966441.4430331z"/><path id="Shape" d="m35.5 47.446-2.66 4c-.2636916.4564841-.1277241 1.039275.3107474 1.3319416.4384716.2926665 1.0288369.1946809 1.3492526-.2239416l2.66-4c.2265441-.2959794.2696772-.6933894.1119089-1.0310804s-.490252-.5596138-.8626291-.575779c-.3723772-.0161651-.7228414.1761106-.9092798.4988594z"/><path id="Shape" d="m28.445 59.832c.2206502.1472282.4907558.2007572.7508787.1488077.2601229-.0519496.488948-.2051208.6361213-.4258077l2-3c.306518-.4595009.1825009-1.0804819-.277-1.387-.4595009-.306518-1.080482-.1825009-1.387.277l-2 3c-.1472282.2206502-.2007572.4907558-.1488077.7508787.0519496.2601229.2051208.488948.4258077.6361213z"/><path id="Shape" d="m40.168 40.445-2 3c-.306518.4595009-.1825009 1.0804819.277 1.387.4595009.306518 1.080482.1825009 1.387-.277l2-3c.1982824-.297245.2229246-.6776931.0646441-.9980331-.1582805-.3203401-.4754371-.5319049-.832-.555s-.6983617.1457881-.8966441.4430331z"/><path id="Shape" d="m41.116 52.833c.2208934.147037.4911706.2002497.7513157.1479206.260145-.0523291.4888252-.2059089.6356843-.4269206l2.66-4c.215929-.2968579.2518548-.6881585.0935898-1.0193716s-.4852766-.5490897-.8518933-.5675873c-.3666166-.0184976-.7138975.1653578-.9046965.4789589l-2.66 4c-.3067861.4592264-.1832179 1.0802013.276 1.387z"/><path id="Shape" d="m36.445 59.832c.2206502.1472282.4907558.2007572.7508787.1488077.2601229-.0519496.488948-.2051208.6361213-.4258077l2-3c.1982824-.297245.2229246-.6776931.0646441-.9980332-.1582804-.3203401-.4754371-.5319049-.832-.555s-.6983617.1457882-.8966441.4430332l-2 3c-.1472282.2206502-.2007572.4907558-.1488077.7508787.0519496.2601229.2051208.488948.4258077.6361213z"/><path id="Shape" d="m47.832 44.555 2-3c.1982824-.297245.2229246-.6776931.0646441-.9980332-.1582805-.32034-.4754371-.5319049-.832-.555s-.6983617.1457882-.8966441.4430332l-2 3c-.306518.4595009-.1825009 1.0804819.277 1.387.4595009.306518 1.080482.1825009 1.387-.277z"/></g></g></g></svg>