<svg height="512" viewBox="0 0 60 53" width="512" xmlns="http://www.w3.org/2000/svg"><g id="Page-1" fill="none" fill-rule="evenodd"><g id="087---Weather-Snow" fill-rule="nonzero"><path id="Shape" d="m59 28c0 4.9705627-4.0294373 9-9 9h-40c-4.48275823-.0076764-8.27645429-3.3131478-8.89773327-7.7526515-.62127898-4.4395036 2.11929164-8.6594022 6.42773327-9.8973485v-.01c-.34528542-1.2510161-.52349909-2.5422246-.53-3.84.00325767-6.63880608 4.5147282-12.42743901 10.9516892-14.05202786 6.4369611-1.62458886 13.1550537 1.32987701 16.3083108 7.17202786h.01c3.3927536-2.07947663 7.6446729-2.16211339 11.1156638-.21603477 3.470991 1.94607867 5.6185644 5.61671547 5.6143362 9.59603477 0 .35-.02.7-.05 1.05 4.5760866.4880559 8.0478449 4.3479611 8.05 8.95z" fill="#ffe7e8"/><path id="Shape" d="m56.67 21.96c-1.4807892-1.6445152-3.5188867-2.6813795-5.72-2.91.03-.35.05-.7.05-1.05.003192-3.1857604-1.3763001-6.216114-3.7809834-8.30574976-2.4046832-2.08963579-5.5978573-3.03286459-8.7520166-2.58525024 5.4580111.72827008 9.533757 5.3846162 9.533 10.891 0 .35-.02.7-.05 1.05 4.7601485.5038636 8.2930439 4.6456064 8.0400607 9.4256578-.2529833 4.7800514-4.2033196 8.5257457-8.9900607 8.5243422h3c3.558515-.0008741 6.7823824-2.0983822 8.225023-5.3513528 1.4426406-3.2529707.8331361-7.050518-1.555023-9.6886472z" fill="#ffc9cc"/><path id="Shape" d="m10 37h3c-4.48275823-.0076764-8.27645429-3.3131478-8.89773327-7.7526515-.62127898-4.4395036 2.11929164-8.6594022 6.42773327-9.8973485v-.01c-1.13491126-4.1030885-.4062067-8.4977303 1.9922739-12.01492386 2.3984805-3.51719352 6.2235535-5.80032815 10.4577261-6.24207614-.4916296-.05246411-.9855871-.08016578-1.48-.083-4.5242968-.00354342-8.7902874 2.10751695-11.53179374 5.70660259-2.74150634 3.59908561-3.64347919 8.27259571-2.43820626 12.63339741v.01c-4.30844163 1.2379463-7.04901225 5.4578449-6.42773327 9.8973485.62127898 4.4395037 4.41497504 7.7449751 8.89773327 7.7526515z" fill="#fff"/><path id="Shape" d="m8.314 7.381 1.7 1.05c-1.30824435 2.1264583-2.00509408 4.5723524-2.014 7.069h-2c.00921364-2.8677501.80996204-5.67729044 2.314-8.119z" fill="#fff"/><g fill="#ff414c"><path id="Shape" d="m7.572 12.543c-.55228475.0027614-1.00223858-.4427153-1.005-.995s.44271525-1.0022386.995-1.005h.01c.55228475 0 1 .4477153 1 1s-.44771525 1-1 1z"/><path id="Shape" d="m52 18.2c0-.066 0-.132 0-.2.0075454-4.1596042-2.1434696-8.0253049-5.6821393-10.2116674-3.5386697-2.18636251-7.9582728-2.38030972-11.6748607-.5123326-2.8273392-4.5356394-7.7983075-7.28758081-13.143-7.276-2.6443012.01578717-5.2424693.69412324-7.557 1.973-2.3060548 1.29416466-4.24355887 3.15560047-5.629 5.408-.15377476.22626158-.20359755.50742664-.13693231.77275045.06666523.26532382.24347158.48954606.48593231.61624955.47185924.24519736 1.05249815.09971577 1.353-.339 1.2058129-1.96225423 2.8923351-3.58441326 4.9-4.713 2.0171206-1.11260521 4.2804275-1.70318253 6.584-1.718 4.9858869-.01323396 9.570328 2.7317353 11.913 7.133v.009c.5345667 1.0073255.9397728 2.0781315 1.206 3.187.1295108.5370969.6699031.8675108 1.207.738s.8675108-.6699031.738-1.207c-.2349021-.964571-.5613842-1.90450448-.975-2.807 3.0927952-1.55260916 6.770227-1.38636261 9.7103145.43897654 2.9400874 1.82533916 4.7203028 5.04744656 4.7006855 8.50802346 0 .321-.019.643-.046.964-.0470643.5443242.3514544 1.0256636.895 1.081 4.2298063.4505408 7.367396 4.1323722 7.1413654 8.380096-.2260305 4.2477239-3.7366321 7.5757907-7.9903654 7.574904h-6c-.5522847 0-1 .4477153-1 1s.4477153 1 1 1h6c5.137531.0051632 9.4431064-3.8834846 9.9594219-8.9950079s-2.9246364-9.7826486-7.9594219-10.8049921z"/><path id="Shape" d="m0 28c.00771133 5.5196502 4.48034979 9.9922887 10 10h6c.5522847 0 1-.4477153 1-1s-.4477153-1-1-1h-6c-3.3699212-.003355-6.37639651-2.1181329-7.5185449-5.2886025s-.17503366-6.7167167 2.4185449-8.8683975c1.86694328-1.5356154 4.32277333-2.1559005 6.695-1.691.3558049.0786626.7262328-.0424437.9668524-.316099.2406195-.2736552.3133352-.6565338.189795-.9993497s-.4237772-.5912939-.7836474-.6485513c-1.2185237-.2283708-2.46830579-.234469-3.689-.018-.18349496-.8782059-.27697828-1.7728312-.279-2.67 0-.5522847-.44771525-1-1-1s-1 .4477153-1 1c.00382297 1.0759523.12079976 2.1485188.349 3.2-3.83325248 1.4921048-6.35543236 5.1865878-6.349 9.3z"/><path id="Shape" d="m14.544 32.356c.0686632.2562166.2363106.4746553.466051.6072483.2297404.1325931.5027487.1684756.758949.0997517l3.7-.99 8.531 4.927-8.534 4.927-3.7-.99c-.3486122-.1036823-.7260305-.0099144-.9855847.2448642-.2595541.2547786-.3603139.6303908-.2631225.9808681.0971913.3504773.3770073.6205514.7307072.7052677l3.132.839-.839 3.132c-.1424732.5331923.1739486 1.0810004.707 1.224.0846917.0233384.1721515.0351119.26.035.4524951-.0005181.8482565-.3048238.965-.742l.99-3.7 8.537-4.924v9.854l-2.707 2.707c-.3789722.3923789-.3735524 1.0160848.0121814 1.4018186s1.0094397.3911536 1.4018186.0121814l2.293-2.293 2.293 2.293c.3923789.3789722 1.0160848.3735524 1.4018186-.0121814s.3911536-1.0094397.0121814-1.4018186l-2.707-2.707v-9.854l8.534 4.927.99 3.7c.1167435.4371762.5125049.7414819.965.742.0878485.0001119.1753083-.0116616.26-.035.5330514-.1429996.8494732-.6908077.707-1.224l-.839-3.132 3.132-.839c.3536999-.0847163.6335159-.3547904.7307072-.7052677.0971914-.3504773-.0035684-.7260895-.2631225-.9808681-.2595542-.2547786-.6369725-.3485465-.9855847-.2448642l-3.7.99-8.531-4.93 8.534-4.927 3.7.99c.0846917.0233384.1721515.0351119.26.035.5017827-.0002717.9256677-.3723675.9909573-.8698845.0652897-.4975171-.2482351-.9663838-.7329573-1.0961155l-3.132-.839.839-3.132c.1398151-.5324122-.1769484-1.0777088-.7087028-1.2200053-.5317543-.1422966-1.0785222.1719204-1.2232972.7030053l-.99 3.7-8.537 4.924v-9.854l2.707-2.707c.3789722-.3923789.3735524-1.0160848-.0121814-1.4018186s-1.0094397-.3911536-1.4018186-.0121814l-2.293 2.293-2.293-2.293c-.3923789-.3789722-1.0160848-.3735524-1.4018186.0121814s-.3911536 1.0094397-.0121814 1.4018186l2.707 2.707v9.854l-8.534-4.927-.99-3.7c-.144775-.5310849-.6915429-.8453019-1.2232972-.7030053-.5317544.1422965-.8485179.6875931-.7087028 1.2200053l.839 3.132-3.132.839c-.2566627.0686397-.4754604.2365949-.6081033.466797-.132643.2302021-.1682263.5037258-.0988967.760203z"/></g></g></g></svg>