<svg height="512" viewBox="0 0 60 45" width="512" xmlns="http://www.w3.org/2000/svg"><g id="Page-1" fill="none" fill-rule="evenodd"><g id="088---Weather-Clouds" fill-rule="nonzero" transform="translate(0 -1)"><path id="Shape" d="m45.78 45h-36.56c-4.10515782-.0122497-7.57594867-3.0426453-8.14171894-7.1086476-.56577026-4.0660024 1.94585221-7.9288302 5.89171894-9.0613524v-.01c-1.82614991-6.503333 1.53499993-13.3388713 7.8003419-15.8634808 6.2653419-2.5246096 13.4267154.0708948 16.6196581 6.0234808h.01c3.2552543-1.9823922 7.351428-1.9542881 10.5791745.0725842s5.0323817 5.7041975 4.6608255 9.4974158c3.3376686.35809 6.1254675 2.7030045 7.05 5.93.7044358 2.4853175.2064908 5.1570539-1.3459531 7.2217454-1.5524438 2.0646914-3.98086 3.2849044-6.5640469 3.2982546z" fill="#ffe7e8"/><g fill="#ffc9cc"><path id="Shape" d="m53.69 34.48c-.9245325-3.2269955-3.7123314-5.57191-7.05-5.93.3017025-3.0876001-.8368715-6.1418746-3.0860802-8.2785447s-5.3578555-3.1171079-8.4259198-2.6574553c5.2985807.7940026 9.0429153 5.6046281 8.512 10.936 3.3376686.35809 6.1254675 2.7030045 7.05 5.93.7044358 2.4853175.2064908 5.1570539-1.3459531 7.2217454-1.5524438 2.0646914-3.98086 3.2849044-6.5640469 3.2982546h3c2.5831869-.0133502 5.0116031-1.2335632 6.5640469-3.2982546 1.5524439-2.0646915 2.0503889-4.7364279 1.3459531-7.2217454z"/><path id="Shape" d="m10.85 28.66c-1.28850044-.2520115-2.61847833-.1937393-3.88.17"/><path id="Shape" d="m32.61 22.17c-.263735-1.1126283-.6739841-2.1853287-1.22-3.19"/></g><path id="Shape" d="m53.69 34.48c-.9245325-3.2269955-3.7123314-5.57191-7.05-5.93.3715562-3.7932183-1.433079-7.4705435-4.6608255-9.4974158s-7.3239202-2.0549764-10.5791745-.0725842h-.01c-1.8536699-3.4585864-5.1470997-5.9157659-8.9903939-6.7076004-3.8432942-.7918344-7.8397845.1634017-10.9096061 2.6076004.1604171-6.00187799 4.3408792-11.14386747 10.1836616-12.52595535 5.8427824-1.38208789 11.8839389 1.34201671 14.7163384 6.63595535 3.2538136-1.98917652 7.3529716-1.96613895 10.5842218.05948409 3.2312501 2.02562301 5.0382571 5.70507311 4.6657782 9.50051591 2.0127614.2078093 3.8766047 1.1557679 5.23 2.66 1.8152549 2.0293653 2.5197422 4.8199937 1.885227 7.4677974-.6345151 2.6478037-2.5273311 4.8160189-5.065227 5.8022026z" fill="#ffe0e2"/><path id="Shape" d="m56.87 21.21c-1.3533953-1.5042321-3.2172386-2.4521907-5.23-2.66.3015769-3.0869337-.8366376-6.1405472-3.0851761-8.276942-2.2485385-2.1363949-5.3563411-3.11703261-8.4238239-2.658058 5.2966721.79589321 9.0389629 5.6051482 8.509 10.935 2.0127614.2078093 3.8766047 1.1557679 5.23 2.66 1.4874678 1.6580913 2.2451748 3.8449756 2.1023968 6.067911s-1.1740298 4.2949158-2.8613968 5.749089c.2409272.4638333.4348913.9505859.579 1.453 2.5378959-.9861837 4.4307119-3.1543989 5.065227-5.8022026.6345152-2.6478037-.0699721-5.4384321-1.885227-7.4677974z" fill="#ff9ea1"/><path id="Shape" d="m9.22 45h3c-4.10515782-.0122497-7.57594867-3.0426453-8.14171894-7.1086476-.56577026-4.0660024 1.94585221-7.9288302 5.89171894-9.0613524v-.01c-1.43081293-5.1327647.3495197-10.6234365 4.52-13.94.1931107-6.5868878 5.1926539-12.03319144 11.739-12.788-3.6889618-.43821903-7.3916499.69986367-10.1976202 3.13440792s-4.4549151 5.93969938-4.5413798 9.65359208c-4.17048031 3.3165635-5.95081293 8.8072353-4.52 13.94v.01c-3.94586673 1.1325222-6.4574892 4.99535-5.89171894 9.0613524.56577027 4.0660023 4.03656112 7.0963979 8.14171894 7.1086476z" fill="#fff"/><path id="Shape" d="m7.993 17.2 1.648 1.13c-.68561067 1.0262475-1.22731899 2.1416283-1.61 3.315-.34312331 1.1860878-.52739712 2.4124502-.548 3.647h-2c.02047366-1.4349101.23474554-2.8604741.637-4.238.44289071-1.3651866 1.07324616-2.6622448 1.873-3.854z" fill="#fff"/><path id="Shape" d="m32.79 32.613c.3308601-.4366218.2488299-1.0581734-.1839764-1.3940092s-1.0552561-.2609249-1.3960236.1680092c-1.2815781 1.8199551-3.3432659 2.9326297-5.568 3.005-.5522847 0-1 .4477153-1 1s.4477153 1 1 1c2.8444492-.0651783 5.4924047-1.4650977 7.148-3.779z" fill="#ff414c"/><path id="Shape" d="m7.1 22.342c-.55228475.0027614-1.00223858-.4427153-1.005-.995s.44271525-1.0022386.995-1.005h.01c.55228475 0 1 .4477153 1 1s-.44771525 1-1 1z" fill="#ff414c"/><path id="Shape" d="m52.681 17.7c.0479494-3.839669-1.9009175-7.4289276-5.1473016-9.47986579-3.2463842-2.0509382-7.3247552-2.26945226-10.7716984-.57713421-3.2983479-5.2355529-9.6029413-7.73827511-15.5941083-6.1903629-5.9911669 1.54791221-10.2944209 6.79133866-10.6438917 12.9693629-.95663434.8163945-1.80695429 1.749697-2.531 2.778-.15828679.2243031-.21589225.5044424-.1589537.7730026.05693856.2685601.22326525.5012226.4589537.6419974.45525982.2741527 1.04491317.1507267 1.352-.283 2.2799131-3.3296066 6.0526296-5.3236713 10.088-5.332 4.5341147-.0084375 8.6992171 2.4973244 10.816 6.507.4842422.9171245.851446 1.8914072 1.093 2.9.1076408.4492646.5090209.7663177.971.767.0790988-.0001451.1579294-.0092022.235-.027.2581604-.0618831.4811195-.2238794.6197404-.4502874.138621-.2264079.181526-.4986443.1192596-.7567126-.2097684-.8637197-.4986556-1.7062796-.863-2.517 2.9456817-1.4238376 6.4309313-1.1441435 9.1118485.731233 2.6809172 1.8753766 4.138669 5.0534504 3.8111515 8.308767-.0463658.5457159.3548692 1.0271979.9 1.08 3.8105462.4351222 6.6234441 3.7620293 6.418931 7.5918815-.2045131 3.8298523-3.3557161 6.838278-7.190931 6.8651185h-36.551c-2.75693105-.0104188-5.2693732-1.5836014-6.48271715-4.0591971-1.21334396-2.4755956-.91758876-5.4251376.76312098-7.610542 1.68070974-2.1854043 4.45548315-3.2284295 7.15959617-2.6912609.3510134.06663.71091-.0590647.94412-.3297362.23321-.2706716.3043034-.6451985.1865-.9825001-.1178034-.3373015-.4066065-.5861337-.75762-.6527637-1.09465115-.20708-2.21733292-.2185912-3.316-.034-.15647268-.7729353-.23652487-1.5593895-.239-2.348 0-.5522847-.44771525-1-1-1s-1 .4477153-1 1c.00252541.9709527.10506663 1.9390625.306 2.889-4.10175336 1.6541684-6.45741375 5.9817308-5.62001193 10.3244733.83740182 4.3427424 4.6332814 7.4841165 9.05601193 7.4945267h36.551c3.6479185.022131 6.9564939-2.1363543 8.406-5.484.7671846-1.7106338.9976566-3.6136837.661-5.458 2.4616796-1.226522 4.2521536-3.482197 4.888-6.158.5883515-2.4225993.1710257-4.9801893-1.1569033-7.0901062-1.3279289-2.1099169-3.453365-3.592465-5.8920967-4.1098938zm5.106 10.73c-.4709728 1.9890881-1.7543321 3.6895935-3.538 4.688-.400063-.9426654-.953184-1.8127243-1.637-2.575-1.3000211-1.4452726-3.0251499-2.4407142-4.927-2.843.0529481-3.8367801-1.8931512-7.4250156-5.1378854-9.4732795-3.2447342-2.048264-7.3211473-2.2617869-10.7621146-.5637205-2.5982724-4.1520378-7.1540026-6.6706928-12.052-6.663-2.3105172.0165711-4.5840037.582115-6.633 1.65-.127.067-.242.153-.366.223.9944816-5.07386001 5.0734067-8.97343192 10.1868298-9.7389077s10.1554745 1.76869247 12.5921702 6.3289077c.1302826.24128397.35393.41848317.6186133.49013674.2646834.07165356.5471782.03147428.7813867-.11113674 2.9321254-1.79200651 6.6260043-1.7696384 9.5362126.05774611 2.9102084 1.82738449 4.5350711 5.14477239 4.1947874 8.56425389-.0469451.546089.3544457 1.0282038.9 1.081 2.0693578.2199263 3.9430209 1.322526 5.1400645 3.024788 1.1970437 1.702262 1.6009098 3.8384341 1.1079355 5.860212z" fill="#ff414c"/></g></g></svg>