<svg height="512" viewBox="0 0 60 60" width="512" xmlns="http://www.w3.org/2000/svg"><g id="Page-1" fill="none" fill-rule="evenodd"><g id="089---Mobile-Charge" fill-rule="nonzero"><path id="Shape" d="m33 49v4c0 3.3137085-2.6862915 6-6 6h-20c-3.3137085 0-6-2.6862915-6-6v-41c0-3.3137085 2.6862915-6 6-6h20c3.3137085 0 6 2.6862915 6 6z" fill="#ffe7e8"/><path id="Shape" d="m27 6h-3c3.3137085 0 6 2.6862915 6 6v41c0 3.3137085-2.6862915 6-6 6h3c3.3137085 0 6-2.6862915 6-6v-41c0-3.3137085-2.6862915-6-6-6z" fill="#ffc9cc"/><path id="Shape" d="m14 1h6c1.1045695 0 2 .8954305 2 2v3h-10v-3c0-1.1045695.8954305-2 2-2z" fill="#ffe0e2"/><path id="Shape" d="m28 43h6c4.4157658.0060592 7.9939408 3.5842342 8 8 .0032948 1.1032019.8967981 1.9967052 2 2h1c1.1032019-.0032948 1.9967052-.8967981 2-2v-18h6v18c-.0060592 4.4157658-3.5842342 7.9939408-8 8h-1c-4.4157658-.0060592-7.9939408-3.5842342-8-8-.0032948-1.1032019-.8967981-1.9967052-2-2h-6z" fill="#ffe7e8"/><path id="Shape" d="m50 33v18c-.0071356 4.0277281-3.0043562 7.4235792-7 7.931.3315755.0437587.6655567.0668034 1 .069h1c4.4157658-.0060592 7.9939408-3.5842342 8-8v-18z" fill="#ffc9cc"/><path id="Shape" d="m59 24v3c0 3.3137085-2.6862915 6-6 6h-6c-3.3137085 0-6-2.6862915-6-6v-3z" fill="#ffe7e8"/><path id="Shape" d="m56 24v3c0 3.3137085-2.6862915 6-6 6h3c3.3137085 0 6-2.6862915 6-6v-3z" fill="#ffc9cc"/><path id="Shape" d="m59 21v3h-18v-3c.0032948-1.1032019.8967981-1.9967052 2-2h14c1.1032019.0032948 1.9967052.8967981 2 2z" fill="#ffe7e8"/><path id="Shape" d="m57 19h-3c1.1032019.0032948 1.9967052.8967981 2 2v3h3v-3c-.0032948-1.1032019-.8967981-1.9967052-2-2z" fill="#ffc9cc"/><path id="Shape" d="m46 8c1.1045695 0 2 .8954305 2 2v9h-4v-9c0-1.1045695.8954305-2 2-2z" fill="#ffe0e2"/><path id="Shape" d="m54 8c1.1045695 0 2 .8954305 2 2v9h-4v-9c0-1.1045695.8954305-2 2-2z" fill="#ffe0e2"/><path id="Shape" d="m15.412 29h-5.233c-.3907783-.0000856-.74570447-.2277915-.90867214-.5829664s-.10411533-.7727381.15067214-1.0690336l9.625-11.187c.3017021-.3497508.8036906-.4473611 1.2144701-.2361506.4107796.2112106.6234551.6762797.5145299 1.1251506l-1.884 7.713c-.0727223.2981029-.0045589.6130906.1849045.8544565s.4792505.3823871.7860955.3825435h3.738c.4018897.0016616.7637369.2437563.918621.6146054.154884.3708491.0727076.7983888-.208621 1.0853946l-10.672 10.753c-.3352527.3415116-.8654725.3976266-1.2647844.1338566-.3993118-.2637701-.5557703-.7734785-.3732156-1.2158566z" fill="#ffe7e8"/><path id="Shape" d="m1 53c0 3.3137085 2.6862915 6 6 6h3c-3.3137085 0-6-2.6862915-6-6v-41c0-3.3137085 2.6862915-6 6-6h-3c-3.3137085 0-6 2.6862915-6 6z" fill="#fff"/><path id="Shape" d="m15 3c0-1.1045695.8954305-2 2-2h-3c-1.1045695 0-2 .8954305-2 2v3h3z" fill="#fff"/><path id="Rectangle-path" d="m0 12h2v8h-2z" fill="#fff"/><g fill="#ff414c"><circle id="Oval" cx="1" cy="16" r="1"/><path id="Shape" d="m57 18v-8c0-1.65685425-1.3431458-3-3-3s-3 1.34314575-3 3v8h-2v-8c0-1.65685425-1.3431458-3-3-3s-3 1.34314575-3 3v8c-1.6568542 0-3 1.3431458-3 3v6c.0066473 3.4756199 2.5603905 6.420937 6 6.92v17.08c0 .5522847-.4477153 1-1 1h-1c-.5522847 0-1-.4477153-1-1-.0055111-4.9682782-4.0317218-8.9944889-9-9v-30c-.0049584-3.86393756-3.1360624-6.99504164-7-7h-4v-2c0-1.65685425-1.3431458-3-3-3h-6c-1.6568542 0-3 1.34314575-3 3v2h-4c-3.86393756.00495836-6.99504164 3.13606244-7 7 0 .5522847.44771525 1 1 1s1-.4477153 1-1c.00330612-2.76005315 2.23994685-4.99669388 5-5h20c2.7600532.00330612 4.9966939 2.23994685 5 5v30h-4c-.5522847 0-1 .4477153-1 1s.4477153 1 1 1h6c3.8639376.0049584 6.9950416 3.1360624 7 7 0 1.6568542 1.3431458 3 3 3h1c1.6568542 0 3-1.3431458 3-3v-17h4v17c-.0049584 3.8639376-3.1360624 6.9950416-7 7h-1c-3.8639376-.0049584-6.9950416-3.1360624-7-7 0-1.6568542-1.3431458-3-3-3h-6c-.5522847 0-1 .4477153-1 1s.4477153 1 1 1h4v3c-.0033061 2.7600532-2.2399468 4.9966939-5 5h-20c-2.76005315-.0033061-4.99669388-2.2399468-5-5v-33c0-.5522847-.44771525-1-1-1s-1 .4477153-1 1v33c.00495836 3.8639376 3.13606244 6.9950416 7 7h20c3.8639376-.0049584 6.9950416-3.1360624 7-7v-3c.5522847 0 1 .4477153 1 1 .0055111 4.9682782 4.0317218 8.9944889 9 9h1c4.9682782-.0055111 8.9944889-4.0317218 9-9v-17.08c3.4396095-.499063 5.9933527-3.4443801 6-6.92v-6c0-1.6568542-1.3431458-3-3-3zm-44-13v-2c0-.55228475.4477153-1 1-1h6c.5522847 0 1 .44771525 1 1v2zm40 5c0-.55228475.4477153-1 1-1s1 .44771525 1 1v8h-2zm-8 0c0-.55228475.4477153-1 1-1s1 .44771525 1 1v8h-2zm8 22h-6c-2.7600532-.0033061-4.9966939-2.2399468-5-5v-2h2c.5522847 0 1-.4477153 1-1s-.4477153-1-1-1h-2v-2c0-.5522847.4477153-1 1-1h14c.5522847 0 1 .4477153 1 1v2h-9c-.5522847 0-1 .4477153-1 1s.4477153 1 1 1h9v2c-.0033061 2.7600532-2.2399468 4.9966939-5 5z"/><path id="Shape" d="m20.718 15.034c-.8204326-.4360752-1.8341648-.2379177-2.43.475l-9.625 11.191c-.50710742.5928726-.62318088 1.4265057-.29732326 2.1353588.32585763.7088531 1.03416004 1.163523 1.81432326 1.1646412h3.745l-2.848 6.993c-.3677517.8821331-.053618 1.90107.747 2.423.7938096.5346148 1.8562541.4256353 2.525-.259l10.668-10.748c.5686362-.5728354.7372086-1.4313304.4274038-2.1766548s-1.0372567-1.231374-1.8444038-1.2323452h-3.738l1.885-7.713c.231449-.8997102-.1974503-1.8387872-1.029-2.253zm2.882 11.966-10.671 10.748 3.409-8.371c.125487-.3082964.0893505-.6588226-.0963947-.9350334-.1857453-.2762108-.4967485-.4418956-.8296053-.4419666h-5.233l9.621-11.187-1.885 7.711c-.1463753.5973431-.0097825 1.2288158.3703773 1.7122649.3801597.4834492.9616083.7651099 1.5766227.7637351z"/><path id="Shape" d="m7 55h2c.55228475 0 1-.4477153 1-1s-.44771525-1-1-1h-2c-.55228475 0-1 .4477153-1 1s.44771525 1 1 1z"/><path id="Shape" d="m23 53h-10c-.5522847 0-1 .4477153-1 1s.4477153 1 1 1h10c.5522847 0 1-.4477153 1-1s-.4477153-1-1-1z"/><path id="Shape" d="m7 51h2c.55228475 0 1-.4477153 1-1s-.44771525-1-1-1h-2c-.55228475 0-1 .4477153-1 1s.44771525 1 1 1z"/><path id="Shape" d="m23 49h-10c-.5522847 0-1 .4477153-1 1s.4477153 1 1 1h10c.5522847 0 1-.4477153 1-1s-.4477153-1-1-1z"/><path id="Shape" d="m6 46c0 .5522847.44771525 1 1 1h2c.55228475 0 1-.4477153 1-1s-.44771525-1-1-1h-2c-.55228475 0-1 .4477153-1 1z"/><path id="Shape" d="m23 45h-10c-.5522847 0-1 .4477153-1 1s.4477153 1 1 1h10c.5522847 0 1-.4477153 1-1s-.4477153-1-1-1z"/></g></g></g></svg>