<svg height="512" viewBox="0 0 60 60" width="512" xmlns="http://www.w3.org/2000/svg"><g id="Page-1" fill="none" fill-rule="evenodd"><g id="090---Find" fill-rule="nonzero" transform="translate(0 -1)"><path id="Shape" d="m52 31.54v22.71c.0006921.3455018-.1770135.6668855-.4699991.8500015-.2929855.183116-.6597408.2020203-.9700009.0499985-2.9734491-1.4579264-6.2486607-2.1945064-9.56-2.15-7 0-11 3-11 3s-4-3-11-3c-3.3113393-.0445064-6.5865509.6920736-9.56 2.15-.31026015.1520218-.6770154.1331175-.97000095-.0499985-.29298554-.183116-.47069116-.5044997-.46999905-.8500015v-22.71c-.0052446-.3466557.17361609-.6701271.47-.85 3.2015329-1.8339455 6.8411337-2.7637201 10.53-2.69 7 0 11 3 11 3s4-3 11-3c3.6888663-.0737201 7.3284671.8560545 10.53 2.69.2963839.1798729.4752446.5033443.47.85z" fill="#ffe7e8"/><path id="Shape" d="m51.53 30.69c-3.2015329-1.8339455-6.8411337-2.7637201-10.53-2.69-.52 0-1.017.021-1.5.052 3.1774585.1456981 6.2738159 1.0502596 9.03 2.638.2963839.1798729.4752446.5033443.47.85v22.71c-.0020932.063999-.0104668.1276378-.025.19.621.243 1.151.488 1.585.71.3102601.1520218.6770154.1331175.9700009-.0499985.2929856-.183116.4706912-.5044997.4699991-.8500015v-22.71c.0052446-.3466557-.1736161-.6701271-.47-.85z" fill="#ffc9cc"/><path id="Shape" d="m56 35v23c-.0032948 1.1032019-.8967981 1.9967052-2 2h-48c-1.10320187-.0032948-1.9967052-.8967981-2-2v-23c.0032948-1.1032019.89679813-1.9967052 2-2h2v21.25c-.00069211.3455018.17701351.6668855.46999905.8500015.29298555.183116.6597408.2020203.97000095.0499985 2.9734491-1.4579264 6.2486607-2.1945064 9.56-2.15 7 0 11 3 11 3s4-3 11-3c3.3113393-.0445064 6.5865509.6920736 9.56 2.15.3102601.1520218.6770154.1331175.9700009-.0499985.2929856-.183116.4706912-.5044997.4699991-.8500015v-21.25h2c1.1032019.0032948 1.9967052.8967981 2 2z" fill="#ffe0e2"/><path id="Shape" d="m54 33h-2v.28c.6150891.3551046.9957131 1.0097779 1 1.72v23c-.0032948 1.1032019-.8967981 1.9967052-2 2h3c1.1032019-.0032948 1.9967052-.8967981 2-2v-23c-.0032948-1.1032019-.8967981-1.9967052-2-2z" fill="#ff9ea1"/><path id="Shape" d="m26 12c0 5.5228475-4.4771525 10-10 10s-10-4.4771525-10-10 4.4771525-10 10-10c2.6521649 0 5.195704 1.0535684 7.0710678 2.92893219 1.8753638 1.87536378 2.9289322 4.41890291 2.9289322 7.07106781z" fill="#ffe7e8"/><path id="Shape" d="m16 2c-.5024272.00399219-1.0038421.04577677-1.5.125 4.8867805.73476383 8.5012202 4.93328962 8.5012202 9.875 0 4.9417104-3.6144397 9.1402362-8.5012202 9.875 3.710451.5677523 7.4261819-.9912669 9.6206899-4.0365787s2.4977618-7.0634251.7851783-10.40361177c-1.7125836-3.34018664-5.152234-5.43923464-8.9058682-5.43480953z" fill="#ffc9cc"/><path id="Shape" d="m54 12c-.0059134 5.3212106-4.1821941 9.703657-9.4969483 9.9657733-5.3147541.2621162-9.9019915-3.6881256-10.431472-8.9829313-.5294806-5.29480565 3.1846942-10.0751887 8.44611-10.87068939 5.2614157-.79550069 10.222809 2.6731783 11.2823103 7.88784739.1333458.6583063.2003476 1.3283243.2 2z" fill="#ffe7e8"/><path id="Shape" d="m44 2c-.5024272.00399219-1.0038421.04577677-1.5.125 4.8867805.73476383 8.5012202 4.93328962 8.5012202 9.875 0 4.9417104-3.6144397 9.1402362-8.5012202 9.875 3.710451.5677523 7.4261819-.9912669 9.6206899-4.0365787s2.4977618-7.0634251.7851783-10.40361177c-1.7125836-3.34018664-5.152234-5.43923464-8.9058682-5.43480953z" fill="#ffc9cc"/><path id="Shape" d="m6 12c-.00034761.6716757.06665419 1.3416937.2 2.0000277l-3.2-.0000277c-.53059053.0028231-1.0395388-.2101411-1.41-.59-.3798589-.3704612-.59282307-.8794095-.59-1.41.0032948-1.1032019.89679813-1.9967052 2-2h3.2c-.13334581.6583063-.20034761 1.3283243-.2 2z" fill="#ffc9cc"/><path id="Shape" d="m59 12c-.0081672 1.1011688-.8988312 1.9918328-2 2h-3.2c.2666667-1.32.2666667-2.68 0-4h3.2c1.1032019.0032948 1.9967052.8967981 2 2z" fill="#ffc9cc"/><path id="Shape" d="m6 60h3c-1.10320187-.0032948-1.9967052-.8967981-2-2v-23c.0032948-1.1032019.89679813-1.9967052 2-2h2v-1.46c-.0052446-.3466557.1736161-.6701271.47-.85 2.7561841-1.5877404 5.8525415-2.4923019 9.03-2.638-.483-.031-.98-.052-1.5-.052-3.6888663-.0737201-7.3284671.8560545-10.53 2.69-.29638391.1798729-.4752446.5033443-.47.85v1.46h-2c-1.10320187.0032948-1.9967052.8967981-2 2v23c.0032948 1.1032019.89679813 1.9967052 2 2z" fill="#fff"/><path id="Shape" d="m6 10h-3c-.80631139.0033854-1.5317303.4906258-1.83983461 1.2357575s-.13862704 1.6024026.42983461 2.1742425c.3704612.3798589.87940947.5928231 1.41.59l3 .0000277c-.53059053.0027954-1.0395388-.2101688-1.41-.5900277-.56846165-.5718399-.73793892-1.4291108-.42983461-2.1742425s1.03352322-1.2323721 1.83983461-1.2357575z" fill="#fff"/><path id="Rectangle-path" d="m3 50h2v8h-2z" fill="#fff"/><g fill="#ff414c"><circle id="Oval" cx="4" cy="54" r="1"/><path id="Shape" d="m6 61h48c1.6568542 0 3-1.3431458 3-3v-23c0-1.6568542-1.3431458-3-3-3h-1v-.463c.0015981-.6908057-.3534117-1.3335285-.939-1.7-3.3600655-1.9347706-7.1845086-2.9156897-11.061-2.837-3.8529921-.0780991-7.6548947.8913861-11 2.805-3.3451053-1.9136139-7.1470079-2.8830991-11-2.805-3.8765286-.0772926-7.7006266.9050096-11.06 2.841-.5859709.3662309-.94138277 1.0089971-.94 1.7v.459h-1c-1.65685425 0-3 1.3431458-3 3v15c0 .5522847.44771525 1 1 1s1-.4477153 1-1v-15c0-.5522847.44771525-1 1-1h1v20.25c-.00102272.6947884.35861339 1.3403254.94993695 1.7051109.59132355.3647854 1.32959687.396545 1.95006305.0838891 2.8332185-1.3788762 5.9492896-2.0770816 9.1-2.039 3.6663969-.1080906 7.2834678.8657362 10.4 2.8l.006-.008c.0458492.0372711.0946798.0707166.146.1.3385406.170414.7443286.1347914 1.048-.092 3.1162942-1.9348124 6.7335335-2.9086845 10.4-2.8 3.1531411-.0387891 6.271721.6597838 9.107 2.04.6148422.3140788 1.3491666.2837348 1.936-.08.5965429-.3629843.9595995-1.0117062.957-1.71v-20.25h1c.5522847 0 1 .4477153 1 1v23c0 .5522847-.4477153 1-1 1h-48c-.55228475 0-1-.4477153-1-1s-.44771525-1-1-1-1 .4477153-1 1c0 1.6568542 1.34314575 3 3 3zm35-9c-3.4633829-.0452049-6.8888794.7245042-10 2.247v-14.247c0-.5522847-.4477153-1-1-1s-1 .4477153-1 1v14.25c-3.1102788-1.525205-6.5361921-2.2960355-10-2.25-3.4639927-.0478071-6.8903131.723115-10 2.25l-.009-21.2c0-.016.009-.029.009-.045s-.008-.03-.009-.045v-1.416c3.0419013-1.7449075 6.5030961-2.6246437 10.009-2.544 3.5010052-.0672167 6.9554349.8102084 10 2.54v3.46c0 .5522847.4477153 1 1 1s1-.4477153 1-1v-3.461c3.0450348-1.7285202 6.4992012-2.6055331 10-2.539 3.5021636-.0807149 6.9598769.7965069 10 2.537v1.463l.013 21.254c-3.1132767-1.5302673-6.5443048-2.302617-10.013-2.254z"/><path id="Shape" d="m16 5c-3.8639376.00495836-6.99504164 3.13606244-7 7 0 .5522847.44771525 1 1 1 .5522847 0 1-.4477153 1-1 .0033061-2.76005315 2.2399468-4.99669388 5-5 .5522847 0 1-.44771525 1-1s-.4477153-1-1-1z"/><path id="Shape" d="m44 5c-3.8639376.00495836-6.9950416 3.13606244-7 7 0 .5522847.4477153 1 1 1s1-.4477153 1-1c.0033061-2.76005315 2.2399468-4.99669388 5-5 .5522847 0 1-.44771525 1-1s-.4477153-1-1-1z"/><path id="Shape" d="m57 9h-2.427c-1.2994603-4.59028329-5.4133624-7.81692686-10.1810615-7.98527911-4.7676992-.16835224-9.0989434 2.76008473-10.7189385 7.24727911-2.1559265-1.68249362-5.1800735-1.68249362-7.336 0-1.6152746-4.49530609-5.950629-7.43133518-10.7243594-7.26285058s-8.89130612 3.4028524-10.1856406 8.00085058h-2.427c-1.65685425 0-3 1.3431458-3 3-.00665495.7916373.30840878 1.5520489.873 2.107.55753315.5753026 1.32588054.8978856 2.127.893h2.427c1.54371535 5.5896274 7.1666597 9.0163134 12.842081 7.8261094 5.6754213-1.1902039 9.4479277-6.5872285 8.615919-12.3261094.7574224-.94565244 1.9034113-1.49603387 3.115-1.49603387s2.3575776.55038143 3.115 1.49603387c-.788966 5.7182685 2.9808663 11.0722239 8.6304118 12.2570014 5.6495455 1.1847774 11.2527378-2.2035423 12.8275882-7.7570014h2.427c1.6534434-.0082058 2.9917942-1.3465566 3-3 0-.7956495-.3160705-1.5587112-.8786797-2.12132034-.5626091-.56260914-1.3256708-.87867966-2.1213203-.87867966zm-54 4c-.26986642.000531-.52793312-.1105861-.713-.307-.18578362-.1824558-.28938519-.4326157-.287-.693 0-.5522847.44771525-1 1-1h2.051c-.03.33-.051.662-.051 1s.021.67.051 1.0000019zm13 8c-4.9705627 0-9-4.0294373-9-9 0-4.97056275 4.0294373-9 9-9s9 4.02943725 9 9c-.0055111 4.9682782-4.0317218 8.9944889-9 9zm28 0c-4.9705627 0-9-4.0294373-9-9 0-4.97056275 4.0294373-9 9-9s9 4.02943725 9 9c-.0055111 4.9682782-4.0317218 8.9944889-9 9zm13.693-8.287c-.1824558.1857836-.4326157.2893852-.693.287h-2.051c.03-.33.051-.662.051-1s-.021-.67-.051-1h2.051c.5522847 0 1 .4477153 1 1 .000531.2698664-.1105861.5279331-.307.713z"/></g></g></g></svg>