<svg height="512" viewBox="0 0 60 60" width="512" xmlns="http://www.w3.org/2000/svg"><g id="Page-1" fill="none" fill-rule="evenodd"><g id="091---Users" fill-rule="nonzero" transform="translate(0 -1)"><path id="Shape" d="m28 20c0 1.6568542-1.3431458 3-3 3-.1882886.0003363-.3760566-.0197817-.56-.06-.9467521 2.9442877-3.1687681 5.3058682-6.05 6.43-2.181952.8399727-4.598048.8399727-6.78 0-2.88123195-1.1241318-5.10324785-3.4857123-6.05-6.43-.18394343.0402183-.37171144.0603363-.56.06-1.65685425 0-3-1.3431458-3-3s1.34314575-3 3-3v-4.15c-3.76-3.28-3-10.85-3-10.85 3 6 16 1 21 4s2 11 2 11c1.6568542 0 3 1.3431458 3 3z" fill="#ffe7e8"/><path id="Shape" d="m25 17s3-8-2-11c-1.745-1.047-4.465-1.119-7.393-1.025 1.5252308-.01454657 3.0317026.3369521 4.393 1.025 5 3 2 11 2 11 1.6568542 0 3 1.3431458 3 3s-1.3431458 3-3 3c-.1882886.0003363-.3760566-.0197817-.56-.06-.9467521 2.9442877-3.1687681 5.3058682-6.05 6.43-.6107945.232261-1.2442571.3998437-1.89.5 1.6453034.2761549 3.3346328.1034219 4.89-.5 2.8812319-1.1241318 5.1032479-3.4857123 6.05-6.43.1839434.0402183.3717114.0603363.56.06 1.6568542 0 3-1.3431458 3-3s-1.3431458-3-3-3z" fill="#ffc9cc"/><path id="Shape" d="m20 36c0 2.7614237-2.2385763 5-5 5s-5-2.2385763-5-5c2.69-2.02 2.22-4.93 1.61-6.63 2.181952.8399727 4.598048.8399727 6.78 0-.61 1.7-1.08 4.61 1.61 6.63z" fill="#ffe0e2"/><path id="Shape" d="m18.39 29.37c-1.0220995.392694-2.1052087.6028849-3.2.621-.7806038 2.1831699-.046541 4.6201772 1.81 6.009-.0056526 2.1761534-1.4225411 4.0970494-3.5 4.745.4838155.1620147.9898258.2480365 1.5.255 2.7614237 0 5-2.2385763 5-5-2.69-2.02-2.22-4.93-1.61-6.63z" fill="#ff9ea1"/><path id="Shape" d="m29 43v1c-.0032948 1.1032019-.8967981 1.9967052-2 2h-24c-1.10320187-.0032948-1.9967052-.8967981-2-2v-1c0-3.8659932 3.13400675-7 7-7h2c0 2.7614237 2.2385763 5 5 5s5-2.2385763 5-5h2c3.8659932 0 7 3.1340068 7 7z" fill="#ffe7e8"/><path id="Shape" d="m22 36h-2c0 .027-.007.051-.008.078 3.4470574.4891154 6.0086587 3.4404144 6.008 6.922v1c-.0032948 1.1032019-.8967981 1.9967052-2 2h3c1.1032019-.0032948 1.9967052-.8967981 2-2v-1c0-3.8659932-3.1340068-7-7-7z" fill="#ffc9cc"/><path id="Shape" d="m58 34c0 1.6568542-1.3431458 3-3 3-.1882886.0003363-.3760566-.0197817-.56-.06-.9467521 2.9442877-3.1687681 5.3058682-6.05 6.43-2.181952.8399727-4.598048.8399727-6.78 0-2.8812319-1.1241318-5.1032479-3.4857123-6.05-6.43-.1839434.0402183-.3717114.0603363-.56.06-1.6568542 0-3-1.3431458-3-3s1.3431458-3 3-3v-4.15c-3.76-3.28-3-10.85-3-10.85 3 6 16 1 21 4s2 11 2 11c1.6568542 0 3 1.3431458 3 3z" fill="#ffe7e8"/><path id="Shape" d="m55 31s3-8-2-11c-1.745-1.047-4.465-1.119-7.393-1.025 1.5252308-.0145466 3.0317026.3369521 4.393 1.025 5 3 2 11 2 11 1.6568542 0 3 1.3431458 3 3s-1.3431458 3-3 3c-.1882886.0003363-.3760566-.0197817-.56-.06-.9467521 2.9442877-3.1687681 5.3058682-6.05 6.43-.6107945.232261-1.2442571.3998437-1.89.5 1.6453034.2761549 3.3346328.1034219 4.89-.5 2.8812319-1.1241318 5.1032479-3.4857123 6.05-6.43.1839434.0402183.3717114.0603363.56.06 1.6568542 0 3-1.3431458 3-3s-1.3431458-3-3-3z" fill="#ffc9cc"/><path id="Shape" d="m50 50c0 2.7614237-2.2385763 5-5 5s-5-2.2385763-5-5c2.69-2.02 2.22-4.93 1.61-6.63 2.181952.8399727 4.598048.8399727 6.78 0-.61 1.7-1.08 4.61 1.61 6.63z" fill="#ffe0e2"/><path id="Shape" d="m42 44c.5025912-.0021645 1.0041992-.044634 1.5-.127-.6457429-.1001563-1.2792055-.267739-1.89-.5.069.192.135.4.2.621.061-.002.125.006.19.006z" fill="#ffc9cc"/><path id="Shape" d="m48.39 43.37c-1.0220995.392694-2.1052087.6028849-3.2.621-.7806038 2.1831699-.046541 4.6201772 1.81 6.009-.0056526 2.1761534-1.4225411 4.0970494-3.5 4.745.4838155.1620147.9898258.2480365 1.5.255 2.7614237 0 5-2.2385763 5-5-2.69-2.02-2.22-4.93-1.61-6.63z" fill="#ff9ea1"/><path id="Shape" d="m59 57v1c-.0032948 1.1032019-.8967981 1.9967052-2 2h-24c-1.1032019-.0032948-1.9967052-.8967981-2-2v-1c0-3.8659932 3.1340068-7 7-7h2c0 2.7614237 2.2385763 5 5 5s5-2.2385763 5-5h2c1.8565154 0 3.6369928.7374979 4.9497475 2.0502525 1.3127546 1.3127547 2.0502525 3.0932321 2.0502525 4.9497475z" fill="#ffe7e8"/><path id="Shape" d="m52 50h-2c0 .027-.007.051-.008.078 3.4470574.4891154 6.0086587 3.4404144 6.008 6.922v1c-.0032948 1.1032019-.8967981 1.9967052-2 2h3c1.1032019-.0032948 1.9967052-.8967981 2-2v-1c0-1.8565154-.7374979-3.6369928-2.0502525-4.9497475-1.3127547-1.3127546-3.0932321-2.0502525-4.9497475-2.0502525z" fill="#ffc9cc"/><g fill="#fff"><path id="Shape" d="m33 60h3c-1.1032019-.0032948-1.9967052-.8967981-2-2v-1c0-3.8659932 3.1340068-7 7-7h2c2.163-1.625 2.534-4.054 1.61-6.63-2.8812319-1.1241318-5.1032479-3.4857123-6.05-6.43-1.1250124.2280209-2.2815137-.2059036-2.9788673-1.1176845s-.8132919-2.141555-.298629-3.1676001c.5146629-1.026045 1.5696908-1.6684639 2.7174963-1.6547154v-4.15c-2.385-2.08-2.95-5.882-3.045-8.388-1.2732785-.3949231-2.3367076-1.280934-2.955-2.462 0 0-.76 7.57 3 10.85v4.15c-1.1478055-.0137485-2.2028334.6286704-2.7174963 1.6547154-.5146629 1.0260451-.3987246 2.2558192.298629 3.1676001s1.8538549 1.3457054 2.9788673 1.1176845c.9467521 2.9442877 3.1687681 5.3058682 6.05 6.43.924 2.576.553 5.005-1.61 6.63h-2c-3.8659932 0-7 3.1340068-7 7v1c.0032948 1.1032019.8967981 1.9967052 2 2z"/><path id="Shape" d="m3 46h3c-1.10320187-.0032948-1.9967052-.8967981-2-2v-1c0-3.8659932 3.13400675-7 7-7h2c2.69-2.02 2.22-4.93 1.61-6.63-2.8812319-1.1241318-5.10324785-3.4857123-6.05-6.43-1.12501239.2280209-2.28151375-.2059036-2.97886732-1.1176845-.69735358-.9117809-.81329187-2.141555-.29862896-3.1676001.51466291-1.026045 1.56969081-1.6684639 2.71749628-1.6547154v-4.15c-2.385-2.08-2.95-5.882-3.045-8.388-1.27327855-.39492305-2.33670758-1.28093397-2.955-2.462 0 0-.76 7.57 3 10.85v4.15c-1.14780547-.0137485-2.20283337.6286704-2.71749628 1.6547154-.51466291 1.0260451-.39872462 2.2558192.29862896 3.1676001.69735357.9117809 1.85385493 1.3457054 2.97886732 1.1176845.94675215 2.9442877 3.16876805 5.3058682 6.05 6.43.61 1.7 1.08 4.61-1.61 6.63h-2c-3.86599325 0-7 3.1340068-7 7v1c.0032948 1.1032019.89679813 1.9967052 2 2z"/><path id="Shape" d="m2.545 40.514-1.82-.83c1.30532363-2.8453555 4.14453598-4.673379 7.275-4.684v2c-2.34766374.0085075-4.47658847 1.3799175-5.455 3.514z"/></g><path id="Shape" d="m2.545 40.514c.181677-.4785981.00100829-1.0189314-.432-1.292-.24018428-.1488773-.53409497-.183358-.802215-.0941135-.26812004.0892446-.48273641.2929901-.585785.5561135-.47664005 1.0405616-.72389799 2.1714682-.725 3.316v1c0 1.6568542 1.34314575 3 3 3h24c1.6568542 0 3-1.3431458 3-3v-1c-.0049599-4.4162219-3.5837781-7.9950401-8-8h-1.619c-1.3826161-1.2165943-1.8548323-3.1690341-1.181-4.883 2.6959194-1.1867598 4.8194047-3.3827631 5.915-6.117 1.9330448-.0563822 3.5489295-1.4876059 3.8383348-3.3996953.2894052-1.9120893-.8305581-3.7573987-2.6603348-4.3833047.681-2.493 1.707-8.383-2.778-11.074-2.358-1.414-5.953-1.258-9.76-1.1-4.628.2-9.411.4-10.86-2.494-.19695611-.40387958-.63911679-.62679383-1.080946-.54495633-.44182921.08183749-.77481779.4483282-.814054.89595633-.032.37-.711 7.717 3 11.4v2.827c-1.93206625.4957456-3.20363132 2.3391435-2.9808166 4.3213133s1.87190557 3.4972583 3.8658166 3.5516867c1.0955953 2.7342369 3.21908056 4.9302402 5.915 6.117.6738323 1.7139659.2016161 3.6664057-1.181 4.883h-1.619c-.55228475 0-1 .4477153-1 1s.44771525 1 1 1h1.083c.48565272 2.8893814 2.9870881 5.0054594 5.917 5.0054594s5.4313473-2.116078 5.917-5.0054594h1.083c3.3123376.0033074 5.9966926 2.6876624 6 6v1c0 .5522847-.4477153 1-1 1h-3v-2c0-.5522847-.4477153-1-1-1s-1 .4477153-1 1v2h-14v-2c0-.5522847-.44771525-1-1-1s-1 .4477153-1 1v2h-3c-.55228475 0-1-.4477153-1-1v-1c.00115135-.8581763.18702843-1.7060486.545-2.486zm3.964-17.888c-.13526164-.408984-.5172295-.6853869-.948-.686-.07331891.0001262-.14640963.0081729-.218.024-.11274208.0240736-.22771646.0361409-.343.036-1.1045695 0-2-.8954305-2-2s.8954305-2 2-2c.55228475 0 1-.4477153 1-1v-2.318c.22332988.1002367.45162638.1890187.684.266.33940231.1128959.71325225.0361471.98072416-.201336.2674719-.237483.38793042-.599621.316-.95s-.32532184-.6357681-.66472416-.748664c-.59025083-.1968455-1.13692846-.5058373-1.61-.91-.03090939-.0313703-.06435636-.0601347-.1-.086-2.012-1.805-2.537-5.152-2.643-7.461 2.622 1.809 6.805 1.631 10.879 1.454 3.343-.144 6.8-.294 8.643.812 4.222 2.534 1.605 9.72 1.578 9.793-.1147341.3070775-.0716779.6508892.1152372.9201906.1869151.2693013.4939512.4298915.8217628.4298094 1.1045695 0 2 .8954305 2 2s-.8954305 2-2 2c-.1152835.0001409-.2302579-.0119264-.343-.036-.500949-.1111758-1.0047479.1748576-1.166.662-1.1577006 3.7347904-4.5815035 6.3049611-8.491 6.374-3.9094965-.0690389-7.33329944-2.6392096-8.491-6.374zm8.491 17.374c-2.0438196-.0060445-3.7526016-1.5555186-3.958-3.589 1.5778427-1.4059893 2.3114457-3.5310519 1.937-5.611 1.3336058.2719968 2.7083942.2719968 4.042 0-.3759191 2.0812504.3578124 4.2082004 1.937 5.615-.2073076 2.0318976-1.9155627 3.5791675-3.958 3.585z" fill="#ff414c"/><path id="Shape" d="m4.209 38.1c-.55228473.0027614-1.00223852-.4427153-1.00499994-.995-.00276143-.5522847.44271521-1.0022385.99499994-1.005h.01c.55228475 0 1 .4477153 1 1s-.44771525 1-1 1z" fill="#ff414c"/><path id="Shape" d="m52 49h-1.619c-1.3826161-1.2165943-1.8548323-3.1690341-1.181-4.883 2.6959194-1.1867598 4.8194047-3.3827631 5.915-6.117 1.9330448-.0563822 3.5489295-1.4876059 3.8383348-3.3996953.2894052-1.9120893-.8305581-3.7573987-2.6603348-4.3833047.681-2.491 1.708-8.381-2.778-11.072-2.358-1.414-5.953-1.258-9.76-1.1-4.627.2-9.411.405-10.86-2.494-.1987834-.3986939-.6373345-.6178076-1.0755122-.5373591s-.7702935.441055-.8144878.8843591c-.037.37-.716 7.717 3 11.4v2.827c-1.9349362.4924628-3.2103993 2.3363687-2.9886649 4.3206397s1.8727524 3.5011542 3.8686649 3.5543603c1.0955953 2.7342369 3.2190806 4.9302402 5.915 6.117.6738323 1.7139659.2016161 3.6664057-1.181 4.883h-1.619c-4.4162219.0049599-7.9950401 3.5837781-8 8v1c0 1.6568542 1.3431458 3 3 3h24c1.6568542 0 3-1.3431458 3-3v-1c-.0049599-4.4162219-3.5837781-7.9950401-8-8zm-15.491-12.374c-.1352616-.408984-.5172295-.6853869-.948-.686-.0733189.0001262-.1464096.0081729-.218.024-.1127421.0240736-.2277165.0361409-.343.036-1.1045695 0-2-.8954305-2-2s.8954305-2 2-2c.5522847 0 1-.4477153 1-1v-2.318c.2233299.1002367.4516264.1890187.684.266.3394023.1128959.7132523.0361471.9807242-.201336.2674719-.237483.3879304-.599621.316-.95-.0719305-.350379-.3253219-.6357681-.6647242-.748664-.5902508-.1968455-1.1369285-.5058373-1.61-.91-.0309094-.0313703-.0643564-.0601347-.1-.086-2.013-1.809-2.538-5.154-2.644-7.465 2.622 1.81 6.806 1.632 10.879 1.454 3.343-.143 6.8-.293 8.643.812 4.222 2.534 1.605 9.72 1.578 9.793-.1164711.3077054-.0741326.6530138.1132267.9234663.1873593.2704526.4957638.4314405.8247733.4305337 1.1045695 0 2 .8954305 2 2s-.8954305 2-2 2c-.1152835.0001409-.2302579-.0119264-.343-.036-.500949-.1111758-1.0047479.1748576-1.166.662-1.0984742 3.7759651-4.5584998 6.3728648-8.491 6.3728648s-7.3925258-2.5968997-8.491-6.3728648zm6.47 8.17c1.3336058.2719968 2.7083942.2719968 4.042 0-.3759191 2.0812504.3578124 4.2082004 1.937 5.615-.1997614 2.0362778-1.9119472 3.5887153-3.958 3.5887153s-3.7582386-1.5524375-3.958-3.5887153c1.5778427-1.4059893 2.3114457-3.5310519 1.937-5.611zm15.021 13.204c0 .5522847-.4477153 1-1 1h-3v-2c0-.5522847-.4477153-1-1-1s-1 .4477153-1 1v2h-14v-2c0-.5522847-.4477153-1-1-1s-1 .4477153-1 1v2h-3c-.5522847 0-1-.4477153-1-1v-1c.0033074-3.3123376 2.6876624-5.9966926 6-6h1.083c.4856527 2.8893814 2.9870881 5.0054594 5.917 5.0054594s5.4313473-2.116078 5.917-5.0054594h1.083c3.3123376.0033074 5.9966926 2.6876624 6 6z" fill="#ff414c"/></g></g></svg>