<svg height="512" viewBox="0 0 60 60" width="512" xmlns="http://www.w3.org/2000/svg" xmlns:xlink="http://www.w3.org/1999/xlink"><linearGradient id="linearGradient-1" x1="7.267%" x2="92.733%" y1="-3.983%" y2="101.485%"><stop offset="0" stop-color="#f6d8da"/><stop offset=".172" stop-color="#f6d8da"/><stop offset=".2" stop-color="#f6d8da"/><stop offset=".2" stop-color="#dae2f2"/><stop offset=".201" stop-color="#ebeaf2"/><stop offset=".201" stop-color="#f6eff2"/><stop offset=".202" stop-color="#fdf2f2"/><stop offset=".205" stop-color="#fff3f2"/><stop offset=".252" stop-color="#fff3f2"/><stop offset=".26" stop-color="#fff3f2"/><stop offset=".26" stop-color="#f6d8da"/><stop offset=".397" stop-color="#f6d8da"/><stop offset=".42" stop-color="#f6d8da"/><stop offset=".42" stop-color="#dae2f2"/><stop offset=".421" stop-color="#ebeaf2"/><stop offset=".421" stop-color="#f6eff2"/><stop offset=".422" stop-color="#fdf2f2"/><stop offset=".425" stop-color="#fff3f2"/><stop offset=".489" stop-color="#fff3f2"/><stop offset=".5" stop-color="#fff3f2"/><stop offset=".5" stop-color="#f8f0f2"/><stop offset=".5" stop-color="#e7e8f2"/><stop offset=".5" stop-color="#dce3f2"/><stop offset=".5" stop-color="#f3d6d8"/><stop offset=".501" stop-color="#f6d8da"/><stop offset=".706" stop-color="#f6d8da"/><stop offset=".74" stop-color="#f6d8da"/><stop offset=".741" stop-color="#fff3f2"/><stop offset=".835" stop-color="#fff3f2"/><stop offset=".85" stop-color="#fff3f2"/><stop offset=".851" stop-color="#f6d8da"/></linearGradient><g id="Page-1" fill="none" fill-rule="evenodd"><g id="093---Computer" fill-rule="nonzero"><path id="Shape" d="m55 1h-50c-2.209139 0-4 1.790861-4 4v37c0 3.3137085 2.6862915 6 6 6h46c3.3137085 0 6-2.6862915 6-6v-37c0-2.209139-1.790861-4-4-4z" fill="url(#linearGradient-1)"/><path id="Shape" d="m59 5v2h-58v-2c0-2.209139 1.790861-4 4-4h50c2.209139 0 4 1.790861 4 4z" fill="#ffe7e8"/><path id="Shape" d="m55 1h-3c2.209139 0 4 1.790861 4 4v2h3v-2c0-2.209139-1.790861-4-4-4z" fill="#ffc9cc"/><path id="Rectangle-path" d="m56 7h3v32h-3z" fill="#ffe0e2"/><path id="Shape" d="m59 39v3c0 3.3137085-2.6862915 6-6 6h-46c-3.3137085 0-6-2.6862915-6-6v-3z" fill="#ffe7e8"/><path id="Shape" d="m56 39v3c0 3.3137085-2.6862915 6-6 6h3c3.3137085 0 6-2.6862915 6-6v-3z" fill="#ffc9cc"/><path id="Shape" d="m41 59h-22s5-2 5-6v-5h12v5c0 4 5 6 5 6z" fill="#ffc9cc"/><path id="Shape" d="m7 48h3c-3.3137085 0-6-2.6862915-6-6v-37c0-2.209139 1.790861-4 4-4h-3c-2.209139 0-4 1.790861-4 4v37c0 3.3137085 2.6862915 6 6 6z" fill="#fff"/><path id="Shape" d="m27 53v-5h-3v5c0 4-5 6-5 6h3s5-2 5-6z" fill="#fff"/><path id="Rectangle-path" d="m0 26h2v8h-2z" fill="#fff"/><g fill="#ff414c"><circle id="Oval" cx="1" cy="30" r="1"/><path id="Shape" d="m55 0h-50c-2.76005315.00330612-4.99669388 2.23994685-5 5v21c0 .5522847.44771525 1 1 1s1-.4477153 1-1v-18h3c.55228475 0 1-.44771525 1-1s-.44771525-1-1-1h-3v-1c0-1.65685425 1.34314575-3 3-3h50c1.6568542 0 3 1.34314575 3 3v1h-48c-.55228475 0-1 .44771525-1 1s.44771525 1 1 1h48v30h-3c-.5522847 0-1 .4477153-1 1s.4477153 1 1 1h3v2c-.0033061 2.7600532-2.2399468 4.9966939-5 5h-46c-2.76005315-.0033061-4.99669388-2.2399468-5-5v-2h48c.5522847 0 1-.4477153 1-1s-.4477153-1-1-1h-48v-4c0-.5522847-.44771525-1-1-1s-1 .4477153-1 1v8c.00440864 3.8641657 3.13583434 6.9955914 7 7h16v4c0 2.91-3.43 4.644-4.21 5h-9.79c-.55228475 0-1 .4477153-1 1s.44771525 1 1 1h50c.5522847 0 1-.4477153 1-1s-.4477153-1-1-1h-17.791c-.778-.352-4.209-2.072-4.209-5v-4h16c3.8641657-.0044086 6.9955914-3.1358343 7-7v-37c-.0033061-2.76005315-2.2399468-4.99669388-5-5zm-17.457 58h-15.086c1.5442949-1.2094759 2.4751089-3.0396252 2.543-5v-4h10v4c.0678911 1.9603748.9987051 3.7905241 2.543 5z"/><path id="Shape" d="m31 43c0 .5522847-.4477153 1-1 1s-1-.4477153-1-1-.4477153-1-1-1-1 .4477153-1 1c0 1.6568542 1.3431458 3 3 3s3-1.3431458 3-3c0-.5522847-.4477153-1-1-1s-1 .4477153-1 1z"/><circle id="Oval" cx="30" cy="4" r="1"/><path id="Shape" d="m5 15c.26519481-.0000566.51950727-.1054506.707-.293l3-3c.37897221-.3923789.37355237-1.0160848-.01218142-1.4018186-.3857338-.38573377-1.00943969-.39115361-1.40181858-.0121814l-3 3c-.28590792.2859943-.37142191.7160366-.21667798 1.0896546.15474393.3736179.51928208.6172591.92367798.6173454z"/><path id="Shape" d="m4.293 20.707c.39049985.3903819 1.02350015.3903819 1.414 0l9-9c.3789722-.3923789.3735524-1.0160848-.0121814-1.4018186-.3857338-.38573377-1.0094397-.39115361-1.4018186-.0121814l-9 9c-.39038194.3904999-.39038194 1.0235001 0 1.414z"/><path id="Shape" d="m4 58h-3c-.55228475 0-1 .4477153-1 1s.44771525 1 1 1h3c.55228475 0 1-.4477153 1-1s-.44771525-1-1-1z"/></g></g></g></svg>