<svg height="512" viewBox="0 0 60 50" width="512" xmlns="http://www.w3.org/2000/svg" xmlns:xlink="http://www.w3.org/1999/xlink"><linearGradient id="linearGradient-1" x1="8.858%" x2="91.142%" y1="-5.736%" y2="112.756%"><stop offset="0" stop-color="#f6d8da"/><stop offset=".172" stop-color="#f6d8da"/><stop offset=".2" stop-color="#f6d8da"/><stop offset=".2" stop-color="#dae2f2"/><stop offset=".201" stop-color="#ebeaf2"/><stop offset=".201" stop-color="#f6eff2"/><stop offset=".202" stop-color="#fdf2f2"/><stop offset=".205" stop-color="#fff3f2"/><stop offset=".252" stop-color="#fff3f2"/><stop offset=".26" stop-color="#fff3f2"/><stop offset=".26" stop-color="#f6d8da"/><stop offset=".397" stop-color="#f6d8da"/><stop offset=".42" stop-color="#f6d8da"/><stop offset=".42" stop-color="#dae2f2"/><stop offset=".421" stop-color="#ebeaf2"/><stop offset=".421" stop-color="#f6eff2"/><stop offset=".422" stop-color="#fdf2f2"/><stop offset=".425" stop-color="#fff3f2"/><stop offset=".489" stop-color="#fff3f2"/><stop offset=".5" stop-color="#fff3f2"/><stop offset=".5" stop-color="#f8f0f2"/><stop offset=".5" stop-color="#e7e8f2"/><stop offset=".5" stop-color="#dce3f2"/><stop offset=".5" stop-color="#f3d6d8"/><stop offset=".501" stop-color="#f6d8da"/><stop offset=".706" stop-color="#f6d8da"/><stop offset=".74" stop-color="#f6d8da"/><stop offset=".741" stop-color="#fff3f2"/><stop offset=".835" stop-color="#fff3f2"/><stop offset=".85" stop-color="#fff3f2"/><stop offset=".851" stop-color="#f6d8da"/></linearGradient><g id="Page-1" fill="none" fill-rule="evenodd"><g id="094---Computer" fill-rule="nonzero"><path id="Shape" d="m59 45v2c-.0032948 1.1032019-.8967981 1.9967052-2 2h-14c-1.1032019-.0032948-1.9967052-.8967981-2-2v-2z" fill="#ffe7e8"/><path id="Shape" d="m56 45v2c-.0032948 1.1032019-.8967981 1.9967052-2 2h3c1.1032019-.0032948 1.9967052-.8967981 2-2v-2z" fill="#ffc9cc"/><path id="Rectangle-path" d="m41 16h18v29h-18z" fill="#ffe7e8"/><path id="Rectangle-path" d="m56 16h3v29h-3z" fill="#ffc9cc"/><path id="Shape" d="m59 3v3h-18v-3c.0032948-1.10320187.8967981-1.9967052 2-2h14c1.1032019.0032948 1.9967052.89679813 2 2z" fill="#ffe7e8"/><path id="Shape" d="m57 1h-3c1.1032019.0032948 1.9967052.89679813 2 2v3h3v-3c-.0032948-1.10320187-.8967981-1.9967052-2-2z" fill="#ffc9cc"/><path id="Rectangle-path" d="m41 6h18v10h-18z" fill="#ffe0e2"/><path id="Rectangle-path" d="m56 6h3v10h-3z" fill="#ff9ea1"/><path id="Shape" d="m37 37v2c0 1.6568542-1.3431458 3-3 3h-30c-1.65685425 0-3-1.3431458-3-3v-2z" fill="#ffe7e8"/><path id="Shape" d="m34 37v2c0 1.6568542-1.3431458 3-3 3h3c1.6568542 0 3-1.3431458 3-3v-2z" fill="#ffc9cc"/><path id="Shape" d="m37 15v22h-36v-22c0-1.6568542 1.34314575-3 3-3h30c1.6568542 0 3 1.3431458 3 3z" fill="url(#linearGradient-1)"/><path id="Shape" d="m34 12h-3c1.6568542 0 3 1.3431458 3 3v22h3v-22c0-1.6568542-1.3431458-3-3-3z" fill="#ffe0e2"/><path id="Shape" d="m27 49h-16c4 0 4-5 4-5v-2h8v2s0 5 4 5z" fill="#ffe0e2"/><path id="Shape" d="m18 44v-2h-3v2s0 5-4 5h3c4 0 4-5 4-5z" fill="#fff"/><path id="Shape" d="m46 1h-3c-1.1032019.0032948-1.9967052.89679813-2 2v44c.0032948 1.1032019.8967981 1.9967052 2 2h3c-1.1032019-.0032948-1.9967052-.8967981-2-2v-44c.0032948-1.10320187.8967981-1.9967052 2-2z" fill="#fff"/><path id="Shape" d="m4 42h3c-1.65685425 0-3-1.3431458-3-3v-24c0-1.6568542 1.34314575-3 3-3h-3c-1.65685425 0-3 1.3431458-3 3v24c0 1.6568542 1.34314575 3 3 3z" fill="#fff"/><path id="Rectangle-path" d="m0 15h2v8h-2z" fill="#fff"/><g fill="#ff414c"><path id="Shape" d="m57 0h-14c-1.6568542 0-3 1.34314575-3 3v44c.0033144.3414397.0655622.679743.184 1h-13.184c-2.943 0-3-3.839-3-4v-1h10c2.209139 0 4-1.790861 4-4v-24c0-2.209139-1.790861-4-4-4h-30c-2.209139 0-4 1.790861-4 4 0 .5522847.44771525 1 1 1s1-.4477153 1-1c0-1.1045695.8954305-2 2-2h30c1.1045695 0 2 .8954305 2 2v21h-26c-.55228475 0-1 .4477153-1 1s.44771525 1 1 1h26v1c0 1.1045695-.8954305 2-2 2h-30c-1.1045695 0-2-.8954305-2-2v-1h3c.55228475 0 1-.4477153 1-1s-.44771525-1-1-1h-3v-13c0-.5522847-.44771525-1-1-1s-1 .4477153-1 1v16c0 2.209139 1.790861 4 4 4h10v1c0 .163-.034 4-3 4h-3c-.55228475 0-1 .4477153-1 1s.44771525 1 1 1h51c.405774-.0004721.7710356-.2461017.9245299-.6217242s.0647875-.8067617-.2245299-1.0912758c.195157-.4011068.2976828-.8409422.3-1.287v-44c0-1.65685425-1.3431458-3-3-3zm-15 7h16v8h-16zm1-5h14c.5522847 0 1 .44771525 1 1v2h-16v-2c0-.55228475.4477153-1 1-1zm-27 42v-1h6v1c.0036773 1.4168945.4086431 2.8037639 1.168 4h-8.336c.7593569-1.1962361 1.1643227-2.5831055 1.168-4zm27 4c-.5522847 0-1-.4477153-1-1v-1h2c.5522847 0 1-.4477153 1-1s-.4477153-1-1-1h-2v-27h16v27h-10c-.5522847 0-1 .4477153-1 1s.4477153 1 1 1h10v1c0 .5522847-.4477153 1-1 1z"/><path id="Shape" d="m55 10h-10c-.5522847 0-1 .4477153-1 1s.4477153 1 1 1h10c.5522847 0 1-.4477153 1-1s-.4477153-1-1-1z"/><circle id="Oval" cx="46" cy="29" r="1"/><circle id="Oval" cx="50" cy="29" r="1"/><circle id="Oval" cx="54" cy="29" r="1"/><circle id="Oval" cx="48" cy="26" r="1"/><circle id="Oval" cx="52" cy="26" r="1"/><circle id="Oval" cx="48" cy="32" r="1"/><circle id="Oval" cx="52" cy="32" r="1"/><circle id="Oval" cx="1" cy="19" r="1"/><path id="Shape" d="m5 21c.26519481-.0000566.51950727-.1054506.707-.293l4-4c.3789722-.3923789.3735524-1.0160848-.01218142-1.4018186-.3857338-.3857338-1.00943969-.3911536-1.40181858-.0121814l-4 4c-.28590792.2859943-.37142191.7160366-.21667798 1.0896546.15474393.3736179.51928208.6172591.92367798.6173454z"/><path id="Shape" d="m4.293 26.707c.39049985.3903819 1.02350015.3903819 1.414 0l10-10c.3789722-.3923789.3735524-1.0160848-.0121814-1.4018186s-1.0094397-.3911536-1.4018186-.0121814l-10 10c-.39038194.3904999-.39038194 1.0235001 0 1.414z"/><path id="Shape" d="m3 50c.55228475 0 1-.4477153 1-1s-.44771525-1-1-1h-2c-.55228475 0-1 .4477153-1 1s.44771525 1 1 1z"/></g></g></g></svg>