<svg height="512" viewBox="0 0 60 60" width="512" xmlns="http://www.w3.org/2000/svg"><g id="Page-1" fill="none" fill-rule="evenodd"><g id="095---Mail" fill-rule="nonzero"><path id="Shape" d="m55 7 .0000826 20-6.0000826-6h-12.63l4.66-5 3.97-4.26 2-2.15 3-3.22 3.3-3.54c1.0968232 1.10983246 1.708261 2.6096536 1.7 4.17z" fill="#ffe0e2"/><path id="Shape" d="m53.3 2.83-1.751 1.878c.2993157.726992.4525635 1.50580357.451 2.292v17l3 3v-20c.008261-1.5603464-.6031768-3.06016754-1.7-4.17z" fill="#ff9ea1"/><path id="Shape" d="m53.3 2.83-3.3 3.54-3 3.22-2 2.15-3.97 4.26-4.66 5h-4.37c-2.209139 0-4 1.790861-4 4v2.19c-1.6659405.0047515-3.2578558-.6878586-4.39-1.91l-20.91-22.45c1.12248488-1.17277321 2.67662334-1.83418562 4.3-1.83h42c1.6233767-.00418562 3.1775151.65722679 4.3 1.83z" fill="#ffe7e8"/><path id="Shape" d="m25 25v1.385c.9124877.5252655 1.9471295.80117 3 .8v-2.185c0-2.209139 1.790861-4 4-4h-3c-2.209139 0-4 1.790861-4 4z" fill="#ffc9cc"/><path id="Shape" d="m49 1h-3c1.6233767-.00418562 3.1775151.65722679 4.3 1.83l-3.3 3.54-3 3.22-2 2.15-3.97 4.26-4.66 5h3l4.66-5 3.97-4.26 2-2.15 3-3.22 3.3-3.54c-1.1224849-1.17277321-2.6766233-1.83418562-4.3-1.83z" fill="#ffc9cc"/><path id="Shape" d="m28 27.19v17.81h-21c-3.3137085 0-6-2.6862915-6-6v-32c-.00826103-1.5603464.60317685-3.06016754 1.7-4.17l20.91 22.45c1.1321442 1.2221414 2.7240595 1.9147515 4.39 1.91z" fill="#ffe0e2"/><path id="Shape" d="m59 31v24c0 2.209139-1.790861 4-4 4h-23c-2.209139 0-4-1.790861-4-4v-30c0-2.209139 1.790861-4 4-4h17v6c0 2.209139 1.790861 4 4 4z" fill="#ffe7e8"/><path id="Shape" d="m56 31v24c0 2.209139-1.790861 4-4 4h3c2.209139 0 4-1.790861 4-4v-24z" fill="#ffc9cc"/><path id="Shape" d="m50 31h3c-2.209139 0-4-1.790861-4-4v-6h-3v6c0 2.209139 1.790861 4 4 4z" fill="#ffc9cc"/><path id="Shape" d="m59 31h-6c-2.209139 0-4-1.790861-4-4v-6z" fill="#ffe7e8"/><path id="Shape" d="m7 45h3c-3.3137085 0-6-2.6862915-6-6v-32c.00385738-3.3121094 2.6878906-5.99614262 6-6h-3c-3.3121094.00385738-5.99614262 2.6878906-6 6v32c0 3.3137085 2.6862915 6 6 6z" fill="#fff"/><path id="Rectangle-path" d="m0 31h2v8h-2z" fill="#fff"/><g fill="#ff414c"><circle id="Oval" cx="1" cy="35" r="1"/><path id="Shape" d="m46.268 8.912-2 2.148c-.376382.4042724-.3537724 1.0371179.0505 1.4135.4042724.376382 1.0371179.3537724 1.4135-.0505l2-2.148c.2527033-.2597727.3450815-.63593802.2414573-.98321722s-.3870311-.61131444-.7407662-.69013277c-.353735-.07881834-.7224299.03991727-.9636911.31034999z"/><path id="Shape" d="m59.934 30.674c-.0093449-.0318901-.0203601-.0632667-.033-.094-.0467863-.1036082-.1106789-.198602-.189-.281l-.006-.007-10-10-.007-.006c-.0821414-.0786404-.1771928-.1425717-.281-.189-.03-.014-.061-.022-.092-.033-.0869376-.0308804-.1778728-.0490675-.27-.054-.0184784-.0043131-.0371709-.007651-.056-.01h-10.331l3.092-3.318c.3533957-.406381.3214936-1.0196374-.0721611-1.3871562s-1.007655-.3572816-1.3888389.0231562l-4.365 4.682h-3.935c-2.7600532.0033061-4.9966939 2.2399468-5 5v1.089c-1.0210155-.2037862-1.9513986-.7253328-2.658-1.49l-20.201-21.69c.83643972-.59061642 1.83505743-.90812026 2.859-.909h42c1.0241631.00045124 2.0230034.31837521 2.859.91l-2.59 2.781c-.2533635.25950203-.3463646.63584292-.2430394.98348966.1033253.34764673.3867791.61210019.7407483.69109482s.7229636-.03985323.9642911-.31058448l2.5-2.686c.4987851.78717263.7653309 1.69911274.769 2.631v14c0 .5522847.4477153 1 1 1s1-.4477153 1-1v-14c-.0049584-3.86393756-3.1360624-6.99504164-7-7h-42c-3.86416566.00440864-6.99559136 3.13583434-7 7v24c0 .5522847.44771525 1 1 1s1-.4477153 1-1v-24c.00307057-.93169115.26891879-1.8436164.767-2.631l20.11 21.592c1.0840347 1.1724792 2.5411735 1.9326795 4.123 2.151v15.888h-20c-2.76005315-.0033061-4.99669388-2.2399468-5-5 0-.5522847-.44771525-1-1-1s-1 .4477153-1 1c.00440864 3.8641657 3.13583434 6.9955914 7 7h20v9c.0033061 2.7600532 2.2399468 4.9966939 5 5h23c2.7600532-.0033061 4.9966939-2.2399468 5-5v-24c0-.021-.011-.039-.012-.061-.0059172-.090371-.0240832-.1795194-.054-.265zm-9.934-7.26 6.586 6.586h-3.586c-1.6568542 0-3-1.3431458-3-3zm5 34.586h-23c-1.6568542 0-3-1.3431458-3-3v-30c0-1.6568542 1.3431458-3 3-3h16v5c.0033061 2.7600532 2.2399468 4.9966939 5 5h5v23c0 1.6568542-1.3431458 3-3 3z"/><path id="Shape" d="m32 37h2c.5522847 0 1-.4477153 1-1s-.4477153-1-1-1h-2c-.5522847 0-1 .4477153-1 1s.4477153 1 1 1z"/><path id="Shape" d="m38 37h8c.5522847 0 1-.4477153 1-1s-.4477153-1-1-1h-8c-.5522847 0-1 .4477153-1 1s.4477153 1 1 1z"/><path id="Shape" d="m55 35h-5c-.5522847 0-1 .4477153-1 1s.4477153 1 1 1h5c.5522847 0 1-.4477153 1-1s-.4477153-1-1-1z"/><path id="Shape" d="m32 41h7c.5522847 0 1-.4477153 1-1s-.4477153-1-1-1h-7c-.5522847 0-1 .4477153-1 1s.4477153 1 1 1z"/><path id="Shape" d="m55 39h-12c-.5522847 0-1 .4477153-1 1s.4477153 1 1 1h12c.5522847 0 1-.4477153 1-1s-.4477153-1-1-1z"/><path id="Shape" d="m32 45h3c.5522847 0 1-.4477153 1-1s-.4477153-1-1-1h-3c-.5522847 0-1 .4477153-1 1s.4477153 1 1 1z"/><path id="Shape" d="m46 43h-7c-.5522847 0-1 .4477153-1 1s.4477153 1 1 1h7c.5522847 0 1-.4477153 1-1s-.4477153-1-1-1z"/><path id="Shape" d="m55 43h-5c-.5522847 0-1 .4477153-1 1s.4477153 1 1 1h5c.5522847 0 1-.4477153 1-1s-.4477153-1-1-1z"/><path id="Shape" d="m37 47h-5c-.5522847 0-1 .4477153-1 1s.4477153 1 1 1h5c.5522847 0 1-.4477153 1-1s-.4477153-1-1-1z"/><path id="Shape" d="m46 47h-5c-.5522847 0-1 .4477153-1 1s.4477153 1 1 1h5c.5522847 0 1-.4477153 1-1s-.4477153-1-1-1z"/></g></g></g></svg>