<svg height="512" viewBox="0 0 56 60" width="512" xmlns="http://www.w3.org/2000/svg"><g id="Page-1" fill="none" fill-rule="evenodd"><g id="097---Virus-Schedule" fill-rule="nonzero"><path id="Shape" d="m51 30v9.68c-.0005183.7300401-.2011183 1.4459747-.58 2.07-2.06 3.4-9.64 14.33-23.63 17.17-.2594892.0562764-.5244967.0831126-.79.0802427v-29.0002427z" fill="#ffe0e2"/><path id="Shape" d="m51 14.32.0000154 15.68h-25.0000154v-29h8.3c.6699008.01057869 1.2928108.34627871 1.67.9 3.93 5.62 11.09 9.32 13.87 10.61.7090574.3226098 1.1630578 1.031007 1.16 1.81z" fill="#ffe7e8"/><path id="Shape" d="m49.84 12.51c-2.78-1.29-9.94-4.99-13.87-10.61-.3771892-.55372129-1.0000992-.88942131-1.67-.9h-3c.6699008.01057869 1.2928108.34627871 1.67.9 3.93 5.62 11.09 9.32 13.87 10.61.7090574.3226098 1.1630578 1.031007 1.16 1.81v15.68h3.0000154l-.0000154-15.68c.0030578-.778993-.4509426-1.4873902-1.16-1.81z" fill="#ffc9cc"/><path id="Shape" d="m26 30v29.0002427c-.2655033.0028699-.5305108-.0239663-.79-.0802427-13.99-2.84-21.57-13.77-23.63-17.17-.37888169-.6240253-.57948172-1.3399599-.58-2.07v-9.68z" fill="#ffe7e8"/><path id="Shape" d="m26 1v29h-25.00001535l.00001535-15.68c-.00305785-.778993.45094256-1.4873902 1.16-1.81 2.78-1.29 9.94-4.99 13.87-10.61.3771892-.55372129 1.0000992-.88942131 1.67-.9z" fill="#ffe0e2"/><path id="Rectangle-path" d="m23 1h3v29h-3z" fill="#ff9ea1"/><circle id="Oval" cx="38" cy="42" fill="#ffe7e8" r="17"/><circle id="Oval" cx="38" cy="42" fill="#ffe7e8" r="13"/><path id="Shape" d="m38 29c-.5013727.0021196-1.0022053.0331712-1.5.093 6.5547585.7579324 11.5005523 6.3085668 11.5005523 12.907s-4.9457938 12.1490676-11.5005523 12.907c4.8017364.577143 9.5269407-1.5589761 12.2658122-5.5449953 2.7388716-3.9860191 3.0386134-9.1629598.7780779-13.4384417-2.2605356-4.2754819-6.7076311-6.9426717-11.5438901-6.923563z" fill="#ffc9cc"/><path id="Shape" d="m1 14.32v25.36c.00051828.7300401.20111831 1.4459747.58 2.07 2.06 3.4 9.64 14.33 23.63 17.17.5212331.1069888 1.0587669.1069888 1.58 0 .244-.05.471-.119.711-.174-13.528-3.062-20.9-13.655-22.921-17-.37817843-.6228637-.57875145-1.3373186-.58-2.066v-25.36c-.00305785-.778993.45094256-1.4873902 1.16-1.81 2.78-1.29 9.94-4.99 13.87-10.61.3771892-.55372129 1.0000992-.88942131 1.67-.9h-3c-.6699008.01057869-1.2928108.34627871-1.67.9-3.93 5.62-11.09 9.32-13.87 10.61-.70905744.3226098-1.16305785 1.031007-1.16 1.81z" fill="#fff"/><path id="Rectangle-path" d="m0 14.32h2v8h-2z" fill="#fff"/><g fill="#ff414c"><path id="Shape" d="m38 28c-1.4630565-.0010773-2.9171714.228058-4.309.679-.5006383.1881093-.7646547.736829-.5992307 1.245414s.7017264.7969905 1.2172307.654586c5.2761066-1.7052365 11.0335092.4264203 13.9269944 5.1564178 2.8934853 4.7299974 2.1695095 10.8265132-1.751277 14.7472996-3.9207864 3.9207865-10.0173022 4.6447623-14.7472996 1.751277-4.7299975-2.8934852-6.8616543-8.6508878-5.1564178-13.9269944.1424045-.5155043-.146001-1.0518067-.654586-1.2172307s-1.0573047.0985924-1.245414.5992307c-1.8672047 5.7691181.1918225 12.0844903 5.1006103 15.6444031 4.9087878 3.5599129 11.5513396 3.5550322 16.4548907-.0120905 4.9035511-3.5671226 6.9532955-9.8855138 5.0776149-15.6518817-1.8756807-5.766368-7.2503566-9.6697483-13.3141159-9.6694309z"/><path id="Shape" d="m28 34.7c.2974322.000483.5796435-.1314599.77-.36.5500629-.6638284 1.1692168-1.2672268 1.847-1.8.4127612-.3465363.4766538-.9578371.1444699-1.3822344s-.9409353-.5092067-1.3764699-.1917656c-.7895541.6185721-1.5112592 1.319159-2.153 2.09-.2508123.2979433-.3058292.7143981-.1409924 1.0672519.1648369.3528538.5195368.577908.9089924.5767481z"/><circle id="Oval" cx="1" cy="18.32" r="1"/><path id="Shape" d="m52 14.32c.0036885-1.1691801-.6762278-2.232649-1.739-2.72-2.8-1.3-9.71-4.9-13.475-10.28-.5659191-.81672296-1.4924344-1.30867794-2.486-1.32h-16.6c-.9957892.0124524-1.9236719.50714917-2.489 1.327-3.762 5.378-10.675 8.978-13.462 10.273-1.06615942.4849952-1.75014515 1.5487123-1.749 2.72 0 .5522847.44771525 1 1 1s1-.4477153 1-1c.00010801-.3880688.22738797-.7401376.581-.9 2.944-1.369 10.229-5.17 14.266-10.942.1888753-.28943266.5075363-.46800235.853-.478h7.3v3c0 .55228475.4477153 1 1 1s1-.44771525 1-1v-3h7.3c.3438255.00939444.6612974.1864317.85.474 4.04 5.776 11.325 9.577 14.279 10.947.3500528.1624144.5731845.5141106.571.9v14.3c-6.4448029-5.8303216-16.1479956-6.1838553-23-.838v-12.783c0-.5522847-.4477153-1-1-1s-1 .4477153-1 1v14h-11c-.5522847 0-1 .4477153-1 1s.4477153 1 1 1h9.784c-5.4747174 7.0214871-4.9565634 16.9993598 1.216 23.416v3.423c-13.332-2.892-20.633-13.419-22.563-16.606-.28473826-.4680532-.43587016-1.005142-.437-1.553v-8.68h2c.55228475 0 1-.4477153 1-1s-.44771525-1-1-1h-2v-6.68c0-.5522847-.44771525-1-1-1s-1 .4477153-1 1v17.36c.00136649.9129228.25205336 1.8081342.725 2.589 2.057 3.397 9.89 14.709 24.275 17.631.6555385.1406696 1.3334615.1406696 1.989 0 1.4700761-.308575 2.919274-.7093673 4.339-1.2 7.5956027 3.0452596 16.2894347.5766858 21.1512805-6.0058094 4.8618458-6.5824951 4.6648467-15.6178569-.4792805-21.9821906zm-25 43.52v-1.624c.561085.4339002 1.1470872.8345855 1.755 1.2-.579.159-1.166.295-1.755.424zm11 .16c-8.836556 0-16-7.163444-16-16s7.163444-16 16-16 16 7.163444 16 16c-.0104696 8.8322157-7.1677843 15.9895304-16 16z"/><path id="Shape" d="m4.48 38.815c-.47158266.2872381-.62110421.9023358-.334 1.374.322.531.865 1.377 1.621 2.4.21185849.2877775.56115125.4406696.91630308.4010835.35515182-.0395861.6622067-.2656364.80550002-.593s.10105541-.7063061-.1108031-.9940835c-.713-.969-1.223-1.761-1.524-2.257-.28824164-.4705133-.90311774-.6186384-1.374-.331z"/><path id="Shape" d="m9.3 45.307c-.39371575.3871784-.39908788 1.0201952-.012 1.414 2.9409484 3.0405687 6.4266755 5.5018801 10.276 7.256.1286361.0564276.2675321.0857047.408.086.4721023.0004918.8802363-.3292553.9789412-.7909242.098705-.4616689-.1389113-.9294776-.5699412-1.1220758-3.6216664-1.6519918-6.9008426-3.969498-9.667-6.832-.3874559-.3934364-1.02047002-.3983609-1.414-.011z"/><path id="Shape" d="m26 12c.5522847 0 1-.4477153 1-1v-2c0-.55228475-.4477153-1-1-1s-1 .44771525-1 1v2c0 .5522847.4477153 1 1 1z"/><path id="Shape" d="m10 29h-2c-.55228475 0-1 .4477153-1 1s.44771525 1 1 1h2c.5522847 0 1-.4477153 1-1s-.4477153-1-1-1z"/><path id="Shape" d="m43 17c.4043959-.0000863.7689341-.2437275.923678-.6173454.1547439-.373618.0692299-.8036603-.216678-1.0896546l-5-5c-.3923789-.37897221-1.0160848-.37355237-1.4018186.0121814-.3857338.3857338-.3911536 1.0094397-.0121814 1.4018186l5 5c.1874927.1875494.4418052.2929434.707.293z"/><path id="Shape" d="m31.293 11.293c-.3903819.3904999-.3903819 1.0235001 0 1.414l10 10c.3923789.3789722 1.0160848.3735524 1.4018186-.0121814s.3911536-1.0094397.0121814-1.4018186l-10-10c-.3904999-.3903819-1.0235001-.3903819-1.414 0z"/><path id="Shape" d="m39 34c0-.5522847-.4477153-1-1-1s-1 .4477153-1 1v7.586l-3.707 3.707c-.2599566.2510745-.3642126.6228779-.2726972.9725073.0915155.3496295.3645604.6226744.7141899.7141899.3496294.0915154.7214328-.0127406.9725073-.2726972l4-4c.1875494-.1874927.2929434-.4418052.293-.707z"/><path id="Shape" d="m37 49v2c0 .5522847.4477153 1 1 1s1-.4477153 1-1v-2c0-.5522847-.4477153-1-1-1s-1 .4477153-1 1z"/><path id="Shape" d="m47 43c.5522847 0 1-.4477153 1-1s-.4477153-1-1-1h-2c-.5522847 0-1 .4477153-1 1s.4477153 1 1 1z"/><path id="Shape" d="m28 42c0 .5522847.4477153 1 1 1h2c.5522847 0 1-.4477153 1-1s-.4477153-1-1-1h-2c-.5522847 0-1 .4477153-1 1z"/></g></g></g></svg>