<svg height="512" viewBox="0 0 55 60" width="512" xmlns="http://www.w3.org/2000/svg"><g id="Page-1" fill="none" fill-rule="evenodd"><g id="098---Virus-Alert" fill-rule="nonzero"><path id="Shape" d="m51 30v9.68c-.0005183.7300401-.2011183 1.4459747-.58 2.07-2.06 3.4-9.64 14.33-23.63 17.17-.2594892.0562764-.5244967.0831126-.79.0802427v-29.0002427z" fill="#ffe0e2"/><path id="Shape" d="m51 14.32.0000154 15.68h-25.0000154v-29h8.3c.6699008.01057869 1.2928108.34627871 1.67.9 3.93 5.62 11.09 9.32 13.87 10.61.7090574.3226098 1.1630578 1.031007 1.16 1.81z" fill="#ffe7e8"/><path id="Shape" d="m49.84 12.51c-2.78-1.29-9.94-4.99-13.87-10.61-.3771892-.55372129-1.0000992-.88942131-1.67-.9h-3c.6699008.01057869 1.2928108.34627871 1.67.9 3.93 5.62 11.09 9.32 13.87 10.61.7090574.3226098 1.1630578 1.031007 1.16 1.81v15.68h3.0000154l-.0000154-15.68c.0030578-.778993-.4509426-1.4873902-1.16-1.81z" fill="#ffc9cc"/><path id="Shape" d="m26 30v29.0002427c-.2655033.0028699-.5305108-.0239663-.79-.0802427-13.99-2.84-21.57-13.77-23.63-17.17-.37888169-.6240253-.57948172-1.3399599-.58-2.07v-9.68z" fill="#ffe7e8"/><path id="Shape" d="m26 1v29h-25.00001535l.00001535-15.68c-.00305785-.778993.45094256-1.4873902 1.16-1.81 2.78-1.29 9.94-4.99 13.87-10.61.3771892-.55372129 1.0000992-.88942131 1.67-.9z" fill="#ffe0e2"/><path id="Rectangle-path" d="m23 1h3v29h-3z" fill="#ff9ea1"/><path id="Shape" d="m53.29 56.008-16.554-28.969c-.356082-.6231635-1.0187764-1.0077461-1.7365-1.0077461s-1.380418.3845826-1.7365 1.0077461l-16.553 28.969c-.3535331.6189128-.3509642 1.3792036.0067432 1.9957132.3577075.6165096 1.0164885.9960569 1.7292568.9962868h33.108c.7127683-.0002299 1.3715493-.3797772 1.7292568-.9962868.3577074-.6165096.3602763-1.3768004.0067432-1.9957132z" fill="#ffe7e8"/><path id="Shape" d="m53.29 56.008-16.554-28.969c-.3213669-.5605923-.8948015-.9303616-1.5380492-.9917842s-1.2762988.1931415-1.6979508.6827842c.088594.0950246.1676401.1985215.236.309l16.554 28.969c.3535331.6189128.3509642 1.3792036-.0067432 1.9957132-.3577075.6165096-1.0164885.9960569-1.7292568.9962868h3c.7127683-.0002299 1.3715493-.3797772 1.7292568-.9962868.3577074-.6165096.3602763-1.3768004.0067432-1.9957132z" fill="#ffc9cc"/><path id="Shape" d="m35 47c-1.1288565.0002488-2.0693622-.8650338-2.163-1.99l-.637-7.66c-.0505807-.6040066.1538796-1.2016235.5638459-1.648065.4099662-.4464414.9880341-.7009752 1.5941541-.701935h1.284c.60612.0009598 1.1841879.2554936 1.5941541.701935.4099663.4464415.6144266 1.0440584.5638459 1.648065l-.638 7.66c-.093606 1.1245835-1.0335276 1.9897287-2.162 1.99z" fill="#ffe0e2"/><rect id="Rectangle-path" fill="#ffe0e2" height="4" rx="1" width="4" x="33" y="51"/><path id="Shape" d="m1 14.32v25.36c.00051828.7300401.20111831 1.4459747.58 2.07 3.69856338 5.9996244 8.936314 10.8993331 15.169 14.19-.3857192.6171457-.4057578 1.3951051-.0523218 2.0312899s1.024554 1.0301683 1.7523218 1.0287101l3 .000004c-.7277678.0014542-1.3988858-.3925293-1.7523218-1.0287141s-.3333974-1.4141442.0523218-2.0312899c-6.232686-3.2906669-11.47043662-8.1903756-15.169-14.19-.37888169-.6240253-.57948172-1.3399599-.58-2.07v-25.36c-.00305785-.778993.45094256-1.4873902 1.16-1.81 2.78-1.29 9.94-4.99 13.87-10.61.3771892-.55372129 1.0000992-.88942131 1.67-.9h-3c-.6699008.01057869-1.2928108.34627871-1.67.9-3.93 5.62-11.09 9.32-13.87 10.61-.70905744.3226098-1.16305785 1.031007-1.16 1.81z" fill="#fff"/><path id="Rectangle-path" d="m0 14.32h2v8h-2z" fill="#fff"/><g fill="#ff414c"><path id="Shape" d="m0 39.68c.00136649.9129228.25205336 1.8081342.725 2.589 3.63636627 5.9098018 8.72932588 10.7868676 14.791 14.164-.1777923.8774021.0488397 1.7882259.6170761 2.4800004s1.4176985 1.0909942 2.3129239 1.0869996h33.108c1.068438-.0017683 2.0553044-.5716524 2.5908911-1.4961575.5355868-.9245051.5390563-2.0640933.0091089-2.9918425l-5.454-9.549c.9266137-1.1841562 1.7859678-2.419436 2.574-3.7.4723399-.7789802.7233417-1.6720071.726-2.583v-25.36c.0036885-1.1691801-.6762278-2.232649-1.739-2.72-2.8-1.3-9.71-4.9-13.475-10.28-.5659191-.81672296-1.4924344-1.30867794-2.486-1.32h-16.6c-.9957892.0124524-1.9236719.50714917-2.489 1.327-3.762 5.378-10.675 8.978-13.462 10.273-1.06615942.4849952-1.75014515 1.5487123-1.749 2.72 0 .5522847.44771525 1 1 1s1-.4477153 1-1c.00010801-.3880688.22738797-.7401376.581-.9 2.944-1.369 10.229-5.17 14.266-10.942.1888753-.28943266.5075363-.46800235.853-.478h7.3v3c0 .55228475.4477153 1 1 1s1-.44771525 1-1v-3h7.3c.3438255.00939444.6612974.1864317.85.474 4.04 5.776 11.325 9.577 14.279 10.947.3500528.1624144.5731845.5141106.571.9v14.679h-10.991l-1.409-2.457c-.5343255-.9340072-1.5279548-1.5103074-2.604-1.5103074s-2.0696745.5763002-2.604 1.5103074l-1.401 2.457h-3.991v-14c0-.5522847-.4477153-1-1-1s-1 .4477153-1 1v14h-11c-.5522847 0-1 .4477153-1 1s.4477153 1 1 1h11v8.485l-8.645 15.129c-5.7014951-3.2045326-10.4917244-7.8099398-13.918-13.381-.28473826-.4680532-.43587016-1.005142-.437-1.553v-8.68h2c.55228475 0 1-.4477153 1-1s-.44771525-1-1-1h-2v-6.68c0-.5522847-.44771525-1-1-1s-1 .4477153-1 1zm50-8.68v8.68c-.0010739.5466492-.1514901 1.0826151-.435 1.55-.425.7-1.073 1.7-1.937 2.855l-7.477-13.085zm-15.868-3.465c.1781085-.3113357.5093183-.5034358.868-.5034358s.6898915.1921001.868.5034358l10.747 18.808.011.018 5.8 10.143c.1788102.3097067.1786223.6913257-.0004927 1.0008562-.1791149.3095305-.5098891.4998504-.8675073.4991438h-33.112c-.3576182.0007066-.6883924-.1896133-.8675073-.4991438-.179115-.3095305-.1793029-.6911495-.0004927-1.0008562l.045-.079.008-.011v-.005zm-7.132 3.465h2.849l-2.849 4.985z"/><circle id="Oval" cx="1" cy="18.32" r="1"/><path id="Shape" d="m4.48 38.815c-.47158266.2872381-.62110421.9023358-.334 1.374.322.531.865 1.377 1.621 2.4.21185849.2877775.56115125.4406696.91630308.4010835.35515182-.0395861.6622067-.2656364.80550002-.593s.10105541-.7063061-.1108031-.9940835c-.713-.969-1.223-1.761-1.524-2.257-.28824164-.4705133-.90311774-.6186384-1.374-.331z"/><path id="Shape" d="m9.3 45.305c-.39483578.3860675-.40199877 1.019097-.016 1.414 1.5385009 1.576275 3.2208004 3.0054764 5.025 4.269.4527072.3022543 1.0640175.1868982 1.3754423-.25955.3114249-.4464482.2085612-1.0599842-.2314423-1.38045-1.7017906-1.1919854-3.2883665-2.5405247-4.739-4.028-.3863454-.3945554-1.01937143-.4012706-1.414-.015z"/><path id="Shape" d="m26 12c.5522847 0 1-.4477153 1-1v-2c0-.55228475-.4477153-1-1-1s-1 .44771525-1 1v2c0 .5522847.4477153 1 1 1z"/><path id="Shape" d="m10 29h-2c-.55228475 0-1 .4477153-1 1s.44771525 1 1 1h2c.5522847 0 1-.4477153 1-1s-.4477153-1-1-1z"/><path id="Shape" d="m43 17c.4043959-.0000863.7689341-.2437275.923678-.6173454.1547439-.373618.0692299-.8036603-.216678-1.0896546l-5-5c-.3923789-.37897221-1.0160848-.37355237-1.4018186.0121814-.3857338.3857338-.3911536 1.0094397-.0121814 1.4018186l5 5c.1874927.1875494.4418052.2929434.707.293z"/><path id="Shape" d="m31.293 11.293c-.3903819.3904999-.3903819 1.0235001 0 1.414l10 10c.3923789.3789722 1.0160848.3735524 1.4018186-.0121814s.3911536-1.0094397.0121814-1.4018186l-10-10c-.3904999-.3903819-1.0235001-.3903819-1.414 0z"/><path id="Shape" d="m35 48c1.6452275-.0090343 3.0135368-1.2681908 3.159-2.907l.638-7.659c.0740927-.8829287-.2248332-1.7565542-.8242864-2.4090177s-1.4446819-1.0241714-2.3307136-1.0249823h-1.284c-.8865538-.0000278-1.7325827.3713152-2.332698 1.0238788s-.8994379 1.5266726-.825302 2.4101212l.638 7.659c.1455721 1.6399486 1.5156202 2.8995089 3.162 2.907zm-1.5-11.622c.2200897-.2422578.5326995-.3796607.86-.378h1.284c.3271612.0005755.6391901.1378729.8606395.3786943.2214493.2408214.3321592.5632434.3053605.8893057l-.638 7.659c-.0552237.6065244-.5629689 1.0713798-1.172 1.073-.6071116-.0041888-1.1119615-.4683739-1.167-1.073l-.638-7.659c-.0289841-.3264758.0818611-.6499259.305-.89z"/><path id="Shape" d="m36 50h-2c-1.1045695 0-2 .8954305-2 2v2c0 1.1045695.8954305 2 2 2h2c1.1045695 0 2-.8954305 2-2v-2c0-1.1045695-.8954305-2-2-2zm-2 4v-2h2v2z"/></g></g></g></svg>