<svg height="512" viewBox="0 0 60 57" width="512" xmlns="http://www.w3.org/2000/svg" xmlns:xlink="http://www.w3.org/1999/xlink"><linearGradient id="lg1"><stop offset="0" stop-color="#f6d8da"/><stop offset=".172" stop-color="#f6d8da"/><stop offset=".2" stop-color="#f6d8da"/><stop offset=".2" stop-color="#dae2f2"/><stop offset=".201" stop-color="#ebeaf2"/><stop offset=".201" stop-color="#f6eff2"/><stop offset=".202" stop-color="#fdf2f2"/><stop offset=".205" stop-color="#fff3f2"/><stop offset=".252" stop-color="#fff3f2"/><stop offset=".26" stop-color="#fff3f2"/><stop offset=".26" stop-color="#f6d8da"/><stop offset=".397" stop-color="#f6d8da"/><stop offset=".42" stop-color="#f6d8da"/><stop offset=".42" stop-color="#dae2f2"/><stop offset=".421" stop-color="#ebeaf2"/><stop offset=".421" stop-color="#f6eff2"/><stop offset=".422" stop-color="#fdf2f2"/><stop offset=".425" stop-color="#fff3f2"/><stop offset=".489" stop-color="#fff3f2"/><stop offset=".5" stop-color="#fff3f2"/><stop offset=".5" stop-color="#f8f0f2"/><stop offset=".5" stop-color="#e7e8f2"/><stop offset=".5" stop-color="#dce3f2"/><stop offset=".5" stop-color="#f3d6d8"/><stop offset=".501" stop-color="#f6d8da"/><stop offset=".706" stop-color="#f6d8da"/><stop offset=".74" stop-color="#f6d8da"/><stop offset=".741" stop-color="#fff3f2"/><stop offset=".835" stop-color="#fff3f2"/><stop offset=".85" stop-color="#fff3f2"/><stop offset=".851" stop-color="#f6d8da"/></linearGradient><linearGradient id="linearGradient-1" x1="8.858%" x2="91.142%" xlink:href="#lg1" y1="-5.736%" y2="112.756%"/><linearGradient id="linearGradient-2" x1="13.719%" x2="96.003%" xlink:href="#lg1" y1="-12.736%" y2="105.756%"/><g id="Page-1" fill="none" fill-rule="evenodd"><g id="099---Computers" fill-rule="nonzero"><path id="Shape" d="m37 44v2c0 1.6568542-1.3431458 3-3 3h-30c-1.65685425 0-3-1.3431458-3-3v-2z" fill="#ffe7e8"/><path id="Shape" d="m37 22v22h-36v-22c0-1.6568542 1.34314575-3 3-3h30c1.6568542 0 3 1.3431458 3 3z" fill="url(#linearGradient-1)"/><path id="Shape" d="m27 56h-16c4 0 4-5 4-5v-2h8v2s0 5 4 5z" fill="#ffe0e2"/><path id="Shape" d="m59 4v22h-22v-4c0-1.6568542-1.3431458-3-3-3h-11v-15c0-1.65685425 1.3431458-3 3-3h30c1.6568542 0 3 1.34314575 3 3z" fill="url(#linearGradient-2)"/><path id="Shape" d="m56 1h-3c1.6568542 0 3 1.34314575 3 3v22h3v-22c0-1.65685425-1.3431458-3-3-3z" fill="#ffe0e2"/><path id="Shape" d="m59 26v2c0 1.6568542-1.3431458 3-3 3h-19v-5z" fill="#ffe7e8"/><path id="Shape" d="m49 38h-12v-7h8v2s0 5 4 5z" fill="#ffe0e2"/><path id="Shape" d="m4 49h3c-1.65685425 0-3-1.3431458-3-3v-24c0-1.6568542 1.34314575-3 3-3h-3c-1.65685425 0-3 1.3431458-3 3v24c0 1.6568542 1.34314575 3 3 3z" fill="#fff"/><path id="Shape" d="m11 56h3c4 0 4-5 4-5v-2h-3v2s0 5-4 5z" fill="#fff"/><path id="Shape" d="m26 4c0-1.65685425 1.3431458-3 3-3h-3c-1.6568542 0-3 1.34314575-3 3v15h3z" fill="#fff"/><path id="Rectangle-path" d="m0 22h2v8h-2z" fill="#fff"/><g fill="#ff414c"><circle id="Oval" cx="1" cy="26" r="1"/><path id="Shape" d="m5 28c.26519481-.0000566.51950727-.1054506.707-.293l4-4c.3789722-.3923789.3735524-1.0160848-.01218142-1.4018186-.3857338-.3857338-1.00943969-.3911536-1.40181858-.0121814l-4 4c-.28590792.2859943-.37142191.7160366-.21667798 1.0896546.15474393.3736179.51928208.6172591.92367798.6173454z"/><path id="Shape" d="m4.293 33.707c.39049985.3903819 1.02350015.3903819 1.414 0l10-10c.3789722-.3923789.3735524-1.0160848-.0121814-1.4018186s-1.0094397-.3911536-1.4018186-.0121814l-10 10c-.39038194.3904999-.39038194 1.0235001 0 1.414z"/><path id="Shape" d="m56 0h-30c-2.209139 0-4 1.790861-4 4v14h-18c-2.209139 0-4 1.790861-4 4 0 .5522847.44771525 1 1 1s1-.4477153 1-1c0-1.1045695.8954305-2 2-2h30c1.1045695 0 2 .8954305 2 2v21h-26c-.55228475 0-1 .4477153-1 1s.44771525 1 1 1h26v1c0 1.1045695-.8954305 2-2 2h-30c-1.1045695 0-2-.8954305-2-2v-1h3c.55228475 0 1-.4477153 1-1s-.44771525-1-1-1h-3v-13c0-.5522847-.44771525-1-1-1s-1 .4477153-1 1v16c0 2.209139 1.790861 4 4 4h10v1c0 .163-.034 4-3 4h-1c-.55228475 0-1 .4477153-1 1s.44771525 1 1 1h18c.5522847 0 1-.4477153 1-1s-.4477153-1-1-1h-1c-2.943 0-3-3.839-3-4v-1h10c2.209139 0 4-1.790861 4-4v-7h12c.5522847 0 1-.4477153 1-1s-.4477153-1-1-1h-1c-2.943 0-3-3.839-3-4v-1h10c2.209139 0 4-1.790861 4-4v-24c0-2.209139-1.790861-4-4-4zm-32.832 55h-8.336c.7593569-1.1962361 1.1643227-2.5831055 1.168-4v-1h6v1c.0036773 1.4168945.4086431 2.8037639 1.168 4zm10.832-37h-10v-14c0-1.1045695.8954305-2 2-2h30c1.1045695 0 2 .8954305 2 2v21h-20v-3c0-2.209139-1.790861-4-4-4zm11.168 19h-7.168v-5h6v1c.0036773 1.4168945.4086431 2.8037639 1.168 4zm10.832-7h-18v-3h20v1c0 1.1045695-.8954305 2-2 2z"/><path id="Shape" d="m27 10c.2651948-.00005664.5195073-.10545063.707-.293l4-4c.2599566-.25107447.3642126-.62287789.2726972-.97250732-.0915155-.34962944-.3645604-.6226744-.7141899-.71418984-.3496294-.09151544-.7214328.01274058-.9725073.27269716l-4 4c-.2859079.28599425-.3714219.71603662-.216678 1.08965456s.5192821.61725909.923678.61734544z"/><path id="Shape" d="m37.707 4.293c-.3904999-.39038194-1.0235001-.39038194-1.414 0l-10 10c-.2599566.2510745-.3642126.6228779-.2726972.9725073.0915155.3496295.3645604.6226744.7141899.7141899.3496294.0915154.7214328-.0127406.9725073-.2726972l10-10c.3903819-.39049985.3903819-1.02350015 0-1.414z"/></g></g></g></svg>