<svg height="512" viewBox="0 0 60 60" width="512" xmlns="http://www.w3.org/2000/svg"><g id="Page-1" fill="none" fill-rule="evenodd"><g id="100---Users" fill-rule="nonzero"><circle id="Oval" cx="30" cy="30" fill="#ffe7e8" r="29"/><path id="Shape" d="m30 1c-.5033333 0-1.0033333.01266667-1.5.038 15.4192225.79012792 27.5158989 13.5225465 27.5158989 28.962s-12.0966764 28.1718721-27.5158989 28.962c.4973333.0253333.9973333.038 1.5.038 16.0162576-.0000002 28.9999996-12.9837424 28.9999996-29s-12.983742-28.99999976-28.9999996-29z" fill="#ffc9cc"/><circle id="Oval" cx="30" cy="30" fill="#ffe0e2" r="25"/><path id="Shape" d="m30 5c-.5 0-1 .019-1.5.049 13.1671239.83401357 23.4196519 11.7564891 23.4196519 24.95s-10.252528 24.1159864-23.4196519 24.95c.5.03 1 .049 1.5.049 13.7193264-.1227131 24.7763954-11.2791248 24.7763954-24.999s-11.057069-24.87628693-24.7763954-24.999z" fill="#ff9ea1"/><path id="Shape" d="m43 28c0 1.6568542-1.3431458 3-3 3-.1882886.0003363-.3760566-.0197817-.56-.06-.6522214 1.6694685-1.7697753 3.1167355-3.22 4.17-.9566677.7539052-1.9928105 1.4010753-3.09 1.93-.9726921.5163722-2.0350591.84221-3.13.96-1.0949409-.11779-2.1573079-.4436278-3.13-.96-1.0971895-.5289247-2.1333323-1.1760948-3.09-1.93-1.4502247-1.0532645-2.5677786-2.5005315-3.22-4.17-.1839434.0402183-.3717114.0603363-.56.06-1.6568542 0-3-1.3431458-3-3s1.3431458-3 3-3v-3.94c3.41-.01 10-.61 10-5.06 0 4.45 6.59 5.05 10 5.06v3.94c1.6568542 0 3 1.3431458 3 3z" fill="#ffc9cc"/><path id="Shape" d="m35 44c0 2.7614237-2.2385763 5-5 5s-5-2.2385763-5-5c1.8419723-1.807702 2.5579615-4.47256 1.87-6.96.9726921.5163722 2.0350591.84221 3.13.96 1.0949409-.11779 2.1573079-.4436278 3.13-.96-.6879615 2.48744.0280277 5.152298 1.87 6.96z" fill="#ffe7e8"/><path id="Shape" d="m46.28 40.19c-2.93.18-8.71-.13-10.06-5.08 1.4502247-1.0532645 2.5677786-2.5005315 3.22-4.17.1839434.0402183.3717114.0603363.56.06 1.6568542 0 3-1.3431458 3-3s-1.3431458-3-3-3v-3.94c-3.41-.01-10-.61-10-5.06 0 4.45-6.59 5.05-10 5.06v3.94c-1.6568542 0-3 1.3431458-3 3s1.3431458 3 3 3c.1882886.0003363.3760566-.0197817.56-.06.6522214 1.6694685 1.7697753 3.1167355 3.22 4.17-1.35 4.95-7.13 5.26-10.06 5.08-.3333413-.0287706-.630208-.2223423-.7909856-.5157613-.1607775-.2934191-.1641608-.6478036-.0090144-.9442387 2.08-4.24-2.1-11.33 2.08-20.73 4-9 15-8 15-8s11-1 15 8c4.18 9.4 0 16.49 2.08 20.73.1551464.2964351.1517631.6508196-.0090144.9442387-.1607776.293419-.4576443.4869907-.7909856.5157613z" fill="#ffe7e8"/><path id="Shape" d="m47.08 38.73c-2.08-4.24 2.1-11.33-2.08-20.73-4-9-15-8-15-8-.4992127-.03470045-.9999082-.04304538-1.5-.025 3.147.088 10.41 1.072 13.5 8.025 4.18 9.4 0 16.49 2.08 20.73.1373938.2643562.1497609.5762071.0337329.8506133s-.3483664.4827874-.6337329.5683867c.9308843.0857621 1.8670037.0994695 2.8.041.3333413-.0287706.630208-.2223423.7909856-.5157613.1607775-.2934191.1641608-.6478036.0090144-.9442387z" fill="#ffc9cc"/><path id="Shape" d="m18 21s.8.07 2 .06" fill="#ffe7e8"/><path id="Shape" d="m40 21.06c1.2.01 2-.06 2-.06" fill="#ffe7e8"/><path id="Shape" d="m44.93 50.05c-8.8592661 6.5998836-21.0007339 6.5998836-29.86 0 .4684146-3.4678572 3.4306529-6.0539382 6.93-6.05h3c0 2.7614237 2.2385763 5 5 5s5-2.2385763 5-5h3c3.4993471-.0039382 6.4615854 2.5821428 6.93 6.05z" fill="#ffe7e8"/><path id="Shape" d="m38 44h-3c3.4993471-.0039382 6.4615854 2.5821428 6.93 6.05-3.9013551 2.9094338-8.5712362 4.6090898-13.43 4.888.5.03 1 .062 1.5.062 5.3811044.0085129 10.6198388-1.728375 14.93-4.95-.4684146-3.4678572-3.4306529-6.0539382-6.93-6.05z" fill="#ffc9cc"/><path id="Shape" d="m30 59c.486 0 .966-.019 1.444-.042-15.3318609-.8576992-27.33739543-13.5183156-27.38009456-28.8740892s11.89224066-28.08296029 27.21909456-29.0259108c-.427-.022-.851-.058-1.283-.058-16.0162576.00000024-28.99999957 12.9837424-28.99999957 29s12.98374197 28.9999998 28.99999957 29z" fill="#fff"/><path id="Shape" d="m3.079 37.624-1.925.544-.514-2c-.129-.681-.216-1.368-.325-2.047l-.155-1.021-.06-1.034-.1-2.066h2l.1 1.929.05.965.147.954c.1.635.182 1.275.3 1.907z" fill="#fff"/><g fill="#ff414c"><path id="Shape" d="m1.324 34.989c-.55228473.0027614-1.00223852-.4427153-1.00499994-.995-.00276143-.5522847.44271521-1.0022385.99499994-1.005h.01c.55228475 0 1 .4477153 1 1s-.44771525 1-1 1z"/><path id="Shape" d="m30 0c-16.5607751.01873704-29.98126296 13.4392249-30 30 0 .5522847.44771525 1 1 1s1-.4477153 1-1c-.03703445-13.0419552 8.9105865-24.39266116 21.6006558-27.40199811s25.7817291 3.11494978 31.6048746 14.78478031c5.8231455 11.6698305 2.8447432 25.8129406-7.1902289 34.1432048-10.0349722 8.3302642-24.4846519 8.654611-34.8833015.783013-2.4153064-1.8222826-4.52302272-4.0198039-6.243-6.509-1.68838228-2.5090098-2.97391975-5.2666733-3.81-8.173-.15022145-.5315741-.70292593-.8407215-1.2345-.6905s-.84072145.7029259-.6905 1.2345c.89592027 3.115382 2.27429228 6.0712055 4.085 8.76 1.84267172 2.6644377 4.09948786 5.0171306 6.685 6.969 10.4185939 7.8832729 24.7421321 8.1137639 35.4089777.5697931s15.2217202-21.1259437 11.2600289-33.5757668c-3.9616913-12.44982296-15.5280523-20.9018146-28.5930066-20.8940263z"/><path id="Shape" d="m7.489 19.084c-.50589368-.2214235-1.0955042.009138-1.317.515-4.84931166 11.1011916-1.38169453 24.080485 8.358 31.284.017.011.03.023.047.033 9.1647618 6.7786263 21.6812382 6.7786263 30.846 0 .017-.01.03-.022.047-.033 10.6231909-7.8704177 13.6464056-22.4609978 7.0251257-33.9045249-6.6212799-11.44352708-20.7774719-16.09401962-32.8951257-10.8064751-.3515292.12617922-.603445.43773808-.653235.80789332-.04979.37015525.1108452.73720681.4165381.95178968s.7054884.24092888 1.0366969.068317c3.0261195-1.32694271 6.2957436-2.0081144 9.6-2 10.0658659-.00565531 19.0644381 6.2741152 22.5316361 15.723995 3.467198 9.4498797.6653283 20.0592786-7.0156361 26.565005-1.1468519-3.1658148-4.1488738-5.2783339-7.516-5.289h-2.577c-1.3071095-1.4351686-1.8246255-3.4214728-1.384-5.312.5892887-.3028044 1.1611816-.6383283 1.713-1.005 1.562 3.2 5.327 4.834 10.6 4.505.6583564-.0449081 1.250272-.4171088 1.576-.991.334996-.5870956.3541375-1.3028385.051-1.907-.733-1.493-.545-3.533-.308-6.116.36-3.926.809-8.812-1.756-14.58-4.043-9.094-14.815-8.67-15.915-8.594-1.107-.077-11.871-.5-15.914 8.6-2.565 5.768-2.116 10.654-1.756 14.58.237 2.583.425 4.623-.3 6.108-.3056632.6061021-.2876445 1.3249724.048 1.915.3277225.5761844.9234871.9486782 1.585.991.44.028.867.041 1.285.041 4.59 0 7.877-1.613 9.309-4.544.5509129.3643962 1.1214403.6982332 1.709 1 .4382531 1.8904063-.0810945 3.8754433-1.389 5.309h-2.577c-3.3671262.0106661-6.3691481 2.1231852-7.516 5.289-8.08738515-6.8417153-10.72376219-18.181308-6.484-27.889.22124771-.504535-.00724499-1.092982-.511-1.316zm16.876 15.223c-1.2826629-.930455-2.2734005-2.2073825-2.856-3.681-.1616848-.4872036-.666003-.7728544-1.167-.661-.1124324.0237866-.2270802.0355195-.342.035-1.1045695 0-2-.8954305-2-2s.8954305-2 2-2c.5522847 0 1-.4477153 1-1v-2.959c2.662-.1 6.385-.6 8.436-2.487.2036992-.1867981.3922885-.3894312.564-.606.1717115.2165688.3603008.4192019.564.606 2.051 1.886 5.774 2.388 8.436 2.488v2.958c0 .5522847.4477153 1 1 1 1.1045695 0 2 .8954305 2 2s-.8954305 2-2 2c-.1149198.0005195-.2295676-.0112134-.342-.035-.500997-.1118544-1.0053152.1737964-1.167.661-.5825995 1.4736175-1.5733371 2.750545-2.856 3.681l-.054.04c-1.6073958 1.3399586-3.5270295 2.2524811-5.581 2.653-2.0539705-.4005189-3.9736042-1.3130414-5.581-2.653zm-10.548 4.864c.981-2 .76-4.4.5-7.18-.34-3.695-.761-8.293 1.592-13.585 3.654-8.222 13.576-7.449 14-7.41.0591815.0060025.1188185.0060025.178 0 .422-.04 10.342-.814 14 7.41 2.353 5.292 1.932 9.89 1.592 13.585-.255 2.78-.476 5.182.541 7.2-2.74.167-7.391-.129-8.829-3.755 1.134029-.9426234 2.0570241-2.1133178 2.709-3.436 1.9949968-.0494197 3.6483744-1.5617232 3.8750542-3.5444161.2266798-1.9826928-1.0426928-3.8291522-2.9750542-4.3275839v-2.076c.614-.019 1.014-.05 1.083-.056.5511802-.0458396.9608396-.5298198.915-1.081-.0458397-.5511802-.5298198-.9608396-1.081-.915-.463.038-1.127.064-1.9.06-.007 0-.013 0-.021 0s-.014 0-.021 0c-2.575-.018-6.341-.4-8.061-1.983-.5958381-.5238269-.9302739-1.2838085-.914-2.077 0-.5522847-.4477153-1-1-1s-1 .4477153-1 1c.016458.7952219-.3195949 1.5570151-.918 2.081-1.72 1.585-5.485 1.965-8.06 1.983-.008 0-.014 0-.022 0s-.014 0-.022 0c-.768 0-1.433-.022-1.9-.06-.5511802-.0444589-1.0340411.3663198-1.0785.9175s.3663198 1.0340411.9175 1.0785c.069.006.474.037 1.083.055v2.076c-1.9270737.5026501-3.1908297 2.3463788-2.9645258 4.3250291.2263038 1.9786502 1.8737234 3.4894195 3.8645258 3.5439709.6508641 1.32312 1.5728344 2.4944925 2.706 3.438-1.434 3.626-6.082 3.922-8.789 3.733zm14.254-.577c.6190501.2311361 1.2693012.3679956 1.929.406.6596988-.0380044 1.3099499-.1748639 1.929-.406-.1709022 2.1290616.5677477 4.2309258 2.033 5.785-.1844735 2.0505876-1.9031314 3.6215733-3.962 3.6215733s-3.7775265-1.5709857-3.962-3.6215733c1.4652523-1.5540742 2.2039022-3.6559384 2.033-5.785zm-6.071 6.406h2.083c.4856527 2.8893814 2.9870881 5.0054594 5.917 5.0054594s5.4313473-2.116078 5.917-5.0054594h2.083c2.7684818.0117861 5.1687074 1.9180786 5.807 4.612-8.2749564 5.8507-19.3390436 5.8507-27.614 0 .6382926-2.6939214 3.0385182-4.6002139 5.807-4.612z"/><path id="Shape" d="m11.572 14.641c.6115454-.7309245 1.2649763-1.4257583 1.957-2.081.401511-.3796958.4191957-1.012989.0395-1.4145-.3796958-.401511-1.012989-.4191958-1.4145-.0395-.7489417.7091305-1.4558127 1.4614123-2.117 2.253-.2324007.2738262-.30010947.6512502-.17738513.9887848s.41703093.5833334.77103173.6439496c.3540007.0606163.71332-.0732608.9413534-.3507344z"/></g></g></g></svg>