<svg height="512" viewBox="0 0 60 60" width="512" xmlns="http://www.w3.org/2000/svg"><g id="Page-1" fill="none" fill-rule="evenodd"><g id="102---Download" fill-rule="nonzero"><circle id="Oval" cx="30" cy="30" fill="#ffe0e2" r="29"/><path id="Shape" d="m30 1c-.5033333 0-1.0033333.01266667-1.5.038 15.4192225.79012792 27.5158989 13.5225465 27.5158989 28.962s-12.0966764 28.1718721-27.5158989 28.962c.4973333.0253333.9973333.038 1.5.038 16.0162576-.0000002 28.9999996-12.9837424 28.9999996-29s-12.983742-28.99999976-28.9999996-29z" fill="#ff9ea1"/><circle id="Oval" cx="30" cy="30" fill="#ffe7e8" r="25"/><path id="Shape" d="m30 5c-.5 0-1 .019-1.5.049 13.1671239.83401357 23.4196519 11.7564891 23.4196519 24.95s-10.252528 24.1159864-23.4196519 24.95c.5.03 1 .049 1.5.049 13.7193264-.1227131 24.7763954-11.2791248 24.7763954-24.999s-11.057069-24.87628693-24.7763954-24.999z" fill="#ffc9cc"/><path id="Shape" d="m34 27c0 .5522847.4477153 1 1 1h2.865c.3879065.0001454.7407342.2246105.9052432.5759056.1645089.3512952.111017.7660368-.1372432 1.0640944l-7.865 9.438c-.1899952.2278341-.4713411.3595502-.768.3595502s-.5780048-.1317161-.768-.3595502l-7.865-9.438c-.2482602-.2980576-.3017521-.7127992-.1372432-1.0640944.164509-.3512951.5173367-.5757602.9052432-.5759056h2.865c.5522847 0 1-.4477153 1-1v-6c0-.5522847.4477153-1 1-1h6c.5522847 0 1 .4477153 1 1z" fill="#ffe7e8"/><path id="Shape" d="m38.633 29.64-7.865 9.438c-.1899952.2278341-.4713411.3595502-.768.3595502s-.5780048-.1317161-.768-.3595502l-.732-.878 7.133-8.56c.2482602-.2980576.3017521-.7127992.1372432-1.0640944-.164509-.3512951-.5173367-.5757602-.9052432-.5759056h-2.865c-.5522847 0-1-.4477153-1-1v-6c0-.5522847-.4477153-1-1-1h3c.5522847 0 1 .4477153 1 1v6c0 .5522847.4477153 1 1 1h2.865c.3879065.0001454.7407342.2246105.9052432.5759056.1645089.3512952.111017.7660368-.1372432 1.0640944z" fill="#ffc9cc"/><path id="Shape" d="m30 59c.486 0 .966-.019 1.444-.042-15.3318363-.857976-27.33713837-13.5187955-27.37957227-28.8745608-.04243389-15.3557652 11.89271197-28.08274146 27.21957227-29.0254392-.428-.022-.851-.058-1.284-.058-16.0162576.00000024-28.99999957 12.9837424-28.99999957 29s12.98374197 28.9999998 28.99999957 29z" fill="#fff"/><path id="Shape" d="m3.079 37.624-1.925.544-.514-2c-.129-.681-.216-1.368-.325-2.047l-.155-1.021-.06-1.034-.1-2.066h2l.1 1.929.05.965.147.954c.1.635.182 1.275.3 1.907z" fill="#fff"/><g fill="#ff414c"><path id="Shape" d="m1.325 34.989c-.55228475.0030376-1.00246243-.4422153-1.0055-.9945s.44221525-1.0024624.9945-1.0055h.011c.55228475 0 1 .4477153 1 1s-.44771525 1-1 1z"/><path id="Shape" d="m30 0c-16.5607751.01873704-29.98126296 13.4392249-30 30 0 .5522847.44771525 1 1 1s1-.4477153 1-1c-.03703445-13.0419552 8.9105865-24.39266116 21.6006558-27.40199811s25.7817291 3.11494978 31.6048746 14.78478031c5.8231455 11.6698305 2.8447432 25.8129406-7.1902289 34.1432048-10.0349722 8.3302642-24.4846519 8.654611-34.8833015.783013-2.4153064-1.8222826-4.52302272-4.0198039-6.243-6.509-1.68838228-2.5090098-2.97391975-5.2666733-3.81-8.173-.15022145-.5315741-.70292593-.8407215-1.2345-.6905s-.84072145.7029259-.6905 1.2345c.89592027 3.115382 2.27429228 6.0712055 4.085 8.76 1.84267172 2.6644377 4.09948786 5.0171306 6.685 6.969 10.4185939 7.8832729 24.7421321 8.1137639 35.4089777.5697931s15.2217202-21.1259437 11.2600289-33.5757668c-3.9616913-12.44982296-15.5280523-20.9018146-28.5930066-20.8940263z"/><path id="Shape" d="m34.762 49.428c-1.5586296.3810627-3.1574646.573111-4.762.572-.5522847 0-1 .4477153-1 1s.4477153 1 1 1c1.7650199.0010376 3.5237217-.2108259 5.238-.631.3590181-.0734995.6490751-.3374891.7559582-.6880204.1068831-.3505314.0134692-.7314479-.243459-.9927601-.2569282-.2613123-.6362098-.3611571-.9884992-.2602195z"/><path id="Shape" d="m39.122 48.941c.2641108.4847591.8710741.6638043 1.356.4 1.104242-.6019048 2.1556489-1.2960408 3.143-2.075.4047391-.3504446.461676-.9574863.129162-1.3770808-.3325139-.4195946-.9365057-.5028735-1.370162-.1889192-.8976887.7088468-1.8537684 1.3404348-2.858 1.888-.4829893.264043-.6617722.8687762-.4 1.353z"/><path id="Shape" d="m47.809 42.9c2.7323821-3.7453612 4.2003772-8.2638858 4.191-12.9 0-.5522847-.4477153-1-1-1s-1 .4477153-1 1c.0089697 4.214786-1.3252252 8.3228033-3.809 11.728-.2932003.4467484-.1833582 1.0450717.2494062 1.358545s1.0355133.2313161 1.3685938-.186545z"/><path id="Shape" d="m7.489 19.084c-.24305211-.1066464-.51853112-.1122921-.76574858-.0156935-.24721747.0965987-.44589061.2875163-.55225142.5306935-1.43872519 3.2784187-2.17812396 6.8207893-2.171 10.401 0 14.3594035 11.6405965 26 26 26s26-11.6405965 26-26-11.6405965-26-26-26c-3.5799929-.00713892-7.1221075.73261809-10.4 2.172-.3515292.12617922-.603445.43773808-.653235.80789332-.04979.37015525.1108452.73720681.4165381.95178968s.7054884.24092888 1.0366969.068317c3.0261823-1.32674615 6.2957645-2.00790911 9.6-2 13.254834 0 24 10.745166 24 24s-10.745166 24-24 24-24-10.745166-24-24c-.00744034-3.3041877.67370269-6.5736743 2-9.6.22124771-.504535-.00724499-1.092982-.511-1.316z"/><path id="Shape" d="m11.572 14.641c.6113037-.7311389 1.2647475-1.4259864 1.957-2.081.401511-.3794196.4194196-1.012489.04-1.414s-1.012489-.4194196-1.414-.04c-.7492326.709153-1.4564352 1.4614323-2.118 2.253-.2324007.2738262-.30010947.6512502-.17738513.9887848s.41703093.5833334.77103173.6439496c.3540007.0606163.71332-.0732608.9413534-.3507344z"/><path id="Shape" d="m34 24c.5522847 0 1-.4477153 1-1v-2c0-1.1045695-.8954305-2-2-2h-6c-1.1045695 0-2 .8954305-2 2v6h-2.865c-.7760183.0003555-1.4817842.4495792-1.8106311 1.1524761-.328847.702897-.2214087 1.5325743.2756311 2.1285239l7.864 9.437c.3799873.4560263.9429089.7197001 1.5365.7197001s1.1565127-.2636738 1.5365-.7197001l7.863-9.438c.4964051-.5959764.6034646-1.4252273.2746989-2.1277364-.3287656-.7025091-1.0340666-1.1515852-1.8096989-1.1522636h-2.865c0-.5522847-.4477153-1-1-1s-1 .4477153-1 1c0 1.1045695.8954305 2 2 2h2.865l-7.865 9.438-7.865-9.438h2.865c1.1045695 0 2-.8954305 2-2v-6h6v2c0 .5522847.4477153 1 1 1z"/></g></g></g></svg>