<svg height="512" viewBox="0 0 60 60" width="512" xmlns="http://www.w3.org/2000/svg"><g id="Page-1" fill="none" fill-rule="evenodd"><g id="103---Task-View" fill-rule="nonzero"><path id="Shape" d="m42 1v10c0 2.209139-1.790861 4-4 4h-33c-2.209139 0-4-1.790861-4-4v-10z" fill="#ffe7e8"/><path id="Shape" d="m39 1v10c0 2.209139-1.790861 4-4 4h3c2.209139 0 4-1.790861 4-4v-10z" fill="#ffc9cc"/><rect id="Rectangle-path" fill="#ffe7e8" height="22" rx="4" width="41" x="1" y="19"/><path id="Shape" d="m38 19h-3c2.209139 0 4 1.790861 4 4v14c0 2.209139-1.790861 4-4 4h3c2.209139 0 4-1.790861 4-4v-14c0-2.209139-1.790861-4-4-4z" fill="#ffc9cc"/><circle id="Oval" cx="9" cy="30" fill="#ffe0e2" r="4"/><path id="Shape" d="m11.64 1c1.2508422 1.09888683 1.6901776 2.85768247 1.1030101 4.41569176-.5871674 1.55800929-2.0780301 2.58937064-3.7430101 2.58937064-1.66498005 0-3.15584269-1.03136135-3.74301012-2.58937064-.58716744-1.55800929-.14783211-3.31680493 1.10301012-4.41569176" fill="#ffe0e2"/><path id="Shape" d="m42 59v-10c0-2.209139-1.790861-4-4-4h-33c-2.209139 0-4 1.790861-4 4v10z" fill="#ffe7e8"/><path id="Shape" d="m38 45h-3c2.209139 0 4 1.790861 4 4v10h3v-10c0-2.209139-1.790861-4-4-4z" fill="#ffc9cc"/><path id="Shape" d="m6.36 59c-1.25084223-1.0988868-1.69017756-2.8576825-1.10301012-4.4156918.58716743-1.5580093 2.07803007-2.5893706 3.74301012-2.5893706 1.66498 0 3.1558427 1.0313613 3.7430101 2.5893706.5871675 1.5580093.1478321 3.316805-1.1030101 4.4156918" fill="#ffe0e2"/><path id="Shape" d="m54 3 .0000277 7.29c-1.3053314-.386641-2.694724-.386641-4.0000277 0v-7.29c.0032948-1.10320187.8967981-1.9967052 2-2 .5305905-.00282307 1.0395388.2101411 1.41.59.3798589.3704612.5928231.87940947.59 1.41z" fill="#ffe0e2"/><path id="Shape" d="m54 23.71v33.29c0 1.1045695-.8954305 2-2 2s-2-.8954305-2-2v-33.29" fill="#ffe0e2"/><path id="Shape" d="m59 17c.0007944 3.0963377-2.0327335 5.8253322-5 6.71-1.3053037.386641-2.6946963.386641-4 0-2.9696569-.8824731-5.0060341-3.6119972-5.0060341-6.71s2.0363772-5.8275269 5.0060341-6.71c1.3053037-.386641 2.6946963-.386641 4 0 2.9672665.8846678 5.0007944 3.6136623 5 6.71z" fill="#ffe7e8"/><circle id="Oval" cx="52" cy="17" fill="#ffe7e8" r="3"/><circle id="Oval" cx="9" cy="30" fill="#ffe7e8" r="1"/><circle id="Oval" cx="9" cy="4" fill="#ffe0e2" r="1"/><circle id="Oval" cx="9" cy="56" fill="#ffe7e8" r="1"/><path id="Shape" d="m4 49c0-2.209139 1.790861-4 4-4h-3c-2.209139 0-4 1.790861-4 4v10h3z" fill="#fff"/><path id="Shape" d="m5 15h3c-2.209139 0-4-1.790861-4-4v-10h-3v10c0 2.209139 1.790861 4 4 4z" fill="#fff"/><path id="Shape" d="m5 41h3c-2.209139 0-4-1.790861-4-4v-14c0-2.209139 1.790861-4 4-4h-3c-2.209139 0-4 1.790861-4 4v14c0 2.209139 1.790861 4 4 4z" fill="#fff"/><path id="Rectangle-path" d="m0 29h2v8h-2z" fill="#fff"/><g fill="#ff414c"><path id="Shape" d="m2 11v-10c0-.55228475-.44771525-1-1-1s-1 .44771525-1 1v10c.00330612 2.7600532 2.23994685 4.9966939 5 5h33c2.7600532-.0033061 4.9966939-2.2399468 5-5v-10c0-.55228475-.4477153-1-1-1s-1 .44771525-1 1v10c0 1.6568542-1.3431458 3-3 3h-33c-1.65685425 0-3-1.3431458-3-3z"/><circle id="Oval" cx="1" cy="33" r="1"/><path id="Shape" d="m5 42h33c2.7600532-.0033061 4.9966939-2.2399468 5-5v-14c-.0033061-2.7600532-2.2399468-4.9966939-5-5h-33c-2.76005315.0033061-4.99669388 2.2399468-5 5v6c0 .5522847.44771525 1 1 1s1-.4477153 1-1v-6c0-1.6568542 1.34314575-3 3-3h33c1.6568542 0 3 1.3431458 3 3v14c0 1.6568542-1.3431458 3-3 3h-33c-1.65685425 0-3-1.3431458-3-3 0-.5522847-.44771525-1-1-1s-1 .4477153-1 1c.00330612 2.7600532 2.23994685 4.9966939 5 5z"/><path id="Shape" d="m9 35c2.7614237 0 5-2.2385763 5-5s-2.2385763-5-5-5c-2.76142375 0-5 2.2385763-5 5 .00330612 2.7600532 2.23994685 4.9966939 5 5zm0-8c1.6568542 0 3 1.3431458 3 3s-1.3431458 3-3 3c-1.65685425 0-3-1.3431458-3-3s1.34314575-3 3-3z"/><circle id="Oval" cx="9" cy="30" r="1"/><path id="Shape" d="m7.11.34c-.36447013-.41400491-.99533626-.45472039-1.41-.091-1.56355279 1.37360854-2.11272195 3.57210309-1.37876266 5.5196147.7339593 1.94751162 2.5975376 3.23671329 4.67876266 3.23671329 2.0812251 0 3.9448034-1.28920167 4.6787627-3.23671329.7339593-1.94751161.1847901-4.14600616-1.3787627-5.5196147-.4158202-.34906296-1.0341976-.30258211-1.3931652.10471842-.3589675.40730053-.3273798 1.02661735.0711652 1.39528158.9386801.82390946 1.2686944 2.14319183.8284922 3.31202426-.4402022 1.16883242-1.5585137 1.94265066-2.8074922 1.94265066-1.24897846 0-2.36729001-.77381824-2.80749219-1.94265066-.44020218-1.16883243-.11018795-2.4881148.82849219-3.31202426.41305126-.36466651.45329752-.99474414.09-1.409z"/><circle id="Oval" cx="9" cy="4" r="1"/><path id="Shape" d="m0 59c0 .5522847.44771525 1 1 1s1-.4477153 1-1v-10c0-1.6568542 1.34314575-3 3-3h33c1.6568542 0 3 1.3431458 3 3v10c0 .5522847.4477153 1 1 1s1-.4477153 1-1v-10c-.0033061-2.7600532-2.2399468-4.9966939-5-5h-33c-2.76005315.0033061-4.99669388 2.2399468-5 5z"/><path id="Shape" d="m9 51c-2.07864287.0025155-3.9389176 1.2908203-4.67235756 3.2357697-.73343997 1.9449494-.18704298 4.1408095 1.37235756 5.5152303.41582023.349063 1.03419764.3025821 1.39316518-.1047184.35896753-.4073006.32737979-1.0266174-.07116518-1.3952816-.93868014-.8239095-1.26869437-2.1431918-.82849219-3.3120243.44020218-1.1688324 1.55851373-1.9426506 2.80749219-1.9426506 1.2489785 0 2.36729.7738182 2.8074922 1.9426506.4402022 1.1688325.1101879 2.4881148-.8284922 3.3120243-.398545.3686642-.4301327.987981-.0711652 1.3952816.3589676.4073005.977345.4537814 1.3931652.1047184 1.5596734-1.3746629 2.1059601-3.5710204 1.3720022-5.5161643s-2.5949937-3.2331504-4.6740022-3.2348357z"/><circle id="Oval" cx="9" cy="56" r="1"/><path id="Shape" d="m17 26h2c.5522847 0 1-.4477153 1-1s-.4477153-1-1-1h-2c-.5522847 0-1 .4477153-1 1s.4477153 1 1 1z"/><path id="Shape" d="m36 24h-13c-.5522847 0-1 .4477153-1 1s.4477153 1 1 1h13c.5522847 0 1-.4477153 1-1s-.4477153-1-1-1z"/><path id="Shape" d="m17 36h2c.5522847 0 1-.4477153 1-1s-.4477153-1-1-1h-2c-.5522847 0-1 .4477153-1 1s.4477153 1 1 1z"/><path id="Shape" d="m36 34h-13c-.5522847 0-1 .4477153-1 1s.4477153 1 1 1h13c.5522847 0 1-.4477153 1-1s-.4477153-1-1-1z"/><path id="Shape" d="m17 31h14c.5522847 0 1-.4477153 1-1s-.4477153-1-1-1h-14c-.5522847 0-1 .4477153-1 1s.4477153 1 1 1z"/><path id="Shape" d="m17 10h2c.5522847 0 1-.44771525 1-1s-.4477153-1-1-1h-2c-.5522847 0-1 .44771525-1 1s.4477153 1 1 1z"/><path id="Shape" d="m22 9c0 .55228475.4477153 1 1 1h13c.5522847 0 1-.44771525 1-1s-.4477153-1-1-1h-13c-.5522847 0-1 .44771525-1 1z"/><path id="Shape" d="m31 3h-14c-.5522847 0-1 .44771525-1 1s.4477153 1 1 1h14c.5522847 0 1-.44771525 1-1s-.4477153-1-1-1z"/><path id="Shape" d="m36 29h-1c-.5522847 0-1 .4477153-1 1s.4477153 1 1 1h1c.5522847 0 1-.4477153 1-1s-.4477153-1-1-1z"/><path id="Shape" d="m17 52h2c.5522847 0 1-.4477153 1-1s-.4477153-1-1-1h-2c-.5522847 0-1 .4477153-1 1s.4477153 1 1 1z"/><path id="Shape" d="m36 50h-13c-.5522847 0-1 .4477153-1 1s.4477153 1 1 1h13c.5522847 0 1-.4477153 1-1s-.4477153-1-1-1z"/><path id="Shape" d="m17 57h14c.5522847 0 1-.4477153 1-1s-.4477153-1-1-1h-14c-.5522847 0-1 .4477153-1 1s.4477153 1 1 1z"/><path id="Shape" d="m36 55h-1c-.5522847 0-1 .4477153-1 1s.4477153 1 1 1h1c.5522847 0 1-.4477153 1-1s-.4477153-1-1-1z"/><path id="Shape" d="m55 9.589v-6.589c.0059317-.79169411-.3094302-1.55195434-.874-2.107-.5571583-.5752473-1.3251808-.89784564-2.126-.893-1.6568542 0-3 1.34314575-3 3v6.589c-3.0218812 1.2198075-5.0004882 4.1522124-5.0004882 7.411s1.978607 6.1911925 5.0004882 7.411v32.589c0 1.6568542 1.3431458 3 3 3s3-1.3431458 3-3v-32.589c3.0218812-1.2198075 5.0004882-4.1522124 5.0004882-7.411s-1.978607-6.1911925-5.0004882-7.411zm-4-6.589c0-.55228475.4477153-1 1-1 .2693445-.00039544.526929.11030803.712.306.1865985.18239634.2906276.43307757.288.694v6.069c-.6634928-.09199843-1.3365072-.09199843-2 0zm2 54c0 .5522847-.4477153 1-1 1s-1-.4477153-1-1v-32.069c.6634928.0919984 1.3365072.0919984 2 0zm-1-34c-3.3137085 0-6-2.6862915-6-6s2.6862915-6 6-6 6 2.6862915 6 6c-.0033074 3.3123376-2.6876624 5.9966926-6 6z"/><path id="Shape" d="m52 13c-2.209139 0-4 1.790861-4 4s1.790861 4 4 4 4-1.790861 4-4-1.790861-4-4-4zm0 6c-1.1045695 0-2-.8954305-2-2s.8954305-2 2-2 2 .8954305 2 2-.8954305 2-2 2z"/></g></g></g></svg>