<svg height="512" viewBox="0 0 60 60" width="512" xmlns="http://www.w3.org/2000/svg"><g id="Page-1" fill="none" fill-rule="evenodd"><g id="106---Shuffle" fill-rule="nonzero"><circle id="Oval" cx="30" cy="30" fill="#ffe0e2" r="29"/><path id="Shape" d="m30 1c-.5033333 0-1.0033333.01266667-1.5.038 15.4192225.79012792 27.5158989 13.5225465 27.5158989 28.962s-12.0966764 28.1718721-27.5158989 28.962c.4973333.0253333.9973333.038 1.5.038 16.0162576-.0000002 28.9999996-12.9837424 28.9999996-29s-12.983742-28.99999976-28.9999996-29z" fill="#ff9ea1"/><circle id="Oval" cx="30" cy="30" fill="#ffe7e8" r="25"/><path id="Shape" d="m30 5c-.5 0-1 .019-1.5.049 13.1671239.83401357 23.4196519 11.7564891 23.4196519 24.95s-10.252528 24.1159864-23.4196519 24.95c.5.03 1 .049 1.5.049 13.7193264-.1227131 24.7763954-11.2791248 24.7763954-24.999s-11.057069-24.87628693-24.7763954-24.999z" fill="#ffc9cc"/><path id="Shape" d="m26.013 24c.3939053-.0453424.7351525-.2939981.8989965-.6550693.1638441-.3610713.1262663-.7816271-.0989965-1.1079307l-3.013-4.77c-.1642956-.2867606-.4695084-.4636508-.8-.4636508s-.6357044.1768902-.8.4636508l-3.013 4.77c-.2252628.3263036-.2628406.7468594-.0989965 1.1079307.163844.3610712.5050912.6097269.8989965.6550693" fill="#ffe7e8"/><path id="Shape" d="m33.987 24c-.3939053-.0453424-.7351525-.2939981-.8989965-.6550693-.1638441-.3610713-.1262663-.7816271.0989965-1.1079307l3.013-4.77c.1642956-.2867606.4695084-.4636508.8-.4636508s.6357044.1768902.8.4636508l3.013 4.77c.2252628.3263036.2628406.7468594.0989965 1.1079307-.163844.3610712-.5050912.6097269-.8989965.6550693" fill="#ffe7e8"/><path id="Shape" d="m30 59c.486 0 .966-.019 1.444-.042-15.3318363-.857976-27.33713837-13.5187955-27.37957227-28.8745608-.04243389-15.3557652 11.89271197-28.08274146 27.21957227-29.0254392-.428-.022-.851-.058-1.284-.058-16.0162576.00000024-28.99999957 12.9837424-28.99999957 29s12.98374197 28.9999998 28.99999957 29z" fill="#fff"/><path id="Shape" d="m3.079 37.624-1.925.544-.514-2c-.129-.681-.216-1.368-.325-2.047l-.155-1.021-.06-1.034-.1-2.066h2l.1 1.929.05.965.147.954c.1.635.182 1.275.3 1.907z" fill="#fff"/><g fill="#ff414c"><path id="Shape" d="m1.324 34.989c-.55228473.0027614-1.00223852-.4427153-1.00499994-.995-.00276143-.5522847.44271521-1.0022385.99499994-1.005h.01c.55228475 0 1 .4477153 1 1s-.44771525 1-1 1z"/><path id="Shape" d="m30 0c-16.5607751.01873704-29.98126296 13.4392249-30 30 0 .5522847.44771525 1 1 1s1-.4477153 1-1c-.03703445-13.0419552 8.9105865-24.39266116 21.6006558-27.40199811s25.7817291 3.11494978 31.6048746 14.78478031c5.8231455 11.6698305 2.8447432 25.8129406-7.1902289 34.1432048-10.0349722 8.3302642-24.4846519 8.654611-34.8833015.783013-2.4153064-1.8222826-4.52302272-4.0198039-6.243-6.509-1.68838228-2.5090098-2.97391975-5.2666733-3.81-8.173-.15022145-.5315741-.70292593-.8407215-1.2345-.6905s-.84072145.7029259-.6905 1.2345c.89592027 3.115382 2.27429228 6.0712055 4.085 8.76 1.84267172 2.6644377 4.09948786 5.0171306 6.685 6.969 10.4185939 7.8832729 24.7421321 8.1137639 35.4089777.5697931s15.2217202-21.1259437 11.2600289-33.5757668c-3.9616913-12.44982296-15.5280523-20.9018146-28.5930066-20.8940263z"/><path id="Shape" d="m34.762 49.428c-1.5586296.3810627-3.1574646.573111-4.762.572-.5522847 0-1 .4477153-1 1s.4477153 1 1 1c1.7650199.0010376 3.5237217-.2108259 5.238-.631.3590181-.0734995.6490751-.3374891.7559582-.6880204.1068831-.3505314.0134692-.7314479-.243459-.9927601-.2569282-.2613123-.6362098-.3611571-.9884992-.2602195z"/><path id="Shape" d="m39.122 48.941c.1268358.2330645.3410997.406165.5956148.4811879.2545152.0750229.5284126.0458167.7613852-.0811879 1.1038885-.6014424 2.1546691-1.2956066 3.141-2.075.4006141-.3512722.4554557-.9549596.1246995-1.3726727-.3307562-.417713-.9309371-.5027364-1.3646995-.1933273-.8977083.709308-1.8541604 1.340921-2.859 1.888-.4826201.2643928-.6609304.869039-.399 1.353z"/><path id="Shape" d="m47.809 42.9c2.7325075-3.7452972 4.2005163-8.2638639 4.191-12.9 0-.5522847-.4477153-1-1-1s-1 .4477153-1 1c.0093175 4.2148407-1.3249116 8.3229635-3.809 11.728-.2932003.4467484-.1833582 1.0450717.2494062 1.358545s1.0355133.2313161 1.3685938-.186545z"/><path id="Shape" d="m7.489 19.084c-.50589368-.2214235-1.0955042.009138-1.317.515-1.43960239 3.2781739-2.17936612 6.8206613-2.172 10.401 0 14.3594035 11.6405965 26 26 26s26-11.6405965 26-26-11.6405965-26-26-26c-3.5800019-.00722696-7.1221344.7325338-10.4 2.172-.3515292.12617922-.603445.43773808-.653235.80789332-.04979.37015525.1108452.73720681.4165381.95178968s.7054884.24092888 1.0366969.068317c3.0261195-1.32694271 6.2957436-2.0081144 9.6-2 13.254834 0 24 10.745166 24 24s-10.745166 24-24 24-24-10.745166-24-24c-.0081144-3.3042564.67305729-6.5738805 2-9.6.22124771-.504535-.00724499-1.092982-.511-1.316z"/><path id="Shape" d="m11.572 14.641c.6115454-.7309245 1.2649763-1.4257583 1.957-2.081.401511-.3796958.4191957-1.012989.0395-1.4145-.3796958-.401511-1.012989-.4191958-1.4145-.0395-.7489417.7091305-1.4558127 1.4614123-2.117 2.253-.2324007.2738262-.30010947.6512502-.17738513.9887848s.41703093.5833334.77103173.6439496c.3540007.0606163.71332-.0732608.9413534-.3507344z"/><path id="Shape" d="m24 25c0-.5522847-.4477153-1-1-1s-1 .4477153-1 1c.0049599 4.4162219 3.5837781 7.9950401 8 8 3.3123376.0033074 5.9966926 2.6876624 6 6v3c0 .5522847.4477153 1 1 1s1-.4477153 1-1v-3c-.0049599-4.4162219-3.5837781-7.9950401-8-8-3.3123376-.0033074-5.9966926-2.6876624-6-6z"/><path id="Shape" d="m24.647 16.933c-.3468478-.5788948-.97215-.9331915-1.647-.9331915s-1.3001522.3542967-1.647.9331915l-3.013 4.767c-.430719.6841896-.4552382 1.5484924-.064 2.256.3334793.6375448.9915228 1.0390629 1.711 1.044.5563378.007307 1.0152767-.4338091 1.03-.99.0062149-.2613865-.093572-.5141708-.2766544-.7008319-.1830823-.1866611-.4338878-.2913224-.6953456-.2901681-.0537499-.0724617-.0592532-.1699494-.014-.248l2.97-4.7 2.968 4.7c.0402779.0713765.0402779.1586235 0 .23-.5522847.0121503-.9901502.4697153-.978 1.022.0121503.5522847.4697153.9901503 1.022.978.7186111-.0041538 1.3764424-.4040045 1.711-1.04.3927818-.7088959.3682528-1.5754576-.064-2.261z"/><path id="Shape" d="m36 25c.0042853 1.5921831-.6283559 3.1199559-1.757 4.243-.2599566.2510745-.3642126.6228779-.2726972.9725073.0915155.3496295.3645604.6226744.7141899.7141899.3496294.0915154.7214328-.0127406.9725073-.2726972 1.5051506-1.4970871 2.3488338-3.5340977 2.343-5.657 0-.5522847-.4477153-1-1-1s-1 .4477153-1 1z"/><path id="Shape" d="m38.647 16.933c-.3468478-.5788948-.97215-.9331915-1.647-.9331915s-1.3001522.3542967-1.647.9331915l-3.013 4.767c-.430719.6841896-.4552382 1.5484924-.064 2.256.3334793.6375448.9915228 1.0390629 1.711 1.044.5563378.007307 1.0152767-.4338091 1.03-.99.0062149-.2613865-.093572-.5141708-.2766544-.7008319-.1830823-.1866611-.4338878-.2913224-.6953456-.2901681-.0537499-.0724617-.0592532-.1699494-.014-.248l2.97-4.7 2.968 4.7c.065.1.011.225.044.229-.5522847 0-1 .4477153-1 1s.4477153 1 1 1c.7186111-.0041538 1.3764424-.4040045 1.711-1.04.392386-.7086394.3678603-1.5747021-.064-2.26z"/><path id="Shape" d="m24.343 33.343c-1.5051506 1.4970871-2.3488338 3.5340977-2.343 5.657v3c0 .5522847.4477153 1 1 1s1-.4477153 1-1v-3c-.0042853-1.5921831.6283559-3.1199559 1.757-4.243.2599566-.2510745.3642126-.6228779.2726972-.9725073-.0915155-.3496295-.3645604-.6226744-.7141899-.7141899-.3496294-.0915154-.7214328.0127406-.9725073.2726972z"/></g></g></g></svg>