<svg height="512" viewBox="0 0 60 60" width="512" xmlns="http://www.w3.org/2000/svg"><g id="Page-1" fill="none" fill-rule="evenodd"><g id="109---Wireless-Headphones" fill-rule="nonzero"><circle id="Oval" cx="30" cy="40" fill="#ffe7e8" r="5"/><path id="Shape" d="m30 35c-.5100781.007121-1.0160138.0927928-1.5.254 2.0807519.6438254 3.4994946 2.5679184 3.4994946 4.746s-1.4187427 4.1021746-3.4994946 4.746c1.8757024.5955702 3.9262648.0330725 5.2355561-1.4361857 1.3092914-1.4692582 1.6327423-3.5708265.8258444-5.3657859s-2.5934199-2.9480201-4.5614005-2.9440284z" fill="#ffc9cc"/><path id="Shape" d="m8.111 31.111v16c-3.87 0-7-3.58-7-8s3.13-8 7-8z" fill="#ffe7e8"/><path id="Shape" d="m18.111 31.111v16c-.0032948 1.1032019-.8967981 1.9967052-2 2h-2v-20h2c1.1032019.0032948 1.9967052.8967981 2 2z" fill="#ffe0e2"/><path id="Shape" d="m14.111 29.111v20h-4c-1.10320187-.0032948-1.9967052-.8967981-2-2v-16c.0032948-1.1032019.89679813-1.9967052 2-2z" fill="#ffe7e8"/><path id="Shape" d="m59.111 39.111c0 4.42-3.13 8-7 8v-16c3.87 0 7 3.58 7 8z" fill="#ffe7e8"/><path id="Shape" d="m52.111 31.111v.779c2.5457646 1.5019639 4.0769811 4.2661926 4 7.221.0771963 2.9548601-1.4540767 5.7191906-4 7.221v.779c3.87 0 7-3.58 7-8s-3.13-8-7-8z" fill="#ffc9cc"/><path id="Shape" d="m52.111 31.111v16c-.0032948 1.1032019-.8967981 1.9967052-2 2h-4v-20h4c1.1032019.0032948 1.9967052.8967981 2 2z" fill="#ffe7e8"/><path id="Shape" d="m50.111 29.111h-3c1.1032019.0032948 1.9967052.8967981 2 2v16c-.0032948 1.1032019-.8967981 1.9967052-2 2h3c1.1032019-.0032948 1.9967052-.8967981 2-2v-16c-.0032948-1.1032019-.8967981-1.9967052-2-2z" fill="#ffc9cc"/><path id="Shape" d="m46.111 29.111v20h-2c-1.1032019-.0032948-1.9967052-.8967981-2-2v-16c.0032948-1.1032019.8967981-1.9967052 2-2z" fill="#ffe0e2"/><path id="Shape" d="m46.936 14.934c-.8865312.0030281-1.7288199-.3869882-2.3-1.065-3.6101014-4.28464138-8.9272343-6.757488-14.53-6.757488s-10.9198986 2.47284662-14.53 6.757488c-1.0919595 1.1670022-2.9070888 1.2730637-4.1275335.2411799-1.2204447-1.0318839-1.4176629-2.8393817-.4484665-4.1101799 4.7501341-5.63596767 11.7452534-8.8885586 19.116-8.8885586s14.3658659 3.25259093 19.116 8.8885586c.7521934.8919712.918979 2.1391573.4275912 3.1974321s-1.5517979 1.7356381-2.7185912 1.7365679z" fill="#ffe7e8"/><path id="Shape" d="m49.227 10c-4.7464598-5.64082506-11.7439069-8.89465993-19.116-8.889-.5 0-1 .018-1.5.048 6.8363568.40499962 13.2058583 3.60168234 17.616 8.841 1.0681904 1.2661779.9079222 3.1585066-.358 4.227-.1314164.1100197-.271919.208706-.42.295 1.2589976.7287979 2.8598199.4457103 3.7925191-.670665.9326991-1.1163752.9265706-2.7420237-.0145191-3.851335z" fill="#ffc9cc"/><path id="Shape" d="m8.111 47.111c.0032948 1.1032019.89679813 1.9967052 2 2h3c-1.1032019-.0032948-1.9967052-.8967981-2-2-3.87 0-7-3.58-7-8s3.13-8 7-8c.0032948-1.1032019.8967981-1.9967052 2-2h-3c-1.10320187.0032948-1.9967052.8967981-2 2-3.87 0-7 3.58-7 8s3.13 8 7 8z" fill="#fff"/><path id="Shape" d="m14.784 14.522c-.15221-.0852296-.2964563-.1839596-.431-.295-1.2643841-1.069955-1.4224026-2.9621487-.353-4.227 4.4023505-5.2456425 10.7732643-8.44339984 17.61-8.839-7.8830419-.48912904-15.5306613 2.79070149-20.61 8.839-.9425214 1.1116824-.94725 2.740656-.0111982 3.8577914.9360517 1.1171353 2.5407063 1.3976011 3.8001982.6642086z" fill="#fff"/><path id="Shape" d="m16.4 3.842 1.047 1.7c-2.1831193 1.34758153-4.1404235 3.03052573-5.8 4.987l-1.528-1.285c1.7967572-2.11957045 3.9164456-3.94261727 6.281-5.402z" fill="#fff"/><g fill="#ff414c"><path id="Shape" d="m14 39c.5522847 0 1-.4477153 1-1v-2c0-.5522847-.4477153-1-1-1s-1 .4477153-1 1v2c0 .5522847.4477153 1 1 1z"/><path id="Shape" d="m53 30.078v-4.078c-.0022533-4.0717601-1.0880781-8.0695696-3.146-11.583 1.2832796-1.4817982 1.2947419-3.677887.027-5.173-4.9368211-5.8659338-12.2141004-9.24962524-19.881-9.244-2.3885688.01084036-4.7650811.33938889-7.067.977-2.2970656.65556481-4.4947206 1.61933055-6.533 2.865-.2307832.13890438-.395081.36576738-.4550705.6283632-.0599896.26259582-.0105019.53829773.1370705.7636368.2973808.45369441.9000442.59144606 1.365.312 1.8811247-1.14989078 3.9091886-2.03996495 6.029-2.646 2.1252979-.58718592 4.3191021-.88982599 6.524-.9 7.0772302-.00513731 13.7948007 3.11828409 18.352 8.533.3422531.4054632.5093589.9303111.4645344 1.4590155-.0448246.5287044-.2979052 1.0179282-.7035344 1.3599845-.853663.6816216-2.0913238.5766532-2.818-.239-3.8001067-4.51033563-9.3972091-7.1134576-15.295-7.1134576s-11.4948933 2.60312197-15.295 7.1134576c-.7124473.8441672-1.9743327.9509473-2.8185.2385-.8441672-.7124474-.9509473-1.9743328-.2385-2.8185.2356763-.2724978.3065544-.65070344.185541-.99004711-.1210133-.33934367-.4152086-.58736049-.7701291-.64924558-.3549206-.06188509-.7156932.07192942-.9444119.35029269-1.26774185 1.495113-1.25627957 3.6912018.027 5.173-2.05792189 3.5134304-3.1437467 7.5112399-3.146 11.583v4.078c-3.94.557-7 4.341-7 8.922 0 4.647 3.147 8.482 7.169 8.951.40555204 1.2202127 1.54516336 2.0450321 2.831 2.049h6c1.6568542 0 3-1.3431458 3-3v-16c0-1.6568542-1.3431458-3-3-3h-6c-.34143967.0033144-.67974302.0655622-1 .184v-2.184c.0014077-3.6643156.96412022-7.2641432 2.792-10.44 1.577268.586111 3.3526996.1224683 4.442-1.16 3.4200958-4.059657 8.4577168-6.40270532 13.766-6.40270532s10.3459042 2.34304832 13.766 6.40270532c1.0862105 1.2911773 2.8673153 1.7592779 4.448 1.169 1.8240893 3.1738615 2.7846576 6.7703038 2.786 10.431v2.184c-.320257-.1184378-.6585603-.1806856-1-.184h-6c-1.6568542 0-3 1.3431458-3 3v16c0 1.6568542 1.3431458 3 3 3h6c1.2858366-.0039679 2.425448-.8287873 2.831-2.049 4.022-.469 7.169-4.304 7.169-8.951 0-4.581-3.06-8.365-7-8.922zm-51 8.922c0-3.461 2.167-6.337 5-6.9v13.8c-2.833-.564-5-3.439-5-6.9zm8-9h3v2c0 .5522847.4477153 1 1 1s1-.4477153 1-1v-2h1c.5522847 0 1 .4477153 1 1v16c0 .5522847-.4477153 1-1 1h-1v-6c0-.5522847-.4477153-1-1-1s-1 .4477153-1 1v6h-3c-.55228475 0-1-.4477153-1-1v-16c0-.5522847.44771525-1 1-1zm40 18h-3v-6c0-.5522847-.4477153-1-1-1s-1 .4477153-1 1v6h-1c-.5522847 0-1-.4477153-1-1v-16c0-.5522847.4477153-1 1-1h1v2c0 .5522847.4477153 1 1 1s1-.4477153 1-1v-2h3c.5522847 0 1 .4477153 1 1v16c0 .5522847-.4477153 1-1 1zm3-2.1v-13.8c2.833.558 5 3.434 5 6.9s-2.167 6.336-5 6.9z"/><path id="Shape" d="m46 35c-.5522847 0-1 .4477153-1 1v2c0 .5522847.4477153 1 1 1s1-.4477153 1-1v-2c0-.5522847-.4477153-1-1-1z"/><path id="Shape" d="m13.713 8.048c-.5522847.00276141-1.0022386-.44271526-1.005-.995s.4427153-1.00223856.995-1.005h.01c.5522847 0 1 .44771525 1 1s-.4477153 1-1 1z"/><path id="Shape" d="m21.33 56.915c-.1097894.2419604-.118771.5176664-.0249624.7662594.0938087.2485929.2826942.4496322.5249624.5587406 5.1973932 2.3466632 11.1526068 2.3466632 16.35 0 .3251117-.1482652.5464288-.4587129.5805832-.8144005.0341544-.3556877-.1240427-.7025777-.415-.9100001s-.6704715-.2438646-.9955832-.0955994c-4.6700684 2.1067283-10.0199316 2.1067283-14.69 0-.2418817-.1116891-.5183326-.122239-.7680229-.0293091-.2496904.0929298-.4519748.2816556-.5619771.5243091z"/><path id="Shape" d="m22.707 53.142c-.2366315.4989904-.0239725 1.0953308.475 1.332 4.3176333 2.0346718 9.3183667 2.0346718 13.636 0 .4938824-.2395106.7023934-.8323479.4671832-1.3282928-.2352101-.4959448-.8262133-.7095992-1.3241832-.4787072-3.7769011 1.770052-8.1450989 1.770052-11.922 0-.4989904-.2366315-1.0953308-.0239725-1.332.475z"/><path id="Shape" d="m24.528 50.677c3.4347635 1.7639578 7.5092365 1.7639578 10.944 0 .4898766-.2551556.6801555-.8591234.425-1.349-.2551556-.4898765-.8591234-.6801555-1.349-.425-2.8585285 1.4563532-6.2414715 1.4563532-9.1 0-.4898766-.2551555-1.0938444-.0648765-1.349.425-.2551555.4898766-.0648766 1.0938444.425 1.349z"/><path id="Shape" d="m30 46c3.3137085 0 6-2.6862915 6-6s-2.6862915-6-6-6-6 2.6862915-6 6c.0033074 3.3123376 2.6876624 5.9966926 6 6zm0-10c2.209139 0 4 1.790861 4 4s-1.790861 4-4 4-4-1.790861-4-4 1.790861-4 4-4z"/></g></g></g></svg>