<svg height="512" viewBox="0 0 60 60" width="512" xmlns="http://www.w3.org/2000/svg"><g id="Page-1" fill="none" fill-rule="evenodd"><g id="111---Standbye" fill-rule="nonzero"><circle id="Oval" cx="30.056" cy="30.111" fill="#ffe0e2" r="29"/><path id="Shape" d="m30.056 1.111c-.504 0-1.004.01266667-1.5.038 15.4192225.79012792 27.5158989 13.5225465 27.5158989 28.962s-12.0966764 28.1718721-27.5158989 28.962c.496.0253333.996.038 1.5.038 16.0162577 0 29-12.9837423 29-29s-12.9837423-29-29-29z" fill="#ff9ea1"/><circle id="Oval" cx="30.056" cy="30.111" fill="#ffe7e8" r="25"/><path id="Shape" d="m30.056 5.111c-.5 0-1 .019-1.5.049 13.1671239.83401357 23.4196519 11.7564891 23.4196519 24.95s-10.252528 24.1159864-23.4196519 24.95c.5.03 1 .049 1.5.049 13.8071187 0 25-11.1928813 25-25s-11.1928813-25-25-25z" fill="#ffc9cc"/><path id="Shape" d="m31.6 1.138c-10.5321685-.56057546-20.5386561 4.63981673-26.13264307 13.5811883-5.59398702 8.9413717-5.89383697 20.214524-.78307913 29.4406267 5.11075783 9.2261027 14.826646 14.9510823 25.3737222 14.951185.488 0 .971-.018 1.453-.042-15.4472428-.777577-27.56578326-13.5410987-27.54202148-29.0078815s12.18146248-28.19300853 27.63102148-28.9231185z" fill="#fff"/><path id="Shape" d="m3.079 37.624-1.925.544-.514-2c-.129-.681-.216-1.368-.325-2.047l-.155-1.021-.06-1.034-.1-2.066h2l.1 1.929.05.965.147.954c.1.635.182 1.275.3 1.907z" fill="#fff"/><g fill="#ff414c"><path id="Shape" d="m1.325 34.989c-.55228475.0030376-1.00246243-.4422153-1.0055-.9945s.44221525-1.0024624.9945-1.0055h.011c.55228475 0 1 .4477153 1 1s-.44771525 1-1 1z"/><path id="Shape" d="m30 0c-16.5607751.01873704-29.98126296 13.4392249-30 30 0 .5522847.44771525 1 1 1s1-.4477153 1-1c-.03703445-13.0419552 8.9105865-24.39266116 21.6006558-27.40199811s25.7817291 3.11494978 31.6048746 14.78478031c5.8231455 11.6698305 2.8447432 25.8129406-7.1902289 34.1432048-10.0349722 8.3302642-24.4846519 8.654611-34.8833015.783013-2.4153064-1.8222826-4.52302272-4.0198039-6.243-6.509-1.68838228-2.5090098-2.97391975-5.2666733-3.81-8.173-.15022145-.5315741-.70292593-.8407215-1.2345-.6905s-.84072145.7029259-.6905 1.2345c.89592027 3.115382 2.27429228 6.0712055 4.085 8.76 1.84267172 2.6644377 4.09948786 5.0171306 6.685 6.969 10.4185939 7.8832729 24.7421321 8.1137639 35.4089777.5697931s15.2217202-21.1259437 11.2600289-33.5757668c-3.9616913-12.44982296-15.5280523-20.9018146-28.5930066-20.8940263z"/><path id="Shape" d="m34.762 49.428c-1.5586296.3810627-3.1574646.573111-4.762.572-.5522847 0-1 .4477153-1 1s.4477153 1 1 1c1.7650199.0010376 3.5237217-.2108259 5.238-.631.3590181-.0734995.6490751-.3374891.7559582-.6880204.1068831-.3505314.0134692-.7314479-.243459-.9927601-.2569282-.2613123-.6362098-.3611571-.9884992-.2602195z"/><path id="Shape" d="m39.122 48.941c.2641108.4847591.8710741.6638043 1.356.4 1.104242-.6019048 2.1556489-1.2960408 3.143-2.075.4047391-.3504446.461676-.9574863.129162-1.3770808-.3325139-.4195946-.9365057-.5028735-1.370162-.1889192-.8976887.7088468-1.8537684 1.3404348-2.858 1.888-.4829893.264043-.6617722.8687762-.4 1.353z"/><path id="Shape" d="m47.809 42.9c2.7323821-3.7453612 4.2003772-8.2638858 4.191-12.9 0-.5522847-.4477153-1-1-1s-1 .4477153-1 1c.0089697 4.214786-1.3252252 8.3228033-3.809 11.728-.2932003.4467484-.1833582 1.0450717.2494062 1.358545s1.0355133.2313161 1.3685938-.186545z"/><path id="Shape" d="m7.489 19.084c-.24305211-.1066464-.51853112-.1122921-.76574858-.0156935-.24721747.0965987-.44589061.2875163-.55225142.5306935-1.43872519 3.2784187-2.17812396 6.8207893-2.171 10.401 0 14.3594035 11.6405965 26 26 26s26-11.6405965 26-26-11.6405965-26-26-26c-3.5799929-.00713892-7.1221075.73261809-10.4 2.172-.3515292.12617922-.603445.43773808-.653235.80789332-.04979.37015525.1108452.73720681.4165381.95178968s.7054884.24092888 1.0366969.068317c3.0261823-1.32674615 6.2957645-2.00790911 9.6-2 13.254834 0 24 10.745166 24 24s-10.745166 24-24 24-24-10.745166-24-24c-.00744034-3.3041877.67370269-6.5736743 2-9.6.22124771-.504535-.00724499-1.092982-.511-1.316z"/><path id="Shape" d="m11.572 14.641c.6113037-.7311389 1.2647475-1.4259864 1.957-2.081.401511-.3794196.4194196-1.012489.04-1.414s-1.012489-.4194196-1.414-.04c-.7492326.709153-1.4564352 1.4614323-2.118 2.253-.2324007.2738262-.30010947.6512502-.17738513.9887848s.41703093.5833334.77103173.6439496c.3540007.0606163.71332-.0732608.9413534-.3507344z"/><path id="Shape" d="m37.8 25.5c.1788068.3097028.5093863.5003484.867.5.1756995.0002123.3482838-.0463854.5-.135.4779053-.2764929.6412972-.8879815.365-1.366-.7446419-1.2862959-1.742012-2.4085073-2.932-3.299-.2858125-.2143594-.6642734-.2599564-.9928203-.1196152-.3285469.1403411-.5572656.4452994-.6.8-.0427344.3547005.1070078.7052558.3928203.9196152.975205.7275146 1.7918371 1.6462257 2.4 2.7z"/><path id="Shape" d="m24.6 22.8c.4418278-.3313709.5313708-.9581722.2-1.4-.3313709-.4418278-.9581722-.5313708-1.4-.2-4.138292 3.103719-5.5549172 8.6714758-3.4032004 13.3755853s7.2903347 7.2734185 12.3446524 6.1723262c5.0543177-1.1010922 8.658548-5.5750466 8.658548-10.7479115 0-.3706667-.018-.7373333-.054-1.1-.0552285-.5495233-.5454767-.9502284-1.095-.8949999-.5495233.0552284-.9502284.5454766-.895 1.0949999.029.3.044.6.044.9 0 4.232344-2.9489157 7.8928521-7.0842665 8.7937458-4.1353509.9008937-8.3396747-1.2012682-10.1001702-5.0500851-1.7604956-3.8488169-.6014385-8.4042543 2.7844367-10.9436607z"/><path id="Shape" d="m31 27v-10c0-.5522847-.4477153-1-1-1s-1 .4477153-1 1v10c0 .5522847.4477153 1 1 1s1-.4477153 1-1z"/></g></g></g></svg>