<svg height="512" viewBox="0 0 46 60" width="512" xmlns="http://www.w3.org/2000/svg"><g id="Page-1" fill="none" fill-rule="evenodd"><g id="114---Lock" fill-rule="nonzero"><path id="Shape" d="m8 54h-4c-1.65685425 0-3-1.3431458-3-3v-24c0-1.6568542 1.34314575-3 3-3h38c1.6568542 0 3 1.3431458 3 3v24c0 1.6568542-1.3431458 3-3 3z" fill="#ffe7e8"/><path id="Shape" d="m42 24h-3c1.6568542 0 3 1.3431458 3 3v24c0 1.6568542-1.3431458 3-3 3h3c1.6568542 0 3-1.3431458 3-3v-24c0-1.6568542-1.3431458-3-3-3z" fill="#ffc9cc"/><path id="Shape" d="m41 54v2c0 1.6568542-1.3431458 3-3 3h-30c-1.65685425 0-3-1.3431458-3-3v-2" fill="#ffe7e8"/><path id="Shape" d="m38 54v2c0 1.6568542-1.3431458 3-3 3h3c1.6568542 0 3-1.3431458 3-3v-2z" fill="#ffc9cc"/><path id="Shape" d="m38 16v8h-5v-8.47c-.1418544-5.3877102-4.6117031-9.64747605-10-9.53-5.3882969-.11747605-9.8581456 4.1422898-10 9.53v8.47h-5v-8c0-8.28427125 6.7157288-15 15-15s15 6.71572875 15 15z" fill="#ffe0e2"/><path id="Shape" d="m23 1c-.506 0-1.006.027-1.5.076 7.6595557.78005815 13.489391 7.224833 13.5 14.924v8h3v-8c-.0099183-8.28015945-6.7198405-14.99008165-15-15z" fill="#ff9ea1"/><circle id="Oval" cx="23" cy="39" fill="#ffe0e2" r="10"/><path id="Shape" d="m23 29c-.5024253.0040337-1.0038371.045818-1.5.125 4.8867805.7347638 8.5012202 4.9332896 8.5012202 9.875s-3.6144397 9.1402362-8.5012202 9.875c3.710451.5677523 7.4261819-.9912669 9.6206899-4.0365787s2.4977618-7.0634251.7851783-10.4036118c-1.7125836-3.3401866-5.152234-5.4392346-8.9058682-5.4348095z" fill="#ff9ea1"/><path id="Shape" d="m8 59h3c-1.65685425 0-3-1.3431458-3-3v-2h-1c-1.65685425 0-3-1.3431458-3-3v-24c0-1.6568542 1.34314575-3 3-3h-3c-1.65685425 0-3 1.3431458-3 3v24c0 1.6568542 1.34314575 3 3 3h1v2c0 1.6568542 1.34314575 3 3 3z" fill="#fff"/><path id="Shape" d="m23 1c-8.2797033.01101758-14.98898242 6.72029668-15 15v8h3v-8c.0110711-7.69898865 5.8406679-14.14349995 13.5-14.924-.493-.049-.994-.076-1.5-.076z" fill="#fff"/><path id="Shape" d="m9.242 7.871 1.72 1.021c-1.27579923 2.15213-1.95317529 4.6061509-1.962 7.108h-2c.00938755-2.8610694.78344063-5.667616 2.242-8.129z" fill="#fff"/><g fill="#ff414c"><path id="Shape" d="m16 53h-3c-.5522847 0-1 .4477153-1 1s.4477153 1 1 1h3c.5522847 0 1-.4477153 1-1s-.4477153-1-1-1z"/><path id="Shape" d="m8.56 13.039c-.55228474.0030376-1.00246242-.4422153-1.00549999-.9945-.00303756-.5522847.44221525-1.0024624.99449999-1.0055h.011c.55228475 0 1 .4477153 1 1s-.44771525 1-1 1z"/><path id="Shape" d="m7 16v7h-3c-2.209139 0-4 1.790861-4 4v24c0 2.209139 1.790861 4 4 4v1c0 2.209139 1.790861 4 4 4h30c2.209139 0 4-1.790861 4-4v-1c2.209139 0 4-1.790861 4-4v-24c0-2.209139-1.790861-4-4-4h-3v-7c-.0104696-8.8322157-7.1677843-15.98953038-16-16-2.7789193.01399485-5.507456.74305104-7.923 2.117-1.1992013.69121788-2.3077198 1.52898911-3.3 2.494-.9814364.97409762-1.8343468 2.06964046-2.538 3.26-.14930184.22994685-.19339754.5126727-.12121141.7771642.07218612.2644915.25379507.48561709.49921141.6078358.4750039.23563054 1.0511621.07935512 1.342-.364.616331-1.04283201 1.3630088-2.00289425 2.222-2.857.8686249-.84365691 1.8383293-1.57656136 2.887-2.182 2.1136107-1.20170239 4.5006908-1.83979519 6.932-1.853 7.7285595.00826732 13.9917327 6.27144053 14 14v7h-3v-7.471c-.139839-5.94076214-5.0588062-10.64910806-11-10.529-5.9411938-.12010806-10.860161 4.58823786-11 10.529v7.471h-3v-7c0-.5522847-.44771525-1-1-1s-1 .4477153-1 1zm37 11v10h-1c-.5522847 0-1 .4477153-1 1s.4477153 1 1 1h1v3h-1c-.5522847 0-1 .4477153-1 1s.4477153 1 1 1h1v3h-1c-.5522847 0-1 .4477153-1 1s.4477153 1 1 1h1v2c0 1.1045695-.8954305 2-2 2h-21c-.5522847 0-1 .4477153-1 1s.4477153 1 1 1h19v1c0 1.1045695-.8954305 2-2 2h-30c-1.1045695 0-2-.8954305-2-2v-1h2c.55228475 0 1-.4477153 1-1s-.44771525-1-1-1h-4c-1.1045695 0-2-.8954305-2-2v-2h1c.55228475 0 1-.4477153 1-1s-.44771525-1-1-1h-1v-3h1c.55228475 0 1-.4477153 1-1s-.44771525-1-1-1h-1v-3h1c.55228475 0 1-.4477153 1-1s-.44771525-1-1-1h-1v-10c0-1.1045695.8954305-2 2-2h38c1.1045695 0 2 .8954305 2 2zm-30-11.471c.1389501-4.8365307 4.1629863-8.64997571 9-8.529 4.8370137-.12097571 8.8610499 3.6924693 9 8.529v7.471h-18z"/><path id="Shape" d="m8 37h-1c-.55228475 0-1 .4477153-1 1s.44771525 1 1 1h1c.55228475 0 1-.4477153 1-1s-.44771525-1-1-1z"/><path id="Shape" d="m8 42h-1c-.55228475 0-1 .4477153-1 1s.44771525 1 1 1h1c.55228475 0 1-.4477153 1-1s-.44771525-1-1-1z"/><path id="Shape" d="m8 47h-1c-.55228475 0-1 .4477153-1 1s.44771525 1 1 1h1c.55228475 0 1-.4477153 1-1s-.44771525-1-1-1z"/><path id="Shape" d="m37 38c0 .5522847.4477153 1 1 1h1c.5522847 0 1-.4477153 1-1s-.4477153-1-1-1h-1c-.5522847 0-1 .4477153-1 1z"/><path id="Shape" d="m39 42h-1c-.5522847 0-1 .4477153-1 1s.4477153 1 1 1h1c.5522847 0 1-.4477153 1-1s-.4477153-1-1-1z"/><path id="Shape" d="m39 47h-1c-.5522847 0-1 .4477153-1 1s.4477153 1 1 1h1c.5522847 0 1-.4477153 1-1s-.4477153-1-1-1z"/><path id="Shape" d="m32.528 33.5c-.2780058-.4742136-.886647-.6351286-1.3626943-.3602745-.4760473.274854-.640996.8824145-.3693057 1.3602745.4854547.8385327.8313027 1.7504364 1.024 2.7.0949785.4652983.5041071.799622.979.8.0671773.0002341.1341993-.0064681.2-.02.260123-.0527667.4885976-.2067816.63509-.4281146.1464925-.221333.1989838-.4918248.14591-.7518854-.2357813-1.1605685-.6586275-2.2750994-1.252-3.3z"/><path id="Shape" d="m32.842 41.046c-.2530164-.079581-.5272841-.0553842-.7624589.0672668s-.4119894.3337076-.4915411.5867332c-1.1190175 3.5553822-4.3138226 6.0531001-8.034163 6.2811571-3.7203405.2280569-7.1962993-1.860743-8.7411966-5.2528271-1.5448974-3.3920842-.8390199-7.3854677 1.7751113-10.0423947 2.6141311-2.656927 6.5955268-3.4275518 10.0122483-1.9379353.3294859.1561038.7178184.1205152 1.0134419-.0928767.2956236-.2133918.4516812-.5707638.4072679-.9326433-.0444134-.3618795-.2822581-.670908-.6207098-.80648-4.1764847-1.8195582-9.0424083-.876397-12.2366069 2.3718197-3.1941987 3.2482166-4.0556341 8.1292712-2.1662992 12.2746578s6.1384429 6.6972187 10.6854665 6.4172333c4.5470237-.2799854 8.4509581-3.3338456 9.8174396-7.6797108.0794152-.253545.0546661-.5282709-.0687848-.7635404-.1234508-.2352695-.3354535-.4117394-.5892152-.4904596z"/><path id="Shape" d="m25 41c.5522847 0 1-.4477153 1-1v-4c0-.5522847-.4477153-1-1-1h-1v-1c0-.5522847-.4477153-1-1-1s-1 .4477153-1 1v2c0 .5522847.4477153 1 1 1h1v2h-1c-.5522847 0-1 .4477153-1 1v4c0 .5522847.4477153 1 1 1s1-.4477153 1-1c.5522847 0 1-.4477153 1-1s-.4477153-1-1-1v-1z"/></g></g></g></svg>