<svg height="512" viewBox="0 0 60 55" width="512" xmlns="http://www.w3.org/2000/svg"><g id="Page-1" fill="none" fill-rule="evenodd"><g id="115---Delivery" fill-rule="nonzero"><path id="Shape" d="m39 7v30h-34c-2.209139 0-4-1.790861-4-4v-26c0-3.3137085 2.6862915-6 6-6h26c3.3137085 0 6 2.6862915 6 6z" fill="#ffe7e8"/><path id="Shape" d="m33 1h-3c3.3137085 0 6 2.6862915 6 6v30h3v-30c0-3.3137085-2.6862915-6-6-6z" fill="#ffc9cc"/><path id="Shape" d="m59 37v7c0 1.6568542-1.3431458 3-3 3h-3.09c-.4853307-2.8857455-2.9837271-4.9990438-5.91-4.9990438s-5.4246693 2.1132983-5.91 4.9990438h-19.18c-.4853307-2.8857455-2.9837271-4.9990438-5.91-4.9990438s-5.4246693 2.1132983-5.91 4.9990438h-2.09c-1.65685425 0-3-1.3431458-3-3v-7z" fill="#ffe7e8"/><path id="Shape" d="m56 37v7c0 1.6568542-1.3431458 3-3 3h3c1.6568542 0 3-1.3431458 3-3v-7z" fill="#ffc9cc"/><path id="Shape" d="m59 31v6h-20v-24h9.02c.6189933.0014878 1.2024148.289506 1.58.78l2.45 3.18-.05.04h-7c-1.1032019.0032948-1.9967052.8967981-2 2v10c.0032948 1.1032019.8967981 1.9967052 2 2z" fill="#ffe7e8"/><path id="Shape" d="m59 26.68v4.32h-14c-1.1032019-.0032948-1.9967052-.8967981-2-2v-10c.0032948-1.1032019.8967981-1.9967052 2-2h7l.05-.04 6.54 8.5c.2635216.3524071.4072107.7799697.41 1.22z" fill="#ffe0e2"/><path id="Shape" d="m22 48c0 3.3137085-2.6862915 6-6 6s-6-2.6862915-6-6c-.00072051-.3353876.0294064-.6701307.09-1 .4853307-2.8857455 2.9837271-4.9990438 5.91-4.9990438s5.4246693 2.1132983 5.91 4.9990438c.0605936.3298693.0907205.6646124.09 1z" fill="#ffe0e2"/><circle id="Oval" cx="16" cy="48" fill="#ffc9cc" r="2"/><path id="Shape" d="m53 48c-.0000001 3.3137084-2.6862916 5.9999998-6 5.9999998s-5.9999999-2.6862914-6-5.9999998c-.0007205-.3353876.0294064-.6701307.09-1 .4853307-2.8857455 2.9837271-4.9990438 5.91-4.9990438s5.4246693 2.1132983 5.91 4.9990438c.0605936.3298693.0907205.6646124.09 1z" fill="#ffe0e2"/><circle id="Oval" cx="47" cy="48" fill="#ffc9cc" r="2"/><path id="Shape" d="m10.12 46.86c-.01.04-.02.09-.03.14h-2.09c-1.65685425 0-3-1.3431458-3-3v-7c-2.209139 0-4-1.790861-4-4v-26c0-3.3137085 2.6862915-6 6-6h3c-3.3137085 0-6 2.6862915-6 6v26c0 2.209139 1.790861 4 4 4v7c-.00234235 1.3168563.85935942 2.4793408 2.12 2.86z" fill="#fff"/><path id="Rectangle-path" d="m0 7h2v8h-2z" fill="#fff"/><g fill="#ff414c"><circle id="Oval" cx="1" cy="11" r="1"/><path id="Shape" d="m50.393 13.17c-.5699462-.7351583-1.4467926-1.1667571-2.377-1.17h-8.016v-5c-.0044086-3.86416566-3.1358343-6.99559136-7-7h-26c-3.86416566.00440864-6.99559136 3.13583434-7 7 0 .55228475.44771525 1 1 1s1-.44771525 1-1c.00330612-2.76005315 2.23994685-4.99669388 5-5h26c2.7600532.00330612 4.9966939 2.23994685 5 5v29h-33c-1.65685425 0-3-1.3431458-3-3v-18c0-.5522847-.44771525-1-1-1s-1 .4477153-1 1v18c.00299829 2.3751008 1.6735832 4.4215673 4 4.9v6.1c0 2.209139 1.790861 4 4 4h1c0 3.8659932 3.1340068 7 7 7s7-3.1340068 7-7h17c0 3.8659932 3.1340068 7 7 7s7-3.1340068 7-7h2c2.209139 0 4-1.790861 4-4v-17.319c-.0009628-.6614115-.2195361-1.3041296-.622-1.829zm7.607 13.511.0000003 3.319h-13.0000003c-.5522847 0-1-.4477153-1-1v-10c0-.5522847.4477153-1 1-1h6.585l6.208 8.071c.1343941.1749353.2071716.3894006.207.61zm-42 26.319c-2.7614237 0-5-2.2385763-5-5s2.2385763-5 5-5 5 2.2385763 5 5c-.0033061 2.7600532-2.2399468 4.9966939-5 5zm31 0c-2.7614237 0-5-2.2385763-5-5s2.2385763-5 5-5 5 2.2385763 5 5c-.0033061 2.7600532-2.2399468 4.9966939-5 5zm9-7h-2.3c-.8935021-2.952905-3.6148754-4.9726865-6.7-4.9726865s-5.8064979 2.0197815-6.7 4.9726865h-17.595c-.8907752-2.9570695-3.6141768-4.9809671-6.7025-4.9809671s-5.8117248 2.0238976-6.7025 4.9809671h-1.3c-1.1045695 0-2-.8954305-2-2v-6h43c.5522847 0 1-.4477153 1-1s-.4477153-1-1-1h-9v-22h8.016c.3099872.0010333.6021874.1449198.792.39l1.238 1.61h-5.046c-1.6568542 0-3 1.3431458-3 3v10c0 1.6568542 1.3431458 3 3 3h13v12c0 1.1045695-.8954305 2-2 2z"/><path id="Shape" d="m16 45c-1.6568542 0-3 1.3431458-3 3s1.3431458 3 3 3 3-1.3431458 3-3-1.3431458-3-3-3zm0 4c-.5522847 0-1-.4477153-1-1s.4477153-1 1-1 1 .4477153 1 1-.4477153 1-1 1z"/><path id="Shape" d="m47 45c-1.2133867 0-2.3072956.7309265-2.7716386 1.8519497s-.2076757 2.4113767.6503183 3.2693706c.8579939.857994 2.1483474 1.1146613 3.2693706.6503183s1.8519497-1.5582519 1.8519497-2.7716386c0-1.6568542-1.3431458-3-3-3zm0 4c-.5522847 0-1-.4477153-1-1s.4477153-1 1-1 1 .4477153 1 1-.4477153 1-1 1z"/><path id="Shape" d="m55 36h-2c-.5522847 0-1 .4477153-1 1s.4477153 1 1 1h2c.5522847 0 1-.4477153 1-1s-.4477153-1-1-1z"/><path id="Shape" d="m47 20c-.5522847 0-1 .4477153-1 1v1c0 .5522847.4477153 1 1 1s1-.4477153 1-1v-1c0-.5522847-.4477153-1-1-1z"/><path id="Shape" d="m47 25c-.5522847 0-1 .4477153-1 1v1c0 .5522847.4477153 1 1 1s1-.4477153 1-1v-1c0-.5522847-.4477153-1-1-1z"/><path id="Shape" d="m8 6c.55228475 0 1-.44771525 1-1s-.44771525-1-1-1h-2c-.55228475 0-1 .44771525-1 1s.44771525 1 1 1z"/><path id="Shape" d="m26 6c.5522847 0 1-.44771525 1-1s-.4477153-1-1-1h-13c-.5522847 0-1 .44771525-1 1s.4477153 1 1 1z"/><path id="Shape" d="m27 42h-2c-.5522847 0-1 .4477153-1 1s.4477153 1 1 1h2c.5522847 0 1-.4477153 1-1s-.4477153-1-1-1z"/><path id="Shape" d="m38 42h-7c-.5522847 0-1 .4477153-1 1s.4477153 1 1 1h7c.5522847 0 1-.4477153 1-1s-.4477153-1-1-1z"/></g></g></g></svg>