<svg height="512" viewBox="0 0 60 60" width="512" xmlns="http://www.w3.org/2000/svg"><g id="Page-1" fill="none" fill-rule="evenodd"><g id="116---Scales" fill-rule="nonzero"><path id="Shape" d="m32 7h14c.6290338.00202953 1.2209561.2979907 1.6.8.27.36.8.97 1.28.98h.01c.6046675-.1347823 1.1406492-.48263797 1.51-.98.3790439-.5020093.9709662-.79797047 1.6-.8h5c1.1045695 0 2 .8954305 2 2s-.8954305 2-2 2h-4.12c-1.05604 1.0780049-2.4823531 1.714305-3.99 1.78-1.4637702-.0312982-2.8467304-.6774056-3.81-1.78h-30.16c-.9632696 1.1025944-2.3462298 1.7487018-3.81 1.78-1.50764692-.065695-2.93396002-.7019951-3.99-1.78h-4.12c-1.1045695 0-2-.8954305-2-2s.8954305-2 2-2h5c.62903377.00202953 1.22095611.2979907 1.6.8.36935083.49736203.9053325.8452177 1.51.98h.01c.48-.01 1.01-.62 1.28-.98.3790439-.5020093.9709662-.79797047 1.6-.8z" fill="#ffe0e2"/><path id="Shape" d="m28 55h17c.5522847 0 1 .4477153 1 1v1c0 1.1045695-.8954305 2-2 2h-28c-1.1045695 0-2-.8954305-2-2v-1c0-.5522847.4477153-1 1-1z" fill="#ffe7e8"/><path id="Shape" d="m45 55h-3c.5522847 0 1 .4477153 1 1v1c0 1.1045695-.8954305 2-2 2h3c1.1045695 0 2-.8954305 2-2v-1c0-.5522847-.4477153-1-1-1z" fill="#ffc9cc"/><path id="Shape" d="m19 55c0-3.3137085 2.6862915-6 6-6h10c3.3137085 0 6 2.6862915 6 6" fill="#ffe7e8"/><path id="Shape" d="m35 49h-3c3.3137085 0 6 2.6862915 6 6h3c0-3.3137085-2.6862915-6-6-6z" fill="#ffc9cc"/><path id="Shape" d="m30 1c1.1045695 0 2 .8954305 2 2v46h-4v-46c0-1.1045695.8954305-2 2-2z" fill="#ffe0e2"/><path id="Shape" d="m16 30h4c.5522847 0 1 .4477153 1 1v4c0 2.7614237-2.2385763 5-5 5h-10c-1.32608245 0-2.59785201-.5267842-3.53553391-1.4644661-.93768189-.9376819-1.46446609-2.2094515-1.46446609-3.5355339v-4c0-.5522847.44771525-1 1-1z" fill="#ffe7e8"/><path id="Shape" d="m20 30h-3c.5522847 0 1 .4477153 1 1v4c0 2.7614237-2.2385763 5-5 5h3c2.7614237 0 5-2.2385763 5-5v-4c0-.5522847-.4477153-1-1-1z" fill="#ffc9cc"/><path id="Shape" d="m54 30h4c.5522847 0 1 .4477153 1 1v4c0 2.7614237-2.2385763 5-5 5h-10c-2.7614237 0-5-2.2385763-5-5v-4c0-.5522847.4477153-1 1-1z" fill="#ffe7e8"/><path id="Shape" d="m58 30h-3c.5522847 0 1 .4477153 1 1v4c0 2.7614237-2.2385763 5-5 5h3c2.7614237 0 5-2.2385763 5-5v-4c0-.2652165-.1053568-.5195704-.2928932-.7071068s-.4418903-.2928932-.7071068-.2928932z" fill="#ffc9cc"/><g fill="#fff"><path id="Shape" d="m3 11h3c-1.1045695 0-2-.8954305-2-2s.8954305-2 2-2h-3c-1.1045695 0-2 .8954305-2 2s.8954305 2 2 2z"/><path id="Shape" d="m1 35c0 1.3260824.5267842 2.597852 1.46446609 3.5355339.9376819.9376819 2.20945146 1.4644661 3.53553391 1.4644661h3c-2.76142375 0-5-2.2385763-5-5v-4c0-.5522847.44771525-1 1-1h-3c-.55228475 0-1 .4477153-1 1z"/><path id="Shape" d="m28 49h-3c-3.3137085 0-6 2.6862915-6 6h3c0-3.3137085 2.6862915-6 6-6z"/><path id="Shape" d="m16 59h3c-1.1045695 0-2-.8954305-2-2v-1c0-.5522847.4477153-1 1-1h-3c-.5522847 0-1 .4477153-1 1v1c0 1.1045695.8954305 2 2 2z"/><path id="Shape" d="m12.6 12.531c-.9306438-.3186904-1.7780641-.8418357-2.48-1.531h-3c1.38307092 1.5171352 3.5108655 2.1115975 5.48 1.531z"/><path id="Rectangle-path" d="m8 39h8v2h-8z"/></g><path id="Shape" d="m57 12c1.6568542 0 3-1.3431458 3-3 0-1.65685425-1.3431458-3-3-3h-5c-.9390722.00399596-1.8231072.44361223-2.393 1.19-.1890775.22743025-.4165104.42000371-.672.569-.2052874-.15852721-.3856281-.34695795-.535-.559-.5693268-.75209862-1.456725-1.19579776-2.4-1.2h-13v-3c0-1.65685425-1.3431458-3-3-3s-3 1.34314575-3 3v3h-13c-.9431649.00466343-1.8303703.4482661-2.4 1.2-.1479506.21040579-.3262135.39776721-.529.556-.2555305-.14311259-.4828979-.33151242-.671-.556-.56932676-.75209862-1.45672504-1.19579776-2.4-1.2h-5c-1.65685425 0-3 1.34314575-3 3 0 1.6568542 1.34314575 3 3 3h3.734c.73497263.6501207 1.59003048 1.1501783 2.517 1.472l-6.901 15.528h-.35c-1.1045695 0-2 .8954305-2 2v4c.00036119 2.0113544 1.00851008 3.8887267 2.685 5 .82748118.5439366 1.77526141.8775991 2.761.972.525.037.912.027 1.322.028h1.232c.55228475 0 1-.4477153 1-1s-.44771525-1-1-1h-1.232c-.41 0-.844 0-1.139-.019-.65550684-.0645618-1.28571547-.2865242-1.837-.647-1.11494202-.7438673-1.78671723-1.9936991-1.792-3.334v-4h9c.5522847 0 1-.4477153 1-1s-.4477153-1-1-1h-6.461l6.461-14.538 6.461 14.538h-1.461c-.5522847 0-1 .4477153-1 1s.4477153 1 1 1h4v4c0 2.209139-1.790861 4-4 4-.5522847 0-1 .4477153-1 1s.4477153 1 1 1c3.3123376-.0033074 5.9966926-2.6876624 6-6v-4c0-1.1045695-.8954305-2-2-2h-.35l-6.879-15.478c.9597629-.3020626 1.8361634-.8231101 2.56-1.522h11.669v36h-2c-3.4756199.0066473-6.420937 2.5603905-6.92 6h-3.08c-1.1045695 0-2 .8954305-2 2v1c0 1.6568542 1.3431458 3 3 3h28c1.6568542 0 3-1.3431458 3-3v-1c0-1.1045695-.8954305-2-2-2h-3.08c-.499063-3.4396095-3.4443801-5.9933527-6.92-6h-2v-36h11.669c.7238366.6988899 1.6002371 1.2199374 2.56 1.522l-6.879 15.478h-.35c-1.1045695 0-2 .8954305-2 2v4c.0033074 3.3123376 2.6876624 5.9966926 6 6h10c3.3123376-.0033074 5.9966926-2.6876624 6-6v-4c0-1.1045695-.8954305-2-2-2h-.35l-6.9-15.528c.9266153-.3219392 1.7813237-.8219912 2.516-1.472zm-42.08-2c-.2727344.0002332-.5335406.1118525-.722.309-.5998861.6648496-1.3814036 1.139392-2.248 1.365l-.036-.08c-.160402-.3613564-.5186429-.5942858-.914-.5942858s-.753598.2329294-.914.5942858l-.017.038c-.85086862-.2654139-1.62580979-.7307215-2.26-1.357-.18591245-.1766165-.43256904-.27506439-.689-.275h-4.12c-.55228473-.00000002-.99999996-.44771527-.99999996-1s.44771523-.99999998.99999996-1h5c.31801886.00320479.61638204.15441984.807.409.5689184.74546188 1.4077579 1.23777739 2.336 1.371.8612049-.11970921 1.6196345-.62852439 2.057-1.38.1909697-.24925799.4860118-.39677902.8-.4h13v2zm24.98 44h-11.9c-.5522847 0-1 .4477153-1 1s.4477153 1 1 1h17v1c0 .5522847-.4477153 1-1 1h-28c-.5522847 0-1-.4477153-1-1v-1h7c.5522847 0 1-.4477153 1-1s-.4477153-1-1-1h-1.9c.4784327-2.3264168 2.5248992-3.9970017 4.9-4h10c2.3751008.0029983 4.4215673 1.6735832 4.9 4zm-10.9-6v-45c0-.55228475.4477153-1 1-1s1 .44771525 1 1v45zm25-17h4v4c0 2.209139-1.790861 4-4 4h-10c-2.209139 0-4-1.790861-4-4v-4h9c.5522847 0 1-.4477153 1-1s-.4477153-1-1-1h-6.461l6.461-14.538 6.461 14.538h-1.461c-.5522847 0-1 .4477153-1 1s.4477153 1 1 1zm-1.809-20.725c-.6341902.6262785-1.4091314 1.0915861-2.26 1.357l-.017-.038c-.160402-.3613564-.5186429-.5942858-.914-.5942858s-.753598.2329294-.914.5942858l-.036.08c-.8673174-.2252502-1.6495739-.6998191-2.25-1.365-.1879789-.1966469-.4479606-.3082223-.72-.309h-12.08v-2h13c.3142057.00231751.6096226.15002594.8.4.4444723.75968608 1.2167884 1.26963646 2.09 1.38.9205935-.14089518 1.7496116-.63615272 2.31-1.38.1909697-.24925799.4860118-.39677902.8-.4h5c.5522847 0 1 .44771525 1 1s-.4477153 1-1 1h-4.12c-.256431-.00006439-.5030876.0983835-.689.275z" fill="#ff414c"/><circle id="Oval" cx="12" cy="40" fill="#ff414c" r="1"/></g></g></svg>