<svg height="512" viewBox="0 0 60 42" width="512" xmlns="http://www.w3.org/2000/svg"><g id="Page-1" fill="none" fill-rule="evenodd"><g id="117---Input" fill-rule="nonzero"><path id="Shape" d="m45 34h10c2.209139 0 4-1.790861 4-4v-18c0-2.209139-1.790861-4-4-4h-50c-2.209139 0-4 1.790861-4 4v18c0 2.209139 1.790861 4 4 4z" fill="#ffe7e8"/><path id="Shape" d="m55 8h-3c2.209139 0 4 1.790861 4 4v18c0 2.209139-1.790861 4-4 4h3c2.209139 0 4-1.790861 4-4v-18c0-2.209139-1.790861-4-4-4z" fill="#ffc9cc"/><path id="Shape" d="m23 30h-16c-1.1045695 0-2-.8954305-2-2v-14c0-1.1045695.8954305-2 2-2h23c1.1045695 0 2 .8954305 2 2v14c0 1.1045695-.8954305 2-2 2z" fill="#ffe0e2"/><path id="Shape" d="m30 12h-3c1.1045695 0 2 .8954305 2 2v14c0 1.1045695-.8954305 2-2 2h3c1.1045695 0 2-.8954305 2-2v-14c0-1.1045695-.8954305-2-2-2z" fill="#ff9ea1"/><path id="Shape" d="m1 30c0 2.209139 1.790861 4 4 4h3c-2.209139 0-4-1.790861-4-4v-18c0-2.209139 1.790861-4 4-4h-3c-2.209139 0-4 1.790861-4 4z" fill="#fff"/><path id="Rectangle-path" d="m0 12h2v8h-2z" fill="#fff"/><g fill="#ff414c"><circle id="Oval" cx="1" cy="16" r="1"/><path id="Shape" d="m1 13c.55228475 0 1-.4477153 1-1 0-1.6568542 1.34314575-3 3-3h32c.5522847 0 1-.44771525 1-1s-.4477153-1-1-1h-32c-2.76005315.00330612-4.99669388 2.23994685-5 5 0 .5522847.44771525 1 1 1z"/><path id="Shape" d="m5 35h32c.5522847 0 1-.4477153 1-1s-.4477153-1-1-1h-32c-1.65685425 0-3-1.3431458-3-3v-10c0-.5522847-.44771525-1-1-1s-1 .4477153-1 1v10c.00330612 2.7600532 2.23994685 4.9966939 5 5z"/><path id="Shape" d="m55 7h-10c-.5522847 0-1 .44771525-1 1s.4477153 1 1 1h10c1.6568542 0 3 1.3431458 3 3v18c0 1.6568542-1.3431458 3-3 3h-10c-.5522847 0-1 .4477153-1 1s.4477153 1 1 1h10c2.7600532-.0033061 4.9966939-2.2399468 5-5v-18c-.0033061-2.76005315-2.2399468-4.99669388-5-5z"/><path id="Shape" d="m30 29h-2c-.5522847 0-1 .4477153-1 1s.4477153 1 1 1h2c1.6568542 0 3-1.3431458 3-3v-14c0-1.6568542-1.3431458-3-3-3h-23c-1.65685425 0-3 1.3431458-3 3v14c0 1.6568542 1.34314575 3 3 3h16c.5522847 0 1-.4477153 1-1s-.4477153-1-1-1h-16c-.55228475 0-1-.4477153-1-1v-14c0-.5522847.44771525-1 1-1h23c.5522847 0 1 .4477153 1 1v14c0 .5522847-.4477153 1-1 1z"/><path id="Shape" d="m43.447 2.4c.4871677-.23670049 1.0170595-.37274462 1.558-.4.3572656-.00089316.6869161-.1923174.8647754-.50216506s.1769063-.69104551-.0025-1c-.1794063-.3089545-.5100098-.4987281-.8672754-.49783494-.8496235.02378766-1.68418.23012468-2.447.605-.6015344.29571085-1.1299137.72128329-1.547 1.246-.9996892-1.17406992-2.4639823-1.85065667-4.006-1.851-.5522847-.00165684-1.0013431.44471526-1.003.997-.0016568.55228474.4447153 1.00134313.997 1.003.8089446-.0442714 1.598586.25734418 2.1720242.82963778.5734382.57229361.8766308 1.36133078.8339758 2.17036222v32c.042951.8089353-.2600057 1.5979914-.8332918 2.1703236s-1.3628456.8739744-2.1717082.8296764c-.5522847.0013807-.9988807.4502153-.9975 1.0025s.4502153.9988807 1.0025.9975c1.5420177-.0003433 3.0063108-.6769301 4.006-1.851.4165456.5265317.944966.9538452 1.547 1.251.7632088.373145 1.5977469.5777723 2.447.6.5522847.0016568 1.0013431-.4447153 1.0029999-.997.0016569-.5522847-.4447152-1.0013431-.9969999-1.003-.5412515-.0273125-1.0714591-.1633504-1.559-.4-.9729517-.4847131-1.5478383-1.5176815-1.447-2.6v-32c-.1008383-1.08231855.4740483-2.11528689 1.447-2.6z"/></g></g></g></svg>