<svg height="512" viewBox="0 0 54 60" width="512" xmlns="http://www.w3.org/2000/svg"><g id="Page-1" fill="none" fill-rule="evenodd"><g id="118---Forward" fill-rule="nonzero" transform="translate(0 -1)"><path id="Shape" d="m53 34c.0053216 14.0643878-11.1743122 25.58338-25.2325731 25.9985094s-25.89811583-10.4241155-26.7227005-24.464311c-.82458468-14.0401956 9.6650665-26.19085869 23.6752736-27.4241984l-3.02-2.59c-.8394728-.71797017-.9379702-1.98052718-.22-2.82s1.9805272-.93797017 2.82-.22l7 6c.4443328.37997648.7001539.93535161.7001539 1.52 0 .5846484-.2558211 1.1400235-.7001539 1.52l-7 6c-.8394728.7179702-2.1020298.6194728-2.82-.22-.7179701-.8394728-.6194728-2.1020298.22-2.82l2.71-2.32c-11.7324343 1.3909005-20.27149141 11.8002814-19.34177618 23.5782374.92971522 11.777956 10.99620888 20.7186726 22.80156508 20.2515731 11.8053563-.4670995 21.1339763-10.1752176 21.1302111-21.9898105.0168088-4.9486281-1.6513434-9.7555869-4.73-13.63-.684833-.8670871-.537087-2.1251669.33-2.81.8670871-.684833 2.1251669-.537087 2.81.33 3.6407045 4.5782933 5.6124193 10.2606414 5.59 16.11z" fill="#ffe0e2"/><path id="Shape" d="m47.41 17.89c-.3669867-.4683445-.9240349-.748226-1.518849-.7631253-.5948141-.0148994-1.1651763.2367417-1.555151.6861253.023.027.051.049.074.077 3.6407045 4.5782933 5.6124193 10.2606414 5.59 16.11-.0144048 13.7705321-10.7531512 25.1465902-24.5 25.954.5.028 1 .046 1.5.046 14.353691-.0137818 25.9862182-11.646309 26-26 .0224193-5.8493586-1.9492955-11.5317067-5.59-16.11z" fill="#ff9ea1"/><path id="Shape" d="m45 10c.001666.5849791-.2543964 1.1410003-.7 1.52l-7 6c-.8394728.7179702-2.1020298.6194728-2.82-.22-.7179701-.8394728-.6194728-2.1020298.22-2.82l5.23-4.48-5.23-4.48c-.8394728-.71797017-.9379702-1.98052718-.22-2.82s1.9805272-.93797017 2.82-.22l7 6c.4456036.37899974.701666.93502086.7 1.52z" fill="#ffe0e2"/><path id="Shape" d="m22 42h-1v-17c-.0001355-.7374384-.4060631-1.4149703-1.056234-1.7629549-.6501708-.3479847-1.4390817-.3099547-2.052766.0989549l-3 2c-.9035893.5966236-1.1682765 1.8039962-.5971523 2.723915s1.7706234 1.2182631 2.7061523.673085v13.267h-1c-1.1045695 0-2 .8954305-2 2s.8954305 2 2 2h6c1.1045695 0 2-.8954305 2-2s-.8954305-2-2-2z" fill="#ffe7e8"/><path id="Shape" d="m35 23h-3c-2.7614237 0-5 2.2385763-5 5v13c0 2.7614237 2.2385763 5 5 5h3c2.7614237 0 5-2.2385763 5-5v-13c0-2.7614237-2.2385763-5-5-5zm1 18c0 .5522847-.4477153 1-1 1h-3c-.5522847 0-1-.4477153-1-1v-13c0-.5522847.4477153-1 1-1h3c.5522847 0 1 .4477153 1 1z" fill="#ffe7e8"/><path id="Shape" d="m27 60c.5 0 1-.018 1.5-.046-13.6037584-.7809076-24.29542955-11.9346439-24.50041368-25.5592556-.20498412-13.6246116 10.14630488-25.0949421 23.72041368-26.2847444l-3.02-2.59c-.4031525-.34476656-.6528238-.83557259-.6940824-1.36443329-.0412587-.52886069.1292755-1.05244871.4740824-1.45556671.011-.013.025-.022.036-.035l-.216-.185c-.8394728-.71797017-2.1020298-.61947282-2.82.22s-.6194728 2.10202983.22 2.82l3.02 2.59c-13.8601474 1.21925232-24.30277093 13.135836-23.69200599 27.036096s12.05833429 24.8550084 25.97200599 24.853904z" fill="#fff"/><path id="Shape" d="m3.179 41.572-1.905.607c-.80603641-2.653118-1.23490379-5.4064197-1.274-8.179h2c.03932265 2.5665158.43613944 5.1150287 1.179 7.572z" fill="#fff"/><g fill="#ff414c"><path id="Shape" d="m1.356 38.987c-.35726559.0016077-.6882503-.1875057-.8682754-.4961029s-.18174049-.6897951-.0045-1 .50650981-.5022894.8637754-.5038971h.009c.55228475 0 1 .4477153 1 1s-.44771525 1-1 1z"/><path id="Shape" d="m0 34c0 .5522847.44771525 1 1 1s1-.4477153 1-1c.07381358-12.925135 9.9313582-23.6906113 22.8-24.9.4006924-.03548317.7411176-.3076035.863994-.69063727.1228763-.38303376.0042807-.80240693-.300994-1.06436273l-3.014-2.586c-.4188063-.35917689-.4675822-.98968447-.109-1.409.1724109-.20187414.4180188-.32690606.6826939-.34753984.2646752-.02063378.5266926.06482423.7283061.23753984l7 6c.2218162.18998428.3494927.46744444.3494927.7595 0 .2920556-.1276765.5695157-.3494927.7595l-7 6c-.1806121.1565905-.4119607.2422357-.651.241-.4185706.0003808-.7930912-.2599657-.9385686-.6524422-.1454773-.3924765-.0311268-.8340305.2865686-1.1065578l2.711-2.323c.3347444-.2862653.4427726-.7578423.2660242-1.1612796-.1767483-.4034373-.596649-.6437254-1.0340242-.5917204-12.2651707 1.45475-21.19163417 12.3370318-20.21967211 24.6498706s11.49529791 21.6597747 23.83680851 21.1721001c12.3415105-.4876745 22.0944983-10.6358289 22.0918636-22.9869707.0191156-5.1749062-1.7257806-10.2018438-4.947-14.252-.3424165-.4335435-.2685435-1.0625834.165-1.405.4335435-.3424165 1.0625834-.2685435 1.405.165 3.501357 4.4025838 5.397923 9.866895 5.377 15.492-.0154309 13.800722-11.199278 24.9845691-25 25-2.632661-.0358462-5.2459477-.4562899-7.757-1.248-2.5026192-.820603-4.8579946-2.0359321-6.977-3.6-4.27915875-3.1308098-7.45956629-7.533751-9.087-12.58-.16015284-.5131418-.69956103-.8056721-1.217-.66-.26230645.0721072-.48391556.247967-.61373134.4870318-.12981578.2390649-.15663307.5206996-.07426866.7799682 1.75611748 5.448723 5.18925276 10.2031027 9.809 13.584 2.2893226 1.6900671 4.8340967 3.0033029 7.538 3.89 2.7119056.8571576 5.5350844 1.3110091 8.379 1.347 14.9048345-.0165334 26.9834666-12.0951655 27-27 .0220702-6.0758338-2.026857-11.9778305-5.809-16.733-.6646926-.8408246-1.7274685-1.2631692-2.7879903-1.1079408-1.0605217.1552284-1.9576708.864447-2.3535 1.8605-.3958291.996053-.2302023 2.1276162.4344903 2.9684408 2.9407231 3.6978615 4.5335923 8.2874129 4.516 13.012.0002318 10.7911049-8.1781772 19.8259096-18.9160149 20.8967906-10.7378378 1.0708811-20.53949309-6.1707777-22.67045572-16.7493856-2.13096264-10.5786078 4.10248412-21.0503895 14.41747062-24.220405-1.0653226 1.114813-1.1120223 2.8556755-.108 4.026 1.1001141 1.2135747 2.956857 1.3558269 4.229.324l7-6c.664749-.5699442 1.0473111-1.4018701 1.0473111-2.2775 0-.87562986-.3825621-1.70755578-1.0473111-2.2775l-7-6c-.8105033-.72115293-1.9472073-.94853274-2.972754-.59465283-1.0255468.3538799-1.780134 1.23387742-1.9734269 2.30140492-.193293 1.0675275.2048276 2.1562412 1.0411809 2.84724791l1.316 1.13c-12.88462175 2.324874-22.28313638 13.5015541-22.363 26.594z"/><path id="Shape" d="m33.723 17.953c1.0785742 1.2568062 2.9715599 1.4018351 4.229.324l7-6c.664749-.5699442 1.0473111-1.4018701 1.0473111-2.2775 0-.87562986-.3825621-1.70755578-1.0473111-2.2775l-7-6c-.8105033-.72115293-1.9472073-.94853274-2.972754-.59465283-1.0255468.3538799-1.780134 1.23387742-1.9734269 2.30140492-.193293 1.0675275.2048276 2.1562412 1.0411809 2.84724791l4.344 3.724-4.343 3.722c-.6042996.5178814-.9780563 1.2546582-1.0390093 2.0481718-.0609529.7935137.1958934 1.5787296.7140093 2.1828282zm1.626-2.713 5.228-4.481c.2214665-.1899799.3489094-.4672128.3489094-.759 0-.29178719-.1274429-.5690201-.3489094-.759l-5.228-4.482c-.4184612-.35880031-.4676616-.9885651-.11-1.408.1722971-.20231783.4180372-.32773581.6829618-.34856204s.5272438.06465225.7290382.23756204l7 6c.2218162.18998428.3494927.46744444.3494927.7595 0 .2920556-.1276765.5695157-.3494927.7595l-7 6c-.1806121.1565905-.4119607.2422357-.651.241-.292151.0002693-.5698097-.1272345-.76-.349-.172953-.2013601-.2587527-.4632217-.2384948-.727888.020258-.2646663.1449113-.5104194.3464948-.683112z"/><path id="Shape" d="m13 44c0 1.6568542 1.3431458 3 3 3h6c1.6568542 0 3-1.3431458 3-3s-1.3431458-3-3-3v-16c.0013962-1.1070429-.6069917-2.1248844-1.5827041-2.6478864-.9757125-.5230019-2.1601557-.4661547-3.0812959.1478864l-3 2c-1.1036206.7320539-1.5966611 2.1011544-1.2131551 3.3687524.383506 1.2675979 1.5528156 2.133762 2.8771551 2.1312476v11c-1.6568542 0-3 1.3431458-3 3zm4.5-16.134c-.3094011-.1786328-.6905989-.1786328-1 0-.4565606.2636799-1.0394089.1275945-1.332-.311-.1472282-.2206502-.2007572-.4907558-.1488077-.7508787.0519496-.2601229.2051208-.488948.4258077-.6361213l3-2c.3068587-.2047322.7015085-.2239019 1.026765-.049874.3252566.174028.5282902.5129871.528235.881874v17c0 .5522847.4477153 1 1 1h1c.5522847 0 1 .4477153 1 1s-.4477153 1-1 1h-6c-.5522847 0-1-.4477153-1-1s.4477153-1 1-1h1c.5522847 0 1-.4477153 1-1v-13.268c-.0000091-.3572565-.1906068-.6873717-.5-.866z"/><path id="Shape" d="m26 28v13c.0033074 3.3123376 2.6876624 5.9966926 6 6h3c3.3123376-.0033074 5.9966926-2.6876624 6-6v-13c-.0033074-3.3123376-2.6876624-5.9966926-6-6h-3c-3.3123376.0033074-5.9966926 2.6876624-6 6zm13 0v13c0 2.209139-1.790861 4-4 4h-3c-2.209139 0-4-1.790861-4-4v-13c0-2.209139 1.790861-4 4-4h3c2.209139 0 4 1.790861 4 4z"/><path id="Shape" d="m30 28v13c0 1.1045695.8954305 2 2 2h3c1.1045695 0 2-.8954305 2-2v-13c0-1.1045695-.8954305-2-2-2h-3c-1.1045695 0-2 .8954305-2 2zm5 13h-3v-13h3z"/></g></g></g></svg>