<svg height="512" viewBox="0 0 54 60" width="512" xmlns="http://www.w3.org/2000/svg"><g id="Page-1" fill="none" fill-rule="evenodd"><g id="119---Rewind" fill-rule="nonzero" transform="translate(0 -1)"><path id="Shape" d="m1 34c-.00532157 14.0643878 11.1743122 25.58338 25.2325731 25.9985094s25.8981158-10.4241155 26.7227005-24.464311c.8245847-14.0401956-9.6650665-26.19085869-23.6752736-27.4241984l3.02-2.59c.5430437-.46444527.7970582-1.18332075.6663586-1.88583302-.1306995-.70251228-.6262567-1.281933-1.3-1.52-.6737432-.23806701-1.4233149-.09861225-1.9663586.36583302l-7 6c-.4443328.37997648-.7001539.93535161-.7001539 1.52 0 .5846484.2558211 1.1400235.7001539 1.52l7 6c.5430437.4644453 1.2926154.6039 1.9663586.365833.6737433-.238067 1.1693005-.8174877 1.3-1.52.1306996-.7025122-.1233149-1.4213877-.6663586-1.885833l-2.71-2.32c11.7324343 1.3909005 20.2714914 11.8002814 19.3417762 23.5782374s-10.9962089 20.7186726-22.8015651 20.2515731c-11.8053563-.4670995-21.13397625-10.1752176-21.1302111-21.9898105-.01680881-4.9486281 1.65134343-9.7555869 4.73-13.63.4430093-.560907.5531265-1.3155491.2888715-1.9796599s-.86273563-1.1367962-1.56999999-1.24c-.70726436-.1032039-1.41586218.1787529-1.85887151.7396599-3.64070446 4.5782933-5.6124193 10.2606414-5.59 16.11z" fill="#ffe0e2"/><path id="Shape" d="m29.276 8.549c12.7739919 2.6451221 21.6090237 14.3483668 20.6533678 27.3582962s-11.405973 23.2965517-24.4293678 24.0467038c.5.028 1 .046 1.5.046 13.9136717.0011044 25.361241-10.953644 25.972006-24.853904.6107649-13.90026-9.8318586-25.81684368-23.692006-27.036096z" fill="#ff9ea1"/><path id="Shape" d="m9 10c-.00166596.5849791.2543964 1.1410003.7 1.52l7 6c.8394728.7179702 2.1020298.6194728 2.82-.22.7179701-.8394728.6194728-2.1020298-.22-2.82l-5.23-4.48 5.23-4.48c.8394728-.71797017.9379702-1.98052718.22-2.82s-1.9805272-.93797017-2.82-.22l-7 6c-.4456036.37899974-.70166596.93502086-.7 1.52z" fill="#ffe0e2"/><path id="Shape" d="m22 42h-1v-17c-.0001355-.7374384-.4060631-1.4149703-1.056234-1.7629549-.6501708-.3479847-1.4390817-.3099547-2.052766.0989549l-3 2c-.9035893.5966236-1.1682765 1.8039962-.5971523 2.723915s1.7706234 1.2182631 2.7061523.673085v13.267h-1c-1.1045695 0-2 .8954305-2 2s.8954305 2 2 2h6c1.1045695 0 2-.8954305 2-2s-.8954305-2-2-2z" fill="#ffe7e8"/><path id="Shape" d="m35 23h-3c-2.7614237 0-5 2.2385763-5 5v13c0 2.7614237 2.2385763 5 5 5h3c2.7614237 0 5-2.2385763 5-5v-13c0-2.7614237-2.2385763-5-5-5zm1 18c0 .5522847-.4477153 1-1 1h-3c-.5522847 0-1-.4477153-1-1v-13c0-.5522847.4477153-1 1-1h3c.5522847 0 1 .4477153 1 1z" fill="#ffe7e8"/><path id="Shape" d="m27 60c.512 0 1.019-.016 1.523-.045-13.7565287-.795259-24.50890461-12.1755108-24.523-25.955-.0224193-5.8493586 1.94929554-11.5317067 5.59-16.11.023-.028.051-.05.074-.077-.0802687-.0920474-.1686218-.1767191-.264-.253-.41632699-.3290301-.94634772-.4791202-1.47337544-.4172273-.52702773.061893-1.00785475.3306947-1.33662456.7472273-3.64070446 4.5782933-5.6124193 10.2606414-5.59 16.11.01378176 14.353691 11.646309 25.9862182 26 26z" fill="#fff"/><path id="Shape" d="m9.7 11.52 7 6c.3628671.3088155.8235146.4789007 1.3.48.5664925.0027947 1.1055472-.243693 1.474-.674l-6.774-5.806c-.4443328-.3799765-.7001539-.9353516-.7001539-1.52 0-.58464839.2558211-1.14002352.7001539-1.52l6.784-5.815c-.7246444-.80568521-1.9591205-.88771757-2.784-.185l-7 6c-.44433278.37997648-.70015386.93535161-.70015386 1.52 0 .5846484.25582108 1.1400235.70015386 1.52z" fill="#fff"/><path id="Shape" d="m3.179 41.572-1.905.607c-.80603641-2.653118-1.23490379-5.4064197-1.274-8.179h2c.03932265 2.5665158.43613944 5.1150287 1.179 7.572z" fill="#fff"/><g fill="#ff414c"><path id="Shape" d="m1.356 38.987c-.35726559.0016077-.6882503-.1875057-.8682754-.4961029s-.18174049-.6897951-.0045-1 .50650981-.5022894.8637754-.5038971h.009c.55228475 0 1 .4477153 1 1s-.44771525 1-1 1z"/><path id="Shape" d="m5.809 17.268c-3.78228304 4.7547063-5.83124217 10.6564422-5.809 16.732.00000001.5522847.44771526 1 1 1s.99999999-.4477153 1-1c-.02109507-5.624829 1.87550292-11.0888795 5.377-15.491.22132603-.2804535.57545988-.4215272.92900274-.3700799.35354286.0514472.65278317.2875992.785.6195.13221683.3319007.07732329.7091264-.14400274.9895799-3.22121943 4.0501562-4.96611563 9.0770938-4.947 14.252-.00269838 12.3512871 9.7504588 22.4995568 22.09212 22.9870994 12.3416613.4875427 22.8649665-8.8597296 23.8366018-21.17274s-7.9553431-23.1951293-20.2207218-24.6493594c-.4373752-.052005-.8572759.1882831-1.0340242.5917204-.1767484.4034373-.0687202.8750143.2660242 1.1612796l2.711 2.323c.3175561.2724081.4319592.7137113.2867417 1.1060886s-.5193543.6528735-.9377417.6529114c-.2385028.0009087-.4693165-.0843148-.65-.24l-7-6c-.2218162-.1899843-.3494927-.4674444-.3494927-.7595 0-.29205556.1276765-.56951572.3494927-.7595l7-6c.4193155-.35858224 1.0498231-.30980628 1.409.109.172953.20136012.2587527.46322169.2384948.72788798-.020258.26466628-.1449113.51041946-.3464948.68311202l-3.018 2.587c-.3034761.26287689-.4203036.68176999-.296679 1.0637634.1236246.38199342.4637276.65301003.863679.6882366 13.3124501 1.1941521 23.3308652 12.6482269 22.7421589 26.0011573-.5887064 13.3529304-11.5762693 23.8808899-24.9421589 23.8988427-2.6326547-.0359177-5.2459312-.4563597-7.757-1.248-2.5027256-.820349-4.8581399-2.0356983-6.977-3.6-4.27915875-3.1308098-7.45956629-7.533751-9.087-12.58-.1597132-.5135032-.69949799-.8062377-1.217-.66-.26230645.0721072-.48391556.247967-.61373134.4870318-.12981578.2390649-.15663307.5206996-.07426866.7799682 1.75611748 5.448723 5.18925276 10.2031027 9.809 13.584 2.2893226 1.6900671 4.8340967 3.0033029 7.538 3.89 2.7119056.8571576 5.5350844 1.3110091 8.379 1.347 13.9966088-.0177528 25.6590417-10.7285202 26.8652983-24.6730646 1.2062565-13.9445444-8.4436531-26.4989111-22.2292983-28.9199354l1.316-1.129c.8565724-.6841204 1.2717932-1.78098138 1.0829801-2.8608363-.1888131-1.07985493-.9515925-1.97074209-1.9894836-2.32361475-1.037891-.35287265-2.1856147-.11153753-2.9934965.62945105l-7 6c-.664749.56994422-1.0473111 1.40187014-1.0473111 2.2775 0 .8756299.3825621 1.7075558 1.0473111 2.2775l7 6c1.2728878 1.0323388 3.1307109.889632 4.231-.325 1.003141-1.1704184.9560159-2.9105888-.109-4.025 10.313493 3.1723684 16.5443007 13.6445603 14.4118171 24.2221108-2.1324836 10.5775504-11.9341462 17.8175214-22.6711808 16.746005-10.7370346-1.0715163-18.91459201-10.105747-18.9146363-20.8961158-.01759232-4.7245871 1.57527688-9.3141385 4.516-13.012.6808344-.8394432.8574886-1.9802244.4624354-2.9862729-.3950532-1.0060484-1.30073506-1.7218199-2.370843-1.8737064-1.07010794-.1518864-2.13919362.2835952-2.7985924 1.1399793z"/><path id="Shape" d="m16.048 1.723-7 6c-.664749.56994422-1.04731115 1.40187014-1.04731115 2.2775 0 .8756299.38256215 1.7075558 1.04731115 2.2775l7 6c.8105033.7211529 1.9472073.9485327 2.972754.5946528 1.0255468-.3538799 1.780134-1.2338774 1.9734269-2.3014049.193293-1.0675275-.2048276-2.1562412-1.0411809-2.8472479l-4.344-3.724 4.343-3.722c.8565724-.6841204 1.2717932-1.78098138 1.0829801-2.8608363-.1888131-1.07985493-.9515925-1.97074209-1.9894836-2.32361475-1.037891-.35287265-2.1856147-.11153753-2.9934965.62945105zm2.952 2.354c-.0192881.26479486-.1439154.51080772-.346.683l-5.231 4.481c-.2214665.1899799-.3489094.46721281-.3489094.759 0 .2917872.1274429.5690201.3489094.759l5.228 4.482c.4188063.3591769.4675822.9896845.109 1.409-.1900027.2221378-.4676882.3500192-.76.35-.2385028.0009087-.4693165-.0843148-.65-.24l-7-6c-.2218162-.1899843-.3494927-.4674444-.3494927-.7595 0-.29205556.1276765-.56951572.3494927-.7595l7-6c.3069883-.26476134.7434474-.31798932 1.105069-.1347677.3616216.18322161.5768481.56663696.544931.9707677z"/><path id="Shape" d="m20.416 22.355c-.9755799-.5221501-2.1593775-.4648819-3.08.149l-3 2c-1.0998133.7333529-1.5900086 2.1001514-1.2069572 3.3653262.3830515 1.2651748 1.5490663 2.1305298 2.8709572 2.1306738v11c-1.6568542 0-3 1.3431458-3 3s1.3431458 3 3 3h6c1.6568542 0 3-1.3431458 3-3s-1.3431458-3-3-3v-16c.0000754-1.1062859-.6087-2.1228331-1.584-2.645zm2.584 21.645c0 .5522847-.4477153 1-1 1h-6c-.5522847 0-1-.4477153-1-1s.4477153-1 1-1h1c.5522847 0 1-.4477153 1-1v-13.268c-.0000091-.3572611-.1906116-.6873798-.500011-.8660064-.3093994-.1786265-.6905919-.1786241-.999989.0000064-.4565606.2636799-1.0394089.1275945-1.332-.311-.1472282-.2206502-.2007572-.4907558-.1488077-.7508787.0519496-.2601229.2051208-.488948.4258077-.6361213l3-2c.3068587-.2047322.7015085-.2239019 1.026765-.049874.3252566.174028.5282902.5129871.528235.881874v17c0 .5522847.4477153 1 1 1h1c.5522847 0 1 .4477153 1 1z"/><path id="Shape" d="m32 47h3c3.3123376-.0033074 5.9966926-2.6876624 6-6v-13c-.0033074-3.3123376-2.6876624-5.9966926-6-6h-3c-3.3123376.0033074-5.9966926 2.6876624-6 6v13c.0033074 3.3123376 2.6876624 5.9966926 6 6zm-4-19c0-2.209139 1.790861-4 4-4h3c2.209139 0 4 1.790861 4 4v13c0 2.209139-1.790861 4-4 4h-3c-2.209139 0-4-1.790861-4-4z"/><path id="Shape" d="m32 43h3c1.1045695 0 2-.8954305 2-2v-13c0-1.1045695-.8954305-2-2-2h-3c-1.1045695 0-2 .8954305-2 2v13c0 1.1045695.8954305 2 2 2zm0-15h3v13h-3z"/></g></g></g></svg>