<svg height="512" viewBox="0 0 60 60" width="512" xmlns="http://www.w3.org/2000/svg"><g id="Page-1" fill="none" fill-rule="evenodd"><g id="120---Cloud-Disk" fill-rule="nonzero"><path id="Shape" d="m59 30c-.0027198 5.1345804-3.8914355 9.4337716-9 9.95h-40c-3.88597884-.3884126-7.1897061-3.0047681-8.45817217-6.6983693-1.26846606-3.6936012-.26925453-7.787683 2.55817217-10.4816307-2.24461697-2.6791565-2.73381718-6.4160981-1.25447134-9.5827557 1.47934584-3.1666577 4.65930612-5.18950262 8.15447134-5.1872443 1.5015218.00131713 2.9791648.37588245 4.3 1.09l.01-.01c2.1523916-4.61747725 6.6445323-7.70004379 11.7271762-8.04734392 5.0826438-.34730013 9.9523407 2.09556638 12.7128238 6.37734392 3.9741921-1.3695218 8.3651923-.73464307 11.7887054 1.70448598 3.4235131 2.43912902 5.4577098 6.38197032 5.4612946 10.58551402.0035232 1.2393719-.17505 2.4725382-.53 3.66.6144149.6807928 1.1295105 1.4450196 1.53 2.27.659292 1.3623791 1.0011916 2.8564805 1 4.37z" fill="#ffe0e2"/><path id="Shape" d="m58 25.63c-.4004895-.8249804-.9155851-1.5892072-1.53-2.27.35495-1.1874618.5335232-2.4206281.53-3.66.0204698-3.7129008-1.5569278-7.2552582-4.3301251-9.72415019-2.7731973-2.46889204-6.4742824-3.62580495-10.1598749-3.17584981 6.5463615.76556416 11.4839126 6.3090289 11.49 12.9.0035232 1.2393719-.17505 2.4725382-.53 3.66.6144149.6807928 1.1295105 1.4450196 1.53 2.27 1.4233653 2.9406855 1.3221043 6.3909395-.2712742 9.243087s-4.4783527 4.7472546-7.7287258 5.076913h3c3.2503731-.3296584 6.1353473-2.2247655 7.7287258-5.076913s1.6946395-6.3024015.2712742-9.243087z" fill="#ff9ea1"/><path id="Shape" d="m56.47 23.36c-.3416967-.3783615-.7092468-.7325462-1.1-1.06" fill="#ffe7e8"/><path id="Shape" d="m46 29v28c-.0032948 1.1032019-.8967981 1.9967052-2 2h-3v-3c0-.5522847-.4477153-1-1-1h-20c-.5522847 0-1 .4477153-1 1v3h-3c-1.1032019-.0032948-1.9967052-.8967981-2-2v-28c.0032948-1.1032019.8967981-1.9967052 2-2h3v8c.0032948 1.1032019.8967981 1.9967052 2 2h18c1.1032019-.0032948 1.9967052-.8967981 2-2v-8h3c1.1032019.0032948 1.9967052.8967981 2 2z" fill="#ffe7e8"/><path id="Shape" d="m44 27h-3c1.1032019.0032948 1.9967052.8967981 2 2v28c-.0032948 1.1032019-.8967981 1.9967052-2 2h3c1.1032019-.0032948 1.9967052-.8967981 2-2v-28c-.0032948-1.1032019-.8967981-1.9967052-2-2z" fill="#ffc9cc"/><path id="Shape" d="m41 27v8c-.0032948 1.1032019-.8967981 1.9967052-2 2h-12c-1.1032019-.0032948-1.9967052-.8967981-2-2v-8z" fill="#ffe7e8"/><path id="Shape" d="m38 27v8c-.0032948 1.1032019-.8967981 1.9967052-2 2h3c1.1032019-.0032948 1.9967052-.8967981 2-2v-8z" fill="#ffc9cc"/><path id="Shape" d="m27 37h-6c-1.1032019-.0032948-1.9967052-.8967981-2-2v-8h6v8c.0032948 1.1032019.8967981 1.9967052 2 2z" fill="#ffc9cc"/><circle id="Oval" cx="30" cy="46" fill="#ffc9cc" r="5"/><path id="Shape" d="m41 56v3h-22v-3c0-.5522847.4477153-1 1-1h20c.5522847 0 1 .4477153 1 1z" fill="#ffe0e2"/><path id="Shape" d="m10 39.95h3c-3.87975945-.3988473-7.17429278-3.015491-8.44109091-6.7042354-1.26679813-3.6887443-.27501771-7.7774049 2.54109091-10.4757646-2.06625097-2.4653793-2.6579723-5.8468023-1.55171275-8.8673449 1.10625956-3.0205427 3.74193287-5.21994752 6.91171275-5.7676551-3.70979485-.61808995-7.41196223 1.14000151-9.27742664 4.4056799-1.8654644 3.2656785-1.49936429 7.3477.91742664 10.2293201-2.81610862 2.6983597-3.80788904 6.7870203-2.54109091 10.4757646 1.26679813 3.6887444 4.56133146 6.3053881 8.44109091 6.7042354z" fill="#fff"/><path id="Shape" d="m4.7 9.237 1.262 1.553c-1.86425889 1.5245118-2.95045934 3.8017923-2.962 6.21h-2c.01281961-3.0102141 1.36979606-5.8572974 3.7-7.763z" fill="#fff"/><g fill="#ff414c"><path id="Shape" d="m2.887 14.114c-.55228475.0027614-1.00223858-.4427153-1.005-.995s.44271525-1.0022386.995-1.005h.01c.55228475 0 1 .4477153 1 1s-.44771525 1-1 1z"/><path id="Shape" d="m3.223 37.777c1.79612015 1.7946162 4.15680096 2.9140232 6.683 3.169.033 0 .067.005.1.005.5328742.0000667.9721942-.4177315.9988712-.9499375.026677-.5322061-.3686613-.9918418-.8988712-1.0450625-4.60055497-.4615948-8.10393972-4.3323465-8.106-8.956-.00817449-2.4611536 1.00158318-4.8161691 2.79-6.507.3812732-.3643281.41409488-.9621203.075-1.366-1.20424672-1.4370803-1.86446366-3.2520574-1.865-5.127 0-.5522847-.44771525-1-1-1s-1 .4477153-1 1c.00066479 2.0351196.62311725 4.0214548 1.784 5.693-1.78765135 2.01489-2.77769833 4.6134077-2.784 7.307-.00723439 2.918702 1.15330007 5.719036 3.223 7.777z"/><path id="Shape" d="m49.9 38.956c-.5302099.0532207-.9255482.5128564-.8988712 1.0450625.026677.532206.465997.9500042.9988712.9499375.032 0 .067 0 .1-.005 5.6309838-.5457169 9.9207022-5.2886722 9.9-10.946-.0010289-1.6652485-.376993-3.3088952-1.1-4.809-.3631837-.7413487-.8097361-1.4388561-1.331-2.079.2864156-1.1147144.4312229-2.2610778.431-3.412.0082202-4.3942732-2.0510261-8.5364672-5.5592872-11.18256023-3.5082612-2.64609305-8.0568575-3.48784003-12.2797128-2.27243977-2.8023777-3.92909901-7.3349246-6.25668354-12.161-6.245-5.4864913.01585182-10.5308066 3.01241025-13.169 7.823-.0790825-.06990385-.1688969-.12662871-.266-.168-1.138597-.43337098-2.346717-.65533973-3.565-.655-2.29281666.01023152-4.51415991.79898467-6.3 2.237-.22207369.16744195-.36139641.4223148-.38244953.69964186-.02105312.27732704.07819764.55031104.27244953.74935814.3680645.3706783.95304311.4133464 1.371.1 1.42956339-1.14768656 3.20576268-1.77723447 5.039-1.786.9752644-.00013936 1.9423926.17742727 2.854.524.0548904.01563688.1111437.02601697.168.031-.3628849.9261704-.6309225 1.8867501-.8 2.867-.0923323.5438976.2732462 1.0598242.817 1.153.0557898.0099063.1123376.0149253.169.015.4867833-.00087.9022211-.3521345.984-.832.8769872-5.05784181 4.6538481-9.12289672 9.6336737-10.36877271 4.9798257-1.245876 10.2259457.56176747 13.3813263 4.61077271-.3830295.26675047-.5262461.76571185-.343 1.195.10618.24310457.3046052.43405718.5516048.53083148.2469995.0967743.5223302.09143906.7653952-.01483148.3-.131.6-.243.9-.351 3.963877-1.3714785 8.3561756-.57373892 11.5846195 2.1040258 3.2284439 2.6777646 4.824427 6.8468789 4.2093805 10.9959742-.4163849-.2547313-.9563898-.1672088-1.271.206-.3523417.4252642-.2932445 1.0556345.132 1.408.9950104.8189342 1.8025499 1.8419995 2.368 3 .5883345 1.2252541.8945084 2.5668154.896 3.926.0169466 4.6287595-3.492803 8.509416-8.1 8.956z"/><path id="Shape" d="m41 26h-25c-1.6568542 0-3 1.3431458-3 3v28c0 1.6568542 1.3431458 3 3 3h28c1.6568542 0 3-1.3431458 3-3v-28c0-1.6568542-1.3431458-3-3-3zm-14 10c-.5522847 0-1-.4477153-1-1v-7h14v7c0 .5522847-.4477153 1-1 1zm-3-8v7c.0033144.3414397.0655622.679743.184 1h-3.184c-.5522847 0-1-.4477153-1-1v-7zm-4 30v-2h20v2zm25-29v28c0 .5522847-.4477153 1-1 1h-2v-2c0-1.1045695-.8954305-2-2-2h-20c-1.1045695 0-2 .8954305-2 2v2h-2c-.5522847 0-1-.4477153-1-1v-28c0-.5522847.4477153-1 1-1h2v7c0 1.6568542 1.3431458 3 3 3h18c1.6568542 0 3-1.3431458 3-3v-7h2c.5522847 0 1 .4477153 1 1z"/><path id="Shape" d="m30 40c-3.3137085 0-6 2.6862915-6 6s2.6862915 6 6 6 6-2.6862915 6-6c-.0033074-3.3123376-2.6876624-5.9966926-6-6zm0 10c-2.209139 0-4-1.790861-4-4s1.790861-4 4-4 4 1.790861 4 4-1.790861 4-4 4z"/><circle id="Oval" cx="29" cy="45" r="1"/></g></g></g></svg>