<svg height="512" viewBox="0 0 60 60" width="512" xmlns="http://www.w3.org/2000/svg"><g id="Page-1" fill="none" fill-rule="evenodd"><g id="122---Cloud-Sync" fill-rule="nonzero"><path id="Shape" d="m58.917 30.108c-.0027198 5.1345804-3.8914355 9.4337716-9 9.95h-40c-3.88597884-.3884126-7.1897061-3.0047681-8.45817217-6.6983693-1.26846606-3.6936012-.26925453-7.787683 2.55817217-10.4816307-2.24461697-2.6791565-2.73381718-6.4160981-1.25447134-9.5827557 1.47934584-3.1666577 4.65930612-5.18950262 8.15447134-5.1872443 1.5015218.00131713 2.9791648.37588245 4.3 1.09l.01-.01c2.1523916-4.61747725 6.6445323-7.70004379 11.7271762-8.04734392 5.0826438-.34730013 9.9523407 2.09556638 12.7128238 6.37734392 3.9741921-1.3695218 8.3651923-.73464307 11.7887054 1.70448598 3.4235131 2.43912902 5.4577098 6.38197032 5.4612946 10.58551402.0035232 1.2393719-.17505 2.4725382-.53 3.66.6144149.6807928 1.1295105 1.4450196 1.53 2.27.659292 1.3623791 1.0011916 2.8564805 1 4.37z" fill="#ffe7e8"/><path id="Shape" d="m57.917 25.738c-.4004895-.8249804-.9155851-1.5892072-1.53-2.27.35495-1.1874618.5335232-2.4206281.53-3.66.0227784-3.7142918-1.5536209-7.2588293-4.3271067-9.7295093-2.7734857-2.47068007-6.4759084-3.62862944-10.1628933-3.1784907 6.5482549.76578746 11.4864468 6.3121205 11.49 12.905.0035232 1.2393719-.17505 2.4725382-.53 3.66.6144149.6807928 1.1295105 1.4450196 1.53 2.27 1.4233653 2.9406855 1.3221043 6.3909395-.2712742 9.243087s-4.4783527 4.7472546-7.7287258 5.076913h3c3.2503731-.3296584 6.1353473-2.2247655 7.7287258-5.076913s1.6946395-6.3024015.2712742-9.243087z" fill="#ffc9cc"/><path id="Shape" d="m30.414 40.586-6-6c-.7809997-.7807639-2.0470003-.7807639-2.828 0l-6 6c-.5199132.5021489-.7284252 1.2457558-.5453943 1.9450146.1830309.6992589.7291208 1.2453488 1.4283797 1.4283797.6992588.1830309 1.4428657-.0254811 1.9450146-.5453943l2.586-2.586v16.172c0 1.1045695.8954305 2 2 2s2-.8954305 2-2v-16.172l2.586 2.586c.7847578.7579444 2.0321696.7471047 2.8036372-.0243628.7714675-.7714676.7823072-2.0188794.0243628-2.8036372z" fill="#ffe0e2"/><path id="Shape" d="m44.414 52.414-6 6c-.7809997.7807639-2.0470003.7807639-2.828 0l-6-6c-.7579444-.7847578-.7471047-2.0321696.0243628-2.8036372.7714676-.7714675 2.0188794-.7823072 2.8036372-.0243628l2.586 2.586v-16.172c0-1.1045695.8954305-2 2-2s2 .8954305 2 2v16.172l2.586-2.586c.7847578-.7579444 2.0321696-.7471047 2.8036372.0243628.7714675.7714676.7823072 2.0188794.0243628 2.8036372z" fill="#ffe0e2"/><path id="Shape" d="m9.917 40.058h3c-3.87928302-.399645-7.17311367-3.0163107-8.43978438-6.7046841-1.26667072-3.6883733-.27545824-7.7766196 2.53978438-10.4753159-2.05290054-2.4701831-2.63595444-5.8462757-1.53046001-8.8619162 1.10549442-3.0156404 3.73243325-5.21499158 6.89546001-5.7730838-3.72099839-.65411192-7.45232835 1.09689562-9.32713005 4.3769581-1.8748017 3.2800625-1.48990038 7.3838049.96213005 10.2580419-2.81524262 2.6986963-3.8064551 6.7869426-2.53978438 10.4753159 1.26667071 3.6883734 4.56050136 6.3050391 8.43978438 6.7046841z" fill="#fff"/><path id="Shape" d="m4.7 9.237 1.262 1.553c-1.86425889 1.5245118-2.95045934 3.8017923-2.962 6.21h-2c.01281961-3.0102141 1.36979606-5.8572974 3.7-7.763z" fill="#fff"/><g fill="#ff414c"><path id="Shape" d="m2.887 14.114c-.55228474.0030376-1.00246242-.4422153-1.00549999-.9945-.00303756-.5522847.44221525-1.0024624.99449999-1.0055h.011c.55228475 0 1 .4477153 1 1s-.44771525 1-1 1z"/><path id="Shape" d="m3.223 37.777c2.05796401 2.0696999 4.858298 3.2302344 7.777 3.223.5522847 0 1-.4477153 1-1s-.4477153-1-1-1c-3.67855284.0019842-6.98761487-2.2360935-8.35516205-5.6509975s-.51795572-7.318374 2.14516205-9.8560025c.38219044-.3641737.4154665-.9627049.076-1.367-1.20468693-1.4365045-1.86529001-3.2512159-1.866-5.126 0-.5522847-.44771525-1-1-1s-1 .4477153-1 1c.00095722 2.0346131.62301363 4.0204489 1.783 5.692-3.87411647 4.3503947-3.68109938 10.9678101.44 15.085z"/><path id="Shape" d="m57.568 23.112c.2861486-1.1147868.4312823-2.2610743.432-3.412.0082202-4.3942732-2.0510261-8.5364672-5.5592872-11.18256023-3.5082612-2.64609305-8.0568575-3.48784003-12.2797128-2.27243977-2.8023777-3.92909901-7.3349246-6.25668354-12.161-6.245-5.4864913.01585182-10.5308066 3.01241025-13.169 7.823-.0790825-.06990385-.1688969-.12662871-.266-.168-1.138597-.43337098-2.346717-.65533973-3.565-.655-2.29278898.01039004-4.51408142.79912514-6.3 2.237-.22207369.16744195-.36139641.4223148-.38244953.69964186-.02105312.27732704.07819764.55031104.27244953.74935814.3680645.3706783.95304311.4133464 1.371.1 2.21648635-1.80045973 5.2246145-2.28294932 7.893-1.266.0545311.01571845.1104606.02610057.167.031-.3624109.9263289-.6304349 1.8868599-.8 2.867-.0922941.5442279.27384 1.0603068.818 1.153.0557898.0099063.1123376.0149253.169.015.4871613-.0003834.903157-.3517626.985-.832.1953572-1.1251924.539368-2.2194361 1.023-3.254 2.148169-4.56753778 6.736537-7.48783309 11.784-7.5 3.9928887-.00444017 7.7623047 1.84222652 10.206 5-.3825395.26664033-.5256985.76498393-.343 1.194.1058119.24321164.3039106.43442469.5507119.53156987.2468012.09714518.522086.09226391.7652881-.01356987.3-.132.6-.244.9-.352 3.963877-1.3714785 8.3561756-.57373892 11.5846195 2.1040258 3.2284439 2.6777646 4.824427 6.8468789 4.2093805 10.9959742-.416472-.2542879-.9561671-.1668157-1.271.206-.3523417.4252642-.2932445 1.0556345.132 1.408.9956607.8182969 1.8033209 1.841515 2.368 3 1.3470598 2.7900287 1.1659755 6.0764943-.4794602 8.7016365s-4.5243441 4.2206151-7.6225398 4.2243635h-6c-.5522847 0-1 .4477153-1 1s.4477153 1 1 1h6c3.7899096-.0020242 7.3122649-1.9534832 9.3237433-5.1655501s2.2291786-7.2329854.5762567-10.6434499c-.3638233-.7412136-.8106895-1.4386873-1.332-2.079z"/><path id="Shape" d="m25.122 33.879c-1.1873934-1.1330821-3.0556066-1.1330821-4.243 0l-6 6c-1.1711458 1.1714996-1.1711458 3.0705004 0 4.242 1.1873934 1.1330821 3.0556066 1.1330821 4.243 0l.878-.879v13.758c0 1.6568542 1.3431458 3 3 3s3-1.3431458 3-3v-13.758l.878.879c1.1873934 1.1330821 3.0556066 1.1330821 4.243 0 1.1711458-1.1714996 1.1711458-3.0705004 0-4.242zm4.585 8.828c-.3950688.3791887-1.0189312.3791887-1.414 0l-2.586-2.586c-.2859943-.2859079-.7160366-.3714219-1.0896546-.216678-.3736179.1547439-.6172591.5192821-.6173454.923678v16.172c0 .5522847-.4477153 1-1 1s-1-.4477153-1-1v-16.172c-.0000863-.4043959-.2437275-.7689341-.6173454-.923678-.373618-.1547439-.8036603-.0692299-1.0896546.216678l-2.586 2.586c-.3950688.3791887-1.0189312.3791887-1.414 0-.3903819-.3904999-.3903819-1.0235001 0-1.414l6-6c.3950688-.3791887 1.0189312-.3791887 1.414 0l6 6c.3903819.3904999.3903819 1.0235001 0 1.414z"/><path id="Shape" d="m37 33c-1.6568542 0-3 1.3431458-3 3v13.758l-.878-.879c-1.1873934-1.1330821-3.0556066-1.1330821-4.243 0-1.1711458 1.1714996-1.1711458 3.0705004 0 4.242l6 6c.5626237.562719 1.3257625.8788593 2.1215.8788593s1.5588763-.3161403 2.1215-.8788593l6-6c1.1711458-1.1714996 1.1711458-3.0705004 0-4.242-1.1873934-1.1330821-3.0556066-1.1330821-4.243 0l-.879.879v-13.758c0-1.6568542-1.3431458-3-3-3zm5.293 17.293c.3950688-.3791887 1.0189312-.3791887 1.414 0 .3903819.3904999.3903819 1.0235001 0 1.414l-6 6c-.3950688.3791887-1.0189312.3791887-1.414 0l-6-6c-.2599566-.2510745-.3642126-.6228779-.2726972-.9725073.0915155-.3496295.3645604-.6226744.7141899-.7141899.3496294-.0915154.7214328.0127406.9725073.2726972l2.586 2.586c.2859943.2859079.7160366.3714219 1.0896546.216678.3736179-.1547439.6172591-.5192821.6173454-.923678v-16.172c0-.5522847.4477153-1 1-1s1 .4477153 1 1v16.172c.0000863.4043959.2437275.7689341.6173454.923678.373618.1547439.8036603.0692299 1.0896546-.216678z"/></g></g></g></svg>