<svg height="512" viewBox="0 0 60 42" width="512" xmlns="http://www.w3.org/2000/svg"><g id="Page-1" fill="none" fill-rule="evenodd"><g id="124---Money" fill-rule="nonzero"><path id="Shape" d="m54.734 1.986-5.4 2.514c-6.1287116 2.85392708-13.2052884 2.85392708-19.334 0-6.1289246-2.85296509-13.2050754-2.85296509-19.334 0l-7.932 3.693c-1.0574071.49219921-1.73369382 1.55265111-1.734 2.719v26.382c-.0000726 1.0248396.52301521 1.9788086 1.38714879 2.5297799.86413359.5509712 1.94973592.6227024 2.87885121.1902201l5.4-2.514c6.1289246-2.8529651 13.2050754-2.8529651 19.334 0 6.1284307 2.8536166 13.2045693 2.8536166 19.333 0l7.933-3.693c1.057735-.4923519 1.7340826-1.5532894 1.734-2.72v-26.381c.0000726-1.02483958-.5230152-1.97880862-1.3871488-2.52977987s-1.9497359-.62270244-2.8788512-.19022013z" fill="#ffe7e8"/><circle id="Oval" cx="8" cy="14" fill="#ffe0e2" r="3"/><circle id="Oval" cx="52" cy="28" fill="#ffe0e2" r="3"/><path id="Shape" d="m54.734 1.986-.263.122c.9447212.52297102 1.5304357 1.51818764 1.529 2.598v26.381c.0000826 1.1667106-.676265 2.2276481-1.734 2.72l-7.933 3.693c-2.569565 1.1942225-5.3384487 1.9011932-8.166 2.085 3.838038.253783 7.6781709-.4632757 11.166-2.085l7.933-3.693c1.057735-.4923519 1.7340826-1.5532894 1.734-2.72v-26.381c.0000726-1.02483958-.5230152-1.97880862-1.3871488-2.52977987s-1.9497359-.62270244-2.8788512-.19022013z" fill="#ffc9cc"/><path id="Shape" d="m5.266 40.014.262-.123c-.94433227-.5227403-1.52970261-1.51764-1.528-2.597v-26.382c.00030618-1.16634889.6765929-2.22680079 1.734-2.719l7.933-3.693c2.5693929-1.19470504 5.3383684-1.90169915 8.166-2.085-3.8380688-.25430247-7.6783297.4627801-11.166 2.085l-7.933 3.693c-1.0574071.49219921-1.73369382 1.55265111-1.734 2.719v26.382c-.0000726 1.0248396.52301521 1.9788086 1.38714879 2.5297799.86413359.5509712 1.94973592.6227024 2.87885121.1902201z" fill="#fff"/><path id="Rectangle-path" d="m0 29.294h2v8h-2z" fill="#fff"/><g fill="#ff414c"><circle id="Oval" cx="1" cy="33.294" r="1"/><path id="Shape" d="m58.15 1.333c-1.1510183-.73776694-2.6000957-.83328975-3.838-.253l-5.4 2.514c-5.8602454 2.73351917-12.6297546 2.73351917-18.49 0-6.3940248-2.98698007-13.7829752-2.98698007-20.177 0l-7.933 3.692c-1.40806004.65868774-2.3088888 2.0714927-2.312 3.626v18.382c0 .5522847.44771525 1 1 1s1-.4477153 1-1v-18.381c.00204656-.7771098.45230752-1.48327169 1.156-1.813l7.932-3.693c5.8601537-2.73393299 12.6298463-2.73393299 18.49 0 6.3943624 2.98545944 13.7826376 2.98545944 20.177 0l5.4-2.513c.619289-.28868089 1.343098-.24123479 1.9194033.12581799.5763053.36705279.9253487 1.00291378.9255967 1.68618201v26.381c-.0020466.7771098-.4523075 1.4832717-1.156 1.813l-7.932 3.694c-5.8603677 2.7329676-12.6296323 2.7329676-18.49 0-6.3941169-2.9865652-13.7828831-2.9865652-20.177 0l-5.4 2.513c-.61944998.2887559-1.34346162.2412056-1.91982488-.1260867s-.92526881-1.0034675-.92517512-1.6869133c0-.5522847-.44771525-1-1-1s-1 .4477153-1 1c-.00347639 1.3675678.69316968 2.6417862 1.84629439 3.3770122s2.60230447.8291744 3.84070561.2489878l5.4-2.514c5.8601537-2.733933 12.6298463-2.733933 18.49 0 6.3944544 2.985045 13.7825456 2.985045 20.177 0l7.933-3.693c1.40845-.6583974 2.3097069-2.0712628 2.313-3.626v-26.381c.0039428-1.36754191-.6946721-2.64128695-1.85-3.373z"/><path id="Shape" d="m16.188 32.458c1.2620675-.2427215 2.5429513-.3745575 3.828-.394.5515224-.0087704.991792-.462463.984-1.014-.0304471-.5422176-.4711426-.9707439-1.014-.986-1.4014845.0214812-2.7984329.165024-4.175.429-.3510134.0671659-.6395306.3164933-.75687.6540628-.1173393.3375695-.0456741.7120964.188.9825.2336742.2704036.5938566.3956031.94487.3284372z"/><path id="Shape" d="m10.244 32.3-5.4 2.514c-.42447236.1983099-.65435832.6647375-.55307956 1.1221719.10127875.4574343.50656783.7832303.97507956.7838281.14555852.0001906.28934647-.031914.421-.094l5.4-2.514c.3331627-.1450825.5614025-.4594766.5961588-.8211923.0347564-.3617158-.1294415-.7138182-.4288822-.919686-.2994407-.2058677-.6869915-.2330967-1.0122766-.0711217z"/><path id="Shape" d="m41.04 11.688c1.4131264-.0822405 2.8162368-.2890428 4.193-.618.3474408-.0832429.6240798-.3455199.7257097-.6880339s.0128108-.71322891-.233-.97250002-.6112689-.36770896-.9587097-.28446608c-1.261717.30206856-2.5477695.49147936-3.843.566-.5522847.01574014-.9872401.4762153-.9715 1.0285.0157402.5522847.4762153.9872401 1.0285.9715z"/><path id="Shape" d="m49.334 9.588c.1458669.00007387.2899552-.03202162.422-.094l5.4-2.515c.3358521-.14319807.5669675-.45805177.602928-.8213824s-.1289503-.71738089-.4302152-.92363741c-.301265-.20625652-.690993-.23193148-1.0167128-.06698019l-5.4 2.515c-.4246411.19838967-.6545176.66509348-.5529697 1.12265932.101548.45756585.507271.78321057.9759697.78334068z"/><path id="Shape" d="m30 27c-.5522847 0-1 .4477153-1 1v1.919c-2.279-.372-4-1.987-4-3.919 0-.5522847-.4477153-1-1-1s-1 .4477153-1 1c0 3.017 2.613 5.513 6 5.932v1.068c0 .5522847.4477153 1 1 1s1-.4477153 1-1v-1.068c3.387-.419 6-2.915 6-5.932s-2.613-5.513-6-5.932v-1.068c0-.5522847-.4477153-1-1-1s-1 .4477153-1 1v.919c-2.279-.372-4-1.987-4-3.919s1.721-3.547 4-3.919v1.919c0 .5522847.4477153 1 1 1s1-.4477153 1-1v-1.919c2.279.372 4 1.987 4 3.919 0 .5522847.4477153 1 1 1s1-.4477153 1-1c0-3.017-2.613-5.513-6-5.932v-1.068c0-.55228475-.4477153-1-1-1s-1 .44771525-1 1v1.068c-3.387.419-6 2.915-6 5.932s2.613 5.513 6 5.932v.068c-.0111065.5406571.4124506.9908006.9527827 1.0125882.5403322.0217876.9987571-.3927921 1.0312173-.9325882 2.287.366 4.016 1.983 4.016 3.92s-1.721 3.547-4 3.919v-1.919c0-.5522847-.4477153-1-1-1z"/><path id="Shape" d="m12 14c0-2.209139-1.790861-4-4-4s-4 1.790861-4 4 1.790861 4 4 4c.55228475 0 1-.4477153 1-1s-.44771525-1-1-1c-1.1045695 0-2-.8954305-2-2s.8954305-2 2-2 2 .8954305 2 2c0 .5522847.4477153 1 1 1s1-.4477153 1-1z"/><path id="Shape" d="m52 32c.5522847 0 1-.4477153 1-1s-.4477153-1-1-1c-1.1045695 0-2-.8954305-2-2s.8954305-2 2-2 2 .8954305 2 2c0 .5522847.4477153 1 1 1s1-.4477153 1-1c0-2.209139-1.790861-4-4-4s-4 1.790861-4 4 1.790861 4 4 4z"/></g></g></g></svg>