<svg height="512" viewBox="0 0 60 60" width="512" xmlns="http://www.w3.org/2000/svg"><g id="Page-1" fill="none" fill-rule="evenodd"><g id="128---World-Comment131" fill-rule="nonzero"><path id="Shape" d="m59 30c.0045644 2.0167436-.2066374 4.0281887-.63 6-1.2209678-3.5073788-3.6160351-6.4853164-6.78-8.43.7182974-.8225336 1.2413359-1.7968211 1.53-2.85.46-1.85-.27-4.12-2.06-4.81-.85-.32-1.87-.28-2.55-.9-.95-.85-.65-2.38-.26-3.61-1.1856914-.1878235-2.3817777.2692795-3.14 1.2-.7427788.9177645-1.6394638 1.6994031-2.65 2.31-1.08.48-2.66.1-2.9-1.06-.18-.9.52-1.71 1.09-2.43 1.6894369-2.1766199 2.6044075-4.8546684 2.6-7.61-.1206567-1.16237972-.0360356-2.33692088.25-3.47v-.01c9.5361176 5.01078152 15.5059301 14.8975613 15.5 25.67z" fill="#ffe7e8"/><path id="Shape" d="m43.5 4.33v.01c-.1800694.52834791-.271635 1.08280999-.271 1.641 7.9881714 5.382784 12.7754791 14.3864912 12.771 24.019 0 .514-.013 1.024-.039 1.53 1.0614408 1.3355398 1.8771198 2.8490662 2.409 4.47.4233626-1.9718113.6345644-3.9832564.63-6 .0059301-10.7724387-5.9638824-20.65921848-15.5-25.67z" fill="#ffc9cc"/><path id="Shape" d="m53.12 24.72c-.2886641 1.0531789-.8117026 2.0274664-1.53 2.85-3.7671452-2.3734692-8.1377075-3.6127787-12.59-3.57-7.7 0-14.38 3.48-17.72 8.58-1.5674021-.0437109-3.064736-.6590049-4.21-1.73-1.296716-1.2477498-1.8036977-3.1066828-1.32-4.84.5499755-1.7339615 2.2152917-2.8662112 4.03-2.74 1.58.21 3.12 1.46 4.59.85 1.45-.6 1.62-2.53 2.25-3.97.99-2.26 3.54-3.99 3.31-6.44-.15-1.59-1.45-2.79-2.18-4.19-1.33-2.55-.77-5.61-.11-8.41.7842832-.07678956 1.5719743-.11350398 2.36-.11 4.7044887-.00971139 9.3396768 1.13363502 13.5 3.33v.01c-.2860356 1.13307912-.3706567 2.30762028-.25 3.47.0044075 2.7553316-.9105631 5.4333801-2.6 7.61-.57.72-1.27 1.53-1.09 2.43.24 1.16 1.82 1.54 2.9 1.06 1.0105362-.6105969 1.9072212-1.3922355 2.65-2.31.7582223-.9307205 1.9543086-1.3878235 3.14-1.2-.39 1.23-.69 2.76.26 3.61.68.62 1.7.58 2.55.9 1.79.69 2.52 2.96 2.06 4.81z" fill="#ffe0e2"/><path id="Shape" d="m40.5 4.33v.01c-.2860356 1.13307912-.3706567 2.30762028-.25 3.47.0044075 2.7553316-.9105631 5.4333801-2.6 7.61-.57.72-1.27 1.53-1.09 2.43.24 1.16 1.82 1.54 2.9 1.06.1853669-.0903896.3626776-.1964414.53-.317-.2186803-.1956526-.369304-.4559164-.43-.743-.18-.9.52-1.71 1.09-2.43 1.6894369-2.1766199 2.6044075-4.8546684 2.6-7.61-.1206567-1.16237972-.0360356-2.33692088.25-3.47v-.01c-4.1603232-2.19636498-8.7955113-3.33971139-13.5-3.33-.5 0-.989.018-1.482.047 4.1856598.20721558 8.2752913 1.32775141 11.982 3.283z" fill="#ff9ea1"/><path id="Shape" d="m36 24c-7.377 0-13.81 3.2-17.274 7.952.802903.3719798 1.670149.5852259 2.554.628 3.113-4.754 9.129-8.1 16.167-8.529-.479-.028-.959-.051-1.447-.051z" fill="#ff9ea1"/><path id="Shape" d="m51.06 19.91c-.85-.32-1.87-.28-2.55-.9-.95-.85-.65-2.38-.26-3.61-1.1856914-.1878235-2.3817777.2692795-3.14 1.2-.065.062-.126.13-.189.2-.1916764.7904393.0300244 1.6241697.589 2.215.68.62 1.7.58 2.55.9 1.79.69 2.52 2.96 2.06 4.81-.150849.577795-.3821081 1.1315378-.687 1.645.7416863.3577863 1.4619057.7584647 2.157 1.2.7182974-.8225336 1.2413359-1.7968211 1.53-2.85.46-1.85-.27-4.12-2.06-4.81z" fill="#ff9ea1"/><path id="Shape" d="m26.62 20.15c-.63 1.44-.8 3.37-2.25 3.97-1.47.61-3.01-.64-4.59-.85-1.8147083-.1262112-3.4800245 1.0060385-4.03 2.74-.4836977 1.7333172.023284 3.5922502 1.32 4.84 1.145264 1.0709951 2.6425979 1.6862891 4.21 1.73-1.4749894 2.1944217-2.2682387 4.775961-2.28 7.42.0047958 1.9364189.4349335 3.848142 1.26 5.6-1.27-.62-2.79-1.19-4.12-1.7-1.57-.61-3.31-.88-4.69-1.85-1.38-.99-2.23-3.03-1.23-4.39.68-.92 1.97-1.24 2.63-2.17.94-1.35.14-3.18-.67-4.61-1.2995144-2.525753-2.91222638-4.8776247-4.8-7-1.17-1.2-2.55-2.28-3.23-3.81-.30680612-.6969517-.47005394-1.4485719-.48-2.21 4.36732622-9.51198227 13.5363467-15.91920347 23.97-16.75-.66 2.8-1.22 5.86.11 8.41.73 1.4 2.03 2.6 2.18 4.19.23 2.45-2.32 4.18-3.31 6.44z" fill="#ffe7e8"/><path id="Shape" d="m17.07 30.85c-1.296716-1.2477498-1.8036977-3.1066828-1.32-4.84.3582362-1.0849536 1.156843-1.9688661 2.2-2.435-.3784064-.1396358-.7701156-.24016-1.169-.3-1.8147083-.1262112-3.4800245 1.0060385-4.03 2.74-.4836977 1.7333172.023284 3.5922502 1.32 4.84 1.145264 1.0709951 2.6425979 1.6862891 4.21 1.73-1.4744012 2.1928939-2.2679583 4.7725632-2.281 7.415.0040646 1.3939891.2319662 2.7782802.675 4.1 1.193.457 2.48.956 3.585 1.5-.8250665-1.751858-1.2552042-3.6635811-1.26-5.6.0117613-2.644039.8050106-5.2255783 2.28-7.42-1.5674021-.0437109-3.064736-.6590049-4.21-1.73z" fill="#ffc9cc"/><path id="Shape" d="m29.93 13.71c-.15-1.59-1.45-2.79-2.18-4.19-1.33-2.55-.77-5.61-.11-8.41-1.04032.08693401-2.0751686.23014371-3.1.429-.613 2.682-1.056 5.56.207 7.981.73 1.4 2.03 2.6 2.18 4.19.23 2.45-2.32 4.18-3.31 6.44-.564 1.288-.766 2.961-1.839 3.73.79999.4100836 1.7272603.4960415 2.589.24 1.45-.6 1.62-2.53 2.25-3.97.993-2.26 3.543-3.99 3.313-6.44z" fill="#ffc9cc"/><path id="Shape" d="m43.42 55.71c-8.9900379 4.6929398-19.7784664 4.3488069-28.4511385-.9075439-8.67267221-5.2563508-13.96954502-14.66123-13.9688615-24.8024561-.0083698-4.1932154.90304244-8.3372396 2.67-12.14.00994606.7614281.17319388 1.5130483.48 2.21.68 1.53 2.06 2.61 3.23 3.81 1.88777362 2.1223753 3.5004856 4.474247 4.8 7 .81 1.43 1.61 3.26.67 4.61-.66.93-1.95 1.25-2.63 2.17-1 1.36-.15 3.4 1.23 4.39 1.38.97 3.12 1.24 4.69 1.85 1.33.51 2.85 1.08 4.12 1.7 2.84 6.08 10.15 10.4 18.74 10.4 1.2651531-.0007357 2.5285464-.0943204 3.78-.28.2118166-.0332388.4272483-.0366049.64-.01z" fill="#ffe0e2"/><path id="Shape" d="m4.38 23.88c1.88777362 2.1223753 3.50048562 4.474247 4.8 7 .81 1.43 1.61 3.26.67 4.61-.66.93-1.95 1.25-2.63 2.17-1 1.36-.15 3.4 1.23 4.39 1.38.97 3.12 1.24 4.69 1.85 1.33.51 2.85 1.08 4.12 1.7 2.84 6.08 10.15 10.4 18.74 10.4.468 0 .924-.027 1.382-.052-7.882-.504-14.462-4.654-17.122-10.348-1.27-.62-2.79-1.19-4.12-1.7-1.57-.61-3.31-.88-4.69-1.85-1.38-.99-2.23-3.03-1.23-4.39.68-.92 1.97-1.24 2.63-2.17.94-1.35.14-3.18-.67-4.61-1.2995144-2.525753-2.91222638-4.8776247-4.8-7-1.17-1.2-2.55-2.28-3.23-3.81-.30680612-.6969517-.47005394-1.4485719-.48-2.21-.57532076 1.2433508-1.05991943 2.5267018-1.45 3.84.662.764 1.449 1.451 2.16 2.18z" fill="#ff9ea1"/><path id="Shape" d="m42.78 55.72c-.957069.135101-1.9208709.2172262-2.887.246-3.5732206 1.7802713-7.477446 2.7984688-11.465 2.99.52.028 1.044.044 1.572.044 4.6737512.0062455 9.2790874-1.1227825 13.42-3.29-.2127517-.0266049-.4281834-.0232388-.64.01z" fill="#ffc9cc"/><path id="Shape" d="m55.3 57.34c.2675449.2869782.3410299.7045823.1875209 1.0656526-.1535089.3610703-.5052261.5978998-.8975209.6043474-2.67.04-7.03-.35-10.22-2.91-.2727225-.2183986-.6024897-.3537767-.95-.39-.2127517-.0266049-.4281834-.0232388-.64.01-1.2514536.1856796-2.5148469.2792643-3.78.28-8.59 0-15.9-4.32-18.74-10.4-.8250665-1.751858-1.2552042-3.6635811-1.26-5.6.0117613-2.644039.8050106-5.2255783 2.28-7.42 3.34-5.1 10.02-8.58 17.72-8.58 4.4522925-.0427787 8.8228548 1.1965308 12.59 3.57 3.1639649 1.9446836 5.5590322 4.9226212 6.78 8.43v.01c.4164521 1.2890886.6290136 2.6353115.63 3.99-.0897579 4.2088678-2.019479 8.166989-5.28 10.83-.5393869.4844-.7730188 1.2235961-.61 1.93.3451669 1.6825551 1.0970589 3.255005 2.19 4.58z" fill="#ffe7e8"/><path id="Shape" d="m53.11 52.76c-.1630188-.7064039.0706131-1.4456.61-1.93 3.260521-2.663011 5.1902421-6.6211322 5.28-10.83-.0009864-1.3546885-.2135479-2.7009114-.63-3.99v-.01c-1.2209678-3.5073788-3.6160351-6.4853164-6.78-8.43-3.7671452-2.3734692-8.1377075-3.6127787-12.59-3.57-.523 0-1.04.019-1.553.051 3.9558994.1910404 7.7948819 1.4034051 11.143 3.519 3.1639649 1.9446836 5.5590322 4.9226212 6.78 8.43v.01c.4164521 1.2890886.6290136 2.6353115.63 3.99-.0897579 4.2088678-2.019479 8.166989-5.28 10.83-.5393869.4844-.7730188 1.2235961-.61 1.93.3451669 1.6825551 1.0970589 3.255005 2.19 4.58.2080001.2294686.2979385.5423635.2435351.8472572s-.247008.5673734-.5215351.7107428c.8532538.0850226 1.7105839.1224139 2.568.112.3922948-.0064476.744012-.2432771.8975209-.6043474.153509-.3610703.080024-.7786744-.1875209-1.0656526-1.0929411-1.324995-1.8448331-2.8974449-2.19-4.58z" fill="#ffc9cc"/><path id="Shape" d="m40.42 55.71c-.2127517-.0266049-.4281834-.0232388-.64.01-.781.115-1.585.183-2.4.228.5346667.0346667 1.0746667.052 1.62.052.7 0 1.379-.033 2.052-.087-.1969668-.1045975-.410965-.1733343-.632-.203z" fill="#ffc9cc"/><circle id="Oval" cx="39" cy="40" fill="#ffe7e8" r="2"/><circle id="Oval" cx="47" cy="40" fill="#ffe7e8" r="2"/><circle id="Oval" cx="31" cy="40" fill="#ffe7e8" r="2"/><path id="Shape" d="m31.511 58.968c-14.9342805-.7648593-26.83695032-12.7625835-27.4829969-27.7024753-.64604658-14.9398919 10.1764914-27.92032347 24.9889969-29.9715247.87-.125 1.736-.2 2.6-.244-1.8701543-.10200887-3.7458056-.02028407-5.6.244-15.3843065 2.13184485-26.35642763 16.0077585-24.88358912 31.4690778 1.47283852 15.4613194 14.86747322 27.0160665 30.37758912 26.2049222z" fill="#fff"/><path id="Shape" d="m3.078 37.624-1.924.544-.515-2c-.128-.681-.216-1.368-.325-2.047l-.155-1.021-.059-1.034-.1-2.066h2l.1 1.929.05.965.147.954c.1.635.182 1.275.3 1.907z" fill="#fff"/><g fill="#ff414c"><path id="Shape" d="m1.324 34.989c-.55228473.0027614-1.00223852-.4427153-1.00499994-.995-.00276143-.5522847.44271521-1.0022385.99499994-1.005h.01c.55228475 0 1 .4477153 1 1s-.44771525 1-1 1z"/><path id="Shape" d="m43.967 3.446c-9.3007112-4.8828814-20.4773452-4.54819018-29.4692109.88247375-8.99186564 5.43066392-14.49036658 15.16696995-14.4977891 25.67152625 0 .5522847.44771525 1 1 1s1-.4477153 1-1c-.00680667-3.0771372.50016206-6.1338207 1.5-9.044.64606038 1.0653392 1.44909017 2.0271545 2.382 2.853 2.20305907 2.2141017 4.03578296 4.7680301 5.428 7.564 2.485 4.381-.385 3.655-1.9 5.694-1.354 1.844-.371 4.486 1.461 5.8 1.52 1.067 3.092 1.269 5.223 2.087 1.121.429 2.371.911 3.446 1.416 2.96 5.886 9.86 10.13 18.04 10.572-14.8593379 4.1747448-30.29365315-4.467577-34.5-19.318-.16018297-.5188009-.70508711-.8149902-1.22757067-.667261-.52248356.1477293-.83162032.6853937-.69642933 1.211261 2.44659785 8.6098624 8.6085708 15.6782987 16.8042951 19.2763084 8.1957244 3.5980096 17.5696884 3.3500139 25.5637049-.6763084.628.244 3.461 3.362 11.084 3.242.7776386-.0171985 1.4747696-.4837002 1.7872692-1.1959933.3124996-.7122932.1836768-1.54116-.3302692-2.1250067-.9893831-1.2043145-1.6688334-2.6325679-1.979-4.16-.0818218-.3441698.0296034-.7056316.291-.944 4.648-4.033 6.749-9.794 5.013-15.589 2.6915253-13.0751571-3.5995602-26.35239459-15.423-32.55zm13.907 29.154c-1.2587553-2.0548951-2.9184078-3.8352805-4.88-5.235 2.42-3.6 1.029-7.381-1.582-8.386-1.7-.642-3.258.036-2.209-3.273.0807176-.2549973.0559189-.5317027-.0688545-.7682837-.1247734-.2365809-.3391213-.4133175-.5951455-.4907163-1.321-.4-2.786.116-4.123 1.437-.6720075.8239786-1.4686113 1.5379192-2.361 2.116-.547.241-1.427.077-1.515-.343-.209-1.048 3.88-3.465 3.7-10.52-.011-.415-.021-.836 0-1.234 9.3439422 5.4958082 14.660016 15.9053155 13.634 26.697zm-15.54-27.729c-.1172927.97608028-.145409 1.96081743-.084 2.942.0075767 2.5827312-.8674079 5.09055-2.48 7.108-.8497161.8104403-1.2871706 1.9617911-1.19 3.132.375 1.809 2.622 2.51 4.286 1.771 1.781-.792 2.669-2.683 4.085-3.336-.2867339 1.1668797.0476968 2.3991717.885 3.261.927.844 2.123.814 2.864 1.1 1.285.494 1.787 2.278 1.45 3.631-.1695265.6399365-.4501217 1.2451287-.829 1.788-10.161-5.994-24.272-3.448-30.493 5.25-3.318-.418-4.795-3.118-4.128-5.212.4116328-1.263896 1.6138829-2.0995866 2.942-2.045 1.431.189 3.182 1.581 5.106.783 1.941-.8 2.181-3.117 2.783-4.492.929-2.122 3.664-4 3.39-6.936-.181-1.906-1.591-3.22-2.289-4.559-1.067-2.045-.73-4.551-.185-7 4.7952118-.28937806 9.5827014.68073757 13.887 2.814zm-25.522 38.216c-2.657-1.011-5.615-1.293-6-3.757-.269-1.7 1.731-1.673 2.862-3.268 1.432-2.056-.06-4.685-.62-5.675-1.4847975-2.9647322-3.43596056-5.6718485-5.779-8.018-1.5-1.448-2.453-2.4-2.577-4.322 4.05558617-8.61438959 12.224191-14.56581781 21.667-15.786-1.672 8.253 2.31 8.806 2.57 11.543.182 1.935-2.2 3.6-3.231 5.945-.605 1.384-.8 3.066-1.718 3.447-.968.407-2.424-.7-4.086-.92-2.2912993-.1908494-4.4091432 1.2310128-5.1 3.424-.966 3.006.908 6.681 4.877 7.648-1.7234526 3.1873359-2.1325699 6.9221465-1.14 10.407-.587-.231-1.172-.455-1.725-.668zm36.251 6.991c-.8215028.7208816-1.178378 1.8361166-.928 2.9.382016 1.8550069 1.2210455 3.5853118 2.441 5.034-2.285.044-6.562-.27-9.575-2.7-.6702257-.5229808-1.5308666-.7370507-2.368-.589-11.995 1.823-22.633-5.498-22.633-14.723 0-8.271 8.523-15 19-15s19 6.729 19 15c-.0877961 3.9208626-1.8927854 7.6054245-4.937 10.078z"/><path id="Shape" d="m48.421 29.175c-.3195472-.1751414-.7090678-.1625992-1.016686.0327363-.3076182.1953356-.4846313.5425386-.4620211.9062332.0226101.3636945.2412638.6862997.5707071.8420305 4.062 2.07 6.487 5.451 6.487 9.044 0 .5522847.4477153 1 1 1s1-.4477153 1-1c0-4.36-2.833-8.407-7.579-10.825z"/><path id="Shape" d="m39 37c-1.6568542 0-3 1.3431458-3 3s1.3431458 3 3 3 3-1.3431458 3-3-1.3431458-3-3-3zm0 4c-.5522847 0-1-.4477153-1-1s.4477153-1 1-1 1 .4477153 1 1-.4477153 1-1 1z"/><path id="Shape" d="m47 37c-1.2133867 0-2.3072956.7309265-2.7716386 1.8519497s-.2076757 2.4113767.6503183 3.2693706c.8579939.857994 2.1483474 1.1146613 3.2693706.6503183s1.8519497-1.5582519 1.8519497-2.7716386c0-1.6568542-1.3431458-3-3-3zm0 4c-.5522847 0-1-.4477153-1-1s.4477153-1 1-1 1 .4477153 1 1-.4477153 1-1 1z"/><path id="Shape" d="m31 37c-1.6568542 0-3 1.3431458-3 3s1.3431458 3 3 3 3-1.3431458 3-3-1.3431458-3-3-3zm0 4c-.5522847 0-1-.4477153-1-1s.4477153-1 1-1 1 .4477153 1 1-.4477153 1-1 1z"/></g></g></g></svg>