<svg height="512" viewBox="0 0 60 61" width="512" xmlns="http://www.w3.org/2000/svg"><g id="Page-1" fill="none" fill-rule="evenodd"><g id="129---World-User" fill-rule="nonzero" transform="translate(0 -1)"><path id="Shape" d="m56.05 43.74c-1.188343 2.4486175-2.7204959 4.7148569-4.55 6.73-.7956733-.314877-1.6442991-.4744186-2.5-.47h-2c-2.69-2.02-2.22-4.93-1.61-6.63 1.7803838-.6800198 3.3282878-1.8565657 4.46-3.39.27.17.55.33.82.5 1.79 1.09 3.5833333 2.1766667 5.38 3.26z" fill="#ffe0e2"/><path id="Shape" d="m50.67 40.48c-.27-.17-.55-.33-.82-.5-.3192494.4218382-.6702716.8186604-1.05 1.187 1.4133333.86 2.829 1.7176667 4.247 2.573-1.1001175 2.2604762-2.494557 4.3654174-4.147 6.26h.1c.8557009-.0044186 1.7043267.155123 2.5.47 1.8295041-2.0151431 3.361657-4.2813825 4.55-6.73-1.8-1.08-3.5933333-2.1666667-5.38-3.26z" fill="#ff9ea1"/><path id="Shape" d="m59 31c.005919 4.416616-1.0033984 8.7754982-2.95 12.74-1.8-1.08-3.5933333-2.1666667-5.38-3.26-.27-.17-.55-.33-.82-.5.6913287-.9204172 1.2283406-1.9471571 1.59-3.04.1839434.0402183.3717114.0603363.56.06 1.6568542 0 3-1.3431458 3-3s-1.3431458-3-3-3c0 0 3-8-2-11-2.33-1.4-6.39-1.06-10.37-.91-.0305991-.0776994-.05403-.1580338-.07-.24-.18-.9.52-1.71 1.09-2.43 1.6894369-2.1766199 2.6044075-4.8546684 2.6-7.61-.1206567-1.16237972-.0360356-2.33692088.25-3.47v-.01c9.5361176 5.0107815 15.5059301 14.8975613 15.5 25.67z" fill="#ffe7e8"/><path id="Shape" d="m43.5 5.33v.01c-.1800694.52834791-.271635 1.08280999-.271 1.641 11.4959367 7.755299 15.8856115 22.5685124 10.471 35.335.784.475 1.564.952 2.35 1.424 6.89314-14.090406 1.3328792-31.1079053-12.55-38.41z" fill="#ffc9cc"/><path id="Shape" d="m43.5 5.34c-.2860356 1.13307912-.3706567 2.30762028-.25 3.47.0044075 2.7553316-.9105631 5.4333801-2.6 7.61-.57.72-1.27 1.53-1.09 2.43.01597.0819662.0394009.1623006.07.24-4.57.18-9.03.12-10.63-3.09 0 0-.76 7.57 3 10.85v4.15c-1.6568542 0-3 1.3431458-3 3s1.3431458 3 3 3c.1882886.0003363.3760566-.0197817.56-.06.9467521 2.9442877 3.1687681 5.3058682 6.05 6.43.61 1.7 1.08 4.61-1.61 6.63h-2c-3.8659932 0-7 3.1340068-7 7v1c.0027598 1.0260606.7793599 1.8846352 1.8 1.99-9.650165-.0669916-18.6347851-4.9299939-23.96794331-12.9728538-5.33315825-8.0428599-6.31606207-18.2117384-2.62205669-27.1271462 1.73717994 2.030755 3.23378036 4.255522 4.46 6.63.81 1.42 1.61 3.26.67 4.6-.66.94-1.95 1.25-2.63 2.17-1 1.36-.15 3.41 1.23 4.39s3.11 1.27 4.69 1.85 3.2 1.7 3.48 3.37c.04952.8296907-.000841 1.6623261-.15 2.48-.1327779.8365152.1465479 1.6856657.75 2.28.6283686.3890483 1.4043648.4558805 2.09.18 1.98-.67 3.07-2.71 3.97-4.58.82-1.71 1.65-3.41 2.47-5.11.9182247-1.6163852 1.5126377-3.3962275 1.75-5.24.2007432-1.8832885-.7079115-3.7122974-2.33-4.69-1.9-.95-4.14-.05-6.25.02-1.7879373.0919-3.5371002-.5428478-4.85-1.76-1.296716-1.2477498-1.8036977-3.1066828-1.32-4.84.5478069-1.7343702 2.2161557-2.864542 4.03-2.73 1.58.2 3.12 1.46 4.59.85 1.45-.61 1.62-2.54 2.25-3.97.99-2.26 3.54-4 3.31-6.45-.15-1.59-1.45-2.78-2.18-4.19-.3507458-.68359333-.5872066-1.41999992-.7-2.18 2.434258-.64456875 4.9418498-.97062292 7.46-.97 4.7044887-.00971139 9.3396768 1.13363502 13.5 3.33z" fill="#ffe0e2"/><g fill="#ff9ea1"><path id="Shape" d="m4.67 26.52c.81 1.42 1.61 3.26.67 4.6-.66.94-1.95 1.25-2.63 2.17-1 1.36-.15 3.41 1.23 4.39s3.11 1.27 4.69 1.85 3.2 1.7 3.48 3.37c.04952.8296907-.000841 1.6623261-.15 2.48-.1327779.8365152.1465479 1.6856657.75 2.28.6283686.3890483 1.4043648.4558805 2.09.18.264373-.0914413.5189664-.2090233.76-.351-.4807164-.5909927-.697637-1.3534686-.6-2.109.149159-.8176739.19952-1.6503093.15-2.48-.28-1.67-1.89-2.78-3.48-3.37s-3.31-.88-4.69-1.85-2.23-3.03-1.23-4.39c.68-.92 1.97-1.23 2.63-2.17.94-1.34.14-3.18-.67-4.6-1.22621964-2.374478-2.72282006-4.599245-4.46-6.63-.36.8606667-.678 1.7423333-.954 2.645.868 1.284 1.652 2.63 2.414 3.985z"/><path id="Shape" d="m43.5 5.33c-4.1603232-2.19636498-8.7955113-3.33971139-13.5-3.33-.487 0-.969.024-1.45.048 4.1746883.21146023 8.2529225 1.33152422 11.95 3.282v.01c-.2860356 1.13307912-.3706567 2.30762028-.25 3.47.0044075 2.7553316-.9105631 5.4333801-2.6 7.61-.57.72-1.27 1.53-1.09 2.43.01597.0819662.0394009.1623006.07.24l-.766.027c1.206.052 2.481.024 3.766-.027-.0305991-.0776994-.05403-.1580338-.07-.24-.18-.9.52-1.71 1.09-2.43 1.6894369-2.1766199 2.6044075-4.8546684 2.6-7.61-.1206567-1.16237972-.0360356-2.33692088.25-3.47z"/><path id="Shape" d="m32.56 36.94c-.1839434.0402183-.3717114.0603363-.56.06-1.6568542 0-3-1.3431458-3-3s1.3431458-3 3-3v-4.15c-2.384-2.079-2.949-5.878-3.045-8.384-.5152863-.1802095-1.0045161-.4276825-1.455-.736-.3119443-.207415-.7141248-.2214165-1.0397382-.0361974-.3256135.1852191-.5191194.5380656-.5002618.9121974.113 2.506.7 6.2 3.041 8.244v4.15c-1.6568542 0-3 1.3431458-3 3s1.3431458 3 3 3c.1882886.0003363.3760566-.0197817.56-.06.9467521 2.9442877 3.1687681 5.3058682 6.05 6.43.61 1.7 1.08 4.61-1.61 6.63h-2.001c-3.8659932 0-7 3.1340068-7 7v1c.0034285.7002803.3728752 1.3477603.974 1.707 1.2677639.1779787 2.5458469.2725154 3.826.283-1.0206401-.1053648-1.7972402-.9639394-1.8-1.99v-1c0-3.8659932 3.1340068-7 7-7h2c2.69-2.02 2.22-4.93 1.61-6.63-2.8812319-1.1241318-5.1032479-3.4857123-6.05-6.43z"/></g><path id="Shape" d="m25.99 32.91c-.2373623 1.8437725-.8317753 3.6236148-1.75 5.24-.82 1.7-1.65 3.4-2.47 5.11-.9 1.87-1.99 3.91-3.97 4.58-.6856352.2758805-1.4616314.2090483-2.09-.18-.6034521-.5943343-.8827779-1.4434848-.75-2.28.149159-.8176739.19952-1.6503093.15-2.48-.28-1.67-1.89-2.78-3.48-3.37s-3.31-.88-4.69-1.85-2.23-3.03-1.23-4.39c.68-.92 1.97-1.23 2.63-2.17.94-1.34.14-3.18-.67-4.6-1.22621964-2.374478-2.72282006-4.599245-4.46-6.63 3.46005739-8.3401612 10.6051969-14.59446851 19.33-16.92.1127934.76000008.3492542 1.49640667.7 2.18.73 1.41 2.03 2.6 2.18 4.19.23 2.45-2.32 4.19-3.31 6.45-.63 1.43-.8 3.36-2.25 3.97-1.47.61-3.01-.65-4.59-.85-1.8138443-.134542-3.4821931.9956298-4.03 2.73-.4836977 1.7333172.023284 3.5922502 1.32 4.84 1.3128998 1.2171522 3.0620627 1.8519 4.85 1.76 2.11-.07 4.35-.97 6.25-.02 1.6220885.9777026 2.5307432 2.8067115 2.33 4.69z" fill="#ffe7e8"/><path id="Shape" d="m12.56 26.48c-1.296716-1.2477498-1.8036977-3.1066828-1.32-4.84.3576625-1.0843413 1.156634-1.9672049 2.2-2.431-.3767065-.140679-.7671997-.2412351-1.165-.3-1.8138443-.134542-3.48219306.9956298-4.03 2.73-.48369774 1.7333172.02328399 3.5922502 1.32 4.84 1.3128998 1.2171522 3.0620627 1.8519 4.85 1.76.4580966-.0209386.9147474-.0663367 1.368-.136-1.2098289-.2144885-2.3303104-.7787272-3.223-1.623z" fill="#ffc9cc"/><path id="Shape" d="m20.24 5.15c.73 1.41 2.03 2.6 2.18 4.19.23 2.45-2.32 4.19-3.31 6.45-.563 1.279-.766 2.95-1.837 3.727.7987643.4114659 1.7255846.4985233 2.587.243 1.45-.61 1.62-2.54 2.25-3.97.99-2.26 3.54-4 3.31-6.45-.15-1.59-1.45-2.78-2.18-4.19-.3507458-.68359333-.5872066-1.41999992-.7-2.18-.9447108.25232231-1.8759229.55271332-2.79.9.1191487.44229492.2833409.87120517.49 1.28z" fill="#ffc9cc"/><path id="Shape" d="m23.66 28.22c-1.1926744-.4790544-2.504467-.5768711-3.755-.28.2607688.0666646.5138214.1605119.755.28 1.6220885.9777026 2.5307432 2.8067115 2.33 4.69-.2373623 1.8437725-.8317753 3.6236148-1.75 5.24-.82 1.7-1.65 3.4-2.47 5.11-.777 1.615-1.7 3.352-3.21 4.229.0456501.0606736.095791.1178342.15.171.6283686.3890483 1.4043648.4558805 2.09.18 1.98-.67 3.07-2.71 3.97-4.58.82-1.71 1.65-3.41 2.47-5.11.9182247-1.6163852 1.5126377-3.3962275 1.75-5.24.2007432-1.8832885-.7079115-3.7122974-2.33-4.69z" fill="#ffc9cc"/><path id="Shape" d="m34 28c-.7369486-.2455387-1.4170676-.6366072-2-1.15" fill="#ffe7e8"/><path id="Shape" d="m55 34c0 1.6568542-1.3431458 3-3 3-.1882886.0003363-.3760566-.0197817-.56-.06-.3616594 1.0928429-.8986713 2.1195828-1.59 3.04-1.1317122 1.5334343-2.6796162 2.7099802-4.46 3.39-2.181952.8399727-4.598048.8399727-6.78 0-2.8812319-1.1241318-5.1032479-3.4857123-6.05-6.43-.1839434.0402183-.3717114.0603363-.56.06-1.6568542 0-3-1.3431458-3-3s1.3431458-3 3-3v-4.15c-3.76-3.28-3-10.85-3-10.85 1.6 3.21 6.06 3.27 10.63 3.09 3.98-.15 8.04-.49 10.37.91 5 3 2 11 2 11 1.6568542 0 3 1.3431458 3 3z" fill="#ffe7e8"/><path id="Shape" d="m52 31s3-8-2-11c-1.754-1.054-4.489-1.122-7.432-1.027 1.5383194-.0180743 3.0584145.334168 4.432 1.027 5 3 2 11 2 11 1.6568542 0 3 1.3431458 3 3s-1.3431458 3-3 3c-.1882886.0003363-.3760566-.0197817-.56-.06-.3616594 1.0928429-.8986713 2.1195828-1.59 3.04-1.1317122 1.5334343-2.6796162 2.7099802-4.46 3.39-.6107945.232261-1.2442571.3998437-1.89.5 1.6453034.2761549 3.3346328.1034219 4.89-.5 1.7803838-.6800198 3.3282878-1.8565657 4.46-3.39.6913287-.9204172 1.2283406-1.9471571 1.59-3.04.1839434.0402183.3717114.0603363.56.06 1.6568542 0 3-1.3431458 3-3s-1.3431458-3-3-3z" fill="#ffc9cc"/><path id="Shape" d="m35.864 19.117c-3.084-.133-5.714-.81-6.864-3.117-.0654132.8203064-.0804415 1.6438532-.045 2.466 2.2459462.6262197 4.5856109.8466744 6.909.651z" fill="#ffc9cc"/><path id="Shape" d="m47 50c0 2.7614237-2.2385763 5-5 5s-5-2.2385763-5-5c2.69-2.02 2.22-4.93 1.61-6.63 2.181952.8399727 4.598048.8399727 6.78 0-.61 1.7-1.08 4.61 1.61 6.63z" fill="#ffc9cc"/><path id="Shape" d="m56 57v1c-.0032948 1.1032019-.8967981 1.9967052-2 2h-24c-.0668257.0019152-.1336986-.0014284-.2-.01-1.0206401-.1053648-1.7972402-.9639394-1.8-1.99v-1c0-3.8659932 3.1340068-7 7-7h2c0 2.7614237 2.2385763 5 5 5s5-2.2385763 5-5h2c.8557009-.0044186 1.7043267.155123 2.5.47 2.7129754 1.0278228 4.5054191 3.6288579 4.5 6.53z" fill="#ffe7e8"/><path id="Shape" d="m51.5 50.47c-.7956733-.314877-1.6442991-.4744186-2.5-.47h-2c0 .026-.007.051-.008.077.5165969.0701081 1.0228946.2020544 1.508.393 2.7129754 1.0278228 4.5054191 3.6288579 4.5 6.53v1c-.0032948 1.1032019-.8967981 1.9967052-2 2h3c1.1032019-.0032948 1.9967052-.8967981 2-2v-1c.0054191-2.9011421-1.7870246-5.5021772-4.5-6.53z" fill="#ffc9cc"/><path id="Shape" d="m39 55c.5101742-.0069635 1.0161845-.0929853 1.5-.255-2.0774589-.6479506-3.4943474-2.5688466-3.5-4.745h-2c-.3320912.0025994-.6635836.0286643-.992.078.0425559 2.7278039 2.2638672 4.9179669 4.992 4.922z" fill="#ffc9cc"/><path id="Shape" d="m28.91 59.68c.2519852.1657255.5400405.2686024.84.3-.96-.01-1.22-.03-1.79-.07-15.8750459-1.1243319-27.87599451-14.8355207-26.88786974-30.7196264.98812477-15.8841058 14.59587284-28.00221851 30.48786974-27.1503736-14.9233956.73203232-26.84432832 12.6896272-27.5305318 27.6152002-.68620348 14.9255731 10.0872588 27.9265431 24.8805318 30.0247998z" fill="#fff"/><path id="Shape" d="m3.078 38.625-1.925.543-.512-2.005c-.133-.676-.217-1.363-.327-2.042l-.154-1.021-.06-1.034-.1-2.066h2l.1 1.929.052.965.146.954c.1.635.179 1.276.3 1.907z" fill="#fff"/><path id="Shape" d="m1.324 35.989c-.55228473.0027614-1.00223852-.4427153-1.00499994-.995-.00276143-.5522847.44271521-1.0022385.99499994-1.005h.01c.55228475 0 1 .4477153 1 1s-.44771525 1-1 1z" fill="#ff414c"/><path id="Shape" d="m43.967 4.446c-19.823-10.479-43.967 3.942-43.967 26.554 0 .5522847.44771525 1 1 1s1-.4477153 1-1c-.00513182-3.1153238.51446884-6.2092634 1.537-9.152 1.20922716 1.6424979 2.29966498 3.3692194 3.263 5.167 2.491 4.367-.4 3.662-1.9 5.682-1.349 1.837-.379 4.5 1.461 5.8 1.542 1.085 3.372 1.4 4.917 1.97.772.286 2.593 1.112 2.841 2.589.0247614.7541813-.0288595 1.5088952-.16 2.252-.2 2.8 1.707 4.3 4.157 3.478 2.316-.783 3.563-3.04 4.551-5.095 2.759-5.745 4.158-8.049 4.318-10.728.11-2.044-.74-4.58-2.882-5.639-2.236-1.118-4.685-.154-6.73-.084-3.615.129-6.015-2.711-5.182-5.3.4066214-1.2718683 1.619538-2.1097788 2.953-2.04 1.432.181 3.167 1.581 5.1.78s2.176-3.127 2.778-4.491c.93-2.122 3.665-4.017 3.389-6.945-.217-2.3-2.029-3.4-2.676-5.527 6.2620607-1.45953306 12.8366472-.69886046 18.6 2.152-.391 2.263.7 5.869-2.468 9.928-.6240015.6533994-1.071385 1.454904-1.3 2.329-3.866.1-7.456-.132-8.676-2.575-.1987834-.3986939-.6373345-.6178076-1.0755122-.5373591s-.7702935.441055-.8144878.8843591c-.037.37-.716 7.717 3 11.4v2.827c-1.9353479.492717-3.2107488 2.3374175-2.9882164 4.3220638s1.8748066 3.5010753 3.8712164 3.5529362c1.0962882 2.7341264 3.2200137 4.9300068 5.916 6.117.6741416 1.7139446.2018815 3.666566-1.181 4.883h-1.619c-4.4162219.0049599-7.9950401 3.5837781-8 8-.0536185.6058224-.0114345 1.21631.125 1.809-11.4026145-1.1452373-20.94244022-9.1525497-24.047-20.184-.14994532-.5315741-.70242593-.8409453-1.23399999-.691-.53157407.1499453-.84094531.7024259-.69100001 1.234 3.62907695 12.8357636 15.3023894 21.7298324 28.641 21.822.289.02-1.862.013 24.206.013 1.6568542 0 3-1.3431458 3-3v-1.003c-.0042454-2.8170036-1.4897627-5.4241606-3.911-6.864 5.7744375-6.9587652 8.1002398-16.1517601 6.3298268-25.0193515-1.770413-8.8675915-7.4479608-16.46271906-15.4518268-20.6706485zm-19.542 4.988c.182 1.938-2.2 3.6-3.23 5.953-.6 1.366-.8 3.065-1.718 3.449-.971.4-2.439-.709-4.082-.918-2.2918808-.1963946-4.4135237 1.2227423-5.107 3.416-1.244 3.871 2.157 8.1 7.155 7.905 2.125-.07 4.229-.9 5.774-.123 1.2573567.8030148 1.9464286 2.2529774 1.775 3.735-.128 2.155-1.193 3.867-4.124 9.975-.848 1.765-1.809 3.532-3.386 4.066-.3695.1616511-.7910169.1547171-1.155-.019-.3268188-.3912428-.462764-.9075413-.371-1.409.1650757-.8997113.2124729-1.8170669.141-2.729-.3-1.772-1.8-3.282-4.122-4.143-2.295-.844-5.283-1.192-5.675-3.621-.269-1.677 1.769-1.724 2.859-3.277 1.293-1.841.266-4.118-.616-5.665-1.17704068-2.2322941-2.57217696-4.3425843-4.165-6.3 3.29250593-7.4479435 9.652745-13.10230002 17.435-15.5.727 2.479 2.461 3.628 2.612 5.205zm9.084 27.192c-.1616848-.4872036-.666003-.7728544-1.167-.661-.7494723.1416346-1.514253-.1553482-1.9717234-.7656677-.4574705-.6103195-.5279737-1.427704-.1817684-2.1073444s1.0488362-1.1031943 1.8114918-1.0919879c.5522847 0 1-.4477153 1-1v-2.318c.2233959.1000788.4516844.1888576.684.266.5246705.174522 1.091478-.1093295 1.266-.634.1745219-.5246705-.1093295-1.091478-.634-1.266-3.221-1.077-4.2-5.065-4.353-8.461 4.88 3.368 15.5-.146 19.522 2.266 4.222 2.534 1.605 9.72 1.578 9.793-.1164075.3075397-.07418.6526534.1129433.9230536.1871234.2704002.4952238.4315236.8240567.4309464.7626556-.0112064 1.4652865.4123475 1.8114918 1.0919879s.2757021 1.4970249-.1817684 2.1073444c-.4574704.6103195-1.2222511.9073023-1.9717234.7656677-.500997-.1118544-1.0053152.1737964-1.167.661-1.0984742 3.7759651-4.5584998 6.3728648-8.491 6.3728648s-7.3925258-2.5968997-8.491-6.3728648zm6.47 8.17c1.3339427.2719956 2.7090573.2719956 4.043 0-.3767663 2.0811175.356675 4.2083247 1.936 5.615-.1997614 2.0362778-1.9119472 3.5887153-3.958 3.5887153s-3.7582386-1.5524375-3.958-3.5887153c1.5778427-1.4059893 2.3114457-3.5310519 1.937-5.611zm15.021 12.204v1c0 .5522847-.4477153 1-1 1h-3v-2c0-.5522847-.4477153-1-1-1s-1 .4477153-1 1v2h-14v-2c0-.5522847-.4477153-1-1-1s-1 .4477153-1 1v2h-3c-.5522847 0-1-.4477153-1-1v-1c.0033074-3.3123376 2.6876624-5.9966926 6-6h1.083c.4856527 2.8893814 2.9870881 5.0054594 5.917 5.0054594s5.4313473-2.116078 5.917-5.0054594h1.083c3.3093785.0104302 5.9895698 2.6906215 6 6zm-7.619-8c-1.3827118-1.2161092-1.8549786-3.1683587-1.181-4.882 1.4824352-.6477725 2.8043096-1.6135739 3.872-2.829.107.068 2.8 1.7 4.65 2.818-.9811586 1.8635177-2.1729571 3.6082678-3.552 5.2-1.2390132-.3008494-2.5177146-.4044549-3.789-.307zm8.226-6.7c-1.453-.876-2.9-1.756-4.34-2.63.3274137-.5329494.6113332-1.0914247.849-1.67 1.9328738-.0568229 3.5483473-1.4881956 3.8374888-3.4001651.2891414-1.9119694-.8308486-3.7570181-2.6604888-4.3828349.681-2.491 1.708-8.381-2.778-11.072-2.505-1.5-6.653-1.242-9.806-1.094.1844835-.310194.3934833-.6051345.625-.882 3.473-4.382 2.827-8.617 2.9-10.268 12.226577 7.2024444 17.1166642 22.4230718 11.373 35.399z" fill="#ff414c"/></g></g></svg>