<svg height="512" viewBox="0 0 60 60" width="512" xmlns="http://www.w3.org/2000/svg"><g id="Page-1" fill="none" fill-rule="evenodd"><g id="130---World-Alert" fill-rule="nonzero" transform="translate(0 -1)"><path id="Shape" d="m59 31c.005919 4.416616-1.0033984 8.7754982-2.95 12.74-1.8-1.08-3.5933333-2.1666667-5.38-3.26-.8420727-.4723231-1.6387813-1.0213156-2.38-1.64h-.01l-1.79-3.08h.01c-.0199152-.1189668-.0299494-.2393778-.03-.36-.01-2.1 1.83-3.67 3.4-5.08 1.5152852-1.1773478 2.646502-2.7784547 3.25-4.6.46-1.85-.27-4.12-2.06-4.81-.85-.32-1.87-.28-2.55-.9-.95-.85-.65-2.38-.26-3.61-1.1856914-.1878235-2.3817777.2692795-3.14 1.2-.7427788.9177645-1.6394638 1.6994031-2.65 2.31-1.08.48-2.66.1-2.9-1.06-.18-.9.52-1.71 1.09-2.43 1.6894369-2.1766199 2.6044075-4.8546684 2.6-7.61-.1206567-1.16237972-.0360356-2.33692088.25-3.47v-.01c9.5361176 5.0107815 15.5059301 14.8975613 15.5 25.67z" fill="#ffe7e8"/><path id="Shape" d="m43.5 5.33v.01c-.1800694.52834791-.271635 1.08280999-.271 1.641 11.4959367 7.755299 15.8856115 22.5685124 10.471 35.335.784.475 1.564.952 2.35 1.424 6.89314-14.090406 1.3328792-31.1079053-12.55-38.41z" fill="#ffc9cc"/><path id="Shape" d="m44.921 17.8c.0690186-.4752944.1790971-.9437134.329-1.4-1.1856914-.1878235-2.3817777.2692795-3.14 1.2-.6465971.7254677-1.3560215 1.3923936-2.12 1.993.6998158.5579645 1.6519665.6801636 2.47.317.9442559-.5443889 1.7788275-1.2599298 2.461-2.11z" fill="#ffc9cc"/><path id="Shape" d="m53.12 25.72c-.603498 1.8215453-1.7347148 3.4226522-3.25 4.6-1.57 1.41-3.41 2.98-3.4 5.08.0000506.1206222.0100848.2410332.03.36h-.01l-5.62-9.69c-.3888029-.663993-1.1005493-1.0720164-1.87-1.0720164s-1.4811971.4080234-1.87 1.0720164l-6.64 11.44c-.0377743-1.6241728-.9162169-3.1122243-2.32-3.93-1.9-.94-4.14-.05-6.25.02-1.7866493.095514-3.5359697-.5356841-4.85-1.75-1.296716-1.2477498-1.8036977-3.1066828-1.32-4.84.5499755-1.7339615 2.2152917-2.8662112 4.03-2.74 1.58.21 3.12 1.46 4.59.85 1.45-.6 1.62-2.53 2.25-3.97.99-2.26 3.54-3.99 3.31-6.44-.15-1.59-1.45-2.79-2.18-4.19-1.33-2.55-.77-5.61-.11-8.41.7842832-.07678956 1.5719743-.11350398 2.36-.11 4.7044887-.00971139 9.3396768 1.13363502 13.5 3.33v.01c-.2860356 1.13307912-.3706567 2.30762028-.25 3.47.0044075 2.7553316-.9105631 5.4333801-2.6 7.61-.57.72-1.27 1.53-1.09 2.43.24 1.16 1.82 1.54 2.9 1.06 1.0105362-.6105969 1.9072212-1.3922355 2.65-2.31.7582223-.9307205 1.9543086-1.3878235 3.14-1.2-.39 1.23-.69 2.76.26 3.61.68.62 1.7.58 2.55.9 1.79.69 2.52 2.96 2.06 4.81z" fill="#ffe0e2"/><path id="Shape" d="m40.5 5.33v.01c-.2860356 1.13307912-.3706567 2.30762028-.25 3.47.0044075 2.7553316-.9105631 5.4333801-2.6 7.61-.57.72-1.27 1.53-1.09 2.43.24 1.16 1.82 1.54 2.9 1.06.1853669-.0903896.3626776-.1964414.53-.317-.2183537-.195918-.3689112-.4560673-.43-.743-.18-.9.52-1.71 1.09-2.43 1.6894369-2.1766199 2.6044075-4.8546684 2.6-7.61-.1206567-1.16237972-.0360356-2.33692088.25-3.47v-.01c-4.1603232-2.19636498-8.7955113-3.33971139-13.5-3.33-.5 0-.99.018-1.482.047 4.1857367.20673385 8.2754707 1.32729774 11.982 3.283z" fill="#ff9ea1"/><path id="Shape" d="m51.06 20.91c-.85-.32-1.87-.28-2.55-.9-.95-.85-.65-2.38-.26-3.61-1.1856914-.1878235-2.3817777.2692795-3.14 1.2-.065.062-.126.13-.189.2-.1916764.7904393.0300244 1.6241697.589 2.215.68.62 1.7.58 2.55.9 1.79.69 2.52 2.96 2.06 4.81-.603498 1.8215453-1.7347148 3.4226522-3.25 4.6-.8060534.6807309-1.55644 1.4247639-2.244 2.225l1.864 3.21h.01c-.0199152-.1189668-.0299494-.2393778-.03-.36-.01-2.1 1.83-3.67 3.4-5.08 1.5152852-1.1773478 2.646502-2.7784547 3.25-4.6.46-1.85-.27-4.12-2.06-4.81z" fill="#ff9ea1"/><path id="Shape" d="m34.13 26.07-4.86 8.373c.7260733.8644349 1.1539261 1.9400287 1.22 3.067l6.64-11.44c.1007075-.1741258.2252441-.3333307.37-.473-.4798609-.4577439-1.1426923-.6709329-1.7994262-.5787563s-1.2352659.4795985-1.5705738 1.0517563z" fill="#ff9ea1"/><path id="Shape" d="m30.49 37.51-9.2 15.86-.01-.01c-.380277.0008328-.7511565-.1181286-1.06-.34-.6045625-.5894971-.8843644-1.4363641-.75-2.27.1439022-.8216686.1942233-1.6569986.15-2.49-.28-1.67-1.89-2.77-3.48-3.36s-3.31-.88-4.69-1.85c-1.38-.99-2.23-3.03-1.23-4.39.68-.92 1.97-1.24 2.63-2.17.94-1.35.14-3.18-.67-4.61-1.2995144-2.525753-2.91222638-4.8776247-4.8-7-1.17-1.2-2.55-2.28-3.23-3.81-.30680612-.6969517-.47005394-1.4485719-.48-2.21 4.36732622-9.51198227 13.5363467-15.91920347 23.97-16.75-.66 2.8-1.22 5.86.11 8.41.73 1.4 2.03 2.6 2.18 4.19.23 2.45-2.32 4.18-3.31 6.44-.63 1.44-.8 3.37-2.25 3.97-1.47.61-3.01-.64-4.59-.85-1.8147083-.1262112-3.4800245 1.0060385-4.03 2.74-.4836977 1.7333172.023284 3.5922502 1.32 4.84 1.3140303 1.2143159 3.0633507 1.845514 4.85 1.75 2.11-.07 4.35-.96 6.25-.02 1.4037831.8177757 2.2822257 2.3058272 2.32 3.93z" fill="#ffe7e8"/><path id="Shape" d="m17.07 31.85c-1.296716-1.2477498-1.8036977-3.1066828-1.32-4.84.3582362-1.0849536 1.156843-1.9688661 2.2-2.435-.3784064-.1396358-.7701156-.24016-1.169-.3-1.8147083-.1262112-3.4800245 1.0060385-4.03 2.74-.4836977 1.7333172.023284 3.5922502 1.32 4.84 1.3140303 1.2143159 3.0633507 1.845514 4.85 1.75.4567025-.0207089.9119987-.0654374 1.364-.134-1.2074362-.2133792-2.3254752-.7770933-3.215-1.621z" fill="#ffc9cc"/><path id="Shape" d="m24.543 2.539c-.613 2.682-1.056 5.56.207 7.981.73 1.4 2.03 2.6 2.18 4.19.23 2.45-2.32 4.18-3.31 6.44-.564 1.288-.766 2.961-1.839 3.73.79999.4100836 1.7272603.4960415 2.589.24 1.45-.6 1.62-2.53 2.25-3.97.99-2.26 3.54-3.99 3.31-6.44-.15-1.59-1.45-2.79-2.18-4.19-1.33-2.55-.77-5.61-.11-8.41-1.0393148.08704153-2.0731591.23025083-3.097.429z" fill="#ffc9cc"/><path id="Shape" d="m28.17 33.58c-1.1939048-.4740861-2.5044522-.570763-3.755-.277.2606271.0657863.5136675.1586236.755.277 1.4037831.8177757 2.2822257 2.3058272 2.32 3.93l-8.02 13.825c-.0025255.6430885.2704915 1.2564667.75 1.685.3088435.2218714.679723.3408328 1.06.34l.01.01 9.2-15.86c-.0377743-1.6241728-.9162169-3.1122243-2.32-3.93z" fill="#ffc9cc"/><path id="Shape" d="m56.05 43.74c-.7028435 1.4641812-1.5397491 2.8601397-2.5 4.17h-.01l-5.26-9.07h.01c.7412187.6186844 1.5379273 1.1676769 2.38 1.64 1.79 1.09 3.5833333 2.1766667 5.38 3.26z" fill="#ff9ea1"/><path id="Shape" d="m21.29 53.37-2 3.45c-.1809413.3065454-.2807506.6541569-.29 1.01-10.89007517-4.4602196-18.00267024-15.0619377-18-26.83-.0083698-4.1932154.90304244-8.3372396 2.67-12.14.00994606.7614281.17319388 1.5130483.48 2.21.68 1.53 2.06 2.61 3.23 3.81 1.88777362 2.1223753 3.5004856 4.474247 4.8 7 .81 1.43 1.61 3.26.67 4.61-.66.93-1.95 1.25-2.63 2.17-1 1.36-.15 3.4 1.23 4.39 1.38.97 3.11 1.26 4.69 1.85s3.2 1.69 3.48 3.36c.0442233.8330014-.0060978 1.6683314-.15 2.49-.1343644.8336359.1454375 1.6805029.75 2.27.3088435.2218714.679723.3408328 1.06.34z" fill="#ffe0e2"/><path id="Shape" d="m21.28 53.36c-.380277.0008328-.7511565-.1181286-1.06-.34-.6045625-.5894971-.8843644-1.4363641-.75-2.27.1439022-.8216686.1942233-1.6569986.15-2.49-.28-1.67-1.89-2.77-3.48-3.36s-3.31-.88-4.69-1.85c-1.38-.99-2.23-3.03-1.23-4.39.68-.92 1.97-1.24 2.63-2.17.94-1.35.14-3.18-.67-4.61-1.2995144-2.525753-2.91222638-4.8776247-4.8-7-1.17-1.2-2.55-2.28-3.23-3.81-.30680612-.6969517-.47005394-1.4485719-.48-2.21-.57532076 1.2433508-1.05991943 2.5267018-1.45 3.84.662.768 1.449 1.455 2.16 2.184 1.88777362 2.1223753 3.50048562 4.474247 4.8 7 .81 1.43 1.61 3.26.67 4.61-.66.93-1.95 1.25-2.63 2.17-1 1.36-.15 3.4 1.23 4.39 1.38.97 3.11 1.26 4.69 1.85s3.2 1.69 3.48 3.36c.0442233.8330014-.0060978 1.6683314-.15 2.49-.1343644.8336359.1454375 1.6805029.75 2.27.3088435.2218714.679723.3408328 1.06.34l.01.01-1.873 3.226c.841.446 1.7.866 2.583 1.229.0092494-.3558431.1090587-.7034546.29-1.01l2-3.45z" fill="#ff9ea1"/><path id="Shape" d="m56.84 60h-35.68c-.5762592.0054428-1.130358-.2217598-1.5369108-.6301948-.4065528-.4084349-.6311937-.9635773-.6230892-1.5398052.0092494-.3558431.1090587-.7034546.29-1.01l2-3.45 9.2-15.86 6.64-11.44c.3888029-.663993 1.1005493-1.0720164 1.87-1.0720164s1.4811971.4080234 1.87 1.0720164l5.62 9.69 1.79 3.08 5.26 9.07 5.17 8.91c.3798348.6614607.3756299 1.4758464-.0110151 2.1333496-.3866449.6575032-1.0962945 1.0570519-1.8589849 1.0466504z" fill="#ffe7e8"/><path id="Shape" d="m58.71 56.82-5.17-8.91-5.26-9.07-1.79-3.08-5.62-9.69c-.3358361-.5717117-.9146242-.9585089-1.5713219-1.0500959-.6566978-.0915869-1.3192313.1220884-1.7986781.5800959.1447559.1396693.2692925.2988742.37.473l5.62 9.69 1.79 3.08 5.26 9.07 5.17 8.91c.3782856.6612738.3732514 1.4745415-.0131917 2.1310815s-1.0950422 1.0556856-1.8568083 1.0459185h3c.7626904.0104015 1.47234-.3891472 1.8589849-1.0466504.386645-.6575032.3908499-1.4718889.0110151-2.1333496z" fill="#ffc9cc"/><path id="Shape" d="m39 47c-1.1675722.0321302-2.1674456-.8303528-2.307-1.99l-.681-7.66c-.0334174-.6246681.1968417-1.2346899.63469-1.6814738.4378482-.446784 1.0430943-.6893185 1.66831-.6685262h1.37c.6258986-.0219408 1.2322202.220088 1.6709615.6670069.4387413.446919.6695329 1.0576064.6360385 1.6829931l-.681 7.66c-.1396837 1.1612159-1.1419141 2.0242355-2.311 1.99z" fill="#ffc9cc"/><rect id="Rectangle-path" fill="#ffc9cc" height="4" rx="1" width="4" x="37" y="51"/><path id="Shape" d="m1 31c.00630858 11.7653286 7.11585924 22.3625089 18 26.83-.0081045.5762279.2165364 1.1313703.6230892 1.5398052.4065528.408435.9606516.6356376 1.5369108.6301948h3c-.5762592.0054428-1.130358-.2217598-1.5369108-.6301948-.4065528-.4084349-.6311937-.9635773-.6230892-1.5398052-11.8717708-4.8614732-19.13544868-16.948802-17.85577854-29.7134135s10.79822404-23.16949807 23.39877854-25.5775865c1.3415842-.25318633 2.6986222-.41621797 4.062-.488-2.3650239-.11806679-4.7356951.0457519-7.062.488-13.6577267 2.61311841-23.53652256 14.5555391-23.543 28.461z" fill="#fff"/><path id="Shape" d="m3.071 38.625-1.925.544c-.7497664-2.658624-1.13528384-5.4066972-1.146-8.169h2c.01056995 2.5784022.37085472 5.1434548 1.071 7.625z" fill="#fff"/><g fill="#ff414c"><path id="Shape" d="m1.3 35.989c-.55228473.0027614-1.00223852-.4427153-1.00499994-.995-.00276143-.5522847.44271521-1.0022385.99499994-1.005h.01c.55228475 0 1 .4477153 1 1s-.44771525 1-1 1z"/><path id="Shape" d="m54.73 47.965c6.4195662-9.3421177 7.023846-21.5052917 1.5618593-31.437698-5.4619867-9.93240631-16.0569693-15.93692944-27.3844528-15.519665-11.3274836.41726445-21.45198062 7.18501995-26.1684065 17.492363-1.81632159 3.9161646-2.75130284 8.1831472-2.739 12.5.00000001.5522847.44771526 1 1 1s.99999999-.4477153 1-1c-.00680667-3.0771372.50016206-6.1338207 1.5-9.044.88070492 1.3465172 1.94420329 2.5641555 3.16 3.618 1.82597261 2.0650804 3.3879657 4.3492853 4.65 6.8 2.492 4.395-.385 3.655-1.9 5.694-1.354 1.844-.371 4.486 1.461 5.8 1.531 1.076 3.392 1.4 4.917 1.97.771.286 2.594 1.111 2.841 2.578.0187103.7577041-.0348654 1.5154661-.16 2.263-.2026016 1.2498523.3122539 2.5078301 1.333 3.257-.5389581.8057867-1.0204833 1.6485392-1.441 2.522-7.4542419-3.4290192-13.03905091-9.9426817-15.29-17.833-.1580431-.5213235-.69784535-.8264482-1.226-.693-.26024079.0658329-.48223818.2352296-.61444354.4688553-.13220535.2336258-.16311675.5111551-.08555646.7681447 2.46931865 8.6575131 8.68267773 15.7560841 16.937 19.35.297077 1.4584367 1.5887343 2.4999062 3.077 2.481h35.682c1.1198231.0105116 2.159552-.579375 2.7249918-1.5460146.5654398-.9666397.5700215-2.1620397.0120082-3.1329854zm-3.448-5.944c1.1453333.696 2.2913333 1.389 3.438 2.079-.344.6553333-.716 1.295-1.116 1.919zm4.325.282c-5.439-3.281-5.838-3.517-6.567-4.146l-1.565-2.7c-.177-3.112 5.423-4.775 6.616-9.5.553-2.223-.3-5.068-2.679-5.986-1.715-.649-3.257.032-2.209-3.273.0807176-.2549973.0559189-.5317027-.0688545-.7682837-.1247734-.2365809-.3391213-.4133175-.5951455-.4907163-1.32-.4-2.786.116-4.123 1.437-1.1 1.057-2.254 2.783-3.585 2.093-.693-.356-.029-1.14.5-1.806 3.473-4.382 2.827-8.617 2.9-10.268 12.2312165 7.2015839 17.1232241 22.4267535 11.376 35.405zm-13.273-36.432c-.1173038.97607946-.1454201 1.96081762-.084 2.942.0075767 2.5827312-.8674079 5.09055-2.48 7.108-.8497161.8104403-1.2871706 1.9617911-1.19 3.132.375 1.809 2.622 2.51 4.286 1.771 1.781-.792 2.669-2.683 4.085-3.336-.2867339 1.1668797.0476968 2.3991717.885 3.261.927.844 2.123.814 2.864 1.1 1.285.494 1.787 2.278 1.45 3.631-.816 3.239-4.491 4.659-6.061 7.595l-4.353-7.5c-.5694329-.9707226-1.6105862-1.5670427-2.736-1.5670427s-2.1665671.5963201-2.736 1.5670427l-5.455 9.4c-2.144-4.268-6.741-2.443-8.923-2.368-3.756.093-5.989-2.777-5.181-5.295.4085483-1.266629 1.6134147-2.1038536 2.943-2.045 1.43.19 3.181 1.581 5.105.783 1.491-.618 1.985-2.144 2.382-3.369.3398588-1.2171756.9558167-2.3395878 1.8-3.28 1.016-1.335 2.166-2.849 1.986-4.779-.181-1.906-1.591-3.22-2.289-4.559-1.067-2.045-.73-4.551-.185-7 4.7947004-.29151611 9.5822339.67653992 13.887 2.808zm-21.867 44.951c.1597443-.8996613.2064394-1.8157587.139-2.727-.405-2.417-2.754-3.626-4.116-4.131-2.325-.869-5.3-1.19-5.682-3.634-.269-1.7 1.731-1.673 2.862-3.268 1.432-2.056-.06-4.685-.62-5.675-1.4847975-2.9647322-3.43596056-5.6718485-5.779-8.018-1.5-1.448-2.453-2.4-2.577-4.322 4.05633159-8.6154858 12.2267047-14.56710365 21.671-15.786-1.683 8.307 2.307 8.757 2.569 11.543.182 1.921-2.212 3.618-3.23 5.945-.605 1.384-.8 3.066-1.718 3.447-.971.407-2.42-.7-4.086-.92-2.2911998-.1904663-4.4088263 1.23125-5.1 3.424-1.254 3.9 2.169 8.107 7.155 7.895 2.113-.07 4.233-.884 5.773-.123 1.0010229.6066232 1.6461508 1.660593 1.731 2.828l-8.648 14.9c-.3059162-.3892663-.4310748-.8906285-.344-1.378zm36.374 8.178h-35.682c-.4041684.0098944-.7825132-.1980318-.9908226-.5445246-.2083093-.3464927-.2144867-.7781638-.0161774-1.1304754l17.842-30.754c.2111919-.3544901.5933679-.5716629 1.006-.5716629s.7948081.2171728 1.006.5716629l17.842 30.754c.1989948.3522355.1931511.7842799-.0152976 1.1310044s-.5872797.5545312-.9917024.5439956z"/><path id="Shape" d="m39.685 34h-1.37c-.9482156-.00498-1.855072.3878702-2.5 1.083-.5910803.6352698-.8844468 1.4917398-.807 2.356l.681 7.659c.1764423 1.6835709 1.6188278 2.9477819 3.311 2.902 1.6873008.0400424 3.1228967-1.2215419 3.3-2.9l.681-7.66c.0774468-.8642602-.2159197-1.7207302-.807-2.356-.6421562-.6926783-1.544455-1.0856442-2.489-1.084zm.629 10.922c-.0967227.6431427-.6643558 1.1088265-1.314 1.078-.6484776.0286566-1.2138806-.4370456-1.31-1.079l-.69-7.659c-.0244791-.3050359.0812337-.6061902.291-.829.2655944-.2814235.6370772-.4385056 1.024-.433h1.37c.3855373-.0043822.7553522.1526078 1.02.433.2097663.2228098.3154791.5239641.291.829z"/><path id="Shape" d="m40 50h-2c-1.1045695 0-2 .8954305-2 2v2c0 1.1045695.8954305 2 2 2h2c1.1045695 0 2-.8954305 2-2v-2c0-1.1045695-.8954305-2-2-2zm-2 4v-2h2v2z"/></g></g></g></svg>