<svg height="512" viewBox="0 0 60 48" width="512" xmlns="http://www.w3.org/2000/svg"><g id="Page-1" fill="none" fill-rule="evenodd"><g id="131---Media" fill-rule="nonzero"><rect id="Rectangle-path" fill="#ffe0e2" height="46" rx="6" width="58" x="1" y="1"/><path id="Shape" d="m53 1h-3c3.3137085 0 6 2.6862915 6 6v34c0 3.3137085-2.6862915 6-6 6h3c3.3137085 0 6-2.6862915 6-6v-34c0-3.3137085-2.6862915-6-6-6z" fill="#ff9ea1"/><path id="Shape" d="m55 7.24v13.47c-3.48.08-14.3.92-23.85 7.77-9.99-8.87-22.39-9.87-26.15-9.96v-11.28c.00880712-1.24518139 1.02481164-2.24775853 2.27-2.24h45.46c1.2451884-.00775853 2.2611929.99481861 2.27 2.24z" fill="#ffe7e8"/><path id="Shape" d="m55 20.71v-13.47c-.0088071-1.24518139-1.0248116-2.24775853-2.27-2.24l-3-.00004473c1.2451884-.0077138 2.2611929.99486334 2.27 2.24004473v13.47" fill="#ffc9cc"/><path id="Shape" d="m55 20.71v20.05c-.0088071 1.2451814-1.0248116 2.2477585-2.27 2.24h-11.58c-2.1402167-5.5616291-5.5670487-10.5373892-10-14.52 9.55-6.85 20.37-7.69 23.85-7.77z" fill="#ffe7e8"/><path id="Shape" d="m52 20.9v19.86c-.0088071 1.2451814-1.0248116 2.2477585-2.27 2.2400447l3-.0000447c1.2451884.0077585 2.2611929-.9948186 2.27-2.24v-20.05c-.713.016-1.746.069-3 .19z" fill="#ffc9cc"/><path id="Shape" d="m41.15 43.0000447-33.88-.0000447c-1.24518836.0077585-2.26119288-.9948186-2.27-2.24v-22.24c3.76.09 16.16 1.09 26.15 9.96 4.4329513 3.9826108 7.8597833 8.9583709 10 14.5200447z" fill="#ffe7e8"/><path id="Shape" d="m31.15 28.48c-9.99-8.87-22.39-9.87-26.15-9.96v.2c5.381.556 15.055 2.575 23.15 9.762 4.4326922 3.9820424 7.8595063 8.957091 10 14.518h3c-2.1402167-5.5616291-5.5670487-10.5373892-10-14.52z" fill="#ffc9cc"/><circle id="Oval" cx="36" cy="14" fill="#ffe7e8" r="4"/><path id="Shape" d="m36 10c-.5146843.0021695-1.0240724.1040471-1.5.3 1.5110147.6085107 2.5007405 2.0740584 2.5007405 3.703s-.9897258 3.0944893-2.5007405 3.703c1.496414.6077595 3.211506.2559465 4.3478056-.8918556s1.4708211-2.8663504.8480212-4.3565675c-.6227999-1.490217-2.0807039-2.45966478-3.6958268-2.4575769z" fill="#ffc9cc"/><path id="Shape" d="m7 47h3c-3.3137085 0-6-2.6862915-6-6v-34c0-3.3137085 2.6862915-6 6-6h-3c-3.3137085 0-6 2.6862915-6 6v34c0 3.3137085 2.6862915 6 6 6z" fill="#fff"/><path id="Rectangle-path" d="m0 33h2v8h-2z" fill="#fff"/><g fill="#ff414c"><circle id="Oval" cx="1" cy="37" r="1"/><path id="Shape" d="m53 0h-46c-3.86416566.00440864-6.99559136 3.13583434-7 7v26c0 .5522847.44771525 1 1 1s1-.4477153 1-1v-26c.00330612-2.76005315 2.23994685-4.99669388 5-5h46c2.7600532.00330612 4.9966939 2.23994685 5 5v34c-.0033061 2.7600532-2.2399468 4.9966939-5 5h-46c-2.76005315-.0033061-4.99669388-2.2399468-5-5 0-.5522847-.44771525-1-1-1s-1 .4477153-1 1c.00440864 3.8641657 3.13583434 6.9955914 7 7h46c3.8641657-.0044086 6.9955914-3.1358343 7-7v-34c-.0044086-3.86416566-3.1358343-6.99559136-7-7z"/><path id="Shape" d="m7.273 6c.55228475 0 1-.44771525 1-1s-.44771525-1-1-1c-1.79624623-.00831472-3.26033843 1.43877915-3.273 3.235v33.53c.01266157 1.7962209 1.47675377 3.2433147 3.273 3.235h38.636c.5522847 0 1-.4477153 1-1s-.4477153-1-1-1h-4.1c-8.868-21.352-29.641-24.1-35.809-24.437v-10.328c.01150906-.69212579.58084323-1.24446492 1.273-1.235zm32.366 36.0001198-32.366-.0001198c-.69215677.0094649-1.26149094-.5428742-1.273-1.235v-21.2c5.914.335 25.085 2.971 33.639 22.4351198z"/><path id="Shape" d="m52.727 42c-.5522847 0-1 .4477153-1 1s.4477153 1 1 1c1.7962462.0083147 3.2603384-1.4387791 3.273-3.235v-33.53c-.0126616-1.79622085-1.4767538-3.24331472-3.273-3.235h-38.636c-.5522847 0-1 .44771525-1 1s.4477153 1 1 1h38.636c.6921568-.00946492 1.2614909.54287421 1.273 1.235v12.516c-6.6638913.34511-13.1746454 2.1253597-19.087 5.219-.3246243.1631678-.5352091.489569-.5500667.8525895-.0148577.3630206.1683498.7055388.4785544.8946888.3102047.18915.6985956.1951688 1.0145123.0157217 5.6212806-2.9408043 11.8090644-4.6388298 18.144-4.979v19.011c-.0115091.6921258-.5808432 1.2444649-1.273 1.235z"/><path id="Shape" d="m41 14c0-2.7614237-2.2385763-5-5-5s-5 2.2385763-5 5 2.2385763 5 5 5c2.7600532-.0033061 4.9966939-2.2399468 5-5zm-8 0c0-1.6568542 1.3431458-3 3-3s3 1.3431458 3 3-1.3431458 3-3 3-3-1.3431458-3-3z"/></g></g></g></svg>