<svg height="512" viewBox="0 0 60 55" width="512" xmlns="http://www.w3.org/2000/svg"><g id="Page-1" fill="none" fill-rule="evenodd"><g id="134---Dictate" fill-rule="nonzero"><path id="Shape" d="m5 45c-2.209 0-4-3.134-4-7s1.791-7 4-7" fill="#ffe7e8"/><path id="Shape" d="m55 45c2.209 0 4-3.134 4-7s-1.791-7-4-7" fill="#ffe7e8"/><path id="Shape" d="m13 30v16c0 1.1045695-.8954305 2-2 2h-2v-20h2c1.1032019.0032948 1.9967052.8967981 2 2z" fill="#ffe0e2"/><path id="Shape" d="m9 28v20h-2c-1.1045695 0-2-.8954305-2-2v-16c.0032948-1.1032019.89679813-1.9967052 2-2z" fill="#ffe7e8"/><path id="Shape" d="m55 30v16c0 1.1045695-.8954305 2-2 2h-2v-20h2c1.1032019.0032948 1.9967052.8967981 2 2z" fill="#ffe7e8"/><path id="Shape" d="m51 28v20h-2c-1.1045695 0-2-.8954305-2-2v-16c.0032948-1.1032019.8967981-1.9967052 2-2z" fill="#ffe0e2"/><path id="Shape" d="m46.825 14.825c-.8865127.0019511-1.7284956-.3882897-2.3-1.066-3.6101014-4.28464138-8.9272343-6.757488-14.53-6.757488s-10.9198986 2.47284662-14.53 6.757488c-.6911303.81921-1.7668043 1.2074777-2.8218262 1.0185463-1.0550218-.1889314-1.9291085-.9263586-2.293-1.9345-.36389152-1.0081414-.1623041-2.1338363.5288262-2.9530463 4.7501341-5.63596767 11.7452534-8.8885586 19.116-8.8885586s14.3658659 3.25259093 19.116 8.8885586c.752833.8919405.9200019 2.1395553.4285322 3.1982209-.4914697 1.0586657-1.5523497 1.7361771-2.7195322 1.7367791z" fill="#ffe7e8"/><path id="Shape" d="m49.116 9.89c-4.7462694-5.64119791-11.7437441-8.89541168-19.116-8.89-.5 0-1 .018-1.5.048 6.8365118.40525276 13.2060379 3.60230943 17.616 8.842 1.0681904 1.2661779.9079222 3.1585066-.358 4.227-.1316051.1097737-.2720864.2084451-.42.295 1.2589976.7287979 2.8598199.4457103 3.7925191-.670665.9326991-1.1163752.9265706-2.7420237-.0145191-3.851335z" fill="#ffc9cc"/><path id="Shape" d="m27.01 50.651c-2.98 4.93-10.01 2.96-10.01 2.96 2.76-2.34 3.7-4.59 3.91-6.32-4.4421015-4.3472963-5.1855432-11.2307974-1.7740972-16.4263037 3.4114461-5.1955063 10.0233146-7.2494023 15.7780986-4.9012731 5.7547841 2.3481291 9.0423917 8.4413163 7.8453159 14.5403539s-6.5439131 10.4975172-12.7593173 10.4962229c-1.0069181.0015657-2.0105104-.115576-2.99-.349z" fill="#ffe7e8"/><path id="Shape" d="m30 25c-.5013561.0026174-1.0021603.0336673-1.5.093 6.5583972.7602662 11.5041092 6.3178324 11.4977161 12.9201455-.0063932 6.6023131-4.9628588 12.1502909-11.5227161 12.8978545 4.7923855.5636701 9.5027021-1.5735315 12.2345716-5.5511654 2.7318696-3.9776339 3.0357726-9.1411942.7893573-13.4118266-2.2464153-4.2706325-6.673509-6.9456192-11.4989289-6.948008z" fill="#ffc9cc"/><path id="Shape" d="m24.01 50.651c-1.1745139 1.8706252-3.1625046 3.0777254-5.364 3.257 2.182.253 5.994.16 8.124-2.92-.9295077-.0117795-1.8549665-.1247793-2.76-.337z" fill="#ffc9cc"/><circle id="Oval" cx="22" cy="38" fill="#ffe7e8" r="2"/><circle id="Oval" cx="30" cy="38" fill="#ffe7e8" r="2"/><circle id="Oval" cx="38" cy="38" fill="#ffe7e8" r="2"/><path id="Shape" d="m14.673 14.412c-.15221-.0852296-.2964563-.1839596-.431-.295-1.2659222-1.0684934-1.4261904-2.9608221-.358-4.227 4.4040114-5.24664502 10.7773242-8.44415515 17.616-8.838-7.8846771-.48985813-15.534291 2.78950196-20.616 8.838-.94252145 1.1116824-.94724996 2.740656-.0111982 3.8577914.9360517 1.1171353 2.5407063 1.3976011 3.8001982.6642086z" fill="#fff"/><path id="Shape" d="m7 48h3c-1.1045695 0-2-.8954305-2-2v-1c-2.209 0-4-3.134-4-7s1.791-7 4-7v-1c.0032948-1.1032019.89679813-1.9967052 2-2h-3c-1.10320187.0032948-1.9967052.8967981-2 2v1c-2.209 0-4 3.134-4 7s1.791 7 4 7v1c0 1.1045695.8954305 2 2 2z" fill="#fff"/><path id="Shape" d="m16.4 3.843 1.047 1.7c-2.1831529 1.34793861-4.1404533 3.031217-5.8 4.988l-1.529-1.29c1.7976412-2.11795755 3.9176096-3.93960504 6.282-5.398z" fill="#fff"/><g fill="#ff414c"><path id="Shape" d="m56 30.156v-.156c0-1.6568542-1.3431458-3-3-3v-1c-.0016132-4.0717131-1.0871147-8.069603-3.145-11.583 1.2822792-1.4824508 1.2928909-3.6782248.025-5.173-4.9362534-5.86611366-12.2133284-9.24988032-19.88-9.244-2.3875217.01169701-4.7629298.34023236-7.064.977-2.298038.65595029-4.4966773 1.62004151-6.536 2.866-.2307832.13890438-.395081.36576738-.4550705.6283632-.0599896.26259582-.0105019.53829773.1370705.7636368.2970622.45415231.9001323.5919969 1.365.312 1.8814964-1.14942419 3.9094492-2.03978594 6.029-2.647 2.1252979-.58718592 4.3191021-.88982599 6.524-.9 7.0772302-.00513731 13.7948007 3.11828409 18.352 8.533.3423705.405337.5096463.9301067.4650097 1.4588062-.0446365.5286996-.297527 1.0179959-.7030097 1.3601938-.8543004.6807094-2.0914931.5758179-2.819-.239-3.8001068-4.5099807-9.3969804-7.11286418-15.2945-7.11286418s-11.4943932 2.60288348-15.2945 7.11286418c-.7124473.8444433-1.9745566.9514473-2.819.239-.8444433-.7124474-.9514473-1.9745566-.239-2.819.2433984-.2713463.3198686-.65363808.1995776-.99773354s-.4182855-.59547957-.7777282-.65608096c-.3594428-.0606014-.7233872.079181-.9498494.3648145-1.26789088 1.4947752-1.25727917 3.6905492.025 5.173-2.0578853 3.513397-3.14338679 7.5112869-3.145 11.583v1c-1.65685425 0-3 1.3431458-3 3v.155c-2.309.723-4 3.909-4 7.845s1.691 7.123 4 7.845v.155c0 1.6568542 1.34314575 3 3 3h4c1.6568542 0 3-1.3431458 3-3v-16c0-1.6568542-1.3431458-3-3-3h-2v-1c.00154782-3.6642972.96425083-7.2640892 2.792-10.44 1.577268.586111 3.3526996.1224683 4.442-1.16 3.4200958-4.059657 8.4577168-6.40270532 13.766-6.40270532s10.3459042 2.34304832 13.766 6.40270532c1.0862105 1.2911773 2.8673153 1.7592779 4.448 1.169 1.8240893 3.1738615 2.7846576 6.7703038 2.786 10.431v1h-2c-1.6568542 0-3 1.3431458-3 3v16c0 1.6568542 1.3431458 3 3 3h4c1.6568542 0 3-1.3431458 3-3v-.155c2.309-.722 4-3.908 4-7.845s-1.691-7.122-4-7.844zm-54 7.844c0-2.709.928-4.783 2-5.608v11.217c-1.072-.825-2-2.899-2-5.609zm10-8v16c0 .5522847-.4477153 1-1 1h-1v-6c0-.5522847-.44771525-1-1-1s-1 .4477153-1 1v6h-1c-.55228475 0-1-.4477153-1-1v-16c0-.5522847.44771525-1 1-1h1v2c0 .5522847.44771525 1 1 1s1-.4477153 1-1v-2h1c.5522847 0 1 .4477153 1 1zm42 16c0 .5522847-.4477153 1-1 1h-1v-6c0-.5522847-.4477153-1-1-1s-1 .4477153-1 1v6h-1c-.5522847 0-1-.4477153-1-1v-16c0-.5522847.4477153-1 1-1h1v2c0 .5522847.4477153 1 1 1s1-.4477153 1-1v-2h1c.5522847 0 1 .4477153 1 1zm2-2.392v-11.215c1.072.825 2 2.9 2 5.608s-.928 4.783-2 5.608z"/><path id="Shape" d="m9 34c-.55228475 0-1 .4477153-1 1v2c0 .5522847.44771525 1 1 1s1-.4477153 1-1v-2c0-.5522847-.44771525-1-1-1z"/><path id="Shape" d="m51 34c-.5522847 0-1 .4477153-1 1v2c0 .5522847.4477153 1 1 1s1-.4477153 1-1v-2c0-.5522847-.4477153-1-1-1z"/><path id="Shape" d="m13.713 8.05c-.5522847.00276142-1.0022386-.44271525-1.005-.995s.4427153-1.00223858.995-1.005h.01c.5522847 0 1 .44771525 1 1s-.4477153 1-1 1z"/><path id="Shape" d="m16.354 52.849c-.2818094.2391644-.4087146.6142717-.3299973.9754084.0787174.3611367.3502188.6494029.7059973.7495916 1.1389157.2899984 2.3097448.4358061 3.485.434 2.7990293.1616715 5.5023156-1.0456721 7.25-3.238 6.7753499 1.2517203 13.455132-2.6087756 15.7530671-9.1042866 2.2979351-6.4955111-.4681685-13.6977044-6.5233589-16.9850802-6.0551904-3.2873757-13.6018533-1.6840053-17.7974499 3.7812614-4.1955965 5.4652666-3.7945731 13.1699469.9457417 18.1701054-.5499171 2.0788627-1.7777511 3.9148072-3.489 5.217zm5.546-5.438c.0374993-.308753-.070796-.6173764-.293-.835-4.2896681-4.1958996-4.8205673-10.9154475-1.2430293-15.7329207 3.5775381-4.8174732 10.1636495-6.2518073 15.4204972-3.3583009 5.2568476 2.8935063 7.5682876 9.2252852 5.4119267 14.8250115-2.1563608 5.5997262-8.1175795 8.7458428-13.9573946 7.3662101-.4230238-.101074-.8628699.0828689-1.088.455-1.669 2.761-4.939 2.987-7.015 2.815 1.4855226-1.5048207 2.4535735-3.4433743 2.764-5.535z"/><path id="Shape" d="m25 38c0-1.2133867-.7309265-2.3072956-1.8519497-2.7716386s-2.4113767-.2076757-3.2693706.6503183c-.857994.8579939-1.1146613 2.1483474-.6503183 3.2693706s1.5582519 1.8519497 2.7716386 1.8519497c1.6568542 0 3-1.3431458 3-3zm-4 0c0-.5522847.4477153-1 1-1s1 .4477153 1 1-.4477153 1-1 1-1-.4477153-1-1z"/><path id="Shape" d="m30 41c1.6568542 0 3-1.3431458 3-3s-1.3431458-3-3-3-3 1.3431458-3 3 1.3431458 3 3 3zm0-4c.5522847 0 1 .4477153 1 1s-.4477153 1-1 1-1-.4477153-1-1 .4477153-1 1-1z"/><path id="Shape" d="m38 41c1.6568542 0 3-1.3431458 3-3s-1.3431458-3-3-3-3 1.3431458-3 3 1.3431458 3 3 3zm0-4c.5522847 0 1 .4477153 1 1s-.4477153 1-1 1-1-.4477153-1-1 .4477153-1 1-1z"/></g></g></g></svg>