<svg height="512" viewBox="0 0 60 26" width="512" xmlns="http://www.w3.org/2000/svg"><g id="Page-1" fill="none" fill-rule="evenodd"><g id="136---Switch" fill-rule="nonzero"><path id="Shape" d="m47 1h-34c-6.627417 0-12 5.372583-12 12s5.372583 12 12 12h34c6.627417 0 12-5.372583 12-12s-5.372583-12-12-12zm-34 20c-4.418278 0-8-3.581722-8-8s3.581722-8 8-8 8 3.581722 8 8c0 2.1217319-.8428547 4.1565632-2.3431458 5.6568542-1.500291 1.5002911-3.5351223 2.3431458-5.6568542 2.3431458z" fill="#ffe7e8"/><path id="Shape" d="m47 1h-3c6.627417 0 12 5.372583 12 12s-5.372583 12-12 12h3c6.627417 0 12-5.372583 12-12s-5.372583-12-12-12z" fill="#ffc9cc"/><circle id="Oval" cx="13" cy="13" fill="#ffe7e8" r="8"/><circle id="Oval" cx="13" cy="13" fill="#ffe0e2" r="8"/><path id="Shape" d="m13 5c-.5034323.00135829-1.005629.04990397-1.5.145 3.7641632.72658994 6.4837629 4.0213519 6.4837629 7.855s-2.7195997 7.1284101-6.4837629 7.855c2.9873733.5766142 6.0432406-.5912461 7.8846263-3.0132663s2.1495108-5.6789024.795012-8.40327682c-1.3544988-2.72437443-4.1371319-4.44459996-7.1796383-4.43845688z" fill="#ff9ea1"/><path id="Shape" d="m47 22h-7c-.5522847 0-1-.4477153-1-1s.4477153-1 1-1h7c1.7034148-.0002207 3.3481091-.6225374 4.625-1.75.4158202-.349063 1.0341976-.3025821 1.3931652.1047184.3589675.4073006.3273798 1.0266174-.0711652 1.3952816-1.6419197 1.4496333-3.7567176 2.2497502-5.947 2.25z" fill="#ffe7e8"/><path id="Shape" d="m13 25h3c-6.627417 0-12-5.372583-12-12s5.372583-12 12-12h-3c-6.627417 0-12 5.372583-12 12s5.372583 12 12 12z" fill="#fff"/><path id="Shape" d="m2.793 4.965 1.57 1.235c-1.52387798 1.93976345-2.35561623 4.3332548-2.363 6.8h-2c.00843619-2.9149384.99158912-5.74330716 2.793-8.035z" fill="#fff"/><g fill="#ff414c"><path id="Shape" d="m1.68 10.062c-.55228475.0027614-1.00223858-.44271525-1.005-.995s.44271525-1.00223858.995-1.005h.01c.55228475 0 1 .44771525 1 1s-.44771525 1-1 1z"/><path id="Shape" d="m47 0h-34c-3.98112364.01329677-7.738919 1.84120448-10.207 4.965-.17742616.20993516-.25701712.48551354-.21883977.75771806s.19050734.51525542.41883977.66828194c.43917045.29233168 1.02753356.21030441 1.37-.191 2.08875397-2.64276373 5.26847328-4.1889975 8.637-4.2h34c6.0751322 0 11 4.92486775 11 11 0 6.0751322-4.9248678 11-11 11h-34c-6.07216255-.0071635-10.9928365-4.9278374-11-11 0-.5522847-.44771525-1-1-1s-1 .4477153-1 1c.00826602 7.1762751 5.82372494 12.991734 13 13h34c7.1797017 0 13-5.8202983 13-13 0-7.17970175-5.8202983-13-13-13z"/><path id="Shape" d="m39 21c0 .5522847.4477153 1 1 1h7c2.1902824-.0002498 4.3050803-.8003667 5.947-2.25.398545-.3686642.4301327-.987981.0711652-1.3952816-.3589676-.4073005-.977345-.4537814-1.3931652-.1047184-1.2768909 1.1274626-2.9215852 1.7497793-4.625 1.75h-7c-.5522847 0-1 .4477153-1 1z"/><path id="Shape" d="m54.748 16c.4559068-.0001121.8540233-.3085702.968-.75.1886149-.7351288.2840302-1.49106.284-2.25 0-.5522847-.4477153-1-1-1s-1 .4477153-1 1c.0006851.5903982-.0739165 1.1784741-.222 1.75-.0665067.2570039-.0280929.5299056.106776.7585636.1348688.2286581.3551233.3943052.612224.4604364.0820811.020575.1663794.0309863.251.031z"/><path id="Shape" d="m15.5 14.663c-.5569007.8361507-1.4953681 1.338043-2.5 1.337-.5522847 0-1 .4477153-1 1s.4477153 1 1 1c1.6708787.0004566 3.2311887-.8350618 4.157-2.226.2606938-.4555.1248985-1.035034-.3110119-1.3273071-.4359105-.2922731-1.0236011-.1978283-1.3459881.2163071z"/><path id="Shape" d="m14 9c0-.55228475-.4477153-1-1-1-1.5726765.00468642-3.05264495.74467064-4 2-.21435937.2858125-.25995645.6642734-.11961526.9928203.14034118.3285469.44529947.5572656.80000001.6.35470055.0427345.70525585-.1070078.91961525-.3928203.5641549-.7582975 1.4548691-1.20365455 2.4-1.2.2652165 0 .5195704-.10535684.7071068-.29289322s.2928932-.44189029.2928932-.70710678z"/><path id="Shape" d="m50 14c.5522847 0 1-.4477153 1-1s-.4477153-1-1-1h-4c-.5522847 0-1 .4477153-1 1s.4477153 1 1 1z"/><path id="Shape" d="m41 12h-19.059c-.5306673-4.74643254-4.6764411-8.25180252-9.4450477-7.98605718-4.76860663.26574534-8.49922421 4.21005157-8.49922421 8.98605718 0 4.7760056 3.73061758 8.7203118 8.49922421 8.9860572 4.7686066.2657453 8.9143804-3.2396247 9.4450477-7.9860572h19.059c.5522847 0 1-.4477153 1-1s-.4477153-1-1-1zm-28 8c-3.86599325 0-7-3.1340068-7-7 0-3.86599325 3.13400675-7 7-7 3.8659932 0 7 3.13400675 7 7-.0049584 3.8639376-3.1360624 6.9950416-7 7z"/></g></g></g></svg>