<svg height="512" viewBox="0 0 60 60" width="512" xmlns="http://www.w3.org/2000/svg"><g id="Page-1" fill="none" fill-rule="evenodd"><g id="137---Settings" fill-rule="nonzero"><rect id="Rectangle-path" fill="#ffe0e2" height="50.111" rx="4" width="46" x="1" y="8.889"/><rect id="Rectangle-path" fill="#ffe7e8" height="38" rx="2" transform="matrix(0 1 -1 0 57.944 9.943)" width="42.111" x="2.945" y="14.944"/><path id="Shape" d="m41 12.889h-3c1.1045695 0 2 .8954305 2 2v38.111c0 1.1045695-.8954305 2-2 2h3c1.1045695 0 2-.8954305 2-2v-38.111c0-1.1045695-.8954305-2-2-2z" fill="#ffc9cc"/><path id="Shape" d="m37 8v8c-.0001724.1125754-.0095368.2249488-.028.336-.1366231.5944421-.5649847 1.0792559-1.1380728 1.2880555s-1.2129272.1131751-1.6999272-.2540555l-.814-.591c-.6375733-.4649394-1.5024267-.4649394-2.14 0l-.61.442c-.6375733.4649394-1.5024267.4649394-2.14 0l-.61-.442c-.6375733-.4649394-1.5024267-.4649394-2.14 0l-.61.442c-.6375733.4649394-1.5024267.4649394-2.14 0l-.61-.442c-.6375733-.4649394-1.5024267-.4649394-2.14 0l-.61.442c-.6375733.4649394-1.5024267.4649394-2.14 0l-.61-.442c-.6375733-.4649394-1.5024267-.4649394-2.14 0l-.814.591c-.487.3672306-1.1268391.4628551-1.6999272.2540555s-1.0014497-.6936134-1.1380728-1.2880555c-.0184632-.1110512-.0278276-.2234246-.028-.336v-8c.0032948-1.10320187.8967981-1.9967052 2-2h22c1.1032019.0032948 1.9967052.89679813 2 2z" fill="#ffe7e8"/><path id="Shape" d="m35 6h-3c1.1032019.0032948 1.9967052.89679813 2 2v8c-.0001321.1125771-.0094968.2249538-.028.336-.0458091.2519319-.152582.4888237-.311.69l.473.344c.487.3672306 1.1268391.4628551 1.6999272.2540555s1.0014497-.6936134 1.1380728-1.2880555c.0185032-.1110462.0278679-.2234229.028-.336v-8c-.0032948-1.10320187-.8967981-1.9967052-2-2z" fill="#ffc9cc"/><path id="Shape" d="m20 1h8c1.1045695 0 2 .8954305 2 2v3h-12v-3c0-1.1045695.8954305-2 2-2z" fill="#ffc9cc"/><path id="Shape" d="m59 32c-.0032948 1.1032019-.8967981 1.9967052-2 2h-3.41c.5466724-1.2772988.5466724-2.7227012 0-4h3.41c1.1032019.0032948 1.9967052.8967981 2 2z" fill="#ffe0e2"/><path id="Shape" d="m44 32c.0006334.6874699.1400872 1.3677324.41 2h-16.41c-1.1045695 0-2-.8954305-2-2s.8954305-2 2-2h16.41c-.2699128.6322676-.4093666 1.3125301-.41 2z" fill="#ffe0e2"/><path id="Shape" d="m54 32c-.0006334.6874699-.1400872 1.3677324-.41 2-.7984446 1.8228805-2.5999228 3.0005222-4.59 3.0005222s-3.7915554-1.1776417-4.59-3.0005222c-.5466724-1.2772988-.5466724-2.7227012 0-4 .7984446-1.8228805 2.5999228-3.0005222 4.59-3.0005222s3.7915554 1.1776417 4.59 3.0005222c.2699128.6322676.4093666 1.3125301.41 2z" fill="#ffe7e8"/><path id="Shape" d="m53.59 30c-1.0229835-2.3447409-3.6508058-3.5391272-6.09-2.768 2.0870221.6501513 3.5086677 2.5820544 3.5086677 4.768s-1.4216456 4.1178487-3.5086677 4.768c2.4391942.7711272 5.0670165-.4232591 6.09-2.768.5466724-1.2772988.5466724-2.7227012 0-4z" fill="#ffc9cc"/><path id="Shape" d="m59 54c-.0032948 1.1032019-.8967981 1.9967052-2 2h-3.41c.5466724-1.2772988.5466724-2.7227012 0-4h3.41c1.1032019.0032948 1.9967052.8967981 2 2z" fill="#ffe0e2"/><path id="Shape" d="m44 54c.0006334.6874699.1400872 1.3677324.41 2h-16.41c-1.1045695 0-2-.8954305-2-2s.8954305-2 2-2h16.41c-.2699128.6322676-.4093666 1.3125301-.41 2z" fill="#ffe0e2"/><path id="Shape" d="m54 54c-.0006334.6874699-.1400872 1.3677324-.41 2-.7984446 1.8228805-2.5999228 3.0005222-4.59 3.0005222s-3.7915554-1.1776417-4.59-3.0005222c-.5466724-1.2772988-.5466724-2.7227012 0-4 .7984446-1.8228805 2.5999228-3.0005222 4.59-3.0005222s3.7915554 1.1776417 4.59 3.0005222c.2699128.6322676.4093666 1.3125301.41 2z" fill="#ffe7e8"/><path id="Shape" d="m53.59 52c-1.0229835-2.3447409-3.6508058-3.5391272-6.09-2.768 2.0870221.6501513 3.5086677 2.5820544 3.5086677 4.768s-1.4216456 4.1178487-3.5086677 4.768c2.4391942.7711272 5.0670165-.4232591 6.09-2.768.5466724-1.2772988.5466724-2.7227012 0-4z" fill="#ffc9cc"/><path id="Shape" d="m34 43c.0006334.6874699.1400872 1.3677324.41 2h-6.41c-1.1045695 0-2-.8954305-2-2s.8954305-2 2-2h6.41c-.2699128.6322676-.4093666 1.3125301-.41 2z" fill="#ffe0e2"/><path id="Shape" d="m59 43c-.0032948 1.1032019-.8967981 1.9967052-2 2h-13.41c.5466724-1.2772988.5466724-2.7227012 0-4h13.41c1.1032019.0032948 1.9967052.8967981 2 2z" fill="#ffe0e2"/><path id="Shape" d="m44 43c-.0006334.6874699-.1400872 1.3677324-.41 2-.7984446 1.8228805-2.5999228 3.0005222-4.59 3.0005222s-3.7915554-1.1776417-4.59-3.0005222c-.5466724-1.2772988-.5466724-2.7227012 0-4 .7984446-1.8228805 2.5999228-3.0005222 4.59-3.0005222s3.7915554 1.1776417 4.59 3.0005222c.2699128.6322676.4093666 1.3125301.41 2z" fill="#ffe7e8"/><path id="Shape" d="m43.59 41c-1.0229835-2.3447409-3.6508058-3.5391272-6.09-2.768 2.0870221.6501513 3.5086677 2.5820544 3.5086677 4.768s-1.4216456 4.1178487-3.5086677 4.768c2.4391942.7711272 5.0670165-.4232591 6.09-2.768.5466724-1.2772988.5466724-2.7227012 0-4z" fill="#ffc9cc"/><path id="Shape" d="m1 55c0 2.209139 1.790861 4 4 4h3c-2.209139 0-4-1.790861-4-4v-42.111c0-2.209139 1.790861-4 4-4h-3c-2.209139 0-4 1.790861-4 4z" fill="#fff"/><path id="Rectangle-path" d="m0 47h2v8h-2z" fill="#fff"/><g fill="#ff414c"><path id="Shape" d="m1 48c.55228475 0 1-.4477153 1-1v-34c0-1.6568542 1.34314575-3 3-3h5v2h-3c-1.65685425 0-3 1.3431458-3 3v38c0 1.6568542 1.34314575 3 3 3h15c.5522847 0 1-.4477153 1-1s-.4477153-1-1-1h-15c-.55228475 0-1-.4477153-1-1v-38c0-.5522847.44771525-1 1-1h3v2c.0004321.1675712.0148151.3348155.043.5.1588853.9075812.7781178 1.6673246 1.635 2.006.9211176.3721217 1.9686146.2468446 2.776-.332l.814-.592c.2873039-.209139.6766961-.209139.964 0l.61.443c.9871149.7229682 2.3288851.7229682 3.316 0l.61-.443c.2873039-.209139.6766961-.209139.964 0l.61.443c.9871149.7229682 2.3288851.7229682 3.316 0l.61-.443c.2873039-.209139.6766961-.209139.964 0l.61.443c.9871149.7229682 2.3288851.7229682 3.316 0l.61-.443c.2873039-.209139.6766961-.209139.964 0l.814.592c.8073854.5788446 1.8548824.7041217 2.776.332.857032-.3387213 1.4765564-1.0983581 1.636-2.006.027553-.1652498.0415995-.3324694.042-.5v-6h5c1.6568542 0 3 1.3431458 3 3v10c0 .5522847.4477153 1 1 1s1-.4477153 1-1v-10c-.0033061-2.7600532-2.2399468-4.99669388-5-5h-5c0-1.65685425-1.3431458-3-3-3h-4v-2c0-1.65685425-1.3431458-3-3-3h-8c-1.6568542 0-3 1.34314575-3 3v2h-4c-1.6568542 0-3 1.34314575-3 3h-5c-2.76005315.00330612-4.99669388 2.2399468-5 5v34c0 .5522847.44771525 1 1 1zm18-45c0-.55228475.4477153-1 1-1h8c.5522847 0 1 .44771525 1 1v2h-10zm-7 5c0-.55228475.4477153-1 1-1h22c.5522847 0 1 .44771525 1 1v8c-.0000231.0559588-.0047059.1118184-.014.167-.0420426.2260588-.2007318.4129087-.417.491-.2809104.113306-.6002001.0756095-.847-.1l-.814-.592c-.9876353-.7213753-2.3283647-.7213753-3.316 0l-.61.443c-.2873039.209139-.6766961.209139-.964 0l-.61-.443c-.9871149-.7229682-2.3288851-.7229682-3.316 0l-.61.443c-.2873039.209139-.6766961.209139-.964 0l-.61-.443c-.9871149-.7229682-2.3288851-.7229682-3.316 0l-.61.443c-.2873039.209139-.6766961.209139-.964 0l-.61-.443c-.9871149-.7229682-2.3288851-.7229682-3.316 0l-.814.592c-.2467999.1756095-.5660896.213306-.847.1-.2155815-.0776811-.3738773-.2637547-.416-.489-.0100411-.0557718-.0150612-.1123316-.015-.169z"/><circle id="Oval" cx="1" cy="51" r="1"/><path id="Shape" d="m5 60h21c.5522847 0 1-.4477153 1-1s-.4477153-1-1-1h-21c-1.65685425 0-3-1.3431458-3-3 0-.5522847-.44771525-1-1-1s-1 .4477153-1 1c.00330612 2.7600532 2.23994685 4.9966939 5 5z"/><path id="Shape" d="m43 27c.5522847 0 1-.4477153 1-1v-11c0-1.6568542-1.3431458-3-3-3-.5522847 0-1 .4477153-1 1s.4477153 1 1 1 1 .4477153 1 1v11c0 .5522847.4477153 1 1 1z"/><path id="Shape" d="m57 29h-2.812c-1.0682518-1.8559567-3.0465666-2.9998902-5.188-2.9998902s-4.1197482 1.1439335-5.188 2.9998902h-15.812c-1.6568542.0000001-2.9999999 1.3431458-2.9999999 3s1.3431457 2.9999999 2.9999999 3h15.812c1.0682518 1.8559567 3.0465666 2.9998902 5.188 2.9998902s4.1197482-1.1439335 5.188-2.9998902h2.812c1.6568542 0 3-1.3431458 3-3s-1.3431458-3-3-3zm-29 4c-.5522847 0-1-.4477153-1-1s.4477153-1 1-1h15.09c-.1200121.6612656-.1200121 1.3387344 0 2zm21 3c-2.209139 0-4-1.790861-4-4s1.790861-4 4-4 4 1.790861 4 4-1.790861 4-4 4zm8-3h-2.09c.1200121-.6612656.1200121-1.3387344 0-2h2.09c.5522847 0 1 .4477153 1 1s-.4477153 1-1 1z"/><path id="Shape" d="m57 51h-2.812c-1.0682518-1.8559567-3.0465666-2.9998902-5.188-2.9998902s-4.1197482 1.1439335-5.188 2.9998902h-15.812c-1.6568542 0-3 1.3431458-3 3s1.3431458 3 3 3h15.812c1.0682518 1.8559567 3.0465666 2.9998902 5.188 2.9998902s4.1197482-1.1439335 5.188-2.9998902h2.812c1.6568542 0 3-1.3431458 3-3s-1.3431458-3-3-3zm-29 4c-.5522847 0-1-.4477153-1-1s.4477153-1 1-1h15.09c-.1200121.6612656-.1200121 1.3387344 0 2zm21 3c-2.209139 0-4-1.790861-4-4s1.790861-4 4-4 4 1.790861 4 4-1.790861 4-4 4zm8-3h-2.09c.1200121-.6612656.1200121-1.3387344 0-2h2.09c.5522847 0 1 .4477153 1 1s-.4477153 1-1 1z"/><path id="Shape" d="m57 40h-12.812c-1.0682518-1.8559567-3.0465666-2.9998902-5.188-2.9998902s-4.1197482 1.1439335-5.188 2.9998902h-5.812c-1.6568542 0-3 1.3431458-3 3s1.3431458 3 3 3h5.812c1.0682518 1.8559567 3.0465666 2.9998902 5.188 2.9998902s4.1197482-1.1439335 5.188-2.9998902h12.812c1.6568542 0 3-1.3431458 3-3s-1.3431458-3-3-3zm-29 4c-.5522847 0-1-.4477153-1-1s.4477153-1 1-1h5.09c-.1200121.6612656-.1200121 1.3387344 0 2zm11 3c-2.209139 0-4-1.790861-4-4s1.790861-4 4-4 4 1.790861 4 4-1.790861 4-4 4zm18-3h-12.09c.1200121-.6612656.1200121-1.3387344 0-2h12.09c.5522847 0 1 .4477153 1 1s-.4477153 1-1 1z"/></g></g></g></svg>