<svg height="512" viewBox="0 0 60 60" width="512" xmlns="http://www.w3.org/2000/svg"><g id="Page-1" fill="none" fill-rule="evenodd"><g id="139---Printer-Settings" fill-rule="nonzero"><path id="Rectangle-path" d="m5 37h4v12h-4z" fill="#ffe0e2"/><path id="Shape" d="m55 17h-50c-2.209139 0-4 1.790861-4 4v24c0 2.209139 1.790861 4 4 4v-12h46v12h4c2.209139 0 4-1.790861 4-4v-24c0-2.209139-1.790861-4-4-4z" fill="#ffe7e8"/><path id="Shape" d="m55 17h-3c2.209139 0 4 1.790861 4 4v24c0 2.209139-1.790861 4-4 4h3c2.209139 0 4-1.790861 4-4v-24c0-2.209139-1.790861-4-4-4z" fill="#ffc9cc"/><path id="Shape" d="m49 7v10h-38v-10c0-3.3137085 2.6862915-6 6-6h26c3.3137085 0 6 2.6862915 6 6z" fill="#ffe0e2"/><path id="Shape" d="m43 1h-3c3.3137085 0 6 2.6862915 6 6v10h3v-10c0-3.3137085-2.6862915-6-6-6z" fill="#ff9ea1"/><path id="Shape" d="m51 37v16c.0731958 3.2386219-2.4914403 5.9241047-5.73 6h-30.54c-3.2385597-.0758953-5.80319584-2.7613781-5.73-6v-16z" fill="#ffe7e8"/><path id="Shape" d="m48 37v16c.0731958 3.2386219-2.4914403 5.9241047-5.73 6h3c3.2385597-.0758953 5.8031958-2.7613781 5.73-6v-16z" fill="#ffc9cc"/><path id="Shape" d="m58.316 38.772-3.773-1.258c-.326506-1.2724071-.8315176-2.4921785-1.5-3.623l1.78-3.56c.1924198-.3848395.1171045-.8496198-.187-1.154l-1.81-1.81c-.3043802-.3041045-.7691605-.3794198-1.154-.187l-3.56 1.78c-1.1306164-.6688929-2.3504478-1.1739294-3.623-1.5l-1.258-3.773c-.1353747-.4107787-.5194904-.6879714-.952-.687h-2.558c-.4306074-.0001037-.8129281.2754572-.949.684l-1.258 3.773c-1.2725522.3260706-2.4923836.8311071-3.623 1.5l-3.56-1.78c-.3848395-.1924198-.8496198-.1171045-1.154.187l-1.81 1.81c-.3041045.3043802-.3794198.7691605-.187 1.154l1.78 3.56c-.6684824 1.1308215-1.173494 2.3505929-1.5 3.623l-3.773 1.258c-.4085428.1360719-.6841037.5183926-.684.949v2.558c-.0001037.4306074.2754572.8129281.684.949l3.773 1.258c.3260706 1.2725522.8311071 2.4923836 1.5 3.623l-1.78 3.56c-.1924198.3848395-.1171045.8496198.187 1.154l1.81 1.809c.3041447.3044429.7689521.3801654 1.154.188l3.56-1.78c1.1308215.6684824 2.3505929 1.173494 3.623 1.5l1.258 3.773c.1360719.4085428.5183926.6841037.949.684h2.558c.4306074.0001037.8129281-.2754572.949-.684l1.258-3.773c1.2724071-.326506 2.4921785-.8315176 3.623-1.5l3.56 1.78c.3850479.1921654.8498553.1164429 1.154-.188l1.81-1.809c.3041045-.3043802.3794198-.7691605.187-1.154l-1.78-3.56c.6688929-1.1306164 1.1739294-2.3504478 1.5-3.623l3.773-1.258c.4086821-.1346816.685384-.5157006.687-.946v-2.558c.0001037-.4306074-.2754572-.8129281-.684-.949z" fill="#ffe7e8"/><path id="Shape" d="m40.228 23.684 1.258 3.773c1.2724796.3262886 2.4922809.8313126 3.623 1.5l1.513-.756c-.6905347-.3065881-1.4048971-.5564143-2.136-.747l-1.258-3.773c-.13711-.4073574-.5191874-.6815351-.949-.681h-2.558c-.0747364.0034372-.1488587.015176-.221.035.3395991.0738723.6157739.3200776.728.649z" fill="#ffc9cc"/><path id="Shape" d="m58.316 38.772-3.773-1.258c-.3266847-1.2723475-.8316861-2.4920943-1.5-3.623l1.78-3.56c.1924198-.3848395.1171045-.8496198-.187-1.154l-1.81-1.81c-.3043802-.3041045-.7691605-.3794198-1.154-.187l-1.355.678 1.319 1.319c.3041045.3043802.3794198.7691605.187 1.154l-1.78 3.56c.6683139 1.1309057 1.1733153 2.3506525 1.5 3.623l3.773 1.258c.4085428.1360719.6841037.5183926.684.949v2.558c.0001037.4306074-.2754572.8129281-.684.949l-3.773 1.258c-.3262886 1.2724796-.8313126 2.4922809-1.5 3.623l1.78 3.56c.1924198.3848395.1171045.8496198-.187 1.154l-1.319 1.319 1.355.678c.3850479.1921654.8498553.1164429 1.154-.188l1.81-1.809c.3041045-.3043802.3794198-.7691605.187-1.154l-1.78-3.56c.6686874-1.1307191 1.1737114-2.3505204 1.5-3.623l3.773-1.258c.4085428-.1360719.6841037-.5183926.684-.949v-2.558c.0001037-.4306074-.2754572-.8129281-.684-.949z" fill="#ffc9cc"/><path id="Shape" d="m45.109 53.04c-1.1309057.6683139-2.3506525 1.1733153-3.623 1.5l-1.258 3.773c-.1122261.3289224-.3884009.5751277-.728.649.0721413.019824.1462636.0315628.221.035h2.558c.4306074.0001037.8129281-.2754572.949-.684l1.258-3.773c.7311029-.1905857 1.4454653-.4404119 2.136-.747z" fill="#ffc9cc"/><circle id="Oval" cx="41" cy="41" fill="#ffc9cc" r="10"/><circle id="Oval" cx="41" cy="41" fill="#ffe7e8" r="3"/><path id="Shape" d="m8 17h-3c-2.209139 0-4 1.790861-4 4v24c0 2.209139 1.790861 4 4 4h3c-2.209139 0-4-1.790861-4-4v-24c0-2.209139 1.790861-4 4-4z" fill="#fff"/><path id="Shape" d="m11 7v10h3v-10c0-3.3137085 2.6862915-6 6-6h-3c-3.3137085 0-6 2.6862915-6 6z" fill="#fff"/><path id="Rectangle-path" d="m0 37h2v8h-2z" fill="#fff"/><g fill="#ff414c"><circle id="Oval" cx="1" cy="41" r="1"/><path id="Shape" d="m55 16h-5v-9c-.0049584-3.86393756-3.1360624-6.99504164-7-7h-26c-3.8639376.00495836-6.9950416 3.13606244-7 7v9h-5c-2.76005315.0033061-4.99669388 2.2399468-5 5v16c0 .5522847.44771525 1 1 1s1-.4477153 1-1v-16c0-1.6568542 1.34314575-3 3-3h50c1.6568542 0 3 1.3431458 3 3v16.613l-2.636-.879c-.2959783-.9961696-.6951416-1.9587195-1.191-2.872l1.542-3.084c.3845851-.7698874.2335473-1.6994751-.375-2.308l-1.811-1.811c-.6085869-.6077491-1.5375782-.7583528-2.307-.374l-3.084 1.542c-.9132805-.4958584-1.8758304-.8950217-2.872-1.191l-1.089-3.268c-.2721439-.8170855-1.0367852-1.3682074-1.898-1.368h-2.558c-.8616854-.0012125-1.6272771.5496106-1.9 1.367l-1.09 3.269c-.9961696.2959783-1.9587195.6951416-2.872 1.191l-3.084-1.542c-.7698874-.3845851-1.6994751-.2335473-2.308.375l-1.81 1.81c-.6085473.6085249-.7595851 1.5381126-.375 2.308l.118.222h-11.4c-.5522847 0-1 .4477153-1 1s.4477153 1 1 1h12.4l.431.862c-.4958584.9132805-.8950217 1.8758304-1.191 2.872l-3.268 1.089c-.8186663.2707551-1.3716352 1.0357224-1.372 1.898v2.558c-.0012125.8616854.5496106 1.6272771 1.367 1.9l3.269 1.09c.2959783.9961696.6951416 1.9587195 1.191 2.872l-1.542 3.084c-.3845851.7698874-.2335473 1.6994751.375 2.308l1.811 1.811c.6088222.6074108 1.5377865.7576075 2.307.373l3.084-1.541c.9132805.4958584 1.8758304.8950217 2.872 1.191l.879 2.633h-22.883c-2.6846435-.0795216-4.79947975-2.3150778-4.73-5v-11c0-.5522847-.44771525-1-1-1s-1 .4477153-1 1v6h-2v-10h14c.5522847 0 1-.4477153 1-1s-.4477153-1-1-1h-14c0-.5522847-.44771525-1-1-1s-1 .4477153-1 1v11.816c-1.19435087-.4222546-1.99474861-1.5492146-2-2.816 0-.5522847-.44771525-1-1-1s-1 .4477153-1 1c.00330612 2.7600532 2.23994685 4.9966939 5 5h3v3c-.06808151 3.7888968 2.9413559 6.9190694 6.73 7h27.554c.8584756-.0020831 1.619865-.5517966 1.892-1.366l1.09-3.269c.9961696-.2959783 1.9587195-.6951416 2.872-1.191l3.082 1.54c.7699844.3860688 1.7006575.2357913 2.31-.373l1.811-1.811c.6077491-.6085869.7583528-1.5375782.374-2.307l-1.542-3.084c.4958584-.9132805.8950217-1.8758304 1.191-2.872l3.268-1.089c.81569-.2716776 1.3664871-1.0342578 1.368-1.894v-21.284c-.0033061-2.7600532-2.2399468-4.9966939-5-5zm-43 0v-9c.0033061-2.76005315 2.2399468-4.99669388 5-5h26c2.7600532.00330612 4.9966939 2.23994685 5 5v9zm42.227 27.537c-.3224664.1072234-.5684115.3708706-.653.7-.3033583 1.1812596-.7726974 2.3135318-1.394 3.363-.1732633.2924838-.1860701.6529579-.034.957l1.78 3.56-1.81 1.809-3.56-1.779c-.3040421-.1520701-.6645162-.1392633-.957.034-1.0494682.6213026-2.1817404 1.0906417-3.363 1.394-.3291294.0845885-.5927766.3305336-.7.653l-1.257 3.772h-2.558l-1.258-3.773c-.1072234-.3224664-.3708706-.5684115-.7-.653-1.1812596-.3033583-2.3135318-.7726974-3.363-1.394-.2924838-.1732633-.6529579-.1860701-.957-.034l-3.56 1.78-1.81-1.81 1.78-3.56c.1520701-.3040421.1392633-.6645162-.034-.957-.6213026-1.0494682-1.0906417-2.1817404-1.394-3.363-.0845885-.3291294-.3305336-.5927766-.653-.7l-3.772-1.257v-2.558l3.773-1.258c.3224664-.1072234.5684115-.3708706.653-.7.3033583-1.1812596.7726974-2.3135318 1.394-3.363.1732633-.2924838.1860701-.6529579.034-.957l-.911-1.822c0-.011-.01-.02-.015-.031l-.854-1.707 1.81-1.81 3.56 1.78c.3040421.1520701.6645162.1392633.957-.034 1.0494682-.6213026 2.1817404-1.0906417 3.363-1.394.3291294-.0845885.5927766-.3305336.7-.653l1.257-3.772h2.558l1.258 3.773c.1072234.3224664.3708706.5684115.7.653 1.1812596.3033583 2.3135318.7726974 3.363 1.394.2924838.1732633.6529579.1860701.957.034l3.56-1.78 1.81 1.81-1.78 3.56c-.1520701.3040421-.1392633.6645162.034.957.6213026 1.0494682 1.0906417 2.1817404 1.394 3.363.0845885.3291294.3305336.5927766.653.7l3.772 1.257v2.558z"/><path id="Shape" d="m7 21h-1c-.55228475 0-1 .4477153-1 1s.44771525 1 1 1h1c.55228475 0 1-.4477153 1-1s-.44771525-1-1-1z"/><path id="Shape" d="m12 23c.5522847 0 1-.4477153 1-1s-.4477153-1-1-1h-1c-.5522847 0-1 .4477153-1 1s.4477153 1 1 1z"/><path id="Shape" d="m4 31v1c0 .5522847.44771525 1 1 1s1-.4477153 1-1v-1c0-.5522847-.44771525-1-1-1s-1 .4477153-1 1z"/><path id="Shape" d="m8 32c0 .5522847.44771525 1 1 1h2c.5522847 0 1-.4477153 1-1s-.4477153-1-1-1h-2c-.55228475 0-1 .4477153-1 1z"/><path id="Shape" d="m18 45h2c.5522847 0 1-.4477153 1-1s-.4477153-1-1-1h-2c-.5522847 0-1 .4477153-1 1s.4477153 1 1 1z"/><path id="Shape" d="m25 48c0-.5522847-.4477153-1-1-1h-6c-.5522847 0-1 .4477153-1 1s.4477153 1 1 1h6c.5522847 0 1-.4477153 1-1z"/><path id="Shape" d="m18 51c-.5522847 0-1 .4477153-1 1s.4477153 1 1 1h5c.5522847 0 1-.4477153 1-1s-.4477153-1-1-1z"/><path id="Shape" d="m18 4h-2c-.5522847 0-1 .44771525-1 1s.4477153 1 1 1h2c.5522847 0 1-.44771525 1-1s-.4477153-1-1-1z"/><path id="Shape" d="m41 4h-19c-.5522847 0-1 .44771525-1 1s.4477153 1 1 1h19c.5522847 0 1-.44771525 1-1s-.4477153-1-1-1z"/><path id="Shape" d="m41 30c-6.0751322 0-11 4.9248678-11 11s4.9248678 11 11 11 11-4.9248678 11-11c-.0071635-6.0721626-4.9278374-10.9928365-11-11zm0 20c-4.9705627 0-9-4.0294373-9-9s4.0294373-9 9-9 9 4.0294373 9 9c-.0055111 4.9682782-4.0317218 8.9944889-9 9z"/><path id="Shape" d="m41 37c-2.209139 0-4 1.790861-4 4s1.790861 4 4 4 4-1.790861 4-4-1.790861-4-4-4zm0 6c-1.1045695 0-2-.8954305-2-2s.8954305-2 2-2 2 .8954305 2 2-.8954305 2-2 2z"/></g></g></g></svg>