<svg height="512" viewBox="0 0 60 60" width="512" xmlns="http://www.w3.org/2000/svg"><g id="Page-1" fill="none" fill-rule="evenodd"><g id="140---Dial" fill-rule="nonzero"><circle id="Oval" cx="30" cy="30" fill="#ffe0e2" r="29"/><path id="Shape" d="m30 1c-.5033333 0-1.0033333.01266667-1.5.038 15.4192225.79012792 27.5158989 13.5225465 27.5158989 28.962s-12.0966764 28.1718721-27.5158989 28.962c.4973333.0253333.9973333.038 1.5.038 16.0162576-.0000002 28.9999996-12.9837424 28.9999996-29s-12.983742-28.99999976-28.9999996-29z" fill="#ff9ea1"/><circle id="Oval" cx="30" cy="30" fill="#ffe7e8" r="25"/><path id="Shape" d="m30 5c-.5 0-1 .019-1.5.049 13.1671239.83401357 23.4196519 11.7564891 23.4196519 24.95s-10.252528 24.1159864-23.4196519 24.95c.5.03 1 .049 1.5.049 13.7193264-.1227131 24.7763954-11.2791248 24.7763954-24.999s-11.057069-24.87628693-24.7763954-24.999z" fill="#ffc9cc"/><path id="Shape" d="m37 44c-.0005294 3.3910962-2.4316575 6.294126-5.7699916 6.8899941s-6.6236766-1.2868139-7.7973672-4.4683204c-1.1736906-3.1815066.1018567-6.7467479 3.0273588-8.4616737 2.1864479-1.2799735 4.8935521-1.2799735 7.08 0 2.1435735 1.2565601 3.4603879 3.5552766 3.46 6.04z" fill="#ffe7e8"/><path id="Shape" d="m33.54 37.96c-1.0722084-.6324978-2.2951437-.9641413-3.54-.96-.504827.0044043-1.0077171.0630748-1.5.175.7175852.1509533 1.4063263.4159836 2.04.785 2.484743 1.4574483 3.8229378 4.2882686 3.3721334 7.1334186-.4508043 2.84515-2.5985512 5.1236347-5.4121334 5.7415814 3.3620982.7357539 6.7602521-1.0816628 8.0148139-4.2865204 1.2545617-3.2048577-.0067122-6.8462368-2.9748139-8.5884796z" fill="#ffc9cc"/><path id="Shape" d="m26.46 37.96 2.54-22.05c0-.5522847.4477153-1 1-1s1 .4477153 1 1l2.54 22.05" fill="#ffe7e8"/><path id="Shape" d="m30 59c.486 0 .966-.019 1.444-.042-15.3318609-.8576992-27.33739543-13.5183156-27.38009456-28.8740892s11.89224066-28.08296029 27.21909456-29.0259108c-.427-.022-.851-.058-1.283-.058-16.0162576.00000024-28.99999957 12.9837424-28.99999957 29s12.98374197 28.9999998 28.99999957 29z" fill="#fff"/><path id="Shape" d="m3.079 37.624-1.925.544-.514-2c-.129-.681-.216-1.368-.325-2.047l-.155-1.021-.06-1.034-.1-2.066h2l.1 1.929.05.965.147.954c.1.635.182 1.275.3 1.907z" fill="#fff"/><g fill="#ff414c"><path id="Shape" d="m1.324 34.989c-.55228473.0027614-1.00223852-.4427153-1.00499994-.995-.00276143-.5522847.44271521-1.0022385.99499994-1.005h.01c.55228475 0 1 .4477153 1 1s-.44771525 1-1 1z"/><path id="Shape" d="m30 0c-16.5607751.01873704-29.98126296 13.4392249-30 30 0 .5522847.44771525 1 1 1s1-.4477153 1-1c-.03703445-13.0419552 8.9105865-24.39266116 21.6006558-27.40199811s25.7817291 3.11494978 31.6048746 14.78478031c5.8231455 11.6698305 2.8447432 25.8129406-7.1902289 34.1432048-10.0349722 8.3302642-24.4846519 8.654611-34.8833015.783013-2.4153064-1.8222826-4.52302272-4.0198039-6.243-6.509-1.68838228-2.5090098-2.97391975-5.2666733-3.81-8.173-.15022145-.5315741-.70292593-.8407215-1.2345-.6905s-.84072145.7029259-.6905 1.2345c.89592027 3.115382 2.27429228 6.0712055 4.085 8.76 1.84267172 2.6644377 4.09948786 5.0171306 6.685 6.969 10.4185939 7.8832729 24.7421321 8.1137639 35.4089777.5697931s15.2217202-21.1259437 11.2600289-33.5757668c-3.9616913-12.44982296-15.5280523-20.9018146-28.5930066-20.8940263z"/><path id="Shape" d="m17.519 7.2c-1.0795553.59400291-2.1155016 1.26402623-3.1 2.005-.3443443.25825824-.4847973.70788563-.3486833 1.1162278.136114.4083421.5182529.6837722.9486833.6837722.2165235.0009513.427352-.0693248.6-.2.9089357-.6852314 1.8653361-1.30512062 2.862-1.855.3338784-.16033407.5517921-.49207787.5663385-.86217272.0145463-.37009485-.1766575-.71791875-.4969217-.90396346-.3202642-.18604472-.7171291-.17983589-1.0314168.01613618z"/><path id="Shape" d="m10.24 13.119c-8.33944219 9.7963428-8.23204983 24.2268112.2522705 33.8979506 8.4843202 9.6711394 22.7780037 11.6562244 33.5766355 4.663072s14.8342793-20.8482417 9.4799544-32.546354c-5.354325-11.69811235-18.4782716-17.69911025-30.8288604-14.0966686-.342975.10003436-.6065292.37544489-.6913844.72248711s.0218802.71299216.28.96000001c.2581198.24700786.6284094.33754725.9713844.23751288 11.4625807-3.36489717 23.6578827 2.19179671 28.6400042 13.0495937 4.9821215 10.857797 1.2414589 23.7267395-8.7847428 30.2220124-10.0262017 6.4952728-23.2999618 4.6487814-31.1727044-4.3363849-7.8727427-8.9851663-7.9589942-22.3864646-.202557-31.4722212.3589851-.4197364.3097364-1.0510149-.11-1.41s-1.0510149-.3097364-1.41.11z"/><path id="Shape" d="m31 11v-2c0-.55228475-.4477153-1-1-1s-1 .44771525-1 1v2c0 .5522847.4477153 1 1 1s1-.4477153 1-1z"/><path id="Shape" d="m18.634 12.313 1 1.733c.2780058.4742136.886647.6351286 1.3626943.3602745.4760473-.274854.640996-.8824145.3693057-1.3602745l-1-1.733c-.2780058-.4742136-.886647-.6351286-1.3626943-.3602745-.4760473.274854-.640996.8824145-.3693057 1.3602745z"/><path id="Shape" d="m10.947 19c-.2761293.4782803-.1122682 1.0898496.366 1.366l1.733 1c.47786.2716903 1.0854205.1067416 1.3602745-.3693057.2748541-.4760473.1139391-1.0846885-.3602745-1.3626943l-1.733-1c-.4782803-.2761293-1.0898496-.1122682-1.366.366z"/><path id="Shape" d="m46.455 21.5c.1755887.0003718.3481299-.0458692.5-.134l1.733-1c.4742136-.2780058.6351286-.886647.3602745-1.3626943-.274854-.4760473-.8824145-.640996-1.3602745-.3693057l-1.733 1c-.3919413.2263139-.5830208.6876562-.4658809 1.1248223.1171398.4371661.5132928.7411578.9658809.7411777z"/><path id="Shape" d="m39.5 14.546c.3576137.0003484.6881932-.1902972.867-.5l1-1.733c.1814844-.3095704.1831833-.6926495.0044519-1.0038174-.1787315-.311168-.5104885-.5027136-.8693336-.5019247s-.6897567.1937913-.8671183.5057421l-1 1.733c-.1785415.3092425-.1786393.6902222-.0002566.9995563s.5081742.5000777.8652566.5004437z"/><path id="Shape" d="m30 40c-2.209139 0-4 1.790861-4 4 0 .5522847.4477153 1 1 1s1-.4477153 1-1c0-1.1045695.8954305-2 2-2s2 .8954305 2 2c0 .5522847.4477153 1 1 1s1-.4477153 1-1c0-2.209139-1.790861-4-4-4z"/><path id="Shape" d="m28.007 15.8-2.486 21.575c-2.9133786 1.9685891-4.1998732 5.6086768-3.1704749 8.9707382 1.0293983 3.3620615 4.1333523 5.6578785 7.6494749 5.6578785s6.6200766-2.295817 7.6494749-5.6578785c1.0293983-3.3620614-.2570963-7.0021491-3.1704749-8.9707382l-2.479-21.556c-.0713551-1.0448058-.9365983-1.8576559-1.9838205-1.863694-1.0472222-.0060382-1.9217812.7967805-2.0051795 1.840694zm7.993 28.2c0 3.3137085-2.6862915 6-6 6s-6-2.6862915-6-6 2.6862915-6 6-6c3.3123376.0033074 5.9966926 2.6876624 6 6zm-5.993-27.976 2.342 20.329c-1.5312264-.4712669-3.1687736-.4712669-4.7 0z"/></g></g></g></svg>