<svg height="512" viewBox="0 0 60 60" width="512" xmlns="http://www.w3.org/2000/svg"><g id="Page-1" fill="none" fill-rule="evenodd"><g id="141---Calendar" fill-rule="nonzero"><path id="Shape" d="m59 13v6h-58v-6c0-3.3137085 2.6862915-6 6-6h46c3.3137085 0 6 2.6862915 6 6z" fill="#ffe0e2"/><path id="Shape" d="m53 7h-3c3.3137085 0 6 2.6862915 6 6v6h3v-6c0-3.3137085-2.6862915-6-6-6z" fill="#ff9ea1"/><path id="Shape" d="m59 19v34c0 3.3137085-2.6862915 6-6 6h-46c-3.3137085 0-6-2.6862915-6-6v-34z" fill="#ffe7e8"/><path id="Shape" d="m56 19v34c0 3.3137085-2.6862915 6-6 6h3c3.3137085 0 6-2.6862915 6-6v-34z" fill="#ffc9cc"/><path id="Shape" d="m12 35h-3c-1.1045695 0-2-.8954305-2-2v-4c0-1.1045695.8954305-2 2-2h8c1.1045695 0 2 .8954305 2 2v4c0 1.1045695-.8954305 2-2 2" fill="#ffc9cc"/><path id="Shape" d="m46 35h-3c-1.1045695 0-2-.8954305-2-2v-4c0-1.1045695.8954305-2 2-2h8c1.1045695 0 2 .8954305 2 2v4c0 1.1045695-.8954305 2-2 2" fill="#ffc9cc"/><path id="Shape" d="m29 35h-3c-1.1045695 0-2-.8954305-2-2v-4c0-1.1045695.8954305-2 2-2h8c1.1045695 0 2 .8954305 2 2v4c0 1.1045695-.8954305 2-2 2" fill="#ffc9cc"/><path id="Shape" d="m12 49h-3c-1.1045695 0-2-.8954305-2-2v-4c0-1.1045695.8954305-2 2-2h8c1.1045695 0 2 .8954305 2 2v4c0 1.1045695-.8954305 2-2 2" fill="#ffc9cc"/><path id="Shape" d="m46 49h-3c-1.1045695 0-2-.8954305-2-2v-4c0-1.1045695.8954305-2 2-2h8c1.1045695 0 2 .8954305 2 2v4c0 1.1045695-.8954305 2-2 2" fill="#ffc9cc"/><path id="Shape" d="m29 49h-3c-1.1045695 0-2-.8954305-2-2v-4c0-1.1045695.8954305-2 2-2h8c1.1045695 0 2 .8954305 2 2v4c0 1.1045695-.8954305 2-2 2" fill="#ffc9cc"/><path id="Shape" d="m4 53v-40c0-3.3137085 2.6862915-6 6-6h-3c-3.3137085 0-6 2.6862915-6 6v40c0 3.3137085 2.6862915 6 6 6h3c-3.3137085 0-6-2.6862915-6-6z" fill="#fff"/><path id="Rectangle-path" d="m0 45h2v8h-2z" fill="#fff"/><g fill="#ff414c"><circle id="Oval" cx="1" cy="49" r="1"/><path id="Shape" d="m53 6h-3v-5c0-.55228475-.4477153-1-1-1s-1 .44771525-1 1v5h-36v-5c0-.55228475-.4477153-1-1-1s-1 .44771525-1 1v5h-3c-3.86416566.00440864-6.99559136 3.13583434-7 7v32c0 .5522847.44771525 1 1 1s1-.4477153 1-1v-25h2c.55228475 0 1-.4477153 1-1s-.44771525-1-1-1h-2v-5c.00330612-2.7600532 2.23994685-4.99669388 5-5h3c0 .55228475.4477153 1 1 1s1-.44771525 1-1h36c0 .55228475.4477153 1 1 1s1-.44771525 1-1h3c2.7600532.00330612 4.9966939 2.2399468 5 5v5h-49c-.55228475 0-1 .4477153-1 1s.44771525 1 1 1h49v33c-.0033061 2.7600532-2.2399468 4.9966939-5 5h-46c-2.76005315-.0033061-4.99669388-2.2399468-5-5 0-.5522847-.44771525-1-1-1s-1 .4477153-1 1c.00440864 3.8641657 3.13583434 6.9955914 7 7h46c3.8641657-.0044086 6.9955914-3.1358343 7-7v-40c-.0044086-3.86416566-3.1358343-6.99559136-7-7z"/><path id="Shape" d="m12 13v-1c0-.5522847-.4477153-1-1-1s-1 .4477153-1 1v1c0 .5522847.4477153 1 1 1s1-.4477153 1-1z"/><path id="Shape" d="m50 13v-1c0-.5522847-.4477153-1-1-1s-1 .4477153-1 1v1c0 .5522847.4477153 1 1 1s1-.4477153 1-1z"/><path id="Shape" d="m38 55c0 .5522847.4477153 1 1 1h7c.5522847 0 1-.4477153 1-1s-.4477153-1-1-1h-7c-.5522847 0-1 .4477153-1 1z"/><path id="Shape" d="m50 54c-.5522847 0-1 .4477153-1 1s.4477153 1 1 1h2c.5522847 0 1-.4477153 1-1s-.4477153-1-1-1z"/><path id="Shape" d="m17 34c-.5522847 0-1 .4477153-1 1s.4477153 1 1 1c1.6568542 0 3-1.3431458 3-3v-4c0-1.6568542-1.3431458-3-3-3h-8c-1.65685425 0-3 1.3431458-3 3v4c0 1.6568542 1.34314575 3 3 3h3c.5522847 0 1-.4477153 1-1s-.4477153-1-1-1h-3c-.55228475 0-1-.4477153-1-1v-4c0-.5522847.44771525-1 1-1h8c.5522847 0 1 .4477153 1 1v4c0 .5522847-.4477153 1-1 1z"/><path id="Shape" d="m51 34c-.5522847 0-1 .4477153-1 1s.4477153 1 1 1c1.6568542 0 3-1.3431458 3-3v-4c0-1.6568542-1.3431458-3-3-3h-8c-1.6568542 0-3 1.3431458-3 3v4c0 1.6568542 1.3431458 3 3 3h3c.5522847 0 1-.4477153 1-1s-.4477153-1-1-1h-3c-.5522847 0-1-.4477153-1-1v-4c0-.5522847.4477153-1 1-1h8c.5522847 0 1 .4477153 1 1v4c0 .5522847-.4477153 1-1 1z"/><path id="Shape" d="m34 34c-.5522847 0-1 .4477153-1 1s.4477153 1 1 1c1.6568542 0 3-1.3431458 3-3v-4c0-1.6568542-1.3431458-3-3-3h-8c-1.6568542 0-3 1.3431458-3 3v4c0 1.6568542 1.3431458 3 3 3h3c.5522847 0 1-.4477153 1-1s-.4477153-1-1-1h-3c-.5522847 0-1-.4477153-1-1v-4c0-.5522847.4477153-1 1-1h8c.5522847 0 1 .4477153 1 1v4c0 .5522847-.4477153 1-1 1z"/><path id="Shape" d="m6 47c0 1.6568542 1.34314575 3 3 3h3c.5522847 0 1-.4477153 1-1s-.4477153-1-1-1h-3c-.55228475 0-1-.4477153-1-1v-4c0-.5522847.44771525-1 1-1h8c.5522847 0 1 .4477153 1 1v4c0 .5522847-.4477153 1-1 1s-1 .4477153-1 1 .4477153 1 1 1c1.6568542 0 3-1.3431458 3-3v-4c0-1.6568542-1.3431458-3-3-3h-8c-1.65685425 0-3 1.3431458-3 3z"/><path id="Shape" d="m40 47c0 1.6568542 1.3431458 3 3 3h3c.5522847 0 1-.4477153 1-1s-.4477153-1-1-1h-3c-.5522847 0-1-.4477153-1-1v-4c0-.5522847.4477153-1 1-1h8c.5522847 0 1 .4477153 1 1v4c0 .5522847-.4477153 1-1 1s-1 .4477153-1 1 .4477153 1 1 1c1.6568542 0 3-1.3431458 3-3v-4c0-1.6568542-1.3431458-3-3-3h-8c-1.6568542 0-3 1.3431458-3 3z"/><path id="Shape" d="m23 47c0 1.6568542 1.3431458 3 3 3h3c.5522847 0 1-.4477153 1-1s-.4477153-1-1-1h-3c-.5522847 0-1-.4477153-1-1v-4c0-.5522847.4477153-1 1-1h8c.5522847 0 1 .4477153 1 1v4c0 .5522847-.4477153 1-1 1s-1 .4477153-1 1 .4477153 1 1 1c1.6568542 0 3-1.3431458 3-3v-4c0-1.6568542-1.3431458-3-3-3h-8c-1.6568542 0-3 1.3431458-3 3z"/></g></g></g></svg>