<svg height="512" viewBox="0 0 60 56" width="512" xmlns="http://www.w3.org/2000/svg"><g id="Page-1" fill="none" fill-rule="evenodd"><g id="142---Controller" fill-rule="nonzero"><path id="Shape" d="m59 42c-.0021305 5.0379707-2.9148926 9.6211211-7.4752821 11.762149-4.5603896 2.141028-9.947225 1.4544023-13.8247179-1.762149h-15.4c-4.412684 3.6654491-10.7062879 4.0053152-15.48804096.8363824-4.78175304-3.1689328-6.92118844-9.0974887-5.26497433-14.5896879s6.7165278-9.2496165 12.45301529-9.2466945h32c3.4478144 0 6.7544152 1.3696389 9.1923882 3.8076118 2.4379729 2.437973 3.8076118 5.7445738 3.8076118 9.1923882z" fill="#ffe7e8"/><path id="Shape" d="m46 29-3-.0002342c6.8637166.0301872 12.5215362 5.3909908 12.921211 12.2431264s-4.5965221 12.8343722-11.410211 13.6621078c4.8060406.5835041 9.5381902-1.5519979 12.2803937-5.5418379 2.7422036-3.9898399 3.0401261-9.1729713.7731382-13.4507358-2.2669878-4.2777645-6.7232859-6.9414116-11.5645319-6.9124263z" fill="#ffc9cc"/><circle id="Oval" cx="14" cy="42" fill="#ffe0e2" r="9"/><circle id="Oval" cx="46" cy="36" fill="#ffe7e8" r="2"/><circle id="Oval" cx="46" cy="48" fill="#ffe7e8" r="2"/><circle id="Oval" cx="52" cy="42" fill="#ffe7e8" r="2"/><circle id="Oval" cx="40" cy="42" fill="#ffe7e8" r="2"/><path id="Shape" d="m34 26v3h-8v-3c.0032948-1.1032019.8967981-1.9967052 2-2h4c1.1032019.0032948 1.9967052.8967981 2 2z" fill="#ffe7e8"/><path id="Shape" d="m41 3v7c0 3.3137085-2.6862915 6-6 6h-1c-1.1032019.0032948-1.9967052.8967981-2 2v6h-4v-6c0-3.3137085 2.6862915-6 6-6h1c1.1032019-.0032948 1.9967052-.8967981 2-2v-7c.0032948-1.10320187.8967981-1.9967052 2-2 1.1011688.00816722 1.9918328.89883122 2 2z" fill="#ffe0e2"/><path id="Shape" d="m18 40h-2v-2c0-.5522847-.4477153-1-1-1h-2c-.5522847 0-1 .4477153-1 1v2h-2c-.55228475 0-1 .4477153-1 1v2c0 .5522847.44771525 1 1 1h2v2c0 .5522847.4477153 1 1 1h2c.5522847 0 1-.4477153 1-1v-2h2c.5522847 0 1-.4477153 1-1v-2c0-.5522847-.4477153-1-1-1z" fill="#ffe7e8"/><path id="Shape" d="m29 26c.0032948-1.1032019.8967981-1.9967052 2-2v-6c0-3.3137085 2.6862915-6 6-6h1c1.1032019-.0032948 1.9967052-.8967981 2-2v-7c-.001538-.48057051.1768266-.94431852.5-1.3-.032-.036-.059-.077-.094-.111-.5723252-.56576005-1.4279986-.73337892-2.1714864-.42537502-.7434878.30800391-1.2299474 1.03162681-1.2345136 1.83637502v7c-.0032948 1.1032019-.8967981 1.9967052-2 2h-1c-3.3137085 0-6 2.6862915-6 6v6c-1.1032019.0032948-1.9967052.8967981-2 2v3h3z" fill="#fff"/><path id="Shape" d="m4 42c0-7.1797017 5.82029825-13 13-13h-3c-4.82454047.0143286-9.24436265 2.6993197-11.48059017 6.9743264s-1.92103371 9.4368531.81872318 13.4080152 7.45342699 6.0984419 12.24386699 5.5256584c-6.60294586-.6893038-11.60966296-6.2692299-11.582-12.908z" fill="#fff"/><path id="Shape" d="m2.578 33.922 1.632 1.156c-.70765984 1.0085602-1.26232312 2.1162019-1.646 3.287-.35490732 1.1798196-.5447103 2.4031066-.564 3.635h-2c.01938636-1.437527.24088981-2.8651807.658-4.241.44608661-1.3671751 1.09317586-2.6603425 1.92-3.837z" fill="#fff"/><g fill="#ff414c"><path id="Shape" d="m1.635 39.053c-.55228473.0027614-1.00223852-.4427153-1.00499994-.995-.00276143-.5522847.44271521-1.0022385.99499994-1.005h.01c.55228475 0 1 .4477153 1 1s-.44771525 1-1 1z"/><path id="Shape" d="m46 28h-11v-2c-.0052514-1.2667854-.8056491-2.3937454-2-2.816v-5.184c0-.5522847.4477153-1 1-1h1c3.8641657-.0044086 6.9955914-3.1358343 7-7v-7c0-1.65685425-1.3431458-3-3-3s-3 1.34314575-3 3v7c0 .5522847-.4477153 1-1 1h-1c-3.8641657.0044086-6.9955914 3.1358343-7 7v5.184c-1.1943509.4222546-1.9947486 1.5492146-2 2.816v2h-11c-2.2378775.0137344-4.44129369.5525147-6.433 1.573-1.98556601 1.0317374-3.69601248 2.522764-4.989 4.349-.16531101.2197045-.22995098.4990938-.17793543.7690793.05201556.2699855.21583033.5053606.45093543.6479207.45320997.2726582 1.03903764.1601483 1.359-.261 1.10841118-1.5661976 2.57517419-2.8447294 4.278-3.729 1.7070723-.8731457 3.5946356-1.3351056 5.512-1.349h32c5.2950558-.0015789 9.9652781 3.4675818 11.4931603 8.5374136 1.5278822 5.0698319-.4477629 10.5418405-4.861954 13.4663124s-10.2234254 2.6100699-14.2962063-.773726c-.1785892-.1479863-.4030656-.2292927-.635-.23h-15.4c-.2333088-.0002229-.4593523.0811386-.639.23-3.5791309 2.9686949-8.5511866 3.6023586-12.76050634 1.6262627-4.20931971-1.9760959-6.89805622-6.2061744-6.90049366-10.8562627 0-.5522847-.44771525-1-1-1s-1 .4477153-1 1c.00098061 5.3607694 3.06305632 10.2502981 7.88551606 12.5916079 4.82245974 2.3413099 10.55847014 1.7232623 14.77148394-1.5916079h14.686c4.8180546 3.7932339 11.5439306 4.0095526 16.5957729.5337559 5.0518422-3.4757967 7.2538013-9.8346943 5.4332271-15.6902714-1.8205741-5.855577-7.2399309-9.8449096-13.372-9.8434845zm-17-10c.0033061-2.7600532 2.2399468-4.9966939 5-5h1c1.6568542 0 3-1.3431458 3-3v-7c0-.55228475.4477153-1 1-1s1 .44771525 1 1v7c-.0033061 2.7600532-2.2399468 4.9966939-5 5h-1c-1.6568542 0-3 1.3431458-3 3v5h-2zm-2 10v-2c0-.5522847.4477153-1 1-1h4c.5522847 0 1 .4477153 1 1v2z"/><path id="Shape" d="m14 32c-5.5228475 0-10 4.4771525-10 10s4.4771525 10 10 10 10-4.4771525 10-10c-.0060624-5.5203344-4.4796656-9.9939376-10-10zm0 18c-4.418278 0-8-3.581722-8-8s3.581722-8 8-8 8 3.581722 8 8c-.0049599 4.4162219-3.5837781 7.9950401-8 8z"/><path id="Shape" d="m18 39h-1v-1c0-1.1045695-.8954305-2-2-2h-2c-1.1045695 0-2 .8954305-2 2v1h-1c-1.1045695 0-2 .8954305-2 2v2c0 1.1045695.8954305 2 2 2h1v1c0 1.1045695.8954305 2 2 2h2c1.1045695 0 2-.8954305 2-2v-1h1c1.1045695 0 2-.8954305 2-2v-2c0-1.1045695-.8954305-2-2-2zm0 4h-2c-.5522847 0-1 .4477153-1 1v2h-2v-2c0-.5522847-.4477153-1-1-1h-2v-2h2c.5522847 0 1-.4477153 1-1v-2h2v2c0 .5522847.4477153 1 1 1h2z"/><path id="Shape" d="m25.293 42.707c.3904999.3903819 1.0235001.3903819 1.414 0l2-2c.3789722-.3923789.3735524-1.0160848-.0121814-1.4018186s-1.0094397-.3911536-1.4018186-.0121814l-2 2c-.3903819.3904999-.3903819 1.0235001 0 1.414z"/><path id="Shape" d="m33.293 39.293-2 2c-.2599566.2510745-.3642126.6228779-.2726972.9725073.0915155.3496295.3645604.6226744.7141899.7141899.3496294.0915154.7214328-.0127406.9725073-.2726972l2-2c.3789722-.3923789.3735524-1.0160848-.0121814-1.4018186s-1.0094397-.3911536-1.4018186-.0121814z"/><path id="Shape" d="m46 33c-1.6568542 0-3 1.3431458-3 3s1.3431458 3 3 3 3-1.3431458 3-3-1.3431458-3-3-3zm0 4c-.5522847 0-1-.4477153-1-1s.4477153-1 1-1 1 .4477153 1 1-.4477153 1-1 1z"/><path id="Shape" d="m46 51c1.6568542 0 3-1.3431458 3-3s-1.3431458-3-3-3-3 1.3431458-3 3 1.3431458 3 3 3zm0-4c.5522847 0 1 .4477153 1 1s-.4477153 1-1 1-1-.4477153-1-1 .4477153-1 1-1z"/><path id="Shape" d="m52 45c1.6568542 0 3-1.3431458 3-3s-1.3431458-3-3-3-3 1.3431458-3 3 1.3431458 3 3 3zm0-4c.5522847 0 1 .4477153 1 1s-.4477153 1-1 1-1-.4477153-1-1 .4477153-1 1-1z"/><path id="Shape" d="m40 39c-1.6568542 0-3 1.3431458-3 3s1.3431458 3 3 3 3-1.3431458 3-3-1.3431458-3-3-3zm0 4c-.5522847 0-1-.4477153-1-1s.4477153-1 1-1 1 .4477153 1 1-.4477153 1-1 1z"/><path id="Shape" d="m26 32h-2c-.5522847 0-1 .4477153-1 1s.4477153 1 1 1h2c.5522847 0 1-.4477153 1-1s-.4477153-1-1-1z"/><path id="Shape" d="m36 32h-6c-.5522847 0-1 .4477153-1 1s.4477153 1 1 1h6c.5522847 0 1-.4477153 1-1s-.4477153-1-1-1z"/></g></g></g></svg>