<svg height="512" viewBox="0 0 60 58" width="512" xmlns="http://www.w3.org/2000/svg"><g id="Page-1" fill="none" fill-rule="evenodd"><g id="143---Wireless-Controller" fill-rule="nonzero"><path id="Shape" d="m44.619 9.99c-.4423341.00053117-.8722631-.14617946-1.222-.417-7.8906456-6.09745169-18.9033544-6.09745169-26.794 0-.5655514.4369358-1.321245.5389631-1.9824182.26764907-.6611732-.271314-1.1273782-.87475019-1.223-1.583s.1938668-1.41371325.7594182-1.85064907c9.3317508-7.20940817 22.3542492-7.20940817 31.686 0 .677527.5231625.9469965 1.41950064.6702756 2.22954223s-1.0382725 1.35416935-1.8942756 1.35345777z" fill="#ffe7e8"/><path id="Shape" d="m39.9 16.45c-.4510845.0004542-.8889676-.1522056-1.242-.433-5.0696461-4.0226142-12.2423539-4.0226142-17.312 0-.8651541.6870422-2.1234578.5426541-2.8105-.3225s-.5426541-2.1234578.3225-2.8105c6.5268488-5.17874831 15.7611512-5.17874831 22.288 0 .6663271.529335.924725 1.4223479.6440209 2.2257112-.280704.8033633-1.0390294 1.3411218-1.8900209 1.3402888z" fill="#ffe7e8"/><path id="Shape" d="m35.179 22.91c-.476689.0000367-.9377163-.1701888-1.3-.48-2.2345422-1.9066932-5.5234578-1.9066932-7.758 0-.8411573.6956132-2.0846963.5883292-2.7942859-.2410718s-.6231267-2.074561.1942859-2.7979282c3.7325794-3.1880583 9.2294206-3.1880583 12.962 0 .6356285.5444119.865076 1.4270186.5750614 2.212066-.2900147.7850474-1.0381578 1.3065096-1.8750614 1.306934z" fill="#ffe7e8"/><path id="Shape" d="m59 44c-.0021305 5.0379707-2.9148926 9.6211211-7.4752821 11.762149-4.5603896 2.141028-9.947225 1.4544023-13.8247179-1.762149h-15.4c-4.412684 3.6654491-10.7062879 4.0053152-15.48804096.8363824-4.78175304-3.1689328-6.92118844-9.0974887-5.26497433-14.5896879s6.7165278-9.2496165 12.45301529-9.2466945h32c7.1797017 0 13 5.8202983 13 13z" fill="#ffe7e8"/><path id="Shape" d="m46 31-3-.0002342c6.8637166.0301872 12.5215362 5.3909908 12.921211 12.2431264s-4.5965221 12.8343722-11.410211 13.6621078c4.8060406.5835041 9.5381902-1.5519979 12.2803937-5.5418379 2.7422036-3.9898399 3.0401261-9.1729713.7731382-13.4507358-2.2669878-4.2777645-6.7232859-6.9414116-11.5645319-6.9124263z" fill="#ffc9cc"/><circle id="Oval" cx="14" cy="44" fill="#ffe0e2" r="9"/><circle id="Oval" cx="46" cy="38" fill="#ffe7e8" r="2"/><circle id="Oval" cx="46" cy="50" fill="#ffe7e8" r="2"/><circle id="Oval" cx="52" cy="44" fill="#ffe7e8" r="2"/><circle id="Oval" cx="40" cy="44" fill="#ffe7e8" r="2"/><path id="Shape" d="m34 28v3h-8v-3c.0032948-1.1032019.8967981-1.9967052 2-2h4c1.1032019.0032948 1.9967052.8967981 2 2z" fill="#ffe0e2"/><path id="Shape" d="m18 42h-2v-2c0-.5522847-.4477153-1-1-1h-2c-.5522847 0-1 .4477153-1 1v2h-2c-.55228475 0-1 .4477153-1 1v2c0 .5522847.44771525 1 1 1h2v2c0 .5522847.4477153 1 1 1h2c.5522847 0 1-.4477153 1-1v-2h2c.5522847 0 1-.4477153 1-1v-2c0-.5522847-.4477153-1-1-1z" fill="#ffc9cc"/><path id="Shape" d="m4 44c0-7.1797017 5.82029825-13 13-13h-3c-4.82454047.0143286-9.24436265 2.6993197-11.48059017 6.9743264s-1.92103371 9.4368531.81872318 13.4080152 7.45342699 6.0984419 12.24386699 5.5256584c-6.60294586-.6893038-11.60966296-6.2692299-11.582-12.908z" fill="#fff"/><path id="Shape" d="m29 28c.0032948-1.1032019.8967981-1.9967052 2-2h-3c-1.1032019.0032948-1.9967052.8967981-2 2v3h3z" fill="#fff"/><path id="Shape" d="m21.344 16.017c.1-.077.2-.142.295-.215-.034-.037-.073-.068-.105-.108-.6870267-.8648824-.5428638-2.1229499.322-2.81 2.7661045-2.1988208 6.1223831-3.52755072 9.644-3.818-4.5482733-.38643546-9.0723508.9793373-12.647 3.818-.865154.6870422-1.0095422 1.9453459-.3225 2.8105.6870423.865154 1.9453459 1.0095422 2.8105.3225z" fill="#fff"/><path id="Shape" d="m26.121 22.43c.074-.064.158-.108.234-.167-.017-.019-.037-.033-.054-.052-.7185171-.8389223-.6209155-2.101475.218-2.82 1.4139475-1.209226 3.1397966-1.9959082 4.98-2.27-2.8635659-.4402225-5.7768738.3885005-7.98 2.27-.8174126.7233672-.9038755 1.9685272-.1942859 2.7979282s1.9531286.936685 2.7942859.2410718z" fill="#fff"/><path id="Shape" d="m14.157 6.407c-.5841219.42999548-.889658 1.14253978-.7984644 1.86210784s.5648222 1.33336584 1.237744 1.60405137c.6729218.27068549 1.4396548.15582819 2.0037204-.30015921.1-.08.215-.148.321-.227-.042-.045-.088-.084-.127-.133-.3244648-.41979812-.4688251-.95132006-.4013079-1.47757977.0675173-.52625971.3413786-1.00412527.7613079-1.32842023 4.1331115-3.19302101 9.1364314-5.05928617 14.351-5.353-6.2395859-.37106575-12.4023856 1.53056364-17.348 5.353z" fill="#fff"/><path id="Shape" d="m2.578 35.922 1.632 1.156c-.70765984 1.0085602-1.26232312 2.1162019-1.646 3.287-.35490732 1.1798196-.5447103 2.4031066-.564 3.635h-2c.01938636-1.437527.24088981-2.8651807.658-4.241.44608661-1.3671751 1.09317586-2.6603425 1.92-3.837z" fill="#fff"/><g fill="#ff414c"><path id="Shape" d="m1.635 41.053c-.55228473.0027614-1.00223852-.4427153-1.00499994-.995-.00276143-.5522847.44271521-1.0022385.99499994-1.005h.01c.55228475 0 1 .4477153 1 1s-.44771525 1-1 1z"/><path id="Shape" d="m46 30h-11v-2c0-1.6568542-1.3431458-3-3-3h-4c-1.6568542 0-3 1.3431458-3 3v2h-11c-2.2378775.0137344-4.44129369.5525147-6.433 1.573-1.98556601 1.0317374-3.69601248 2.522764-4.989 4.349-.16531101.2197045-.22995098.4990938-.17793543.7690793.05201556.2699855.21583033.5053606.45093543.6479207.45320997.2726582 1.03903764.1601483 1.359-.261 1.10841118-1.5661976 2.57517419-2.8447294 4.278-3.729 1.7070723-.8731457 3.5946356-1.3351056 5.512-1.349h32c5.2950558-.0015789 9.9652781 3.4675818 11.4931603 8.5374136 1.5278822 5.0698319-.4477629 10.5418405-4.861954 13.4663124s-10.2234254 2.6100699-14.2962063-.773726c-.1785892-.1479863-.4030656-.2292927-.635-.23h-15.4c-.2333088-.0002229-.4593523.0811386-.639.23-3.5791309 2.9686949-8.5511866 3.6023586-12.76050634 1.6262627-4.20931971-1.9760959-6.89805622-6.2061744-6.90049366-10.8562627 0-.5522847-.44771525-1-1-1s-1 .4477153-1 1c.00098061 5.3607694 3.06305632 10.2502981 7.88551606 12.5916079 4.82245974 2.3413099 10.55847014 1.7232623 14.77148394-1.5916079h14.686c4.8180546 3.7932339 11.5439306 4.0095526 16.5957729.5337559 5.0518422-3.4757967 7.2538013-9.8346943 5.4332271-15.6902714-1.8205741-5.855577-7.2399309-9.8449096-13.372-9.8434845zm-19 0v-2c0-.5522847.4477153-1 1-1h4c.5522847 0 1 .4477153 1 1v2z"/><path id="Shape" d="m14 34c-5.5228475 0-10 4.4771525-10 10s4.4771525 10 10 10 10-4.4771525 10-10c-.0060624-5.5203344-4.4796656-9.9939376-10-10zm0 18c-4.418278 0-8-3.581722-8-8s3.581722-8 8-8 8 3.581722 8 8c-.0049599 4.4162219-3.5837781 7.9950401-8 8z"/><path id="Shape" d="m18 41h-1v-1c0-1.1045695-.8954305-2-2-2h-2c-1.1045695 0-2 .8954305-2 2v1h-1c-1.1045695 0-2 .8954305-2 2v2c0 1.1045695.8954305 2 2 2h1v1c0 1.1045695.8954305 2 2 2h2c1.1045695 0 2-.8954305 2-2v-1h1c1.1045695 0 2-.8954305 2-2v-2c0-1.1045695-.8954305-2-2-2zm0 4h-2c-.5522847 0-1 .4477153-1 1v2h-2v-2c0-.5522847-.4477153-1-1-1h-2v-2h2c.5522847 0 1-.4477153 1-1v-2h2v2c0 .5522847.4477153 1 1 1h2z"/><path id="Shape" d="m25.293 44.707c.3904999.3903819 1.0235001.3903819 1.414 0l2-2c.3789722-.3923789.3735524-1.0160848-.0121814-1.4018186s-1.0094397-.3911536-1.4018186-.0121814l-2 2c-.3903819.3904999-.3903819 1.0235001 0 1.414z"/><path id="Shape" d="m33.293 41.293-2 2c-.2599566.2510745-.3642126.6228779-.2726972.9725073.0915155.3496295.3645604.6226744.7141899.7141899.3496294.0915154.7214328-.0127406.9725073-.2726972l2-2c.3789722-.3923789.3735524-1.0160848-.0121814-1.4018186s-1.0094397-.3911536-1.4018186-.0121814z"/><path id="Shape" d="m46 35c-1.6568542 0-3 1.3431458-3 3s1.3431458 3 3 3 3-1.3431458 3-3-1.3431458-3-3-3zm0 4c-.5522847 0-1-.4477153-1-1s.4477153-1 1-1 1 .4477153 1 1-.4477153 1-1 1z"/><path id="Shape" d="m46 53c1.6568542 0 3-1.3431458 3-3s-1.3431458-3-3-3-3 1.3431458-3 3 1.3431458 3 3 3zm0-4c.5522847 0 1 .4477153 1 1s-.4477153 1-1 1-1-.4477153-1-1 .4477153-1 1-1z"/><path id="Shape" d="m52 47c1.6568542 0 3-1.3431458 3-3s-1.3431458-3-3-3-3 1.3431458-3 3 1.3431458 3 3 3zm0-4c.5522847 0 1 .4477153 1 1s-.4477153 1-1 1-1-.4477153-1-1 .4477153-1 1-1z"/><path id="Shape" d="m40 41c-1.6568542 0-3 1.3431458-3 3s1.3431458 3 3 3 3-1.3431458 3-3-1.3431458-3-3-3zm0 4c-.5522847 0-1-.4477153-1-1s.4477153-1 1-1 1 .4477153 1 1-.4477153 1-1 1z"/><path id="Shape" d="m26 34h-2c-.5522847 0-1 .4477153-1 1s.4477153 1 1 1h2c.5522847 0 1-.4477153 1-1s-.4477153-1-1-1z"/><path id="Shape" d="m36 34h-6c-.5522847 0-1 .4477153-1 1s.4477153 1 1 1h6c.5522847 0 1-.4477153 1-1s-.4477153-1-1-1z"/><path id="Shape" d="m46.994 9.824c1.0130599-1.31087678.7717521-3.1947788-.539-4.208-9.6922235-7.48791239-23.2177765-7.48791239-32.91 0-1.311124 1.01316639-1.5526663 2.89737598-.5394999 4.20849996 1.0131663 1.31112394 2.8973759 1.55266634 4.2084999.53950004 7.5308057-5.8192744 18.0411943-5.8192744 25.572 0 1.3114009 1.0126114 3.1953845.7703978 4.208-.541zm-16.994-5.824c-5.0724711-.01587122-10.0041049 1.66767197-14.008 4.782-.4368572.33799826-1.0650017.25785722-1.403-.17900001s-.2578572-1.06500172.179-1.40299999c8.9717145-6.9307159 21.4912855-6.9307159 30.463 0 .4356449.3371546.5165756.96313761.181 1.4-.3444366.4229492-.959776.50206427-1.4.18-4.0052357-3.1144582-8.9383955-4.79733744-14.012-4.78z"/><path id="Shape" d="m42.249 16.316c1.0305401-1.2973235.8142957-3.1844249-.483-4.215-6.8914996-5.46784991-16.6415004-5.46784991-23.533 0-.8395741.6668362-1.2596197 1.7309258-1.1019097 2.7914364.15771 1.0605107.8692158 1.9563256 1.8665 2.35s2.1288356.2253998 2.9684097-.4414364c4.7054418-3.7333041 11.3625582-3.7333041 16.068 0 .6231221.4947717 1.4172725.7217396 2.2077416.6309716.790469-.090768 1.5125033-.4918363 2.0072584-1.1149716zm-12.249-4.316c-3.3682613.0034944-6.6369722 1.1425052-9.278 3.233-.4326294.3400208-1.0586777.2666331-1.4009419-.1642237-.3422643-.4308567-.2721306-1.0572779.1569419-1.4017763 6.1623265-4.889278 14.8806735-4.889278 21.043 0 .332876.264439.4621694.7104364.3223399 1.1119114s-.5182114.6706545-.9433399.6710886c-.2254082.0007384-.4442505-.0758564-.62-.217-2.6415656-2.0909197-5.9110529-3.2299555-9.28-3.233z"/><path id="Shape" d="m30 16c-2.6148011-.0003565-5.1438651.9326171-7.132 2.631-.9219267.789347-1.2774259 2.0564161-.9006614 3.2101345.3767646 1.1537183 1.4115581 1.9667659 2.6216614 2.0598655.079.006.158.009.236.009.7142291.0013053 1.4050414-.2546431 1.946-.721 1.8784803-1.5365311 4.5795197-1.5365311 6.458 0 1.2730081 1.0313375 3.1302398.8872911 4.229-.328 1.0777756-1.2583834.9313732-3.1522125-.327-4.23-1.9876927-1.6984677-4.5164801-2.63147-7.131-2.631zm5.939 5.561c-.3591769.4188063-.9896845.4675822-1.409.109-2.6095686-2.2266591-6.4504314-2.2266591-9.06 0-.4194611.3592585-1.0507375.3104577-1.41-.109-.1728342-.2014868-.2584631-.4634263-.2380172-.728097.0204458-.2646707.1452884-.5103512.3470172-.682903 3.3584961-2.8665623 8.3025039-2.8665623 11.661 0 .2017288.1725518.3265714.4182323.3470172.682903.0204459.2646707-.065183.5266102-.2380172.728097z"/></g></g></g></svg>