<svg height="512" viewBox="0 0 60 60" width="512" xmlns="http://www.w3.org/2000/svg"><g id="Page-1" fill="none" fill-rule="evenodd"><g id="144---Paste" fill-rule="nonzero"><path id="Shape" d="m37 9h6c2.209139 0 4 1.790861 4 4v42c0 2.209139-1.790861 4-4 4h-38c-2.209139 0-4-1.790861-4-4v-42c0-2.209139 1.790861-4 4-4z" fill="#ffe0e2"/><path id="Shape" d="m43 9h-3c2.209139 0 4 1.790861 4 4v42c0 2.209139-1.790861 4-4 4h3c2.209139 0 4-1.790861 4-4v-42c0-2.209139-1.790861-4-4-4z" fill="#ff9ea1"/><rect id="Rectangle-path" fill="#ffe7e8" height="38" rx="2" transform="matrix(0 1 -1 0 58.056 10.055)" width="42.111" x="2.945" y="15.056"/><path id="Shape" d="m41 13h-3c1.1045695 0 2 .8954305 2 2v38.111c0 1.1045695-.8954305 2-2 2h3c1.1045695 0 2-.8954305 2-2v-38.111c0-1.1045695-.8954305-2-2-2z" fill="#ffc9cc"/><path id="Shape" d="m37 8v8c-.0001724.1125754-.0095368.2249488-.028.336-.1366231.5944421-.5649847 1.0792559-1.1380728 1.2880555s-1.2129272.1131751-1.6999272-.2540555l-.814-.591c-.6375733-.4649394-1.5024267-.4649394-2.14 0l-.61.442c-.6375733.4649394-1.5024267.4649394-2.14 0l-.61-.442c-.6375733-.4649394-1.5024267-.4649394-2.14 0l-.61.442c-.6375733.4649394-1.5024267.4649394-2.14 0l-.61-.442c-.6375733-.4649394-1.5024267-.4649394-2.14 0l-.61.442c-.6375733.4649394-1.5024267.4649394-2.14 0l-.61-.442c-.6375733-.4649394-1.5024267-.4649394-2.14 0l-.814.591c-.487.3672306-1.1268391.4628551-1.6999272.2540555s-1.0014497-.6936134-1.1380728-1.2880555c-.0184632-.1110512-.0278276-.2234246-.028-.336v-8c.0032948-1.10320187.8967981-1.9967052 2-2h22c1.1032019.0032948 1.9967052.89679813 2 2z" fill="#ffe7e8"/><path id="Shape" d="m35 6h-3c1.1032019.0032948 1.9967052.89679813 2 2v8c-.0001321.1125771-.0094968.2249538-.028.336-.0458091.2519319-.152582.4888237-.311.69l.473.344c.487.3672306 1.1268391.4628551 1.6999272.2540555s1.0014497-.6936134 1.1380728-1.2880555c.0185032-.1110462.0278679-.2234229.028-.336v-8c-.0032948-1.10320187-.8967981-1.9967052-2-2z" fill="#ffc9cc"/><path id="Shape" d="m20 1h8c1.1045695 0 2 .8954305 2 2v3h-12v-3c0-1.1045695.8954305-2 2-2z" fill="#ffc9cc"/><path id="Shape" d="m58.75 41.046-14.365-12.83c-.2433723-.2200612-.593635-.2758759-.8933508-.1423564-.2997158.1335196-.4924804.4312462-.4916492.7593564v6.167c-18.362 0-21-13-21-13 0 28 21 27 21 27v5.166c-.0003356.3278713.1923716.6252136.4917879.758816.2994163.1336023.6494218.0784235.8932121-.140816l14.365-12.536c.1598727-.1591412.2497501-.3754225.2497501-.601s-.0898774-.4418588-.2497501-.601z" fill="#ffe7e8"/><path id="Shape" d="m58.75 41.046-14.365-12.83c-.2433723-.2200612-.593635-.2758759-.8933508-.1423564-.2997158.1335196-.4924804.4312462-.4916492.7593564v.825l12.75 11.388c.1592594.1590611.2487471.3749133.2487471.6s-.0894877.4409389-.2487471.6l-12.75 11.129v.792c-.0008312.3281102.1919334.6258368.4916492.7593564.2997158.1335195.6499785.0777048.8933508-.1423564l14.365-12.536c.1598727-.1591412.2497501-.3754225.2497501-.601s-.0898774-.4418588-.2497501-.601z" fill="#ffc9cc"/><path id="Shape" d="m4 55v-42c0-2.209139 1.790861-4 4-4h-3c-2.209139 0-4 1.790861-4 4v42c0 2.209139 1.790861 4 4 4h3c-2.209139 0-4-1.790861-4-4z" fill="#fff"/><path id="Rectangle-path" d="m0 47h2v8h-2z" fill="#fff"/><g fill="#ff414c"><circle id="Oval" cx="1" cy="51" r="1"/><path id="Shape" d="m43 25c.5522847 0 1-.4477153 1-1v-9c0-1.6568542-1.3431458-3-3-3-.5522847 0-1 .4477153-1 1s.4477153 1 1 1 1 .4477153 1 1v9c0 .5522847.4477153 1 1 1z"/><path id="Shape" d="m59.416 40.3-11.416-10.2v-17.1c-.0033061-2.7600532-2.2399468-4.99669388-5-5h-5c0-1.65685425-1.3431458-3-3-3h-4v-2c0-1.65685425-1.3431458-3-3-3h-8c-1.6568542 0-3 1.34314575-3 3v2h-4c-1.6568542 0-3 1.34314575-3 3h-5c-2.76005315.00330612-4.99669388 2.2399468-5 5v34c0 .5522847.44771525 1 1 1s1-.4477153 1-1v-34c0-1.6568542 1.34314575-3 3-3h5v2h-3c-1.65685425 0-3 1.3431458-3 3v38c0 1.6568542 1.34314575 3 3 3h32c.5522847 0 1-.4477153 1-1s-.4477153-1-1-1h-32c-.55228475 0-1-.4477153-1-1v-38c0-.5522847.44771525-1 1-1h3v2c.0005884.1675224.0146336.3347269.042.5.1592606.9077256.7788492 1.6674411 1.636 2.006.9214025.3724917 1.9693759.2472028 2.777-.332l.813-.592c.2873039-.209139.6766961-.209139.964 0l.61.443c.988156.7209096 2.328844.7209096 3.317 0l.609-.443c.2873039-.209139.6766961-.209139.964 0l.61.443c.988156.7209096 2.328844.7209096 3.317 0l.609-.443c.2873039-.209139.6766961-.209139.964 0l.61.443c.988156.7209096 2.328844.7209096 3.317 0l.609-.443c.2873039-.209139.6766961-.209139.964 0l.813.592c.8076241.5792028 1.8555975.7044917 2.777.332.8571508-.3385589 1.4767394-1.0982744 1.636-2.006.027553-.1652498.0415995-.3324694.042-.5v-6h5c1.6568542 0 3 1.3431458 3 3v15.318l-.943-.842c-.5362995-.4858712-1.3086415-.6098516-1.9700668-.3162455-.6614252.2936062-1.0875449.9495829-1.0869332 1.6732455v5.153c-16.371-.442-18.918-11.7-19.02-12.185-.1021973-.5032898-.5690146-.8473466-1.0800012-.7959898-.5109867.0513567-.9000001.4814288-.8999988.9949898 0 9.939 2.588 17.448 7.694 22.315 3.626167 3.4029452 8.339947 5.4123064 13.306 5.672v4.179c-.0054558.7269363.424061 1.3867623 1.091 1.676.2363415.1055283.4921697.160373.751.161.4439766-.0000109.8719409-.1658471 1.2-.465l.958-.838v.3c0 1.6568542-1.3431458 3-3 3h-38c-1.65685425 0-3-1.3431458-3-3 0-.5522847-.44771525-1-1-1s-1 .4477153-1 1c.00330612 2.7600532 2.23994685 4.9966939 5 5h38c2.7600532-.0033061 4.9966939-2.2399468 5-5v-2.043l11.457-10c.7211711-.7228923.7211711-1.8931077 0-2.616zm-40.416-37.3c0-.55228475.4477153-1 1-1h8c.5522847 0 1 .44771525 1 1v2h-10zm17 13c-.0000231.0559588-.0047059.1118184-.014.167-.0420426.2260588-.2007318.4129087-.417.491-.2810115.112546-.5999247.0748939-.847-.1l-.814-.592c-.9880525-.7212269-2.3289475-.7212269-3.317 0l-.609.443c-.2873039.209139-.6766961.209139-.964 0l-.61-.443c-.988156-.7209096-2.328844-.7209096-3.317 0l-.609.443c-.2873039.209139-.6766961.209139-.964 0l-.61-.443c-.988156-.7209096-2.328844-.7209096-3.317 0l-.609.443c-.2873039.209139-.6766961.209139-.964 0l-.61-.443c-.988156-.7209096-2.328844-.7209096-3.317 0l-.813.592c-.2469381.1752507-.5660388.212925-.847.1-.2156119-.0779077-.3741246-.2637895-.417-.489-.0092112-.0558643-.0138931-.1123815-.014-.169v-8c0-.55228475.4477153-1 1-1h22c.5522847 0 1 .44771525 1 1zm8 37.793v-4.793c0-.5522847-.4477153-1-1-1h-.044c-4.7914225-.0544245-9.3906337-1.8923263-12.9-5.155-3.8-3.634-6.075-8.941-6.8-15.815 2.661 3.981 8.286 8.97 19.744 8.97.5522847 0 1-.4477153 1-1v-5.787l13.919 12.433z"/></g></g></g></svg>