<svg height="512" viewBox="0 0 60 60" width="512" xmlns="http://www.w3.org/2000/svg"><g id="Page-1" fill="none" fill-rule="evenodd"><g id="145---Trasnfer" fill-rule="nonzero"><path id="Shape" d="m59 5v6h-58v-6c0-2.209139 1.790861-4 4-4h50c2.209139 0 4 1.790861 4 4z" fill="#ffe0e2"/><path id="Shape" d="m55 1h-3c2.209139 0 4 1.790861 4 4v6h3v-6c0-2.209139-1.790861-4-4-4z" fill="#ff9ea1"/><path id="Shape" d="m59 11v40c0 2.209139-1.790861 4-4 4h-50c-2.209139 0-4-1.790861-4-4v-40z" fill="#ffe7e8"/><path id="Shape" d="m56 11v40c0 2.209139-1.790861 4-4 4h3c2.209139 0 4-1.790861 4-4v-40z" fill="#ffc9cc"/><path id="Shape" d="m20.414 40.586-6-6c-.7809997-.7807639-2.0470003-.7807639-2.828 0l-6 6c-.75794442.7847578-.74710475 2.0321696.02436285 2.8036372.7714676.7714675 2.01887938.7823072 2.80363715.0243628l2.586-2.586v16.172c0 1.1045695.8954305 2 2 2s2-.8954305 2-2v-16.172l2.586 2.586c.7847578.7579444 2.0321696.7471047 2.8036372-.0243628.7714675-.7714676.7823072-2.0188794.0243628-2.8036372z" fill="#ffe0e2"/><path id="Shape" d="m34.414 52.414-6 6c-.7809997.7807639-2.0470003.7807639-2.828 0l-6-6c-.7579444-.7847578-.7471047-2.0321696.0243628-2.8036372.7714676-.7714675 2.0188794-.7823072 2.8036372-.0243628l2.586 2.586v-16.172c0-1.1045695.8954305-2 2-2s2 .8954305 2 2v16.172l2.586-2.586c.7847578-.7579444 2.0321696-.7471047 2.8036372.0243628.7714675.7714676.7823072 2.0188794.0243628 2.8036372z" fill="#ffe0e2"/><path id="Shape" d="m4 51v-46c0-2.209139 1.790861-4 4-4h-3c-2.209139 0-4 1.790861-4 4v46c0 2.209139 1.790861 4 4 4h3c-2.209139 0-4-1.790861-4-4z" fill="#fff"/><path id="Rectangle-path" d="m0 43h2v8h-2z" fill="#fff"/><g fill="#ff414c"><circle id="Oval" cx="1" cy="47" r="1"/><path id="Shape" d="m55 0h-50c-2.76005315.00330612-4.99669388 2.23994685-5 5v38c0 .5522847.44771525 1 1 1s1-.4477153 1-1v-31h5c.55228475 0 1-.4477153 1-1s-.44771525-1-1-1h-5v-5c0-1.65685425 1.34314575-3 3-3h50c1.6568542 0 3 1.34314575 3 3v5h-45c-.5522847 0-1 .4477153-1 1s.4477153 1 1 1h45v39c0 1.6568542-1.3431458 3-3 3h-20.758l.879-.879c1.1711458-1.1714996 1.1711458-3.0705004 0-4.242-1.1873934-1.1330821-3.0556066-1.1330821-4.243 0l-.878.879v-13.758c0-1.6568542-1.3431458-3-3-3s-3 1.3431458-3 3v13.758l-.878-.879c-1.1873934-1.1330821-3.0556066-1.1330821-4.243 0-1.1711458 1.1714996-1.1711458 3.0705004 0 4.242l.879.879h-3.758v-10.758l.878.879c1.1873934 1.1330821 3.0556066 1.1330821 4.243 0 1.1711458-1.1714996 1.1711458-3.0705004 0-4.242l-6-6c-1.1873934-1.1330821-3.0556066-1.1330821-4.243 0l-6 6c-1.17114581 1.1714996-1.17114581 3.0705004 0 4.242 1.18739336 1.1330821 3.05560664 1.1330821 4.243 0l.879-.879v10.758h-5c-1.65685425 0-3-1.3431458-3-3 0-.5522847-.44771525-1-1-1s-1 .4477153-1 1c.00330612 2.7600532 2.23994685 4.9966939 5 5h5v1c0 1.6568542 1.3431458 3 3 3s3-1.3431458 3-3v-1h5.758l3.12 3.121c.5626237.562719 1.3257625.8788593 2.1215.8788593s1.5588763-.3161403 2.1215-.8788593l3.121-3.121h22.758c2.7600532-.0033061 4.9966939-2.2399468 5-5v-46c-.0033061-2.76005315-2.2399468-4.99669388-5-5zm-41 57c0 .5522847-.4477153 1-1 1s-1-.4477153-1-1v-16.172c-.0000863-.4043959-.2437275-.7689341-.6173454-.923678-.373618-.1547439-.8036603-.0692299-1.0896546.216678l-2.586 2.586c-.39506878.3791887-1.01893122.3791887-1.414 0-.39038194-.3904999-.39038194-1.0235001 0-1.414l6-6c.3950688-.3791887 1.0189312-.3791887 1.414 0l6 6c.3903819.3904999.3903819 1.0235001 0 1.414-.3950688.3791887-1.0189312.3791887-1.414 0l-2.586-2.586c-.2859943-.2859079-.7160366-.3714219-1.0896546-.216678-.3736179.1547439-.6172591.5192821-.6173454.923678zm13.707.707c-.3950688.3791887-1.0189312.3791887-1.414 0l-3.388-3.388-.044-.044-2.568-2.568c-.2599566-.2510745-.3642126-.6228779-.2726972-.9725073.0915155-.3496295.3645604-.6226744.7141899-.7141899.3496294-.0915154.7214328.0127406.9725073.2726972l2.586 2.586c.2859943.2859079.7160366.3714219 1.0896546.216678.3736179-.1547439.6172591-.5192821.6173454-.923678v-16.172c0-.5522847.4477153-1 1-1s1 .4477153 1 1v16.172c.0000863.4043959.2437275.7689341.6173454.923678.373618.1547439.8036603.0692299 1.0896546-.216678l2.586-2.586c.3950688-.3791887 1.0189312-.3791887 1.414 0 .3903819.3904999.3903819 1.0235001 0 1.414l-2.569 2.568-.043.043z"/><circle id="Oval" cx="6" cy="6" r="1"/><circle id="Oval" cx="10" cy="6" r="1"/><circle id="Oval" cx="14" cy="6" r="1"/><path id="Shape" d="m39 7c.5522847 0 1-.44771525 1-1s-.4477153-1-1-1h-1c-.5522847 0-1 .44771525-1 1s.4477153 1 1 1z"/><path id="Shape" d="m54 7c.5522847 0 1-.44771525 1-1s-.4477153-1-1-1h-11c-.5522847 0-1 .44771525-1 1s.4477153 1 1 1z"/><path id="Shape" d="m50 52c.5522847 0 1-.4477153 1-1s-.4477153-1-1-1h-3c-.5522847 0-1 .4477153-1 1s.4477153 1 1 1z"/><path id="Shape" d="m55 52c.5522847 0 1-.4477153 1-1s-.4477153-1-1-1h-1c-.5522847 0-1 .4477153-1 1s.4477153 1 1 1z"/></g></g></g></svg>