<svg height="512" viewBox="0 0 60 60" width="512" xmlns="http://www.w3.org/2000/svg"><g id="Page-1" fill="none" fill-rule="evenodd"><g id="147---Maximise" fill-rule="nonzero"><rect id="Rectangle-path" fill="#ffe0e2" height="50" rx="6" width="50" x="1" y="1"/><path id="Shape" d="m45 1h-3c3.3137085 0 6 2.6862915 6 6v38c0 3.3137085-2.6862915 6-6 6h3c3.3137085 0 6-2.6862915 6-6v-38c0-3.3137085-2.6862915-6-6-6z" fill="#ff9ea1"/><rect id="Rectangle-path" fill="#ffe7e8" height="42" rx="2" transform="matrix(0 1 -1 0 52 0)" width="42" x="5" y="5"/><path id="Shape" d="m45 5h-3c1.1045695 0 2 .8954305 2 2v38c0 1.1045695-.8954305 2-2 2h3c1.1045695 0 2-.8954305 2-2v-38c0-1.1045695-.8954305-2-2-2z" fill="#ffc9cc"/><path id="Shape" d="m21.877 21.88c.5617198-.5632738 1.3245087-.8798486 2.12-.8798486s1.5582802.3165748 2.12.8798486l26.883 26.88v-12.76c0-1.6568542 1.3431458-3 3-3s3 1.3431458 3 3v18c0 2.7614237-2.2385763 5-5 5h-18c-1.6568542 0-3-1.3431458-3-3s1.3431458-3 3-3h12.76l-26.883-26.88c-1.1698135-1.1712702-1.1698135-3.0687298 0-4.24z" fill="#ffe7e8"/><path id="Shape" d="m10 51c-3.3137085 0-6-2.6862915-6-6v-38c0-3.3137085 2.6862915-6 6-6h-3c-3.3137085 0-6 2.6862915-6 6v38c0 3.3137085 2.6862915 6 6 6z" fill="#fff"/><path id="Rectangle-path" d="m0 37h2v8h-2z" fill="#fff"/><g fill="#ff414c"><path id="Shape" d="m1 38c.55228475 0 1-.4477153 1-1v-30c.00330612-2.76005315 2.23994685-4.99669388 5-5h38c2.7600532.00330612 4.9966939 2.23994685 5 5v24c0 .5522847.4477153 1 1 1s1-.4477153 1-1v-24c-.0049584-3.86393756-3.1360624-6.99504164-7-7h-38c-3.86393756.00495836-6.99504164 3.13606244-7 7v30c0 .2652165.10535684.5195704.29289322.7071068s.44189029.2928932.70710678.2928932z"/><circle id="Oval" cx="1" cy="41" r="1"/><path id="Shape" d="m31 50h-24c-2.76005315-.0033061-4.99669388-2.2399468-5-5 0-.5522847-.44771525-1-1-1s-1 .4477153-1 1c.00495836 3.8639376 3.13606244 6.9950416 7 7h24c.5522847 0 1-.4477153 1-1s-.4477153-1-1-1z"/><path id="Shape" d="m7 6h3c.5522847 0 1-.44771525 1-1s-.4477153-1-1-1h-3c-1.65685425 0-3 1.34314575-3 3v38c0 1.6568542 1.34314575 3 3 3h11c.5522847 0 1-.4477153 1-1s-.4477153-1-1-1h-11c-.55228475 0-1-.4477153-1-1v-38c0-.55228475.44771525-1 1-1z"/><path id="Shape" d="m17 6c.5522847 0 1-.44771525 1-1s-.4477153-1-1-1h-2c-.5522847 0-1 .44771525-1 1s.4477153 1 1 1z"/><path id="Shape" d="m47 19c.5522847 0 1-.4477153 1-1v-11c0-1.65685425-1.3431458-3-3-3h-24c-.5522847 0-1 .44771525-1 1s.4477153 1 1 1h24c.5522847 0 1 .44771525 1 1v11c0 .5522847.4477153 1 1 1z"/><path id="Shape" d="m56 32c-2.209139 0-4 1.790861-4 4v10.346l-25.17-25.167c-.996495-1.069663-2.4971598-1.5104983-3.913857-1.1497345-1.4166971.3607638-2.5237406 1.4656554-2.8872601 2.8816479-.3635196 1.4159925.074395 2.9175122 1.1421171 3.9160866l25.173 25.173h-10.344c-2.209139 0-4 1.790861-4 4s1.790861 4 4 4h18c3.3123376-.0033074 5.9966926-2.6876624 6-6v-18c0-2.209139-1.790861-4-4-4zm2 22c0 2.209139-1.790861 4-4 4h-18c-1.1045695 0-2-.8954305-2-2s.8954305-2 2-2h12.758c.4043959-.0000863.7689341-.2437275.923678-.6173454.1547439-.373618.0692299-.8036603-.216678-1.0896546l-26.88-26.88c-.7794319-.7807702-.7794319-2.0452298 0-2.826l.007-.007c.7894703-.7531149 2.0322809-.7500277 2.818.007l26.88 26.88c.285707.2880627.7171479.374949 1.0920852.219931.3749374-.155018.6190517-.5212128.6179148-.926931v-12.76c0-1.1045695.8954305-2 2-2s2 .8954305 2 2z"/></g></g></g></svg>