<svg height="512" viewBox="0 0 60 60" width="512" xmlns="http://www.w3.org/2000/svg"><g id="Page-1" fill="none" fill-rule="evenodd"><g id="148---Loop" fill-rule="nonzero"><circle id="Oval" cx="30" cy="30" fill="#ffe0e2" r="29"/><path id="Shape" d="m30 1c-.5033333 0-1.0033333.01266667-1.5.038 15.4192225.79012792 27.5158989 13.5225465 27.5158989 28.962s-12.0966764 28.1718721-27.5158989 28.962c.4973333.0253333.9973333.038 1.5.038 16.0162576-.0000002 28.9999996-12.9837424 28.9999996-29s-12.983742-28.99999976-28.9999996-29z" fill="#ff9ea1"/><circle id="Oval" cx="30" cy="30" fill="#ffe7e8" r="25"/><path id="Shape" d="m30 5c-.5 0-1 .019-1.5.049 13.1671239.83401357 23.4196519 11.7564891 23.4196519 24.95s-10.252528 24.1159864-23.4196519 24.95c.5.03 1 .049 1.5.049 13.7193264-.1227131 24.7763954-11.2791248 24.7763954-24.999s-11.057069-24.87628693-24.7763954-24.999z" fill="#ffc9cc"/><path id="Shape" d="m25 25.013c-.0453424.3939053-.2939981.7351525-.6550693.8989965-.3610713.1638441-.7816271.1262663-1.1079307-.0989965l-4.77-3.013c-.2867606-.1642956-.4636508-.4695084-.4636508-.8s.1768902-.6357044.4636508-.8l4.77-3.013c.3263036-.2252628.7468594-.2628406 1.1079307-.0989965.3610712.163844.6097269.5050912.6550693.8989965z" fill="#ffe7e8"/><path id="Shape" d="m35 34.987c.0453424-.3939053.2939981-.7351525.6550693-.8989965.3610713-.1638441.7816271-.1262663 1.1079307.0989965l4.77 3.013c.2867606.1642956.4636508.4695084.4636508.8s-.1768902.6357044-.4636508.8l-4.77 3.013c-.3263036.2252628-.7468594.2628406-1.1079307.0989965-.3610712-.163844-.6097269-.5050912-.6550693-.8989965z" fill="#ffe7e8"/><path id="Shape" d="m4 30c.0022152-15.348149 11.9627442-28.03681313 27.284-28.945-.428-.019-.851-.055-1.284-.055-16.0162576.00000024-28.99999957 12.9837424-28.99999957 29s12.98374197 28.9999998 28.99999957 29c.486 0 .966-.019 1.444-.042-15.3893474-.8269092-27.4438798-13.5464527-27.444-28.958z" fill="#fff"/><path id="Shape" d="m3.079 37.624-1.925.544-.514-2c-.129-.681-.216-1.368-.325-2.047l-.155-1.021-.06-1.034-.1-2.066h2l.1 1.929.05.965.147.954c.1.635.182 1.275.3 1.907z" fill="#fff"/><g fill="#ff414c"><path id="Shape" d="m1.324 34.989c-.55228473.0027614-1.00223852-.4427153-1.00499994-.995-.00276143-.5522847.44271521-1.0022385.99499994-1.005h.01c.55228475 0 1 .4477153 1 1s-.44771525 1-1 1z"/><path id="Shape" d="m30 0c-16.5607751.01873704-29.98126296 13.4392249-30 30 0 .5522847.44771525 1 1 1s1-.4477153 1-1c-.03703445-13.0419552 8.9105865-24.39266116 21.6006558-27.40199811s25.7817291 3.11494978 31.6048746 14.78478031c5.8231455 11.6698305 2.8447432 25.8129406-7.1902289 34.1432048-10.0349722 8.3302642-24.4846519 8.654611-34.8833015.783013-2.4153064-1.8222826-4.52302272-4.0198039-6.243-6.509-1.68838228-2.5090098-2.97391975-5.2666733-3.81-8.173-.15022145-.5315741-.70292593-.8407215-1.2345-.6905s-.84072145.7029259-.6905 1.2345c.89592027 3.115382 2.27429228 6.0712055 4.085 8.76 1.84267172 2.6644377 4.09948786 5.0171306 6.685 6.969 10.4185939 7.8832729 24.7421321 8.1137639 35.4089777.5697931s15.2217202-21.1259437 11.2600289-33.5757668c-3.9616913-12.44982296-15.5280523-20.9018146-28.5930066-20.8940263z"/><path id="Shape" d="m34.762 49.428c-1.5586296.3810627-3.1574646.573111-4.762.572-.5522847 0-1 .4477153-1 1s.4477153 1 1 1c1.7650199.0010376 3.5237217-.2108259 5.238-.631.3590181-.0734995.6490751-.3374891.7559582-.6880204.1068831-.3505314.0134692-.7314479-.243459-.9927601-.2569282-.2613123-.6362098-.3611571-.9884992-.2602195z"/><path id="Shape" d="m40 49.463c.1670214-.0001104.3313552-.0420533.478-.122 1.1038885-.6014424 2.1546691-1.2956066 3.141-2.075.396999-.3519542.4500381-.9526847.1208486-1.3687547-.3291896-.41607-.9260112-.5026387-1.3598486-.1972453-.8977083.709308-1.8541604 1.340921-2.859 1.888-.3981783.2202915-.5974179.681636-.484784 1.1225304.1126338.4408945.5087357.7501491.963784.7524696z"/><path id="Shape" d="m47.809 42.9c2.7325075-3.7452972 4.2005163-8.2638639 4.191-12.9 0-.5522847-.4477153-1-1-1s-1 .4477153-1 1c.0093175 4.2148407-1.3249116 8.3229635-3.809 11.728-.2932003.4467484-.1833582 1.0450717.2494062 1.358545s1.0355133.2313161 1.3685938-.186545z"/><path id="Shape" d="m7.489 19.084c-.50589368-.2214235-1.0955042.009138-1.317.515-1.43960239 3.2781739-2.17936612 6.8206613-2.172 10.401 0 14.3594035 11.6405965 26 26 26s26-11.6405965 26-26-11.6405965-26-26-26c-3.5800019-.00722696-7.1221344.7325338-10.4 2.172-.3515292.12617922-.603445.43773808-.653235.80789332-.04979.37015525.1108452.73720681.4165381.95178968s.7054884.24092888 1.0366969.068317c3.0261195-1.32694271 6.2957436-2.0081144 9.6-2 13.254834 0 24 10.745166 24 24s-10.745166 24-24 24-24-10.745166-24-24c-.0081144-3.3042564.67305729-6.5738805 2-9.6.22124771-.504535-.00724499-1.092982-.511-1.316z"/><path id="Shape" d="m11.572 14.641c.6115454-.7309245 1.2649763-1.4257583 1.957-2.081.401511-.3796958.4191957-1.012989.0395-1.4145-.3796958-.401511-1.012989-.4191958-1.4145-.0395-.7489417.7091305-1.4558127 1.4614123-2.117 2.253-.2324007.2738262-.30010947.6512502-.17738513.9887848s.41703093.5833334.77103173.6439496c.3540007.0606163.71332-.0732608.9413534-.3507344z"/><path id="Shape" d="m24.96 17.276c-.7078695-.3912-1.572436-.3666842-2.257.064l-4.77 3.013c-.5788948.3468478-.9331915.97215-.9331915 1.647s.3542967 1.3001522.9331915 1.647l4.767 3.013c.3529823.2233894.7622694.3416664 1.18.341.3763038.0000151.7464808-.0952814 1.076-.277.6375448-.3334793 1.0390629-.9915228 1.044-1.711.007307-.5563378-.4338091-1.0152767-.99-1.03-.2613865-.0062149-.5141708.093572-.7008319.2766544-.1866611.1830823-.2913224.4338878-.2901681.6953456-.0723677.0540091-.1700137.0595214-.248.014l-4.7-2.969 4.7-2.968c.0416619-.0235611.0892117-.0346676.137-.032.051 0 .09.009.092-.009 0 .5522847.4477153 1 1 1s1-.4477153 1-1c-.0026783-.7200498-.4027411-1.3797688-1.04-1.715z"/><path id="Shape" d="m40 21h-13c-.5522847 0-1 .4477153-1 1s.4477153 1 1 1h13c.5522847 0 1 .4477153 1 1v8c0 .5522847.4477153 1 1 1s1-.4477153 1-1v-8c0-1.6568542-1.3431458-3-3-3z"/><path id="Shape" d="m37.3 42.66 4.77-3.013c.5788948-.3468478.9331915-.97215.9331915-1.647s-.3542967-1.3001522-.9331915-1.647l-4.77-3.013c-.6839945-.4313604-1.5486509-.4558896-2.256-.064-.6375448.3334793-1.0390629.9915228-1.044 1.711-.007307.5563378.4338091 1.0152767.99 1.03.2613865.0062149.5141708-.093572.7008319-.2766544.1866611-.1830823.2913224-.4338878.2901681-.6953456.0725543-.0534936.1698863-.0589882.248-.014l4.7 2.97-4.7 2.968c-.0413471.0246072-.0889168.0367601-.137.035-.051-.004-.092-.004-.092.009 0-.5522847-.4477153-1-1-1s-1 .4477153-1 1c.0041538.7186111.4040045 1.3764424 1.04 1.711.7086922.3921689 1.574637.3676465 2.26-.064z"/><path id="Shape" d="m17 36c0 1.6568542 1.3431458 3 3 3h13c.5522847 0 1-.4477153 1-1s-.4477153-1-1-1h-13c-.5522847 0-1-.4477153-1-1v-8c0-.5522847-.4477153-1-1-1s-1 .4477153-1 1z"/></g></g></g></svg>