<svg height="512" viewBox="0 0 60 60" width="512" xmlns="http://www.w3.org/2000/svg"><g id="Page-1" fill="none" fill-rule="evenodd"><g id="149---Schedule-Save" fill-rule="nonzero"><path id="Shape" d="m53 5v24.05c-4.7031425-3.9903213-11.1986431-5.1202386-16.9730005-2.9525186-5.7743575 2.1677199-9.9216345 7.2929841-10.8369995 13.3925186-.2924718 1.8271161-.268794 3.6909036.07 5.51h-13.26c-1.6568542 0-3 1.3431458-3 3v5h-4c-2.209139 0-4-1.790861-4-4v-44c0-2.209139 1.790861-4 4-4h5v14c0 2.209139 1.790861 4 4 4h26c2.209139 0 4-1.790861 4-4v-14h5c2.209139 0 4 1.790861 4 4z" fill="#ffe7e8"/><path id="Shape" d="m49 1h-3c2.209139 0 4 1.790861 4 4v21.986c1.0700831.580126 2.0756951 1.2719871 3 2.064v-24.05c0-2.209139-1.790861-4-4-4z" fill="#ffc9cc"/><path id="Shape" d="m40.627 25.064c-9.004302-.8601467-17.1061695 5.479146-18.437 14.426-.2924718 1.8271161-.268794 3.6909036.07 5.51h3c-.338794-1.8190964-.3624718-3.6828839-.07-5.51 1.142791-7.8249567 7.5526708-13.8150407 15.437-14.426z" fill="#ffc9cc"/><path id="Shape" d="m23 19h-9c-2.209139 0-4-1.790861-4-4v-14h9v14c0 2.209139 1.790861 4 4 4z" fill="#ffe0e2"/><path id="Shape" d="m44 1v14c0 2.209139-1.790861 4-4 4h-17c-2.209139 0-4-1.790861-4-4v-14z" fill="#ffe7e8"/><path id="Shape" d="m41 1v14c0 2.209139-1.790861 4-4 4h3c2.209139 0 4-1.790861 4-4v-14z" fill="#ffc9cc"/><path id="Shape" d="m29.05 53h-20.05v-5c0-1.6568542 1.3431458-3 3-3h13.26c.5319712 2.9554406 1.839961 5.716369 3.79 8z" fill="#ffe0e2"/><path id="Shape" d="m25.26 45h-3c.5319712 2.9554406 1.839961 5.716369 3.79 8h3c-1.950039-2.283631-3.2580288-5.0445594-3.79-8z" fill="#ff9ea1"/><path id="Shape" d="m35 9v-2c0-1.1045695.8954305-2 2-2h1c1.1045695 0 2 .8954305 2 2v6c0 1.1045695-.8954305 2-2 2h-1c-1.1045695 0-2-.8954305-2-2z" fill="#ffe0e2"/><path id="Shape" d="m59 42c-.0151381 8.7972214-6.7371603 16.1307741-15.4998244 16.9099085-8.7626641.7791343-16.6731321-5.2533672-18.2401756-13.9099085-.338794-1.8190964-.3624718-3.6828839-.07-5.51 1.3255305-8.7918134 9.2018309-15.0771765 18.0686067-14.4189214 8.8667758.6582552 15.7286188 8.0377544 15.7413933 16.9289214z" fill="#ffe7e8"/><path id="Shape" d="m53 29.05c-3.4127177-2.9523368-7.8786859-4.3910622-12.373-3.986 3.464016.3168905 6.7417802 1.7108058 9.373 3.986 5.2155858 4.4231497 7.2702525 11.54255 5.2134406 18.0645216-2.056812 6.5219716-7.8239905 11.1746233-14.6334406 11.8054784.469.039.939.08 1.42.08 7.1282669.003467 13.5009434-4.4425804 15.9584929-11.1338173 2.4575494-6.6912369.4774833-14.2050696-4.9584929-18.8161827z" fill="#ffc9cc"/><path id="Shape" d="m34.17 26.91-.01.02c-4.8685936 2.4625799-8.2203499 7.1557861-8.97 12.56-3.1487118-1.179814-5.223603-4.2026454-5.1926615-7.5649942s2.161111-6.3464838 5.3310018-7.4681518 6.7028541-.1414363 8.8416597 2.453146z" fill="#ffe0e2"/><path id="Shape" d="m28 24c-.5098928.0008126-1.0185402.0503714-1.519.148 1.83962.3394019 3.5002722 1.3175895 4.689 2.762l-.01.02c-4.3246467 2.192592-7.4784206 6.1617389-8.637 10.87.7667321.7364075 1.6737064 1.3111307 2.667 1.69.7496501-5.4042139 4.1014064-10.0974201 8.97-12.56l.01-.02c-1.5149249-1.8478342-3.7805549-2.916389-6.17-2.91z" fill="#ff9ea1"/><circle id="Oval" cx="42" cy="42" fill="#ffe7e8" r="13"/><path id="Shape" d="m42 29c-.5013727.0021196-1.0022053.0331712-1.5.093 6.5547585.7579324 11.5005523 6.3085668 11.5005523 12.907s-4.9457938 12.1490676-11.5005523 12.907c4.8017364.577143 9.5269407-1.5589761 12.2658122-5.5449953 2.7388716-3.9860191 3.0386134-9.1629598.7780779-13.4384417-2.2605356-4.2754819-6.7076311-6.9426717-11.5438901-6.923563z" fill="#ffc9cc"/><path id="Shape" d="m4 49v-44c0-2.209139 1.790861-4 4-4h-3c-2.209139 0-4 1.790861-4 4v44c0 2.209139 1.790861 4 4 4h3c-2.209139 0-4-1.790861-4-4z" fill="#fff"/><path id="Rectangle-path" d="m0 5h2v8h-2z" fill="#fff"/><g fill="#ff414c"><circle id="Oval" cx="1" cy="9" r="1"/><path id="Shape" d="m38 14h-1c-.5522847 0-1-.4477153-1-1s-.4477153-1-1-1-1 .4477153-1 1c0 1.6568542 1.3431458 3 3 3h1c1.6568542 0 3-1.3431458 3-3v-6c0-1.65685425-1.3431458-3-3-3h-1c-1.6568542 0-3 1.34314575-3 3v2c0 .55228475.4477153 1 1 1s1-.44771525 1-1v-2c0-.55228475.4477153-1 1-1h1c.5522847 0 1 .44771525 1 1v6c0 .5522847-.4477153 1-1 1z"/><path id="Shape" d="m4 49c0 .5522847.44771525 1 1 1s1-.4477153 1-1v-1c0-.5522847-.44771525-1-1-1s-1 .4477153-1 1z"/><path id="Shape" d="m4 43v2c0 .5522847.44771525 1 1 1s1-.4477153 1-1v-2c0-.5522847-.44771525-1-1-1s-1 .4477153-1 1z"/><path id="Shape" d="m7 7v-2c0-.55228475-.44771525-1-1-1s-1 .44771525-1 1v2c0 .55228475.44771525 1 1 1s1-.44771525 1-1z"/><path id="Shape" d="m49 7v-2c0-.55228475-.4477153-1-1-1s-1 .44771525-1 1v2c0 .55228475.4477153 1 1 1s1-.44771525 1-1z"/><path id="Shape" d="m54 28.622v-23.622c-.0033061-2.76005315-2.2399468-4.99669388-5-5h-44c-2.76005315.00330612-4.99669388 2.23994685-5 5 0 .35726559.19059892.68739261.5.8660254.30940108.1786328.69059892.1786328 1 0 .30940108-.17863279.5-.50875981.5-.8660254 0-1.65685425 1.34314575-3 3-3h4v13c.00330612 2.7600532 2.2399468 4.9966939 5 5h1c.5522847 0 1-.4477153 1-1s-.4477153-1-1-1h-1c-1.6568542 0-3-1.3431458-3-3v-13h7v13c.0033061 2.7600532 2.2399468 4.9966939 5 5h17c2.7600532-.0033061 4.9966939-2.2399468 5-5v-13h4c1.6568542 0 3 1.34314575 3 3v22.042c-4.8179284-3.2765614-10.9397936-3.9721429-16.37-1.86-.416.157-.822.33-1.22.513-2.5114943-2.5640979-6.3079136-3.3877657-9.65619-2.0949987-3.3482763 1.2927671-5.6061335 4.4539867-5.7428582 8.0405599-.1367247 3.5865733 1.8739101 6.9105131 5.1140482 8.4544388-.1464913 1.2978795-.1464913 2.6081205 0 3.906h-12.125c-2.209139 0-4 1.790861-4 4v4h-3c-1.65685425 0-3-1.3431458-3-3v-36.001c0-.5522847-.44771525-1-1-1s-1 .4477153-1 1v36c.00330612 2.7600532 2.23994685 4.9966939 5 5h23.622c4.4396122 4.9656349 11.2613996 7.0687349 17.7263307 5.4648796 6.4649312-1.6038552 11.5126937-6.6516177 13.1165489-13.1165489 1.6038553-6.4649311-.4992447-13.2867185-5.4648796-17.7263307zm-11-13.622c0 1.6568542-1.3431458 3-3 3h-17c-1.6568542 0-3-1.3431458-3-3v-13h23zm-22 17c-.0034187-2.7328042 1.5858316-5.2170586 4.0683722-6.3595219 2.4825407-1.1424632 5.4031762-.7336547 7.4766278 1.0465219-4.1515188 2.4935347-7.0841325 6.5959354-8.1 11.331-2.1276472-1.2596923-3.4361132-3.5454247-3.445-6.018zm-11 16c0-1.1045695.8954305-2 2-2h12.46c.4872199 2.1418501 1.3645008 4.1757318 2.588 6h-17.048zm32 10c-4.6851312-.0021598-9.1336015-2.0589833-12.17-5.627-3.0228911-3.5025407-4.3577728-8.1545229-3.652-12.727v-.016c.7937147-5.7514406 4.7039542-10.5919014 10.16-12.577 1.8399111-.7030512 3.7923466-1.0656173 5.762-1.07 3.7666505.0059599 7.4057535 1.3652113 10.254 3.83 5.1159285 4.3399746 6.9791747 11.4117471 4.6659409 17.7091317-2.3132337 6.2973846-8.311134 10.4815028-15.0199409 10.4778683z"/><path id="Shape" d="m42 28c-1.4634321-.0016985-2.9179729.2274507-4.31.679-.5045975.1858221-.7719067.737413-.605095 1.24861.1668116.5111969.7080145.7989576 1.225095.65139 5.7563414-1.854303 11.9930541.8646812 14.5521104 6.344201 2.5590564 5.4795197.6406945 12.0071033-4.4761104 15.230799-3.9149422 2.4159525-8.8580578 2.4159525-12.773 0-4.0873679-2.5610611-6.2376372-7.3256384-5.454-12.085.0923078-.5975456.2334471-1.1865182.422-1.761.1318621-.3452003.0626083-.7349825-.1800951-1.0136326-.2427035-.2786501-.6192925-.4007443-.9793236-.317507-.3600311.0832372-.6448142.3582369-.7405813.7151396-.2236601.6742939-.3909022 1.3660072-.5 2.068-.9361973 5.7892265 1.8366115 11.5481324 6.9460872 14.4264768 5.1094758 2.8783444 11.4717011 2.2655193 15.9378358-1.5351713 4.4661348-3.8006907 6.0887391-9.9829736 4.0647415-15.4870668-2.0239975-5.5040933-7.2652289-9.1623661-13.1296645-9.1642387z"/><path id="Shape" d="m32 34.7c.2974322.000483.5796435-.1314599.77-.36.5500629-.6638284 1.1692168-1.2672268 1.847-1.8.4127612-.3465363.4766538-.9578371.1444699-1.3822344s-.9409353-.5092067-1.3764699-.1917656c-.7895541.6185721-1.5112592 1.319159-2.153 2.09-.2508123.2979433-.3058292.7143981-.1409924 1.0672519.1648369.3528538.5195368.577908.9089924.5767481z"/><path id="Shape" d="m43 34c0-.5522847-.4477153-1-1-1s-1 .4477153-1 1v7.586l-3.707 3.707c-.2599566.2510745-.3642126.6228779-.2726972.9725073.0915155.3496295.3645604.6226744.7141899.7141899.3496294.0915154.7214328-.0127406.9725073-.2726972l4-4c.1875494-.1874927.2929434-.4418052.293-.707z"/><path id="Shape" d="m41 49v2c0 .5522847.4477153 1 1 1s1-.4477153 1-1v-2c0-.5522847-.4477153-1-1-1s-1 .4477153-1 1z"/><path id="Shape" d="m51 43c.5522847 0 1-.4477153 1-1s-.4477153-1-1-1h-2c-.5522847 0-1 .4477153-1 1s.4477153 1 1 1z"/><path id="Shape" d="m32 42c0 .5522847.4477153 1 1 1h2c.5522847 0 1-.4477153 1-1s-.4477153-1-1-1h-2c-.5522847 0-1 .4477153-1 1z"/></g></g></g></svg>