<?xml version="1.0" encoding="utf-8"?>
<!-- Generator: Adobe Illustrator 26.0.1, SVG Export Plug-In . SVG Version: 6.00 Build 0)  -->
<svg version="1.1"
	 id="Ebene_1" text-rendering="geometricPrecision" shape-rendering="geometricPrecision" image-rendering="optimizeQuality"
	 xmlns="http://www.w3.org/2000/svg" xmlns:xlink="http://www.w3.org/1999/xlink" x="0px" y="0px" viewBox="0 0 310.9 310.9"
	 style="enable-background:new 0 0 310.9 310.9;" xml:space="preserve">
<style type="text/css">
	.st0{fill-rule:evenodd;clip-rule:evenodd;fill:#EF3139;}
	.st1{fill-rule:evenodd;clip-rule:evenodd;fill:#022D62;}
</style>
<path class="st0" d="M217.7,13c54.9,24,93.2,78.7,93.2,142.5c0,10.4-1,20.6-3,30.5c-10.7,37.2-30.4,60.9-64,63.2
	c-38.5,0.4-64.1-15.9-78.7-46.5c-7.5-22.1-8.8-48.7-3.3-73.8l36,7.2l9.8-48.8l-28-5.6C189.7,54.8,202.7,32.8,217.7,13z"/>
<path class="st1" d="M155.5,0c3.4,0,6.8,0.1,10.1,0.3C152,20.1,140,43.2,131.4,72l-39.1-7.8L82.5,113l29.1,5.8
	c-24.9,125.1,25.6,172.5,130.5,165.7c-24.8,16.7-54.7,26.4-86.8,26.4C69.6,310.9,0,241.3,0,155.5S69.6,0,155.5,0z"/>
</svg>
