<svg xmlns="http://www.w3.org/2000/svg" width="623" height="629" viewBox="0 0 623 629">
  <defs>
    <style>
      .cls-1 {
        fill: #ef3139;
        opacity: 0.1;
      }

      .cls-1, .cls-2 {
        fill-rule: evenodd;
      }

      .cls-2 {
        fill: #fdeaeb;
      }
    </style>
  </defs>
  <path class="cls-1" d="M963.094,310C1134.25,310,1273,449.463,1273,621.5S1134.25,933,963.094,933,653.187,793.537,653.187,621.5,791.937,310,963.094,310ZM734.231,708.077C740.583,714.7,852.089,830.925,856.472,835.5c5.683,5.923,2.991,17.011-7.174,20.153-8.141,2.523-171.413,52.334-185.357,56.579-9.159,2.79-16.255-4.824-13.243-13.8,3.36-10.016,59.3-172.547,63.507-184.156C717.282,705.777,727.97,701.549,734.231,708.077Z" transform="translate(-650 -310)"/>
  <path class="cls-2" d="M964.086,320C1134.69,320,1273,458.568,1273,629.5S1134.69,939,964.086,939,655.171,800.432,655.171,629.5,793.477,320,964.086,320ZM692.893,776.6c31.1,62.406,85.738,100.724,85.844,100.689a0.173,0.173,0,0,0-.147.044c-0.03.026-100.861,31.032-114.76,35.249-9.129,2.768-16.2-4.792-13.2-13.724,3.348-9.958,38.1-110.56,42.3-122.1C693.03,776.709,692.906,776.508,692.893,776.6Z" transform="translate(-650 -310)"/>
</svg>
